<?xml version="1.0" encoding="UTF-8" ?>
<!DOCTYPE svg PUBLIC "-//W3C//DTD SVG 1.1//EN" "http://www.w3.org/Graphics/SVG/1.1/DTD/svg11.dtd">
<svg width="708pt" height="700pt" viewBox="0 0 708 700" version="1.1" xmlns="http://www.w3.org/2000/svg">
<g id="#a9a9a9ff">
<path fill="#a9a9a9" opacity="1.00" d=" M 236.14 281.16 C 275.53 213.17 314.72 145.07 354.11 77.08 C 390.79 140.05 427.01 203.29 463.58 266.33 C 467.30 273.54 472.24 280.12 475.24 287.70 C 514.77 356.34 554.63 424.79 594.00 493.51 C 434.07 493.52 274.13 493.53 114.20 493.51 C 153.51 425.40 192.84 357.31 232.19 289.22 C 233.64 286.60 234.63 283.75 236.14 281.16 M 345.92 124.00 C 327.19 156.30 308.58 188.67 289.85 220.97 C 289.08 222.38 288.43 223.85 287.79 225.33 C 268.37 235.98 254.78 256.74 253.38 278.91 C 253.13 280.42 253.65 282.23 252.42 283.43 C 252.14 283.63 251.59 284.05 251.31 284.26 C 245.77 284.30 240.24 284.19 234.70 284.25 C 238.36 291.75 242.99 298.71 246.99 306.02 C 282.23 367.10 317.56 428.12 352.77 489.22 C 353.08 489.94 354.51 491.97 354.99 490.10 C 393.57 423.30 432.15 356.50 470.74 289.72 C 471.47 288.14 473.00 286.78 472.98 284.95 C 467.35 283.36 461.20 284.69 455.36 284.24 C 455.26 285.51 455.16 286.79 455.07 288.07 C 455.07 287.18 455.07 285.41 455.06 284.52 C 452.11 284.53 449.16 284.56 446.21 284.58 C 445.98 286.44 445.74 288.31 445.52 290.17 C 445.68 288.24 445.68 286.29 445.72 284.36 C 426.50 284.44 407.29 284.40 388.08 284.38 C 387.91 286.31 387.74 288.25 387.55 290.18 C 387.64 288.32 387.54 286.46 387.49 284.61 C 384.65 284.57 381.81 284.56 378.97 284.60 C 378.67 286.79 378.36 288.99 378.05 291.18 C 378.25 288.92 378.21 286.65 378.23 284.39 C 377.46 284.41 375.92 284.43 375.15 284.45 C 374.83 286.02 374.58 287.61 374.18 289.17 C 374.43 287.44 374.51 285.70 374.63 283.96 C 361.00 283.78 347.36 283.76 333.74 284.03 C 333.82 285.73 333.88 287.44 334.10 289.14 C 333.68 287.54 333.37 285.91 333.04 284.30 C 332.42 284.30 331.18 284.28 330.56 284.27 C 331.21 284.22 332.51 284.11 333.16 284.06 C 333.40 282.65 333.64 281.25 333.94 279.86 C 333.87 280.73 333.73 282.47 333.66 283.34 C 347.32 283.54 360.99 283.50 374.66 283.40 C 374.62 282.75 374.54 281.44 374.50 280.79 C 374.70 281.85 374.89 282.92 375.10 283.99 C 375.82 283.98 377.27 283.94 378.00 283.93 C 378.08 281.91 378.21 279.90 378.11 277.89 C 378.36 279.92 378.58 281.96 378.80 284.00 C 381.79 284.01 384.78 283.99 387.78 283.97 C 387.52 280.57 387.43 277.16 387.05 273.78 C 387.77 277.13 388.09 280.55 388.09 283.98 C 407.36 283.98 426.62 283.98 445.89 283.96 C 448.99 284.03 452.10 284.03 455.22 284.00 C 455.36 259.49 440.87 235.73 419.07 224.56 C 418.45 221.65 416.90 219.10 415.35 216.61 C 394.77 181.33 374.61 145.79 353.94 110.57 C 350.94 114.85 348.55 119.50 345.92 124.00 Z" />
</g>
<g id="#ffffffff">
<path fill="#ffffff" opacity="1.00" d=" M 345.92 124.00 C 348.55 119.50 350.94 114.85 353.94 110.57 C 374.61 145.79 394.77 181.33 415.35 216.61 C 416.90 219.10 418.45 221.65 419.07 224.56 C 399.06 213.81 373.73 214.48 354.11 225.82 C 334.07 214.16 307.98 213.84 287.79 225.33 C 288.43 223.85 289.08 222.38 289.85 220.97 C 308.58 188.67 327.19 156.30 345.92 124.00 Z" />
<path fill="#ffffff" opacity="1.00" d=" M 304.85 228.40 C 318.18 224.62 332.82 225.90 345.35 231.82 C 330.07 244.48 320.03 264.06 320.69 284.03 C 323.67 284.50 326.73 284.08 329.74 284.20 C 329.82 265.74 339.06 247.71 354.11 237.00 C 367.41 246.44 376.41 261.66 378.11 277.89 C 378.21 279.90 378.08 281.91 378.00 283.93 C 377.27 283.94 375.82 283.98 375.10 283.99 C 374.89 282.92 374.70 281.85 374.50 280.79 C 373.37 271.22 364.70 263.27 355.05 263.11 C 345.11 262.37 335.55 270.07 333.94 279.86 C 333.64 281.25 333.40 282.65 333.16 284.06 C 332.51 284.11 331.21 284.22 330.56 284.27 L 329.70 284.29 C 329.84 302.76 339.11 320.72 354.13 331.47 C 367.19 322.07 376.21 307.22 378.05 291.18 C 378.36 288.99 378.67 286.79 378.97 284.60 C 381.81 284.56 384.65 284.57 387.49 284.61 C 387.54 286.46 387.64 288.32 387.55 290.18 C 386.15 308.23 376.74 325.13 362.92 336.65 C 377.34 343.34 394.46 344.05 409.25 338.10 C 428.95 330.42 443.60 311.27 445.52 290.17 C 445.74 288.31 445.98 286.44 446.21 284.58 C 449.16 284.56 452.11 284.53 455.06 284.52 C 455.07 285.41 455.07 287.18 455.07 288.07 C 454.24 304.81 446.72 321.04 434.63 332.63 C 421.82 345.14 403.83 352.11 385.94 351.51 C 374.77 351.28 363.82 347.98 354.08 342.59 C 336.40 352.84 314.02 354.41 295.13 346.61 C 270.37 336.84 252.46 311.07 253.31 284.33 C 256.32 283.97 259.37 284.25 262.40 284.25 C 262.57 275.88 264.22 267.48 267.82 259.89 C 274.79 244.67 288.69 232.80 304.85 228.40 M 262.42 284.24 C 262.53 294.71 265.30 305.20 270.80 314.14 C 278.34 326.74 290.86 336.24 305.03 340.09 C 318.36 343.83 332.94 342.41 345.47 336.60 C 338.46 330.81 332.51 323.73 328.27 315.67 C 322.98 306.05 320.80 295.08 320.22 284.23 C 300.96 284.26 281.69 284.24 262.42 284.24 Z" />
<path fill="#ffffff" opacity="1.00" d=" M 362.90 231.84 C 381.83 222.75 405.62 224.91 422.38 237.66 C 436.86 248.32 445.81 265.98 445.89 283.96 C 426.62 283.98 407.36 283.98 388.09 283.98 C 388.09 280.55 387.77 277.13 387.05 273.78 C 384.55 257.42 375.69 242.29 362.90 231.84 Z" />
<path fill="#ffffff" opacity="1.00" d=" M 333.74 284.03 C 347.36 283.76 361.00 283.78 374.63 283.96 C 374.51 285.70 374.43 287.44 374.18 289.17 C 372.11 298.22 363.26 305.09 353.97 304.81 C 344.80 304.91 336.15 298.08 334.10 289.14 C 333.88 287.44 333.82 285.73 333.74 284.03 Z" />
<path fill="#ffffff" opacity="1.00" d=" M 310.62 523.05 C 312.88 523.14 317.03 522.45 316.80 525.93 C 315.95 528.53 312.71 527.63 310.65 527.85 C 310.64 526.24 310.63 524.64 310.62 523.05 Z" />
<path fill="#ffffff" opacity="1.00" d=" M 310.63 537.90 C 310.65 536.17 310.65 534.46 310.67 532.75 C 313.17 532.87 318.35 532.06 317.53 536.13 C 316.27 538.73 312.91 537.55 310.63 537.90 Z" />
</g>
<g id="#1f1a17ff">
<path fill="#1f1a17" opacity="1.00" d=" M 287.79 225.33 C 307.98 213.84 334.07 214.16 354.11 225.82 C 373.73 214.48 399.06 213.81 419.07 224.56 C 440.87 235.73 455.36 259.49 455.22 284.00 C 452.10 284.03 448.99 284.03 445.89 283.96 C 445.81 265.98 436.86 248.32 422.38 237.66 C 405.62 224.91 381.83 222.75 362.90 231.84 C 375.69 242.29 384.55 257.42 387.05 273.78 C 387.43 277.16 387.52 280.57 387.78 283.97 C 384.78 283.99 381.79 284.01 378.80 284.00 C 378.58 281.96 378.36 279.92 378.11 277.89 C 376.41 261.66 367.41 246.44 354.11 237.00 C 339.06 247.71 329.82 265.74 329.74 284.20 C 326.73 284.08 323.67 284.50 320.69 284.03 C 320.03 264.06 330.07 244.48 345.35 231.82 C 332.82 225.90 318.18 224.62 304.85 228.40 C 288.69 232.80 274.79 244.67 267.82 259.89 C 264.22 267.48 262.57 275.88 262.40 284.25 C 259.37 284.25 256.32 283.97 253.31 284.33 C 252.46 311.07 270.37 336.84 295.13 346.61 C 314.02 354.41 336.40 352.84 354.08 342.59 C 363.82 347.98 374.77 351.28 385.94 351.51 C 403.83 352.11 421.82 345.14 434.63 332.63 C 446.72 321.04 454.24 304.81 455.07 288.07 C 455.16 286.79 455.26 285.51 455.36 284.24 C 461.20 284.69 467.35 283.36 472.98 284.95 C 473.00 286.78 471.47 288.14 470.74 289.72 C 432.15 356.50 393.57 423.30 354.99 490.10 C 354.51 491.97 353.08 489.94 352.77 489.22 C 317.56 428.12 282.23 367.10 246.99 306.02 C 242.99 298.71 238.36 291.75 234.70 284.25 C 240.24 284.19 245.77 284.30 251.31 284.26 C 251.59 284.05 252.14 283.63 252.42 283.43 C 253.65 282.23 253.13 280.42 253.38 278.91 C 254.78 256.74 268.37 235.98 287.79 225.33 Z" />
<path fill="#1f1a17" opacity="1.00" d=" M 333.94 279.86 C 335.55 270.07 345.11 262.37 355.05 263.11 C 364.70 263.27 373.37 271.22 374.50 280.79 C 374.54 281.44 374.62 282.75 374.66 283.40 C 360.99 283.50 347.32 283.54 333.66 283.34 C 333.73 282.47 333.87 280.73 333.94 279.86 Z" />
<path fill="#1f1a17" opacity="1.00" d=" M 262.42 284.24 C 281.69 284.24 300.96 284.26 320.22 284.23 C 320.80 295.08 322.98 306.05 328.27 315.67 C 332.51 323.73 338.46 330.81 345.47 336.60 C 332.94 342.41 318.36 343.83 305.03 340.09 C 290.86 336.24 278.34 326.74 270.80 314.14 C 265.30 305.20 262.53 294.71 262.42 284.24 Z" />
<path fill="#1f1a17" opacity="1.00" d=" M 329.70 284.29 L 330.56 284.27 C 331.18 284.28 332.42 284.30 333.04 284.30 C 333.37 285.91 333.68 287.54 334.10 289.14 C 336.15 298.08 344.80 304.91 353.97 304.81 C 363.26 305.09 372.11 298.22 374.18 289.17 C 374.58 287.61 374.83 286.02 375.15 284.45 C 375.92 284.43 377.46 284.41 378.23 284.39 C 378.21 286.65 378.25 288.92 378.05 291.18 C 376.21 307.22 367.19 322.07 354.13 331.47 C 339.11 320.72 329.84 302.76 329.70 284.29 Z" />
<path fill="#1f1a17" opacity="1.00" d=" M 388.08 284.38 C 407.29 284.40 426.50 284.44 445.72 284.36 C 445.68 286.29 445.68 288.24 445.52 290.17 C 443.60 311.27 428.95 330.42 409.25 338.10 C 394.46 344.05 377.34 343.34 362.92 336.65 C 376.74 325.13 386.15 308.23 387.55 290.18 C 387.74 288.25 387.91 286.31 388.08 284.38 Z" />
<path fill="#1f1a17" opacity="1.00" d=" M 175.90 518.15 C 178.21 518.07 180.52 518.02 182.83 517.94 C 182.92 520.92 182.92 523.91 182.92 526.90 C 185.74 526.92 188.56 526.93 191.38 526.92 C 191.36 523.97 191.36 521.02 191.36 518.07 C 193.68 518.06 196.00 518.06 198.33 518.08 C 198.30 526.33 198.29 534.58 198.34 542.84 C 196.01 542.85 193.69 542.86 191.36 542.85 C 191.35 539.61 191.35 536.38 191.40 533.15 C 188.57 532.91 185.73 532.85 182.90 532.93 C 182.92 536.24 182.92 539.55 182.91 542.86 C 180.58 542.86 178.26 542.85 175.93 542.83 C 175.88 534.60 175.94 526.37 175.90 518.15 Z" />
<path fill="#1f1a17" opacity="1.00" d=" M 114.30 518.08 C 120.26 518.06 126.22 518.04 132.19 518.08 C 132.16 520.05 132.15 522.02 132.15 524.00 C 130.32 524.03 128.50 524.05 126.68 524.07 C 126.70 530.33 126.69 536.59 126.69 542.86 C 124.37 542.86 122.06 542.85 119.74 542.84 C 119.74 536.59 119.73 530.35 119.76 524.10 C 117.93 524.04 116.10 523.98 114.27 523.92 C 114.28 521.97 114.29 520.02 114.30 518.08 Z" />
<path fill="#1f1a17" opacity="1.00" d=" M 134.63 518.05 C 139.30 518.27 144.07 517.55 148.67 518.58 C 154.53 520.21 155.95 528.67 151.53 532.56 C 148.86 535.09 144.94 534.60 141.57 534.72 C 141.58 537.43 141.59 540.14 141.59 542.86 C 139.26 542.87 136.94 542.86 134.62 542.84 C 134.64 534.57 134.65 526.31 134.63 518.05 M 141.60 523.33 C 141.58 525.35 141.58 527.38 141.59 529.42 C 143.73 529.23 147.47 529.26 146.93 526.08 C 146.98 523.20 143.51 523.67 141.60 523.33 Z" />
<path fill="#1f1a17" opacity="1.00" d=" M 157.37 518.08 C 162.34 518.08 167.31 518.01 172.29 518.13 C 172.28 520.03 172.28 521.94 172.30 523.86 C 169.64 524.02 166.98 524.08 164.32 524.05 C 164.33 524.91 164.34 526.63 164.34 527.49 C 166.73 527.48 169.11 527.48 171.50 527.49 C 171.51 529.27 171.52 531.07 171.54 532.86 C 169.13 532.87 166.73 532.89 164.33 532.95 C 164.31 534.25 164.30 535.56 164.29 536.87 C 166.96 536.87 169.64 536.90 172.32 537.09 C 172.28 538.99 172.26 540.90 172.24 542.82 C 167.28 542.89 162.31 542.87 157.35 542.84 C 157.39 534.58 157.32 526.33 157.37 518.08 Z" />
<path fill="#1f1a17" opacity="1.00" d=" M 202.77 518.06 C 205.00 518.06 207.24 518.06 209.47 518.07 C 209.47 523.02 209.47 527.97 209.51 532.93 C 212.66 527.96 215.90 523.05 219.05 518.09 C 221.32 518.07 223.60 518.07 225.87 518.06 C 225.86 526.33 225.88 534.59 225.86 542.86 C 223.64 542.86 221.43 542.86 219.22 542.87 C 219.19 537.95 219.21 533.02 219.19 528.10 C 215.92 532.96 212.77 537.91 209.62 542.85 C 207.32 542.86 205.03 542.85 202.74 542.84 C 202.81 534.58 202.77 526.32 202.77 518.06 Z" />
<path fill="#1f1a17" opacity="1.00" d=" M 230.32 518.08 C 232.65 518.07 234.98 518.06 237.32 518.06 C 237.30 521.01 237.31 523.95 237.30 526.90 C 240.12 526.93 242.95 526.93 245.77 526.89 C 245.74 523.95 245.73 521.02 245.72 518.09 C 248.04 518.06 250.37 518.06 252.70 518.06 C 252.69 526.33 252.69 534.60 252.69 542.87 C 250.36 542.87 248.02 542.86 245.70 542.83 C 245.75 539.51 245.76 536.19 245.68 532.88 C 242.90 532.89 240.13 532.89 237.36 532.86 C 237.29 536.17 237.29 539.50 237.35 542.82 C 235.01 542.84 232.67 542.85 230.34 542.86 C 230.37 534.60 230.40 526.34 230.32 518.08 Z" />
<path fill="#1f1a17" opacity="1.00" d=" M 257.18 518.06 C 262.15 518.07 267.12 518.05 272.10 518.09 C 272.10 520.04 272.10 521.98 272.10 523.94 C 269.44 524.02 266.78 524.06 264.13 524.05 C 264.17 530.31 264.15 536.58 264.13 542.84 C 261.80 542.85 259.48 542.85 257.16 542.85 C 257.17 534.58 257.13 526.32 257.18 518.06 Z" />
<path fill="#1f1a17" opacity="1.00" d=" M 282.10 518.09 C 286.63 516.72 291.99 517.14 295.78 520.17 C 302.27 525.48 301.82 537.18 294.55 541.62 C 288.84 544.95 280.38 544.18 276.26 538.68 C 271.23 532.06 273.70 520.58 282.10 518.09 M 285.45 523.52 C 278.99 525.14 279.35 536.59 286.06 537.53 C 290.83 538.47 294.15 533.18 293.04 528.92 C 292.79 525.26 289.02 522.42 285.45 523.52 Z" />
<path fill="#1f1a17" opacity="1.00" d=" M 303.73 518.07 C 308.55 518.21 313.42 517.73 318.22 518.34 C 321.74 518.69 324.04 522.69 322.88 525.97 C 322.41 527.56 320.92 528.49 319.82 529.62 C 321.33 530.51 323.11 531.32 323.87 533.03 C 325.87 536.77 323.31 541.90 319.13 542.56 C 314.02 543.19 308.84 542.72 303.69 542.86 C 303.73 534.60 303.69 526.33 303.73 518.07 M 310.62 523.05 C 310.63 524.64 310.64 526.24 310.65 527.85 C 312.71 527.63 315.95 528.53 316.80 525.93 C 317.03 522.45 312.88 523.14 310.62 523.05 M 310.63 537.90 C 312.91 537.55 316.27 538.73 317.53 536.13 C 318.35 532.06 313.17 532.87 310.67 532.75 C 310.65 534.46 310.65 536.17 310.63 537.90 Z" />
<path fill="#1f1a17" opacity="1.00" d=" M 334.06 518.09 C 336.91 518.06 339.76 518.05 342.61 518.11 C 345.35 526.51 348.73 534.70 351.26 543.18 C 353.65 540.12 355.89 536.97 358.06 533.76 C 351.37 532.08 350.62 521.51 356.97 518.97 C 361.68 517.30 366.82 518.34 371.71 518.09 C 371.72 526.34 371.67 534.59 371.74 542.84 C 369.41 542.85 367.08 542.86 364.76 542.87 C 364.77 539.88 364.78 536.90 364.64 533.92 C 361.77 536.87 361.19 542.40 356.74 543.41 C 355.41 543.33 354.10 542.68 352.75 543.06 C 349.80 543.69 346.88 542.51 343.90 542.80 C 343.42 541.38 342.94 539.96 342.47 538.56 C 339.66 538.57 336.84 538.57 334.03 538.60 C 333.61 540.01 333.18 541.42 332.76 542.84 C 330.25 542.86 327.74 542.86 325.24 542.84 C 328.22 534.60 331.17 526.36 334.06 518.09 M 359.35 526.93 C 359.39 529.71 362.82 529.38 364.75 529.62 C 364.75 527.52 364.74 525.42 364.69 523.34 C 362.45 523.38 358.73 523.76 359.35 526.93 M 335.50 533.06 C 337.37 533.10 339.25 533.12 341.14 533.14 C 340.21 530.09 339.27 527.04 338.30 524.02 C 337.37 527.03 336.44 530.04 335.50 533.06 Z" />
<path fill="#1f1a17" opacity="1.00" d=" M 384.44 518.06 C 386.76 518.05 389.07 518.06 391.39 518.08 C 391.38 521.50 391.37 524.92 391.41 528.34 C 393.96 524.96 396.39 521.50 398.86 518.05 C 401.57 518.06 404.28 518.05 407.00 518.05 C 403.89 522.07 400.73 526.05 397.59 530.04 C 400.81 534.31 404.01 538.58 407.26 542.83 C 404.39 542.84 401.52 542.86 398.66 542.90 C 396.18 539.36 393.77 535.77 391.41 532.15 C 391.38 535.71 391.38 539.27 391.40 542.84 C 389.08 542.85 386.76 542.86 384.45 542.87 C 384.41 534.60 384.43 526.33 384.44 518.06 Z" />
<path fill="#1f1a17" opacity="1.00" d=" M 416.21 518.22 C 421.76 516.29 428.97 517.45 432.45 522.56 C 435.45 526.99 435.61 533.18 432.85 537.77 C 427.97 545.85 413.98 545.53 409.70 537.03 C 406.15 530.46 408.75 520.69 416.21 518.22 M 419.41 523.65 C 413.26 525.91 414.13 537.16 421.03 537.59 C 425.60 538.14 428.40 533.09 427.56 529.08 C 427.33 525.19 423.15 522.19 419.41 523.65 Z" />
<path fill="#1f1a17" opacity="1.00" d=" M 440.03 518.07 C 442.36 518.07 444.69 518.06 447.03 518.09 C 448.45 523.09 449.91 528.09 451.32 533.10 C 452.90 528.11 454.22 523.05 455.76 518.06 C 458.06 518.05 460.37 518.06 462.68 518.06 C 463.91 526.32 465.05 534.59 466.32 542.84 C 464.11 542.79 461.85 543.10 459.67 542.69 C 458.86 538.06 458.51 533.36 457.79 528.72 C 456.30 533.39 454.98 538.12 453.65 542.84 C 452.12 542.84 450.60 542.83 449.08 542.82 C 447.76 538.20 446.55 533.54 444.97 529.00 C 444.23 533.59 443.68 538.21 443.15 542.84 C 440.91 542.86 438.67 542.86 436.43 542.86 C 437.64 534.60 438.86 526.34 440.03 518.07 Z" />
<path fill="#1f1a17" opacity="1.00" d=" M 469.10 518.06 C 476.45 518.07 483.81 518.06 491.17 518.07 C 491.14 526.32 491.17 534.58 491.15 542.85 C 488.82 542.86 486.51 542.86 484.19 542.86 C 484.20 536.59 484.22 530.32 484.18 524.06 C 481.43 524.06 478.69 524.05 475.95 524.06 C 475.92 530.33 475.94 536.60 475.96 542.87 C 473.66 542.86 471.36 542.85 469.07 542.85 C 469.11 534.59 469.01 526.32 469.10 518.06 Z" />
<path fill="#1f1a17" opacity="1.00" d=" M 501.93 518.06 C 504.78 518.04 507.62 518.05 510.48 518.13 C 513.29 526.39 516.33 534.59 519.21 542.83 C 516.73 542.85 514.27 542.86 511.80 542.88 C 511.32 541.44 510.85 540.00 510.39 538.57 C 507.54 538.56 504.69 538.56 501.85 538.61 C 501.50 539.97 501.15 541.35 500.80 542.73 C 498.24 542.85 495.67 542.87 493.11 542.86 C 496.10 534.61 499.01 526.33 501.93 518.06 M 503.35 533.13 C 505.23 533.12 507.11 533.11 509.00 533.10 C 508.07 530.09 507.13 527.09 506.23 524.08 C 505.20 527.07 504.26 530.09 503.35 533.13 Z" />
<path fill="#1f1a17" opacity="1.00" d=" M 521.22 518.06 C 523.52 518.06 525.84 518.06 528.16 518.08 C 528.16 521.03 528.17 523.98 528.16 526.94 C 530.98 526.92 533.79 526.92 536.61 526.90 C 536.59 523.95 536.59 521.00 536.59 518.05 C 538.92 518.05 541.25 518.07 543.58 518.13 C 543.52 526.36 543.53 534.59 543.58 542.82 C 541.24 542.89 538.90 542.85 536.57 542.85 C 536.60 539.52 536.60 536.20 536.57 532.88 C 533.77 532.88 530.98 532.88 528.19 532.91 C 528.16 536.22 528.17 539.54 528.16 542.86 C 525.84 542.85 523.53 542.86 521.22 542.85 C 521.20 534.59 521.22 526.32 521.22 518.06 Z" />
<path fill="#1f1a17" opacity="1.00" d=" M 548.10 518.07 C 550.29 518.06 552.49 518.05 554.69 518.05 C 554.72 522.99 554.70 527.94 554.71 532.88 C 557.93 527.96 561.15 523.04 564.26 518.06 C 566.56 518.06 568.86 518.06 571.17 518.08 C 571.10 526.33 571.19 534.59 571.14 542.84 C 568.90 542.86 566.66 542.86 564.42 542.87 C 564.44 537.92 564.42 532.98 564.42 528.04 C 561.17 532.95 558.02 537.92 554.83 542.87 C 552.59 542.87 550.35 542.86 548.11 542.85 C 548.11 534.59 547.85 526.32 548.10 518.07 Z" />
<path fill="#1f1a17" opacity="1.00" d=" M 579.07 519.02 C 583.81 517.27 589.00 518.35 593.94 518.08 C 593.92 526.33 593.95 534.59 593.93 542.85 C 591.66 542.86 589.39 542.87 587.12 542.89 C 587.03 539.93 586.93 536.96 586.88 534.01 C 584.82 536.84 583.08 539.88 581.28 542.88 C 578.81 542.85 576.34 542.86 573.88 542.84 C 576.06 539.78 578.23 536.72 580.47 533.71 C 573.62 532.28 572.87 521.72 579.07 519.02 M 581.60 527.01 C 581.71 529.82 585.13 529.33 587.09 529.57 C 587.08 527.51 587.08 525.46 587.09 523.41 C 584.73 523.38 580.91 523.63 581.60 527.01 Z" />
<path fill="#1f1a17" opacity="1.00" d=" M 461.50 562.68 C 472.33 560.99 484.45 562.63 492.91 570.11 C 504.21 580.00 505.86 598.45 497.41 610.65 C 492.20 618.34 483.14 622.69 474.05 623.51 C 463.52 624.62 451.90 622.39 444.16 614.70 C 433.18 604.01 432.48 584.90 442.23 573.21 C 447.00 567.38 454.14 563.86 461.50 562.68 M 464.45 581.61 C 457.04 584.53 455.63 594.99 460.10 600.95 C 464.18 606.24 473.00 606.51 477.50 601.60 C 481.04 597.61 481.36 591.47 479.22 586.74 C 476.68 581.43 469.72 579.33 464.45 581.61 Z" />
<path fill="#1f1a17" opacity="1.00" d=" M 119.27 563.84 C 129.53 563.75 139.80 563.81 150.07 563.80 C 155.99 563.87 162.27 565.21 166.79 569.27 C 175.69 577.29 174.75 593.73 164.49 600.23 C 158.01 604.48 149.97 603.96 142.57 603.95 C 142.61 609.95 142.56 615.95 142.60 621.96 C 134.82 622.13 127.05 621.99 119.28 622.03 C 119.29 602.64 119.30 583.24 119.27 563.84 M 142.55 579.02 C 142.59 582.31 142.58 585.61 142.58 588.91 C 144.88 588.66 147.56 589.10 149.46 587.49 C 151.07 585.79 151.08 583.00 150.06 581.01 C 148.48 578.42 145.08 579.18 142.55 579.02 Z" />
<path fill="#1f1a17" opacity="1.00" d=" M 171.29 621.97 C 178.16 602.58 185.11 583.21 191.97 563.81 C 200.50 563.97 209.14 563.45 217.59 564.05 C 224.76 583.24 231.29 602.68 238.38 621.90 C 230.41 622.14 222.42 622.09 214.44 621.94 C 213.67 619.13 212.88 616.33 212.13 613.53 C 207.25 613.53 202.38 613.54 197.52 613.52 C 196.73 616.33 195.94 619.15 195.19 621.97 C 187.22 622.09 179.26 622.07 171.29 621.97 M 200.75 598.97 C 203.46 598.97 206.18 598.97 208.90 598.94 C 207.50 594.19 206.35 589.37 204.84 584.66 C 203.23 589.36 202.09 594.19 200.75 598.97 Z" />
<path fill="#1f1a17" opacity="1.00" d=" M 242.25 621.93 C 245.02 602.55 247.64 583.14 250.47 563.77 C 259.00 563.83 267.53 563.77 276.06 563.83 C 279.15 574.66 281.73 585.65 285.17 596.38 C 288.34 585.58 291.18 574.69 294.14 563.83 C 302.71 563.77 311.28 563.79 319.84 563.81 C 322.48 583.23 325.30 602.62 327.95 622.03 C 320.41 622.02 312.88 622.11 305.34 621.98 C 304.36 611.94 303.66 601.88 302.61 591.85 C 299.76 601.90 296.77 611.91 293.89 621.96 C 288.03 622.09 282.17 622.09 276.32 621.96 C 273.46 611.93 270.53 601.92 267.55 591.92 C 266.60 601.95 265.84 612.01 264.85 622.04 C 257.32 621.99 249.78 622.15 242.25 621.93 Z" />
<path fill="#1f1a17" opacity="1.00" d=" M 372.64 563.78 C 380.40 563.84 388.17 563.75 395.93 563.84 C 395.95 570.68 395.83 577.53 396.01 584.37 C 400.52 577.65 404.52 570.61 408.85 563.78 C 417.35 563.85 425.85 563.76 434.36 563.81 C 427.79 573.00 421.21 582.18 414.60 591.35 C 421.25 601.65 428.19 611.75 434.93 622.00 C 425.98 622.06 417.03 622.07 408.09 621.99 C 404.10 614.82 400.39 607.48 396.03 600.54 C 395.80 607.69 395.98 614.86 395.92 622.02 C 388.16 622.06 380.40 622.05 372.64 622.03 C 372.63 602.61 372.63 583.20 372.64 563.78 Z" />
<path fill="#1f1a17" opacity="1.00" d=" M 508.28 622.06 C 510.97 602.62 513.64 583.18 516.49 563.77 C 525.03 563.85 533.56 563.76 542.10 563.82 C 545.10 574.68 547.74 585.66 551.19 596.38 C 554.30 585.56 557.21 574.68 560.15 563.81 C 568.70 563.80 577.26 563.77 585.82 563.83 C 588.51 583.23 591.30 602.62 593.93 622.04 C 586.40 622.01 578.87 622.10 571.34 622.00 C 570.37 611.95 569.65 601.88 568.60 591.84 C 565.76 601.90 562.74 611.92 559.89 621.98 C 554.03 622.05 548.16 622.12 542.30 621.92 C 539.44 611.88 536.51 601.87 533.57 591.86 C 532.61 601.91 531.82 611.97 530.88 622.03 C 523.34 622.05 515.81 622.02 508.28 622.06 Z" />
<path fill="#1f1a17" opacity="1.00" d=" M 343.49 578.68 C 352.03 575.54 362.24 581.88 363.10 590.95 C 364.69 600.08 356.10 608.96 346.93 607.80 C 338.33 607.37 331.65 598.40 333.55 590.02 C 334.52 584.81 338.47 580.33 343.49 578.68 Z" />
</g>
</svg>
