<?xml version="1.0" encoding="UTF-8" ?>
<!DOCTYPE svg PUBLIC "-//W3C//DTD SVG 1.1//EN" "http://www.w3.org/Graphics/SVG/1.1/DTD/svg11.dtd">
<svg width="500pt" height="200pt" viewBox="0 0 500 200" version="1.1" xmlns="http://www.w3.org/2000/svg">
<g id="#fefdfbff">
</g>
<g id="#f6e17dff">
<path fill="#f6e17d" opacity="1.00" d=" M 58.39 14.36 C 61.76 14.68 65.03 15.73 67.90 17.52 C 66.23 19.42 64.58 21.34 62.82 23.16 C 58.53 23.05 54.20 22.96 50.04 24.25 C 52.05 20.36 55.60 17.64 58.39 14.36 Z" />
</g>
<g id="#eccb6aff">
<path fill="#eccb6a" opacity="1.00" d=" M 67.90 17.52 L 68.16 17.23 C 70.58 18.86 72.86 20.71 74.75 22.95 C 73.38 24.55 72.04 26.18 70.74 27.84 C 69.20 25.30 66.48 23.73 63.64 25.21 C 63.43 24.70 63.02 23.67 62.82 23.16 C 64.58 21.34 66.23 19.42 67.90 17.52 Z" />
</g>
<g id="#f5d75cff">
<path fill="#f5d75c" opacity="1.00" d=" M 50.04 24.25 C 54.20 22.96 58.53 23.05 62.82 23.16 C 63.02 23.67 63.43 24.70 63.64 25.21 C 59.21 27.85 54.83 30.99 52.38 35.68 C 50.94 35.19 49.50 34.71 48.06 34.22 C 44.41 32.99 40.74 31.78 37.06 30.65 L 37.70 30.04 C 39.55 30.69 41.40 31.34 43.25 31.98 C 45.59 29.48 47.33 26.37 50.04 24.25 Z" />
</g>
<g id="#ecad9aff">
<path fill="#ecad9a" opacity="1.00" d=" M 10.82 36.08 C 10.18 30.98 13.91 26.35 17.90 23.64 C 20.83 23.29 23.62 24.59 26.22 25.77 C 24.99 25.91 23.76 26.07 22.54 26.25 C 20.93 29.34 17.64 30.82 15.43 33.31 C 14.93 36.51 18.10 38.92 20.02 41.12 C 16.82 39.93 12.49 39.43 10.82 36.08 Z" />
</g>
<g id="#eabc4bff">
<path fill="#eabc4b" opacity="1.00" d=" M 63.64 25.21 C 66.48 23.73 69.20 25.30 70.74 27.84 C 67.75 31.25 65.01 34.87 62.00 38.27 C 65.00 40.60 68.73 41.53 72.10 43.16 L 71.19 43.04 C 69.37 42.66 67.57 42.20 65.81 41.58 C 61.68 38.89 57.00 37.29 52.38 35.68 C 54.83 30.99 59.21 27.85 63.64 25.21 Z" />
</g>
<g id="#e78a7bff">
<path fill="#e78a7b" opacity="1.00" d=" M 22.54 26.25 C 23.76 26.07 24.99 25.91 26.22 25.77 C 28.33 26.41 30.38 27.24 32.47 27.94 L 31.86 28.19 C 27.41 29.82 24.54 34.12 19.76 35.13 C 20.42 37.65 21.52 40.03 23.09 42.12 C 22.03 41.86 21.01 41.53 20.02 41.12 C 18.10 38.92 14.93 36.51 15.43 33.31 C 17.64 30.82 20.93 29.34 22.54 26.25 Z" />
</g>
<g id="#6cb58eff">
<path fill="#6cb58e" opacity="1.00" d=" M 98.86 26.51 C 101.42 27.40 103.97 28.35 106.53 29.27 C 103.93 30.51 101.22 31.69 99.08 33.67 C 95.96 37.03 92.69 40.24 89.32 43.35 C 87.55 45.31 84.67 44.93 82.32 44.75 L 81.96 44.45 C 87.20 38.20 93.19 32.44 98.86 26.51 Z" />
</g>
<g id="#e26f61ff">
<path fill="#e26f61" opacity="1.00" d=" M 19.76 35.13 C 24.54 34.12 27.41 29.82 31.86 28.19 C 33.88 28.54 35.78 29.34 37.70 30.04 L 37.06 30.65 C 33.97 34.06 30.08 36.87 25.22 36.47 C 26.18 39.65 27.93 42.49 30.12 44.96 C 27.72 44.18 25.25 43.47 23.09 42.12 C 21.52 40.03 20.42 37.65 19.76 35.13 Z" />
</g>
<g id="#4ea087ff">
<path fill="#4ea087" opacity="1.00" d=" M 99.08 33.67 C 101.22 31.69 103.93 30.51 106.53 29.27 L 106.96 29.89 C 107.77 31.06 108.59 32.24 109.42 33.42 C 108.13 36.01 106.61 38.52 104.47 40.50 C 104.34 39.53 104.10 37.59 103.97 36.62 C 103.91 36.06 103.77 34.94 103.70 34.38 C 102.16 34.14 100.62 33.91 99.08 33.67 Z" />
</g>
<g id="#82a491ff">
<path fill="#82a491" opacity="1.00" d=" M 106.96 29.89 C 109.17 31.33 112.34 32.98 112.59 35.87 C 110.51 38.65 107.85 40.93 105.50 43.48 C 102.88 46.18 100.31 48.93 97.83 51.75 C 97.28 51.55 96.19 51.15 95.64 50.94 C 98.06 47.05 101.12 43.62 104.47 40.50 C 106.61 38.52 108.13 36.01 109.42 33.42 C 108.59 32.24 107.77 31.06 106.96 29.89 Z" />
</g>
<g id="#e0554aff">
<path fill="#e0554a" opacity="1.00" d=" M 25.22 36.47 C 30.08 36.87 33.97 34.06 37.06 30.65 C 40.74 31.78 44.41 32.99 48.06 34.22 C 43.07 36.57 38.08 39.39 32.37 39.24 C 32.79 39.76 33.21 40.28 33.63 40.80 C 32.83 41.38 32.04 41.96 31.24 42.54 C 32.58 43.63 33.92 44.72 35.27 45.80 C 34.46 45.75 32.84 45.67 32.04 45.63 C 31.68 45.61 30.97 45.58 30.62 45.57 L 30.12 44.96 C 27.93 42.49 26.18 39.65 25.22 36.47 Z" />
</g>
<g id="#2ca26eff">
<path fill="#2ca26e" opacity="1.00" d=" M 89.32 43.35 C 92.69 40.24 95.96 37.03 99.08 33.67 C 100.62 33.91 102.16 34.14 103.70 34.38 C 103.77 34.94 103.91 36.06 103.97 36.62 C 98.38 40.14 94.12 45.68 87.84 48.08 C 87.45 48.00 86.69 47.84 86.31 47.76 C 84.83 46.97 83.45 46.00 82.32 44.75 C 84.67 44.93 87.55 45.31 89.32 43.35 Z" />
</g>
<g id="#da3734ff">
<path fill="#da3734" opacity="1.00" d=" M 32.37 39.24 C 38.08 39.39 43.07 36.57 48.06 34.22 C 49.50 34.71 50.94 35.19 52.38 35.68 C 57.00 37.29 61.68 38.89 65.81 41.58 C 67.05 42.66 68.25 43.79 69.47 44.90 C 69.66 45.52 70.04 46.75 70.23 47.36 C 65.45 46.93 61.14 44.69 56.65 43.21 C 56.38 43.81 55.84 45.02 55.57 45.62 C 51.12 44.48 46.44 42.79 42.06 45.17 C 42.48 47.00 42.91 48.82 43.37 50.64 C 40.44 49.44 37.75 47.75 35.27 45.80 C 33.92 44.72 32.58 43.63 31.24 42.54 C 32.04 41.96 32.83 41.38 33.63 40.80 C 33.21 40.28 32.79 39.76 32.37 39.24 Z" />
</g>
<g id="#090909ff">
<path fill="#090909" opacity="1.00" d=" M 225.11 42.94 C 230.71 35.64 241.19 34.26 249.59 36.57 C 254.33 37.75 258.20 41.25 259.93 45.80 C 257.14 46.50 254.31 47.05 251.50 47.66 C 248.50 39.94 237.10 39.69 232.31 45.79 C 232.05 44.74 231.81 43.69 231.56 42.63 C 229.50 43.59 227.26 43.60 225.11 42.94 Z" />
<path fill="#090909" opacity="1.00" d=" M 352.54 36.25 C 355.24 36.22 357.94 36.20 360.65 36.22 C 360.67 38.27 360.67 40.32 360.68 42.37 C 357.97 42.31 355.26 42.31 352.56 42.36 C 352.56 40.32 352.55 38.28 352.54 36.25 Z" />
</g>
<g id="#428563ff">
<path fill="#428563" opacity="1.00" d=" M 87.84 48.08 C 94.12 45.68 98.38 40.14 103.97 36.62 C 104.10 37.59 104.34 39.53 104.47 40.50 C 101.12 43.62 98.06 47.05 95.64 50.94 C 92.96 50.20 90.39 49.15 87.84 48.08 Z" />
</g>
<g id="#010101ff">
<path fill="#010101" opacity="1.00" d=" M 337.57 40.86 C 340.26 39.62 342.92 38.32 345.60 37.07 C 345.74 40.14 345.71 43.21 345.69 46.28 C 347.58 46.27 349.47 46.26 351.37 46.28 C 351.36 48.02 351.36 49.76 351.37 51.50 C 349.45 51.51 347.54 51.52 345.63 51.54 C 345.74 56.47 345.77 61.40 345.69 66.34 C 347.42 67.59 349.41 67.33 351.35 66.75 C 351.55 68.52 351.75 70.30 351.93 72.08 C 347.50 72.72 341.64 73.92 338.45 69.92 C 336.63 64.03 337.89 57.63 337.50 51.52 C 336.37 51.50 335.24 51.47 334.12 51.45 C 334.45 57.65 333.57 63.91 334.70 70.06 C 335.09 70.77 335.47 71.49 335.86 72.21 C 334.53 72.22 333.19 72.23 331.86 72.25 C 331.81 73.55 331.74 74.85 331.68 76.15 C 330.15 76.13 328.63 76.12 327.12 76.12 C 327.05 73.86 328.14 71.33 326.49 69.38 C 320.61 74.20 309.15 74.57 305.98 66.46 C 303.35 70.77 298.36 72.57 293.53 72.85 C 292.34 74.96 293.39 77.82 293.16 80.22 C 296.70 77.22 302.91 77.26 305.57 81.40 C 307.82 85.35 307.03 91.66 302.41 93.54 C 299.11 95.40 295.47 93.74 292.59 91.91 C 292.59 92.41 292.59 93.40 292.59 93.90 C 291.12 93.86 289.66 93.83 288.21 93.79 C 288.22 86.73 288.18 79.67 288.25 72.61 C 284.83 71.57 281.19 70.10 279.29 66.85 C 276.27 62.44 277.19 56.74 278.58 51.92 C 276.02 51.60 272.80 50.92 270.92 53.23 C 268.49 57.03 269.52 61.77 269.25 66.02 C 268.99 69.52 270.13 73.14 268.78 76.51 C 267.00 82.25 265.27 88.01 263.64 93.80 C 261.75 93.82 259.87 93.82 257.98 93.79 C 256.37 88.50 254.52 83.29 252.99 77.98 C 250.13 82.77 249.31 88.58 247.29 93.79 C 245.38 93.82 243.47 93.83 241.56 93.84 C 239.55 86.68 237.48 79.53 235.32 72.41 C 232.21 70.74 228.61 69.69 226.22 66.90 C 220.32 60.56 220.17 49.86 225.11 42.94 C 227.26 43.60 229.50 43.59 231.56 42.63 C 231.81 43.69 232.05 44.74 232.31 45.79 L 232.35 45.96 C 229.99 50.65 229.92 56.37 231.81 61.22 C 234.58 67.28 243.52 68.57 248.45 64.47 C 250.13 63.14 250.80 61.03 251.65 59.15 C 254.40 59.85 257.15 60.56 259.90 61.32 C 258.56 65.49 255.66 69.52 251.28 70.80 C 251.02 71.21 250.49 72.02 250.22 72.43 C 251.85 73.09 254.57 71.62 255.93 72.98 C 257.56 77.41 258.54 82.07 260.28 86.45 C 260.49 86.59 260.92 86.86 261.13 87.00 C 262.13 82.01 263.67 77.14 264.92 72.21 C 264.03 72.24 262.25 72.28 261.36 72.31 C 260.70 63.67 261.39 54.90 261.14 46.21 C 263.66 46.25 266.18 46.27 268.70 46.27 C 268.69 47.14 268.66 48.88 268.65 49.75 C 270.33 48.32 271.79 46.42 274.00 45.79 C 276.55 45.03 279.10 46.08 281.55 46.70 C 281.04 47.82 280.55 48.94 280.07 50.07 C 286.23 44.56 296.31 43.86 302.78 49.19 C 306.23 52.04 306.74 56.73 307.12 60.90 C 299.97 61.55 292.79 60.47 285.65 61.15 C 285.33 65.50 290.06 68.72 294.12 67.72 C 296.22 67.53 297.37 65.57 298.73 64.22 C 301.16 64.50 303.60 64.75 306.04 64.99 C 306.38 63.62 306.74 62.26 307.12 60.90 C 312.55 56.58 319.82 57.41 326.05 55.18 C 326.15 53.93 325.93 52.72 325.37 51.55 C 321.52 50.08 316.66 49.91 314.13 53.72 C 311.71 53.65 309.34 53.12 306.97 52.71 C 308.30 49.23 311.39 46.66 315.09 46.10 C 321.31 45.07 328.84 44.81 333.59 49.70 C 333.60 48.84 333.63 47.12 333.64 46.25 C 334.92 46.26 336.20 46.27 337.49 46.28 C 337.52 44.47 337.54 42.67 337.57 40.86 M 285.26 56.57 C 289.67 57.53 294.21 56.87 298.68 57.18 C 299.48 52.57 293.91 49.15 289.92 51.03 C 287.25 51.63 286.19 54.32 285.26 56.57 M 314.46 62.71 C 314.36 64.33 314.14 66.27 315.88 67.14 C 318.85 69.34 322.45 67.62 325.25 66.07 C 325.88 63.96 326.27 61.78 326.40 59.58 C 322.36 60.36 318.11 60.65 314.46 62.71 M 248.96 71.68 C 246.28 72.73 243.37 72.72 240.54 72.92 C 242.12 77.65 243.04 82.57 244.62 87.30 C 246.59 82.92 247.60 78.19 249.29 73.70 L 250.43 72.91 C 249.94 72.49 249.45 72.09 248.96 71.68 M 295.32 81.50 C 291.05 83.61 292.76 92.14 298.08 91.34 C 301.98 90.95 302.38 86.41 301.43 83.44 C 300.45 81.13 297.46 80.51 295.32 81.50 Z" />
<path fill="#010101" opacity="1.00" d=" M 352.63 46.34 C 357.95 46.28 363.30 46.00 368.60 46.47 C 371.52 52.19 373.93 58.17 376.52 64.05 C 379.07 58.09 381.78 52.21 384.45 46.30 C 387.28 46.25 390.10 46.24 392.93 46.26 C 388.50 54.89 384.42 63.69 380.20 72.43 C 384.18 72.48 388.70 72.13 391.88 75.02 C 395.18 78.02 395.25 82.86 394.53 86.94 C 393.59 90.82 389.91 93.42 386.03 93.70 C 381.63 94.04 377.20 93.79 372.79 93.76 C 372.89 87.14 372.84 80.53 372.83 73.91 C 372.96 70.99 370.94 68.63 369.85 66.07 C 366.74 60.25 364.37 54.01 360.81 48.46 C 360.51 56.35 360.75 64.25 360.69 72.14 C 357.86 72.22 355.04 72.21 352.22 72.20 C 353.00 63.63 352.34 54.96 352.63 46.34 M 378.12 75.69 C 377.67 80.62 377.98 85.58 377.84 90.52 C 381.12 90.51 384.62 90.98 387.67 89.46 C 390.41 87.01 389.84 82.80 389.29 79.55 C 387.70 74.97 381.95 75.84 378.12 75.69 Z" />
<path fill="#010101" opacity="1.00" d=" M 393.79 48.79 C 399.33 44.43 407.77 44.51 413.55 48.38 C 417.71 51.14 419.00 56.48 418.68 61.19 C 411.51 60.92 404.33 60.68 397.18 61.27 C 397.60 65.58 401.90 68.92 406.20 67.64 C 408.18 67.51 409.10 65.55 410.40 64.35 C 413.02 64.33 415.63 64.82 418.23 65.19 C 416.42 69.66 411.75 72.24 407.11 72.61 C 401.10 73.31 393.75 71.96 390.64 66.15 C 388.00 60.57 388.57 52.74 393.79 48.79 M 397.40 57.11 C 401.85 57.08 406.30 57.07 410.75 57.12 C 410.67 53.89 408.33 50.78 404.95 50.60 C 401.06 49.91 397.37 53.20 397.40 57.11 Z" />
<path fill="#010101" opacity="1.00" d=" M 335.66 75.11 C 337.26 74.40 338.85 73.66 340.45 72.95 C 340.43 74.76 340.42 76.57 340.42 78.39 C 341.26 78.37 342.95 78.34 343.80 78.33 C 343.83 79.13 343.90 80.72 343.93 81.51 C 342.75 81.52 341.57 81.53 340.40 81.54 C 340.41 84.71 340.33 87.89 340.66 91.05 C 342.21 91.45 345.26 90.28 344.37 93.43 C 341.76 94.86 337.48 94.96 335.80 92.09 C 335.29 88.62 335.82 85.10 335.48 81.62 C 334.91 81.58 333.77 81.50 333.20 81.46 C 333.17 80.47 333.14 79.47 333.12 78.47 C 333.75 78.41 335.00 78.27 335.63 78.20 C 335.64 77.43 335.65 75.88 335.66 75.11 Z" />
<path fill="#010101" opacity="1.00" d=" M 308.91 80.15 C 311.65 77.59 315.70 78.13 319.13 78.31 C 321.40 78.43 323.33 79.95 324.26 81.99 C 322.85 82.22 321.43 82.43 320.02 82.63 C 317.85 80.11 314.38 80.46 311.71 81.91 C 315.03 85.31 320.82 83.50 324.19 86.90 C 326.03 89.29 324.18 92.51 321.62 93.40 C 316.77 95.20 309.89 94.87 307.11 89.82 C 308.66 89.53 310.22 89.32 311.80 89.16 C 313.75 92.34 318.24 92.23 320.84 89.87 C 317.67 86.96 312.64 88.30 309.32 85.58 C 307.56 84.44 307.84 81.67 308.91 80.15 Z" />
</g>
<g id="#db4627ff">
<path fill="#db4627" opacity="1.00" d=" M 65.81 41.58 C 67.57 42.20 69.37 42.66 71.19 43.04 C 72.80 43.49 74.36 44.09 75.87 44.79 C 77.97 45.77 80.03 46.82 82.17 47.70 C 78.19 47.50 74.20 47.76 70.23 47.36 C 70.04 46.75 69.66 45.52 69.47 44.90 C 68.25 43.79 67.05 42.66 65.81 41.58 Z" />
</g>
<g id="#d62423ff">
<path fill="#d62423" opacity="1.00" d=" M 42.06 45.17 C 46.44 42.79 51.12 44.48 55.57 45.62 C 55.84 45.02 56.38 43.81 56.65 43.21 C 61.14 44.69 65.45 46.93 70.23 47.36 C 74.20 47.76 78.19 47.50 82.17 47.70 C 82.53 47.82 83.26 48.05 83.63 48.16 C 90.53 50.75 97.23 53.95 104.34 55.96 C 113.30 59.15 122.08 62.84 130.95 66.26 C 133.60 67.23 136.25 68.21 138.89 69.20 C 152.35 74.28 165.73 79.55 179.12 84.79 C 180.09 85.15 181.07 85.51 182.05 85.86 C 188.07 88.17 194.05 90.59 200.10 92.82 C 202.31 93.83 204.62 94.64 207.06 94.86 C 207.50 94.16 208.06 93.64 208.73 93.30 C 208.78 93.96 208.89 95.27 208.94 95.93 C 214.72 95.92 219.66 98.91 224.19 102.17 C 226.50 103.95 229.29 104.86 232.12 105.41 C 232.39 105.48 232.92 105.60 233.19 105.67 L 233.82 106.03 C 238.86 109.01 244.62 110.37 249.92 112.79 C 265.81 119.40 282.16 124.82 298.12 131.25 C 298.64 131.34 299.68 131.52 300.20 131.61 C 300.86 132.71 301.87 133.67 302.13 134.98 C 301.46 136.47 300.19 137.58 299.16 138.82 C 292.03 135.81 284.52 133.82 277.45 130.66 C 273.58 129.09 269.25 129.25 265.42 127.52 C 254.44 123.15 243.07 119.80 232.22 115.09 C 230.24 114.20 228.08 113.84 225.93 113.62 C 221.34 113.16 217.43 110.48 213.15 108.97 C 206.79 106.76 200.76 103.70 194.31 101.73 C 190.04 100.49 185.98 97.40 181.35 98.87 C 181.76 98.30 182.18 97.74 182.59 97.17 C 177.78 94.80 172.68 93.14 167.71 91.17 C 162.83 88.50 157.70 86.28 152.31 84.85 C 145.63 83.14 139.76 79.22 133.07 77.52 C 130.43 76.79 127.82 75.85 125.44 74.46 C 119.19 70.53 111.87 68.92 105.21 65.86 C 102.78 64.72 100.28 63.74 97.66 63.11 C 97.36 62.82 96.76 62.23 96.45 61.93 C 90.41 60.87 85.11 57.58 79.16 56.19 C 72.88 53.71 66.47 51.60 60.20 49.08 C 59.58 49.57 58.95 50.05 58.33 50.54 C 58.00 49.54 57.67 48.55 57.34 47.55 C 54.52 47.74 51.70 47.97 48.89 48.28 C 50.76 50.78 53.70 51.67 56.68 51.99 C 56.14 52.86 55.60 53.72 55.07 54.59 C 51.26 53.00 47.25 52.02 43.37 50.64 C 42.91 48.82 42.48 47.00 42.06 45.17 Z" />
</g>
<g id="#d8b78eff">
<path fill="#d8b78e" opacity="1.00" d=" M 80.06 45.38 C 80.53 45.15 81.48 44.68 81.96 44.45 L 82.32 44.75 C 83.45 46.00 84.83 46.97 86.31 47.76 C 85.64 47.86 84.30 48.06 83.63 48.16 C 83.26 48.05 82.53 47.82 82.17 47.70 C 80.03 46.82 77.97 45.77 75.87 44.79 C 77.26 45.02 78.66 45.21 80.06 45.38 Z" />
</g>
<g id="#f3efe8ff">
</g>
<g id="#c16726ff">
<path fill="#c16726" opacity="1.00" d=" M 32.04 45.63 C 32.84 45.67 34.46 45.75 35.27 45.80 C 37.75 47.75 40.44 49.44 43.37 50.64 C 47.25 52.02 51.26 53.00 55.07 54.59 C 61.90 57.35 68.46 60.78 75.45 63.14 C 79.76 66.03 84.15 68.80 88.84 71.03 C 88.85 71.47 88.86 72.35 88.87 72.79 C 85.42 71.16 82.01 68.82 78.02 69.05 L 77.11 69.02 C 72.88 67.06 68.88 64.66 64.74 62.53 C 59.75 59.49 55.03 56.03 49.83 53.35 C 48.79 54.28 47.77 55.22 46.77 56.19 C 46.34 56.81 45.93 57.45 45.52 58.09 C 43.82 55.32 41.36 53.14 38.51 51.61 C 35.99 50.24 33.34 49.13 30.70 48.02 L 31.12 47.19 C 31.35 46.80 31.81 46.02 32.04 45.63 Z" />
</g>
<g id="#f5d75fff">
<path fill="#f5d75f" opacity="1.00" d=" M 23.99 55.56 C 25.89 52.47 28.01 49.18 31.12 47.19 L 30.70 48.02 C 30.59 48.27 30.38 48.76 30.27 49.01 C 31.33 50.69 32.51 52.29 33.69 53.88 C 32.67 60.67 26.84 65.50 26.18 72.40 C 25.54 71.97 24.26 71.12 23.62 70.69 C 24.66 68.86 25.38 66.88 26.06 64.90 C 25.61 64.71 24.70 64.32 24.25 64.13 C 24.12 61.27 23.97 58.42 23.99 55.56 Z" />
</g>
<g id="#c91f20ff">
<path fill="#c91f20" opacity="1.00" d=" M 48.89 48.28 C 51.70 47.97 54.52 47.74 57.34 47.55 C 57.67 48.55 58.00 49.54 58.33 50.54 C 58.95 50.05 59.58 49.57 60.20 49.08 C 66.47 51.60 72.88 53.71 79.16 56.19 C 85.11 57.58 90.41 60.87 96.45 61.93 C 96.76 62.23 97.36 62.82 97.66 63.11 C 100.28 63.74 102.78 64.72 105.21 65.86 C 111.87 68.92 119.19 70.53 125.44 74.46 C 127.82 75.85 130.43 76.79 133.07 77.52 C 139.76 79.22 145.63 83.14 152.31 84.85 C 157.70 86.28 162.83 88.50 167.71 91.17 C 172.68 93.14 177.78 94.80 182.59 97.17 C 182.18 97.74 181.76 98.30 181.35 98.87 C 185.98 97.40 190.04 100.49 194.31 101.73 C 200.76 103.70 206.79 106.76 213.15 108.97 C 217.43 110.48 221.34 113.16 225.93 113.62 C 238.28 117.57 249.93 123.36 262.08 127.83 C 273.25 132.25 284.40 136.73 295.61 141.04 C 296.04 141.88 296.46 142.74 296.87 143.60 C 296.89 146.17 295.77 149.04 292.74 148.93 C 291.24 148.28 289.78 147.54 288.26 146.96 C 286.26 146.19 284.22 145.54 282.20 144.83 C 280.53 144.24 278.87 143.60 277.22 142.96 C 273.38 141.43 269.50 139.99 265.71 138.34 C 257.92 135.00 250.02 131.91 242.15 128.76 C 241.62 128.48 240.56 127.92 240.03 127.64 C 237.94 126.26 235.44 126.07 233.01 126.04 L 231.99 125.91 C 231.21 125.20 230.45 124.46 229.67 123.76 C 225.86 122.67 222.26 121.00 218.57 119.58 C 217.72 119.26 216.87 118.94 216.02 118.63 C 214.86 118.19 213.73 117.72 212.61 117.21 C 208.71 115.20 204.62 113.61 200.44 112.28 C 199.72 112.01 199.01 111.72 198.30 111.43 C 193.58 109.42 188.74 107.69 184.05 105.59 C 178.03 102.43 170.64 102.02 165.31 97.61 C 158.19 95.15 151.52 91.10 143.87 90.48 C 137.54 89.64 132.25 85.88 126.39 83.68 C 121.02 81.59 115.92 78.88 110.86 76.15 C 104.10 72.93 96.92 70.74 89.88 68.23 C 85.07 66.52 80.63 63.67 75.45 63.14 C 68.46 60.78 61.90 57.35 55.07 54.59 C 55.60 53.72 56.14 52.86 56.68 51.99 C 53.70 51.67 50.76 50.78 48.89 48.28 Z" />
</g>
<g id="#eabd52ff">
<path fill="#eabd52" opacity="1.00" d=" M 30.27 49.01 C 30.38 48.76 30.59 48.27 30.70 48.02 C 33.34 49.13 35.99 50.24 38.51 51.61 C 33.96 58.46 32.01 66.70 31.80 74.84 L 31.69 74.97 C 29.98 75.87 28.15 76.54 26.33 77.18 C 26.26 75.59 26.19 73.99 26.18 72.40 C 26.84 65.50 32.67 60.67 33.69 53.88 C 32.51 52.29 31.33 50.69 30.27 49.01 Z" />
</g>
<g id="#d98a59ff">
<path fill="#d98a59" opacity="1.00" d=" M 83.63 48.16 C 84.30 48.06 85.64 47.86 86.31 47.76 C 86.69 47.84 87.45 48.00 87.84 48.08 C 90.39 49.15 92.96 50.20 95.64 50.94 C 96.19 51.15 97.28 51.55 97.83 51.75 C 99.04 52.60 100.28 53.39 101.54 54.17 C 102.48 54.76 103.41 55.36 104.34 55.96 C 97.23 53.95 90.53 50.75 83.63 48.16 Z" />
</g>
<g id="#3e89caff">
<path fill="#3e89ca" opacity="1.00" d=" M 120.67 50.29 C 124.02 51.24 127.09 52.93 130.22 54.42 C 130.17 56.30 131.85 57.18 133.17 58.12 C 131.97 60.31 130.36 62.24 128.46 63.86 C 126.53 63.07 124.59 62.31 122.66 61.56 C 126.06 61.33 130.22 57.90 127.58 54.42 C 124.32 52.46 120.35 54.00 116.86 54.35 C 117.17 54.04 117.79 53.41 118.11 53.10 C 118.97 52.18 119.83 51.24 120.67 50.29 Z" />
</g>
<g id="#fdfdfbff">
</g>
<g id="#e6ae3aff">
<path fill="#e6ae3a" opacity="1.00" d=" M 38.51 51.61 C 41.36 53.14 43.82 55.32 45.52 58.09 C 45.23 58.53 44.65 59.41 44.35 59.85 C 43.56 60.56 42.73 61.23 41.91 61.90 C 41.62 62.44 41.03 63.52 40.74 64.06 C 40.25 64.74 39.75 65.42 39.24 66.09 C 36.87 69.10 34.17 71.83 31.80 74.84 C 32.01 66.70 33.96 58.46 38.51 51.61 Z" />
</g>
<g id="#0285d5ff">
<path fill="#0285d5" opacity="1.00" d=" M 116.86 54.35 C 120.35 54.00 124.32 52.46 127.58 54.42 C 130.22 57.90 126.06 61.33 122.66 61.56 C 119.93 60.44 117.09 59.53 114.54 58.03 C 114.46 57.62 114.30 56.80 114.21 56.39 C 115.10 55.71 115.98 55.03 116.86 54.35 Z" />
</g>
<g id="#f6f4e5ff">
</g>
<g id="#eed6c8ff">
</g>
<g id="#f8e17eff">
<path fill="#f8e17e" opacity="1.00" d=" M 19.96 59.79 C 20.71 57.91 22.25 56.53 23.99 55.56 C 23.97 58.42 24.12 61.27 24.25 64.13 C 24.70 64.32 25.61 64.71 26.06 64.90 C 25.38 66.88 24.66 68.86 23.62 70.69 C 22.77 71.89 21.86 73.05 20.97 74.23 C 20.04 69.51 17.34 64.45 19.96 59.79 Z" />
</g>
<g id="#cf9a41ff">
<path fill="#cf9a41" opacity="1.00" d=" M 45.52 58.09 C 45.93 57.45 46.34 56.81 46.77 56.19 C 50.04 59.10 54.72 58.61 58.56 60.29 C 56.51 60.92 54.49 61.62 52.54 62.50 C 50.53 64.38 49.47 66.94 48.99 69.60 C 51.24 70.71 53.62 71.67 56.18 71.33 C 55.89 71.60 55.30 72.14 55.00 72.41 C 53.35 72.54 51.37 73.37 49.99 72.06 C 47.27 70.07 48.31 65.44 45.00 63.99 C 43.82 63.31 42.39 63.75 41.11 63.74 L 40.74 64.06 C 41.03 63.52 41.62 62.44 41.91 61.90 C 42.73 61.23 43.56 60.56 44.35 59.85 C 44.65 59.41 45.23 58.53 45.52 58.09 Z" />
</g>
<g id="#f6e19bff">
<path fill="#f6e19b" opacity="1.00" d=" M 16.28 63.99 C 17.35 62.45 18.68 61.14 19.96 59.79 C 17.34 64.45 20.04 69.51 20.97 74.23 C 21.28 77.08 21.32 79.95 21.36 82.81 C 22.18 83.39 23.01 83.96 23.84 84.54 C 23.57 84.82 23.05 85.38 22.79 85.66 C 20.83 87.40 18.53 88.70 16.29 90.04 C 16.98 88.15 17.55 86.14 16.72 84.18 C 14.95 79.15 16.48 73.64 14.47 68.68 C 15.04 67.10 15.63 65.53 16.28 63.99 Z" />
</g>
<g id="#fdfdfdff">
</g>
<g id="#c0271eff">
<path fill="#c0271e" opacity="1.00" d=" M 52.54 62.50 C 54.49 61.62 56.51 60.92 58.56 60.29 C 59.76 60.88 60.86 61.64 61.98 62.37 C 59.35 65.36 57.14 69.93 52.54 69.84 C 52.55 67.39 52.56 64.94 52.54 62.50 Z" />
</g>
<g id="#fffffdff">
</g>
<g id="#bca26fff">
<path fill="#bca26f" opacity="1.00" d=" M 41.11 63.74 C 42.39 63.75 43.82 63.31 45.00 63.99 C 48.31 65.44 47.27 70.07 49.99 72.06 C 51.37 73.37 53.35 72.54 55.00 72.41 C 54.15 73.44 53.36 74.52 52.58 75.61 C 52.43 75.82 52.13 76.23 51.98 76.44 C 50.53 77.62 49.00 78.71 47.51 79.84 C 48.62 78.42 49.66 76.95 50.70 75.48 C 47.21 71.81 44.61 67.41 41.11 63.74 Z" />
</g>
<g id="#ad592aff">
<path fill="#ad592a" opacity="1.00" d=" M 48.99 69.60 C 49.47 66.94 50.53 64.38 52.54 62.50 C 52.56 64.94 52.55 67.39 52.54 69.84 C 57.14 69.93 59.35 65.36 61.98 62.37 C 62.67 62.41 64.05 62.49 64.74 62.53 C 63.79 63.54 62.86 64.55 61.91 65.55 C 60.56 66.98 59.21 68.41 57.81 69.79 C 57.40 70.18 56.59 70.94 56.18 71.33 C 53.62 71.67 51.24 70.71 48.99 69.60 Z" />
</g>
<g id="#1d322aff">
<path fill="#1d322a" opacity="1.00" d=" M 64.74 62.53 C 68.88 64.66 72.88 67.06 77.11 69.02 C 75.45 69.08 73.79 69.21 72.13 69.35 C 71.03 71.35 68.94 72.22 66.89 72.92 C 66.58 72.26 66.27 71.60 65.96 70.94 C 65.22 70.76 64.49 70.56 63.75 70.38 C 63.20 68.75 62.62 67.12 61.91 65.55 C 62.86 64.55 63.79 63.54 64.74 62.53 Z" />
</g>
<g id="#bb1d1dff">
<path fill="#bb1d1d" opacity="1.00" d=" M 75.45 63.14 C 80.63 63.67 85.07 66.52 89.88 68.23 C 96.92 70.74 104.10 72.93 110.86 76.15 C 115.92 78.88 121.02 81.59 126.39 83.68 C 132.25 85.88 137.54 89.64 143.87 90.48 C 145.22 90.77 146.55 91.12 147.88 91.50 C 155.65 97.37 166.08 97.73 173.86 103.58 C 175.19 105.08 176.46 106.63 177.75 108.17 C 175.07 107.98 172.38 107.82 169.69 107.79 C 169.59 107.72 169.40 107.57 169.30 107.50 C 167.50 105.92 165.35 104.84 163.13 104.00 C 152.97 100.09 142.68 96.50 132.47 92.74 C 127.25 89.83 121.68 87.78 115.94 86.16 C 110.35 82.87 103.93 81.80 98.00 79.31 C 98.60 78.55 99.20 77.79 99.80 77.03 C 96.35 74.67 92.67 72.69 88.84 71.03 C 84.15 68.80 79.76 66.03 75.45 63.14 Z" />
</g>
<g id="#fbf1ceff">
<path fill="#fbf1ce" opacity="1.00" d=" M 6.21 78.16 C 8.21 72.67 11.80 67.67 16.28 63.99 C 15.63 65.53 15.04 67.10 14.47 68.68 C 16.48 73.64 14.95 79.15 16.72 84.18 C 17.55 86.14 16.98 88.15 16.29 90.04 C 18.53 88.70 20.83 87.40 22.79 85.66 C 20.02 91.04 14.82 94.49 10.62 98.66 C 9.86 98.34 9.11 98.02 8.35 97.70 C 9.89 91.14 7.00 84.64 6.21 78.16 Z" />
</g>
<g id="#f0e0cdff">
</g>
<g id="#f6f3ecff">
</g>
<g id="#334f3bff">
<path fill="#334f3b" opacity="1.00" d=" M 57.81 69.79 C 59.21 68.41 60.56 66.98 61.91 65.55 C 62.62 67.12 63.20 68.75 63.75 70.38 C 64.49 70.56 65.22 70.76 65.96 70.94 C 66.27 71.60 66.58 72.26 66.89 72.92 C 68.94 72.22 71.03 71.35 72.13 69.35 C 73.79 69.21 75.45 69.08 77.11 69.02 L 78.02 69.05 L 77.35 69.75 C 74.93 72.65 72.18 75.27 68.93 77.22 C 67.15 77.61 65.34 77.87 63.54 78.15 C 63.62 76.80 63.70 75.45 63.79 74.10 C 61.86 72.58 59.86 71.15 57.81 69.79 Z" />
</g>
<g id="#b9351cff">
<path fill="#b9351c" opacity="1.00" d=" M 78.02 69.05 C 82.01 68.82 85.42 71.16 88.87 72.79 C 88.86 72.35 88.85 71.47 88.84 71.03 C 92.67 72.69 96.35 74.67 99.80 77.03 C 99.20 77.79 98.60 78.55 98.00 79.31 C 97.47 79.19 96.40 78.96 95.86 78.85 C 93.95 77.95 92.04 77.04 90.14 76.12 C 86.56 74.42 83.19 72.32 79.57 70.71 C 79.01 70.47 77.90 69.99 77.35 69.75 L 78.02 69.05 Z" />
</g>
<g id="#35754cff">
<path fill="#35754c" opacity="1.00" d=" M 56.18 71.33 C 56.59 70.94 57.40 70.18 57.81 69.79 C 59.86 71.15 61.86 72.58 63.79 74.10 C 63.70 75.45 63.62 76.80 63.54 78.15 C 65.34 77.87 67.15 77.61 68.93 77.22 C 68.88 78.40 68.83 79.58 68.78 80.76 C 66.53 83.08 64.67 85.73 62.98 88.48 C 60.43 90.84 58.00 93.33 55.79 96.01 C 53.77 98.21 51.59 100.26 49.36 102.24 C 48.69 101.96 48.02 101.68 47.34 101.41 C 45.01 103.16 42.68 104.91 40.39 106.71 C 40.45 105.89 40.51 105.07 40.58 104.25 C 39.90 103.37 39.22 102.50 38.55 101.62 C 39.43 100.71 40.34 99.83 41.27 98.98 C 45.18 95.72 48.39 91.75 51.73 87.94 C 54.84 84.13 61.07 81.15 60.44 75.53 C 57.85 74.97 55.18 75.24 52.58 75.61 C 53.36 74.52 54.15 73.44 55.00 72.41 C 55.30 72.14 55.89 71.60 56.18 71.33 Z" />
</g>
<g id="#4b6751ff">
<path fill="#4b6751" opacity="1.00" d=" M 68.93 77.22 C 72.18 75.27 74.93 72.65 77.35 69.75 C 77.90 69.99 79.01 70.47 79.57 70.71 C 79.55 71.50 79.45 72.29 79.43 73.09 C 76.86 75.15 74.35 77.31 72.21 79.83 C 71.07 80.16 69.93 80.47 68.78 80.76 C 68.83 79.58 68.88 78.40 68.93 77.22 Z" />
</g>
<g id="#efc979ff">
<path fill="#efc979" opacity="1.00" d=" M 20.97 74.23 C 21.86 73.05 22.77 71.89 23.62 70.69 C 24.26 71.12 25.54 71.97 26.18 72.40 C 26.19 73.99 26.26 75.59 26.33 77.18 C 28.15 76.54 29.98 75.87 31.69 74.97 C 30.48 76.56 29.32 78.20 28.03 79.74 C 26.64 81.35 25.17 82.88 23.84 84.54 C 23.01 83.96 22.18 83.39 21.36 82.81 C 21.32 79.95 21.28 77.08 20.97 74.23 Z" />
</g>
<g id="#d8b585ff">
<path fill="#d8b585" opacity="1.00" d=" M 79.43 73.09 C 79.45 72.29 79.55 71.50 79.57 70.71 C 83.19 72.32 86.56 74.42 90.14 76.12 C 90.28 76.63 90.55 77.65 90.69 78.16 C 91.65 79.20 92.61 80.24 93.55 81.29 C 91.69 80.17 89.82 79.06 87.93 77.99 C 85.11 76.34 82.27 74.71 79.43 73.09 Z" />
<path fill="#d8b585" opacity="1.00" d=" M 143.87 90.48 C 151.52 91.10 158.19 95.15 165.31 97.61 C 170.64 102.02 178.03 102.43 184.05 105.59 L 182.71 106.33 C 186.63 109.08 190.86 111.40 195.10 113.63 C 196.64 114.55 197.41 112.26 198.30 111.43 C 199.01 111.72 199.72 112.01 200.44 112.28 L 199.00 113.63 C 198.72 113.93 198.15 114.55 197.87 114.85 C 196.47 118.34 195.37 121.96 193.54 125.26 C 193.20 125.08 192.52 124.72 192.18 124.55 C 193.12 123.07 194.08 121.61 194.90 120.07 L 195.18 119.12 C 195.51 118.01 195.81 116.89 196.14 115.79 C 188.63 111.87 181.52 107.22 173.86 103.58 C 166.08 97.73 155.65 97.37 147.88 91.50 C 146.55 91.12 145.22 90.77 143.87 90.48 Z" />
<path fill="#d8b585" opacity="1.00" d=" M 296.87 143.60 C 302.29 142.48 306.61 147.49 312.05 146.20 C 310.26 147.46 308.78 149.08 308.09 151.19 C 313.88 152.44 319.75 153.24 325.65 153.84 C 328.51 154.27 331.38 154.56 334.28 154.62 C 332.26 152.46 330.09 150.45 327.80 148.58 C 330.98 149.43 333.22 151.98 335.87 153.78 C 334.98 156.49 331.98 155.57 329.79 155.39 C 325.18 154.80 320.58 154.21 316.01 153.41 C 308.29 151.81 300.12 151.86 292.74 148.93 C 295.77 149.04 296.89 146.17 296.87 143.60 Z" />
</g>
<g id="#040404ff">
<path fill="#040404" opacity="1.00" d=" M 434.17 72.50 C 435.74 72.48 437.31 72.45 438.89 72.44 C 438.85 73.69 438.80 74.94 438.76 76.19 C 437.27 76.15 435.78 76.13 434.30 76.11 C 434.25 74.91 434.20 73.70 434.17 72.50 Z" />
</g>
<g id="#c8986dff">
<path fill="#c8986d" opacity="1.00" d=" M 217.46 73.48 C 223.68 74.07 230.77 74.73 234.82 80.18 C 233.16 88.00 228.45 94.87 226.10 102.51 C 228.19 103.28 230.38 103.95 232.12 105.41 C 229.29 104.86 226.50 103.95 224.19 102.17 L 223.53 101.30 C 224.28 95.81 228.15 91.50 229.35 86.16 C 230.18 83.27 230.42 80.24 230.04 77.27 C 229.62 77.12 228.80 76.82 228.38 76.67 C 225.63 75.84 222.83 75.05 219.95 74.94 C 218.09 75.60 216.84 77.24 215.47 78.55 C 215.30 76.61 216.58 75.07 217.46 73.48 Z" />
</g>
<g id="#911518ff">
<path fill="#911518" opacity="1.00" d=" M 72.21 79.83 C 74.35 77.31 76.86 75.15 79.43 73.09 C 82.27 74.71 85.11 76.34 87.93 77.99 C 84.37 81.66 78.50 78.59 74.86 82.28 C 73.98 82.03 72.22 81.51 71.34 81.25 C 71.56 80.90 72.00 80.19 72.21 79.83 Z" />
</g>
<g id="#129050ff">
<path fill="#129050" opacity="1.00" d=" M 52.58 75.61 C 55.18 75.24 57.85 74.97 60.44 75.53 C 61.07 81.15 54.84 84.13 51.73 87.94 C 50.81 86.66 49.82 85.43 49.11 84.03 C 50.29 81.58 51.71 79.21 51.98 76.44 C 52.13 76.23 52.43 75.82 52.58 75.61 Z" />
</g>
<g id="#ce5b22ff">
<path fill="#ce5b22" opacity="1.00" d=" M 215.47 78.55 C 216.84 77.24 218.09 75.60 219.95 74.94 C 222.83 75.05 225.63 75.84 228.38 76.67 C 227.92 84.54 223.36 91.21 221.76 98.78 C 222.34 99.62 222.93 100.46 223.53 101.30 L 224.19 102.17 C 219.66 98.91 214.72 95.92 208.94 95.93 C 208.89 95.27 208.78 93.96 208.73 93.30 L 208.66 92.84 C 209.92 89.80 211.54 86.93 212.71 83.85 C 213.60 82.07 214.40 80.24 215.47 78.55 Z" />
</g>
<g id="#a44d40ff">
<path fill="#a44d40" opacity="1.00" d=" M 90.14 76.12 C 92.04 77.04 93.95 77.95 95.86 78.85 C 99.52 81.29 104.33 82.21 106.92 86.03 C 106.50 85.81 105.65 85.37 105.23 85.16 C 106.11 86.03 106.98 86.90 107.87 87.76 C 102.61 86.92 98.25 83.56 93.55 81.29 C 92.61 80.24 91.65 79.20 90.69 78.16 C 90.55 77.65 90.28 76.63 90.14 76.12 Z" />
</g>
<g id="#fcfcfcff">
</g>
<g id="#289e61ff">
<path fill="#289e61" opacity="1.00" d=" M 47.51 79.84 C 49.00 78.71 50.53 77.62 51.98 76.44 C 51.71 79.21 50.29 81.58 49.11 84.03 C 49.82 85.43 50.81 86.66 51.73 87.94 C 48.39 91.75 45.18 95.72 41.27 98.98 C 40.77 99.11 39.76 99.37 39.26 99.50 C 38.67 99.37 37.50 99.11 36.91 98.98 C 38.02 94.26 41.20 90.36 42.13 85.60 C 43.43 84.24 44.68 82.84 45.94 81.45 C 46.33 81.04 47.12 80.24 47.51 79.84 Z" />
</g>
<g id="#bd6f2dff">
<path fill="#bd6f2d" opacity="1.00" d=" M 228.38 76.67 C 228.80 76.82 229.62 77.12 230.04 77.27 C 230.42 80.24 230.18 83.27 229.35 86.16 C 228.15 91.50 224.28 95.81 223.53 101.30 C 222.93 100.46 222.34 99.62 221.76 98.78 C 223.36 91.21 227.92 84.54 228.38 76.67 Z" />
</g>
<g id="#c3211fff">
<path fill="#c3211f" opacity="1.00" d=" M 87.93 77.99 C 89.82 79.06 91.69 80.17 93.55 81.29 C 98.25 83.56 102.61 86.92 107.87 87.76 C 109.48 89.11 111.16 90.36 112.87 91.57 C 113.81 93.42 114.78 95.25 115.75 97.08 C 106.19 93.55 96.23 91.24 86.84 87.26 C 85.22 86.68 83.57 86.21 81.94 85.68 C 79.63 84.44 77.31 83.20 74.86 82.28 C 78.50 78.59 84.37 81.66 87.93 77.99 Z" />
</g>
<g id="#030201ff">
<path fill="#030201" opacity="1.00" d=" M 273.57 78.68 C 277.12 77.69 281.60 77.74 284.28 80.66 C 285.97 82.42 286.12 84.97 286.51 87.25 C 282.08 87.31 277.64 87.15 273.22 87.39 C 273.66 88.43 274.12 89.46 274.58 90.50 C 277.06 92.05 280.02 91.61 281.75 89.21 C 282.82 89.39 284.95 89.75 286.02 89.92 C 282.76 96.30 271.35 95.89 268.94 89.01 C 267.63 84.99 269.44 80.16 273.57 78.68 M 273.13 84.63 C 276.07 84.93 279.03 84.95 281.98 84.70 C 281.12 83.15 280.20 81.01 278.07 81.12 C 275.51 80.47 274.07 82.68 273.13 84.63 Z" />
</g>
<g id="#000000ff">
<path fill="#000000" opacity="1.00" d=" M 327.12 78.39 C 328.68 78.37 330.23 78.35 331.80 78.34 C 331.80 83.50 331.83 88.66 331.82 93.83 C 330.25 93.83 328.68 93.84 327.12 93.85 C 327.16 88.69 327.14 83.54 327.12 78.39 Z" />
<path fill="#000000" opacity="1.00" d=" M 414.52 82.93 C 416.63 76.58 425.24 77.32 430.09 79.82 C 430.38 80.39 430.96 81.53 431.25 82.11 C 429.86 82.26 428.48 82.42 427.10 82.58 C 424.98 80.34 421.86 80.47 419.19 81.52 C 419.34 81.95 419.64 82.81 419.79 83.24 C 423.21 84.13 426.89 84.35 430.07 86.00 C 433.11 87.56 432.01 92.45 428.92 93.30 C 424.01 95.24 416.79 94.95 414.07 89.68 C 415.68 89.49 417.31 89.35 418.94 89.26 C 420.63 92.04 425.41 92.64 427.33 89.88 C 426.75 88.05 424.57 88.39 423.11 87.89 C 419.74 87.33 415.82 86.58 414.52 82.93 Z" />
<path fill="#000000" opacity="1.00" d=" M 434.20 78.34 C 435.76 78.34 437.33 78.36 438.90 78.37 C 438.85 83.51 438.87 88.65 438.90 93.80 C 437.33 93.82 435.77 93.83 434.22 93.84 C 434.18 88.67 434.25 83.50 434.20 78.34 Z" />
</g>
<g id="#010000ff">
<path fill="#010000" opacity="1.00" d=" M 348.84 78.76 C 352.56 77.62 357.37 77.78 360.04 81.01 C 361.51 82.75 361.56 85.13 361.92 87.28 C 357.56 87.28 353.21 87.19 348.85 87.33 C 349.06 90.50 352.18 92.07 355.07 91.39 C 355.52 90.84 356.42 89.75 356.86 89.20 C 358.50 89.44 360.13 89.70 361.77 89.97 C 358.62 94.99 351.13 95.67 346.53 92.32 C 342.54 88.61 343.51 80.74 348.84 78.76 M 348.83 84.76 C 351.64 84.89 354.46 84.91 357.28 84.81 C 357.02 79.91 349.09 79.85 348.83 84.76 Z" />
</g>
<g id="#020200ff">
<path fill="#020200" opacity="1.00" d=" M 400.76 78.81 C 404.49 77.60 409.35 77.78 412.06 81.00 C 413.58 82.72 413.56 85.11 413.89 87.25 C 409.56 87.28 405.25 87.23 400.93 87.29 C 400.81 91.65 407.08 93.05 409.03 89.23 C 410.64 89.46 412.26 89.70 413.88 89.95 C 410.67 95.00 403.16 95.71 398.54 92.27 C 394.44 88.64 395.59 80.88 400.76 78.81 M 400.82 84.79 C 403.63 84.90 406.45 84.90 409.27 84.78 C 408.94 79.85 401.18 79.93 400.82 84.79 Z" />
</g>
<g id="#080808ff">
<path fill="#080808" opacity="1.00" d=" M 445.07 78.93 C 448.39 77.33 452.40 78.17 455.13 80.55 C 455.16 79.98 455.20 78.84 455.22 78.28 C 456.64 78.34 458.07 78.39 459.51 78.44 C 459.25 84.32 459.83 90.22 459.19 96.07 C 458.04 99.94 453.44 100.49 450.02 100.38 C 446.53 100.53 441.73 99.50 441.35 95.23 C 446.02 94.63 449.94 99.49 454.45 96.44 C 454.58 94.82 454.72 93.20 454.87 91.58 C 452.06 93.64 448.20 94.84 444.93 93.07 C 439.54 90.50 439.52 81.33 445.07 78.93 M 446.31 83.44 C 444.17 87.07 447.77 92.46 452.02 90.56 C 455.27 89.37 454.92 85.53 454.35 82.78 C 452.15 80.73 447.59 80.11 446.31 83.44 Z" />
</g>
<g id="#19191aff">
<path fill="#19191a" opacity="1.00" d=" M 462.44 78.38 C 463.87 78.36 465.31 78.34 466.75 78.30 C 466.76 78.90 466.76 80.08 466.77 80.67 C 469.55 78.30 473.12 77.96 476.62 78.46 L 476.71 79.00 C 476.78 79.40 476.91 80.21 476.98 80.61 C 476.45 80.31 475.38 79.70 474.85 79.40 C 474.72 79.87 474.47 80.79 474.35 81.25 C 472.13 81.38 469.05 80.47 467.71 82.86 C 466.77 86.38 467.33 90.09 467.31 93.69 C 465.69 93.77 464.06 93.83 462.45 93.88 C 462.45 88.71 462.51 83.55 462.44 78.38 Z" />
</g>
<g id="#d15224ff">
<path fill="#d15224" opacity="1.00" d=" M 95.86 78.85 C 96.40 78.96 97.47 79.19 98.00 79.31 C 103.93 81.80 110.35 82.87 115.94 86.16 C 121.68 87.78 127.25 89.83 132.47 92.74 C 142.68 96.50 152.97 100.09 163.13 104.00 C 165.35 104.84 167.50 105.92 169.30 107.50 C 163.41 107.77 158.69 103.43 153.16 102.09 C 147.01 100.75 141.23 98.21 135.20 96.46 C 129.94 94.91 125.12 90.66 119.32 92.32 C 116.32 90.56 113.16 89.08 110.00 87.63 C 110.40 87.37 111.21 86.87 111.61 86.62 C 110.04 86.60 108.31 86.96 106.92 86.03 C 104.33 82.21 99.52 81.29 95.86 78.85 Z" />
</g>
<g id="#494949ff">
<path fill="#494949" opacity="1.00" d=" M 476.71 79.00 C 478.23 79.24 479.29 80.49 479.47 81.98 C 479.97 85.93 479.65 89.92 479.77 93.89 C 478.07 93.81 476.38 93.73 474.69 93.62 C 475.00 89.49 474.90 85.35 474.35 81.25 C 474.47 80.79 474.72 79.87 474.85 79.40 C 475.38 79.70 476.45 80.31 476.98 80.61 C 476.91 80.21 476.78 79.40 476.71 79.00 Z" />
</g>
<g id="#776840ff">
<path fill="#776840" opacity="1.00" d=" M 68.78 80.76 C 69.93 80.47 71.07 80.16 72.21 79.83 C 72.00 80.19 71.56 80.90 71.34 81.25 C 70.96 81.70 70.20 82.59 69.82 83.04 C 69.10 83.66 68.37 84.27 67.63 84.86 C 66.09 86.08 64.52 87.25 62.98 88.48 C 64.67 85.73 66.53 83.08 68.78 80.76 Z" />
</g>
<g id="#ffffffff">
<path fill="#ffffff" opacity="1.00" d=" M 348.83 84.76 C 349.09 79.85 357.02 79.91 357.28 84.81 C 354.46 84.91 351.64 84.89 348.83 84.76 Z" />
</g>
<g id="#c3582fff">
<path fill="#c3582f" opacity="1.00" d=" M 69.82 83.04 C 70.20 82.59 70.96 81.70 71.34 81.25 C 72.22 81.51 73.98 82.03 74.86 82.28 C 77.31 83.20 79.63 84.44 81.94 85.68 C 82.59 86.67 83.24 87.66 83.90 88.65 C 81.44 87.35 79.03 85.96 76.53 84.74 C 74.32 84.06 72.06 83.57 69.82 83.04 Z" />
</g>
<g id="#c87a58ff">
<path fill="#c87a58" opacity="1.00" d=" M 67.63 84.86 C 68.37 84.27 69.10 83.66 69.82 83.04 C 72.06 83.57 74.32 84.06 76.53 84.74 C 73.84 86.22 77.17 89.33 77.98 91.19 C 77.57 90.96 76.75 90.50 76.34 90.26 C 73.36 88.58 70.50 86.71 67.63 84.86 Z" />
</g>
<g id="#c8a47dff">
</g>
<g id="#e07764ff">
<path fill="#e07764" opacity="1.00" d=" M 77.98 91.19 C 77.17 89.33 73.84 86.22 76.53 84.74 C 79.03 85.96 81.44 87.35 83.90 88.65 C 88.62 91.65 93.46 94.58 98.78 96.42 C 101.06 99.90 105.41 100.47 109.01 101.83 C 109.26 102.45 109.51 103.08 109.77 103.70 C 110.53 103.16 111.29 102.62 112.06 102.09 C 119.70 103.61 125.83 109.30 133.70 109.93 C 139.98 114.21 147.51 116.03 153.86 120.18 C 157.81 122.69 162.14 124.64 165.64 127.81 C 162.08 127.59 158.82 126.12 155.93 124.09 C 148.78 119.28 140.28 117.26 132.81 113.09 C 131.16 112.03 129.22 111.98 127.37 112.46 C 134.81 117.87 142.88 122.40 150.09 128.12 C 144.50 127.03 140.08 123.21 134.84 121.23 C 127.64 118.40 121.22 113.75 113.70 111.74 C 113.35 111.53 112.65 111.10 112.30 110.88 C 109.35 108.73 106.08 107.11 102.86 105.41 C 103.37 105.12 104.39 104.54 104.90 104.25 C 98.39 99.71 91.16 95.83 83.33 94.24 C 81.54 93.23 79.75 92.23 77.98 91.19 Z" />
</g>
<g id="#eddccaff">
</g>
<g id="#61b285ff">
<path fill="#61b285" opacity="1.00" d=" M 35.72 92.21 C 37.80 89.95 39.93 87.75 42.13 85.60 C 41.20 90.36 38.02 94.26 36.91 98.98 C 37.50 99.11 38.67 99.37 39.26 99.50 C 35.88 102.96 32.56 106.50 28.58 109.31 C 27.56 107.28 26.65 105.19 26.14 102.98 C 28.86 99.01 32.60 95.86 35.72 92.21 Z" />
</g>
<g id="#d24f27ff">
<path fill="#d24f27" opacity="1.00" d=" M 81.94 85.68 C 83.57 86.21 85.22 86.68 86.84 87.26 C 96.23 91.24 106.19 93.55 115.75 97.08 C 114.78 95.25 113.81 93.42 112.87 91.57 C 115.72 93.55 118.74 95.25 121.78 96.90 C 121.39 97.03 120.62 97.29 120.23 97.43 C 120.94 97.46 122.35 97.53 123.06 97.57 C 129.72 102.20 136.48 106.79 143.88 110.15 C 154.91 116.37 165.60 123.17 176.67 129.31 C 180.12 131.20 182.87 134.74 187.12 134.76 C 188.15 134.13 189.18 133.50 190.22 132.89 C 189.85 134.05 189.49 135.22 189.07 136.37 C 186.99 135.28 185.88 137.24 184.69 138.57 C 178.17 135.30 171.99 131.41 165.64 127.81 C 162.14 124.64 157.81 122.69 153.86 120.18 C 147.51 116.03 139.98 114.21 133.70 109.93 C 131.99 108.13 130.21 106.26 127.80 105.42 C 122.88 103.61 118.23 100.96 113.03 100.00 C 108.18 99.17 103.71 96.85 98.78 96.42 C 93.46 94.58 88.62 91.65 83.90 88.65 C 83.24 87.66 82.59 86.67 81.94 85.68 Z" />
</g>
<g id="#434172ff">
<path fill="#434172" opacity="1.00" d=" M 76.34 90.26 C 76.75 90.50 77.57 90.96 77.98 91.19 C 79.75 92.23 81.54 93.23 83.33 94.24 C 85.57 95.91 87.94 97.39 90.36 98.79 C 90.31 100.01 89.37 100.75 88.52 101.48 C 84.39 97.65 80.09 93.68 74.58 91.99 C 75.02 91.56 75.90 90.69 76.34 90.26 Z" />
</g>
<g id="#e46c28ff">
<path fill="#e46c28" opacity="1.00" d=" M 119.32 92.32 C 125.12 90.66 129.94 94.91 135.20 96.46 C 141.23 98.21 147.01 100.75 153.16 102.09 C 158.69 103.43 163.41 107.77 169.30 107.50 C 169.40 107.57 169.59 107.72 169.69 107.79 C 177.31 113.34 187.47 113.72 195.18 119.12 L 194.90 120.07 C 187.22 118.90 180.73 112.77 172.73 113.73 C 174.11 115.32 175.53 116.87 176.96 118.41 C 175.89 119.17 175.05 121.31 173.52 120.32 C 170.33 118.79 167.26 116.43 163.48 117.14 C 148.75 108.88 133.79 101.03 119.32 92.32 Z" />
</g>
<g id="#d4c0a5ff">
</g>
<g id="#0653adff">
<path fill="#0653ad" opacity="1.00" d=" M 68.11 97.99 C 70.29 96.01 72.48 94.05 74.58 91.99 C 80.09 93.68 84.39 97.65 88.52 101.48 C 87.20 102.53 85.87 103.56 84.59 104.65 C 81.92 107.00 79.25 109.33 76.52 111.61 C 76.43 109.22 78.06 107.36 78.96 105.28 C 78.15 104.61 77.34 103.96 76.51 103.32 C 78.25 101.49 79.64 99.35 80.44 96.94 C 77.76 96.14 75.00 96.68 72.41 97.54 C 72.35 98.14 72.23 99.33 72.17 99.93 L 72.06 100.86 C 70.66 99.97 69.25 99.10 67.83 98.24 L 68.11 97.99 Z" />
</g>
<g id="#cb6853ff">
<path fill="#cb6853" opacity="1.00" d=" M 83.33 94.24 C 91.16 95.83 98.39 99.71 104.90 104.25 C 104.39 104.54 103.37 105.12 102.86 105.41 C 99.40 103.21 95.50 101.90 91.44 101.41 C 91.08 100.54 90.71 99.67 90.36 98.79 C 87.94 97.39 85.57 95.91 83.33 94.24 Z" />
</g>
<g id="#0362bfff">
<path fill="#0362bf" opacity="1.00" d=" M 72.41 97.54 C 75.00 96.68 77.76 96.14 80.44 96.94 C 79.64 99.35 78.25 101.49 76.51 103.32 C 77.34 103.96 78.15 104.61 78.96 105.28 C 78.06 107.36 76.43 109.22 76.52 111.61 C 75.87 112.22 75.25 112.84 74.62 113.47 C 68.05 119.71 61.05 125.47 54.36 131.58 C 50.96 131.48 48.45 133.80 46.06 135.88 C 44.99 134.55 43.92 133.22 42.85 131.89 C 48.37 127.76 52.50 122.10 58.05 118.03 C 61.33 115.55 64.09 112.47 67.38 110.00 C 70.63 107.78 73.01 104.61 74.85 101.18 C 73.96 100.76 73.06 100.34 72.17 99.93 C 72.23 99.33 72.35 98.14 72.41 97.54 Z" />
</g>
<g id="#dd6040ff">
<path fill="#dd6040" opacity="1.00" d=" M 98.78 96.42 C 103.71 96.85 108.18 99.17 113.03 100.00 C 118.23 100.96 122.88 103.61 127.80 105.42 C 130.21 106.26 131.99 108.13 133.70 109.93 C 125.83 109.30 119.70 103.61 112.06 102.09 C 111.29 102.62 110.53 103.16 109.77 103.70 C 109.51 103.08 109.26 102.45 109.01 101.83 C 105.41 100.47 101.06 99.90 98.78 96.42 Z" />
</g>
<g id="#c2947bff">
</g>
<g id="#79bf89ff">
<path fill="#79bf89" opacity="1.00" d=" M 292.44 98.61 C 294.46 97.65 296.77 98.56 298.67 99.42 C 296.87 99.98 295.05 100.55 293.41 101.50 C 291.04 103.21 290.71 107.57 287.25 107.57 C 287.81 104.05 290.18 101.22 292.44 98.61 Z" />
</g>
<g id="#93ccadff">
<path fill="#93ccad" opacity="1.00" d=" M 39.26 99.50 C 39.76 99.37 40.77 99.11 41.27 98.98 C 40.34 99.83 39.43 100.71 38.55 101.62 C 36.24 104.09 34.11 106.72 31.85 109.23 C 30.50 110.75 29.16 112.28 27.85 113.84 C 27.30 114.50 26.75 115.16 26.20 115.83 L 25.30 115.44 C 23.95 115.37 22.59 115.39 21.23 115.39 C 21.70 111.73 22.31 108.06 23.72 104.63 C 24.44 103.97 25.25 103.42 26.14 102.98 C 26.65 105.19 27.56 107.28 28.58 109.31 C 32.56 106.50 35.88 102.96 39.26 99.50 Z" />
</g>
<g id="#065eb9ff">
<path fill="#065eb9" opacity="1.00" d=" M 49.86 114.20 C 55.98 109.03 61.73 103.44 67.83 98.24 C 69.25 99.10 70.66 99.97 72.06 100.86 C 70.22 103.09 67.35 103.83 64.93 105.20 C 64.55 106.41 64.74 107.69 64.72 108.93 C 57.03 116.30 49.17 123.53 40.98 130.35 C 40.48 129.38 39.98 128.41 39.48 127.44 C 41.62 125.07 44.84 122.87 44.51 119.27 C 46.34 117.63 48.03 115.87 49.86 114.20 Z" />
</g>
<g id="#4cbf66ff">
<path fill="#4cbf66" opacity="1.00" d=" M 298.67 99.42 C 300.14 99.79 301.53 100.44 302.94 101.03 C 302.46 100.99 301.51 100.90 301.03 100.86 C 301.65 101.63 302.28 102.40 302.91 103.17 C 299.33 109.42 295.60 115.58 291.76 121.66 C 290.78 123.46 289.05 124.55 287.31 125.50 C 284.16 124.29 281.09 122.91 278.09 121.37 C 278.66 120.21 279.24 119.05 279.83 117.90 C 280.77 116.17 281.83 114.50 282.88 112.83 C 284.26 111.20 285.51 109.46 286.68 107.67 L 287.25 107.57 C 290.71 107.57 291.04 103.21 293.41 101.50 C 295.05 100.55 296.87 99.98 298.67 99.42 Z" />
</g>
<g id="#0174cfff">
<path fill="#0174cf" opacity="1.00" d=" M 72.17 99.93 C 73.06 100.34 73.96 100.76 74.85 101.18 C 73.01 104.61 70.63 107.78 67.38 110.00 C 66.71 109.73 65.38 109.20 64.72 108.93 C 64.74 107.69 64.55 106.41 64.93 105.20 C 67.35 103.83 70.22 103.09 72.06 100.86 L 72.17 99.93 Z" />
</g>
<g id="#508866ff">
<path fill="#508866" opacity="1.00" d=" M 47.34 101.41 C 48.02 101.68 48.69 101.96 49.36 102.24 L 49.81 102.56 C 45.88 106.27 42.05 110.10 38.52 114.21 C 37.23 113.48 35.94 112.76 34.64 112.04 C 33.71 111.10 32.78 110.16 31.85 109.23 C 34.11 106.72 36.24 104.09 38.55 101.62 C 39.22 102.50 39.90 103.37 40.58 104.25 C 40.51 105.07 40.45 105.89 40.39 106.71 C 42.68 104.91 45.01 103.16 47.34 101.41 Z" />
</g>
<g id="#7bb679ff">
<path fill="#7bb679" opacity="1.00" d=" M 301.03 100.86 C 301.51 100.90 302.46 100.99 302.94 101.03 C 303.32 101.28 304.08 101.77 304.46 102.02 C 304.80 104.93 303.65 107.68 302.19 110.12 C 298.76 115.91 295.67 122.01 290.88 126.83 C 289.68 126.40 288.49 125.96 287.31 125.50 C 289.05 124.55 290.78 123.46 291.76 121.66 C 295.60 115.58 299.33 109.42 302.91 103.17 C 302.28 102.40 301.65 101.63 301.03 100.86 Z" />
</g>
<g id="#9fbe94ff">
<path fill="#9fbe94" opacity="1.00" d=" M 304.46 102.02 C 305.76 103.04 307.07 104.04 308.39 105.05 C 307.96 105.97 307.54 106.89 307.12 107.81 C 303.73 114.27 299.58 120.22 295.46 126.21 C 294.31 127.92 292.51 127.53 290.88 126.83 C 295.67 122.01 298.76 115.91 302.19 110.12 C 303.65 107.68 304.80 104.93 304.46 102.02 Z" />
</g>
<g id="#dccebcff">
</g>
<g id="#beb3a6ff">
</g>
<g id="#c93220ff">
<path fill="#c93220" opacity="1.00" d=" M 173.86 103.58 C 181.52 107.22 188.63 111.87 196.14 115.79 C 195.81 116.89 195.51 118.01 195.18 119.12 C 187.47 113.72 177.31 113.34 169.69 107.79 C 172.38 107.82 175.07 107.98 177.75 108.17 C 176.46 106.63 175.19 105.08 173.86 103.58 Z" />
</g>
<g id="#c2dcd0ff">
<path fill="#c2dcd0" opacity="1.00" d=" M 16.18 113.66 C 17.64 110.04 20.88 107.26 23.72 104.63 C 22.31 108.06 21.70 111.73 21.23 115.39 C 22.59 115.39 23.95 115.37 25.30 115.44 C 24.44 116.91 23.58 118.39 22.74 119.88 C 23.50 122.13 24.11 124.44 24.33 126.81 C 25.26 126.65 26.19 126.50 27.11 126.35 C 25.87 127.75 24.67 129.17 23.44 130.57 C 21.91 132.38 20.12 133.94 18.28 135.41 C 16.71 133.01 15.47 130.16 15.85 127.23 C 16.39 125.23 17.40 123.40 18.27 121.53 C 17.78 121.48 16.81 121.39 16.32 121.34 C 16.25 118.78 16.16 116.22 16.18 113.66 Z" />
</g>
<g id="#ead8c8ff">
</g>
<g id="#ece9dbff">
</g>
<g id="#f9f6f3ff">
</g>
<g id="#dea379ff">
<path fill="#dea379" opacity="1.00" d=" M 233.82 106.03 C 236.34 106.36 238.78 107.15 241.13 108.12 C 252.76 112.76 264.33 117.54 276.15 121.71 C 277.15 120.23 278.17 118.69 279.83 117.90 C 279.24 119.05 278.66 120.21 278.09 121.37 C 281.09 122.91 284.16 124.29 287.31 125.50 C 288.49 125.96 289.68 126.40 290.88 126.83 C 292.51 127.53 294.31 127.92 295.46 126.21 C 295.66 127.29 295.94 128.35 296.30 129.39 C 296.76 129.86 297.67 130.79 298.12 131.25 C 282.16 124.82 265.81 119.40 249.92 112.79 C 244.62 110.37 238.86 109.01 233.82 106.03 Z" />
</g>
<g id="#e1b999ff">
</g>
<g id="#d5d5b6ff">
</g>
<g id="#3295deff">
<path fill="#3295de" opacity="1.00" d=" M 40.98 130.35 C 49.17 123.53 57.03 116.30 64.72 108.93 C 65.38 109.20 66.71 109.73 67.38 110.00 C 64.09 112.47 61.33 115.55 58.05 118.03 C 52.50 122.10 48.37 127.76 42.85 131.89 C 40.12 134.08 37.56 136.48 35.37 139.21 L 35.17 138.66 C 34.99 138.12 34.61 137.04 34.43 136.50 C 36.64 134.49 38.78 132.39 40.98 130.35 Z" />
</g>
<g id="#63997fff">
<path fill="#63997f" opacity="1.00" d=" M 27.85 113.84 C 29.16 112.28 30.50 110.75 31.85 109.23 C 32.78 110.16 33.71 111.10 34.64 112.04 C 35.94 112.76 37.23 113.48 38.52 114.21 C 37.28 115.63 36.07 117.07 34.83 118.49 C 33.02 118.36 31.23 118.04 29.48 117.56 C 29.45 116.80 29.42 116.05 29.39 115.30 C 29.00 114.93 28.24 114.20 27.85 113.84 Z" />
</g>
<g id="#e78e83ff">
<path fill="#e78e83" opacity="1.00" d=" M 113.70 111.74 C 121.22 113.75 127.64 118.40 134.84 121.23 C 140.08 123.21 144.50 127.03 150.09 128.12 C 142.88 122.40 134.81 117.87 127.37 112.46 C 129.22 111.98 131.16 112.03 132.81 113.09 C 140.28 117.26 148.78 119.28 155.93 124.09 C 158.82 126.12 162.08 127.59 165.64 127.81 C 171.99 131.41 178.17 135.30 184.69 138.57 C 185.88 137.24 186.99 135.28 189.07 136.37 C 188.27 137.82 187.42 139.25 186.53 140.65 C 186.21 141.07 185.58 141.90 185.26 142.32 C 178.71 140.27 173.91 135.08 167.63 132.49 C 162.00 130.01 157.23 125.93 151.54 123.58 C 150.21 122.91 148.91 124.08 147.69 124.47 C 154.17 127.19 159.33 132.09 165.43 135.48 C 170.89 139.47 177.54 141.78 182.29 146.70 C 181.30 148.43 180.33 150.17 179.27 151.86 C 174.54 149.37 169.51 147.26 165.63 143.46 C 155.24 135.35 143.13 129.87 132.00 122.89 C 126.03 118.96 119.49 115.95 113.70 111.74 Z" />
</g>
<g id="#ec7d2bff">
<path fill="#ec7d2b" opacity="1.00" d=" M 172.73 113.73 C 180.73 112.77 187.22 118.90 194.90 120.07 C 194.08 121.61 193.12 123.07 192.18 124.55 C 192.52 124.72 193.20 125.08 193.54 125.26 C 193.38 125.54 193.07 126.09 192.91 126.36 C 192.43 126.75 191.47 127.53 190.99 127.92 C 190.51 129.25 190.33 132.47 188.14 131.19 C 179.68 126.96 171.63 121.93 163.48 117.14 C 167.26 116.43 170.33 118.79 173.52 120.32 C 175.05 121.31 175.89 119.17 176.96 118.41 C 175.53 116.87 174.11 115.32 172.73 113.73 Z" />
</g>
<g id="#6c1b19ff">
<path fill="#6c1b19" opacity="1.00" d=" M 200.44 112.28 C 204.62 113.61 208.71 115.20 212.61 117.21 C 212.21 117.80 211.40 118.98 211.00 119.57 C 206.81 118.01 202.62 116.31 199.00 113.63 L 200.44 112.28 Z" />
</g>
<g id="#f28f49ff">
<path fill="#f28f49" opacity="1.00" d=" M 225.93 113.62 C 228.08 113.84 230.24 114.20 232.22 115.09 C 243.07 119.80 254.44 123.15 265.42 127.52 C 269.25 129.25 273.58 129.09 277.45 130.66 C 284.52 133.82 292.03 135.81 299.16 138.82 C 300.19 137.58 301.46 136.47 302.13 134.98 C 301.87 133.67 300.86 132.71 300.20 131.61 C 300.94 131.71 302.42 131.92 303.16 132.03 C 304.05 136.78 299.74 140.02 295.61 141.04 C 284.40 136.73 273.25 132.25 262.08 127.83 C 249.93 123.36 238.28 117.57 225.93 113.62 Z" />
</g>
<g id="#e0ede8ff">
<path fill="#e0ede8" opacity="1.00" d=" M 12.97 117.01 C 13.34 115.37 15.02 114.64 16.18 113.66 C 16.16 116.22 16.25 118.78 16.32 121.34 C 16.81 121.39 17.78 121.48 18.27 121.53 C 17.40 123.40 16.39 125.23 15.85 127.23 C 15.47 130.16 16.71 133.01 18.28 135.41 L 18.55 135.87 C 16.88 136.68 15.06 139.21 13.11 137.99 C 11.31 133.89 12.32 129.44 14.42 125.69 C 11.01 123.95 12.45 119.96 12.97 117.01 Z" />
</g>
<g id="#7da694ff">
<path fill="#7da694" opacity="1.00" d=" M 26.20 115.83 C 26.75 115.16 27.30 114.50 27.85 113.84 C 28.24 114.20 29.00 114.93 29.39 115.30 C 29.42 116.05 29.45 116.80 29.48 117.56 C 31.23 118.04 33.02 118.36 34.83 118.49 C 34.56 118.78 34.03 119.35 33.77 119.63 C 32.02 121.34 30.27 123.05 28.56 124.79 C 27.26 121.95 27.02 118.81 26.20 115.83 Z" />
</g>
<g id="#d2cbc0ff">
</g>
<g id="#b52f1dff">
<path fill="#b52f1d" opacity="1.00" d=" M 197.87 114.85 C 198.15 114.55 198.72 113.93 199.00 113.63 C 202.62 116.31 206.81 118.01 211.00 119.57 C 207.34 131.54 201.63 142.77 196.48 154.16 C 195.37 156.78 193.54 159.03 190.99 160.35 C 191.84 158.49 192.71 156.63 193.59 154.78 C 198.28 143.79 202.98 132.81 207.84 121.89 C 204.23 119.98 200.73 117.81 197.87 114.85 Z" />
</g>
<g id="#cc4b22ff">
<path fill="#cc4b22" opacity="1.00" d=" M 193.54 125.26 C 195.37 121.96 196.47 118.34 197.87 114.85 C 200.73 117.81 204.23 119.98 207.84 121.89 C 202.98 132.81 198.28 143.79 193.59 154.78 C 192.10 154.40 190.61 154.03 189.12 153.65 C 188.52 154.59 187.91 155.52 187.31 156.45 C 185.85 156.46 184.40 156.47 182.95 156.48 C 183.48 151.04 186.28 146.14 186.53 140.65 C 187.42 139.25 188.27 137.82 189.07 136.37 C 189.49 135.22 189.85 134.05 190.22 132.89 C 190.92 130.64 191.76 128.42 192.91 126.36 C 193.07 126.09 193.38 125.54 193.54 125.26 Z" />
</g>
<g id="#95bbaaff">
<path fill="#95bbaa" opacity="1.00" d=" M 25.30 115.44 L 26.20 115.83 C 27.02 118.81 27.26 121.95 28.56 124.79 C 28.07 125.30 27.59 125.82 27.11 126.35 C 26.19 126.50 25.26 126.65 24.33 126.81 C 24.11 124.44 23.50 122.13 22.74 119.88 C 23.58 118.39 24.44 116.91 25.30 115.44 Z" />
</g>
<g id="#bc6423ff">
<path fill="#bc6423" opacity="1.00" d=" M 211.00 119.57 C 211.40 118.98 212.21 117.80 212.61 117.21 C 213.73 117.72 214.86 118.19 216.02 118.63 C 215.45 118.93 214.32 119.52 213.75 119.82 C 213.42 122.90 213.21 126.07 212.03 128.98 C 210.98 131.86 209.03 134.70 209.85 137.92 C 208.14 141.06 205.89 143.86 203.96 146.87 C 201.95 150.00 200.16 153.27 198.75 156.72 L 197.69 155.54 C 197.39 155.19 196.78 154.50 196.48 154.16 C 201.63 142.77 207.34 131.54 211.00 119.57 Z" />
</g>
<g id="#b98864ff">
<path fill="#b98864" opacity="1.00" d=" M 213.75 119.82 C 214.32 119.52 215.45 118.93 216.02 118.63 C 216.87 118.94 217.72 119.26 218.57 119.58 C 217.44 121.59 216.51 123.72 215.91 125.95 L 215.70 126.66 C 213.83 130.45 211.74 134.13 209.85 137.92 C 209.03 134.70 210.98 131.86 212.03 128.98 C 213.21 126.07 213.42 122.90 213.75 119.82 Z" />
</g>
<g id="#e9e2d5ff">
</g>
<g id="#2e71bcff">
<path fill="#2e71bc" opacity="1.00" d=" M 40.24 122.90 C 41.64 121.66 43.06 120.44 44.51 119.27 C 44.84 122.87 41.62 125.07 39.48 127.44 C 39.98 128.41 40.48 129.38 40.98 130.35 C 38.78 132.39 36.64 134.49 34.43 136.50 C 33.89 136.99 32.81 137.96 32.27 138.45 C 32.18 132.11 37.34 127.97 40.24 122.90 Z" />
</g>
<g id="#f4f1e8ff">
</g>
<g id="#739ac9ff">
<path fill="#739ac9" opacity="1.00" d=" M 35.90 126.43 C 37.30 125.20 38.81 124.10 40.24 122.90 C 37.34 127.97 32.18 132.11 32.27 138.45 C 30.71 139.82 28.94 140.94 27.14 141.99 C 26.92 139.89 26.72 137.80 26.52 135.70 C 29.62 132.59 32.60 129.34 35.90 126.43 Z" />
</g>
<g id="#f19b96ff">
<path fill="#f19b96" opacity="1.00" d=" M 147.69 124.47 C 148.91 124.08 150.21 122.91 151.54 123.58 C 157.23 125.93 162.00 130.01 167.63 132.49 C 173.91 135.08 178.71 140.27 185.26 142.32 C 184.47 144.21 183.89 146.18 183.22 148.11 C 182.99 147.76 182.52 147.05 182.29 146.70 C 177.54 141.78 170.89 139.47 165.43 135.48 C 159.33 132.09 154.17 127.19 147.69 124.47 Z" />
</g>
<g id="#e39762ff">
<path fill="#e39762" opacity="1.00" d=" M 220.04 127.58 C 220.96 126.33 221.89 125.09 222.83 123.84 C 222.77 124.36 222.64 125.40 222.58 125.92 C 222.47 126.74 222.40 127.58 222.39 128.41 C 225.43 130.75 228.97 132.35 232.02 134.69 C 230.18 134.22 228.34 133.77 226.53 133.20 C 222.81 131.21 219.19 129.03 215.70 126.66 L 215.91 125.95 C 217.29 126.49 218.66 127.04 220.04 127.58 Z" />
</g>
<g id="#a0321cff">
<path fill="#a0321c" opacity="1.00" d=" M 223.64 123.13 C 226.37 123.28 228.90 124.20 230.96 126.02 C 231.64 126.02 232.32 126.03 233.01 126.04 C 235.44 126.07 237.94 126.26 240.03 127.64 C 239.15 127.47 237.39 127.13 236.51 126.97 C 235.73 129.43 234.99 131.91 234.28 134.39 C 233.72 134.47 232.58 134.62 232.02 134.69 C 228.97 132.35 225.43 130.75 222.39 128.41 C 222.40 127.58 222.47 126.74 222.58 125.92 C 222.85 125.22 223.38 123.83 223.64 123.13 Z" />
</g>
<g id="#bb2b1aff">
<path fill="#bb2b1a" opacity="1.00" d=" M 209.85 137.92 C 211.74 134.13 213.83 130.45 215.70 126.66 C 219.19 129.03 222.81 131.21 226.53 133.20 C 223.85 132.39 221.29 131.24 218.76 130.05 C 217.13 131.84 214.75 133.36 214.46 135.97 C 214.01 138.13 213.74 140.33 213.42 142.52 C 211.72 142.49 210.01 142.47 208.31 142.45 C 207.57 144.52 207.08 146.70 207.40 148.91 C 206.25 148.22 205.11 147.55 203.96 146.87 C 205.89 143.86 208.14 141.06 209.85 137.92 Z" />
</g>
<g id="#c89481ff">
<path fill="#c89481" opacity="1.00" d=" M 234.28 134.39 C 234.99 131.91 235.73 129.43 236.51 126.97 C 237.39 127.13 239.15 127.47 240.03 127.64 C 240.56 127.92 241.62 128.48 242.15 128.76 C 241.81 128.69 241.14 128.53 240.80 128.45 C 240.38 131.17 239.54 133.79 238.46 136.31 C 239.11 137.35 239.77 138.39 240.43 139.43 C 239.09 138.96 237.72 138.57 236.39 138.10 C 234.79 137.15 233.34 135.99 232.02 134.69 C 232.58 134.62 233.72 134.47 234.28 134.39 Z" />
</g>
<g id="#f5f3eeff">
</g>
<g id="#e97b31ff">
<path fill="#e97b31" opacity="1.00" d=" M 214.46 135.97 C 214.75 133.36 217.13 131.84 218.76 130.05 C 221.29 131.24 223.85 132.39 226.53 133.20 C 228.34 133.77 230.18 134.22 232.02 134.69 C 233.34 135.99 234.79 137.15 236.39 138.10 C 234.77 138.51 233.16 138.90 231.55 139.27 C 228.45 136.24 224.23 134.67 219.98 134.19 C 218.11 134.28 215.87 135.78 216.08 137.87 C 219.65 141.65 224.52 143.76 229.13 145.97 C 233.51 148.16 237.65 150.78 242.00 153.03 C 243.88 154.13 245.70 155.31 247.57 156.43 C 244.79 156.34 241.99 156.49 239.29 157.19 C 239.30 158.26 239.35 159.34 239.43 160.41 C 237.48 159.39 235.51 158.40 233.54 157.42 C 231.56 156.36 229.69 155.09 227.83 153.84 C 226.93 153.31 226.05 152.77 225.13 152.29 C 221.05 149.91 216.86 147.75 212.73 145.48 C 211.21 144.54 209.77 143.47 208.31 142.45 C 210.01 142.47 211.72 142.49 213.42 142.52 C 213.74 140.33 214.01 138.13 214.46 135.97 Z" />
</g>
<g id="#227cc7ff">
<path fill="#227cc7" opacity="1.00" d=" M 35.37 139.21 C 37.56 136.48 40.12 134.08 42.85 131.89 C 43.92 133.22 44.99 134.55 46.06 135.88 C 48.45 133.80 50.96 131.48 54.36 131.58 C 50.88 135.44 46.67 138.50 42.93 142.08 C 40.45 141.37 35.91 142.67 35.37 139.21 Z" />
</g>
<g id="#f3e1cbff">
<path fill="#f3e1cb" opacity="1.00" d=" M 303.16 132.03 C 308.40 132.87 311.82 137.28 316.22 139.79 C 318.23 141.12 320.79 141.89 322.04 144.11 C 319.02 142.79 315.69 143.48 312.53 143.66 C 312.41 144.29 312.17 145.57 312.05 146.20 C 306.61 147.49 302.29 142.48 296.87 143.60 C 296.46 142.74 296.04 141.88 295.61 141.04 C 299.74 140.02 304.05 136.78 303.16 132.03 Z" />
</g>
<g id="#ee942dff">
<path fill="#ee942d" opacity="1.00" d=" M 216.08 137.87 C 215.87 135.78 218.11 134.28 219.98 134.19 C 224.23 134.67 228.45 136.24 231.55 139.27 C 233.16 138.90 234.77 138.51 236.39 138.10 C 237.72 138.57 239.09 138.96 240.43 139.43 C 247.06 141.43 252.07 147.49 259.21 147.77 C 259.71 146.94 260.22 146.11 260.74 145.28 C 260.49 146.52 260.27 147.77 260.08 149.03 C 261.59 150.04 263.13 151.04 264.66 152.04 C 260.34 152.43 256.00 151.83 252.09 149.90 C 250.49 148.91 248.78 149.54 247.18 150.14 C 245.84 149.24 244.51 148.33 243.17 147.43 C 241.94 147.83 240.74 148.34 239.47 148.56 C 236.14 147.21 232.90 143.59 229.13 145.97 C 224.52 143.76 219.65 141.65 216.08 137.87 Z" />
</g>
<g id="#b1cce7ff">
<path fill="#b1cce7" opacity="1.00" d=" M 21.96 139.04 C 23.34 138.07 24.76 137.14 26.11 136.12 C 25.35 138.40 24.83 140.75 24.38 143.12 C 25.42 143.57 26.45 144.03 27.49 144.49 C 27.05 146.00 26.52 147.50 26.30 149.06 C 26.74 150.60 27.85 151.83 28.68 153.17 C 29.95 152.79 31.20 152.40 32.46 152.00 C 32.27 152.52 31.89 153.57 31.70 154.09 C 29.02 155.90 26.23 157.65 24.13 160.15 C 22.45 159.53 19.84 160.11 19.03 158.11 C 17.81 156.06 18.97 153.71 19.33 151.60 C 15.88 149.77 18.54 145.75 18.58 142.80 C 18.96 141.06 20.67 140.08 21.96 139.04 Z" />
</g>
<g id="#71a6daff">
<path fill="#71a6da" opacity="1.00" d=" M 26.11 136.12 L 26.52 135.70 C 26.72 137.80 26.92 139.89 27.14 141.99 C 28.94 140.94 30.71 139.82 32.27 138.45 C 32.81 137.96 33.89 136.99 34.43 136.50 C 34.61 137.04 34.99 138.12 35.17 138.66 C 34.20 139.89 33.23 141.11 32.25 142.32 C 32.71 144.00 33.16 145.67 33.62 147.35 C 35.27 147.02 36.91 146.69 38.55 146.37 C 36.61 148.35 34.55 150.19 32.46 152.00 C 31.20 152.40 29.95 152.79 28.68 153.17 C 27.85 151.83 26.74 150.60 26.30 149.06 C 26.52 147.50 27.05 146.00 27.49 144.49 C 26.45 144.03 25.42 143.57 24.38 143.12 C 24.83 140.75 25.35 138.40 26.11 136.12 Z" />
</g>
<g id="#47af52ff">
<path fill="#47af52" opacity="1.00" d=" M 265.71 138.34 C 269.50 139.99 273.38 141.43 277.22 142.96 C 275.11 146.71 272.36 150.02 269.56 153.27 C 268.08 152.72 266.54 152.39 265.00 152.11 L 264.66 152.04 C 263.13 151.04 261.59 150.04 260.08 149.03 C 260.27 147.77 260.49 146.52 260.74 145.28 C 262.23 142.85 264.01 140.62 265.71 138.34 Z" />
</g>
<g id="#458fd4ff">
<path fill="#458fd4" opacity="1.00" d=" M 32.25 142.32 C 33.23 141.11 34.20 139.89 35.17 138.66 L 35.37 139.21 C 35.91 142.67 40.45 141.37 42.93 142.08 C 41.45 143.49 39.99 144.93 38.55 146.37 C 36.91 146.69 35.27 147.02 33.62 147.35 C 33.16 145.67 32.71 144.00 32.25 142.32 Z" />
</g>
<g id="#efe9e4ff">
</g>
<g id="#d26941ff">
<path fill="#d26941" opacity="1.00" d=" M 185.26 142.32 C 185.58 141.90 186.21 141.07 186.53 140.65 C 186.28 146.14 183.48 151.04 182.95 156.48 C 184.40 156.47 185.85 156.46 187.31 156.45 C 187.91 155.52 188.52 154.59 189.12 153.65 C 190.61 154.03 192.10 154.40 193.59 154.78 C 192.71 156.63 191.84 158.49 190.99 160.35 C 190.39 161.63 189.79 162.92 189.25 164.23 C 189.24 163.70 189.20 162.65 189.18 162.12 C 185.73 163.97 181.87 164.74 178.07 165.49 C 178.34 163.23 178.57 160.97 178.87 158.71 C 180.23 155.14 181.90 151.70 183.22 148.11 C 183.89 146.18 184.47 144.21 185.26 142.32 Z" />
</g>
<g id="#e9f0f7ff">
<path fill="#e9f0f7" opacity="1.00" d=" M 9.75 150.68 C 11.88 147.32 14.36 143.56 18.58 142.80 C 18.54 145.75 15.88 149.77 19.33 151.60 C 18.97 153.71 17.81 156.06 19.03 158.11 C 19.84 160.11 22.45 159.53 24.13 160.15 C 23.80 160.59 23.13 161.47 22.80 161.91 C 20.53 165.09 16.89 167.12 13.16 168.08 C 10.69 164.89 11.68 160.28 8.66 157.43 C 8.95 155.17 9.04 152.85 9.75 150.68 Z" />
</g>
<g id="#e0b591ff">
<path fill="#e0b591" opacity="1.00" d=" M 207.40 148.91 C 207.08 146.70 207.57 144.52 208.31 142.45 C 209.77 143.47 211.21 144.54 212.73 145.48 C 211.22 146.78 209.71 148.09 208.20 149.40 L 207.40 148.91 Z" />
</g>
<g id="#92b17eff">
<path fill="#92b17e" opacity="1.00" d=" M 269.56 153.27 C 272.36 150.02 275.11 146.71 277.22 142.96 C 278.87 143.60 280.53 144.24 282.20 144.83 C 280.26 149.02 277.48 152.71 274.73 156.38 C 272.96 155.41 271.26 154.34 269.56 153.27 Z" />
</g>
<g id="#df5829ff">
<path fill="#df5829" opacity="1.00" d=" M 312.53 143.66 C 315.69 143.48 319.02 142.79 322.04 144.11 C 323.93 145.63 325.88 147.09 327.80 148.58 C 330.09 150.45 332.26 152.46 334.28 154.62 C 331.38 154.56 328.51 154.27 325.65 153.84 C 323.01 148.82 316.62 148.60 312.05 146.20 C 312.17 145.57 312.41 144.29 312.53 143.66 Z" />
</g>
<g id="#f09f3cff">
<path fill="#f09f3c" opacity="1.00" d=" M 229.13 145.97 C 232.90 143.59 236.14 147.21 239.47 148.56 C 240.74 148.34 241.94 147.83 243.17 147.43 C 244.51 148.33 245.84 149.24 247.18 150.14 C 248.78 149.54 250.49 148.91 252.09 149.90 C 256.00 151.83 260.34 152.43 264.66 152.04 L 265.00 152.11 C 266.70 153.90 268.54 155.58 270.69 156.82 C 268.14 157.49 265.52 157.40 262.95 157.02 C 259.65 156.46 256.13 157.82 253.05 156.07 C 249.45 154.86 246.00 151.30 242.00 153.03 C 237.65 150.78 233.51 148.16 229.13 145.97 Z" />
</g>
<g id="#d4c9aaff">
</g>
<g id="#902e14ff">
<path fill="#902e14" opacity="1.00" d=" M 208.20 149.40 C 209.71 148.09 211.22 146.78 212.73 145.48 C 216.86 147.75 221.05 149.91 225.13 152.29 C 222.64 153.09 220.36 151.85 218.10 150.98 C 215.59 149.88 212.81 150.35 210.18 150.53 C 209.51 150.16 208.85 149.78 208.20 149.40 Z" />
</g>
<g id="#d33b2eff">
<path fill="#d33b2e" opacity="1.00" d=" M 312.05 146.20 C 316.62 148.60 323.01 148.82 325.65 153.84 C 319.75 153.24 313.88 152.44 308.09 151.19 C 308.78 149.08 310.26 147.46 312.05 146.20 Z" />
</g>
<g id="#ba2727ff">
<path fill="#ba2727" opacity="1.00" d=" M 198.75 156.72 C 200.16 153.27 201.95 150.00 203.96 146.87 C 205.11 147.55 206.25 148.22 207.40 148.91 L 208.20 149.40 C 208.85 149.78 209.51 150.16 210.18 150.53 C 209.44 151.58 208.69 152.62 207.97 153.68 C 206.58 155.70 205.27 157.78 203.77 159.72 C 203.78 157.17 203.86 154.61 204.02 152.05 C 202.76 154.13 201.39 156.13 199.95 158.08 C 199.65 157.74 199.05 157.06 198.75 156.72 Z" />
</g>
<g id="#b85a47ff">
<path fill="#b85a47" opacity="1.00" d=" M 210.18 150.53 C 212.81 150.35 215.59 149.88 218.10 150.98 C 220.36 151.85 222.64 153.09 225.13 152.29 C 226.05 152.77 226.93 153.31 227.83 153.84 C 227.51 154.48 226.86 155.77 226.53 156.41 C 225.33 156.34 224.13 156.29 222.93 156.21 C 221.39 152.97 218.06 151.84 214.77 151.34 C 213.52 153.37 212.25 155.38 211.08 157.46 C 210.04 156.20 209.00 154.94 207.97 153.68 C 208.69 152.62 209.44 151.58 210.18 150.53 Z" />
</g>
<g id="#cf7f88ff">
<path fill="#cf7f88" opacity="1.00" d=" M 214.77 151.34 C 218.06 151.84 221.39 152.97 222.93 156.21 C 224.13 156.29 225.33 156.34 226.53 156.41 L 226.23 157.36 C 223.68 159.82 220.79 162.08 219.31 165.42 C 217.49 162.37 220.33 158.98 220.41 155.80 C 219.06 153.49 216.38 154.80 215.62 156.83 C 212.47 162.32 207.88 166.77 204.64 172.19 C 204.21 172.35 203.36 172.68 202.93 172.84 C 203.41 170.43 204.18 168.10 205.05 165.81 C 205.81 164.18 205.80 162.39 205.53 160.65 C 206.66 160.96 207.77 161.35 208.90 161.72 C 209.61 160.29 210.31 158.86 211.08 157.46 C 212.25 155.38 213.52 153.37 214.77 151.34 Z" />
</g>
<g id="#c4463bff">
<path fill="#c4463b" opacity="1.00" d=" M 199.95 158.08 C 201.39 156.13 202.76 154.13 204.02 152.05 C 203.86 154.61 203.78 157.17 203.77 159.72 C 202.85 159.74 201.93 159.71 201.01 159.70 C 200.74 160.11 200.20 160.92 199.93 161.33 C 199.55 161.95 198.78 163.19 198.39 163.81 C 195.28 161.74 196.74 158.37 197.69 155.54 L 198.75 156.72 C 199.05 157.06 199.65 157.74 199.95 158.08 Z" />
</g>
<g id="#f4aa52ff">
<path fill="#f4aa52" opacity="1.00" d=" M 242.00 153.03 C 246.00 151.30 249.45 154.86 253.05 156.07 C 256.13 157.82 259.65 156.46 262.95 157.02 C 265.52 157.40 268.14 157.49 270.69 156.82 C 272.76 157.72 274.88 158.52 276.94 159.46 C 277.57 160.54 278.20 161.61 278.82 162.70 C 273.54 161.89 268.19 161.71 262.86 161.97 C 258.93 160.22 255.16 157.93 250.83 157.29 C 249.74 157.01 248.65 156.72 247.57 156.43 C 245.70 155.31 243.88 154.13 242.00 153.03 Z" />
</g>
<g id="#bf9f52ff">
<path fill="#bf9f52" opacity="1.00" d=" M 265.00 152.11 C 266.54 152.39 268.08 152.72 269.56 153.27 C 271.26 154.34 272.96 155.41 274.73 156.38 C 275.45 157.41 276.17 158.45 276.94 159.46 C 274.88 158.52 272.76 157.72 270.69 156.82 C 268.54 155.58 266.70 153.90 265.00 152.11 Z" />
</g>
<g id="#cb735dff">
<path fill="#cb735d" opacity="1.00" d=" M 203.77 159.72 C 205.27 157.78 206.58 155.70 207.97 153.68 C 209.00 154.94 210.04 156.20 211.08 157.46 C 210.31 158.86 209.61 160.29 208.90 161.72 C 207.77 161.35 206.66 160.96 205.53 160.65 C 203.65 160.82 201.79 161.07 199.93 161.33 C 200.20 160.92 200.74 160.11 201.01 159.70 C 201.93 159.71 202.85 159.74 203.77 159.72 Z" />
</g>
<g id="#c6624aff">
<path fill="#c6624a" opacity="1.00" d=" M 190.99 160.35 C 193.54 159.03 195.37 156.78 196.48 154.16 C 196.78 154.50 197.39 155.19 197.69 155.54 C 196.74 158.37 195.28 161.74 198.39 163.81 L 198.96 164.50 C 198.76 164.62 198.34 164.87 198.13 165.00 C 197.11 165.67 196.12 166.38 195.12 167.09 C 194.33 166.50 193.55 165.92 192.77 165.33 C 191.60 165.50 190.43 165.68 189.27 165.86 C 189.27 165.45 189.26 164.64 189.25 164.23 C 189.79 162.92 190.39 161.63 190.99 160.35 Z" />
</g>
<g id="#dfa0b0ff">
<path fill="#dfa0b0" opacity="1.00" d=" M 215.62 156.83 C 216.38 154.80 219.06 153.49 220.41 155.80 C 220.33 158.98 217.49 162.37 219.31 165.42 C 219.17 166.33 219.03 167.23 218.91 168.15 C 217.89 168.67 216.89 169.23 215.89 169.78 C 215.82 167.78 215.75 165.78 215.66 163.78 C 210.74 165.00 209.51 171.01 204.64 172.19 C 207.88 166.77 212.47 162.32 215.62 156.83 Z" />
</g>
<g id="#d4a17dff">
<path fill="#d4a17d" opacity="1.00" d=" M 226.53 156.41 C 226.86 155.77 227.51 154.48 227.83 153.84 C 229.69 155.09 231.56 156.36 233.54 157.42 C 232.59 158.38 231.98 159.91 232.97 161.08 C 235.82 164.61 239.26 169.00 244.32 168.58 C 246.05 169.35 247.50 170.57 248.98 171.73 C 242.05 171.45 236.06 167.35 229.17 166.88 C 231.18 166.45 233.20 166.12 235.22 165.73 C 234.03 164.70 232.82 163.69 231.53 162.79 C 230.11 162.09 228.68 161.45 227.24 160.81 C 226.99 159.95 226.49 158.22 226.23 157.36 L 226.53 156.41 Z" />
</g>
<g id="#ee8f52ff">
<path fill="#ee8f52" opacity="1.00" d=" M 239.29 157.19 C 241.99 156.49 244.79 156.34 247.57 156.43 C 248.65 156.72 249.74 157.01 250.83 157.29 C 254.06 159.26 257.20 161.36 260.48 163.23 C 257.16 165.34 253.25 165.99 249.38 165.57 C 248.52 165.12 247.67 164.69 246.82 164.25 C 244.35 162.99 241.89 161.69 239.43 160.41 C 239.35 159.34 239.30 158.26 239.29 157.19 Z" />
</g>
<g id="#f6c68bff">
<path fill="#f6c68b" opacity="1.00" d=" M 250.83 157.29 C 255.16 157.93 258.93 160.22 262.86 161.97 C 266.70 163.97 270.55 166.99 275.15 166.26 C 277.17 165.71 278.55 167.28 279.85 168.53 C 279.88 168.08 279.94 167.19 279.97 166.74 C 281.84 167.27 283.74 167.67 285.66 168.01 C 285.62 166.72 285.58 165.42 285.54 164.13 C 287.71 165.36 289.92 166.52 292.12 167.69 C 292.74 169.07 293.36 170.44 293.97 171.82 C 286.45 171.74 279.09 170.16 271.97 167.83 C 271.97 168.36 271.97 169.42 271.97 169.95 C 270.44 169.04 268.90 168.15 267.37 167.23 C 265.10 165.86 262.79 164.54 260.48 163.23 C 257.20 161.36 254.06 159.26 250.83 157.29 Z" />
</g>
<g id="#deb0a8ff">
<path fill="#deb0a8" opacity="1.00" d=" M 219.31 165.42 C 220.79 162.08 223.68 159.82 226.23 157.36 C 226.49 158.22 226.99 159.95 227.24 160.81 C 226.48 162.89 225.68 164.95 225.07 167.08 L 224.51 166.73 C 222.59 166.97 220.72 167.49 218.91 168.15 C 219.03 167.23 219.17 166.33 219.31 165.42 Z" />
</g>
<g id="#d9ba98ff">
<path fill="#d9ba98" opacity="1.00" d=" M 232.97 161.08 C 231.98 159.91 232.59 158.38 233.54 157.42 C 235.51 158.40 237.48 159.39 239.43 160.41 C 241.89 161.69 244.35 162.99 246.82 164.25 C 246.27 165.84 245.57 167.40 244.32 168.58 C 239.26 169.00 235.82 164.61 232.97 161.08 Z" />
</g>
<g id="#d37e61ff">
<path fill="#d37e61" opacity="1.00" d=" M 175.07 167.88 C 176.26 164.79 177.46 161.71 178.87 158.71 C 178.57 160.97 178.34 163.23 178.07 165.49 C 181.87 164.74 185.73 163.97 189.18 162.12 C 189.20 162.65 189.24 163.70 189.25 164.23 C 189.26 164.64 189.27 165.45 189.27 165.86 C 190.43 165.68 191.60 165.50 192.77 165.33 C 193.55 165.92 194.33 166.50 195.12 167.09 C 196.12 166.38 197.11 165.67 198.13 165.00 L 198.19 165.66 C 197.32 167.29 196.36 168.85 195.36 170.40 C 194.22 170.74 193.09 171.09 191.96 171.44 C 191.27 171.07 190.59 170.71 189.91 170.34 C 188.69 170.81 187.47 171.28 186.25 171.75 C 186.37 170.57 186.49 169.40 186.61 168.23 C 182.82 169.04 178.45 170.80 175.07 167.88 Z" />
</g>
<g id="#f4b669ff">
<path fill="#f4b669" opacity="1.00" d=" M 276.94 159.46 C 277.30 159.64 278.03 160.00 278.40 160.18 C 280.87 161.32 283.19 162.76 285.54 164.13 C 285.58 165.42 285.62 166.72 285.66 168.01 C 283.74 167.67 281.84 167.27 279.97 166.74 C 279.94 167.19 279.88 168.08 279.85 168.53 C 278.55 167.28 277.17 165.71 275.15 166.26 C 270.55 166.99 266.70 163.97 262.86 161.97 C 268.19 161.71 273.54 161.89 278.82 162.70 C 278.20 161.61 277.57 160.54 276.94 159.46 Z" />
</g>
<g id="#d49374ff">
<path fill="#d49374" opacity="1.00" d=" M 199.93 161.33 C 201.79 161.07 203.65 160.82 205.53 160.65 C 205.80 162.39 205.81 164.18 205.05 165.81 C 204.93 165.50 204.71 164.87 204.59 164.56 C 202.72 164.41 200.84 164.38 198.96 164.50 L 198.39 163.81 C 198.78 163.19 199.55 161.95 199.93 161.33 Z" />
</g>
<g id="#bd5f59ff">
<path fill="#bd5f59" opacity="1.00" d=" M 227.24 160.81 C 228.68 161.45 230.11 162.09 231.53 162.79 C 229.48 164.93 227.42 167.04 225.31 169.12 C 225.25 168.61 225.13 167.59 225.07 167.08 C 225.68 164.95 226.48 162.89 227.24 160.81 Z" />
</g>
<g id="#d8887aff">
<path fill="#d8887a" opacity="1.00" d=" M 231.53 162.79 C 232.82 163.69 234.03 164.70 235.22 165.73 C 233.20 166.12 231.18 166.45 229.17 166.88 C 227.68 168.89 226.38 171.03 225.05 173.15 C 224.60 173.30 223.69 173.61 223.24 173.77 C 223.06 173.00 222.68 171.45 222.50 170.68 C 223.14 169.35 223.83 168.05 224.51 166.73 L 225.07 167.08 C 225.13 167.59 225.25 168.61 225.31 169.12 C 227.42 167.04 229.48 164.93 231.53 162.79 Z" />
</g>
<g id="#f0a376ff">
<path fill="#f0a376" opacity="1.00" d=" M 260.48 163.23 C 262.79 164.54 265.10 165.86 267.37 167.23 C 263.46 168.05 259.54 168.82 255.62 169.63 C 253.50 168.33 251.49 166.87 249.38 165.57 C 253.25 165.99 257.16 165.34 260.48 163.23 Z" />
</g>
<g id="#e4b6bcff">
<path fill="#e4b6bc" opacity="1.00" d=" M 198.13 165.00 C 198.34 164.87 198.76 164.62 198.96 164.50 C 200.84 164.38 202.72 164.41 204.59 164.56 C 204.71 164.87 204.93 165.50 205.05 165.81 C 204.18 168.10 203.41 170.43 202.93 172.84 C 203.36 172.68 204.21 172.35 204.64 172.19 C 209.51 171.01 210.74 165.00 215.66 163.78 C 215.75 165.78 215.82 167.78 215.89 169.78 C 216.89 169.23 217.89 168.67 218.91 168.15 C 220.72 167.49 222.59 166.97 224.51 166.73 C 223.83 168.05 223.14 169.35 222.50 170.68 C 221.79 172.24 221.33 173.90 220.87 175.55 C 221.81 175.95 223.70 176.75 224.65 177.15 C 222.87 177.89 220.94 177.96 219.05 178.04 C 219.26 176.03 219.48 174.03 219.70 172.03 C 217.68 173.49 215.67 174.97 213.67 176.45 C 213.20 174.59 212.72 172.73 212.25 170.86 C 208.24 173.53 204.69 176.82 200.75 179.59 C 200.52 178.59 200.30 177.60 200.08 176.61 C 201.22 173.89 202.18 171.10 202.79 168.21 C 201.24 167.38 199.69 166.57 198.19 165.66 L 198.13 165.00 Z" />
</g>
<g id="#9b9f8aff">
<path fill="#9b9f8a" opacity="1.00" d=" M 246.82 164.25 C 247.67 164.69 248.52 165.12 249.38 165.57 C 251.49 166.87 253.50 168.33 255.62 169.63 C 256.79 170.33 258.00 170.98 259.22 171.61 C 257.35 172.46 255.48 173.31 253.62 174.16 C 252.11 173.28 250.54 172.51 248.98 171.73 C 247.50 170.57 246.05 169.35 244.32 168.58 C 245.57 167.40 246.27 165.84 246.82 164.25 Z" />
</g>
<g id="#edcbbbff">
<path fill="#edcbbb" opacity="1.00" d=" M 198.19 165.66 C 199.69 166.57 201.24 167.38 202.79 168.21 C 202.18 171.10 201.22 173.89 200.08 176.61 C 199.74 175.37 199.43 174.13 199.15 172.88 C 199.55 171.22 199.03 170.15 197.20 170.31 C 194.06 174.16 192.29 178.89 190.07 183.30 C 186.83 183.48 183.59 183.77 180.40 184.40 C 180.42 182.96 180.44 181.52 180.46 180.08 C 178.55 182.16 176.93 184.53 174.80 186.40 C 172.94 187.37 170.77 187.31 168.74 187.57 C 168.49 186.30 168.27 185.03 168.06 183.75 C 169.17 179.59 170.41 175.30 173.02 171.80 C 172.61 173.83 172.26 175.88 171.92 177.94 C 175.46 177.63 178.97 177.12 182.45 176.40 C 182.67 176.98 183.11 178.13 183.33 178.70 C 186.67 178.39 190.83 178.57 192.37 174.89 C 193.39 173.41 194.37 171.90 195.36 170.40 C 196.36 168.85 197.32 167.29 198.19 165.66 Z" />
</g>
<g id="#f1b5abff">
<path fill="#f1b5ab" opacity="1.00" d=" M 229.17 166.88 C 236.06 167.35 242.05 171.45 248.98 171.73 C 250.54 172.51 252.11 173.28 253.62 174.16 C 254.49 174.98 255.35 175.82 256.19 176.69 C 247.48 176.59 239.77 171.49 231.18 170.58 C 230.06 170.67 228.97 170.97 227.87 171.21 C 227.26 173.42 226.36 175.57 224.65 177.15 C 223.70 176.75 221.81 175.95 220.87 175.55 C 221.33 173.90 221.79 172.24 222.50 170.68 C 222.68 171.45 223.06 173.00 223.24 173.77 C 223.69 173.61 224.60 173.30 225.05 173.15 C 226.38 171.03 227.68 168.89 229.17 166.88 Z" />
</g>
<g id="#f3b38eff">
<path fill="#f3b38e" opacity="1.00" d=" M 255.62 169.63 C 259.54 168.82 263.46 168.05 267.37 167.23 C 268.90 168.15 270.44 169.04 271.97 169.95 C 272.91 170.53 273.85 171.11 274.80 171.67 C 270.09 171.82 265.39 172.15 260.69 172.34 C 260.32 172.16 259.59 171.79 259.22 171.61 C 258.00 170.98 256.79 170.33 255.62 169.63 Z" />
</g>
<g id="#df9b7aff">
<path fill="#df9b7a" opacity="1.00" d=" M 173.35 171.37 C 173.93 170.21 174.54 169.06 175.07 167.88 C 178.45 170.80 182.82 169.04 186.61 168.23 C 186.49 169.40 186.37 170.57 186.25 171.75 C 187.47 171.28 188.69 170.81 189.91 170.34 C 190.59 170.71 191.27 171.07 191.96 171.44 C 193.09 171.09 194.22 170.74 195.36 170.40 C 194.37 171.90 193.39 173.41 192.37 174.89 C 190.92 174.51 189.46 174.13 188.01 173.75 C 186.83 174.44 185.66 175.14 184.49 175.83 C 184.65 174.32 184.82 172.82 184.99 171.32 C 181.50 172.71 177.87 173.69 174.15 174.16 C 173.95 173.46 173.55 172.07 173.35 171.37 Z" />
</g>
<g id="#f4c9a8ff">
<path fill="#f4c9a8" opacity="1.00" d=" M 271.97 167.83 C 279.09 170.16 286.45 171.74 293.97 171.82 C 293.36 170.44 292.74 169.07 292.12 167.69 C 294.73 169.06 297.25 170.58 299.90 171.87 C 298.42 173.08 297.20 175.03 295.19 175.36 C 288.69 175.36 282.97 171.65 276.59 170.95 C 277.98 173.05 279.96 174.63 282.01 176.05 C 276.45 176.70 270.87 175.29 265.33 176.00 C 263.81 174.74 262.30 173.47 260.69 172.34 C 265.39 172.15 270.09 171.82 274.80 171.67 C 273.85 171.11 272.91 170.53 271.97 169.95 C 271.97 169.42 271.97 168.36 271.97 167.83 Z" />
</g>
<g id="#f5dbd3ff">
<path fill="#f5dbd3" opacity="1.00" d=" M 231.18 170.58 C 239.77 171.49 247.48 176.59 256.19 176.69 C 259.25 176.73 262.31 176.54 265.33 176.00 C 270.87 175.29 276.45 176.70 282.01 176.05 C 279.96 174.63 277.98 173.05 276.59 170.95 C 282.97 171.65 288.69 175.36 295.19 175.36 C 297.20 175.03 298.42 173.08 299.90 171.87 C 300.47 172.04 301.60 172.39 302.17 172.56 C 301.74 174.85 301.51 177.77 299.18 178.98 C 291.87 181.80 283.72 183.19 276.03 181.10 C 272.37 180.05 268.69 181.38 265.04 181.69 C 261.60 182.10 258.19 181.27 254.88 180.43 C 249.41 178.95 243.76 178.18 238.34 176.46 C 238.16 177.89 237.99 179.32 237.81 180.75 C 231.79 180.74 225.93 184.96 220.00 182.45 C 218.66 183.04 217.34 183.64 216.02 184.24 C 215.09 183.71 214.16 183.18 213.24 182.65 C 212.20 182.99 211.16 183.33 210.13 183.67 C 209.61 182.23 209.10 180.79 208.59 179.36 C 205.07 182.16 201.22 184.58 196.96 186.08 C 196.70 181.57 197.43 177.06 199.15 172.88 C 199.43 174.13 199.74 175.37 200.08 176.61 C 200.30 177.60 200.52 178.59 200.75 179.59 C 204.69 176.82 208.24 173.53 212.25 170.86 C 212.72 172.73 213.20 174.59 213.67 176.45 C 215.67 174.97 217.68 173.49 219.70 172.03 C 219.48 174.03 219.26 176.03 219.05 178.04 C 220.94 177.96 222.87 177.89 224.65 177.15 C 226.36 175.57 227.26 173.42 227.87 171.21 C 228.97 170.97 230.06 170.67 231.18 170.58 Z" />
</g>
<g id="#e4a992ff">
<path fill="#e4a992" opacity="1.00" d=" M 173.22 170.83 L 173.35 171.37 C 173.55 172.07 173.95 173.46 174.15 174.16 C 177.87 173.69 181.50 172.71 184.99 171.32 C 184.82 172.82 184.65 174.32 184.49 175.83 C 185.66 175.14 186.83 174.44 188.01 173.75 C 189.46 174.13 190.92 174.51 192.37 174.89 C 190.83 178.57 186.67 178.39 183.33 178.70 C 183.11 178.13 182.67 176.98 182.45 176.40 C 178.97 177.12 175.46 177.63 171.92 177.94 C 172.26 175.88 172.61 173.83 173.02 171.80 L 173.22 170.83 Z" />
</g>
<g id="#cccdbcff">
<path fill="#cccdbc" opacity="1.00" d=" M 253.62 174.16 C 255.48 173.31 257.35 172.46 259.22 171.61 C 259.59 171.79 260.32 172.16 260.69 172.34 C 262.30 173.47 263.81 174.74 265.33 176.00 C 262.31 176.54 259.25 176.73 256.19 176.69 C 255.35 175.82 254.49 174.98 253.62 174.16 Z" />
</g>
<g id="#f6e6dcff">
<path fill="#f6e6dc" opacity="1.00" d=" M 174.80 186.40 C 176.93 184.53 178.55 182.16 180.46 180.08 C 180.44 181.52 180.42 182.96 180.40 184.40 C 183.59 183.77 186.83 183.48 190.07 183.30 C 188.51 188.39 182.88 189.50 178.45 190.88 C 177.83 190.10 177.21 189.31 176.60 188.53 C 173.17 190.53 169.30 191.49 165.38 191.91 C 165.54 190.16 165.69 188.41 165.90 186.67 C 166.05 185.36 167.19 184.58 168.06 183.75 C 168.27 185.03 168.49 186.30 168.74 187.57 C 170.77 187.31 172.94 187.37 174.80 186.40 Z" />
</g>
</svg>
