<?xml version="1.0" encoding="UTF-8" ?>
<!DOCTYPE svg PUBLIC "-//W3C//DTD SVG 1.1//EN" "http://www.w3.org/Graphics/SVG/1.1/DTD/svg11.dtd">
<svg width="600pt" height="235pt" viewBox="0 0 600 235" version="1.1" xmlns="http://www.w3.org/2000/svg">
<g id="#a6dbebff">
<path fill="#a6dbeb" opacity="1.00" d=" M 295.27 9.39 C 298.00 9.10 299.98 12.93 297.83 14.83 C 296.48 16.52 293.74 16.07 292.75 14.24 C 291.36 12.38 293.07 9.51 295.27 9.39 Z" />
<path fill="#a6dbeb" opacity="1.00" d=" M 280.32 13.16 C 283.34 11.25 286.98 10.70 290.49 11.22 C 290.82 13.30 290.94 15.91 293.19 16.87 C 295.05 18.07 297.19 17.03 299.12 16.63 C 304.27 23.26 302.23 33.92 294.70 37.81 C 287.60 42.27 277.35 38.45 274.43 30.73 C 271.71 24.47 274.39 16.51 280.32 13.16 M 281.47 16.08 C 282.05 17.69 283.79 17.55 285.16 17.87 C 283.98 19.77 282.86 21.70 281.71 23.61 C 279.25 24.35 276.41 26.03 276.98 29.06 C 277.01 33.51 284.00 34.62 285.64 30.63 C 286.98 28.10 285.22 25.65 283.54 23.86 C 284.43 22.09 285.54 20.45 286.77 18.91 C 287.29 20.40 286.61 22.97 288.76 23.22 C 288.81 20.84 288.80 18.45 288.78 16.06 C 286.34 15.99 283.90 15.96 281.47 16.08 M 291.80 24.94 C 292.14 26.00 292.47 27.05 292.82 28.11 C 292.44 29.12 292.06 30.12 291.69 31.13 C 292.71 30.74 293.74 30.35 294.77 29.96 C 295.41 30.25 296.70 30.84 297.34 31.14 C 297.01 30.12 296.68 29.10 296.36 28.09 C 296.65 27.08 296.94 26.07 297.23 25.07 C 296.30 25.58 295.38 26.10 294.46 26.62 C 293.57 26.06 292.68 25.50 291.80 24.94 Z" />
<path fill="#a6dbeb" opacity="1.00" d=" M 279.32 26.41 C 280.98 24.86 284.10 25.62 284.40 28.01 C 285.21 30.41 282.11 32.44 280.11 31.14 C 278.33 30.25 278.07 27.87 279.32 26.41 Z" />
<path fill="#a6dbeb" opacity="1.00" d=" M 182.20 92.23 C 190.15 89.80 199.02 96.68 198.78 104.95 C 198.96 112.55 191.55 119.23 184.00 118.09 C 177.83 117.35 172.66 111.92 172.41 105.68 C 172.06 99.63 176.31 93.73 182.20 92.23 M 180.89 99.84 C 182.91 99.85 187.81 98.07 186.91 101.82 C 185.29 103.61 182.61 105.82 184.89 108.29 C 185.70 105.09 190.32 102.88 188.61 99.32 C 186.78 96.35 182.73 97.54 180.89 99.84 M 184.11 110.28 C 183.52 111.89 184.06 112.46 185.71 111.98 C 186.30 110.37 185.76 109.81 184.11 110.28 Z" />
</g>
<g id="#fbfdffff">
<path fill="#fbfdff" opacity="1.00" d=" M 290.97 9.55 C 293.15 8.78 295.35 6.84 297.72 8.30 C 300.45 9.42 300.18 12.54 300.29 14.96 C 300.97 17.06 302.24 18.90 303.25 20.85 C 304.38 21.20 305.51 21.57 306.64 21.94 C 305.72 22.68 304.68 23.20 303.51 23.48 C 304.40 30.60 300.12 37.93 293.30 40.31 C 286.68 42.82 278.54 40.42 274.61 34.48 C 272.37 31.56 272.05 27.82 271.36 24.34 C 270.42 24.44 268.55 24.63 267.61 24.72 C 267.94 22.72 270.26 23.10 271.74 22.60 C 273.07 18.48 275.12 14.37 278.94 12.04 C 282.41 9.49 286.84 9.40 290.97 9.55 M 295.27 9.39 C 293.07 9.51 291.36 12.38 292.75 14.24 C 293.74 16.07 296.48 16.52 297.83 14.83 C 299.98 12.93 298.00 9.10 295.27 9.39 M 280.32 13.16 C 274.39 16.51 271.71 24.47 274.43 30.73 C 277.35 38.45 287.60 42.27 294.70 37.81 C 302.23 33.92 304.27 23.26 299.12 16.63 C 297.19 17.03 295.05 18.07 293.19 16.87 C 290.94 15.91 290.82 13.30 290.49 11.22 C 286.98 10.70 283.34 11.25 280.32 13.16 Z" />
<path fill="#fbfdff" opacity="1.00" d=" M 281.47 16.08 C 283.90 15.96 286.34 15.99 288.78 16.06 C 288.80 18.45 288.81 20.84 288.76 23.22 C 286.61 22.97 287.29 20.40 286.77 18.91 C 285.54 20.45 284.43 22.09 283.54 23.86 C 285.22 25.65 286.98 28.10 285.64 30.63 C 284.00 34.62 277.01 33.51 276.98 29.06 C 276.41 26.03 279.25 24.35 281.71 23.61 C 282.86 21.70 283.98 19.77 285.16 17.87 C 283.79 17.55 282.05 17.69 281.47 16.08 M 279.32 26.41 C 278.07 27.87 278.33 30.25 280.11 31.14 C 282.11 32.44 285.21 30.41 284.40 28.01 C 284.10 25.62 280.98 24.86 279.32 26.41 Z" />
<path fill="#fbfdff" opacity="1.00" d=" M 308.71 22.06 C 310.94 22.18 313.95 21.50 315.28 23.85 C 313.04 23.65 310.14 24.30 308.71 22.06 Z" />
<path fill="#fbfdff" opacity="1.00" d=" M 317.09 23.84 C 318.98 22.80 321.03 23.91 322.95 24.23 C 322.86 24.62 322.67 25.38 322.58 25.77 C 320.67 25.36 318.69 25.03 317.09 23.84 Z" />
<path fill="#fbfdff" opacity="1.00" d=" M 258.92 25.33 C 260.93 24.76 262.99 24.33 265.07 24.13 C 264.48 26.34 260.08 27.54 258.92 25.33 Z" />
<path fill="#fbfdff" opacity="1.00" d=" M 291.80 24.94 C 292.68 25.50 293.57 26.06 294.46 26.62 C 295.38 26.10 296.30 25.58 297.23 25.07 C 296.94 26.07 296.65 27.08 296.36 28.09 C 296.68 29.10 297.01 30.12 297.34 31.14 C 296.70 30.84 295.41 30.25 294.77 29.96 C 293.74 30.35 292.71 30.74 291.69 31.13 C 292.06 30.12 292.44 29.12 292.82 28.11 C 292.47 27.05 292.14 26.00 291.80 24.94 Z" />
<path fill="#fbfdff" opacity="1.00" d=" M 325.11 25.79 C 327.12 24.84 329.21 26.01 331.13 26.61 C 331.08 26.97 330.97 27.70 330.92 28.06 C 328.89 27.58 326.80 27.08 325.11 25.79 Z" />
<path fill="#fbfdff" opacity="1.00" d=" M 250.92 28.97 C 251.93 26.53 254.79 26.57 257.01 26.19 C 256.36 28.79 252.96 28.36 250.92 28.97 Z" />
<path fill="#fbfdff" opacity="1.00" d=" M 245.03 30.47 C 245.57 29.22 247.45 28.57 248.63 29.26 C 249.12 30.68 246.87 31.54 245.74 31.30 C 245.57 31.09 245.21 30.67 245.03 30.47 Z" />
<path fill="#fbfdff" opacity="1.00" d=" M 369.46 50.18 C 371.07 49.55 373.51 51.85 372.89 53.48 C 371.40 53.54 369.37 51.70 369.46 50.18 Z" />
<path fill="#fbfdff" opacity="1.00" d=" M 375.50 56.10 C 377.16 55.63 379.24 57.99 378.76 59.62 C 377.23 59.77 375.31 57.60 375.50 56.10 Z" />
<path fill="#fbfdff" opacity="1.00" d=" M 390.90 56.63 C 396.95 56.36 403.02 56.42 409.08 56.52 C 411.03 56.15 410.58 58.67 410.55 59.81 C 410.55 62.23 407.61 62.75 406.76 64.73 C 405.72 66.94 403.81 68.43 401.78 69.66 C 402.55 70.46 403.33 71.26 404.11 72.06 C 401.83 72.20 399.56 72.24 397.29 72.10 C 398.09 71.04 399.07 70.15 400.16 69.38 C 395.94 68.61 395.23 64.01 391.98 61.94 C 390.46 60.66 391.20 58.35 390.90 56.63 M 393.15 58.09 C 391.46 58.53 392.36 61.32 393.92 61.14 C 395.54 60.65 394.83 57.75 393.15 58.09 M 396.03 58.25 C 395.84 61.62 395.66 66.72 400.03 67.43 C 404.87 68.29 406.81 61.62 404.90 58.35 C 401.95 58.09 398.98 58.27 396.03 58.25 M 407.32 58.26 C 406.46 59.14 406.27 61.47 407.78 61.74 C 409.75 61.42 409.57 56.94 407.32 58.26 Z" />
<path fill="#fbfdff" opacity="1.00" d=" M 207.30 64.89 C 208.23 63.06 209.34 61.32 210.80 59.88 C 211.14 62.14 209.69 63.96 208.59 65.77 C 208.27 65.55 207.62 65.11 207.30 64.89 Z" />
<path fill="#fbfdff" opacity="1.00" d=" M 363.86 61.62 C 364.59 60.86 365.33 60.10 366.08 59.34 C 366.82 60.07 367.56 60.81 368.30 61.54 C 369.23 61.39 370.16 61.24 371.10 61.10 C 371.30 62.25 371.29 63.41 371.26 64.58 C 373.36 65.30 373.81 68.13 371.19 68.46 C 371.27 69.65 371.31 70.85 371.19 72.05 C 370.23 71.91 369.27 71.78 368.32 71.65 C 367.54 72.30 367.05 73.46 365.99 73.67 C 365.12 73.13 364.50 72.30 363.78 71.61 C 362.82 71.72 361.86 71.83 360.90 71.95 C 360.79 70.78 360.76 69.61 360.75 68.45 C 358.32 67.92 358.74 65.47 360.66 64.62 C 360.78 63.48 360.90 62.34 361.03 61.21 C 361.97 61.34 362.91 61.48 363.86 61.62 M 364.34 65.32 C 362.91 67.50 366.35 70.15 367.69 67.71 C 369.17 65.57 365.98 63.60 364.34 65.32 Z" />
<path fill="#fbfdff" opacity="1.00" d=" M 380.09 61.93 C 382.60 61.67 384.15 64.47 384.32 66.64 C 382.31 65.69 381.17 63.76 380.09 61.93 Z" />
<path fill="#fbfdff" opacity="1.00" d=" M 203.84 73.40 C 204.45 71.29 204.51 68.20 207.20 67.65 C 206.52 69.74 206.26 72.55 203.84 73.40 Z" />
<path fill="#fbfdff" opacity="1.00" d=" M 386.02 67.90 C 387.42 69.52 388.62 71.31 389.29 73.36 C 387.16 72.89 384.66 70.08 386.02 67.90 Z" />
<path fill="#fbfdff" opacity="1.00" d=" M 394.13 72.65 C 398.44 72.50 402.76 72.64 407.07 72.59 L 407.65 73.97 C 403.00 74.03 398.34 74.03 393.69 73.97 L 394.13 72.65 Z" />
<path fill="#fbfdff" opacity="1.00" d=" M 390.10 74.87 C 391.73 76.56 393.31 78.62 392.88 81.13 C 391.33 79.39 389.67 77.38 390.10 74.87 Z" />
<path fill="#fbfdff" opacity="1.00" d=" M 201.98 81.58 C 202.36 79.57 201.38 76.21 204.07 75.48 C 203.70 77.58 204.21 80.35 201.98 81.58 Z" />
<path fill="#fbfdff" opacity="1.00" d=" M 393.63 82.61 C 395.89 83.51 396.26 86.09 397.08 88.07 C 394.23 88.07 394.27 84.60 393.63 82.61 Z" />
<path fill="#fbfdff" opacity="1.00" d=" M 202.24 90.15 C 201.88 88.12 199.96 84.47 202.95 83.70 C 202.86 85.83 203.52 88.26 202.24 90.15 Z" />
<path fill="#fbfdff" opacity="1.00" d=" M 182.44 90.50 C 190.90 88.40 200.19 95.25 200.28 104.05 C 201.22 112.54 193.36 120.45 184.90 119.78 C 177.94 119.60 171.71 113.92 170.93 107.00 C 169.72 99.60 175.04 91.88 182.44 90.50 M 182.20 92.23 C 176.31 93.73 172.06 99.63 172.41 105.68 C 172.66 111.92 177.83 117.35 184.00 118.09 C 191.55 119.23 198.96 112.55 198.78 104.95 C 199.02 96.68 190.15 89.80 182.20 92.23 Z" />
<path fill="#fbfdff" opacity="1.00" d=" M 397.66 93.99 C 396.63 93.18 396.23 90.74 397.71 90.25 C 399.01 90.71 399.74 92.68 398.95 93.85 C 398.63 93.89 397.98 93.95 397.66 93.99 Z" />
<path fill="#fbfdff" opacity="1.00" d=" M 202.17 92.01 C 204.68 92.55 204.01 95.92 204.74 97.85 C 201.93 97.88 202.73 93.91 202.17 92.01 Z" />
<path fill="#fbfdff" opacity="1.00" d=" M 180.89 99.84 C 182.73 97.54 186.78 96.35 188.61 99.32 C 190.32 102.88 185.70 105.09 184.89 108.29 C 182.61 105.82 185.29 103.61 186.91 101.82 C 187.81 98.07 182.91 99.85 180.89 99.84 Z" />
<path fill="#fbfdff" opacity="1.00" d=" M 204.29 100.24 C 206.81 100.32 206.85 103.57 207.91 105.27 C 205.09 105.72 205.05 102.14 204.29 100.24 Z" />
<path fill="#fbfdff" opacity="1.00" d=" M 211.33 109.57 C 216.20 107.08 221.65 107.40 226.94 107.40 C 226.86 112.21 226.82 117.02 226.98 121.82 C 226.03 121.17 225.03 120.63 223.97 120.20 C 224.17 120.99 224.56 122.57 224.76 123.36 C 222.67 122.66 220.76 121.55 218.96 120.29 C 217.60 121.08 216.26 121.88 214.91 122.69 C 211.37 120.00 207.82 117.32 204.27 114.65 C 205.76 113.36 207.29 112.11 208.87 110.91 C 208.68 109.83 208.49 108.74 208.30 107.67 C 209.31 108.30 210.32 108.93 211.33 109.57 Z" />
<path fill="#fbfdff" opacity="1.00" d=" M 386.95 110.21 C 387.71 109.78 389.21 108.91 389.97 108.47 C 394.11 110.68 398.33 112.73 402.63 114.63 C 403.05 114.43 403.90 114.04 404.32 113.85 C 404.86 114.10 405.92 114.61 406.45 114.86 C 405.82 115.12 404.57 115.64 403.94 115.90 C 403.21 115.88 401.76 115.84 401.04 115.82 C 396.35 113.92 391.66 112.05 386.95 110.21 Z" />
<path fill="#fbfdff" opacity="1.00" d=" M 407.92 112.08 C 410.46 110.75 413.04 109.45 415.82 108.67 C 416.36 109.04 417.45 109.78 418.00 110.15 C 415.15 111.45 412.26 112.74 409.18 113.36 L 407.92 112.08 Z" />
<path fill="#fbfdff" opacity="1.00" d=" M 184.11 110.28 C 185.76 109.81 186.30 110.37 185.71 111.98 C 184.06 112.46 183.52 111.89 184.11 110.28 Z" />
<path fill="#fbfdff" opacity="1.00" d=" M 197.47 133.57 C 197.33 128.16 198.19 122.44 201.51 118.02 C 204.95 120.75 208.48 123.36 211.94 126.07 L 212.20 126.95 C 211.81 128.32 211.43 129.69 211.07 131.07 C 206.59 132.18 202.04 133.02 197.47 133.57 Z" />
<path fill="#fbfdff" opacity="1.00" d=" M 362.28 119.29 C 365.06 119.07 367.86 119.09 370.63 119.37 C 370.74 119.75 370.97 120.51 371.08 120.89 C 367.96 121.03 364.85 121.06 361.73 120.97 C 361.87 120.55 362.15 119.71 362.28 119.29 Z" />
<path fill="#fbfdff" opacity="1.00" d=" M 362.43 122.51 C 365.25 122.30 368.09 122.49 370.92 122.48 C 370.84 122.82 370.68 123.52 370.60 123.87 C 367.75 124.76 364.64 124.12 361.69 124.14 C 361.87 123.73 362.24 122.92 362.43 122.51 Z" />
<path fill="#fbfdff" opacity="1.00" d=" M 235.00 126.16 C 237.15 126.49 239.75 126.16 241.32 128.02 C 239.28 127.93 235.62 128.85 235.00 126.16 Z" />
<path fill="#fbfdff" opacity="1.00" d=" M 243.09 127.45 C 245.04 127.29 247.00 127.24 248.95 127.23 C 248.94 127.62 248.92 128.38 248.90 128.77 C 246.96 128.47 244.16 129.66 243.09 127.45 Z" />
<path fill="#fbfdff" opacity="1.00" d=" M 402.50 147.83 C 404.44 149.56 402.95 152.15 402.64 154.24 C 400.44 152.66 402.27 149.90 402.50 147.83 Z" />
<path fill="#fbfdff" opacity="1.00" d=" M 399.61 162.29 C 399.66 159.97 400.10 157.60 401.72 155.84 C 401.75 158.00 402.14 161.40 399.61 162.29 Z" />
<path fill="#fbfdff" opacity="1.00" d=" M 227.00 159.50 C 270.75 159.50 314.49 159.50 358.24 159.50 C 357.90 163.41 359.20 167.79 357.38 171.38 C 354.54 172.90 351.11 172.07 348.02 172.27 C 325.66 172.44 303.30 171.91 280.94 172.00 C 264.98 172.52 249.01 172.12 233.04 172.29 C 230.95 172.27 227.97 172.45 227.18 169.98 C 226.75 166.50 227.06 162.99 227.00 159.50 Z" />
<path fill="#fbfdff" opacity="1.00" d=" M 396.96 170.33 C 397.08 168.11 397.74 165.98 399.07 164.18 C 400.49 166.24 398.79 169.09 396.96 170.33 Z" />
<path fill="#fbfdff" opacity="1.00" d=" M 394.08 178.09 C 392.97 175.88 394.76 172.86 396.88 171.95 C 396.61 174.25 395.50 176.30 394.08 178.09 Z" />
<path fill="#fbfdff" opacity="1.00" d=" M 389.08 184.90 C 389.93 182.84 390.68 180.09 393.25 179.64 C 392.39 181.63 391.69 184.67 389.08 184.90 Z" />
<path fill="#fbfdff" opacity="1.00" d=" M 270.46 182.59 C 285.18 182.65 299.91 182.72 314.62 182.56 C 316.25 182.67 316.47 184.54 316.98 185.73 C 300.86 186.35 284.70 185.85 268.57 185.99 C 269.01 184.88 268.76 182.57 270.46 182.59 Z" />
<path fill="#fbfdff" opacity="1.00" d=" M 350.81 187.86 C 353.15 187.68 355.89 188.30 357.65 186.35 C 359.24 188.79 362.55 187.31 364.95 187.79 C 366.90 187.60 369.43 189.71 368.88 191.72 C 366.80 195.86 361.52 193.71 357.86 194.40 C 359.48 196.70 363.10 194.95 365.50 195.54 C 365.54 197.68 365.50 199.83 365.38 201.97 C 362.99 201.79 360.59 201.78 358.20 201.99 C 358.22 203.93 358.24 205.87 358.25 207.81 C 359.64 207.50 361.02 207.19 362.42 206.92 C 361.72 209.31 358.96 209.25 357.03 209.98 C 356.77 207.32 356.68 204.64 356.74 201.97 C 354.26 201.82 351.78 201.72 349.30 201.69 C 348.24 200.38 346.10 198.73 348.05 197.14 C 349.90 193.54 355.16 197.26 357.11 194.43 C 355.00 194.29 352.89 194.21 350.79 194.13 C 350.76 192.04 350.76 189.95 350.81 187.86 M 352.27 189.25 C 352.26 190.40 352.25 191.55 352.25 192.70 C 356.75 192.68 361.27 192.95 365.77 192.63 C 367.03 192.22 367.27 190.55 366.28 189.74 C 361.63 189.31 356.93 189.40 352.27 189.25 M 349.96 197.05 C 349.56 198.05 348.80 199.21 350.07 199.95 C 354.67 200.57 359.35 200.08 363.99 200.18 C 363.99 199.39 363.99 197.81 363.99 197.02 C 359.31 196.98 354.64 196.98 349.96 197.05 Z" />
<path fill="#fbfdff" opacity="1.00" d=" M 387.39 187.16 C 389.10 188.16 386.17 191.56 384.56 190.86 C 384.47 189.32 386.08 187.81 387.39 187.16 Z" />
<path fill="#fbfdff" opacity="1.00" d=" M 378.54 197.46 C 379.03 195.21 380.82 193.52 383.03 193.00 C 382.54 195.27 380.65 196.75 378.54 197.46 Z" />
<path fill="#fbfdff" opacity="1.00" d=" M 289.50 199.70 C 296.22 197.05 304.52 201.87 305.38 209.08 C 306.84 216.23 300.21 223.54 292.97 222.78 C 285.61 222.99 279.96 214.86 281.99 207.96 C 282.79 204.09 285.81 200.98 289.50 199.70 Z" />
<path fill="#fbfdff" opacity="1.00" d=" M 372.02 202.92 C 371.79 200.69 374.74 198.48 376.64 199.04 C 376.59 201.00 373.46 201.71 372.02 202.92 Z" />
<path fill="#fbfdff" opacity="1.00" d=" M 364.90 206.92 C 364.81 204.19 368.05 203.75 370.06 203.11 C 369.46 205.49 366.79 205.95 364.90 206.92 Z" />
<path fill="#fbfdff" opacity="1.00" d=" M 348.76 211.95 C 349.16 209.45 352.23 210.00 354.08 209.34 C 354.41 212.12 350.50 211.29 348.76 211.95 Z" />
<path fill="#fbfdff" opacity="1.00" d=" M 339.86 212.68 C 341.59 210.98 344.10 211.15 346.34 211.02 C 345.56 213.92 342.01 212.48 339.86 212.68 Z" />
</g>
<g id="#1ab1bfff">
<path fill="#1ab1bf" opacity="1.00" d=" M 221.79 23.77 C 229.97 21.00 239.53 23.86 245.03 30.47 C 245.21 30.67 245.57 31.09 245.74 31.30 C 249.24 36.12 250.61 42.29 249.70 48.16 C 247.68 46.00 245.74 43.74 243.48 41.81 C 239.10 40.07 234.71 38.34 230.30 36.69 C 227.99 35.72 225.55 36.62 223.37 37.47 C 219.49 39.05 215.51 40.37 211.78 42.28 C 212.35 42.52 213.48 42.99 214.05 43.23 C 219.74 51.46 228.07 57.42 234.48 65.06 C 228.72 66.48 222.35 65.94 217.24 62.76 C 210.81 58.94 206.60 51.54 206.94 44.02 C 206.75 34.97 213.15 26.38 221.79 23.77 Z" />
<path fill="#1ab1bf" opacity="1.00" d=" M 401.04 115.82 C 401.76 115.84 403.21 115.88 403.94 115.90 C 404.42 122.63 404.25 129.40 404.12 136.15 C 403.31 136.14 401.70 136.12 400.90 136.11 C 400.76 129.35 400.54 122.57 401.04 115.82 Z" />
<path fill="#1ab1bf" opacity="1.00" d=" M 198.46 137.81 C 202.90 136.89 207.37 136.10 211.82 135.22 C 214.43 140.87 221.27 143.53 226.99 140.99 C 226.99 145.72 227.00 150.46 227.00 155.20 C 214.85 157.99 201.42 149.99 198.46 137.81 Z" />
<path fill="#1ab1bf" opacity="1.00" d=" M 315.87 210.86 C 321.56 210.46 327.28 210.48 332.98 210.65 C 334.67 210.49 336.05 211.48 337.25 212.53 L 337.65 213.95 L 336.37 213.96 C 329.58 213.93 322.78 214.20 316.00 213.87 C 315.96 213.12 315.90 211.61 315.87 210.86 Z" />
</g>
<g id="#f26229ff">
<path fill="#f26229" opacity="1.00" d=" M 331.45 24.45 C 343.41 22.78 355.59 22.84 367.56 24.39 C 368.41 28.86 368.98 33.39 369.07 37.95 C 365.36 37.93 361.63 37.85 357.96 38.42 L 357.41 38.02 C 353.66 35.08 349.61 32.50 345.30 30.47 C 345.25 32.98 345.24 35.50 345.23 38.01 C 340.14 38.03 335.05 38.01 329.96 37.95 C 330.20 34.65 330.38 31.33 330.92 28.06 C 330.97 27.70 331.08 26.97 331.13 26.61 C 331.21 26.07 331.37 24.99 331.45 24.45 Z" />
</g>
<g id="#0f3955ff">
<path fill="#0f3955" opacity="1.00" d=" M 223.37 37.47 C 225.55 36.62 227.99 35.72 230.30 36.69 C 234.71 38.34 239.10 40.07 243.48 41.81 C 241.85 43.13 239.93 44.00 237.99 44.75 C 237.87 44.42 237.63 43.76 237.52 43.44 C 234.79 42.15 231.89 41.17 228.87 40.99 C 231.42 42.44 234.20 43.42 236.98 44.34 C 236.95 44.66 236.89 45.31 236.86 45.63 C 236.45 50.02 231.80 51.81 228.03 52.32 C 225.48 51.71 223.19 50.41 220.90 49.20 C 220.31 47.83 219.91 46.33 219.00 45.13 C 217.40 44.36 215.70 43.85 214.05 43.23 C 213.48 42.99 212.35 42.52 211.78 42.28 C 215.51 40.37 219.49 39.05 223.37 37.47 Z" />
<path fill="#0f3955" opacity="1.00" d=" M 227.05 79.88 C 226.92 77.75 229.11 76.47 231.04 76.76 C 272.04 76.72 313.04 76.77 354.05 76.73 C 355.97 76.43 358.50 77.66 358.23 79.91 C 358.27 106.44 358.25 132.97 358.24 159.50 C 314.49 159.50 270.75 159.50 227.00 159.50 C 227.00 158.06 227.00 156.63 227.00 155.20 C 227.00 150.46 226.99 145.72 226.99 140.99 C 226.99 135.58 227.01 130.18 226.99 124.78 C 228.75 125.64 230.60 126.29 232.48 126.82 C 232.53 135.95 232.49 145.07 232.51 154.19 C 272.67 154.30 312.83 154.22 352.99 154.24 C 353.01 130.06 352.99 105.88 353.00 81.71 L 352.35 81.79 C 312.43 81.67 272.52 81.87 232.60 81.69 C 232.36 96.14 232.60 110.60 232.49 125.06 C 230.71 124.40 228.89 123.86 227.02 123.59 L 226.98 121.82 C 226.82 117.02 226.86 112.21 226.94 107.40 C 227.11 98.23 226.88 89.05 227.05 79.88 Z" />
<path fill="#0f3955" opacity="1.00" d=" M 404.32 113.85 C 405.52 113.27 406.73 112.68 407.92 112.08 L 409.18 113.36 C 409.37 113.58 409.76 114.03 409.95 114.25 C 410.08 116.87 410.03 119.49 410.01 122.12 C 408.78 122.60 407.57 123.08 406.35 123.57 C 406.41 120.67 406.50 117.76 406.45 114.86 C 405.92 114.61 404.86 114.10 404.32 113.85 Z" />
<path fill="#0f3955" opacity="1.00" d=" M 283.95 197.98 C 290.19 193.30 299.82 194.08 305.18 199.78 C 307.69 202.30 308.90 205.73 309.78 209.11 C 310.67 209.02 312.45 208.84 313.34 208.75 C 313.67 209.29 314.33 210.36 314.66 210.90 C 314.39 211.56 313.84 212.87 313.57 213.53 C 312.26 213.43 310.95 213.33 309.64 213.25 C 308.69 219.05 304.70 224.35 299.05 226.25 C 292.30 228.81 283.98 226.20 280.07 220.09 C 275.35 213.25 277.00 202.72 283.95 197.98 M 289.50 199.70 C 285.81 200.98 282.79 204.09 281.99 207.96 C 279.96 214.86 285.61 222.99 292.97 222.78 C 300.21 223.54 306.84 216.23 305.38 209.08 C 304.52 201.87 296.22 197.05 289.50 199.70 Z" />
</g>
<g id="#de4226ff">
<path fill="#de4226" opacity="1.00" d=" M 329.96 37.95 C 335.05 38.01 340.14 38.03 345.23 38.01 C 345.23 40.74 345.27 43.46 345.37 46.18 C 349.79 43.98 353.84 41.12 357.96 38.42 C 361.63 37.85 365.36 37.93 369.07 37.95 C 368.78 42.68 368.94 47.71 367.20 52.14 C 355.44 53.83 343.42 53.61 331.64 52.20 C 330.53 47.53 330.19 42.74 329.96 37.95 Z" />
</g>
<g id="#fec013ff">
<path fill="#fec013" opacity="1.00" d=" M 228.87 40.99 C 231.89 41.17 234.79 42.15 237.52 43.44 C 237.63 43.76 237.87 44.42 237.99 44.75 C 238.55 47.60 238.90 50.48 239.40 53.34 C 238.54 53.32 236.81 53.28 235.95 53.26 C 236.41 50.74 236.69 48.19 236.86 45.63 C 236.89 45.31 236.95 44.66 236.98 44.34 C 234.20 43.42 231.42 42.44 228.87 40.99 Z" />
<path fill="#fec013" opacity="1.00" d=" M 232.49 125.06 C 232.60 110.60 232.36 96.14 232.60 81.69 C 272.52 81.87 312.43 81.67 352.35 81.79 C 345.82 86.21 338.95 90.08 332.21 94.14 C 301.16 112.77 270.12 131.42 238.97 149.88 C 236.74 151.20 234.60 152.67 232.51 154.19 C 232.49 145.07 232.53 135.95 232.48 126.82 C 232.48 126.23 232.48 125.64 232.49 125.06 M 235.00 126.16 C 235.62 128.85 239.28 127.93 241.32 128.02 C 239.75 126.16 237.15 126.49 235.00 126.16 M 243.09 127.45 C 244.16 129.66 246.96 128.47 248.90 128.77 C 248.92 128.38 248.94 127.62 248.95 127.23 C 247.00 127.24 245.04 127.29 243.09 127.45 Z" />
<path fill="#fec013" opacity="1.00" d=" M 381.11 104.03 C 385.12 98.75 391.21 95.32 397.66 93.99 C 397.98 93.95 398.63 93.89 398.95 93.85 C 406.14 93.08 413.66 95.06 419.27 99.69 C 425.55 104.66 429.08 112.52 429.30 120.47 C 425.54 117.40 422.38 113.67 418.61 110.62 C 418.46 110.50 418.15 110.27 418.00 110.15 C 417.45 109.78 416.36 109.04 415.82 108.67 C 413.04 109.45 410.46 110.75 407.92 112.08 C 406.73 112.68 405.52 113.27 404.32 113.85 C 403.90 114.04 403.05 114.43 402.63 114.63 C 398.33 112.73 394.11 110.68 389.97 108.47 C 389.21 108.91 387.71 109.78 386.95 110.21 L 386.53 110.50 C 386.42 117.13 386.56 123.77 386.48 130.40 C 387.23 130.72 387.99 131.04 388.76 131.35 C 392.51 137.67 398.98 141.68 403.34 147.54 C 393.83 147.73 384.24 142.90 379.39 134.62 C 373.59 125.37 374.27 112.56 381.11 104.03 Z" />
</g>
<g id="#2096a5ff">
<path fill="#2096a5" opacity="1.00" d=" M 386.53 110.50 L 386.95 110.21 C 391.66 112.05 396.35 113.92 401.04 115.82 C 400.54 122.57 400.76 129.35 400.90 136.11 C 396.86 134.49 392.83 132.86 388.76 131.35 C 387.99 131.04 387.23 130.72 386.48 130.40 C 386.56 123.77 386.42 117.13 386.53 110.50 Z" />
<path fill="#2096a5" opacity="1.00" d=" M 418.00 110.15 C 418.15 110.27 418.46 110.50 418.61 110.62 C 418.37 117.24 418.58 123.86 418.47 130.48 C 413.66 132.31 408.89 134.22 404.12 136.15 C 404.25 129.40 404.42 122.63 403.94 115.90 C 404.57 115.64 405.82 115.12 406.45 114.86 C 406.50 117.76 406.41 120.67 406.35 123.57 C 407.57 123.08 408.78 122.60 410.01 122.12 C 410.03 119.49 410.08 116.87 409.95 114.25 C 409.76 114.03 409.37 113.58 409.18 113.36 C 412.26 112.74 415.15 111.45 418.00 110.15 Z" />
<path fill="#2096a5" opacity="1.00" d=" M 312.84 207.94 C 315.98 206.30 319.64 207.20 323.03 207.00 C 327.04 207.09 331.06 206.80 335.06 207.11 C 337.70 207.73 338.31 210.78 337.95 213.09 L 337.25 212.53 C 336.05 211.48 334.67 210.49 332.98 210.65 C 327.28 210.48 321.56 210.46 315.87 210.86 C 315.90 211.61 315.96 213.12 316.00 213.87 C 322.78 214.20 329.58 213.93 336.37 213.96 L 336.38 215.07 C 328.62 215.16 320.77 215.76 313.06 214.72 C 313.19 214.42 313.44 213.83 313.57 213.53 C 313.84 212.87 314.39 211.56 314.66 210.90 C 314.33 210.36 313.67 209.29 313.34 208.75 L 312.84 207.94 Z" />
</g>
<g id="#f89b20ff">
<path fill="#f89b20" opacity="1.00" d=" M 352.35 81.79 L 353.00 81.71 C 352.99 105.88 353.01 130.06 352.99 154.24 C 312.83 154.22 272.67 154.30 232.51 154.19 C 234.60 152.67 236.74 151.20 238.97 149.88 C 270.12 131.42 301.16 112.77 332.21 94.14 C 338.95 90.08 345.82 86.21 352.35 81.79 Z" />
<path fill="#f89b20" opacity="1.00" d=" M 418.61 110.62 C 422.38 113.67 425.54 117.40 429.30 120.47 C 429.10 127.47 426.50 134.47 421.47 139.43 C 416.75 144.37 410.08 147.05 403.34 147.54 C 398.98 141.68 392.51 137.67 388.76 131.35 C 392.83 132.86 396.86 134.49 400.90 136.11 C 401.70 136.12 403.31 136.14 404.12 136.15 C 408.89 134.22 413.66 132.31 418.47 130.48 C 418.58 123.86 418.37 117.24 418.61 110.62 Z" />
</g>
</svg>
