<?xml version="1.0" encoding="UTF-8" ?>
<!DOCTYPE svg PUBLIC "-//W3C//DTD SVG 1.1//EN" "http://www.w3.org/Graphics/SVG/1.1/DTD/svg11.dtd">
<svg width="500pt" height="282pt" viewBox="0 0 500 282" version="1.1" xmlns="http://www.w3.org/2000/svg">
<g id="#fefefeff">
</g>
<g id="#2c2d31ff">
<path fill="#2c2d31" opacity="1.00" d=" M 202.75 12.24 C 239.13 11.03 275.08 11.07 311.28 12.67 C 317.56 21.79 308.46 38.22 315.02 46.13 C 311.43 48.14 311.08 71.99 315.66 63.01 C 317.66 71.24 315.81 56.31 318.53 63.43 C 335.66 55.28 356.33 51.13 375.83 50.02 C 378.58 55.19 379.46 50.45 382.77 50.04 C 384.59 58.28 383.84 66.82 383.91 75.19 C 386.26 69.47 377.49 68.46 378.66 73.80 C 374.68 75.45 377.79 68.53 376.88 66.25 C 356.24 65.87 334.11 66.77 316.23 78.44 C 311.56 83.51 314.11 71.23 311.34 76.83 C 304.26 81.66 295.93 84.26 288.83 89.06 C 270.89 88.32 253.11 89.25 235.16 88.94 C 218.79 91.04 203.49 86.14 191.04 76.00 C 189.44 71.52 189.84 69.98 192.63 74.61 C 208.04 78.25 224.07 80.95 239.96 82.08 C 261.49 84.03 282.48 79.42 303.46 75.43 C 299.96 76.31 292.51 74.64 299.18 73.47 C 273.17 70.67 246.13 71.78 219.73 71.03 C 234.39 68.87 249.27 70.47 264.04 70.00 C 274.42 69.95 284.82 70.15 295.21 70.00 C 294.03 65.66 284.97 66.99 292.73 65.74 C 290.13 64.90 288.18 64.59 291.95 61.15 C 284.58 59.88 290.22 50.80 289.13 46.06 C 277.82 48.28 265.42 44.24 253.75 46.25 C 242.44 45.83 231.13 46.09 219.83 45.88 C 223.70 44.33 228.41 45.30 232.64 44.78 C 243.72 44.41 256.13 47.39 266.20 41.36 C 259.52 40.79 266.67 39.19 269.33 38.27 C 258.18 39.26 264.77 37.54 267.11 36.42 C 261.65 33.88 254.83 36.65 249.66 34.15 C 257.98 32.11 273.32 36.40 278.76 31.35 C 270.21 29.99 276.74 29.35 276.61 23.36 C 258.41 23.99 240.40 20.24 222.23 21.25 C 217.62 23.63 220.34 14.25 225.00 19.02 C 235.15 16.88 247.19 21.59 256.36 16.15 C 234.96 14.40 211.89 18.54 191.24 14.75 C 206.99 12.10 230.91 16.10 248.21 13.05 C 233.06 12.51 217.85 13.89 202.75 12.24 Z" />
</g>
<g id="#6d6d73ff">
<path fill="#6d6d73" opacity="1.00" d=" M 187.17 14.37 C 190.55 9.33 197.88 13.10 202.75 12.24 C 217.85 13.89 233.06 12.51 248.21 13.05 C 230.91 16.10 206.99 12.10 191.24 14.75 C 211.89 18.54 234.96 14.40 256.36 16.15 C 247.19 21.59 235.15 16.88 225.00 19.02 C 220.34 14.25 217.62 23.63 222.23 21.25 C 224.48 30.68 232.82 18.36 241.90 22.89 C 238.24 25.17 242.41 27.07 244.15 29.01 C 241.62 30.08 240.05 31.29 243.02 33.11 C 236.79 33.69 230.49 33.38 224.30 34.22 C 227.10 38.11 247.29 30.25 243.47 41.24 C 240.54 43.30 235.66 42.17 232.64 44.78 C 228.41 45.30 223.70 44.33 219.83 45.88 C 219.56 54.00 219.10 63.40 219.73 71.03 C 228.13 72.93 236.83 71.58 245.35 72.13 C 243.96 74.75 241.08 73.17 238.83 73.06 C 242.61 75.34 244.09 79.14 239.96 82.08 C 224.07 80.95 208.04 78.25 192.63 74.61 C 189.84 69.98 189.44 71.52 191.04 76.00 C 203.49 86.14 218.79 91.04 235.16 88.94 C 236.75 92.71 229.27 93.62 234.61 94.65 C 234.55 101.38 239.41 111.81 233.72 115.81 C 231.77 120.17 234.83 118.99 236.19 115.85 C 234.13 120.19 235.72 128.63 229.77 128.40 C 231.80 129.97 239.17 132.32 229.36 131.13 C 231.47 135.21 223.88 135.20 227.47 131.49 C 230.80 126.75 220.47 126.85 226.55 130.42 C 224.30 130.73 217.02 137.02 215.18 129.99 C 213.73 138.96 215.51 127.90 213.07 126.05 C 214.95 136.15 211.32 128.78 209.63 126.71 C 210.05 119.22 209.99 111.73 209.71 104.24 C 216.19 89.53 201.18 85.09 191.13 80.86 C 190.34 87.25 191.82 94.34 189.20 100.42 C 188.23 92.56 190.31 84.35 188.17 76.65 C 189.30 72.56 184.40 75.37 188.17 76.65 C 186.35 88.13 188.63 100.06 188.29 111.68 C 188.13 117.37 188.05 123.06 188.05 128.76 C 183.49 128.62 180.30 133.06 178.25 136.64 C 173.52 137.30 168.87 136.02 164.15 135.94 C 164.20 138.40 183.67 138.26 174.78 140.45 C 177.56 141.72 188.48 143.34 177.09 143.04 C 170.05 141.73 166.74 149.38 160.50 150.58 C 149.53 151.33 138.63 149.29 127.70 149.05 C 135.68 153.05 145.87 150.49 154.45 153.50 C 153.18 152.15 138.70 156.20 151.95 155.12 C 158.10 155.83 164.59 155.73 170.42 157.83 C 156.12 158.85 141.73 155.63 127.55 156.35 C 125.89 161.04 126.40 154.66 121.93 157.87 C 119.81 153.39 121.37 145.08 121.02 138.87 C 122.99 144.07 123.70 134.42 124.05 140.67 C 132.37 138.75 142.03 141.90 150.81 142.09 C 136.45 136.94 167.34 143.15 168.57 140.43 C 156.35 134.43 140.97 135.19 129.07 130.89 C 142.92 127.78 164.68 143.09 176.86 127.90 C 185.36 126.29 175.18 119.36 170.25 121.30 C 156.69 117.16 141.31 117.25 128.61 112.06 C 146.12 114.40 163.40 118.36 180.86 121.15 C 177.20 116.61 185.75 111.70 185.01 105.97 C 189.21 99.97 182.44 97.64 186.92 94.12 C 182.80 93.18 185.30 83.12 182.54 93.69 C 174.40 97.46 161.90 91.10 164.13 79.98 C 164.15 79.29 164.19 77.90 164.21 77.21 C 164.64 73.36 163.84 69.40 164.64 65.60 C 170.38 66.73 172.04 71.37 170.40 76.89 C 175.16 78.75 183.09 87.20 182.98 77.02 C 188.44 76.26 188.85 61.68 187.68 54.88 C 187.92 52.80 188.15 50.59 186.23 49.23 C 187.79 37.67 186.50 25.98 187.17 14.37 M 192.10 21.05 C 192.67 24.54 189.25 37.58 194.17 32.08 C 202.74 32.60 211.53 31.44 219.14 30.70 C 224.34 13.03 201.33 23.76 192.10 21.05 M 220.01 29.01 C 220.01 32.75 220.01 40.25 220.01 43.99 C 221.78 41.95 221.78 31.05 220.01 29.01 M 191.99 38.29 C 187.81 51.28 204.69 42.27 211.82 45.09 C 212.09 34.23 198.57 40.70 191.99 38.29 Z" />
</g>
<g id="#28282bff">
<path fill="#28282b" opacity="1.00" d=" M 18.34 30.32 C 49.65 26.97 80.54 23.31 111.90 21.11 C 137.20 28.91 161.29 40.30 186.23 49.23 C 188.15 50.59 187.92 52.80 187.68 54.88 C 192.44 68.75 179.43 58.33 180.04 55.97 C 163.23 47.17 143.15 48.68 124.83 49.73 C 119.60 49.34 121.19 55.17 120.91 58.80 C 120.86 62.27 120.88 65.75 120.89 69.23 C 119.90 65.86 120.39 61.56 118.02 58.70 C 111.57 62.64 116.49 72.13 115.10 78.23 C 114.90 95.82 115.01 113.40 115.05 130.99 C 114.49 130.75 113.36 130.26 112.80 130.02 C 114.88 149.57 111.50 169.33 112.88 188.91 C 106.58 182.16 103.87 200.33 98.15 194.34 C 103.76 195.32 103.72 186.17 98.05 187.84 C 103.60 186.91 103.00 180.73 98.01 180.37 C 110.76 178.53 83.17 180.02 98.97 178.01 C 110.51 176.95 83.81 169.43 98.95 171.05 C 105.94 170.29 98.86 168.15 96.74 166.15 C 87.96 163.18 104.33 166.59 101.91 161.24 C 87.35 164.79 108.54 155.28 94.16 158.80 C 92.29 153.58 104.27 160.37 101.91 154.25 C 87.48 157.89 109.06 147.64 93.67 151.69 C 95.12 147.87 103.27 153.71 101.88 149.26 C 100.15 147.05 87.32 143.07 98.95 144.04 C 110.73 142.76 83.52 136.64 98.98 137.01 C 110.88 136.01 82.88 129.48 98.96 130.03 C 105.94 129.30 98.85 127.15 96.74 125.15 C 89.78 123.51 98.60 122.71 102.02 122.88 C 100.31 120.04 95.58 119.16 93.93 116.20 C 97.43 116.14 101.18 116.26 104.35 114.50 C 101.31 114.11 95.20 113.32 94.26 109.52 C 99.42 108.52 106.46 111.97 110.51 108.30 C 112.34 102.49 112.86 92.39 109.54 87.73 C 103.76 86.89 98.60 93.18 93.29 95.27 C 91.23 100.71 93.10 106.71 91.90 112.33 C 87.94 107.71 91.17 100.52 89.87 95.03 C 82.37 95.93 69.12 92.22 70.40 103.41 C 70.25 101.57 69.94 97.87 69.79 96.02 C 56.85 96.38 43.64 97.35 30.89 98.91 C 29.02 107.89 30.09 118.78 30.16 128.60 C 30.59 142.43 28.72 156.51 30.67 170.24 C 31.33 177.32 41.67 174.44 43.10 180.82 C 45.84 177.09 44.54 183.03 46.67 184.42 C 48.09 170.91 48.36 157.33 47.78 143.77 C 48.31 131.22 47.68 118.65 48.10 106.11 C 55.76 105.96 63.45 106.11 71.03 104.89 C 65.94 108.03 71.21 107.03 70.90 110.76 C 64.29 114.36 54.49 108.52 48.60 113.80 C 55.74 114.22 65.00 111.01 71.14 113.76 C 57.83 115.79 73.00 112.27 70.80 117.60 C 71.54 122.96 64.76 119.78 61.57 121.68 C 63.60 123.66 72.63 119.28 70.99 124.88 C 63.58 125.45 55.75 124.30 48.57 126.70 C 55.19 131.01 69.42 121.20 71.15 131.93 C 64.67 133.37 52.54 128.42 49.07 133.74 C 55.02 132.97 51.50 136.66 49.78 139.61 C 51.58 142.13 53.47 146.41 48.79 146.75 C 55.70 150.73 71.51 151.46 68.14 140.13 C 68.92 136.19 59.81 131.47 70.99 132.94 C 70.28 144.95 71.28 156.96 70.90 168.97 C 70.04 178.01 71.10 187.09 71.12 196.14 C 65.30 190.56 55.02 197.27 48.58 192.21 C 54.46 189.12 71.16 197.77 70.22 187.57 C 62.84 187.32 55.43 186.53 48.06 187.14 C 45.56 195.38 53.04 208.81 43.91 214.07 C 38.38 211.59 33.41 207.32 30.36 201.57 C 29.38 182.10 28.96 161.88 28.10 142.84 C 25.84 135.88 31.84 122.72 24.22 120.17 C 34.18 119.76 19.82 115.56 26.95 115.80 C 17.96 112.57 38.51 111.88 24.01 110.90 C 16.96 109.63 16.96 117.39 22.84 118.97 C 23.28 148.64 22.80 178.34 23.07 208.02 C 23.97 211.02 19.11 215.11 21.96 206.03 C 22.04 189.31 22.31 172.56 20.87 155.88 C 12.28 166.51 19.55 144.19 16.29 138.70 C 15.63 104.81 16.16 70.90 16.00 37.01 C 14.64 34.30 16.10 31.52 18.34 30.32 M 79.91 34.11 C 79.75 30.82 76.77 35.37 79.91 34.11 C 70.07 35.33 59.57 34.71 49.56 36.51 C 41.86 34.95 45.03 38.77 48.03 38.13 C 43.81 40.19 47.32 49.75 44.01 43.01 C 43.89 56.20 42.27 46.10 42.97 38.90 C 40.89 43.76 40.76 52.16 42.18 57.83 C 64.63 54.77 87.46 54.96 109.89 51.79 C 110.11 45.11 110.12 38.42 109.93 31.73 C 105.68 33.87 109.36 39.83 107.87 43.25 C 103.58 40.87 107.28 34.67 105.90 30.96 C 97.32 32.70 88.34 32.16 79.91 34.11 M 36.32 37.36 C 32.30 36.04 28.87 43.56 34.00 43.03 C 41.46 47.67 38.85 38.07 36.32 37.36 M 112.02 52.01 C 111.17 59.95 113.48 70.65 111.01 77.00 C 107.72 71.93 111.39 60.83 109.95 54.02 C 87.41 55.03 64.96 58.73 42.39 58.96 C 43.64 66.85 36.07 83.29 49.01 80.00 C 62.51 80.29 41.21 83.00 39.37 79.89 C 40.11 75.29 39.16 70.61 39.92 66.03 C 37.08 68.01 28.76 71.06 36.83 71.09 C 41.42 79.85 24.89 76.56 30.83 82.03 C 28.95 90.15 15.42 79.83 21.32 85.70 C 51.40 95.23 84.13 89.60 112.99 79.60 C 112.52 70.70 114.27 59.27 112.02 52.01 Z" />
</g>
<g id="#859ab9ff">
<path fill="#859ab9" opacity="1.00" d=" M 192.10 21.05 C 201.33 23.76 224.34 13.03 219.14 30.70 C 211.53 31.44 202.74 32.60 194.17 32.08 C 189.25 37.58 192.67 24.54 192.10 21.05 M 193.07 22.06 C 188.64 36.21 207.30 28.10 214.99 29.95 C 216.34 25.52 209.96 31.00 210.56 26.82 C 213.09 17.01 198.39 23.90 193.07 22.06 Z" />
</g>
<g id="#45454aff">
<path fill="#45454a" opacity="1.00" d=" M 222.23 21.25 C 240.40 20.24 258.41 23.99 276.61 23.36 C 276.74 29.35 270.21 29.99 278.76 31.35 C 273.32 36.40 257.98 32.11 249.66 34.15 C 254.83 36.65 261.65 33.88 267.11 36.42 C 264.77 37.54 258.18 39.26 269.33 38.27 C 266.67 39.19 259.52 40.79 266.20 41.36 C 256.13 47.39 243.72 44.41 232.64 44.78 C 235.66 42.17 240.54 43.30 243.47 41.24 C 247.29 30.25 227.10 38.11 224.30 34.22 C 230.49 33.38 236.79 33.69 243.02 33.11 C 240.05 31.29 241.62 30.08 244.15 29.01 C 242.41 27.07 238.24 25.17 241.90 22.89 C 232.82 18.36 224.48 30.68 222.23 21.25 Z" />
</g>
<g id="#3e4a77ff">
<path fill="#3e4a77" opacity="1.00" d=" M 193.07 22.06 C 198.39 23.90 213.09 17.01 210.56 26.82 C 209.96 31.00 216.34 25.52 214.99 29.95 C 207.30 28.10 188.64 36.21 193.07 22.06 Z" />
</g>
<g id="#35353bff">
<path fill="#35353b" opacity="1.00" d=" M 383.71 22.54 C 407.66 23.73 431.49 26.12 455.22 29.72 C 447.88 29.04 446.63 31.42 454.80 31.24 C 449.45 34.25 438.60 28.18 431.71 30.70 C 441.07 31.43 450.55 32.89 459.42 35.77 C 446.37 37.47 430.55 32.63 419.00 33.93 C 426.07 36.16 436.18 35.22 444.16 37.60 C 431.74 40.13 457.80 37.90 455.53 41.45 C 450.64 39.55 450.50 48.41 455.55 47.34 C 454.92 50.70 457.63 53.12 459.51 55.51 C 454.39 62.75 443.61 54.89 437.80 58.80 C 448.88 60.08 460.95 59.50 471.25 63.75 C 468.41 68.56 477.53 78.70 470.88 80.73 C 482.85 84.79 443.17 80.24 460.97 83.10 C 465.73 83.43 470.53 83.90 475.13 85.23 C 468.76 91.20 457.97 88.81 449.91 91.06 C 450.00 89.32 453.35 85.38 449.95 85.98 C 443.57 86.76 460.09 79.60 446.14 82.81 C 437.11 81.25 427.18 81.83 418.66 79.04 C 427.50 79.11 436.30 80.39 445.15 79.97 C 441.67 73.26 439.20 64.95 430.73 63.20 C 448.78 61.66 412.66 62.27 431.69 60.82 C 427.73 58.08 418.70 56.95 411.07 57.04 C 410.83 64.45 411.18 71.88 410.87 79.29 C 404.46 72.55 416.22 53.56 402.37 56.10 C 406.35 47.44 394.23 48.35 388.62 48.51 C 388.07 51.58 388.58 55.19 386.02 57.44 C 385.08 46.02 384.80 34.09 387.70 22.99 C 386.37 22.80 385.04 22.65 383.71 22.54 M 388.01 32.01 C 386.41 45.95 398.74 29.06 406.01 34.93 C 403.92 30.26 393.11 33.06 388.01 32.01 Z" />
</g>
<g id="#161519ff">
<path fill="#161519" opacity="1.00" d=" M 315.02 46.13 C 337.75 37.79 360.75 30.18 383.71 22.54 C 385.04 22.65 386.37 22.80 387.70 22.99 C 384.80 34.09 385.08 46.02 386.02 57.44 C 386.23 65.16 385.36 72.95 386.24 80.64 C 406.62 87.86 428.21 93.26 449.91 91.06 C 457.97 88.81 468.76 91.20 475.13 85.23 C 470.53 83.90 465.73 83.43 460.97 83.10 C 443.17 80.24 482.85 84.79 470.88 80.73 C 477.53 78.70 468.41 68.56 471.25 63.75 C 460.95 59.50 448.88 60.08 437.80 58.80 C 443.61 54.89 454.39 62.75 459.51 55.51 C 457.63 53.12 454.92 50.70 455.55 47.34 C 450.50 48.41 450.64 39.55 455.53 41.45 C 457.80 37.90 431.74 40.13 444.16 37.60 C 436.18 35.22 426.07 36.16 419.00 33.93 C 430.55 32.63 446.37 37.47 459.42 35.77 C 450.55 32.89 441.07 31.43 431.71 30.70 C 438.60 28.18 449.45 34.25 454.80 31.24 C 446.63 31.42 447.88 29.04 455.22 29.72 C 462.74 31.32 471.76 29.70 478.35 33.73 C 477.63 105.17 478.04 176.62 478.14 248.07 C 472.24 252.99 462.89 248.84 455.70 251.31 C 452.03 251.12 448.41 251.01 444.76 251.17 C 444.16 251.17 442.97 251.19 442.38 251.19 C 439.75 246.00 433.69 250.25 429.63 247.44 C 433.14 246.90 436.74 246.48 440.23 245.68 C 436.64 242.99 430.21 245.52 427.49 242.61 C 423.59 229.32 429.17 215.57 426.97 201.79 C 426.98 191.03 427.18 180.28 426.79 169.53 C 433.57 166.77 442.25 168.07 448.18 166.03 C 440.96 165.47 433.37 167.10 426.37 165.00 C 429.26 152.64 423.20 137.50 429.82 126.88 C 435.96 126.74 442.05 127.86 448.18 128.04 C 442.47 124.88 432.53 124.00 426.70 127.88 C 428.21 123.83 423.25 112.97 432.04 116.04 C 442.08 114.39 419.35 118.02 427.03 108.98 C 431.84 109.14 438.46 111.88 442.20 109.17 C 438.87 106.87 431.37 111.01 429.68 106.37 C 436.16 106.96 442.66 107.17 449.14 106.50 C 448.97 130.59 448.87 154.70 449.11 178.80 C 448.31 191.24 449.80 203.69 449.26 216.11 C 451.62 215.65 450.67 211.55 453.04 214.94 C 453.69 208.08 460.49 205.08 464.77 200.60 C 465.70 178.99 466.56 157.39 465.81 135.75 C 466.03 123.90 466.21 112.03 465.89 100.18 C 446.45 97.86 426.92 96.33 407.34 95.96 C 409.61 119.32 405.55 143.07 408.74 166.32 C 408.83 169.58 408.95 172.86 408.99 176.13 C 408.98 186.66 408.92 197.20 409.13 207.73 C 411.54 215.75 403.66 229.86 412.87 234.68 C 403.77 238.31 396.26 245.01 387.78 249.79 C 385.05 251.31 389.14 252.12 390.28 253.09 L 389.32 253.13 C 380.41 255.26 383.44 252.91 383.16 248.07 C 384.80 234.05 383.83 219.84 383.88 205.74 C 384.03 192.08 384.15 178.42 383.86 164.76 C 384.03 141.25 384.19 117.73 383.84 94.22 C 383.87 87.88 384.05 81.53 383.91 75.19 C 383.84 66.82 384.59 58.28 382.77 50.04 C 379.46 50.45 378.58 55.19 375.83 50.02 C 356.33 51.13 335.66 55.28 318.53 63.43 C 315.81 56.31 317.66 71.24 315.66 63.01 C 311.08 71.99 311.43 48.14 315.02 46.13 M 386.07 108.98 C 385.83 123.32 386.05 137.68 386.00 152.03 C 389.32 151.91 383.81 142.87 387.95 144.07 C 388.27 152.04 387.76 160.03 388.02 168.02 C 391.64 163.82 386.52 151.17 389.88 147.08 C 387.67 159.53 392.68 144.74 395.00 148.89 C 391.44 149.65 391.49 156.55 393.75 159.13 C 395.54 149.25 396.64 173.06 394.49 173.55 C 390.01 170.04 396.94 176.34 392.93 177.16 C 399.79 175.16 399.97 175.00 397.05 168.29 C 404.41 169.16 392.02 162.86 399.01 161.90 C 403.45 159.33 391.24 160.80 397.08 155.34 C 404.63 155.34 390.92 148.16 400.13 147.73 C 393.22 144.60 402.83 140.25 396.98 137.90 C 399.97 131.95 398.58 134.94 397.08 128.34 C 404.46 127.92 393.15 123.96 397.04 121.02 C 403.96 121.21 395.16 117.10 394.87 114.08 C 396.78 114.34 399.29 115.82 400.08 113.16 C 393.63 109.95 389.32 115.09 386.07 108.98 M 428.00 132.02 C 427.76 135.43 434.37 132.80 430.65 137.63 C 425.09 139.44 434.68 145.23 427.93 146.78 C 432.65 145.89 434.98 152.63 439.66 150.69 C 442.60 148.38 449.02 147.39 445.01 144.05 C 449.71 140.28 444.27 138.93 443.98 134.17 C 455.68 132.77 429.56 131.16 428.00 132.02 M 454.02 220.02 C 451.53 228.03 455.30 233.10 463.31 229.33 C 466.45 222.61 462.46 216.77 454.02 220.02 Z" />
</g>
<g id="#44454cff">
<path fill="#44454c" opacity="1.00" d=" M 220.01 29.01 C 221.78 31.05 221.78 41.95 220.01 43.99 C 220.01 40.25 220.01 32.75 220.01 29.01 Z" />
</g>
<g id="#3c3b40ff">
<path fill="#3c3b40" opacity="1.00" d=" M 79.91 34.11 C 88.34 32.16 97.32 32.70 105.90 30.96 C 107.28 34.67 103.58 40.87 107.87 43.25 C 109.36 39.83 105.68 33.87 109.93 31.73 C 110.12 38.42 110.11 45.11 109.89 51.79 C 87.46 54.96 64.63 54.77 42.18 57.83 C 40.76 52.16 40.89 43.76 42.97 38.90 C 42.27 46.10 43.89 56.20 44.01 43.01 C 47.32 49.75 43.81 40.19 48.03 38.13 C 45.03 38.77 41.86 34.95 49.56 36.51 C 59.57 34.71 70.07 35.33 79.91 34.11 Z" />
</g>
<g id="#7e96bfff">
<path fill="#7e96bf" opacity="1.00" d=" M 388.01 32.01 C 393.11 33.06 403.92 30.26 406.01 34.93 C 398.74 29.06 386.41 45.95 388.01 32.01 Z" />
</g>
<g id="#333438ff">
<path fill="#333438" opacity="1.00" d=" M 79.91 34.11 C 76.77 35.37 79.75 30.82 79.91 34.11 Z" />
</g>
<g id="#6f6f71ff">
<path fill="#6f6f71" opacity="1.00" d=" M 478.35 33.73 C 479.34 104.99 479.69 176.80 478.14 248.07 C 478.04 176.62 477.63 105.17 478.35 33.73 Z" />
</g>
<g id="#6482c7ff">
<path fill="#6482c7" opacity="1.00" d=" M 36.32 37.36 C 38.85 38.07 41.46 47.67 34.00 43.03 C 28.87 43.56 32.30 36.04 36.32 37.36 Z" />
</g>
<g id="#a4a4acff">
<path fill="#a4a4ac" opacity="1.00" d=" M 191.99 38.29 C 198.57 40.70 212.09 34.23 211.82 45.09 C 204.69 42.27 187.81 51.28 191.99 38.29 Z" />
</g>
<g id="#5b5b60ff">
<path fill="#5b5b60" opacity="1.00" d=" M 219.83 45.88 C 231.13 46.09 242.44 45.83 253.75 46.25 C 258.13 46.63 262.53 46.85 266.93 47.01 C 259.34 52.62 265.54 62.61 264.04 70.00 C 249.27 70.47 234.39 68.87 219.73 71.03 C 219.10 63.40 219.56 54.00 219.83 45.88 Z" />
</g>
<g id="#414045ff">
<path fill="#414045" opacity="1.00" d=" M 253.75 46.25 C 265.42 44.24 277.82 48.28 289.13 46.06 C 290.22 50.80 284.58 59.88 291.95 61.15 C 288.18 64.59 290.13 64.90 292.73 65.74 C 284.97 66.99 294.03 65.66 295.21 70.00 C 284.82 70.15 274.42 69.95 264.04 70.00 C 265.54 62.61 259.34 52.62 266.93 47.01 C 262.53 46.85 258.13 46.63 253.75 46.25 Z" />
</g>
<g id="#57565cff">
<path fill="#57565c" opacity="1.00" d=" M 388.62 48.51 C 394.23 48.35 406.35 47.44 402.37 56.10 C 416.22 53.56 404.46 72.55 410.87 79.29 C 411.18 71.88 410.83 64.45 411.07 57.04 C 418.70 56.95 427.73 58.08 431.69 60.82 C 412.66 62.27 448.78 61.66 430.73 63.20 C 439.20 64.95 441.67 73.26 445.15 79.97 C 436.30 80.39 427.50 79.11 418.66 79.04 C 427.18 81.83 437.11 81.25 446.14 82.81 C 460.09 79.60 443.57 86.76 449.95 85.98 C 453.35 85.38 450.00 89.32 449.91 91.06 C 428.21 93.26 406.62 87.86 386.24 80.64 C 385.36 72.95 386.23 65.16 386.02 57.44 C 388.58 55.19 388.07 51.58 388.62 48.51 Z" />
</g>
<g id="#4a494fff">
<path fill="#4a494f" opacity="1.00" d=" M 124.83 49.73 C 143.15 48.68 163.23 47.17 180.04 55.97 C 179.43 58.33 192.44 68.75 187.68 54.88 C 188.85 61.68 188.44 76.26 182.98 77.02 C 185.04 71.16 183.66 63.92 175.87 64.86 C 171.97 60.16 169.55 65.91 175.87 64.86 C 185.27 72.39 165.31 60.47 164.64 65.60 C 163.84 69.40 164.64 73.36 164.21 77.21 C 163.93 74.84 163.42 72.51 162.95 70.17 C 167.07 54.05 148.83 58.34 138.93 58.75 C 132.92 58.46 126.90 59.20 120.91 58.80 C 121.19 55.17 119.60 49.34 124.83 49.73 Z" />
</g>
<g id="#4e4d51ff">
<path fill="#4e4d51" opacity="1.00" d=" M 112.02 52.01 C 114.27 59.27 112.52 70.70 112.99 79.60 C 84.13 89.60 51.40 95.23 21.32 85.70 C 15.42 79.83 28.95 90.15 30.83 82.03 C 24.89 76.56 41.42 79.85 36.83 71.09 C 28.76 71.06 37.08 68.01 39.92 66.03 C 39.16 70.61 40.11 75.29 39.37 79.89 C 41.21 83.00 62.51 80.29 49.01 80.00 C 36.07 83.29 43.64 66.85 42.39 58.96 C 64.96 58.73 87.41 55.03 109.95 54.02 C 111.39 60.83 107.72 71.93 111.01 77.00 C 113.48 70.65 111.17 59.95 112.02 52.01 Z" />
</g>
<g id="#6d6c72ff">
<path fill="#6d6c72" opacity="1.00" d=" M 120.91 58.80 C 126.90 59.20 132.92 58.46 138.93 58.75 C 148.83 58.34 167.07 54.05 162.95 70.17 C 151.82 63.89 130.22 71.67 120.97 72.08 C 120.95 71.37 120.91 69.94 120.89 69.23 C 120.88 65.75 120.86 62.27 120.91 58.80 Z" />
</g>
<g id="#4b4b4eff">
<path fill="#4b4b4e" opacity="1.00" d=" M 115.10 78.23 C 116.49 72.13 111.57 62.64 118.02 58.70 C 120.39 61.56 119.90 65.86 120.89 69.23 C 120.91 69.94 120.95 71.37 120.97 72.08 C 121.00 76.30 121.04 80.53 121.14 84.75 C 121.03 96.43 120.85 108.11 121.07 119.80 C 121.07 126.15 120.93 132.51 121.02 138.87 C 121.37 145.08 119.81 153.39 121.93 157.87 C 126.40 154.66 125.89 161.04 127.55 156.35 C 141.73 155.63 156.12 158.85 170.42 157.83 C 164.59 155.73 158.10 155.83 151.95 155.12 C 138.70 156.20 153.18 152.15 154.45 153.50 C 145.87 150.49 135.68 153.05 127.70 149.05 C 138.63 149.29 149.53 151.33 160.50 150.58 C 166.74 149.38 170.05 141.73 177.09 143.04 C 188.48 143.34 177.56 141.72 174.78 140.45 C 183.67 138.26 164.20 138.40 164.15 135.94 C 168.87 136.02 173.52 137.30 178.25 136.64 C 180.30 133.06 183.49 128.62 188.05 128.76 C 187.53 167.60 188.86 206.52 187.39 245.31 C 186.53 222.22 187.24 199.10 186.98 176.00 C 186.95 165.31 187.21 154.62 186.91 143.93 C 181.54 143.82 180.97 152.25 175.55 152.63 C 169.31 154.99 161.41 150.45 155.73 152.72 C 162.16 153.18 168.55 154.11 174.95 154.94 C 169.61 159.65 182.82 155.05 182.11 159.81 C 174.47 158.20 166.95 158.40 161.53 164.55 C 151.65 168.41 139.83 168.35 128.60 167.44 C 125.79 172.97 146.71 164.68 139.81 171.82 C 151.23 172.92 163.55 172.66 174.28 174.93 C 158.86 175.81 143.49 174.21 128.10 173.89 C 133.08 180.44 121.19 168.99 122.54 176.19 C 119.72 171.23 122.96 164.10 120.09 159.82 C 119.73 165.01 118.42 184.11 117.97 168.04 C 116.21 171.37 116.68 173.07 115.15 167.73 C 114.98 159.90 114.89 152.06 115.07 144.23 C 118.35 140.93 118.31 142.85 118.83 147.34 C 120.19 121.84 120.66 96.28 118.82 70.79 C 117.10 73.00 115.90 75.55 115.10 78.23 Z" />
</g>
<g id="#1a191eff">
<path fill="#1a191e" opacity="1.00" d=" M 175.87 64.86 C 171.97 60.16 169.55 65.91 175.87 64.86 Z" />
</g>
<g id="#0e0d11ff">
<path fill="#0e0d11" opacity="1.00" d=" M 164.64 65.60 C 165.31 60.47 185.27 72.39 175.87 64.86 C 183.66 63.92 185.04 71.16 182.98 77.02 C 183.09 87.20 175.16 78.75 170.40 76.89 C 172.04 71.37 170.38 66.73 164.64 65.60 Z" />
</g>
<g id="#4d4e53ff">
<path fill="#4d4e53" opacity="1.00" d=" M 316.23 78.44 C 334.11 66.77 356.24 65.87 376.88 66.25 C 377.79 68.53 374.68 75.45 378.66 73.80 C 377.49 68.46 386.26 69.47 383.91 75.19 C 384.05 81.53 383.87 87.88 383.84 94.22 C 382.59 91.17 385.04 83.18 379.25 85.04 C 380.47 92.02 377.86 92.14 377.54 87.49 C 379.56 79.81 370.07 81.62 366.13 81.79 C 355.77 77.87 344.39 80.38 333.63 82.64 C 324.79 86.25 312.06 88.73 312.12 100.38 C 311.43 92.56 312.99 84.54 311.34 76.83 C 314.11 71.23 311.56 83.51 316.23 78.44 Z" />
</g>
<g id="#908f95ff">
<path fill="#908f95" opacity="1.00" d=" M 120.97 72.08 C 130.22 71.67 151.82 63.89 162.95 70.17 C 163.42 72.51 163.93 74.84 164.21 77.21 C 164.19 77.90 164.15 79.29 164.13 79.98 C 152.46 77.71 138.23 80.29 127.23 86.83 C 126.50 78.34 124.00 94.28 123.85 86.19 C 122.18 89.54 122.34 88.64 121.14 84.75 C 121.04 80.53 121.00 76.30 120.97 72.08 Z" />
</g>
<g id="#737277ff">
<path fill="#737277" opacity="1.00" d=" M 115.10 78.23 C 115.90 75.55 117.10 73.00 118.82 70.79 C 120.66 96.28 120.19 121.84 118.83 147.34 C 118.31 142.85 118.35 140.93 115.07 144.23 C 115.06 139.81 115.10 135.40 115.05 130.99 C 115.01 113.40 114.90 95.82 115.10 78.23 Z" />
</g>
<g id="#515257ff">
<path fill="#515257" opacity="1.00" d=" M 219.73 71.03 C 246.13 71.78 273.17 70.67 299.18 73.47 C 292.51 74.64 299.96 76.31 303.46 75.43 C 282.48 79.42 261.49 84.03 239.96 82.08 C 244.09 79.14 242.61 75.34 238.83 73.06 C 241.08 73.17 243.96 74.75 245.35 72.13 C 236.83 71.58 228.13 72.93 219.73 71.03 Z" />
</g>
<g id="#58575dff">
<path fill="#58575d" opacity="1.00" d=" M 188.17 76.65 C 189.30 72.56 184.40 75.37 188.17 76.65 Z" />
<path fill="#58575d" opacity="1.00" d=" M 407.34 95.96 C 426.92 96.33 446.45 97.86 465.89 100.18 C 466.21 112.03 466.03 123.90 465.81 135.75 C 463.84 141.63 466.04 152.66 463.66 156.51 C 464.31 163.50 453.13 167.55 454.95 175.91 C 452.01 172.08 452.61 176.23 453.03 179.97 C 448.60 173.35 452.25 193.35 449.11 178.80 C 448.87 154.70 448.97 130.59 449.14 106.50 C 442.66 107.17 436.16 106.96 429.68 106.37 C 431.37 111.01 438.87 106.87 442.20 109.17 C 438.46 111.88 431.84 109.14 427.03 108.98 C 431.86 95.37 417.87 97.44 409.08 97.03 C 408.64 120.12 409.47 143.23 408.74 166.32 C 405.55 143.07 409.61 119.32 407.34 95.96 Z" />
</g>
<g id="#48474dff">
<path fill="#48474d" opacity="1.00" d=" M 188.17 76.65 C 190.31 84.35 188.23 92.56 189.20 100.42 C 191.82 94.34 190.34 87.25 191.13 80.86 C 201.18 85.09 216.19 89.53 209.71 104.24 C 209.71 97.04 200.77 100.48 195.83 100.03 C 198.80 102.81 215.63 101.71 203.03 103.10 C 198.91 106.64 187.84 96.94 190.90 105.47 C 196.56 106.06 202.28 105.74 207.97 106.10 C 207.80 111.44 197.78 105.41 194.72 108.91 C 199.03 109.82 204.46 107.52 208.36 109.79 C 205.17 109.94 202.07 109.90 198.91 110.13 C 198.47 115.71 208.00 110.25 208.04 114.83 C 205.51 116.49 195.88 111.88 200.00 120.04 C 200.62 123.16 208.63 117.23 208.01 121.81 C 196.47 118.99 198.60 130.58 208.42 128.67 C 196.41 125.04 201.80 136.42 200.14 142.96 C 207.84 140.74 211.41 144.43 201.05 144.12 C 198.44 168.05 201.85 197.60 199.07 222.29 C 197.67 197.81 202.17 170.73 195.34 147.66 C 195.01 164.40 193.98 139.95 189.81 148.88 C 187.39 138.77 190.53 123.65 188.29 111.68 C 188.63 100.06 186.35 88.13 188.17 76.65 Z" />
</g>
<g id="#727178ff">
<path fill="#727178" opacity="1.00" d=" M 311.34 76.83 C 312.99 84.54 311.43 92.56 312.12 100.38 C 312.06 88.73 324.79 86.25 333.63 82.64 C 344.39 80.38 355.77 77.87 366.13 81.79 C 370.07 81.62 379.56 79.81 377.54 87.49 C 377.86 92.14 380.47 92.02 379.25 85.04 C 385.04 83.18 382.59 91.17 383.84 94.22 C 384.19 117.73 384.03 141.25 383.86 164.76 C 385.02 174.89 380.67 167.45 379.18 175.34 C 379.75 170.20 379.45 167.26 376.99 171.21 C 376.97 165.90 377.13 160.59 376.87 155.28 C 376.96 152.59 377.08 149.90 377.24 147.22 C 378.66 129.96 378.39 112.53 376.75 95.29 C 360.39 91.08 342.07 87.29 326.09 95.01 C 314.70 101.39 310.39 105.34 312.22 120.22 C 311.10 116.05 314.23 109.81 310.03 106.83 C 308.21 98.63 308.73 90.15 309.76 81.89 C 302.31 84.37 289.81 87.99 290.85 98.19 C 290.40 97.84 289.51 97.12 289.06 96.77 C 288.60 94.22 288.27 91.62 288.83 89.06 C 295.93 84.26 304.26 81.66 311.34 76.83 Z" />
</g>
<g id="#afaeb3ff">
<path fill="#afaeb3" opacity="1.00" d=" M 127.23 86.83 C 138.23 80.29 152.46 77.71 164.13 79.98 C 161.90 91.10 174.40 97.46 182.54 93.69 C 185.30 83.12 182.80 93.18 186.92 94.12 C 182.44 97.64 189.21 99.97 185.01 105.97 C 185.75 111.70 177.20 116.61 180.86 121.15 C 163.40 118.36 146.12 114.40 128.61 112.06 C 141.31 117.25 156.69 117.16 170.25 121.30 C 167.66 122.86 164.54 122.80 161.62 122.42 C 164.21 123.19 166.81 123.92 169.39 124.73 C 156.44 124.84 141.30 130.46 130.25 121.81 C 129.82 116.54 125.81 123.64 125.29 118.84 C 123.12 109.91 123.71 129.26 121.07 119.80 C 120.85 108.11 121.03 96.43 121.14 84.75 C 122.34 88.64 122.18 89.54 123.85 86.19 C 124.00 94.28 126.50 78.34 127.23 86.83 Z" />
</g>
<g id="#27262bff">
<path fill="#27262b" opacity="1.00" d=" M 290.85 98.19 C 289.81 87.99 302.31 84.37 309.76 81.89 C 308.73 90.15 308.21 98.63 310.03 106.83 C 294.99 110.46 302.45 127.62 301.30 138.69 C 300.64 165.80 301.18 192.92 300.95 220.04 C 300.35 224.21 305.34 225.16 308.10 226.87 C 309.99 233.55 314.37 247.60 306.28 250.41 C 312.56 238.82 298.11 248.46 293.64 242.37 C 284.02 233.94 310.96 244.07 308.53 236.56 C 302.69 236.12 296.88 237.54 291.04 237.75 C 290.93 233.53 290.75 229.32 290.95 225.12 C 291.95 222.09 300.60 227.94 300.03 223.06 C 297.01 222.94 294.11 222.93 291.13 223.02 C 291.00 216.09 290.84 209.16 291.00 202.23 C 294.19 202.04 298.27 204.46 300.38 201.21 C 297.63 199.35 287.18 204.41 290.99 196.09 C 290.48 194.50 309.26 194.99 295.05 194.05 C 288.10 196.30 289.53 183.14 297.00 188.04 C 304.36 187.37 294.43 185.55 291.06 185.77 C 286.31 176.13 300.12 184.62 300.03 179.14 C 296.41 178.17 287.21 181.64 291.35 173.51 C 295.05 174.83 306.63 171.99 295.07 172.06 C 288.23 174.45 290.16 161.90 297.05 166.11 C 306.78 163.53 285.38 166.94 291.00 159.22 C 302.30 160.27 300.84 156.25 291.18 156.84 C 286.07 146.99 309.43 153.48 295.01 150.05 C 288.35 152.55 290.40 139.24 296.98 144.01 C 304.28 143.25 294.84 141.79 291.37 142.40 C 287.39 134.42 295.84 137.74 299.93 136.86 C 301.07 132.40 293.56 136.06 291.01 134.82 C 288.21 127.31 294.86 129.95 298.66 129.75 C 303.75 126.39 293.34 128.71 291.01 127.82 C 287.68 119.98 294.67 122.55 298.89 121.90 C 303.84 120.31 292.79 121.40 291.01 120.83 C 287.50 112.42 295.76 115.70 300.14 114.92 C 298.85 111.17 293.78 113.81 290.73 113.50 C 286.51 100.12 305.45 113.31 307.03 106.06 C 299.71 105.46 287.51 109.79 290.85 98.19 Z" />
</g>
<g id="#0f0e11ff">
<path fill="#0f0e11" opacity="1.00" d=" M 93.29 95.27 C 98.60 93.18 103.76 86.89 109.54 87.73 C 105.35 92.17 97.31 94.24 98.39 101.76 C 97.29 108.17 106.92 105.92 110.51 108.30 C 106.46 111.97 99.42 108.52 94.26 109.52 C 95.20 113.32 101.31 114.11 104.35 114.50 C 101.18 116.26 97.43 116.14 93.93 116.20 C 95.58 119.16 100.31 120.04 102.02 122.88 C 98.60 122.71 89.78 123.51 96.74 125.15 C 98.85 127.15 105.94 129.30 98.96 130.03 C 82.88 129.48 110.88 136.01 98.98 137.01 C 83.52 136.64 110.73 142.76 98.95 144.04 C 87.32 143.07 100.15 147.05 101.88 149.26 C 103.27 153.71 95.12 147.87 93.67 151.69 C 109.06 147.64 87.48 157.89 101.91 154.25 C 104.27 160.37 92.29 153.58 94.16 158.80 C 108.54 155.28 87.35 164.79 101.91 161.24 C 104.33 166.59 87.96 163.18 96.74 166.15 C 98.86 168.15 105.94 170.29 98.95 171.05 C 83.81 169.43 110.51 176.95 98.97 178.01 C 83.17 180.02 110.76 178.53 98.01 180.37 C 103.00 180.73 103.60 186.91 98.05 187.84 C 103.72 186.17 103.76 195.32 98.15 194.34 C 103.87 200.33 106.58 182.16 112.88 188.91 C 111.50 169.33 114.88 149.57 112.80 130.02 C 113.36 130.26 114.49 130.75 115.05 130.99 C 115.10 135.40 115.06 139.81 115.07 144.23 C 114.89 152.06 114.98 159.90 115.15 167.73 C 117.24 179.77 110.06 195.12 118.93 205.26 C 120.21 200.35 118.60 194.03 120.86 189.80 C 120.68 193.66 122.26 214.01 125.18 202.10 C 126.65 202.87 126.62 205.07 127.39 206.46 C 128.03 201.92 142.37 199.83 141.33 192.00 C 154.67 191.06 169.84 193.60 182.19 191.09 C 168.10 191.21 154.08 189.52 139.99 190.02 C 139.85 185.49 151.60 192.93 149.99 187.06 C 145.29 185.72 137.33 189.10 133.84 186.04 C 145.54 186.46 157.10 185.10 168.20 181.38 C 161.27 180.64 169.34 179.14 172.04 178.74 C 161.31 173.39 181.97 176.82 186.98 176.00 C 187.24 199.10 186.53 222.22 187.39 245.31 C 184.77 246.70 181.54 245.88 178.69 246.32 C 162.89 246.49 147.06 249.51 131.53 252.43 C 127.06 258.58 116.81 257.25 110.79 253.85 C 115.93 249.64 105.30 247.65 103.00 245.03 C 94.26 237.07 81.97 233.96 71.15 237.22 C 69.57 243.22 61.08 237.48 57.71 240.88 C 60.05 242.42 72.29 238.14 69.31 243.32 C 63.43 243.34 53.31 247.48 49.70 240.24 C 42.80 241.55 46.26 248.46 43.38 248.88 C 44.79 250.84 47.96 248.29 49.03 250.82 C 46.29 250.93 43.54 251.03 40.80 251.11 C 33.06 249.47 22.30 254.34 16.25 248.68 C 15.77 212.06 15.86 175.34 16.29 138.70 C 19.55 144.19 12.28 166.51 20.87 155.88 C 22.31 172.56 22.04 189.31 21.96 206.03 C 19.11 215.11 23.97 211.02 23.07 208.02 C 22.80 178.34 23.28 148.64 22.84 118.97 C 16.96 117.39 16.96 109.63 24.01 110.90 C 38.51 111.88 17.96 112.57 26.95 115.80 C 19.82 115.56 34.18 119.76 24.22 120.17 C 31.84 122.72 25.84 135.88 28.10 142.84 C 28.96 161.88 29.38 182.10 30.36 201.57 C 33.41 207.32 38.38 211.59 43.91 214.07 C 53.04 208.81 45.56 195.38 48.06 187.14 C 55.43 186.53 62.84 187.32 70.22 187.57 C 71.16 197.77 54.46 189.12 48.58 192.21 C 55.02 197.27 65.30 190.56 71.12 196.14 C 71.12 196.64 71.10 197.64 71.10 198.14 C 65.07 201.29 54.51 196.43 48.79 199.95 C 56.17 200.17 63.56 199.76 70.94 200.09 C 71.04 210.83 68.65 222.27 76.05 231.06 C 79.67 231.10 83.31 231.26 86.92 230.92 C 93.38 207.92 91.62 181.23 91.91 156.66 C 91.99 151.31 92.09 145.97 91.89 140.62 C 92.08 131.19 92.07 121.76 91.90 112.33 C 93.10 106.71 91.23 100.71 93.29 95.27 M 94.38 185.32 C 99.28 188.45 101.12 182.87 94.38 185.32 Z" />
</g>
<g id="#747378ff">
<path fill="#747378" opacity="1.00" d=" M 109.54 87.73 C 112.86 92.39 112.34 102.49 110.51 108.30 C 106.92 105.92 97.29 108.17 98.39 101.76 C 97.31 94.24 105.35 92.17 109.54 87.73 Z" />
</g>
<g id="#46464bff">
<path fill="#46464b" opacity="1.00" d=" M 235.16 88.94 C 253.11 89.25 270.89 88.32 288.83 89.06 C 288.27 91.62 288.60 94.22 289.06 96.77 C 288.24 134.10 288.01 171.46 288.96 208.79 C 288.62 209.24 287.95 210.14 287.61 210.59 C 285.93 214.43 283.02 225.46 283.86 215.20 C 277.79 215.05 266.73 213.99 275.98 208.37 C 266.82 210.68 271.13 189.86 269.06 202.99 C 267.92 213.84 268.46 184.22 265.08 198.38 C 264.83 166.26 265.11 134.14 265.01 102.02 C 265.32 95.86 256.13 101.01 252.94 99.69 C 247.71 102.02 233.22 94.92 237.02 105.94 C 246.01 107.15 255.93 103.70 264.42 107.78 C 256.84 111.68 234.89 100.53 237.01 113.94 C 245.94 114.29 254.90 113.65 263.82 114.09 C 259.05 119.72 234.35 107.01 237.01 120.94 C 245.94 121.29 254.90 120.65 263.82 121.09 C 258.82 126.70 233.93 113.81 236.91 128.48 C 246.16 128.83 232.70 129.73 237.05 136.09 C 240.59 136.74 240.39 132.08 243.21 131.21 C 240.86 134.73 241.35 138.99 242.13 142.94 C 242.42 147.57 231.87 139.24 236.99 148.94 C 235.67 153.82 249.59 149.88 237.09 152.48 C 234.04 164.26 250.91 154.36 256.28 158.94 C 249.88 159.23 243.46 158.63 237.07 159.14 C 236.98 179.08 237.13 199.04 235.90 218.95 C 232.73 211.62 237.25 199.33 234.28 190.63 C 238.88 198.80 228.72 195.74 233.86 200.02 C 230.60 200.67 227.29 200.33 224.01 200.09 C 222.19 205.01 230.97 200.97 228.82 205.70 C 223.01 211.12 217.61 203.64 213.69 199.47 C 210.79 175.32 209.32 151.09 209.63 126.71 C 211.32 128.78 214.95 136.15 213.07 126.05 C 215.51 127.90 213.73 138.96 215.18 129.99 C 217.02 137.02 224.30 130.73 226.55 130.42 C 220.47 126.85 230.80 126.75 227.47 131.49 C 223.88 135.20 231.47 135.21 229.36 131.13 C 239.17 132.32 231.80 129.97 229.77 128.40 C 235.72 128.63 234.13 120.19 236.19 115.85 C 234.83 118.99 231.77 120.17 233.72 115.81 C 239.41 111.81 234.55 101.38 234.61 94.65 C 229.27 93.62 236.75 92.71 235.16 88.94 Z" />
</g>
<g id="#8b8b92ff">
<path fill="#8b8b92" opacity="1.00" d=" M 326.09 95.01 C 342.07 87.29 360.39 91.08 376.75 95.29 C 378.39 112.53 378.66 129.96 377.24 147.22 C 376.65 135.54 377.44 123.82 376.87 112.14 C 371.58 118.01 363.86 106.74 357.57 104.53 C 344.49 99.59 328.30 102.29 318.61 112.61 C 319.17 119.44 314.54 112.71 315.07 120.06 C 331.70 118.83 348.11 115.64 364.47 112.49 C 370.10 107.03 370.26 114.15 367.37 114.32 C 349.76 116.75 330.22 117.78 314.06 124.08 C 326.51 124.83 343.45 120.03 357.51 118.54 C 360.86 119.90 366.19 113.47 368.24 117.96 C 350.35 121.75 331.86 122.68 314.12 127.32 C 315.09 129.30 311.93 136.54 316.05 136.81 C 333.51 135.49 350.81 132.16 368.28 131.02 C 351.84 135.90 333.29 134.77 316.43 139.42 C 308.83 142.47 335.30 140.02 318.94 142.16 C 321.22 146.25 324.40 149.76 328.26 152.40 C 324.41 154.84 312.21 149.13 313.02 155.89 C 317.30 155.70 321.54 154.98 325.84 154.92 C 334.52 158.70 308.86 157.90 324.94 158.91 C 328.31 157.22 337.40 162.05 338.50 158.58 C 341.33 157.71 361.28 165.29 357.04 157.98 C 363.52 159.05 368.57 154.75 373.38 151.38 C 377.74 149.15 372.38 153.77 376.87 155.28 C 377.13 160.59 376.97 165.90 376.99 171.21 C 376.98 171.71 376.96 172.69 376.96 173.18 C 373.53 163.35 368.45 177.45 362.30 175.52 C 349.35 181.13 336.19 173.68 322.73 176.07 C 310.03 171.55 312.82 183.80 312.90 192.13 C 312.91 197.11 312.97 202.10 312.98 207.08 L 312.96 208.12 L 312.94 209.01 L 311.99 209.02 C 312.16 179.42 311.69 149.81 312.22 120.22 C 310.39 105.34 314.70 101.39 326.09 95.01 M 313.08 161.79 C 313.37 167.21 309.94 177.99 319.54 173.51 C 335.07 168.79 353.72 171.51 367.99 167.93 C 354.05 165.91 334.10 171.61 319.30 167.69 C 316.69 162.25 316.28 165.87 313.08 161.79 Z" />
</g>
<g id="#75747aff">
<path fill="#75747a" opacity="1.00" d=" M 70.40 103.41 C 69.12 92.22 82.37 95.93 89.87 95.03 C 91.17 100.52 87.94 107.71 91.90 112.33 C 92.07 121.76 92.08 131.19 91.89 140.62 C 87.02 150.75 89.97 163.62 88.21 174.99 C 84.80 174.44 79.08 176.50 79.69 171.37 C 74.99 174.28 74.55 166.26 70.90 168.97 C 71.28 156.96 70.28 144.95 70.99 132.94 C 59.81 131.47 68.92 136.19 68.14 140.13 C 71.51 151.46 55.70 150.73 48.79 146.75 C 53.47 146.41 51.58 142.13 49.78 139.61 C 51.50 136.66 55.02 132.97 49.07 133.74 C 52.54 128.42 64.67 133.37 71.15 131.93 C 69.42 121.20 55.19 131.01 48.57 126.70 C 55.75 124.30 63.58 125.45 70.99 124.88 C 72.63 119.28 63.60 123.66 61.57 121.68 C 64.76 119.78 71.54 122.96 70.80 117.60 C 73.00 112.27 57.83 115.79 71.14 113.76 C 65.00 111.01 55.74 114.22 48.60 113.80 C 54.49 108.52 64.29 114.36 70.90 110.76 C 71.21 107.03 65.94 108.03 71.03 104.89 C 63.45 106.11 55.76 105.96 48.10 106.11 C 47.68 118.65 48.31 131.22 47.78 143.77 C 46.85 148.14 48.32 153.38 46.16 157.37 C 45.01 155.04 48.22 144.92 43.10 149.86 C 43.88 141.94 40.17 152.99 40.38 145.13 C 35.42 140.94 33.97 133.73 30.16 128.60 C 30.09 118.78 29.02 107.89 30.89 98.91 C 43.64 97.35 56.85 96.38 69.79 96.02 C 69.94 97.87 70.25 101.57 70.40 103.41 Z" />
</g>
<g id="#97969cff">
<path fill="#97969c" opacity="1.00" d=" M 289.06 96.77 C 289.51 97.12 290.40 97.84 290.85 98.19 C 287.51 109.79 299.71 105.46 307.03 106.06 C 305.45 113.31 286.51 100.12 290.73 113.50 C 293.78 113.81 298.85 111.17 300.14 114.92 C 295.76 115.70 287.50 112.42 291.01 120.83 C 292.79 121.40 303.84 120.31 298.89 121.90 C 294.67 122.55 287.68 119.98 291.01 127.82 C 293.34 128.71 303.75 126.39 298.66 129.75 C 294.86 129.95 288.21 127.31 291.01 134.82 C 293.56 136.06 301.07 132.40 299.93 136.86 C 295.84 137.74 287.39 134.42 291.37 142.40 C 294.84 141.79 304.28 143.25 296.98 144.01 C 290.40 139.24 288.35 152.55 295.01 150.05 C 309.43 153.48 286.07 146.99 291.18 156.84 C 300.84 156.25 302.30 160.27 291.00 159.22 C 285.38 166.94 306.78 163.53 297.05 166.11 C 290.16 161.90 288.23 174.45 295.07 172.06 C 306.63 171.99 295.05 174.83 291.35 173.51 C 287.21 181.64 296.41 178.17 300.03 179.14 C 300.12 184.62 286.31 176.13 291.06 185.77 C 294.43 185.55 304.36 187.37 297.00 188.04 C 289.53 183.14 288.10 196.30 295.05 194.05 C 309.26 194.99 290.48 194.50 290.99 196.09 C 287.18 204.41 297.63 199.35 300.38 201.21 C 298.27 204.46 294.19 202.04 291.00 202.23 C 290.84 209.16 291.00 216.09 291.13 223.02 C 285.66 225.11 290.06 213.02 288.96 208.79 C 288.01 171.46 288.24 134.10 289.06 96.77 Z" />
</g>
<g id="#7f7e85ff">
<path fill="#7f7e85" opacity="1.00" d=" M 409.08 97.03 C 417.87 97.44 431.86 95.37 427.03 108.98 C 419.35 118.02 442.08 114.39 432.04 116.04 C 423.25 112.97 428.21 123.83 426.70 127.88 C 432.53 124.00 442.47 124.88 448.18 128.04 C 442.05 127.86 435.96 126.74 429.82 126.88 C 423.20 137.50 429.26 152.64 426.37 165.00 C 426.23 166.52 426.48 168.04 426.79 169.53 C 421.56 160.97 417.16 173.57 415.33 176.68 C 412.68 171.71 413.41 178.69 408.99 176.13 C 408.95 172.86 408.83 169.58 408.74 166.32 C 409.47 143.23 408.64 120.12 409.08 97.03 Z" />
</g>
<g id="#1d1d22ff">
<path fill="#1d1d22" opacity="1.00" d=" M 252.94 99.69 C 256.13 101.01 265.32 95.86 265.01 102.02 C 265.11 134.14 264.83 166.26 265.08 198.38 C 268.46 184.22 267.92 213.84 269.06 202.99 C 271.13 189.86 266.82 210.68 275.98 208.37 C 266.73 213.99 277.79 215.05 283.86 215.20 C 283.02 225.46 285.93 214.43 287.61 210.59 C 287.74 220.30 288.68 230.00 288.35 239.71 C 294.07 247.73 302.42 253.69 310.07 259.89 L 309.10 259.95 C 307.44 259.95 305.78 259.93 304.13 260.07 C 277.68 263.76 251.01 257.80 224.14 259.94 C 233.22 257.60 247.82 259.70 259.01 259.06 C 277.10 257.97 239.16 258.32 256.97 256.97 C 261.18 257.70 269.56 250.63 264.25 248.73 C 263.64 242.04 262.05 253.96 257.64 251.53 C 249.77 251.79 239.63 253.62 236.64 244.37 C 225.86 238.67 211.33 241.13 201.85 248.83 C 198.43 252.25 184.85 254.24 191.02 260.05 L 189.96 260.08 C 186.27 260.95 186.94 257.34 186.89 254.84 C 186.94 252.91 186.97 250.98 187.06 249.06 C 190.03 244.43 181.21 248.00 178.69 246.32 C 181.54 245.88 184.77 246.70 187.39 245.31 C 188.86 206.52 187.53 167.60 188.05 128.76 C 188.05 123.06 188.13 117.37 188.29 111.68 C 190.53 123.65 187.39 138.77 189.81 148.88 C 193.98 139.95 195.01 164.40 195.34 147.66 C 202.17 170.73 197.67 197.81 199.07 222.29 C 201.85 197.60 198.44 168.05 201.05 144.12 C 211.41 144.43 207.84 140.74 200.14 142.96 C 201.80 136.42 196.41 125.04 208.42 128.67 C 198.60 130.58 196.47 118.99 208.01 121.81 C 208.63 117.23 200.62 123.16 200.00 120.04 C 195.88 111.88 205.51 116.49 208.04 114.83 C 208.00 110.25 198.47 115.71 198.91 110.13 C 202.07 109.90 205.17 109.94 208.36 109.79 C 204.46 107.52 199.03 109.82 194.72 108.91 C 197.78 105.41 207.80 111.44 207.97 106.10 C 202.28 105.74 196.56 106.06 190.90 105.47 C 187.84 96.94 198.91 106.64 203.03 103.10 C 215.63 101.71 198.80 102.81 195.83 100.03 C 200.77 100.48 209.71 97.04 209.71 104.24 C 209.99 111.73 210.05 119.22 209.63 126.71 C 209.32 151.09 210.79 175.32 213.69 199.47 C 217.61 203.64 223.01 211.12 228.82 205.70 C 230.97 200.97 222.19 205.01 224.01 200.09 C 227.29 200.33 230.60 200.67 233.86 200.02 C 228.72 195.74 238.88 198.80 234.28 190.63 C 237.25 199.33 232.73 211.62 235.90 218.95 C 237.13 199.04 236.98 179.08 237.07 159.14 C 243.46 158.63 249.88 159.23 256.28 158.94 C 250.91 154.36 234.04 164.26 237.09 152.48 C 249.59 149.88 235.67 153.82 236.99 148.94 C 231.87 139.24 242.42 147.57 242.13 142.94 C 246.40 148.46 255.82 148.63 259.09 142.02 C 263.40 133.61 251.69 124.01 244.66 130.48 C 244.30 130.66 243.57 131.02 243.21 131.21 C 240.39 132.08 240.59 136.74 237.05 136.09 C 232.70 129.73 246.16 128.83 236.91 128.48 C 233.93 113.81 258.82 126.70 263.82 121.09 C 254.90 120.65 245.94 121.29 237.01 120.94 C 234.35 107.01 259.05 119.72 263.82 114.09 C 254.90 113.65 245.94 114.29 237.01 113.94 C 234.89 100.53 256.84 111.68 264.42 107.78 C 255.93 103.70 246.01 107.15 237.02 105.94 C 233.22 94.92 247.71 102.02 252.94 99.69 M 271.02 226.05 C 265.76 237.85 278.46 238.16 285.49 234.83 C 289.03 224.62 279.56 224.82 271.02 226.05 Z" />
</g>
<g id="#adadb3ff">
<path fill="#adadb3" opacity="1.00" d=" M 318.61 112.61 C 328.30 102.29 344.49 99.59 357.57 104.53 C 363.86 106.74 371.58 118.01 376.87 112.14 C 377.44 123.82 376.65 135.54 377.24 147.22 C 377.08 149.90 376.96 152.59 376.87 155.28 C 372.38 153.77 377.74 149.15 373.38 151.38 C 368.57 154.75 363.52 159.05 357.04 157.98 C 361.28 165.29 341.33 157.71 338.50 158.58 C 337.40 162.05 328.31 157.22 324.94 158.91 C 308.86 157.90 334.52 158.70 325.84 154.92 C 339.71 152.67 355.43 152.86 367.99 149.91 C 356.68 147.80 341.20 152.31 328.26 152.40 C 324.40 149.76 321.22 146.25 318.94 142.16 C 335.30 140.02 308.83 142.47 316.43 139.42 C 333.29 134.77 351.84 135.90 368.28 131.02 C 350.81 132.16 333.51 135.49 316.05 136.81 C 311.93 136.54 315.09 129.30 314.12 127.32 C 331.86 122.68 350.35 121.75 368.24 117.96 C 366.19 113.47 360.86 119.90 357.51 118.54 C 343.45 120.03 326.51 124.83 314.06 124.08 C 330.22 117.78 349.76 116.75 367.37 114.32 C 370.26 114.15 370.10 107.03 364.47 112.49 C 348.11 115.64 331.70 118.83 315.07 120.06 C 314.54 112.71 319.17 119.44 318.61 112.61 Z" />
</g>
<g id="#b5b4baff">
<path fill="#b5b4ba" opacity="1.00" d=" M 301.30 138.69 C 302.45 127.62 294.99 110.46 310.03 106.83 C 314.23 109.81 311.10 116.05 312.22 120.22 C 311.69 149.81 312.16 179.42 311.99 209.02 C 311.94 210.42 311.91 211.83 311.88 213.24 C 309.68 209.00 308.48 196.68 301.76 200.88 C 301.73 180.17 302.90 159.33 301.30 138.69 Z" />
</g>
<g id="#2b2a2eff">
<path fill="#2b2a2e" opacity="1.00" d=" M 386.07 108.98 C 389.32 115.09 393.63 109.95 400.08 113.16 C 399.29 115.82 396.78 114.34 394.87 114.08 C 395.16 117.10 403.96 121.21 397.04 121.02 C 393.15 123.96 404.46 127.92 397.08 128.34 C 398.58 134.94 399.97 131.95 396.98 137.90 C 402.83 140.25 393.22 144.60 400.13 147.73 C 390.92 148.16 404.63 155.34 397.08 155.34 C 391.24 160.80 403.45 159.33 399.01 161.90 C 392.02 162.86 404.41 169.16 397.05 168.29 C 399.97 175.00 399.79 175.16 392.93 177.16 C 396.94 176.34 390.01 170.04 394.49 173.55 C 396.64 173.06 395.54 149.25 393.75 159.13 C 391.49 156.55 391.44 149.65 395.00 148.89 C 392.68 144.74 387.67 159.53 389.88 147.08 C 386.52 151.17 391.64 163.82 388.02 168.02 C 387.76 160.03 388.27 152.04 387.95 144.07 C 383.81 142.87 389.32 151.91 386.00 152.03 C 386.05 137.68 385.83 123.32 386.07 108.98 Z" />
</g>
<g id="#919095ff">
<path fill="#919095" opacity="1.00" d=" M 121.07 119.80 C 123.71 129.26 123.12 109.91 125.29 118.84 C 125.81 123.64 129.82 116.54 130.25 121.81 C 141.30 130.46 156.44 124.84 169.39 124.73 C 166.81 123.92 164.21 123.19 161.62 122.42 C 164.54 122.80 167.66 122.86 170.25 121.30 C 175.18 119.36 185.36 126.29 176.86 127.90 C 164.68 143.09 142.92 127.78 129.07 130.89 C 140.97 135.19 156.35 134.43 168.57 140.43 C 167.34 143.15 136.45 136.94 150.81 142.09 C 142.03 141.90 132.37 138.75 124.05 140.67 C 123.70 134.42 122.99 144.07 121.02 138.87 C 120.93 132.51 121.07 126.15 121.07 119.80 Z" />
</g>
<g id="#98989aff">
<path fill="#98989a" opacity="1.00" d=" M 244.66 130.48 C 251.69 124.01 263.40 133.61 259.09 142.02 C 255.82 148.63 246.40 148.46 242.13 142.94 C 241.35 138.99 240.86 134.73 243.21 131.21 C 243.57 131.02 244.30 130.66 244.66 130.48 C 240.11 137.90 247.83 135.36 252.42 136.62 C 254.47 142.48 254.01 133.19 256.00 137.00 C 259.98 143.65 243.46 135.86 243.17 141.60 C 247.10 149.52 260.49 145.29 258.00 136.13 C 256.74 129.81 249.84 129.64 244.66 130.48 Z" />
</g>
<g id="#525156ff">
<path fill="#525156" opacity="1.00" d=" M 30.16 128.60 C 33.97 133.73 35.42 140.94 40.38 145.13 C 40.17 152.99 43.88 141.94 43.10 149.86 C 48.22 144.92 45.01 155.04 46.16 157.37 C 48.32 153.38 46.85 148.14 47.78 143.77 C 48.36 157.33 48.09 170.91 46.67 184.42 C 44.54 183.03 45.84 177.09 43.10 180.82 C 41.67 174.44 31.33 177.32 30.67 170.24 C 28.72 156.51 30.59 142.43 30.16 128.60 Z" />
</g>
<g id="#2c2c2eff">
<path fill="#2c2c2e" opacity="1.00" d=" M 244.66 130.48 C 249.84 129.64 256.74 129.81 258.00 136.13 C 260.49 145.29 247.10 149.52 243.17 141.60 C 243.46 135.86 259.98 143.65 256.00 137.00 C 254.01 133.19 254.47 142.48 252.42 136.62 C 247.83 135.36 240.11 137.90 244.66 130.48 Z" />
</g>
<g id="#6e6d70ff">
<path fill="#6e6d70" opacity="1.00" d=" M 428.00 132.02 C 429.56 131.16 455.68 132.77 443.98 134.17 C 444.27 138.93 449.71 140.28 445.01 144.05 C 449.02 147.39 442.60 148.38 439.66 150.69 C 434.98 152.63 432.65 145.89 427.93 146.78 C 434.68 145.23 425.09 139.44 430.65 137.63 C 434.37 132.80 427.76 135.43 428.00 132.02 Z" />
</g>
<g id="#37363aff">
<path fill="#37363a" opacity="1.00" d=" M 463.66 156.51 C 466.04 152.66 463.84 141.63 465.81 135.75 C 466.56 157.39 465.70 178.99 464.77 200.60 C 460.49 205.08 453.69 208.08 453.04 214.94 C 450.67 211.55 451.62 215.65 449.26 216.11 C 449.80 203.69 448.31 191.24 449.11 178.80 C 452.25 193.35 448.60 173.35 453.03 179.97 C 452.61 176.23 452.01 172.08 454.95 175.91 C 453.13 167.55 464.31 163.50 463.66 156.51 Z" />
</g>
<g id="#909096ff">
<path fill="#909096" opacity="1.00" d=" M 301.30 138.69 C 302.90 159.33 301.73 180.17 301.76 200.88 C 308.48 196.68 309.68 209.00 311.88 213.24 C 311.88 219.90 312.39 226.59 311.88 233.25 C 310.55 231.11 311.01 227.65 308.10 226.87 C 305.34 225.16 300.35 224.21 300.95 220.04 C 301.18 192.92 300.64 165.80 301.30 138.69 Z" />
</g>
<g id="#525256ff">
<path fill="#525256" opacity="1.00" d=" M 88.21 174.99 C 89.97 163.62 87.02 150.75 91.89 140.62 C 92.09 145.97 91.99 151.31 91.91 156.66 C 87.17 168.51 91.95 184.26 88.70 197.72 C 84.44 202.87 73.73 191.13 71.10 198.14 C 71.10 197.64 71.12 196.64 71.12 196.14 C 71.10 187.09 70.04 178.01 70.90 168.97 C 74.55 166.26 74.99 174.28 79.69 171.37 C 79.08 176.50 84.80 174.44 88.21 174.99 C 86.68 177.96 91.16 176.31 88.21 174.99 Z" />
</g>
<g id="#28282aff">
<path fill="#28282a" opacity="1.00" d=" M 175.55 152.63 C 180.97 152.25 181.54 143.82 186.91 143.93 C 187.21 154.62 186.95 165.31 186.98 176.00 C 181.97 176.82 161.31 173.39 172.04 178.74 C 169.34 179.14 161.27 180.64 168.20 181.38 C 157.10 185.10 145.54 186.46 133.84 186.04 C 137.33 189.10 145.29 185.72 149.99 187.06 C 151.60 192.93 139.85 185.49 139.99 190.02 C 154.08 189.52 168.10 191.21 182.19 191.09 C 169.84 193.60 154.67 191.06 141.33 192.00 C 142.37 199.83 128.03 201.92 127.39 206.46 C 126.62 205.07 126.65 202.87 125.18 202.10 C 122.26 214.01 120.68 193.66 120.86 189.80 C 118.60 194.03 120.21 200.35 118.93 205.26 C 110.06 195.12 117.24 179.77 115.15 167.73 C 116.68 173.07 116.21 171.37 117.97 168.04 C 118.42 184.11 119.73 165.01 120.09 159.82 C 122.96 164.10 119.72 171.23 122.54 176.19 C 121.19 168.99 133.08 180.44 128.10 173.89 C 143.49 174.21 158.86 175.81 174.28 174.93 C 163.55 172.66 151.23 172.92 139.81 171.82 C 146.71 164.68 125.79 172.97 128.60 167.44 C 139.83 168.35 151.65 168.41 161.53 164.55 C 166.95 158.40 174.47 158.20 182.11 159.81 C 182.82 155.05 169.61 159.65 174.95 154.94 C 168.55 154.11 162.16 153.18 155.73 152.72 C 161.41 150.45 169.31 154.99 175.55 152.63 Z" />
</g>
<g id="#5b5b61ff">
<path fill="#5b5b61" opacity="1.00" d=" M 328.26 152.40 C 341.20 152.31 356.68 147.80 367.99 149.91 C 355.43 152.86 339.71 152.67 325.84 154.92 C 321.54 154.98 317.30 155.70 313.02 155.89 C 312.21 149.13 324.41 154.84 328.26 152.40 Z" />
</g>
<g id="#313134ff">
<path fill="#313134" opacity="1.00" d=" M 88.70 197.72 C 91.95 184.26 87.17 168.51 91.91 156.66 C 91.62 181.23 93.38 207.92 86.92 230.92 C 92.94 216.54 70.33 217.70 76.05 231.06 C 68.65 222.27 71.04 210.83 70.94 200.09 C 63.56 199.76 56.17 200.17 48.79 199.95 C 54.51 196.43 65.07 201.29 71.10 198.14 C 73.73 191.13 84.44 202.87 88.70 197.72 Z" />
</g>
<g id="#505156ff">
<path fill="#505156" opacity="1.00" d=" M 313.08 161.79 C 316.28 165.87 316.69 162.25 319.30 167.69 C 334.10 171.61 354.05 165.91 367.99 167.93 C 353.72 171.51 335.07 168.79 319.54 173.51 C 309.94 177.99 313.37 167.21 313.08 161.79 Z" />
</g>
<g id="#4f4f53ff">
<path fill="#4f4f53" opacity="1.00" d=" M 379.18 175.34 C 380.67 167.45 385.02 174.89 383.86 164.76 C 384.15 178.42 384.03 192.08 383.88 205.74 C 383.87 210.26 374.96 208.72 378.94 203.01 C 374.10 198.42 380.92 219.23 370.96 214.07 C 352.46 208.03 332.10 211.53 312.96 208.12 L 312.98 207.08 C 330.25 205.80 347.46 209.02 364.70 207.85 C 367.28 205.04 357.78 208.59 356.67 206.15 C 358.96 204.03 368.67 209.21 367.96 204.18 C 357.17 202.77 345.56 205.04 335.76 199.29 C 332.91 198.05 320.83 197.21 333.26 196.80 C 326.70 194.39 319.83 193.05 312.90 192.13 C 312.82 183.80 310.03 171.55 322.73 176.07 C 333.27 191.09 353.32 184.20 368.34 185.57 C 370.21 190.37 373.53 186.55 377.01 188.99 C 377.04 183.72 377.02 178.45 376.96 173.18 C 376.96 172.69 376.98 171.71 376.99 171.21 C 379.45 167.26 379.75 170.20 379.18 175.34 M 339.48 190.61 C 331.89 192.04 321.86 189.50 316.04 191.96 C 333.04 191.44 352.57 193.29 368.00 191.01 C 361.02 187.93 348.12 190.68 339.48 190.61 Z" />
</g>
<g id="#565659ff">
<path fill="#565659" opacity="1.00" d=" M 426.79 169.53 C 426.48 168.04 426.23 166.52 426.37 165.00 C 433.37 167.10 440.96 165.47 448.18 166.03 C 442.25 168.07 433.57 166.77 426.79 169.53 Z" />
</g>
<g id="#545358ff">
<path fill="#545358" opacity="1.00" d=" M 415.33 176.68 C 417.16 173.57 421.56 160.97 426.79 169.53 C 427.18 180.28 426.98 191.03 426.97 201.79 C 421.19 202.00 418.36 208.07 413.87 210.99 C 415.97 194.44 410.72 218.10 409.13 207.73 C 408.92 197.20 408.98 186.66 408.99 176.13 C 413.41 178.69 412.68 171.71 415.33 176.68 Z" />
</g>
<g id="#707176ff">
<path fill="#707176" opacity="1.00" d=" M 362.30 175.52 C 368.45 177.45 373.53 163.35 376.96 173.18 C 377.02 178.45 377.04 183.72 377.01 188.99 C 373.53 186.55 370.21 190.37 368.34 185.57 C 353.32 184.20 333.27 191.09 322.73 176.07 C 336.19 173.68 349.35 181.13 362.30 175.52 Z" />
</g>
<g id="#69696bff">
<path fill="#69696b" opacity="1.00" d=" M 88.21 174.99 C 86.68 177.96 91.16 176.31 88.21 174.99 Z" />
</g>
<g id="#252527ff">
<path fill="#252527" opacity="1.00" d=" M 94.38 185.32 C 101.12 182.87 99.28 188.45 94.38 185.32 Z" />
</g>
<g id="#999a9eff">
<path fill="#999a9e" opacity="1.00" d=" M 339.48 190.61 C 348.12 190.68 361.02 187.93 368.00 191.01 C 352.57 193.29 333.04 191.44 316.04 191.96 C 321.86 189.50 331.89 192.04 339.48 190.61 Z" />
</g>
<g id="#313235ff">
<path fill="#313235" opacity="1.00" d=" M 312.90 192.13 C 319.83 193.05 326.70 194.39 333.26 196.80 C 320.83 197.21 332.91 198.05 335.76 199.29 C 345.56 205.04 357.17 202.77 367.96 204.18 C 368.67 209.21 358.96 204.03 356.67 206.15 C 357.78 208.59 367.28 205.04 364.70 207.85 C 347.46 209.02 330.25 205.80 312.98 207.08 C 312.97 202.10 312.91 197.11 312.90 192.13 Z" />
</g>
<g id="#262629ff">
<path fill="#262629" opacity="1.00" d=" M 370.96 214.07 C 380.92 219.23 374.10 198.42 378.94 203.01 C 374.96 208.72 383.87 210.26 383.88 205.74 C 383.83 219.84 384.80 234.05 383.16 248.07 C 383.44 252.91 380.41 255.26 389.32 253.13 C 381.95 253.67 371.56 258.16 365.69 253.23 C 348.78 248.92 329.91 248.66 312.48 244.83 C 312.85 232.90 313.31 220.95 312.94 209.01 L 312.96 208.12 C 332.10 211.53 352.46 208.03 370.96 214.07 Z" />
</g>
<g id="#2b2b2eff">
<path fill="#2b2b2e" opacity="1.00" d=" M 413.87 210.99 C 418.36 208.07 421.19 202.00 426.97 201.79 C 429.17 215.57 423.59 229.32 427.49 242.61 C 430.21 245.52 436.64 242.99 440.23 245.68 C 436.74 246.48 433.14 246.90 429.63 247.44 C 433.69 250.25 439.75 246.00 442.38 251.19 C 426.77 254.48 407.33 251.04 390.28 253.09 C 389.14 252.12 385.05 251.31 387.78 249.79 C 396.26 245.01 403.77 238.31 412.87 234.68 C 403.66 229.86 411.54 215.75 409.13 207.73 C 410.72 218.10 415.97 194.44 413.87 210.99 Z" />
</g>
<g id="#656566ff">
<path fill="#656566" opacity="1.00" d=" M 287.61 210.59 C 287.95 210.14 288.62 209.24 288.96 208.79 C 290.06 213.02 285.66 225.11 291.13 223.02 C 294.11 222.93 297.01 222.94 300.03 223.06 C 300.60 227.94 291.95 222.09 290.95 225.12 C 290.75 229.32 290.93 233.53 291.04 237.75 C 296.88 237.54 302.69 236.12 308.53 236.56 C 310.96 244.07 284.02 233.94 293.64 242.37 C 298.11 248.46 312.56 238.82 306.28 250.41 C 314.37 247.60 309.99 233.55 308.10 226.87 C 311.01 227.65 310.55 231.11 311.88 233.25 C 312.39 226.59 311.88 219.90 311.88 213.24 C 311.91 211.83 311.94 210.42 311.99 209.02 L 312.94 209.01 C 313.31 220.95 312.85 232.90 312.48 244.83 C 329.91 248.66 348.78 248.92 365.69 253.23 C 371.56 258.16 381.95 253.67 389.32 253.13 L 390.28 253.09 C 407.33 251.04 426.77 254.48 442.38 251.19 C 442.97 251.19 444.16 251.17 444.76 251.17 C 448.58 253.57 458.75 249.91 460.04 254.86 C 435.03 256.44 410.01 257.05 384.99 258.07 C 360.90 257.03 337.17 252.27 313.21 249.99 C 311.81 252.22 315.26 260.33 310.07 259.89 C 302.42 253.69 294.07 247.73 288.35 239.71 C 288.68 230.00 287.74 220.30 287.61 210.59 Z" />
</g>
<g id="#4a658bff">
<path fill="#4a658b" opacity="1.00" d=" M 454.02 220.02 C 462.46 216.77 466.45 222.61 463.31 229.33 C 455.30 233.10 451.53 228.03 454.02 220.02 Z" />
</g>
<g id="#4d7096ff">
<path fill="#4d7096" opacity="1.00" d=" M 76.05 231.06 C 70.33 217.70 92.94 216.54 86.92 230.92 C 83.31 231.26 79.67 231.10 76.05 231.06 Z" />
</g>
<g id="#90c4d8ff">
<path fill="#90c4d8" opacity="1.00" d=" M 271.02 226.05 C 279.56 224.82 289.03 224.62 285.49 234.83 C 278.46 238.16 265.76 237.85 271.02 226.05 Z" />
</g>
<g id="#2d2d2eff">
<path fill="#2d2d2e" opacity="1.00" d=" M 71.15 237.22 C 81.97 233.96 94.26 237.07 103.00 245.03 C 105.30 247.65 115.93 249.64 110.79 253.85 C 92.16 254.68 73.36 250.63 55.08 254.05 C 50.97 256.22 50.49 252.82 49.03 250.82 C 47.96 248.29 44.79 250.84 43.38 248.88 C 46.26 248.46 42.80 241.55 49.70 240.24 C 53.31 247.48 63.43 243.34 69.31 243.32 C 72.29 238.14 60.05 242.42 57.71 240.88 C 61.08 237.48 69.57 243.22 71.15 237.22 Z" />
</g>
<g id="#505053ff">
<path fill="#505053" opacity="1.00" d=" M 201.85 248.83 C 211.33 241.13 225.86 238.67 236.64 244.37 C 239.63 253.62 249.77 251.79 257.64 251.53 C 262.05 253.96 263.64 242.04 264.25 248.73 C 269.56 250.63 261.18 257.70 256.97 256.97 C 239.16 258.32 277.10 257.97 259.01 259.06 C 247.82 259.70 233.22 257.60 224.14 259.94 C 251.01 257.80 277.68 263.76 304.13 260.07 C 305.46 265.78 298.31 264.16 294.96 264.87 C 262.43 264.95 229.84 265.38 197.34 264.68 C 192.04 265.13 197.04 257.95 191.02 260.05 C 184.85 254.24 198.43 252.25 201.85 248.83 Z" />
</g>
<g id="#646363ff">
<path fill="#646363" opacity="1.00" d=" M 131.53 252.43 C 147.06 249.51 162.89 246.49 178.69 246.32 C 181.21 248.00 190.03 244.43 187.06 249.06 C 160.60 251.52 134.54 257.29 108.02 259.06 C 81.93 258.39 55.81 257.95 29.78 255.83 C 32.85 253.88 36.78 254.06 40.28 253.28 C 47.16 253.18 51.37 251.97 40.80 251.11 C 43.54 251.03 46.29 250.93 49.03 250.82 C 50.49 252.82 50.97 256.22 55.08 254.05 C 73.36 250.63 92.16 254.68 110.79 253.85 C 116.81 257.25 127.06 258.58 131.53 252.43 Z" />
</g>
<g id="#d7d7d7ff">
</g>
<g id="#e7e7e7ff">
</g>
<g id="#f3f3f3ff">
</g>
<g id="#acabacff">
<path fill="#acabac" opacity="1.00" d=" M 189.96 260.08 L 191.02 260.05 C 197.04 257.95 192.04 265.13 197.34 264.68 C 229.84 265.38 262.43 264.95 294.96 264.87 C 298.31 264.16 305.46 265.78 304.13 260.07 C 305.78 259.93 307.44 259.95 309.10 259.95 C 308.62 262.14 308.82 265.65 305.85 265.93 C 269.24 266.09 232.63 266.00 196.02 265.96 C 189.95 268.49 189.90 263.75 189.96 260.08 Z" />
</g>
</svg>
