<?xml version="1.0" encoding="UTF-8" ?>
<!DOCTYPE svg PUBLIC "-//W3C//DTD SVG 1.1//EN" "http://www.w3.org/Graphics/SVG/1.1/DTD/svg11.dtd">
<svg width="520pt" height="357pt" viewBox="0 0 520 357" version="1.1" xmlns="http://www.w3.org/2000/svg">
<g id="#dee2e6ff">
<path fill="#dee2e6" opacity="1.00" d=" M 0.00 0.00 L 520.00 0.00 L 520.00 357.00 L 0.00 357.00 L 0.00 0.00 M 1.25 1.25 C 1.22 119.45 1.28 237.64 1.22 355.83 C 173.74 355.76 346.26 355.76 518.78 355.83 C 518.71 237.64 518.78 119.44 518.75 1.25 C 346.25 1.24 173.75 1.24 1.25 1.25 Z" />
<path fill="#dee2e6" opacity="1.00" d=" M 307.85 34.99 C 308.79 35.66 309.74 36.33 310.70 36.99 C 310.43 38.55 310.17 40.12 309.91 41.68 C 311.60 41.74 313.29 41.79 314.99 41.85 C 315.38 39.66 315.75 37.46 316.12 35.27 C 317.02 35.65 317.93 36.02 318.85 36.39 C 318.20 37.93 317.75 39.54 317.27 41.14 C 318.70 41.35 320.15 41.56 321.59 41.77 C 322.42 40.61 323.26 39.45 324.09 38.29 C 324.73 39.57 325.34 40.89 326.13 42.09 C 327.87 43.35 329.74 41.38 331.45 40.86 C 332.17 42.08 332.74 43.43 333.76 44.44 C 335.70 45.16 337.30 43.25 338.97 42.55 C 339.02 44.09 339.09 45.63 339.17 47.17 C 340.53 47.18 342.02 47.75 343.34 47.18 C 344.55 45.98 345.21 44.37 346.06 42.91 C 346.64 43.60 347.24 44.28 347.87 44.94 C 346.87 46.03 345.84 47.10 344.95 48.28 C 345.24 49.39 345.71 50.63 346.86 51.12 C 348.62 52.10 350.01 49.98 351.43 49.20 C 350.96 51.73 351.22 54.30 352.52 56.55 C 353.58 55.91 354.63 55.27 355.67 54.61 C 355.81 54.73 356.10 54.98 356.24 55.10 C 356.14 56.55 355.81 57.99 355.91 59.45 C 357.69 61.93 361.22 61.43 363.89 61.89 C 363.55 62.01 362.89 62.23 362.55 62.34 C 361.87 62.57 360.51 63.04 359.83 63.27 C 360.22 64.57 360.62 65.86 361.03 67.15 C 362.29 66.98 363.55 66.79 364.81 66.61 C 364.76 67.56 364.70 68.51 364.65 69.46 L 364.56 69.93 C 364.33 71.05 364.14 72.19 363.92 73.31 C 365.18 73.39 366.45 73.42 367.71 73.50 C 367.89 74.44 368.07 75.38 368.25 76.32 C 368.34 76.85 368.52 77.91 368.62 78.44 C 367.93 78.39 366.57 78.31 365.89 78.26 C 367.44 79.88 369.03 81.45 370.62 83.02 C 370.05 83.85 369.50 84.69 369.05 85.58 C 368.23 88.32 371.84 89.03 373.38 90.45 C 371.82 91.04 370.30 91.70 368.72 92.22 L 367.80 92.51 C 368.94 95.03 369.72 98.55 373.20 98.38 C 371.78 98.94 370.37 99.54 368.90 99.94 C 368.57 99.78 367.90 99.45 367.56 99.29 C 368.09 101.52 368.63 103.74 369.15 105.97 C 369.94 106.00 371.51 106.05 372.29 106.08 C 370.93 106.53 369.57 106.96 368.22 107.40 C 368.91 108.58 369.71 109.71 370.20 111.00 C 370.28 111.29 370.42 111.87 370.49 112.16 C 364.99 109.14 359.22 106.62 353.94 103.22 C 355.98 103.35 358.03 103.32 360.08 103.29 C 360.16 98.85 359.83 94.29 357.54 90.36 C 356.74 91.89 355.96 93.43 355.20 94.98 C 354.23 90.23 352.82 85.50 350.00 81.49 C 350.22 83.33 350.47 85.17 350.72 87.01 C 347.67 84.09 344.62 81.18 341.46 78.38 C 338.25 75.19 334.34 72.42 329.61 72.61 C 327.76 72.25 325.91 71.86 324.06 71.51 C 314.28 68.56 303.77 68.47 294.08 71.81 C 293.58 70.58 293.10 69.34 292.63 68.10 C 294.32 68.29 296.01 68.49 297.71 68.69 C 297.58 67.12 297.45 65.55 297.33 63.99 C 299.08 64.63 300.84 65.30 302.60 65.93 C 302.61 66.39 302.63 67.31 302.64 67.77 C 309.02 64.99 315.99 63.39 322.98 63.75 C 327.77 64.11 332.41 65.52 336.99 66.92 C 334.44 65.92 332.01 64.56 330.62 62.11 C 328.92 62.59 327.16 62.69 325.43 62.34 C 324.04 62.59 322.65 62.88 321.28 63.17 C 321.15 62.38 320.91 60.79 320.78 59.99 C 320.05 61.24 319.30 62.49 318.57 63.74 C 317.23 62.84 315.91 61.94 314.56 61.07 C 313.02 62.39 311.36 63.56 309.62 64.57 C 309.95 61.96 310.40 59.35 310.91 56.76 C 312.33 57.28 313.75 57.80 315.17 58.31 C 316.02 57.79 316.88 57.28 317.73 56.76 C 321.83 57.86 326.18 57.40 330.22 58.77 C 333.17 59.73 336.14 60.67 339.11 61.62 C 339.84 62.13 340.57 62.64 341.30 63.15 C 341.20 64.82 341.11 66.48 341.01 68.15 C 341.80 68.13 343.39 68.10 344.18 68.09 C 343.86 65.41 344.24 62.05 341.64 60.35 C 330.19 51.44 314.35 48.98 300.60 53.33 C 296.69 55.20 293.93 58.85 289.89 60.52 C 286.75 62.25 283.09 62.07 279.63 61.88 C 279.69 60.92 279.75 59.97 279.81 59.02 C 277.71 60.22 275.60 61.42 273.51 62.63 C 272.93 60.14 272.40 57.64 271.68 55.19 C 272.55 54.74 273.41 54.28 274.28 53.83 C 274.60 55.43 275.03 57.01 275.45 58.59 C 276.71 57.41 277.97 56.23 279.23 55.05 C 278.87 53.11 278.51 51.17 278.05 49.26 C 278.66 49.15 279.86 48.92 280.47 48.81 C 280.48 49.71 280.51 50.61 280.54 51.51 C 281.01 51.96 281.94 52.86 282.41 53.31 C 283.41 52.20 284.48 51.13 285.28 49.86 C 285.39 47.42 284.67 45.05 284.15 42.69 C 285.27 43.49 286.41 44.25 287.57 45.00 C 287.65 46.41 287.81 47.81 287.98 49.22 C 289.33 48.47 290.69 47.70 291.92 46.75 C 292.48 44.46 292.50 42.07 292.58 39.72 C 293.38 40.63 294.21 41.52 294.96 42.49 C 295.05 43.24 295.23 44.74 295.32 45.49 C 298.95 45.13 300.76 42.15 301.28 38.80 C 301.44 39.17 301.76 39.92 301.93 40.29 C 302.36 41.23 302.79 42.18 303.20 43.14 C 304.65 42.92 306.11 42.71 307.57 42.50 C 307.67 40.00 307.76 37.49 307.85 34.99 M 352.55 60.46 C 354.36 65.02 357.66 68.74 359.81 73.10 C 362.79 78.70 363.46 85.12 364.45 91.28 C 365.31 96.20 363.61 101.05 363.69 105.96 C 363.68 107.35 364.38 108.22 365.80 108.56 C 369.00 94.08 366.15 78.41 358.14 65.93 C 356.84 63.59 354.85 61.79 352.55 60.46 M 356.14 86.07 C 355.09 87.57 355.04 89.28 356.97 90.00 C 357.58 88.52 358.18 86.67 356.14 86.07 Z" />
<path fill="#dee2e6" opacity="1.00" d=" M 186.10 69.98 C 187.18 71.31 188.29 72.63 189.41 73.94 C 188.80 75.10 188.21 76.28 187.62 77.45 C 189.28 77.27 191.08 77.51 192.64 76.75 C 193.86 74.68 194.53 72.34 195.32 70.07 C 195.98 71.25 196.65 72.43 197.31 73.61 C 197.88 73.13 198.46 72.66 199.03 72.19 C 197.92 74.06 196.80 75.93 195.73 77.83 C 197.68 77.81 199.64 77.79 201.60 77.75 C 202.25 75.39 202.93 73.03 203.63 70.68 C 204.43 72.30 205.56 73.91 205.57 75.78 C 205.05 76.87 204.52 77.95 204.00 79.04 C 205.67 79.11 207.34 79.18 209.01 79.26 C 209.89 77.03 210.72 74.79 211.58 72.55 C 212.32 74.17 213.40 75.60 214.15 77.21 C 213.25 78.39 212.41 79.61 211.54 80.82 C 213.09 81.42 214.65 82.02 216.21 82.62 C 217.34 80.38 218.45 78.12 219.52 75.85 C 220.38 77.32 221.26 78.79 222.15 80.24 C 220.90 81.23 219.66 82.24 218.42 83.24 C 219.97 84.28 221.51 85.33 223.07 86.35 C 224.23 84.33 225.37 82.29 226.50 80.25 C 227.69 81.64 228.87 83.04 230.07 84.42 C 228.25 85.09 226.49 85.88 224.72 86.66 C 225.67 88.27 226.64 89.87 227.55 91.50 C 227.17 91.35 226.40 91.06 226.02 90.91 C 224.70 90.31 223.41 89.63 222.17 88.89 C 219.27 86.93 216.10 85.42 212.72 84.48 C 214.04 85.64 215.36 86.79 216.70 87.91 C 208.79 88.57 200.78 89.32 193.21 91.85 C 192.12 91.17 191.03 90.49 189.94 89.81 C 189.07 90.76 188.21 91.72 187.35 92.67 C 186.85 90.99 186.35 89.31 185.85 87.63 C 168.07 89.15 150.99 99.65 142.23 115.30 C 140.25 118.46 141.49 122.21 142.19 125.55 C 141.20 126.15 140.20 126.74 139.21 127.34 C 139.52 128.72 139.83 130.11 140.15 131.50 C 139.59 132.06 139.03 132.62 138.47 133.19 C 138.66 136.54 138.52 139.91 138.06 143.23 C 137.06 144.50 135.98 145.72 135.25 147.17 C 135.19 150.48 136.42 153.67 136.42 156.98 C 136.23 159.41 135.04 161.61 134.16 163.84 C 133.02 162.86 131.89 161.88 130.75 160.90 C 131.20 163.26 131.65 165.63 132.11 167.99 C 129.43 167.77 126.86 168.48 125.66 171.09 C 125.68 170.64 125.74 169.74 125.76 169.28 C 127.02 166.15 129.17 162.99 127.37 159.56 C 125.88 160.61 124.41 161.70 123.01 162.87 C 122.28 162.45 121.55 162.04 120.82 161.63 C 123.66 159.34 126.61 156.66 126.45 152.66 C 124.59 153.25 122.73 153.87 120.94 154.63 C 120.24 154.15 119.54 153.67 118.85 153.18 C 120.94 151.64 123.10 150.19 125.30 148.79 C 125.19 147.45 125.08 146.11 124.97 144.77 C 123.44 145.35 121.91 145.95 120.42 146.61 C 119.58 145.88 119.07 144.86 118.21 144.17 C 120.58 143.07 122.96 141.99 125.32 140.86 C 125.17 139.38 125.01 137.91 124.86 136.43 C 123.82 136.69 122.78 136.95 121.74 137.20 C 121.03 137.12 120.32 137.01 119.62 136.86 C 120.05 136.11 120.47 135.36 120.91 134.61 C 122.59 134.02 124.29 133.46 125.87 132.61 C 126.13 131.18 126.13 129.71 126.24 128.27 C 125.02 128.63 123.80 128.98 122.57 129.34 C 121.86 128.57 121.14 127.80 120.44 127.04 C 122.99 126.14 125.56 125.30 128.14 124.49 C 127.97 123.03 127.80 121.57 127.63 120.12 C 126.63 120.49 125.62 120.86 124.60 121.21 C 124.28 120.47 123.95 119.73 123.62 118.99 C 126.34 117.69 131.14 118.05 131.78 114.35 C 131.04 113.45 130.21 112.63 129.39 111.81 C 129.35 111.22 129.28 110.04 129.24 109.46 C 130.99 109.80 132.74 110.15 134.49 110.50 C 135.98 107.88 135.35 104.99 134.37 102.33 C 135.91 102.67 137.45 102.98 139.00 103.30 C 139.83 102.20 140.65 101.09 141.46 99.97 C 141.13 99.53 140.46 98.65 140.12 98.21 C 139.52 98.40 138.31 98.76 137.70 98.95 C 137.78 98.49 137.94 97.58 138.02 97.12 C 140.57 96.04 143.43 96.75 146.02 95.98 C 147.36 93.64 146.82 90.63 147.06 88.01 C 147.64 88.07 148.79 88.21 149.37 88.28 C 148.87 88.88 147.89 90.07 147.39 90.67 C 149.19 90.55 151.44 91.60 152.87 90.08 C 153.80 87.86 153.84 85.39 153.92 83.02 C 154.65 83.03 156.10 83.06 156.83 83.08 C 156.61 83.63 156.17 84.72 155.95 85.27 C 156.29 85.83 156.96 86.93 157.30 87.49 C 161.26 85.86 161.23 81.47 161.15 77.84 C 161.73 78.67 162.28 79.52 162.82 80.38 C 163.35 81.29 163.88 82.21 164.40 83.13 C 165.76 82.71 167.12 82.27 168.48 81.84 C 168.67 79.15 168.89 76.46 169.17 73.78 C 169.74 74.93 170.32 76.07 170.86 77.23 C 171.33 78.26 171.80 79.28 172.26 80.31 C 173.87 79.89 175.47 79.45 177.07 79.02 C 177.18 76.29 177.31 73.57 177.48 70.84 C 178.32 72.24 179.42 73.58 179.78 75.21 C 179.91 76.23 180.00 77.25 180.09 78.28 C 181.66 78.12 183.23 77.97 184.80 77.81 C 185.24 75.20 185.68 72.59 186.10 69.98 Z" />
<path fill="#dee2e6" opacity="1.00" d=" M 292.20 77.30 C 299.27 75.06 306.71 74.26 314.10 74.20 C 310.17 74.73 306.26 75.59 302.63 77.24 C 308.85 77.83 315.10 78.04 321.33 78.30 C 321.47 77.69 321.73 76.48 321.86 75.88 C 327.03 76.73 332.17 77.94 336.96 80.11 C 343.80 82.87 350.28 87.78 352.31 95.20 C 346.00 91.85 341.62 85.68 334.92 82.98 C 332.34 81.85 329.48 81.76 326.71 81.73 C 329.82 83.43 333.06 84.88 336.27 86.40 C 335.89 86.61 335.15 87.03 334.78 87.25 C 330.62 85.98 326.50 84.53 322.22 83.70 C 310.77 80.77 299.15 83.85 288.08 86.87 C 289.36 85.42 290.63 83.98 291.90 82.52 C 284.47 84.54 277.43 87.84 270.93 91.93 C 265.72 95.24 261.62 99.92 257.16 104.12 C 256.15 102.54 255.15 100.95 254.16 99.35 C 258.39 93.87 263.65 89.29 268.91 84.82 C 270.21 84.06 271.49 83.27 272.80 82.53 C 275.94 82.04 279.15 82.73 282.27 82.19 C 285.70 80.81 288.64 78.39 292.20 77.30 Z" />
<path fill="#dee2e6" opacity="1.00" d=" M 183.63 94.87 L 183.86 94.13 C 184.00 95.68 184.19 97.24 184.38 98.79 C 185.50 98.90 186.62 99.01 187.74 99.15 C 187.99 97.80 188.23 96.45 188.48 95.10 C 189.86 96.45 190.83 98.90 192.85 99.14 C 194.04 97.81 195.00 96.29 195.90 94.76 C 196.24 96.30 196.64 97.82 197.05 99.34 C 195.86 99.96 194.67 100.58 193.47 101.16 C 186.81 104.00 178.95 106.89 175.62 113.86 C 172.90 118.26 170.29 122.76 168.67 127.69 C 167.68 126.94 166.69 126.19 165.69 125.47 C 164.12 124.53 162.50 123.03 160.54 123.41 C 154.03 131.70 151.80 143.09 154.67 153.24 C 154.78 153.93 154.98 155.32 155.08 156.01 C 153.40 157.61 151.71 159.21 150.04 160.83 C 149.22 159.95 148.40 159.07 147.54 158.23 C 147.10 158.12 146.22 157.91 145.77 157.81 C 145.25 157.75 144.19 157.64 143.66 157.58 C 146.10 156.50 147.10 154.09 147.47 151.60 C 146.11 152.19 144.70 152.68 143.45 153.48 C 142.61 154.99 142.26 156.71 141.70 158.33 C 141.33 158.56 140.58 159.02 140.20 159.26 C 139.78 158.40 139.36 157.54 138.94 156.69 C 138.07 153.41 137.51 150.06 137.05 146.70 C 139.69 146.08 142.35 145.52 144.91 144.63 C 145.30 144.04 146.06 142.86 146.45 142.27 C 145.26 141.27 144.07 140.28 142.89 139.27 C 144.03 139.00 145.16 138.67 146.30 138.37 L 147.43 138.07 C 146.31 136.46 145.18 134.87 143.98 133.32 C 145.46 133.00 146.95 132.72 148.44 132.45 C 147.61 130.78 146.76 129.12 145.89 127.48 C 146.42 127.34 147.49 127.07 148.02 126.94 C 148.97 126.71 149.93 126.47 150.88 126.23 C 150.17 124.94 149.46 123.66 148.78 122.36 C 150.73 121.85 152.66 121.27 154.59 120.64 C 153.89 119.90 153.20 119.15 152.52 118.40 C 152.26 118.07 151.72 117.42 151.45 117.09 C 153.14 117.35 154.86 117.53 156.57 117.40 C 157.36 116.02 157.53 114.41 157.85 112.88 C 158.97 112.69 160.11 112.52 161.22 112.22 C 161.56 110.97 161.65 109.66 161.82 108.38 C 163.28 108.61 164.74 108.84 166.20 109.07 C 166.24 106.74 166.35 104.42 166.29 102.10 C 166.81 102.42 167.83 103.07 168.35 103.39 C 168.26 104.00 168.08 105.22 167.99 105.83 C 169.15 105.67 170.31 105.51 171.47 105.34 C 171.47 103.18 171.47 101.02 171.47 98.86 C 172.35 99.14 173.24 99.41 174.13 99.67 C 173.81 100.73 173.49 101.80 173.18 102.86 C 174.28 102.76 175.39 102.66 176.49 102.45 C 177.04 100.68 177.26 98.84 177.59 97.02 C 178.40 97.44 179.22 97.87 180.03 98.29 C 179.74 99.14 179.46 99.98 179.19 100.83 C 180.12 100.65 181.05 100.47 181.98 100.29 C 182.51 98.48 183.06 96.67 183.63 94.87 M 141.17 148.38 C 141.46 149.58 141.75 150.77 142.05 151.97 C 143.83 150.73 145.52 149.30 146.39 147.26 C 144.64 147.59 142.90 147.98 141.17 148.38 Z" />
<path fill="#dee2e6" opacity="1.00" d=" M 205.74 101.86 C 212.38 98.72 219.94 97.52 227.16 99.16 C 223.77 99.61 220.39 100.12 217.04 100.82 C 220.65 101.87 224.34 103.10 228.15 102.74 C 231.38 102.53 234.81 101.60 237.90 103.08 C 245.00 106.08 250.84 111.51 255.35 117.67 C 249.60 113.59 244.07 108.49 236.74 107.68 C 239.61 110.12 242.83 112.08 246.05 114.02 C 249.99 116.38 253.28 119.62 256.55 122.81 C 257.48 119.32 258.73 115.89 260.76 112.88 C 260.79 113.41 260.86 114.47 260.89 115.00 C 260.19 117.62 259.46 120.23 258.69 122.83 C 258.23 123.67 257.75 124.49 257.26 125.30 C 250.66 118.73 243.29 112.31 234.03 109.97 C 220.97 106.31 207.16 110.98 196.22 118.22 C 189.63 122.52 184.50 129.25 182.95 137.05 C 181.09 145.92 182.67 154.99 183.80 163.84 C 176.33 166.45 168.46 168.36 161.80 172.81 C 153.29 178.56 145.70 186.48 142.17 196.28 C 136.92 212.14 144.96 230.61 159.35 238.68 C 165.83 242.44 173.54 243.92 180.97 242.98 C 189.80 241.88 198.63 240.84 207.44 239.58 C 223.92 237.81 240.36 235.70 256.83 233.76 C 264.97 232.83 273.07 231.45 281.28 231.28 C 278.88 232.48 276.25 233.13 273.60 233.46 C 247.44 236.54 221.30 239.71 195.17 243.05 C 186.69 243.90 178.10 245.66 169.58 244.21 C 150.46 240.52 135.98 220.64 138.60 201.29 C 140.28 189.94 148.14 180.81 156.53 173.55 C 163.91 168.08 172.83 165.30 181.31 162.02 C 180.97 154.33 178.44 146.67 180.10 138.98 C 181.34 130.38 186.15 122.35 193.28 117.35 C 198.88 113.48 205.17 110.80 211.30 107.91 C 209.15 106.88 206.91 105.18 204.43 106.22 C 195.50 108.85 186.55 113.28 180.90 120.94 C 177.35 125.91 174.87 131.81 174.62 137.96 C 174.41 142.54 174.68 147.13 174.75 151.72 C 174.39 151.72 173.66 151.71 173.29 151.71 C 173.39 145.82 173.17 139.93 173.46 134.05 C 175.56 124.74 180.94 116.38 188.22 110.27 C 193.38 106.22 199.93 104.71 205.74 101.86 Z" />
<path fill="#dee2e6" opacity="1.00" d=" M 271.03 116.77 C 269.15 113.24 273.68 111.21 275.68 109.05 C 280.94 114.49 284.86 120.99 287.88 127.90 C 292.17 140.11 302.20 149.08 307.12 160.94 C 299.16 152.04 293.43 141.42 285.73 132.31 C 281.09 126.88 276.08 121.80 271.03 116.77 Z" />
<path fill="#dee2e6" opacity="1.00" d=" M 340.17 112.64 C 343.13 113.66 345.03 116.82 344.21 119.91 C 343.24 123.16 341.98 126.32 341.20 129.62 C 337.75 141.02 330.28 150.61 325.61 161.46 C 324.58 162.94 326.57 163.60 327.41 164.49 C 328.17 165.08 328.91 165.70 329.64 166.34 C 330.04 166.71 330.83 167.45 331.23 167.82 C 329.31 170.19 327.60 172.74 326.33 175.51 C 322.34 183.97 318.27 192.40 313.32 200.34 C 309.24 207.65 305.56 215.18 301.29 222.39 C 294.50 233.66 288.78 245.54 283.36 257.52 C 282.00 260.66 279.73 263.28 277.17 265.51 C 276.57 263.59 275.03 261.65 275.69 259.56 C 276.83 256.02 279.00 252.94 280.76 249.70 C 282.96 245.88 284.63 241.78 287.01 238.07 C 294.28 228.10 298.54 216.37 304.89 205.85 C 307.88 200.95 309.60 195.42 312.46 190.45 C 316.00 184.26 319.27 177.93 322.71 171.69 C 323.94 169.57 324.36 167.15 324.48 164.74 C 320.03 169.81 317.17 175.99 313.56 181.63 C 298.65 205.43 287.26 231.27 271.50 254.55 C 268.64 258.22 266.66 263.07 268.28 267.70 C 271.47 270.17 276.00 269.74 279.71 268.92 C 282.10 268.48 283.49 266.34 284.32 264.25 C 286.81 258.33 288.90 252.25 291.59 246.42 C 292.42 244.82 293.26 242.75 295.27 242.42 C 300.25 241.48 305.36 241.81 310.39 241.26 C 319.29 240.30 328.39 240.71 337.09 242.89 C 339.96 243.54 342.31 245.36 344.56 247.16 C 340.38 247.15 336.11 247.27 332.22 249.00 C 338.22 252.48 345.29 253.01 352.03 253.68 C 355.73 253.81 359.58 254.44 363.20 253.39 C 365.64 251.85 367.17 249.25 369.11 247.17 C 369.83 247.73 370.55 248.30 371.28 248.87 C 369.71 251.01 368.14 253.15 366.52 255.25 C 362.80 256.65 359.43 258.97 355.46 259.69 C 349.78 260.89 344.24 263.10 339.56 266.58 C 336.64 269.03 332.60 268.06 329.11 268.54 C 323.20 268.77 317.96 272.21 312.03 272.29 C 303.96 272.52 295.92 274.00 287.83 273.37 C 284.98 273.13 282.80 269.84 279.85 271.00 C 277.35 271.77 274.76 272.08 272.16 271.76 C 268.97 271.33 266.35 273.63 263.42 274.43 C 253.54 276.94 243.23 276.29 233.24 274.80 C 227.02 274.58 221.26 271.44 214.97 271.98 C 209.91 271.68 205.38 274.99 200.28 274.02 C 200.03 272.72 199.79 271.42 199.55 270.12 C 195.52 269.66 191.82 271.31 188.01 272.22 C 183.03 271.22 178.06 268.46 172.88 270.05 C 170.92 270.85 169.06 270.20 167.41 269.01 C 168.84 268.69 170.28 268.38 171.72 268.09 C 173.64 266.48 175.47 264.44 178.10 264.09 C 183.16 263.23 188.30 262.71 193.27 261.31 C 199.89 259.52 206.86 259.93 213.48 258.13 C 216.93 257.18 220.49 256.68 224.06 256.43 C 215.92 254.20 207.38 255.38 199.16 256.54 C 193.81 257.34 188.35 257.21 183.03 258.28 C 179.43 259.04 175.75 259.36 172.07 259.27 C 172.57 258.17 173.09 257.08 173.60 255.99 C 168.97 256.76 164.49 258.22 159.89 259.10 C 157.07 259.70 154.47 258.16 151.90 257.27 C 148.76 255.97 145.32 255.89 141.97 255.73 C 142.42 254.30 142.86 252.87 143.30 251.45 C 141.33 249.22 139.73 246.71 138.41 244.05 C 140.33 241.72 142.48 239.55 145.11 238.04 C 147.85 240.20 150.78 242.10 153.72 243.97 C 152.39 245.41 151.06 246.86 149.75 248.32 C 153.83 250.70 158.18 252.97 163.00 253.24 C 172.47 253.92 181.96 252.71 191.34 251.51 C 198.50 250.27 205.62 248.64 212.91 248.43 C 222.69 248.14 232.32 246.24 242.05 245.37 C 252.72 244.40 263.29 242.61 273.95 241.56 C 273.24 243.86 272.55 246.17 271.92 248.50 C 276.54 243.58 279.11 237.28 282.62 231.61 C 287.48 223.59 291.42 215.06 295.81 206.78 C 300.83 197.15 306.57 187.91 311.09 178.02 C 311.45 177.53 312.18 176.56 312.55 176.08 C 314.51 173.54 315.77 170.57 317.06 167.66 C 318.58 165.07 320.72 162.94 322.77 160.77 C 326.14 157.20 328.07 152.61 330.36 148.34 C 333.04 143.00 336.08 137.83 338.22 132.23 C 339.50 128.04 340.93 123.89 342.27 119.72 C 343.18 117.16 341.29 114.80 340.17 112.64 Z" />
<path fill="#dee2e6" opacity="1.00" d=" M 373.73 115.47 C 378.06 118.30 383.58 117.38 388.08 119.78 C 390.69 121.06 393.87 122.78 394.16 126.04 C 394.77 129.82 392.45 133.08 390.58 136.11 C 390.34 135.42 389.88 134.04 389.65 133.35 C 388.08 132.44 386.52 131.54 384.97 130.62 C 384.67 128.78 385.16 126.53 383.95 125.01 C 381.87 122.87 379.45 125.54 377.45 126.43 C 374.31 125.86 371.20 125.15 368.06 124.67 C 369.28 122.96 370.71 121.42 372.25 119.99 C 372.51 119.73 373.03 119.20 373.29 118.94 C 373.50 117.79 373.63 116.63 373.73 115.47 Z" />
<path fill="#dee2e6" opacity="1.00" d=" M 365.84 143.72 C 367.08 143.79 368.33 143.80 369.58 143.82 C 372.18 147.46 374.93 151.11 376.44 155.38 C 379.13 163.24 379.01 171.89 376.67 179.83 C 373.84 190.79 366.95 200.21 359.00 208.06 C 357.79 209.08 356.04 211.52 358.59 212.11 C 361.65 213.32 363.76 215.83 365.26 218.68 C 364.72 218.58 363.63 218.39 363.09 218.30 C 363.88 220.55 364.66 222.81 365.37 225.10 C 362.46 228.53 362.45 233.09 362.35 237.34 C 359.35 236.39 356.91 234.38 355.52 231.55 C 351.56 224.62 346.96 218.10 342.22 211.70 C 345.09 210.10 347.94 208.47 350.79 206.82 C 352.24 207.75 353.74 208.60 355.24 209.48 C 365.38 201.99 372.41 190.68 375.75 178.60 C 377.94 170.96 377.59 162.64 374.88 155.18 C 373.19 150.49 369.59 146.84 365.84 143.72 Z" />
<path fill="#dee2e6" opacity="1.00" d=" M 140.01 173.25 C 146.07 171.27 150.94 166.86 157.03 164.94 C 150.40 170.31 143.79 175.86 139.10 183.11 C 134.47 189.17 133.27 196.83 131.56 204.05 C 128.30 198.20 128.13 191.46 128.22 184.95 C 128.94 185.18 130.39 185.65 131.11 185.89 C 131.38 185.43 131.92 184.50 132.20 184.04 C 133.57 181.73 134.80 179.34 136.18 177.03 C 137.37 175.69 138.69 174.46 140.01 173.25 Z" />
<path fill="#dee2e6" opacity="1.00" d=" M 323.93 184.10 C 326.11 186.43 329.19 188.62 329.29 192.11 C 326.58 190.17 324.79 187.30 323.93 184.10 Z" />
<path fill="#dee2e6" opacity="1.00" d=" M 332.49 197.99 C 334.32 194.37 337.16 191.38 339.14 187.84 C 340.63 190.12 342.00 192.49 343.20 194.94 C 343.20 196.23 343.16 197.52 343.13 198.81 C 340.84 199.29 338.59 199.94 336.36 200.65 C 337.38 202.89 338.43 205.13 339.45 207.37 C 336.74 204.61 333.50 201.89 332.49 197.99 Z" />
</g>
<g id="#fefefeff">
<path fill="#fefefe" opacity="1.00" d=" M 263.92 110.14 C 268.24 99.65 278.41 92.29 289.14 89.36 C 283.55 92.92 277.66 96.20 272.92 100.90 C 269.86 103.93 266.89 107.03 263.92 110.14 Z" />
</g>
<g id="#b6b6b7ff">
<path fill="#b6b6b7" opacity="1.00" d=" M 304.41 34.26 C 305.55 34.50 306.70 34.74 307.85 34.99 C 307.76 37.49 307.67 40.00 307.57 42.50 C 306.11 42.71 304.65 42.92 303.20 43.14 C 302.79 42.18 302.36 41.23 301.93 40.29 C 302.77 38.29 303.58 36.27 304.41 34.26 Z" />
<path fill="#b6b6b7" opacity="1.00" d=" M 311.20 34.13 C 312.89 34.20 314.58 34.21 316.28 34.30 L 316.12 35.27 C 315.75 37.46 315.38 39.66 314.99 41.85 C 313.29 41.79 311.60 41.74 309.91 41.68 C 310.17 40.12 310.43 38.55 310.70 36.99 C 310.83 36.28 311.08 34.84 311.20 34.13 Z" />
<path fill="#b6b6b7" opacity="1.00" d=" M 320.12 33.84 C 321.83 34.73 323.54 35.62 325.26 36.49 C 332.72 36.10 339.12 40.84 346.06 42.91 C 345.21 44.37 344.55 45.98 343.34 47.18 C 342.02 47.75 340.53 47.18 339.17 47.17 C 339.09 45.63 339.02 44.09 338.97 42.55 C 337.30 43.25 335.70 45.16 333.76 44.44 C 332.74 43.43 332.17 42.08 331.45 40.86 C 329.74 41.38 327.87 43.35 326.13 42.09 C 325.34 40.89 324.73 39.57 324.09 38.29 C 323.26 39.45 322.42 40.61 321.59 41.77 C 320.15 41.56 318.70 41.35 317.27 41.14 C 317.75 39.54 318.20 37.93 318.85 36.39 C 319.17 35.75 319.80 34.48 320.12 33.84 Z" />
<path fill="#b6b6b7" opacity="1.00" d=" M 296.35 35.90 C 298.11 36.56 301.06 36.34 301.28 38.80 C 300.76 42.15 298.95 45.13 295.32 45.49 C 295.23 44.74 295.05 43.24 294.96 42.49 C 295.15 40.24 295.80 38.08 296.35 35.90 Z" />
<path fill="#b6b6b7" opacity="1.00" d=" M 288.22 38.74 C 289.69 38.99 291.21 39.10 292.58 39.72 C 292.50 42.07 292.48 44.46 291.92 46.75 C 290.69 47.70 289.33 48.47 287.98 49.22 C 287.81 47.81 287.65 46.41 287.57 45.00 C 287.57 42.90 287.94 40.82 288.22 38.74 Z" />
<path fill="#b6b6b7" opacity="1.00" d=" M 281.21 43.11 C 281.94 43.01 283.42 42.80 284.15 42.69 C 284.67 45.05 285.39 47.42 285.28 49.86 C 284.48 51.13 283.41 52.20 282.41 53.31 C 281.94 52.86 281.01 51.96 280.54 51.51 C 280.51 50.61 280.48 49.71 280.47 48.81 C 280.53 46.92 280.15 44.81 281.21 43.11 Z" />
<path fill="#b6b6b7" opacity="1.00" d=" M 344.95 48.28 C 345.84 47.10 346.87 46.03 347.87 44.94 C 351.10 47.10 353.91 49.79 356.81 52.35 C 358.07 53.29 358.41 54.90 358.97 56.28 C 361.21 57.60 363.66 59.00 363.89 61.89 C 361.22 61.43 357.69 61.93 355.91 59.45 C 355.81 57.99 356.14 56.55 356.24 55.10 C 356.10 54.98 355.81 54.73 355.67 54.61 C 354.63 55.27 353.58 55.91 352.52 56.55 C 351.22 54.30 350.96 51.73 351.43 49.20 C 350.01 49.98 348.62 52.10 346.86 51.12 C 345.71 50.63 345.24 49.39 344.95 48.28 Z" />
<path fill="#b6b6b7" opacity="1.00" d=" M 273.91 47.45 C 275.27 48.03 277.08 48.01 278.05 49.26 C 278.51 51.17 278.87 53.11 279.23 55.05 C 277.97 56.23 276.71 57.41 275.45 58.59 C 275.03 57.01 274.60 55.43 274.28 53.83 C 273.89 51.73 273.95 49.58 273.91 47.45 Z" />
<path fill="#b6b6b7" opacity="1.00" d=" M 300.60 53.33 C 314.35 48.98 330.19 51.44 341.64 60.35 C 344.24 62.05 343.86 65.41 344.18 68.09 C 343.39 68.10 341.80 68.13 341.01 68.15 C 341.11 66.48 341.20 64.82 341.30 63.15 C 340.57 62.64 339.84 62.13 339.11 61.62 C 331.39 54.71 320.50 52.43 310.41 53.57 C 305.98 54.10 301.29 54.91 297.82 57.94 C 294.14 61.12 289.65 63.07 285.63 65.75 C 279.95 69.63 271.75 68.41 267.08 73.98 C 264.02 77.65 260.78 81.16 257.60 84.73 C 255.82 86.57 255.97 89.27 255.68 91.62 C 254.70 91.80 253.73 91.97 252.76 92.13 C 252.56 90.39 252.37 88.64 252.05 86.92 C 251.06 85.36 249.77 84.02 248.59 82.61 C 250.45 81.29 252.71 81.25 254.89 81.34 C 255.11 80.71 255.33 80.07 255.56 79.44 C 254.23 77.76 252.96 76.03 251.77 74.25 C 254.27 73.97 256.77 73.76 259.27 73.53 C 258.21 71.42 257.07 69.34 256.24 67.14 C 258.52 65.56 261.69 67.55 263.99 65.65 C 262.72 63.71 261.71 61.63 261.13 59.38 C 263.72 59.78 266.49 60.95 269.02 59.66 C 268.02 57.41 267.29 55.03 267.74 52.56 C 268.99 53.43 271.09 53.64 271.68 55.19 C 272.40 57.64 272.93 60.14 273.51 62.63 C 275.60 61.42 277.71 60.22 279.81 59.02 C 279.75 59.97 279.69 60.92 279.63 61.88 C 283.09 62.07 286.75 62.25 289.89 60.52 C 293.93 58.85 296.69 55.20 300.60 53.33 Z" />
<path fill="#b6b6b7" opacity="1.00" d=" M 304.62 64.18 C 305.19 61.89 305.86 59.61 306.87 57.47 C 308.24 59.53 308.85 61.91 308.44 64.36 C 307.49 64.32 305.58 64.22 304.62 64.18 Z" />
<path fill="#b6b6b7" opacity="1.00" d=" M 352.55 60.46 C 354.85 61.79 356.84 63.59 358.14 65.93 C 366.15 78.41 369.00 94.08 365.80 108.56 C 364.38 108.22 363.68 107.35 363.69 105.96 C 363.61 101.05 365.31 96.20 364.45 91.28 C 363.46 85.12 362.79 78.70 359.81 73.10 C 357.66 68.74 354.36 65.02 352.55 60.46 Z" />
<path fill="#b6b6b7" opacity="1.00" d=" M 359.83 63.27 C 360.51 63.04 361.87 62.57 362.55 62.34 C 364.19 63.70 367.00 64.48 367.32 66.89 C 366.56 67.88 365.67 68.73 364.65 69.46 C 364.70 68.51 364.76 67.56 364.81 66.61 C 363.55 66.79 362.29 66.98 361.03 67.15 C 360.62 65.86 360.22 64.57 359.83 63.27 Z" />
<path fill="#b6b6b7" opacity="1.00" d=" M 183.52 69.24 C 184.38 69.48 185.24 69.73 186.10 69.98 C 185.68 72.59 185.24 75.20 184.80 77.81 C 183.23 77.97 181.66 78.12 180.09 78.28 C 180.00 77.25 179.91 76.23 179.78 75.21 C 181.48 73.53 182.60 71.42 183.52 69.24 Z" />
<path fill="#b6b6b7" opacity="1.00" d=" M 192.12 69.04 C 193.19 69.38 194.26 69.72 195.32 70.07 C 194.53 72.34 193.86 74.68 192.64 76.75 C 191.08 77.51 189.28 77.27 187.62 77.45 C 188.21 76.28 188.80 75.10 189.41 73.94 C 190.29 72.29 191.20 70.66 192.12 69.04 Z" />
<path fill="#b6b6b7" opacity="1.00" d=" M 174.84 70.03 C 175.50 70.23 176.82 70.64 177.48 70.84 C 177.31 73.57 177.18 76.29 177.07 79.02 C 175.47 79.45 173.87 79.89 172.26 80.31 C 171.80 79.28 171.33 78.26 170.86 77.23 C 171.43 76.97 172.58 76.43 173.16 76.16 C 173.70 74.11 174.27 72.07 174.84 70.03 Z" />
<path fill="#b6b6b7" opacity="1.00" d=" M 200.31 70.07 C 201.42 70.26 202.52 70.47 203.63 70.68 C 202.93 73.03 202.25 75.39 201.60 77.75 C 199.64 77.79 197.68 77.81 195.73 77.83 C 196.80 75.93 197.92 74.06 199.03 72.19 C 199.35 71.66 199.99 70.60 200.31 70.07 Z" />
<path fill="#b6b6b7" opacity="1.00" d=" M 283.09 76.97 C 295.88 71.06 310.24 70.77 324.06 71.51 C 325.91 71.86 327.76 72.25 329.61 72.61 C 332.96 75.55 336.82 78.26 341.46 78.38 C 344.62 81.18 347.67 84.09 350.72 87.01 C 350.47 85.17 350.22 83.33 350.00 81.49 C 352.82 85.50 354.23 90.23 355.20 94.98 C 355.96 93.43 356.74 91.89 357.54 90.36 C 359.83 94.29 360.16 98.85 360.08 103.29 C 358.03 103.32 355.98 103.35 353.94 103.22 C 347.09 101.51 340.03 100.54 332.96 100.92 C 322.88 101.78 313.23 105.23 304.17 109.61 C 304.64 109.74 305.59 110.01 306.07 110.15 C 303.74 110.53 301.39 110.71 299.05 110.90 C 299.92 109.53 300.81 108.16 301.70 106.79 C 299.65 106.97 297.61 107.16 295.57 107.32 C 306.33 100.47 319.04 95.52 332.00 96.69 C 338.14 97.12 344.14 98.56 350.18 99.68 C 346.30 94.18 340.62 90.39 334.78 87.25 C 335.15 87.03 335.89 86.61 336.27 86.40 C 333.06 84.88 329.82 83.43 326.71 81.73 C 329.48 81.76 332.34 81.85 334.92 82.98 C 341.62 85.68 346.00 91.85 352.31 95.20 C 350.28 87.78 343.80 82.87 336.96 80.11 C 332.17 77.94 327.03 76.73 321.86 75.88 C 321.73 76.48 321.47 77.69 321.33 78.30 C 315.10 78.04 308.85 77.83 302.63 77.24 C 306.26 75.59 310.17 74.73 314.10 74.20 C 306.71 74.26 299.27 75.06 292.20 77.30 C 288.64 78.39 285.70 80.81 282.27 82.19 C 279.15 82.73 275.94 82.04 272.80 82.53 C 276.14 80.52 279.51 78.53 283.09 76.97 Z" />
<path fill="#b6b6b7" opacity="1.00" d=" M 205.57 75.78 C 206.59 73.27 208.87 71.78 211.58 72.55 C 210.72 74.79 209.89 77.03 209.01 79.26 C 207.34 79.18 205.67 79.11 204.00 79.04 C 204.52 77.95 205.05 76.87 205.57 75.78 Z" />
<path fill="#b6b6b7" opacity="1.00" d=" M 165.84 72.65 C 166.95 73.03 168.06 73.41 169.17 73.78 C 168.89 76.46 168.67 79.15 168.48 81.84 C 167.12 82.27 165.76 82.71 164.40 83.13 C 163.88 82.21 163.35 81.29 162.82 80.38 C 163.67 79.80 164.52 79.23 165.38 78.65 C 165.50 76.65 165.65 74.65 165.84 72.65 Z" />
<path fill="#b6b6b7" opacity="1.00" d=" M 214.15 77.21 C 215.23 75.09 217.59 75.44 219.52 75.85 C 218.45 78.12 217.34 80.38 216.21 82.62 C 214.65 82.02 213.09 81.42 211.54 80.82 C 212.41 79.61 213.25 78.39 214.15 77.21 Z" />
<path fill="#b6b6b7" opacity="1.00" d=" M 157.51 76.07 C 158.70 76.58 160.70 76.31 161.15 77.84 C 161.23 81.47 161.26 85.86 157.30 87.49 C 156.96 86.93 156.29 85.83 155.95 85.27 C 156.17 84.72 156.61 83.63 156.83 83.08 C 157.74 80.86 157.40 78.40 157.51 76.07 Z" />
<path fill="#b6b6b7" opacity="1.00" d=" M 222.15 80.24 C 222.56 79.92 223.37 79.28 223.77 78.96 C 224.45 79.28 225.82 79.93 226.50 80.25 C 225.37 82.29 224.23 84.33 223.07 86.35 C 221.51 85.33 219.97 84.28 218.42 83.24 C 219.66 82.24 220.90 81.23 222.15 80.24 Z" />
<path fill="#b6b6b7" opacity="1.00" d=" M 150.90 79.60 C 151.94 80.69 153.28 81.60 153.92 83.02 C 153.84 85.39 153.80 87.86 152.87 90.08 C 151.44 91.60 149.19 90.55 147.39 90.67 C 147.89 90.07 148.87 88.88 149.37 88.28 C 149.62 87.98 150.13 87.37 150.38 87.07 C 150.04 84.57 149.89 81.99 150.90 79.60 Z" />
<path fill="#b6b6b7" opacity="1.00" d=" M 270.93 91.93 C 277.43 87.84 284.47 84.54 291.90 82.52 C 290.63 83.98 289.36 85.42 288.08 86.87 C 299.15 83.85 310.77 80.77 322.22 83.70 C 316.52 83.45 310.78 83.39 305.11 84.10 C 299.49 84.80 294.40 87.43 289.14 89.36 C 278.41 92.29 268.24 99.65 263.92 110.14 C 262.90 111.76 261.85 113.35 260.89 115.00 C 260.86 114.47 260.79 113.41 260.76 112.88 C 258.73 115.89 257.48 119.32 256.55 122.81 C 253.28 119.62 249.99 116.38 246.05 114.02 C 242.83 112.08 239.61 110.12 236.74 107.68 C 244.07 108.49 249.60 113.59 255.35 117.67 C 250.84 111.51 245.00 106.08 237.90 103.08 C 234.81 101.60 231.38 102.53 228.15 102.74 C 224.34 103.10 220.65 101.87 217.04 100.82 C 220.39 100.12 223.77 99.61 227.16 99.16 C 219.94 97.52 212.38 98.72 205.74 101.86 C 199.93 104.71 193.38 106.22 188.22 110.27 C 180.94 116.38 175.56 124.74 173.46 134.05 C 173.03 130.98 171.52 127.78 172.62 124.68 C 173.70 121.69 175.31 118.91 177.02 116.24 C 181.73 109.87 188.36 105.21 195.28 101.51 C 199.12 100.59 202.57 98.62 205.73 96.29 C 212.91 96.32 220.13 94.36 227.26 95.95 C 231.03 96.75 234.83 97.57 238.70 97.50 C 234.75 94.79 230.32 92.96 226.02 90.91 C 226.40 91.06 227.17 91.35 227.55 91.50 C 226.64 89.87 225.67 88.27 224.72 86.66 C 226.49 85.88 228.25 85.09 230.07 84.42 C 232.85 83.79 234.22 87.03 234.72 89.26 C 236.15 89.78 237.75 90.04 238.93 91.06 C 240.38 92.18 239.70 94.10 239.81 95.65 C 241.22 96.12 242.64 96.59 244.06 97.06 C 243.53 98.38 243.06 99.71 242.59 101.04 C 245.13 102.83 247.81 104.42 250.63 105.73 C 251.77 103.59 252.87 101.42 254.16 99.35 C 255.15 100.95 256.15 102.54 257.16 104.12 C 261.62 99.92 265.72 95.24 270.93 91.93 Z" />
<path fill="#b6b6b7" opacity="1.00" d=" M 212.72 84.48 C 216.10 85.42 219.27 86.93 222.17 88.89 C 213.22 89.66 204.25 90.33 195.47 92.31 C 195.61 93.13 195.76 93.94 195.90 94.76 C 195.00 96.29 194.04 97.81 192.85 99.14 C 190.83 98.90 189.86 96.45 188.48 95.10 C 188.23 96.45 187.99 97.80 187.74 99.15 C 186.62 99.01 185.50 98.90 184.38 98.79 C 184.19 97.24 184.00 95.68 183.86 94.13 C 183.82 92.77 183.79 91.41 183.75 90.05 C 166.51 92.14 151.12 103.40 142.86 118.53 C 146.02 119.55 149.44 119.90 152.52 118.40 C 153.20 119.15 153.89 119.90 154.59 120.64 C 152.66 121.27 150.73 121.85 148.78 122.36 C 146.80 122.66 144.80 122.88 142.82 123.13 C 144.54 124.42 146.27 125.70 148.02 126.94 C 147.49 127.07 146.42 127.34 145.89 127.48 C 144.00 127.99 142.10 128.50 140.23 129.08 C 142.68 130.81 145.48 131.94 148.44 132.45 C 146.95 132.72 145.46 133.00 143.98 133.32 C 142.52 133.67 141.05 134.02 139.60 134.40 C 141.23 136.61 143.46 138.22 146.30 138.37 C 145.16 138.67 144.03 139.00 142.89 139.27 C 141.47 139.48 140.04 139.61 138.61 139.77 C 140.35 141.82 142.48 143.48 144.91 144.63 C 142.35 145.52 139.69 146.08 137.05 146.70 C 137.51 150.06 138.07 153.41 138.94 156.69 C 137.09 161.16 134.25 165.15 132.55 169.69 C 131.53 172.48 130.12 175.19 127.80 177.12 L 126.82 177.01 C 126.44 175.04 125.99 173.07 125.66 171.09 C 126.86 168.48 129.43 167.77 132.11 167.99 C 131.65 165.63 131.20 163.26 130.75 160.90 C 131.89 161.88 133.02 162.86 134.16 163.84 C 135.04 161.61 136.23 159.41 136.42 156.98 C 136.42 153.67 135.19 150.48 135.25 147.17 C 135.98 145.72 137.06 144.50 138.06 143.23 C 138.52 139.91 138.66 136.54 138.47 133.19 C 139.03 132.62 139.59 132.06 140.15 131.50 C 139.83 130.11 139.52 128.72 139.21 127.34 C 140.20 126.74 141.20 126.15 142.19 125.55 C 141.49 122.21 140.25 118.46 142.23 115.30 C 150.99 99.65 168.07 89.15 185.85 87.63 C 186.35 89.31 186.85 90.99 187.35 92.67 C 188.21 91.72 189.07 90.76 189.94 89.81 C 191.03 90.49 192.12 91.17 193.21 91.85 C 200.78 89.32 208.79 88.57 216.70 87.91 C 215.36 86.79 214.04 85.64 212.72 84.48 Z" />
<path fill="#b6b6b7" opacity="1.00" d=" M 142.20 87.13 C 142.64 86.73 143.52 85.95 143.96 85.56 C 145.00 86.09 146.04 86.64 147.08 87.18 L 147.06 88.01 C 146.82 90.63 147.36 93.64 146.02 95.98 C 143.43 96.75 140.57 96.04 138.02 97.12 C 136.96 95.50 136.26 93.69 135.82 91.82 C 138.19 92.28 140.52 92.92 142.80 93.72 C 143.13 93.29 143.79 92.43 144.12 92.00 C 143.47 90.37 142.84 88.75 142.20 87.13 Z" />
<path fill="#b6b6b7" opacity="1.00" d=" M 367.80 92.51 L 368.72 92.22 C 371.54 93.33 374.14 95.40 374.43 98.64 L 373.20 98.38 C 369.72 98.55 368.94 95.03 367.80 92.51 Z" />
<path fill="#b6b6b7" opacity="1.00" d=" M 200.15 95.31 C 201.62 94.13 203.19 96.72 201.76 97.71 C 200.28 98.91 198.71 96.30 200.15 95.31 Z" />
<path fill="#b6b6b7" opacity="1.00" d=" M 175.28 95.86 C 175.85 96.15 177.01 96.73 177.59 97.02 C 177.26 98.84 177.04 100.68 176.49 102.45 C 175.39 102.66 174.28 102.76 173.18 102.86 C 173.49 101.80 173.81 100.73 174.13 99.67 C 174.50 98.40 174.88 97.13 175.28 95.86 Z" />
<path fill="#b6b6b7" opacity="1.00" d=" M 130.31 99.23 C 132.44 97.60 135.30 100.16 137.70 98.95 C 138.31 98.76 139.52 98.40 140.12 98.21 C 140.46 98.65 141.13 99.53 141.46 99.97 C 140.65 101.09 139.83 102.20 139.00 103.30 C 137.45 102.98 135.91 102.67 134.37 102.33 C 135.35 104.99 135.98 107.88 134.49 110.50 C 132.74 110.15 130.99 109.80 129.24 109.46 C 129.28 110.04 129.35 111.22 129.39 111.81 C 127.16 111.29 124.90 108.38 126.16 106.31 C 128.45 105.94 130.77 106.40 133.05 106.62 C 132.09 104.17 130.99 101.77 130.31 99.23 Z" />
<path fill="#b6b6b7" opacity="1.00" d=" M 169.13 98.15 C 169.72 98.33 170.88 98.68 171.47 98.86 C 171.47 101.02 171.47 103.18 171.47 105.34 C 170.31 105.51 169.15 105.67 167.99 105.83 C 168.08 105.22 168.26 104.00 168.35 103.39 C 168.60 101.64 168.87 99.89 169.13 98.15 Z" />
<path fill="#b6b6b7" opacity="1.00" d=" M 367.56 99.29 C 367.90 99.45 368.57 99.78 368.90 99.94 C 371.19 101.32 372.82 103.55 373.54 106.12 L 372.29 106.08 C 371.51 106.05 369.94 106.00 369.15 105.97 C 368.63 103.74 368.09 101.52 367.56 99.29 Z" />
<path fill="#b6b6b7" opacity="1.00" d=" M 163.91 100.61 C 164.51 100.98 165.70 101.73 166.29 102.10 C 166.35 104.42 166.24 106.74 166.20 109.07 C 164.74 108.84 163.28 108.61 161.82 108.38 C 161.65 109.66 161.56 110.97 161.22 112.22 C 160.11 112.52 158.97 112.69 157.85 112.88 C 157.53 114.41 157.36 116.02 156.57 117.40 C 154.86 117.53 153.14 117.35 151.45 117.09 C 150.76 116.21 150.10 115.32 149.46 114.40 C 151.51 114.33 153.56 114.28 155.61 114.25 C 155.06 112.58 154.50 110.92 153.96 109.25 C 155.71 109.67 157.44 110.14 159.18 110.57 C 159.17 108.74 159.12 106.91 159.12 105.08 C 160.62 105.59 162.12 106.10 163.63 106.62 C 163.72 104.61 163.81 102.61 163.91 100.61 Z" />
<path fill="#b6b6b7" opacity="1.00" d=" M 204.43 106.22 C 206.91 105.18 209.15 106.88 211.30 107.91 C 205.17 110.80 198.88 113.48 193.28 117.35 C 186.15 122.35 181.34 130.38 180.10 138.98 C 178.44 146.67 180.97 154.33 181.31 162.02 C 172.83 165.30 163.91 168.08 156.53 173.55 C 148.14 180.81 140.28 189.94 138.60 201.29 C 135.98 220.64 150.46 240.52 169.58 244.21 C 178.10 245.66 186.69 243.90 195.17 243.05 C 221.30 239.71 247.44 236.54 273.60 233.46 C 276.25 233.13 278.88 232.48 281.28 231.28 C 284.94 225.71 287.76 219.64 290.81 213.73 C 295.30 204.67 300.38 195.93 305.03 186.95 C 306.69 183.74 308.80 180.80 311.09 178.02 C 306.57 187.91 300.83 197.15 295.81 206.78 C 291.42 215.06 287.48 223.59 282.62 231.61 C 279.11 237.28 276.54 243.58 271.92 248.50 C 272.55 246.17 273.24 243.86 273.95 241.56 C 263.29 242.61 252.72 244.40 242.05 245.37 C 232.32 246.24 222.69 248.14 212.91 248.43 C 205.62 248.64 198.50 250.27 191.34 251.51 C 181.96 252.71 172.47 253.92 163.00 253.24 C 158.18 252.97 153.83 250.70 149.75 248.32 C 151.06 246.86 152.39 245.41 153.72 243.97 C 150.78 242.10 147.85 240.20 145.11 238.04 C 133.00 227.90 124.61 212.91 123.70 197.00 C 123.23 190.21 124.53 183.40 126.82 177.01 C 127.30 179.65 127.89 182.28 128.22 184.95 C 128.13 191.46 128.30 198.20 131.56 204.05 C 133.27 196.83 134.47 189.17 139.10 183.11 C 143.79 175.86 150.40 170.31 157.03 164.94 C 150.94 166.86 146.07 171.27 140.01 173.25 C 141.00 171.96 141.92 170.62 142.92 169.34 C 144.20 167.84 145.58 166.44 146.95 165.03 C 145.99 163.71 145.05 162.38 144.09 161.07 C 144.65 159.98 145.21 158.89 145.77 157.81 C 146.22 157.91 147.10 158.12 147.54 158.23 C 148.40 159.07 149.22 159.95 150.04 160.83 C 149.82 161.50 149.38 162.84 149.16 163.51 C 155.84 159.27 162.73 155.23 170.37 152.97 C 170.02 149.80 169.14 146.57 169.72 143.39 C 170.71 140.18 172.46 137.26 173.46 134.05 C 173.17 139.93 173.39 145.82 173.29 151.71 C 173.66 151.71 174.39 151.72 174.75 151.72 C 174.68 147.13 174.41 142.54 174.62 137.96 C 174.87 131.81 177.35 125.91 180.90 120.94 C 186.55 113.28 195.50 108.85 204.43 106.22 M 179.54 247.38 C 174.65 247.95 169.73 247.47 164.83 247.36 C 169.23 251.39 175.52 250.62 180.98 250.11 C 211.06 246.70 241.10 242.96 271.16 239.44 C 274.03 239.25 276.84 238.31 278.61 235.91 C 276.13 235.80 273.64 235.80 271.18 236.09 C 240.65 239.98 210.08 243.57 179.54 247.38 Z" />
<path fill="#b6b6b7" opacity="1.00" d=" M 129.39 111.81 C 130.21 112.63 131.04 113.45 131.78 114.35 C 131.14 118.05 126.34 117.69 123.62 118.99 C 122.95 117.30 122.33 115.60 121.71 113.90 C 123.77 114.06 125.84 114.25 127.90 114.47 C 128.40 113.59 128.89 112.70 129.39 111.81 Z" />
<path fill="#b6b6b7" opacity="1.00" d=" M 271.03 116.77 C 276.08 121.80 281.09 126.88 285.73 132.31 C 293.43 141.42 299.16 152.04 307.12 160.94 C 302.20 149.08 292.17 140.11 287.88 127.90 C 292.16 133.28 295.84 139.09 299.80 144.70 C 305.29 152.52 309.82 161.28 317.06 167.66 C 315.77 170.57 314.51 173.54 312.55 176.08 C 310.87 172.96 309.08 169.90 307.02 167.03 C 298.88 155.82 291.07 144.38 282.62 133.41 C 278.34 128.18 272.85 123.56 271.03 116.77 Z" />
<path fill="#b6b6b7" opacity="1.00" d=" M 124.60 121.21 C 125.62 120.86 126.63 120.49 127.63 120.12 C 127.80 121.57 127.97 123.03 128.14 124.49 C 125.56 125.30 122.99 126.14 120.44 127.04 C 119.94 125.65 118.64 124.22 119.49 122.70 C 121.17 122.13 122.92 121.78 124.60 121.21 Z" />
<path fill="#b6b6b7" opacity="1.00" d=" M 160.54 123.41 C 162.50 123.03 164.12 124.53 165.69 125.47 C 159.35 130.26 160.15 138.78 160.54 145.80 C 158.64 146.96 156.72 148.10 154.80 149.24 C 154.74 150.57 154.70 151.90 154.67 153.24 C 151.80 143.09 154.03 131.70 160.54 123.41 Z" />
<path fill="#b6b6b7" opacity="1.00" d=" M 377.45 126.43 C 379.45 125.54 381.87 122.87 383.95 125.01 C 385.16 126.53 384.67 128.78 384.97 130.62 C 386.52 131.54 388.08 132.44 389.65 133.35 C 389.88 134.04 390.34 135.42 390.58 136.11 C 388.10 136.88 385.45 138.38 382.83 137.28 C 378.52 136.05 375.53 132.57 372.14 129.89 C 369.75 127.84 366.44 128.62 363.59 128.59 C 365.01 127.21 366.41 125.78 368.06 124.67 C 371.20 125.15 374.31 125.86 377.45 126.43 Z" />
<path fill="#b6b6b7" opacity="1.00" d=" M 122.57 129.34 C 123.80 128.98 125.02 128.63 126.24 128.27 C 126.13 129.71 126.13 131.18 125.87 132.61 C 124.29 133.46 122.59 134.02 120.91 134.61 C 120.47 135.36 120.05 136.11 119.62 136.86 C 118.47 135.00 117.61 132.98 117.09 130.86 C 118.92 130.35 120.76 129.88 122.57 129.34 Z" />
<path fill="#b6b6b7" opacity="1.00" d=" M 355.63 135.55 C 358.26 133.96 360.39 131.71 362.74 129.75 C 372.28 135.83 379.40 145.88 380.94 157.19 C 381.92 165.37 381.86 173.91 378.91 181.70 C 375.34 193.58 367.61 203.81 358.59 212.11 C 356.04 211.52 357.79 209.08 359.00 208.06 C 366.95 200.21 373.84 190.79 376.67 179.83 C 379.01 171.89 379.13 163.24 376.44 155.38 C 374.93 151.11 372.18 147.46 369.58 143.82 C 368.33 143.80 367.08 143.79 365.84 143.72 C 359.62 141.67 353.28 139.96 346.86 138.69 C 346.96 137.39 347.06 136.09 347.16 134.79 C 347.61 134.55 348.51 134.09 348.96 133.86 C 351.14 134.50 353.30 135.71 355.63 135.55 Z" />
<path fill="#b6b6b7" opacity="1.00" d=" M 166.38 152.28 C 163.22 146.02 164.07 138.41 167.83 132.61 C 167.96 137.77 168.02 142.94 168.09 148.11 C 168.33 149.76 167.22 151.01 166.38 152.28 Z" />
<path fill="#b6b6b7" opacity="1.00" d=" M 121.74 137.20 C 122.78 136.95 123.82 136.69 124.86 136.43 C 125.01 137.91 125.17 139.38 125.32 140.86 C 122.96 141.99 120.58 143.07 118.21 144.17 C 117.60 142.76 117.00 141.36 116.37 139.97 C 118.14 139.01 119.89 138.01 121.74 137.20 Z" />
<path fill="#b6b6b7" opacity="1.00" d=" M 120.42 146.61 C 121.91 145.95 123.44 145.35 124.97 144.77 C 125.08 146.11 125.19 147.45 125.30 148.79 C 123.10 150.19 120.94 151.64 118.85 153.18 C 118.25 151.64 117.60 150.11 117.28 148.50 C 118.26 147.77 119.31 147.14 120.42 146.61 Z" />
<path fill="#b6b6b7" opacity="1.00" d=" M 143.45 153.48 C 144.70 152.68 146.11 152.19 147.47 151.60 C 147.10 154.09 146.10 156.50 143.66 157.58 C 143.17 157.77 142.19 158.14 141.70 158.33 C 142.26 156.71 142.61 154.99 143.45 153.48 Z" />
<path fill="#b6b6b7" opacity="1.00" d=" M 120.94 154.63 C 122.73 153.87 124.59 153.25 126.45 152.66 C 126.61 156.66 123.66 159.34 120.82 161.63 C 119.51 159.35 117.73 156.22 120.94 154.63 Z" />
<path fill="#b6b6b7" opacity="1.00" d=" M 123.01 162.87 C 124.41 161.70 125.88 160.61 127.37 159.56 C 129.17 162.99 127.02 166.15 125.76 169.28 C 125.06 169.23 123.66 169.12 122.96 169.07 C 122.51 167.06 120.96 164.52 123.01 162.87 Z" />
<path fill="#b6b6b7" opacity="1.00" d=" M 313.56 181.63 C 317.17 175.99 320.03 169.81 324.48 164.74 C 324.36 167.15 323.94 169.57 322.71 171.69 C 319.27 177.93 316.00 184.26 312.46 190.45 C 309.60 195.42 307.88 200.95 304.89 205.85 C 298.54 216.37 294.28 228.10 287.01 238.07 C 284.63 241.78 282.96 245.88 280.76 249.70 C 279.00 252.94 276.83 256.02 275.69 259.56 C 275.03 261.65 276.57 263.59 277.17 265.51 C 279.73 263.28 282.00 260.66 283.36 257.52 C 288.78 245.54 294.50 233.66 301.29 222.39 C 305.56 215.18 309.24 207.65 313.32 200.34 C 318.27 192.40 322.34 183.97 326.33 175.51 C 327.60 172.74 329.31 170.19 331.23 167.82 C 329.75 172.37 327.49 176.63 326.23 181.25 C 325.56 183.14 326.87 185.39 328.67 186.07 C 332.16 186.69 336.03 185.71 339.14 187.84 C 337.16 191.38 334.32 194.37 332.49 197.99 C 333.50 201.89 336.74 204.61 339.45 207.37 C 338.43 205.13 337.38 202.89 336.36 200.65 C 338.59 199.94 340.84 199.29 343.13 198.81 C 343.16 197.52 343.20 196.23 343.20 194.94 C 345.42 199.07 347.07 203.74 350.79 206.82 C 347.94 208.47 345.09 210.10 342.22 211.70 C 346.96 218.10 351.56 224.62 355.52 231.55 C 356.91 234.38 359.35 236.39 362.35 237.34 C 362.45 233.09 362.46 228.53 365.37 225.10 C 364.66 222.81 363.88 220.55 363.09 218.30 C 363.63 218.39 364.72 218.58 365.26 218.68 C 367.90 224.80 371.16 230.71 373.13 237.09 C 374.23 241.04 371.65 244.47 369.11 247.17 C 367.17 249.25 365.64 251.85 363.20 253.39 C 359.58 254.44 355.73 253.81 352.03 253.68 C 345.29 253.01 338.22 252.48 332.22 249.00 C 336.11 247.27 340.38 247.15 344.56 247.16 C 342.31 245.36 339.96 243.54 337.09 242.89 C 328.39 240.71 319.29 240.30 310.39 241.26 C 305.36 241.81 300.25 241.48 295.27 242.42 C 293.26 242.75 292.42 244.82 291.59 246.42 C 288.90 252.25 286.81 258.33 284.32 264.25 C 283.49 266.34 282.10 268.48 279.71 268.92 C 276.00 269.74 271.47 270.17 268.28 267.70 C 266.66 263.07 268.64 258.22 271.50 254.55 C 287.26 231.27 298.65 205.43 313.56 181.63 M 323.93 184.10 C 324.79 187.30 326.58 190.17 329.29 192.11 C 329.19 188.62 326.11 186.43 323.93 184.10 M 312.00 208.04 C 308.32 214.63 304.40 221.08 301.08 227.86 C 312.75 226.93 324.89 226.19 335.64 221.13 C 335.17 219.06 334.97 216.89 334.02 214.98 C 331.42 211.90 327.63 210.08 325.14 206.88 C 322.17 203.42 320.87 198.96 319.56 194.68 C 316.51 198.82 314.54 203.60 312.00 208.04 M 314.38 231.19 C 308.52 231.96 302.53 232.01 296.86 233.84 C 297.16 234.37 297.77 235.44 298.08 235.97 C 307.46 235.10 316.85 233.82 325.89 231.10 C 327.48 230.58 328.95 229.78 330.38 228.94 C 324.94 228.79 319.73 230.55 314.38 231.19 Z" />
<path fill="#b6b6b7" opacity="1.00" d=" M 130.09 177.45 C 132.12 177.31 134.15 177.17 136.18 177.03 C 134.80 179.34 133.57 181.73 132.20 184.04 C 131.47 181.85 130.76 179.66 130.09 177.45 Z" />
</g>
<g id="#4a4a4aff">
<path fill="#4a4a4a" opacity="1.00" d=" M 285.63 65.75 C 289.65 63.07 294.14 61.12 297.82 57.94 C 298.25 59.17 298.68 60.39 299.11 61.62 C 300.20 61.17 301.29 60.71 302.39 60.26 C 302.47 62.15 302.55 64.04 302.60 65.93 C 300.84 65.30 299.08 64.63 297.33 63.99 C 297.45 65.55 297.58 67.12 297.71 68.69 C 296.01 68.49 294.32 68.29 292.63 68.10 C 293.10 69.34 293.58 70.58 294.08 71.81 C 303.77 68.47 314.28 68.56 324.06 71.51 C 310.24 70.77 295.88 71.06 283.09 76.97 C 280.72 75.82 278.36 74.65 276.01 73.46 C 273.17 77.45 270.10 81.27 267.35 85.32 C 267.74 85.19 268.52 84.94 268.91 84.82 C 263.65 89.29 258.39 93.87 254.16 99.35 C 252.87 101.42 251.77 103.59 250.63 105.73 C 247.81 104.42 245.13 102.83 242.59 101.04 C 243.06 99.71 243.53 98.38 244.06 97.06 C 244.76 95.46 245.92 94.11 246.94 92.70 C 248.33 92.61 249.72 92.52 251.12 92.42 C 250.17 91.82 249.21 91.23 248.27 90.64 C 249.53 89.41 250.79 88.17 252.05 86.92 C 252.37 88.64 252.56 90.39 252.76 92.13 C 253.73 91.97 254.70 91.80 255.68 91.62 C 255.97 89.27 255.82 86.57 257.60 84.73 C 260.78 81.16 264.02 77.65 267.08 73.98 C 271.75 68.41 279.95 69.63 285.63 65.75 Z" />
<path fill="#4a4a4a" opacity="1.00" d=" M 363.92 73.31 C 364.14 72.19 364.33 71.05 364.56 69.93 C 366.30 70.68 368.09 71.38 369.67 72.46 C 369.61 73.87 368.84 75.09 368.25 76.32 C 368.07 75.38 367.89 74.44 367.71 73.50 C 366.45 73.42 365.18 73.39 363.92 73.31 Z" />
<path fill="#4a4a4a" opacity="1.00" d=" M 329.61 72.61 C 334.34 72.42 338.25 75.19 341.46 78.38 C 336.82 78.26 332.96 75.55 329.61 72.61 Z" />
<path fill="#4a4a4a" opacity="1.00" d=" M 365.89 78.26 C 366.57 78.31 367.93 78.39 368.62 78.44 C 370.28 78.87 371.63 80.04 373.09 80.91 C 372.26 81.60 371.43 82.31 370.62 83.02 C 369.03 81.45 367.44 79.88 365.89 78.26 Z" />
<path fill="#4a4a4a" opacity="1.00" d=" M 356.14 86.07 C 358.18 86.67 357.58 88.52 356.97 90.00 C 355.04 89.28 355.09 87.57 356.14 86.07 Z" />
<path fill="#4a4a4a" opacity="1.00" d=" M 373.38 90.45 C 371.84 89.03 368.23 88.32 369.05 85.58 C 370.88 86.80 374.27 87.55 373.38 90.45 Z" />
<path fill="#4a4a4a" opacity="1.00" d=" M 195.47 92.31 C 204.25 90.33 213.22 89.66 222.17 88.89 C 223.41 89.63 224.70 90.31 226.02 90.91 C 230.32 92.96 234.75 94.79 238.70 97.50 C 234.83 97.57 231.03 96.75 227.26 95.95 C 220.13 94.36 212.91 96.32 205.73 96.29 C 202.57 98.62 199.12 100.59 195.28 101.51 C 194.83 101.43 193.93 101.25 193.47 101.16 C 194.67 100.58 195.86 99.96 197.05 99.34 C 196.64 97.82 196.24 96.30 195.90 94.76 C 195.76 93.94 195.61 93.13 195.47 92.31 M 200.15 95.31 C 198.71 96.30 200.28 98.91 201.76 97.71 C 203.19 96.72 201.62 94.13 200.15 95.31 Z" />
<path fill="#4a4a4a" opacity="1.00" d=" M 180.03 98.29 C 180.49 97.07 181.01 95.86 181.68 94.73 C 182.16 94.76 183.14 94.84 183.63 94.87 C 183.06 96.67 182.51 98.48 181.98 100.29 C 181.05 100.47 180.12 100.65 179.19 100.83 C 179.46 99.98 179.74 99.14 180.03 98.29 Z" />
<path fill="#4a4a4a" opacity="1.00" d=" M 370.49 112.16 C 370.42 111.87 370.28 111.29 370.20 111.00 C 371.52 112.35 373.19 113.58 373.73 115.47 C 373.63 116.63 373.50 117.79 373.29 118.94 C 373.03 119.20 372.51 119.73 372.25 119.99 C 371.54 117.41 371.01 114.78 370.49 112.16 Z" />
<path fill="#4a4a4a" opacity="1.00" d=" M 168.67 127.69 C 170.29 122.76 172.90 118.26 175.62 113.86 C 175.97 114.45 176.67 115.64 177.02 116.24 C 175.31 118.91 173.70 121.69 172.62 124.68 C 171.52 127.78 173.03 130.98 173.46 134.05 C 172.46 137.26 170.71 140.18 169.72 143.39 C 169.14 146.57 170.02 149.80 170.37 152.97 C 162.73 155.23 155.84 159.27 149.16 163.51 C 149.38 162.84 149.82 161.50 150.04 160.83 C 151.71 159.21 153.40 157.61 155.08 156.01 C 154.98 155.32 154.78 153.93 154.67 153.24 C 154.70 151.90 154.74 150.57 154.80 149.24 C 156.72 148.10 158.64 146.96 160.54 145.80 C 160.15 138.78 159.35 130.26 165.69 125.47 C 166.69 126.19 167.68 126.94 168.67 127.69 M 166.38 152.28 C 167.22 151.01 168.33 149.76 168.09 148.11 C 168.02 142.94 167.96 137.77 167.83 132.61 C 164.07 138.41 163.22 146.02 166.38 152.28 Z" />
<path fill="#4a4a4a" opacity="1.00" d=" M 142.82 123.13 C 144.80 122.88 146.80 122.66 148.78 122.36 C 149.46 123.66 150.17 124.94 150.88 126.23 C 149.93 126.47 148.97 126.71 148.02 126.94 C 146.27 125.70 144.54 124.42 142.82 123.13 Z" />
<path fill="#4a4a4a" opacity="1.00" d=" M 140.23 129.08 C 142.10 128.50 144.00 127.99 145.89 127.48 C 146.76 129.12 147.61 130.78 148.44 132.45 C 145.48 131.94 142.68 130.81 140.23 129.08 Z" />
<path fill="#4a4a4a" opacity="1.00" d=" M 325.61 161.46 C 330.28 150.61 337.75 141.02 341.20 129.62 C 342.22 131.00 344.80 132.38 343.97 134.41 C 338.21 144.30 333.15 154.59 327.41 164.49 C 326.57 163.60 324.58 162.94 325.61 161.46 Z" />
<path fill="#4a4a4a" opacity="1.00" d=" M 139.60 134.40 C 141.05 134.02 142.52 133.67 143.98 133.32 C 145.18 134.87 146.31 136.46 147.43 138.07 L 146.30 138.37 C 143.46 138.22 141.23 136.61 139.60 134.40 Z" />
<path fill="#4a4a4a" opacity="1.00" d=" M 329.64 166.34 C 335.54 155.86 340.42 144.77 347.16 134.79 C 347.06 136.09 346.96 137.39 346.86 138.69 C 344.65 141.70 342.71 144.89 341.10 148.25 C 337.97 154.86 333.74 160.92 331.23 167.82 C 330.83 167.45 330.04 166.71 329.64 166.34 Z" />
<path fill="#4a4a4a" opacity="1.00" d=" M 138.61 139.77 C 140.04 139.61 141.47 139.48 142.89 139.27 C 144.07 140.28 145.26 141.27 146.45 142.27 C 146.06 142.86 145.30 144.04 144.91 144.63 C 142.48 143.48 140.35 141.82 138.61 139.77 Z" />
<path fill="#4a4a4a" opacity="1.00" d=" M 141.17 148.38 C 142.90 147.98 144.64 147.59 146.39 147.26 C 145.52 149.30 143.83 150.73 142.05 151.97 C 141.75 150.77 141.46 149.58 141.17 148.38 Z" />
<path fill="#4a4a4a" opacity="1.00" d=" M 132.55 169.69 C 134.25 165.15 137.09 161.16 138.94 156.69 C 139.36 157.54 139.78 158.40 140.20 159.26 C 141.64 161.89 141.41 164.93 141.03 167.80 C 141.66 168.31 142.29 168.83 142.92 169.34 C 141.92 170.62 141.00 171.96 140.01 173.25 C 138.69 174.46 137.37 175.69 136.18 177.03 C 134.15 177.17 132.12 177.31 130.09 177.45 C 129.52 177.37 128.37 177.20 127.80 177.12 C 130.12 175.19 131.53 172.48 132.55 169.69 Z" />
<path fill="#4a4a4a" opacity="1.00" d=" M 314.38 231.19 C 319.73 230.55 324.94 228.79 330.38 228.94 C 328.95 229.78 327.48 230.58 325.89 231.10 C 316.85 233.82 307.46 235.10 298.08 235.97 C 297.77 235.44 297.16 234.37 296.86 233.84 C 302.53 232.01 308.52 231.96 314.38 231.19 Z" />
<path fill="#4a4a4a" opacity="1.00" d=" M 179.54 247.38 C 210.08 243.57 240.65 239.98 271.18 236.09 C 273.64 235.80 276.13 235.80 278.61 235.91 C 276.84 238.31 274.03 239.25 271.16 239.44 C 241.10 242.96 211.06 246.70 180.98 250.11 C 175.52 250.62 169.23 251.39 164.83 247.36 C 169.73 247.47 174.65 247.95 179.54 247.38 Z" />
</g>
<g id="#010101ff">
<path fill="#010101" opacity="1.00" d=" M 276.01 73.46 C 278.36 74.65 280.72 75.82 283.09 76.97 C 279.51 78.53 276.14 80.52 272.80 82.53 C 271.49 83.27 270.21 84.06 268.91 84.82 C 268.52 84.94 267.74 85.19 267.35 85.32 C 270.10 81.27 273.17 77.45 276.01 73.46 Z" />
<path fill="#010101" opacity="1.00" d=" M 175.62 113.86 C 178.95 106.89 186.81 104.00 193.47 101.16 C 193.93 101.25 194.83 101.43 195.28 101.51 C 188.36 105.21 181.73 109.87 177.02 116.24 C 176.67 115.64 175.97 114.45 175.62 113.86 Z" />
<path fill="#010101" opacity="1.00" d=" M 140.20 159.26 C 140.58 159.02 141.33 158.56 141.70 158.33 C 142.19 158.14 143.17 157.77 143.66 157.58 C 144.19 157.64 145.25 157.75 145.77 157.81 C 145.21 158.89 144.65 159.98 144.09 161.07 C 145.05 162.38 145.99 163.71 146.95 165.03 C 145.58 166.44 144.20 167.84 142.92 169.34 C 142.29 168.83 141.66 168.31 141.03 167.80 C 141.41 164.93 141.64 161.89 140.20 159.26 Z" />
<path fill="#010101" opacity="1.00" d=" M 126.82 177.01 L 127.80 177.12 C 128.37 177.20 129.52 177.37 130.09 177.45 C 130.76 179.66 131.47 181.85 132.20 184.04 C 131.92 184.50 131.38 185.43 131.11 185.89 C 130.39 185.65 128.94 185.18 128.22 184.95 C 127.89 182.28 127.30 179.65 126.82 177.01 Z" />
</g>
<g id="#3173beff">
<path fill="#3173be" opacity="1.00" d=" M 289.14 89.36 C 294.40 87.43 299.49 84.80 305.11 84.10 C 310.78 83.39 316.52 83.45 322.22 83.70 C 326.50 84.53 330.62 85.98 334.78 87.25 C 340.62 90.39 346.30 94.18 350.18 99.68 C 344.14 98.56 338.14 97.12 332.00 96.69 C 319.04 95.52 306.33 100.47 295.57 107.32 C 297.61 107.16 299.65 106.97 301.70 106.79 C 300.81 108.16 299.92 109.53 299.05 110.90 C 301.39 110.71 303.74 110.53 306.07 110.15 C 310.02 109.31 313.90 108.03 317.96 107.77 C 325.65 106.98 333.41 109.03 340.17 112.64 C 341.29 114.80 343.18 117.16 342.27 119.72 C 340.93 123.89 339.50 128.04 338.22 132.23 C 336.78 129.12 335.31 126.02 333.83 122.93 C 335.23 121.49 336.63 120.06 338.04 118.64 C 337.03 116.44 336.24 114.06 334.62 112.22 C 330.48 110.84 325.99 111.16 321.70 111.46 C 318.77 111.60 316.83 114.05 314.51 115.50 C 312.15 117.24 308.87 117.56 306.99 119.95 C 304.15 123.53 301.48 127.25 298.54 130.74 C 300.58 130.07 302.63 129.38 304.69 128.77 C 303.26 131.57 301.01 133.79 299.22 136.33 C 299.03 138.77 300.59 140.96 301.45 143.15 C 301.04 143.54 300.22 144.32 299.80 144.70 C 295.84 139.09 292.16 133.28 287.88 127.90 C 284.86 120.99 280.94 114.49 275.68 109.05 C 273.68 111.21 269.15 113.24 271.03 116.77 C 272.85 123.56 278.34 128.18 282.62 133.41 C 291.07 144.38 298.88 155.82 307.02 167.03 C 309.08 169.90 310.87 172.96 312.55 176.08 C 312.18 176.56 311.45 177.53 311.09 178.02 C 308.80 180.80 306.69 183.74 305.03 186.95 C 300.38 195.93 295.30 204.67 290.81 213.73 C 287.76 219.64 284.94 225.71 281.28 231.28 C 273.07 231.45 264.97 232.83 256.83 233.76 C 240.36 235.70 223.92 237.81 207.44 239.58 C 212.05 236.00 218.14 237.19 223.51 236.10 C 228.99 235.01 234.51 234.00 240.13 234.16 C 239.99 233.80 239.71 233.09 239.57 232.74 C 236.78 232.23 233.70 232.36 231.23 230.84 C 230.66 229.37 230.35 227.83 230.02 226.29 C 227.97 225.58 225.92 224.90 223.86 224.23 C 226.68 223.97 229.49 223.70 232.31 223.41 C 230.82 220.92 229.09 218.54 228.06 215.82 C 227.46 213.39 227.92 210.87 228.03 208.42 C 229.21 208.07 230.40 207.72 231.59 207.38 C 231.68 204.02 231.48 200.60 232.32 197.33 C 233.76 194.55 236.72 193.03 238.86 190.84 C 242.68 187.49 244.15 182.37 247.54 178.67 C 248.76 177.22 250.18 175.93 251.17 174.31 C 252.02 171.57 251.89 168.60 252.93 165.92 C 254.53 162.96 257.47 161.08 259.35 158.34 C 260.34 153.80 259.74 149.08 260.08 144.46 C 261.29 144.10 262.51 143.73 263.73 143.37 C 263.73 141.12 263.73 138.87 263.75 136.62 C 262.47 136.27 261.19 135.92 259.91 135.57 C 259.91 133.81 259.76 132.04 260.01 130.29 C 261.07 128.28 262.79 126.74 264.28 125.06 C 263.33 124.44 262.39 123.81 261.44 123.18 C 260.38 124.88 259.31 126.57 258.22 128.25 C 258.37 126.44 258.48 124.63 258.69 122.83 C 259.46 120.23 260.19 117.62 260.89 115.00 C 261.85 113.35 262.90 111.76 263.92 110.14 C 266.89 107.03 269.86 103.93 272.92 100.90 C 277.66 96.20 283.55 92.92 289.14 89.36 Z" />
<path fill="#3173be" opacity="1.00" d=" M 312.00 208.04 C 314.54 203.60 316.51 198.82 319.56 194.68 C 320.87 198.96 322.17 203.42 325.14 206.88 C 327.63 210.08 331.42 211.90 334.02 214.98 C 334.97 216.89 335.17 219.06 335.64 221.13 C 324.89 226.19 312.75 226.93 301.08 227.86 C 304.40 221.08 308.32 214.63 312.00 208.04 Z" />
</g>
<g id="#377ecfff">
<path fill="#377ecf" opacity="1.00" d=" M 196.22 118.22 C 207.16 110.98 220.97 106.31 234.03 109.97 C 243.29 112.31 250.66 118.73 257.26 125.30 C 257.75 124.49 258.23 123.67 258.69 122.83 C 258.48 124.63 258.37 126.44 258.22 128.25 C 259.31 126.57 260.38 124.88 261.44 123.18 C 262.39 123.81 263.33 124.44 264.28 125.06 C 262.79 126.74 261.07 128.28 260.01 130.29 C 259.76 132.04 259.91 133.81 259.91 135.57 C 261.19 135.92 262.47 136.27 263.75 136.62 C 263.73 138.87 263.73 141.12 263.73 143.37 C 262.51 143.73 261.29 144.10 260.08 144.46 C 259.74 149.08 260.34 153.80 259.35 158.34 C 257.47 161.08 254.53 162.96 252.93 165.92 C 251.89 168.60 252.02 171.57 251.17 174.31 C 250.18 175.93 248.76 177.22 247.54 178.67 C 244.15 182.37 242.68 187.49 238.86 190.84 C 236.72 193.03 233.76 194.55 232.32 197.33 C 231.48 200.60 231.68 204.02 231.59 207.38 C 230.40 207.72 229.21 208.07 228.03 208.42 C 227.92 210.87 227.46 213.39 228.06 215.82 C 229.09 218.54 230.82 220.92 232.31 223.41 C 229.49 223.70 226.68 223.97 223.86 224.23 C 225.92 224.90 227.97 225.58 230.02 226.29 C 230.35 227.83 230.66 229.37 231.23 230.84 C 233.70 232.36 236.78 232.23 239.57 232.74 C 239.71 233.09 239.99 233.80 240.13 234.16 C 234.51 234.00 228.99 235.01 223.51 236.10 C 218.14 237.19 212.05 236.00 207.44 239.58 C 198.63 240.84 189.80 241.88 180.97 242.98 C 173.54 243.92 165.83 242.44 159.35 238.68 C 144.96 230.61 136.92 212.14 142.17 196.28 C 145.70 186.48 153.29 178.56 161.80 172.81 C 168.46 168.36 176.33 166.45 183.80 163.84 C 182.67 154.99 181.09 145.92 182.95 137.05 C 184.50 129.25 189.63 122.52 196.22 118.22 Z" />
<path fill="#377ecf" opacity="1.00" d=" M 314.51 115.50 C 316.83 114.05 318.77 111.60 321.70 111.46 C 325.99 111.16 330.48 110.84 334.62 112.22 C 336.24 114.06 337.03 116.44 338.04 118.64 C 336.63 120.06 335.23 121.49 333.83 122.93 C 335.31 126.02 336.78 129.12 338.22 132.23 C 336.08 137.83 333.04 143.00 330.36 148.34 C 328.07 152.61 326.14 157.20 322.77 160.77 C 320.72 162.94 318.58 165.07 317.06 167.66 C 309.82 161.28 305.29 152.52 299.80 144.70 C 300.22 144.32 301.04 143.54 301.45 143.15 C 300.59 140.96 299.03 138.77 299.22 136.33 C 301.01 133.79 303.26 131.57 304.69 128.77 C 302.63 129.38 300.58 130.07 298.54 130.74 C 301.48 127.25 304.15 123.53 306.99 119.95 C 308.87 117.56 312.15 117.24 314.51 115.50 Z" />
<path fill="#377ecf" opacity="1.00" d=" M 346.86 138.69 C 353.28 139.96 359.62 141.67 365.84 143.72 C 369.59 146.84 373.19 150.49 374.88 155.18 C 377.59 162.64 377.94 170.96 375.75 178.60 C 372.41 190.68 365.38 201.99 355.24 209.48 C 353.74 208.60 352.24 207.75 350.79 206.82 C 347.07 203.74 345.42 199.07 343.20 194.94 C 342.00 192.49 340.63 190.12 339.14 187.84 C 336.03 185.71 332.16 186.69 328.67 186.07 C 326.87 185.39 325.56 183.14 326.23 181.25 C 327.49 176.63 329.75 172.37 331.23 167.82 C 333.74 160.92 337.97 154.86 341.10 148.25 C 342.71 144.89 344.65 141.70 346.86 138.69 Z" />
</g>
</svg>
