<?xml version="1.0" encoding="UTF-8" ?>
<!DOCTYPE svg PUBLIC "-//W3C//DTD SVG 1.1//EN" "http://www.w3.org/Graphics/SVG/1.1/DTD/svg11.dtd">
<svg width="500pt" height="364pt" viewBox="0 0 500 364" version="1.1" xmlns="http://www.w3.org/2000/svg">
<g id="#2c85b1ff">
<path fill="#2c85b1" opacity="1.00" d=" M 0.00 0.00 L 500.00 0.00 L 500.00 122.39 C 499.15 127.02 499.11 131.75 498.86 136.44 C 497.98 131.95 494.03 128.93 493.40 124.40 C 493.21 124.73 492.84 125.41 492.66 125.75 C 491.88 125.32 491.12 124.89 490.36 124.47 C 490.25 125.76 490.15 127.05 490.05 128.35 C 489.10 126.85 488.15 125.35 487.21 123.85 C 486.44 123.74 485.68 123.62 484.92 123.51 C 484.78 121.35 484.63 119.19 484.42 117.04 C 484.30 117.38 484.04 118.07 483.92 118.41 C 482.42 114.50 480.07 110.57 476.05 108.85 C 470.72 106.15 464.56 106.94 459.00 108.41 C 459.76 101.60 459.25 94.70 457.89 88.00 C 456.90 83.20 454.50 78.51 450.41 75.66 C 444.97 71.93 438.90 68.20 432.03 68.65 C 418.91 68.24 407.90 79.05 404.30 91.03 C 403.40 89.86 402.51 88.69 401.61 87.52 C 402.38 85.40 403.15 83.29 403.92 81.18 C 403.36 81.25 402.23 81.38 401.66 81.45 C 400.95 82.55 400.25 83.66 399.56 84.77 C 399.10 84.38 398.19 83.59 397.74 83.20 C 396.58 83.83 395.41 84.47 394.26 85.10 C 393.30 84.52 392.34 83.94 391.39 83.36 C 391.30 82.49 391.21 81.61 391.13 80.74 C 389.97 80.57 388.81 80.40 387.65 80.24 C 387.45 81.52 387.26 82.79 387.07 84.07 C 386.18 83.30 385.29 82.53 384.41 81.76 C 384.79 80.80 385.16 79.83 385.55 78.87 C 384.15 79.71 382.76 80.55 381.37 81.38 C 380.19 80.02 379.07 78.59 377.69 77.43 C 376.37 77.76 375.12 78.30 373.86 78.78 C 372.84 77.86 371.83 76.95 370.82 76.03 C 370.62 76.88 370.43 77.73 370.25 78.58 C 368.62 78.44 366.99 78.29 365.37 78.14 C 365.50 76.92 365.64 75.69 365.78 74.47 C 364.23 75.12 362.67 75.77 361.12 76.42 C 361.60 75.32 362.09 74.23 362.58 73.14 C 360.78 73.68 358.95 74.86 357.02 74.38 C 355.77 73.61 354.65 72.66 353.51 71.74 C 352.43 71.85 351.36 71.96 350.30 72.08 C 350.79 71.15 351.29 70.22 351.79 69.29 C 351.19 69.32 349.99 69.38 349.39 69.42 C 348.86 70.82 348.34 72.22 347.82 73.63 C 347.39 72.22 346.96 70.82 346.54 69.41 C 345.95 69.79 345.37 70.17 344.80 70.54 C 343.52 70.08 342.24 69.61 340.97 69.14 C 339.29 69.86 337.60 70.57 335.92 71.28 C 335.26 70.62 334.60 69.96 333.95 69.31 C 335.37 68.94 336.80 68.58 338.23 68.20 C 337.71 67.64 337.18 67.10 336.63 66.57 C 333.74 67.45 330.98 68.69 328.10 69.56 C 328.58 68.42 329.07 67.28 329.56 66.14 C 328.11 66.23 326.68 66.31 325.24 66.39 C 325.79 66.91 326.90 67.95 327.45 68.47 C 323.32 69.33 320.17 66.34 316.54 65.05 C 316.63 65.92 316.73 66.79 316.83 67.66 C 314.82 67.65 312.82 67.64 310.81 67.63 C 311.55 66.27 312.30 64.92 313.05 63.56 C 312.33 63.40 310.89 63.10 310.17 62.95 C 310.60 63.35 311.45 64.17 311.87 64.58 C 311.04 65.02 310.21 65.46 309.39 65.91 C 309.09 65.16 308.49 63.68 308.19 62.94 C 306.25 64.81 304.31 66.70 302.39 68.59 C 300.72 66.78 298.59 65.52 296.41 64.44 C 296.17 61.75 296.81 58.46 294.50 56.48 C 292.18 53.75 288.42 53.94 285.18 53.88 C 286.04 49.77 287.50 44.99 284.80 41.24 C 281.44 35.80 274.07 34.10 268.32 36.43 C 262.73 37.94 259.00 42.49 255.09 46.40 C 251.21 45.52 247.22 43.98 243.23 45.28 C 238.00 46.45 234.36 51.13 233.78 56.35 C 230.65 56.30 226.97 56.22 224.78 58.88 C 224.12 60.41 223.76 62.05 223.25 63.63 L 222.74 63.90 C 222.79 62.46 222.85 61.03 222.92 59.59 C 221.19 60.64 219.31 61.38 217.36 61.88 C 217.13 61.29 216.68 60.11 216.45 59.52 C 215.01 60.34 213.57 61.15 212.14 61.96 C 211.95 60.68 211.78 59.41 211.61 58.14 C 211.10 60.36 210.33 62.51 209.15 64.47 C 208.71 62.55 208.34 60.61 208.00 58.66 C 207.64 60.30 207.27 61.93 206.90 63.56 C 204.98 63.50 203.05 63.46 201.12 63.44 C 200.17 64.92 199.12 66.34 198.03 67.72 C 197.72 66.61 197.42 65.50 197.12 64.39 C 195.86 63.19 194.59 61.99 193.33 60.80 C 190.98 63.19 188.51 65.44 185.94 67.58 C 184.48 66.63 183.12 64.94 181.19 65.37 C 179.93 66.16 178.83 67.17 177.70 68.11 C 177.31 67.25 176.93 66.39 176.56 65.53 C 175.48 66.54 174.43 67.57 173.36 68.58 C 173.73 67.31 174.11 66.04 174.49 64.77 C 171.46 66.64 168.50 68.60 165.58 70.62 C 163.73 69.27 161.73 68.13 159.64 67.18 C 159.62 69.10 159.84 71.41 157.26 71.61 C 157.30 70.45 157.34 69.29 157.38 68.13 C 154.90 69.65 152.54 72.24 149.36 71.68 C 150.53 70.47 151.73 69.29 152.92 68.10 C 149.54 67.96 147.78 70.81 146.12 73.28 C 146.01 71.95 145.91 70.62 145.82 69.30 C 144.63 72.24 142.04 74.10 139.47 75.75 C 139.43 73.87 138.96 72.04 137.65 70.63 C 137.67 72.00 137.71 73.37 137.76 74.74 C 136.94 74.74 136.11 74.74 135.29 74.74 C 135.10 75.34 134.73 76.55 134.54 77.15 C 127.15 71.18 116.56 70.88 108.33 75.28 C 102.48 66.73 93.62 59.69 83.09 58.39 C 74.52 57.16 65.41 62.70 63.04 71.10 C 62.07 76.08 63.34 81.16 65.11 85.82 C 60.06 85.21 54.08 85.12 50.51 89.40 C 47.11 92.82 47.46 97.96 49.06 102.13 C 46.42 102.29 43.40 102.36 41.60 104.64 C 38.66 107.35 38.12 111.44 37.39 115.15 C 37.01 116.55 36.78 117.99 36.45 119.41 C 33.97 121.88 30.52 121.34 27.38 121.61 C 26.07 123.24 25.22 125.17 23.91 126.79 C 22.51 127.60 20.85 127.77 19.32 128.21 C 19.41 129.30 19.50 130.38 19.59 131.47 C 15.21 133.66 10.05 134.47 6.59 138.20 C 5.04 136.15 4.15 133.74 3.55 131.26 C 2.85 132.87 2.09 134.46 1.35 136.06 C 0.58 125.06 0.82 114.02 0.63 103.00 C 0.41 95.49 1.10 87.93 0.00 80.47 L 0.00 0.00 Z" />
<path fill="#2c85b1" opacity="1.00" d=" M 269.06 38.06 C 274.32 35.62 281.05 37.93 283.82 42.98 C 286.64 47.09 283.30 51.84 282.61 56.11 C 285.55 55.84 288.86 54.55 291.57 56.39 C 294.34 57.56 295.85 60.87 294.57 63.67 C 293.43 65.36 291.98 66.81 290.68 68.36 C 293.30 67.77 296.04 66.03 298.75 67.15 C 301.89 69.40 302.12 74.00 299.98 77.03 C 294.42 78.53 288.63 77.84 282.96 78.34 C 272.37 79.21 261.73 78.98 251.13 79.60 C 241.74 80.32 232.19 80.06 223.00 77.87 C 220.85 77.34 218.29 76.34 217.70 73.94 C 216.46 70.54 219.05 66.00 222.88 66.20 C 224.99 65.99 227.41 67.03 229.23 65.53 C 227.87 64.30 225.58 63.73 224.96 61.91 C 226.23 57.03 232.12 58.01 235.95 58.13 C 236.02 55.56 235.60 52.61 237.67 50.65 C 241.96 45.19 250.02 46.06 255.68 48.66 C 259.21 44.13 263.36 39.71 269.06 38.06 Z" />
<path fill="#2c85b1" opacity="1.00" d=" M 64.32 72.09 C 65.95 65.43 72.26 60.51 78.98 59.90 C 87.22 59.36 95.18 63.28 101.03 68.88 C 103.74 71.29 105.64 74.42 108.07 77.10 C 110.74 76.20 113.12 74.46 115.98 74.09 C 122.92 72.77 131.05 74.48 135.38 80.47 C 136.50 82.16 138.35 84.36 137.08 86.44 C 135.85 89.05 134.69 91.69 133.74 94.42 C 133.74 92.99 133.73 91.57 133.71 90.15 C 133.14 90.18 132.01 90.23 131.44 90.26 C 131.11 91.44 130.79 92.62 130.47 93.81 C 129.75 93.60 129.03 93.39 128.31 93.18 C 128.78 92.38 129.24 91.59 129.71 90.79 C 128.50 90.59 127.29 90.39 126.09 90.19 C 124.94 91.33 123.79 92.47 122.64 93.60 C 121.12 92.63 119.65 91.53 117.93 90.91 C 116.29 91.24 114.73 91.83 113.16 92.39 C 111.47 91.88 109.78 91.35 108.10 90.80 C 109.02 91.94 109.94 93.08 110.86 94.22 C 110.63 94.56 110.15 95.23 109.92 95.57 C 108.24 94.98 106.58 94.24 104.79 94.05 C 101.85 94.05 99.01 95.32 96.05 94.98 C 93.69 94.65 91.43 93.84 89.17 93.13 C 88.57 94.40 87.98 95.67 87.40 96.95 C 84.53 97.38 81.66 97.06 79.08 95.67 C 78.88 96.62 78.67 97.56 78.47 98.50 C 77.32 99.24 76.17 99.98 75.03 100.73 C 74.25 100.37 73.47 100.01 72.69 99.66 C 69.95 102.64 66.34 104.84 64.39 108.49 C 64.12 107.83 63.85 107.18 63.58 106.52 C 61.10 106.58 58.62 106.63 56.14 106.66 C 56.51 108.40 57.04 110.13 57.06 111.91 C 55.33 114.27 52.01 114.28 49.43 115.12 C 49.78 114.18 50.12 113.24 50.47 112.30 C 49.82 111.65 49.17 111.01 48.52 110.37 C 48.02 111.28 47.51 112.20 47.01 113.11 C 46.51 112.23 46.02 111.34 45.52 110.46 C 44.19 112.23 42.86 114.00 41.52 115.77 C 41.11 113.64 40.67 111.51 40.34 109.37 C 40.92 106.36 43.86 103.55 47.05 103.75 C 50.15 103.55 52.50 105.82 55.10 107.10 C 54.09 103.97 50.49 102.62 49.60 99.40 C 47.80 94.92 50.69 89.75 55.05 88.12 C 58.97 85.93 63.49 87.48 67.55 88.36 C 65.92 83.09 63.51 77.73 64.32 72.09 Z" />
<path fill="#2c85b1" opacity="1.00" d=" M 409.06 83.48 C 414.20 76.42 421.86 70.31 430.99 70.28 C 437.76 69.44 443.72 73.26 449.18 76.70 C 453.43 79.41 455.63 84.26 456.70 89.01 C 457.77 96.02 458.36 103.20 457.01 110.22 C 463.33 109.40 470.28 107.22 476.22 110.66 C 481.79 113.35 483.33 120.46 481.81 126.01 C 481.11 129.28 478.65 131.68 476.45 134.02 C 475.48 133.09 474.51 132.17 473.55 131.25 C 473.26 131.99 472.68 133.46 472.39 134.20 C 471.58 131.52 471.01 128.73 469.74 126.22 C 467.88 124.39 465.16 126.38 463.06 126.76 C 462.10 125.03 461.42 123.18 461.00 121.26 C 458.03 120.08 455.83 117.81 453.60 115.63 C 452.38 115.76 451.21 116.10 450.04 116.40 C 446.66 114.44 445.79 110.38 443.15 107.73 C 443.23 106.80 443.32 105.88 443.41 104.95 C 443.05 105.09 442.34 105.36 441.98 105.50 C 441.16 106.90 440.31 108.27 439.47 109.66 C 439.32 107.11 439.33 104.55 439.45 102.00 C 438.48 103.83 437.49 105.65 436.46 107.44 C 436.06 105.14 435.78 102.81 435.56 100.49 C 434.76 100.88 433.96 101.26 433.17 101.65 C 432.61 100.94 432.04 100.22 431.49 99.51 C 430.38 100.27 429.28 101.02 428.19 101.78 C 425.75 99.70 423.59 97.31 421.94 94.55 C 419.17 94.36 416.41 93.87 414.09 92.27 C 414.62 91.47 415.16 90.68 415.71 89.88 C 413.67 87.76 411.57 85.70 409.36 83.76 L 409.06 83.48 Z" />
</g>
<g id="#296179ff">
<path fill="#296179" opacity="1.00" d=" M 268.32 36.43 C 274.07 34.10 281.44 35.80 284.80 41.24 C 287.50 44.99 286.04 49.77 285.18 53.88 C 288.42 53.94 292.18 53.75 294.50 56.48 C 296.81 58.46 296.17 61.75 296.41 64.44 C 298.59 65.52 300.72 66.78 302.39 68.59 C 303.06 71.03 303.98 73.86 302.32 76.14 C 300.93 78.86 297.74 79.60 294.94 79.74 C 283.99 80.42 273.01 80.38 262.06 80.98 C 250.56 81.25 239.01 82.05 227.56 80.64 C 224.01 79.85 219.83 79.48 217.23 76.65 C 215.80 74.10 215.84 70.74 216.92 68.06 C 217.92 65.63 220.59 64.95 222.74 63.90 L 223.25 63.63 C 223.76 62.05 224.12 60.41 224.78 58.88 C 226.97 56.22 230.65 56.30 233.78 56.35 C 234.36 51.13 238.00 46.45 243.23 45.28 C 247.22 43.98 251.21 45.52 255.09 46.40 C 259.00 42.49 262.73 37.94 268.32 36.43 M 269.06 38.06 C 263.36 39.71 259.21 44.13 255.68 48.66 C 250.02 46.06 241.96 45.19 237.67 50.65 C 235.60 52.61 236.02 55.56 235.95 58.13 C 232.12 58.01 226.23 57.03 224.96 61.91 C 225.58 63.73 227.87 64.30 229.23 65.53 C 227.41 67.03 224.99 65.99 222.88 66.20 C 219.05 66.00 216.46 70.54 217.70 73.94 C 218.29 76.34 220.85 77.34 223.00 77.87 C 232.19 80.06 241.74 80.32 251.13 79.60 C 261.73 78.98 272.37 79.21 282.96 78.34 C 288.63 77.84 294.42 78.53 299.98 77.03 C 302.12 74.00 301.89 69.40 298.75 67.15 C 296.04 66.03 293.30 67.77 290.68 68.36 C 291.98 66.81 293.43 65.36 294.57 63.67 C 295.85 60.87 294.34 57.56 291.57 56.39 C 288.86 54.55 285.55 55.84 282.61 56.11 C 283.30 51.84 286.64 47.09 283.82 42.98 C 281.05 37.93 274.32 35.62 269.06 38.06 Z" />
<path fill="#296179" opacity="1.00" d=" M 148.02 244.10 C 148.19 243.90 148.54 243.48 148.72 243.28 C 149.07 245.20 149.48 247.12 149.85 249.04 C 150.31 249.48 151.22 250.35 151.68 250.79 C 150.79 251.57 149.91 252.36 149.04 253.17 C 148.39 253.25 147.10 253.40 146.45 253.48 C 148.53 250.77 148.92 247.35 148.02 244.10 Z" />
<path fill="#296179" opacity="1.00" d=" M 159.22 255.55 C 159.65 255.67 160.51 255.89 160.94 256.00 L 161.07 256.91 C 160.61 256.57 159.69 255.89 159.22 255.55 Z" />
<path fill="#296179" opacity="1.00" d=" M 330.30 274.14 C 333.78 274.98 336.83 273.27 340.04 272.43 L 340.18 272.86 C 339.39 275.50 337.93 277.86 336.37 280.10 C 336.58 281.77 336.83 283.43 337.13 285.10 C 337.34 287.39 337.37 289.70 337.49 292.01 C 337.60 297.47 339.81 302.67 339.52 308.16 C 339.85 316.44 338.93 324.83 340.83 332.98 C 341.74 343.51 344.87 353.64 346.79 364.00 L 338.49 364.00 C 335.75 345.78 337.45 327.25 335.87 308.93 C 334.61 297.26 333.18 285.55 330.30 274.14 Z" />
<path fill="#296179" opacity="1.00" d=" M 167.08 276.06 C 168.22 276.34 169.36 276.62 170.50 276.93 C 169.75 281.20 173.02 284.19 175.92 286.76 C 175.51 286.72 174.67 286.65 174.26 286.61 C 171.01 286.34 167.10 285.85 165.00 288.98 C 166.13 287.34 167.29 285.73 168.43 284.10 C 167.94 281.43 167.49 278.74 167.08 276.06 Z" />
</g>
<g id="#1b374dff">
<path fill="#1b374d" opacity="1.00" d=" M 63.04 71.10 C 65.41 62.70 74.52 57.16 83.09 58.39 C 93.62 59.69 102.48 66.73 108.33 75.28 C 116.56 70.88 127.15 71.18 134.54 77.15 C 138.41 80.21 139.41 85.08 139.31 89.77 C 144.71 88.59 151.48 89.27 154.64 94.41 C 156.31 96.42 154.69 98.89 154.14 101.01 C 157.00 101.44 160.38 101.20 162.53 103.52 C 164.92 106.00 167.36 109.28 166.75 112.94 C 166.23 116.02 164.83 119.37 161.87 120.82 C 148.99 126.41 134.69 125.46 120.98 125.70 C 105.98 125.23 90.99 124.30 75.98 124.19 C 66.15 123.18 56.23 123.65 46.42 122.63 C 42.10 122.29 39.10 118.84 37.39 115.15 C 38.12 111.44 38.66 107.35 41.60 104.64 C 43.40 102.36 46.42 102.29 49.06 102.13 C 47.46 97.96 47.11 92.82 50.51 89.40 C 54.08 85.12 60.06 85.21 65.11 85.82 C 63.34 81.16 62.07 76.08 63.04 71.10 M 64.32 72.09 C 63.51 77.73 65.92 83.09 67.55 88.36 C 63.49 87.48 58.97 85.93 55.05 88.12 C 50.69 89.75 47.80 94.92 49.60 99.40 C 50.49 102.62 54.09 103.97 55.10 107.10 C 52.50 105.82 50.15 103.55 47.05 103.75 C 43.86 103.55 40.92 106.36 40.34 109.37 C 38.19 113.70 40.15 119.71 45.16 120.76 C 53.36 122.09 61.78 121.40 70.05 122.22 C 80.00 123.23 90.04 122.33 99.99 123.41 C 103.66 123.64 107.35 123.37 111.03 123.58 C 124.71 124.76 138.60 124.62 152.15 122.27 C 156.85 121.11 163.19 120.42 164.85 114.97 C 166.43 111.59 164.46 108.14 162.34 105.54 C 160.24 102.70 156.24 102.69 153.06 103.07 C 151.17 103.07 148.83 104.13 147.45 102.30 C 149.74 101.11 152.58 100.37 153.87 97.91 C 154.26 95.20 151.90 93.23 149.78 92.08 C 145.97 90.20 141.49 90.56 137.65 92.15 C 137.43 90.25 137.26 88.34 137.08 86.44 C 138.35 84.36 136.50 82.16 135.38 80.47 C 131.05 74.48 122.92 72.77 115.98 74.09 C 113.12 74.46 110.74 76.20 108.07 77.10 C 105.64 74.42 103.74 71.29 101.03 68.88 C 95.18 63.28 87.22 59.36 78.98 59.90 C 72.26 60.51 65.95 65.43 64.32 72.09 Z" />
<path fill="#1b374d" opacity="1.00" d=" M 404.30 91.03 C 407.90 79.05 418.91 68.24 432.03 68.65 C 438.90 68.20 444.97 71.93 450.41 75.66 C 454.50 78.51 456.90 83.20 457.89 88.00 C 459.25 94.70 459.76 101.60 459.00 108.41 C 464.56 106.94 470.72 106.15 476.05 108.85 C 480.07 110.57 482.42 114.50 483.92 118.41 C 483.72 121.76 484.05 125.30 482.52 128.41 C 480.34 133.07 476.49 137.47 471.13 138.24 C 460.22 140.20 449.02 139.53 438.04 138.58 C 432.05 138.16 426.03 138.57 420.04 138.05 C 408.37 137.24 396.64 138.27 385.01 136.92 C 379.65 136.42 374.31 137.17 368.97 137.31 C 364.80 136.98 360.67 135.82 356.87 134.10 C 354.45 132.85 351.73 129.52 353.87 126.89 C 356.54 123.04 361.56 122.66 365.74 121.68 C 367.42 116.07 369.70 110.01 375.01 106.88 C 378.14 104.79 382.05 105.42 385.59 105.56 C 385.36 102.81 384.84 100.02 385.33 97.27 C 385.93 94.11 388.77 91.42 392.07 91.43 C 396.38 91.16 399.86 94.13 403.12 96.51 C 403.49 94.68 403.85 92.85 404.30 91.03 M 409.06 83.48 L 409.36 83.76 C 405.35 89.27 404.33 96.33 405.63 102.93 C 402.97 102.17 402.90 98.70 400.97 97.03 C 397.66 93.78 391.18 91.23 387.68 95.55 C 385.63 99.68 387.61 104.21 387.56 108.54 C 383.45 106.32 378.03 106.06 374.41 109.35 C 370.05 112.68 368.74 118.19 367.12 123.13 C 362.87 124.44 356.68 124.09 354.67 128.96 C 355.20 131.23 357.19 132.91 359.41 133.45 C 363.47 134.57 367.62 135.96 371.89 135.35 C 381.60 134.50 391.29 135.77 400.99 136.23 C 413.99 136.15 427.00 136.43 440.00 136.84 C 446.96 138.07 454.03 137.80 461.06 137.71 C 466.33 137.35 471.79 136.72 476.45 134.02 C 478.65 131.68 481.11 129.28 481.81 126.01 C 483.33 120.46 481.79 113.35 476.22 110.66 C 470.28 107.22 463.33 109.40 457.01 110.22 C 458.36 103.20 457.77 96.02 456.70 89.01 C 455.63 84.26 453.43 79.41 449.18 76.70 C 443.72 73.26 437.76 69.44 430.99 70.28 C 421.86 70.31 414.20 76.42 409.06 83.48 Z" />
<path fill="#1b374d" opacity="1.00" d=" M 0.00 207.04 C 10.19 203.62 22.06 204.89 30.99 211.01 C 39.11 216.52 45.49 225.29 46.33 235.27 C 51.24 231.21 58.17 227.51 64.48 230.68 C 69.29 233.52 68.39 239.71 67.63 244.37 C 71.87 243.90 76.43 243.44 80.32 245.60 C 86.56 248.57 89.95 255.09 91.80 261.45 C 95.79 262.10 99.97 262.46 103.57 264.47 C 106.19 265.63 107.36 268.28 107.33 271.02 C 102.41 275.74 95.43 276.70 88.97 277.62 C 81.66 277.29 74.33 276.64 67.00 277.23 C 51.40 279.20 35.61 277.66 19.95 278.82 C 13.28 278.54 6.65 279.13 0.00 279.37 L 0.00 277.38 C 7.43 277.17 14.86 277.24 22.28 276.89 C 37.22 276.13 52.23 277.07 67.13 275.53 C 73.49 275.22 79.86 275.44 86.22 275.74 C 91.38 275.98 96.46 274.67 101.35 273.16 C 103.50 272.53 104.70 270.48 106.17 268.96 C 102.49 263.96 96.13 263.88 90.64 262.69 C 88.40 256.54 85.81 249.47 79.22 246.79 C 74.75 244.44 69.73 245.67 65.20 247.03 C 66.21 242.88 67.67 238.28 65.82 234.16 C 64.37 231.28 60.78 230.98 57.95 231.27 C 51.97 231.64 46.70 236.05 45.11 241.80 C 43.67 240.51 44.26 238.58 44.31 236.91 C 45.31 227.57 39.14 219.19 32.09 213.78 C 23.22 206.72 10.60 204.80 0.00 208.75 L 0.00 207.04 Z" />
<path fill="#1b374d" opacity="1.00" d=" M 427.54 222.99 C 426.33 212.64 436.97 203.77 446.91 204.79 C 458.30 205.38 467.71 213.19 474.12 222.08 C 482.08 217.51 492.74 217.56 500.00 223.51 L 500.00 225.16 C 492.59 219.36 481.70 218.78 473.89 224.14 C 467.74 215.42 459.04 207.53 448.01 206.32 C 440.02 205.24 431.53 210.27 429.24 218.11 C 427.99 224.04 430.57 229.80 432.40 235.32 C 428.14 234.38 423.39 232.99 419.29 235.23 C 414.97 236.98 412.31 242.26 414.05 246.71 C 415.29 249.75 418.03 251.78 420.06 254.27 C 417.07 253.09 414.30 250.91 410.99 250.87 C 403.55 251.87 400.51 264.20 407.54 267.76 C 413.36 270.19 419.88 268.97 426.02 269.54 C 443.62 270.76 461.27 270.84 478.89 271.55 C 485.91 272.45 492.96 271.73 500.00 271.83 L 500.00 273.21 C 481.03 273.94 462.09 271.93 443.12 271.83 C 432.48 271.47 421.83 271.06 411.21 270.40 C 407.00 270.15 403.46 267.10 402.15 263.16 C 401.36 256.55 406.18 248.15 413.76 249.66 C 411.38 245.15 411.61 239.13 415.75 235.72 C 419.55 232.05 425.11 232.15 429.99 232.88 C 428.84 229.68 427.83 226.39 427.54 222.99 Z" />
<path fill="#1b374d" opacity="1.00" d=" M 332.80 224.81 C 332.76 223.52 333.34 222.31 333.80 221.13 C 333.68 221.59 333.43 222.50 333.30 222.96 C 333.73 223.48 334.60 224.52 335.03 225.04 C 335.74 224.95 337.15 224.78 337.86 224.69 L 338.29 224.60 C 337.47 225.69 336.69 226.81 335.95 227.96 C 334.87 226.98 332.84 226.52 332.80 224.81 Z" />
<path fill="#1b374d" opacity="1.00" d=" M 143.98 258.88 C 145.81 248.40 149.80 238.32 150.38 227.60 C 150.44 228.57 150.56 230.51 150.62 231.48 C 150.84 235.50 149.89 239.46 148.72 243.28 C 148.54 243.48 148.19 243.90 148.02 244.10 C 148.92 247.35 148.53 250.77 146.45 253.48 C 146.17 253.86 145.60 254.61 145.32 254.99 C 145.55 257.09 145.54 260.28 148.57 259.75 C 148.55 260.32 148.52 261.45 148.50 262.01 C 150.02 262.92 151.82 263.57 152.91 265.05 C 154.38 266.72 155.53 269.47 158.25 268.67 C 158.56 266.26 158.90 263.86 159.14 261.45 C 159.55 265.59 159.80 269.75 160.12 273.90 C 162.42 274.69 164.72 275.46 167.08 276.06 C 167.49 278.74 167.94 281.43 168.43 284.10 C 167.29 285.73 166.13 287.34 165.00 288.98 L 164.76 289.32 C 164.50 289.44 163.97 289.67 163.71 289.78 C 164.00 298.92 164.57 308.14 163.45 317.24 C 163.33 312.73 163.30 308.23 163.22 303.73 C 163.35 296.80 163.21 289.74 161.44 283.01 C 157.59 273.66 148.64 267.75 143.98 258.88 Z" />
<path fill="#1b374d" opacity="1.00" d=" M 331.55 234.98 C 332.52 232.92 333.93 231.12 335.16 229.22 C 335.16 232.06 335.23 234.90 335.26 237.75 C 335.89 237.68 337.16 237.54 337.79 237.47 C 337.73 240.27 337.27 243.15 338.22 245.86 C 339.65 245.28 341.07 244.68 342.50 244.07 C 342.06 245.77 341.63 247.47 341.19 249.18 C 342.46 249.75 343.74 250.31 345.02 250.88 C 343.03 251.07 340.99 251.53 339.02 251.03 C 338.42 249.77 338.03 248.42 337.58 247.11 C 336.94 247.06 335.67 246.97 335.03 246.92 C 334.40 245.89 333.73 244.88 333.23 243.79 C 333.15 242.32 334.39 241.18 334.95 239.91 C 333.57 238.48 331.22 237.31 331.55 234.98 Z" />
<path fill="#1b374d" opacity="1.00" d=" M 155.27 246.09 C 158.29 244.57 155.42 249.37 155.27 246.09 Z" />
<path fill="#1b374d" opacity="1.00" d=" M 157.02 255.49 C 157.57 255.51 158.67 255.54 159.22 255.55 C 159.69 255.89 160.61 256.57 161.07 256.91 C 161.22 257.39 161.52 258.35 161.66 258.84 C 162.07 259.42 162.89 260.57 163.29 261.15 C 161.89 261.02 160.49 260.83 159.11 260.57 C 158.85 260.29 158.33 259.72 158.07 259.43 C 157.69 258.12 157.36 256.80 157.02 255.49 Z" />
<path fill="#1b374d" opacity="1.00" d=" M 163.35 344.84 C 164.79 351.13 164.56 357.64 165.46 364.00 L 163.36 364.00 C 163.42 360.41 163.13 356.84 162.79 353.27 C 162.76 350.45 162.99 347.63 163.35 344.84 Z" />
</g>
<g id="#48a5bdff">
<path fill="#48a5bd" opacity="1.00" d=" M 211.61 58.14 C 211.78 59.41 211.95 60.68 212.14 61.96 C 213.57 61.15 215.01 60.34 216.45 59.52 C 216.68 60.11 217.13 61.29 217.36 61.88 C 219.31 61.38 221.19 60.64 222.92 59.59 C 222.85 61.03 222.79 62.46 222.74 63.90 C 220.59 64.95 217.92 65.63 216.92 68.06 C 215.84 70.74 215.80 74.10 217.23 76.65 C 219.83 79.48 224.01 79.85 227.56 80.64 C 239.01 82.05 250.56 81.25 262.06 80.98 C 273.01 80.38 283.99 80.42 294.94 79.74 C 297.74 79.60 300.93 78.86 302.32 76.14 C 303.98 73.86 303.06 71.03 302.39 68.59 C 304.31 66.70 306.25 64.81 308.19 62.94 C 308.49 63.68 309.09 65.16 309.39 65.91 C 310.21 65.46 311.04 65.02 311.87 64.58 C 311.45 64.17 310.60 63.35 310.17 62.95 C 310.89 63.10 312.33 63.40 313.05 63.56 C 312.30 64.92 311.55 66.27 310.81 67.63 C 312.82 67.64 314.82 67.65 316.83 67.66 C 316.73 66.79 316.63 65.92 316.54 65.05 C 320.17 66.34 323.32 69.33 327.45 68.47 C 326.90 67.95 325.79 66.91 325.24 66.39 C 326.68 66.31 328.11 66.23 329.56 66.14 C 329.07 67.28 328.58 68.42 328.10 69.56 C 330.98 68.69 333.74 67.45 336.63 66.57 C 337.18 67.10 337.71 67.64 338.23 68.20 C 336.80 68.58 335.37 68.94 333.95 69.31 C 334.60 69.96 335.26 70.62 335.92 71.28 C 337.60 70.57 339.29 69.86 340.97 69.14 C 342.24 69.61 343.52 70.08 344.80 70.54 C 345.37 70.17 345.95 69.79 346.54 69.41 C 346.96 70.82 347.39 72.22 347.82 73.63 C 348.34 72.22 348.86 70.82 349.39 69.42 C 349.99 69.38 351.19 69.32 351.79 69.29 C 351.29 70.22 350.79 71.15 350.30 72.08 C 351.36 71.96 352.43 71.85 353.51 71.74 C 354.65 72.66 355.77 73.61 357.02 74.38 C 358.95 74.86 360.78 73.68 362.58 73.14 C 362.09 74.23 361.60 75.32 361.12 76.42 C 362.67 75.77 364.23 75.12 365.78 74.47 C 365.64 75.69 365.50 76.92 365.37 78.14 C 366.99 78.29 368.62 78.44 370.25 78.58 C 370.43 77.73 370.62 76.88 370.82 76.03 C 371.83 76.95 372.84 77.86 373.86 78.78 C 375.12 78.30 376.37 77.76 377.69 77.43 C 379.07 78.59 380.19 80.02 381.37 81.38 C 382.76 80.55 384.15 79.71 385.55 78.87 C 385.16 79.83 384.79 80.80 384.41 81.76 C 385.29 82.53 386.18 83.30 387.07 84.07 C 387.26 82.79 387.45 81.52 387.65 80.24 C 388.81 80.40 389.97 80.57 391.13 80.74 C 391.21 81.61 391.30 82.49 391.39 83.36 C 392.34 83.94 393.30 84.52 394.26 85.10 C 395.41 84.47 396.58 83.83 397.74 83.20 C 398.19 83.59 399.10 84.38 399.56 84.77 C 400.25 83.66 400.95 82.55 401.66 81.45 C 402.23 81.38 403.36 81.25 403.92 81.18 C 403.15 83.29 402.38 85.40 401.61 87.52 C 402.51 88.69 403.40 89.86 404.30 91.03 C 403.85 92.85 403.49 94.68 403.12 96.51 C 399.86 94.13 396.38 91.16 392.07 91.43 C 388.77 91.42 385.93 94.11 385.33 97.27 C 384.84 100.02 385.36 102.81 385.59 105.56 C 382.05 105.42 378.14 104.79 375.01 106.88 C 369.70 110.01 367.42 116.07 365.74 121.68 C 361.56 122.66 356.54 123.04 353.87 126.89 C 351.73 129.52 354.45 132.85 356.87 134.10 C 360.67 135.82 364.80 136.98 368.97 137.31 C 374.31 137.17 379.65 136.42 385.01 136.92 C 396.64 138.27 408.37 137.24 420.04 138.05 C 426.03 138.57 432.05 138.16 438.04 138.58 C 449.02 139.53 460.22 140.20 471.13 138.24 C 476.49 137.47 480.34 133.07 482.52 128.41 C 484.05 125.30 483.72 121.76 483.92 118.41 C 484.04 118.07 484.30 117.38 484.42 117.04 C 484.63 119.19 484.78 121.35 484.92 123.51 C 485.68 123.62 486.44 123.74 487.21 123.85 C 488.15 125.35 489.10 126.85 490.05 128.35 C 490.15 127.05 490.25 125.76 490.36 124.47 C 491.12 124.89 491.88 125.32 492.66 125.75 C 492.84 125.41 493.21 124.73 493.40 124.40 C 494.03 128.93 497.98 131.95 498.86 136.44 C 499.11 131.75 499.15 127.02 500.00 122.39 L 500.00 223.51 C 492.74 217.56 482.08 217.51 474.12 222.08 C 467.71 213.19 458.30 205.38 446.91 204.79 C 436.97 203.77 426.33 212.64 427.54 222.99 C 427.83 226.39 428.84 229.68 429.99 232.88 C 425.11 232.15 419.55 232.05 415.75 235.72 C 411.61 239.13 411.38 245.15 413.76 249.66 C 406.18 248.15 401.36 256.55 402.15 263.16 C 401.70 263.22 400.79 263.32 400.33 263.38 C 398.63 263.03 396.92 262.69 395.22 262.36 C 395.52 259.43 395.74 256.49 395.75 253.55 C 394.08 254.38 393.45 256.02 393.07 257.71 C 392.13 257.55 391.20 257.38 390.27 257.23 C 391.42 259.10 392.57 260.98 393.70 262.87 C 392.16 263.13 390.62 263.39 389.09 263.66 C 389.44 262.77 389.80 261.89 390.15 261.01 C 388.85 257.77 390.13 253.97 388.02 251.03 C 387.14 252.71 386.33 254.52 384.69 255.61 C 384.66 254.52 384.65 253.44 384.65 252.36 C 383.92 252.74 383.19 253.11 382.47 253.50 C 382.03 252.77 381.60 252.06 381.17 251.34 C 379.86 251.95 378.54 252.57 377.24 253.19 C 377.90 251.52 380.11 249.88 379.38 248.02 C 376.36 246.43 372.82 247.50 369.58 247.20 C 370.08 245.24 370.61 243.29 371.14 241.35 C 369.88 241.35 368.64 241.37 367.40 241.39 C 367.17 240.92 366.72 239.99 366.50 239.53 C 365.39 239.93 364.29 240.34 363.19 240.74 C 363.34 243.11 363.49 245.49 363.65 247.86 C 362.46 247.21 361.26 246.55 360.08 245.91 C 361.30 243.16 362.34 239.54 359.82 237.17 C 355.16 232.32 351.71 226.45 349.47 220.12 C 349.66 217.50 351.59 213.89 349.01 211.93 C 347.17 210.18 344.58 211.02 342.41 211.48 C 340.36 199.72 339.69 187.81 337.97 176.01 C 336.06 163.98 336.01 151.75 333.89 139.75 C 330.91 139.98 327.93 140.20 325.01 140.83 C 312.19 143.67 299.00 143.83 285.98 145.11 C 277.55 146.19 269.04 146.30 260.63 147.48 C 250.76 148.84 240.83 149.69 230.91 150.55 C 218.00 151.98 205.06 153.21 192.08 153.77 C 180.13 154.37 168.15 153.70 156.20 154.11 C 156.14 161.10 156.87 168.08 156.60 175.07 C 155.41 191.35 157.72 207.68 156.07 223.95 C 155.57 226.70 159.19 225.94 160.87 226.70 C 159.52 226.82 158.17 226.95 156.82 227.04 C 154.65 226.72 152.46 226.89 150.38 227.60 C 149.80 238.32 145.81 248.40 143.98 258.88 C 142.15 260.07 140.24 261.13 138.32 262.17 C 138.62 262.61 138.92 263.04 139.25 263.47 C 137.98 264.52 136.70 265.57 135.44 266.63 C 133.58 264.48 131.94 262.16 130.51 259.71 C 129.88 261.27 129.46 262.99 128.33 264.28 C 126.72 265.43 124.83 266.08 123.03 266.87 C 123.76 265.75 124.49 264.63 125.22 263.53 C 124.23 263.04 123.24 262.56 122.25 262.07 C 120.95 263.30 119.82 268.28 117.68 265.45 C 116.74 264.55 115.86 263.58 114.97 262.63 C 117.15 262.38 119.34 262.14 121.52 261.86 C 119.70 259.65 116.64 259.35 114.37 261.07 C 111.66 263.67 109.73 266.95 107.51 269.96 C 108.71 269.82 109.92 269.68 111.13 269.55 C 111.30 269.94 111.66 270.71 111.84 271.10 C 110.33 271.07 108.83 271.04 107.33 271.02 C 107.36 268.28 106.19 265.63 103.57 264.47 C 99.97 262.46 95.79 262.10 91.80 261.45 C 89.95 255.09 86.56 248.57 80.32 245.60 C 76.43 243.44 71.87 243.90 67.63 244.37 C 68.39 239.71 69.29 233.52 64.48 230.68 C 58.17 227.51 51.24 231.21 46.33 235.27 C 45.49 225.29 39.11 216.52 30.99 211.01 C 22.06 204.89 10.19 203.62 0.00 207.04 L 0.00 80.47 C 1.10 87.93 0.41 95.49 0.63 103.00 C 0.82 114.02 0.58 125.06 1.35 136.06 C 2.09 134.46 2.85 132.87 3.55 131.26 C 4.15 133.74 5.04 136.15 6.59 138.20 C 10.05 134.47 15.21 133.66 19.59 131.47 C 19.50 130.38 19.41 129.30 19.32 128.21 C 20.85 127.77 22.51 127.60 23.91 126.79 C 25.22 125.17 26.07 123.24 27.38 121.61 C 30.52 121.34 33.97 121.88 36.45 119.41 C 36.78 117.99 37.01 116.55 37.39 115.15 C 39.10 118.84 42.10 122.29 46.42 122.63 C 56.23 123.65 66.15 123.18 75.98 124.19 C 90.99 124.30 105.98 125.23 120.98 125.70 C 134.69 125.46 148.99 126.41 161.87 120.82 C 164.83 119.37 166.23 116.02 166.75 112.94 C 167.36 109.28 164.92 106.00 162.53 103.52 C 160.38 101.20 157.00 101.44 154.14 101.01 C 154.69 98.89 156.31 96.42 154.64 94.41 C 151.48 89.27 144.71 88.59 139.31 89.77 C 139.41 85.08 138.41 80.21 134.54 77.15 C 134.73 76.55 135.10 75.34 135.29 74.74 C 136.11 74.74 136.94 74.74 137.76 74.74 C 137.71 73.37 137.67 72.00 137.65 70.63 C 138.96 72.04 139.43 73.87 139.47 75.75 C 142.04 74.10 144.63 72.24 145.82 69.30 C 145.91 70.62 146.01 71.95 146.12 73.28 C 147.78 70.81 149.54 67.96 152.92 68.10 C 151.73 69.29 150.53 70.47 149.36 71.68 C 152.54 72.24 154.90 69.65 157.38 68.13 C 157.34 69.29 157.30 70.45 157.26 71.61 C 159.84 71.41 159.62 69.10 159.64 67.18 C 161.73 68.13 163.73 69.27 165.58 70.62 C 168.50 68.60 171.46 66.64 174.49 64.77 C 174.11 66.04 173.73 67.31 173.36 68.58 C 174.43 67.57 175.48 66.54 176.56 65.53 C 176.93 66.39 177.31 67.25 177.70 68.11 C 178.83 67.17 179.93 66.16 181.19 65.37 C 183.12 64.94 184.48 66.63 185.94 67.58 C 188.51 65.44 190.98 63.19 193.33 60.80 C 194.59 61.99 195.86 63.19 197.12 64.39 C 197.42 65.50 197.72 66.61 198.03 67.72 C 199.12 66.34 200.17 64.92 201.12 63.44 C 203.05 63.46 204.98 63.50 206.90 63.56 C 207.27 61.93 207.64 60.30 208.00 58.66 C 208.34 60.61 208.71 62.55 209.15 64.47 C 210.33 62.51 211.10 60.36 211.61 58.14 Z" />
<path fill="#48a5bd" opacity="1.00" d=" M 409.36 83.76 C 411.57 85.70 413.67 87.76 415.71 89.88 C 415.16 90.68 414.62 91.47 414.09 92.27 C 416.41 93.87 419.17 94.36 421.94 94.55 C 423.59 97.31 425.75 99.70 428.19 101.78 C 429.28 101.02 430.38 100.27 431.49 99.51 C 432.04 100.22 432.61 100.94 433.17 101.65 C 433.96 101.26 434.76 100.88 435.56 100.49 C 435.78 102.81 436.06 105.14 436.46 107.44 C 437.49 105.65 438.48 103.83 439.45 102.00 C 439.33 104.55 439.32 107.11 439.47 109.66 C 440.31 108.27 441.16 106.90 441.98 105.50 C 442.34 105.36 443.05 105.09 443.41 104.95 C 443.32 105.88 443.23 106.80 443.15 107.73 C 445.79 110.38 446.66 114.44 450.04 116.40 C 451.21 116.10 452.38 115.76 453.60 115.63 C 455.83 117.81 458.03 120.08 461.00 121.26 C 461.42 123.18 462.10 125.03 463.06 126.76 C 465.16 126.38 467.88 124.39 469.74 126.22 C 471.01 128.73 471.58 131.52 472.39 134.20 C 472.68 133.46 473.26 131.99 473.55 131.25 C 474.51 132.17 475.48 133.09 476.45 134.02 C 471.79 136.72 466.33 137.35 461.06 137.71 C 454.03 137.80 446.96 138.07 440.00 136.84 C 427.00 136.43 413.99 136.15 400.99 136.23 C 391.29 135.77 381.60 134.50 371.89 135.35 C 367.62 135.96 363.47 134.57 359.41 133.45 C 357.19 132.91 355.20 131.23 354.67 128.96 C 356.68 124.09 362.87 124.44 367.12 123.13 C 368.74 118.19 370.05 112.68 374.41 109.35 C 378.03 106.06 383.45 106.32 387.56 108.54 C 387.61 104.21 385.63 99.68 387.68 95.55 C 391.18 91.23 397.66 93.78 400.97 97.03 C 402.90 98.70 402.97 102.17 405.63 102.93 C 404.33 96.33 405.35 89.27 409.36 83.76 Z" />
<path fill="#48a5bd" opacity="1.00" d=" M 133.74 94.42 C 134.69 91.69 135.85 89.05 137.08 86.44 C 137.26 88.34 137.43 90.25 137.65 92.15 C 141.49 90.56 145.97 90.20 149.78 92.08 C 151.90 93.23 154.26 95.20 153.87 97.91 C 152.58 100.37 149.74 101.11 147.45 102.30 C 148.83 104.13 151.17 103.07 153.06 103.07 C 156.24 102.69 160.24 102.70 162.34 105.54 C 164.46 108.14 166.43 111.59 164.85 114.97 C 163.19 120.42 156.85 121.11 152.15 122.27 C 138.60 124.62 124.71 124.76 111.03 123.58 C 107.35 123.37 103.66 123.64 99.99 123.41 C 90.04 122.33 80.00 123.23 70.05 122.22 C 61.78 121.40 53.36 122.09 45.16 120.76 C 40.15 119.71 38.19 113.70 40.34 109.37 C 40.67 111.51 41.11 113.64 41.52 115.77 C 42.86 114.00 44.19 112.23 45.52 110.46 C 46.02 111.34 46.51 112.23 47.01 113.11 C 47.51 112.20 48.02 111.28 48.52 110.37 C 49.17 111.01 49.82 111.65 50.47 112.30 C 50.12 113.24 49.78 114.18 49.43 115.12 C 52.01 114.28 55.33 114.27 57.06 111.91 C 57.04 110.13 56.51 108.40 56.14 106.66 C 58.62 106.63 61.10 106.58 63.58 106.52 C 63.85 107.18 64.12 107.83 64.39 108.49 C 66.34 104.84 69.95 102.64 72.69 99.66 C 73.47 100.01 74.25 100.37 75.03 100.73 C 76.17 99.98 77.32 99.24 78.47 98.50 C 78.67 97.56 78.88 96.62 79.08 95.67 C 81.66 97.06 84.53 97.38 87.40 96.95 C 87.98 95.67 88.57 94.40 89.17 93.13 C 91.43 93.84 93.69 94.65 96.05 94.98 C 99.01 95.32 101.85 94.05 104.79 94.05 C 106.58 94.24 108.24 94.98 109.92 95.57 C 110.15 95.23 110.63 94.56 110.86 94.22 C 109.94 93.08 109.02 91.94 108.10 90.80 C 109.78 91.35 111.47 91.88 113.16 92.39 C 114.73 91.83 116.29 91.24 117.93 90.91 C 119.65 91.53 121.12 92.63 122.64 93.60 C 123.79 92.47 124.94 91.33 126.09 90.19 C 127.29 90.39 128.50 90.59 129.71 90.79 C 129.24 91.59 128.78 92.38 128.31 93.18 C 129.03 93.39 129.75 93.60 130.47 93.81 C 130.79 92.62 131.11 91.44 131.44 90.26 C 132.01 90.23 133.14 90.18 133.71 90.15 C 133.73 91.57 133.74 92.99 133.74 94.42 Z" />
<path fill="#48a5bd" opacity="1.00" d=" M 0.00 208.75 C 10.60 204.80 23.22 206.72 32.09 213.78 C 39.14 219.19 45.31 227.57 44.31 236.91 C 44.26 238.58 43.67 240.51 45.11 241.80 L 45.10 241.80 C 42.14 242.41 39.16 243.06 36.43 244.42 C 37.03 246.17 37.60 247.93 38.09 249.72 C 36.43 249.13 35.13 247.94 33.95 246.68 C 33.56 246.55 32.79 246.27 32.40 246.14 C 32.90 247.33 33.49 248.51 33.80 249.78 C 33.34 251.35 31.44 251.92 30.32 252.98 C 31.52 255.02 33.23 256.66 35.13 258.05 C 34.43 259.70 33.75 261.37 33.11 263.04 C 34.33 263.65 35.55 264.25 36.77 264.86 C 35.51 266.29 34.24 267.71 32.96 269.12 C 32.23 266.82 31.53 264.51 30.86 262.19 C 30.59 262.33 30.04 262.61 29.77 262.75 C 30.26 264.67 31.15 266.90 29.77 268.70 C 28.70 269.25 27.60 269.74 26.48 270.19 C 27.20 268.59 27.94 266.99 28.69 265.41 C 27.93 264.92 27.17 264.43 26.41 263.95 C 26.35 266.70 26.30 269.45 26.25 272.20 C 27.68 272.54 29.11 272.91 30.53 273.31 C 27.14 275.62 22.78 274.46 18.97 275.32 C 20.07 275.86 21.16 276.39 22.28 276.89 C 14.86 277.24 7.43 277.17 0.00 277.38 L 0.00 208.75 Z" />
<path fill="#48a5bd" opacity="1.00" d=" M 429.24 218.11 C 431.53 210.27 440.02 205.24 448.01 206.32 C 459.04 207.53 467.74 215.42 473.89 224.14 C 481.70 218.78 492.59 219.36 500.00 225.16 L 500.00 271.83 C 492.96 271.73 485.91 272.45 478.89 271.55 C 461.27 270.84 443.62 270.76 426.02 269.54 C 419.88 268.97 413.36 270.19 407.54 267.76 C 400.51 264.20 403.55 251.87 410.99 250.87 C 414.30 250.91 417.07 253.09 420.06 254.27 C 418.03 251.78 415.29 249.75 414.05 246.71 C 412.31 242.26 414.97 236.98 419.29 235.23 C 423.39 232.99 428.14 234.38 432.40 235.32 C 430.57 229.80 427.99 224.04 429.24 218.11 Z" />
<path fill="#48a5bd" opacity="1.00" d=" M 443.12 271.83 C 462.09 271.93 481.03 273.94 500.00 273.21 L 500.00 364.00 L 458.84 364.00 C 459.65 363.28 460.46 362.53 461.27 361.79 C 460.68 361.65 459.52 361.37 458.94 361.23 C 460.96 359.75 462.90 358.17 464.72 356.44 C 461.99 357.18 459.44 358.40 457.00 359.80 C 455.73 358.25 454.45 356.72 453.15 355.21 C 454.29 355.31 455.44 355.42 456.59 355.52 C 455.77 354.55 454.98 353.57 454.08 352.69 C 452.91 352.75 451.77 353.08 450.64 353.35 C 449.98 352.80 449.33 352.25 448.69 351.71 C 450.98 349.84 453.49 348.27 456.12 346.94 C 453.13 347.33 450.15 347.81 447.20 348.44 C 446.95 348.25 446.45 347.88 446.20 347.69 C 449.35 346.51 453.26 345.77 454.67 342.29 C 453.75 342.70 452.84 343.13 451.94 343.57 C 451.26 343.03 450.58 342.50 449.91 341.97 C 449.49 342.95 449.08 343.93 448.67 344.92 C 448.36 343.80 448.06 342.70 447.77 341.60 C 446.91 341.56 446.05 341.52 445.20 341.49 C 446.66 338.67 448.26 335.83 448.67 332.63 C 449.54 332.61 450.42 332.59 451.30 332.58 C 450.04 330.71 448.76 328.85 447.46 327.01 C 447.40 328.57 447.35 330.13 447.30 331.69 C 446.26 331.54 445.22 331.38 444.19 331.24 C 444.90 329.56 445.56 327.87 446.47 326.30 C 447.77 324.04 450.34 322.79 451.46 320.43 C 451.68 318.46 451.41 316.46 451.58 314.49 C 452.73 313.10 454.33 312.22 455.79 311.20 C 454.07 311.01 452.36 310.81 450.66 310.60 C 452.59 309.07 454.89 308.41 457.28 309.20 C 457.91 308.46 458.53 307.72 459.16 306.99 C 458.37 305.66 457.59 304.32 456.81 303.00 C 458.55 301.64 460.29 300.28 462.02 298.91 C 460.47 299.34 458.94 299.78 457.40 300.22 C 456.63 298.06 455.39 296.13 454.38 294.10 C 454.27 292.52 454.62 290.96 454.85 289.42 C 455.79 291.41 456.70 293.42 457.61 295.44 C 458.06 295.66 458.96 296.10 459.41 296.32 C 456.51 291.61 458.24 286.09 458.81 281.00 C 456.39 283.22 454.38 286.37 451.04 287.19 C 447.33 287.16 449.26 282.00 449.11 279.64 C 449.70 281.45 450.25 283.28 450.81 285.11 C 451.40 283.87 451.99 282.63 452.58 281.40 C 454.05 281.12 455.52 280.84 457.00 280.57 C 455.79 280.30 454.59 280.03 453.40 279.76 C 453.82 279.17 454.24 278.57 454.67 277.98 C 452.58 278.40 450.49 278.82 448.40 279.24 C 448.77 278.53 449.15 277.83 449.54 277.13 C 448.53 276.65 447.52 276.18 446.52 275.71 C 448.01 275.57 449.50 275.43 451.00 275.29 C 450.84 274.84 450.52 273.93 450.36 273.47 C 448.84 273.30 447.32 273.13 445.81 272.97 C 445.67 273.36 445.39 274.15 445.26 274.54 C 443.41 275.22 441.57 275.91 439.74 276.59 C 439.89 276.04 440.20 274.95 440.35 274.40 C 441.45 274.17 442.55 273.94 443.65 273.72 C 443.52 273.25 443.25 272.30 443.12 271.83 Z" />
</g>
<g id="#6bbdc6ff">
<path fill="#6bbdc6" opacity="1.00" d=" M 325.01 140.83 C 327.93 140.20 330.91 139.98 333.89 139.75 C 336.01 151.75 336.06 163.98 337.97 176.01 C 339.69 187.81 340.36 199.72 342.41 211.48 C 340.63 212.65 338.95 213.98 337.45 215.48 C 336.66 216.55 335.85 217.61 335.17 218.74 C 334.83 219.34 334.14 220.53 333.80 221.13 C 333.34 222.31 332.76 223.52 332.80 224.81 C 332.84 226.52 334.87 226.98 335.95 227.96 C 335.75 228.27 335.36 228.90 335.16 229.22 C 333.93 231.12 332.52 232.92 331.55 234.98 C 331.22 237.31 333.57 238.48 334.95 239.91 C 334.39 241.18 333.15 242.32 333.23 243.79 C 333.73 244.88 334.40 245.89 335.03 246.92 C 335.67 246.97 336.94 247.06 337.58 247.11 C 338.03 248.42 338.42 249.77 339.02 251.03 C 340.99 251.53 343.03 251.07 345.02 250.88 C 345.59 249.44 346.16 248.00 346.75 246.57 C 347.03 247.36 347.29 248.15 347.54 248.96 C 348.49 253.53 350.17 258.14 349.88 262.85 C 348.01 264.96 345.25 265.89 342.74 267.00 C 338.94 268.38 335.05 269.67 330.99 269.89 C 323.93 270.28 316.99 271.78 309.96 272.23 C 304.73 272.01 299.58 273.00 294.40 273.46 C 297.04 274.67 299.98 274.03 302.66 273.31 C 311.46 271.90 320.37 271.90 329.18 270.64 C 329.56 271.80 329.95 272.97 330.30 274.14 C 333.18 285.55 334.61 297.26 335.87 308.93 C 337.45 327.25 335.75 345.78 338.49 364.00 L 194.10 364.00 C 193.01 351.50 189.99 339.29 187.70 326.99 C 185.83 317.17 185.11 307.20 183.94 297.29 C 183.34 292.65 182.99 287.96 183.36 283.28 C 183.46 282.08 183.59 280.88 183.73 279.69 C 180.50 279.36 177.28 278.88 174.17 277.95 C 172.94 277.61 171.72 277.25 170.50 276.93 C 169.36 276.62 168.22 276.34 167.08 276.06 C 164.72 275.46 162.42 274.69 160.12 273.90 C 159.80 269.75 159.55 265.59 159.14 261.45 L 159.11 260.57 C 160.49 260.83 161.89 261.02 163.29 261.15 C 163.71 261.16 164.53 261.18 164.95 261.19 C 165.86 257.58 165.90 253.84 165.74 250.15 C 167.73 245.98 166.30 241.09 168.63 236.99 C 166.97 234.47 165.52 231.77 163.44 229.58 C 161.51 228.16 159.04 227.78 156.82 227.04 C 158.17 226.95 159.52 226.82 160.87 226.70 C 159.19 225.94 155.57 226.70 156.07 223.95 C 157.72 207.68 155.41 191.35 156.60 175.07 C 156.87 168.08 156.14 161.10 156.20 154.11 C 168.15 153.70 180.13 154.37 192.08 153.77 C 205.06 153.21 218.00 151.98 230.91 150.55 C 240.83 149.69 250.76 148.84 260.63 147.48 C 269.04 146.30 277.55 146.19 285.98 145.11 C 299.00 143.83 312.19 143.67 325.01 140.83 M 241.34 181.74 C 240.58 181.19 239.83 180.64 239.08 180.09 C 237.57 182.57 236.42 185.32 234.50 187.52 C 232.29 189.43 229.55 190.59 227.11 192.16 C 226.98 193.67 226.85 195.19 226.73 196.71 C 225.79 196.52 224.86 196.33 223.92 196.14 C 224.00 196.55 224.15 197.35 224.23 197.76 C 224.17 198.56 224.05 200.18 223.99 200.99 C 223.53 201.25 223.07 201.51 222.62 201.77 C 221.79 198.91 221.10 196.02 220.51 193.11 C 219.06 193.43 217.60 193.76 216.15 194.09 C 215.65 193.82 214.65 193.27 214.15 193.00 C 213.96 193.48 213.58 194.45 213.39 194.93 C 213.35 194.11 213.28 192.48 213.24 191.66 C 211.44 191.70 209.65 191.73 207.85 191.76 C 206.43 193.79 205.20 195.98 204.95 198.50 C 202.58 200.28 207.51 203.05 204.29 204.48 C 203.38 202.47 202.78 200.34 202.39 198.18 C 201.53 197.56 200.68 196.95 199.83 196.34 C 198.28 198.86 196.76 201.40 194.95 203.75 C 192.67 202.91 190.39 202.10 188.11 201.28 C 188.59 199.94 189.00 198.58 189.29 197.19 C 188.32 197.49 187.36 197.79 186.40 198.10 C 185.21 200.38 184.05 202.67 182.92 204.98 C 184.29 206.43 185.65 208.00 187.64 208.59 C 186.77 209.86 186.08 211.26 186.55 212.83 C 189.33 215.94 191.08 219.76 193.04 223.40 C 192.17 223.35 191.31 223.30 190.45 223.26 C 189.98 224.21 189.51 225.16 189.04 226.12 C 186.47 227.11 184.68 229.43 183.53 231.85 C 181.83 232.34 180.17 232.98 178.66 233.92 C 178.05 234.91 177.39 235.86 176.77 236.84 C 175.77 238.91 175.09 241.14 176.73 243.12 C 178.13 242.14 179.53 241.15 180.92 240.16 L 181.25 241.05 C 180.94 242.25 180.64 243.45 180.34 244.65 C 183.64 245.02 186.92 245.56 190.13 246.43 C 190.76 245.80 191.39 245.17 192.02 244.54 C 195.05 243.91 198.11 243.21 201.24 243.49 C 204.93 243.82 208.51 242.33 212.19 242.65 C 211.17 243.79 210.16 244.93 209.15 246.09 C 213.02 248.71 217.74 249.15 222.22 248.05 C 225.12 248.01 225.01 244.85 224.70 242.74 C 225.79 243.95 226.58 241.39 226.68 240.55 C 227.25 241.40 227.83 242.25 228.42 243.10 C 227.03 244.45 225.82 245.97 224.81 247.63 C 226.58 247.77 228.35 247.71 230.11 247.46 C 230.69 246.38 231.19 245.26 231.70 244.14 C 231.66 245.02 231.57 246.77 231.53 247.64 C 233.37 247.32 235.21 246.96 237.04 246.59 L 236.52 245.93 C 239.26 245.41 241.99 244.81 244.72 244.26 C 246.13 245.16 247.74 245.58 249.40 245.64 C 249.79 246.19 250.19 246.75 250.58 247.31 C 249.99 247.99 249.54 248.75 249.25 249.59 C 253.78 248.11 258.86 248.56 263.04 246.05 C 264.44 244.95 266.16 245.79 267.70 245.97 C 267.53 246.68 267.37 247.38 267.23 248.10 C 265.92 248.82 264.04 251.46 266.89 251.42 C 269.30 251.04 271.68 250.52 274.12 250.26 C 274.53 249.84 275.36 249.00 275.77 248.58 C 279.02 248.67 282.26 248.45 285.46 247.91 C 289.78 247.22 294.15 248.07 298.47 247.53 C 301.62 247.06 303.88 244.42 306.96 243.77 C 309.12 243.38 311.13 242.47 313.22 241.83 C 316.03 241.70 319.01 242.15 321.42 240.33 L 322.95 240.59 C 323.09 238.26 321.65 236.56 320.17 234.99 C 319.26 235.19 318.36 235.38 317.45 235.58 C 317.44 235.06 317.42 234.01 317.41 233.48 C 318.92 233.58 320.44 233.68 321.96 233.78 C 320.74 230.01 320.29 225.71 317.45 222.72 C 317.40 222.33 317.31 221.56 317.26 221.17 C 319.14 221.51 321.04 221.86 322.93 222.22 C 324.03 220.74 325.25 219.33 326.36 217.85 C 326.65 215.72 325.35 213.74 324.87 211.72 L 324.76 212.12 C 323.44 210.14 321.32 209.15 319.21 208.27 C 319.78 206.70 320.51 205.19 321.35 203.74 C 319.86 201.65 317.95 199.84 315.39 199.22 C 315.03 198.80 314.33 197.97 313.97 197.55 C 311.14 197.16 308.12 197.49 305.41 196.50 C 301.49 193.40 295.75 191.17 295.30 185.46 C 293.57 184.58 291.85 183.61 289.93 183.23 C 287.21 186.19 283.46 188.28 281.77 192.06 C 282.14 193.19 282.51 194.32 282.89 195.46 C 280.97 194.49 278.84 194.27 276.72 194.48 C 276.49 194.93 276.02 195.83 275.78 196.28 C 273.57 194.35 270.77 193.52 267.95 192.98 C 267.90 192.29 267.80 190.90 267.76 190.21 C 266.35 189.41 264.95 188.61 263.57 187.78 C 262.99 185.43 261.63 183.45 259.91 181.79 C 259.01 182.10 258.12 182.40 257.22 182.70 C 255.63 181.54 253.98 180.46 252.29 179.45 C 251.52 178.65 250.86 177.71 249.90 177.14 C 246.79 178.10 243.79 179.59 241.34 181.74 M 172.79 206.39 C 173.53 207.47 174.27 208.55 175.02 209.63 C 176.01 208.52 177.01 207.42 178.02 206.32 C 176.27 206.33 174.53 206.36 172.79 206.39 M 174.25 213.46 C 173.46 214.75 172.67 216.04 171.86 217.33 C 169.93 217.35 168.02 217.65 166.18 218.20 C 167.59 219.89 169.02 221.56 170.43 223.25 C 170.32 224.62 170.22 225.98 170.15 227.36 C 171.83 226.24 172.79 224.46 173.62 222.68 C 174.24 222.56 175.47 222.32 176.09 222.20 C 176.56 221.12 177.02 220.04 177.50 218.96 C 176.74 218.07 175.99 217.20 175.22 216.33 C 177.80 217.11 179.81 215.38 181.57 213.75 C 180.00 212.67 178.55 213.84 177.16 214.56 C 176.19 214.19 175.22 213.82 174.25 213.46 Z" />
<path fill="#6bbdc6" opacity="1.00" d=" M 196.08 217.74 C 199.45 216.53 202.90 215.54 206.44 215.01 C 206.68 215.65 207.17 216.93 207.41 217.57 C 206.62 218.36 205.84 219.15 205.06 219.95 C 204.00 219.30 202.93 218.64 201.87 218.00 C 200.68 218.81 199.50 219.63 198.27 220.38 C 197.96 220.30 197.34 220.15 197.02 220.07 C 196.70 219.29 196.39 218.52 196.08 217.74 Z" />
<path fill="#6bbdc6" opacity="1.00" d=" M 45.11 241.80 C 46.70 236.05 51.97 231.64 57.95 231.27 C 60.78 230.98 64.37 231.28 65.82 234.16 C 67.67 238.28 66.21 242.88 65.20 247.03 C 69.73 245.67 74.75 244.44 79.22 246.79 C 85.81 249.47 88.40 256.54 90.64 262.69 C 96.13 263.88 102.49 263.96 106.17 268.96 C 104.70 270.48 103.50 272.53 101.35 273.16 C 96.46 274.67 91.38 275.98 86.22 275.74 C 79.86 275.44 73.49 275.22 67.13 275.53 C 52.23 277.07 37.22 276.13 22.28 276.89 C 21.16 276.39 20.07 275.86 18.97 275.32 C 22.78 274.46 27.14 275.62 30.53 273.31 C 29.11 272.91 27.68 272.54 26.25 272.20 C 26.30 269.45 26.35 266.70 26.41 263.95 C 27.17 264.43 27.93 264.92 28.69 265.41 C 27.94 266.99 27.20 268.59 26.48 270.19 C 27.60 269.74 28.70 269.25 29.77 268.70 C 31.15 266.90 30.26 264.67 29.77 262.75 C 30.04 262.61 30.59 262.33 30.86 262.19 C 31.53 264.51 32.23 266.82 32.96 269.12 C 34.24 267.71 35.51 266.29 36.77 264.86 C 35.55 264.25 34.33 263.65 33.11 263.04 C 33.75 261.37 34.43 259.70 35.13 258.05 C 33.23 256.66 31.52 255.02 30.32 252.98 C 31.44 251.92 33.34 251.35 33.80 249.78 C 33.49 248.51 32.90 247.33 32.40 246.14 C 32.79 246.27 33.56 246.55 33.95 246.68 C 35.13 247.94 36.43 249.13 38.09 249.72 C 37.60 247.93 37.03 246.17 36.43 244.42 C 39.16 243.06 42.14 242.41 45.10 241.80 L 45.11 241.80 Z" />
<path fill="#6bbdc6" opacity="1.00" d=" M 363.19 240.74 C 364.29 240.34 365.39 239.93 366.50 239.53 C 366.72 239.99 367.17 240.92 367.40 241.39 C 368.64 241.37 369.88 241.35 371.14 241.35 C 370.61 243.29 370.08 245.24 369.58 247.20 C 372.82 247.50 376.36 246.43 379.38 248.02 C 380.11 249.88 377.90 251.52 377.24 253.19 C 378.54 252.57 379.86 251.95 381.17 251.34 C 381.60 252.06 382.03 252.77 382.47 253.50 C 383.19 253.11 383.92 252.74 384.65 252.36 C 384.65 253.44 384.66 254.52 384.69 255.61 C 386.33 254.52 387.14 252.71 388.02 251.03 C 390.13 253.97 388.85 257.77 390.15 261.01 C 389.80 261.89 389.44 262.77 389.09 263.66 C 390.62 263.39 392.16 263.13 393.70 262.87 C 392.57 260.98 391.42 259.10 390.27 257.23 C 391.20 257.38 392.13 257.55 393.07 257.71 C 393.45 256.02 394.08 254.38 395.75 253.55 C 395.74 256.49 395.52 259.43 395.22 262.36 C 396.92 262.69 398.63 263.03 400.33 263.38 C 400.79 263.32 401.70 263.22 402.15 263.16 C 403.46 267.10 407.00 270.15 411.21 270.40 C 421.83 271.06 432.48 271.47 443.12 271.83 C 443.25 272.30 443.52 273.25 443.65 273.72 C 442.55 273.94 441.45 274.17 440.35 274.40 C 440.20 274.95 439.89 276.04 439.74 276.59 C 441.57 275.91 443.41 275.22 445.26 274.54 C 445.39 274.15 445.67 273.36 445.81 272.97 C 447.32 273.13 448.84 273.30 450.36 273.47 C 450.52 273.93 450.84 274.84 451.00 275.29 C 449.50 275.43 448.01 275.57 446.52 275.71 C 447.52 276.18 448.53 276.65 449.54 277.13 C 449.15 277.83 448.77 278.53 448.40 279.24 C 450.49 278.82 452.58 278.40 454.67 277.98 C 454.24 278.57 453.82 279.17 453.40 279.76 C 454.59 280.03 455.79 280.30 457.00 280.57 C 455.52 280.84 454.05 281.12 452.58 281.40 C 451.99 282.63 451.40 283.87 450.81 285.11 C 450.25 283.28 449.70 281.45 449.11 279.64 C 449.26 282.00 447.33 287.16 451.04 287.19 C 454.38 286.37 456.39 283.22 458.81 281.00 C 458.24 286.09 456.51 291.61 459.41 296.32 C 458.96 296.10 458.06 295.66 457.61 295.44 C 456.70 293.42 455.79 291.41 454.85 289.42 C 454.62 290.96 454.27 292.52 454.38 294.10 C 455.39 296.13 456.63 298.06 457.40 300.22 C 458.94 299.78 460.47 299.34 462.02 298.91 C 460.29 300.28 458.55 301.64 456.81 303.00 C 457.59 304.32 458.37 305.66 459.16 306.99 C 458.53 307.72 457.91 308.46 457.28 309.20 C 454.89 308.41 452.59 309.07 450.66 310.60 C 452.36 310.81 454.07 311.01 455.79 311.20 C 454.33 312.22 452.73 313.10 451.58 314.49 C 451.41 316.46 451.68 318.46 451.46 320.43 C 450.34 322.79 447.77 324.04 446.47 326.30 C 445.56 327.87 444.90 329.56 444.19 331.24 C 445.22 331.38 446.26 331.54 447.30 331.69 C 447.35 330.13 447.40 328.57 447.46 327.01 C 448.76 328.85 450.04 330.71 451.30 332.58 C 450.42 332.59 449.54 332.61 448.67 332.63 C 448.26 335.83 446.66 338.67 445.20 341.49 C 446.05 341.52 446.91 341.56 447.77 341.60 C 448.06 342.70 448.36 343.80 448.67 344.92 C 449.08 343.93 449.49 342.95 449.91 341.97 C 450.58 342.50 451.26 343.03 451.94 343.57 C 452.84 343.13 453.75 342.70 454.67 342.29 C 453.26 345.77 449.35 346.51 446.20 347.69 C 446.45 347.88 446.95 348.25 447.20 348.44 C 450.15 347.81 453.13 347.33 456.12 346.94 C 453.49 348.27 450.98 349.84 448.69 351.71 C 449.33 352.25 449.98 352.80 450.64 353.35 C 451.77 353.08 452.91 352.75 454.08 352.69 C 454.98 353.57 455.77 354.55 456.59 355.52 C 455.44 355.42 454.29 355.31 453.15 355.21 C 454.45 356.72 455.73 358.25 457.00 359.80 C 459.44 358.40 461.99 357.18 464.72 356.44 C 462.90 358.17 460.96 359.75 458.94 361.23 C 459.52 361.37 460.68 361.65 461.27 361.79 C 460.46 362.53 459.65 363.28 458.84 364.00 L 371.97 364.00 C 370.32 350.71 368.77 337.38 365.84 324.30 C 363.15 310.23 358.86 296.52 356.44 282.40 C 354.90 274.72 352.70 266.65 355.47 258.97 C 356.31 256.02 357.21 253.09 358.25 250.21 C 358.85 248.77 359.48 247.34 360.08 245.91 C 361.26 246.55 362.46 247.21 363.65 247.86 C 363.49 245.49 363.34 243.11 363.19 240.74 Z" />
<path fill="#6bbdc6" opacity="1.00" d=" M 138.32 262.17 C 140.24 261.13 142.15 260.07 143.98 258.88 C 148.64 267.75 157.59 273.66 161.44 283.01 C 163.21 289.74 163.35 296.80 163.22 303.73 C 161.58 317.09 162.05 330.56 161.99 343.99 C 162.00 347.10 162.42 350.19 162.79 353.27 C 163.13 356.84 163.42 360.41 163.36 364.00 L 0.00 364.00 L 0.00 279.37 C 6.65 279.13 13.28 278.54 19.95 278.82 C 35.61 277.66 51.40 279.20 67.00 277.23 C 74.33 276.64 81.66 277.29 88.97 277.62 C 95.43 276.70 102.41 275.74 107.33 271.02 C 108.83 271.04 110.33 271.07 111.84 271.10 C 111.66 270.71 111.30 269.94 111.13 269.55 C 109.92 269.68 108.71 269.82 107.51 269.96 C 109.73 266.95 111.66 263.67 114.37 261.07 C 116.64 259.35 119.70 259.65 121.52 261.86 C 119.34 262.14 117.15 262.38 114.97 262.63 C 115.86 263.58 116.74 264.55 117.68 265.45 C 119.82 268.28 120.95 263.30 122.25 262.07 C 123.24 262.56 124.23 263.04 125.22 263.53 C 124.49 264.63 123.76 265.75 123.03 266.87 C 124.83 266.08 126.72 265.43 128.33 264.28 C 129.46 262.99 129.88 261.27 130.51 259.71 C 131.94 262.16 133.58 264.48 135.44 266.63 C 136.70 265.57 137.98 264.52 139.25 263.47 C 138.92 263.04 138.62 262.61 138.32 262.17 Z" />
</g>
<g id="#e7efd5ff">
<path fill="#e7efd5" opacity="1.00" d=" M 241.34 181.74 C 243.79 179.59 246.79 178.10 249.90 177.14 C 250.86 177.71 251.52 178.65 252.29 179.45 C 253.98 180.46 255.63 181.54 257.22 182.70 C 258.12 182.40 259.01 182.10 259.91 181.79 C 261.63 183.45 262.99 185.43 263.57 187.78 C 264.95 188.61 266.35 189.41 267.76 190.21 C 267.80 190.90 267.90 192.29 267.95 192.98 C 270.77 193.52 273.57 194.35 275.78 196.28 C 276.02 195.83 276.49 194.93 276.72 194.48 C 278.84 194.27 280.97 194.49 282.89 195.46 C 282.51 194.32 282.14 193.19 281.77 192.06 C 283.46 188.28 287.21 186.19 289.93 183.23 C 291.85 183.61 293.57 184.58 295.30 185.46 C 295.75 191.17 301.49 193.40 305.41 196.50 C 308.12 197.49 311.14 197.16 313.97 197.55 C 314.33 197.97 315.03 198.80 315.39 199.22 C 317.95 199.84 319.86 201.65 321.35 203.74 C 320.51 205.19 319.78 206.70 319.21 208.27 C 321.32 209.15 323.44 210.14 324.76 212.12 C 324.31 213.66 323.87 215.20 323.42 216.73 C 320.94 217.55 318.80 219.06 317.26 221.17 C 317.31 221.56 317.40 222.33 317.45 222.72 C 320.29 225.71 320.74 230.01 321.96 233.78 C 320.44 233.68 318.92 233.58 317.41 233.48 C 317.42 234.01 317.44 235.06 317.45 235.58 C 318.36 235.38 319.26 235.19 320.17 234.99 C 321.65 236.56 323.09 238.26 322.95 240.59 L 321.42 240.33 C 314.56 238.24 308.19 242.27 301.42 242.52 C 301.36 241.50 301.31 240.47 301.26 239.45 C 297.47 237.97 293.38 238.02 289.38 238.23 C 289.76 240.13 290.15 242.04 290.55 243.94 C 287.70 244.87 284.94 246.13 281.98 246.67 C 278.79 246.93 275.58 246.63 272.38 246.66 C 272.36 245.83 272.35 245.00 272.33 244.18 C 271.17 243.58 270.01 242.98 268.86 242.39 C 268.45 243.57 268.04 244.76 267.70 245.97 C 266.16 245.79 264.44 244.95 263.04 246.05 C 258.86 248.56 253.78 248.11 249.25 249.59 C 249.54 248.75 249.99 247.99 250.58 247.31 C 250.19 246.75 249.79 246.19 249.40 245.64 C 247.74 245.58 246.13 245.16 244.72 244.26 C 241.99 244.81 239.26 245.41 236.52 245.93 C 234.86 244.02 233.27 241.75 233.65 239.08 C 236.14 237.84 238.87 236.91 240.74 234.72 C 242.04 233.13 243.97 232.51 245.94 232.22 C 247.37 234.21 248.25 237.18 250.95 237.77 C 254.34 238.75 257.69 239.96 260.55 242.09 C 264.23 241.36 268.00 241.28 271.75 241.42 C 272.08 241.02 272.43 240.62 272.78 240.23 C 269.25 238.89 267.59 235.32 265.13 232.74 C 263.09 230.52 260.42 229.00 258.36 226.80 C 257.44 223.16 260.87 221.19 264.01 221.01 C 261.13 219.46 258.96 217.01 256.55 214.87 C 254.92 214.59 253.25 214.68 251.64 214.36 C 248.10 212.45 244.83 209.96 240.93 208.80 C 238.98 208.66 237.08 209.26 235.19 209.65 C 236.50 207.28 237.06 204.62 237.05 201.93 C 232.12 203.54 229.53 208.71 224.45 209.98 C 222.70 208.06 221.02 206.07 219.44 204.01 C 221.03 204.21 222.63 204.44 224.22 204.66 C 224.73 202.38 224.75 200.03 224.23 197.76 C 224.15 197.35 224.00 196.55 223.92 196.14 C 224.86 196.33 225.79 196.52 226.73 196.71 C 226.85 195.19 226.98 193.67 227.11 192.16 C 229.55 190.59 232.29 189.43 234.50 187.52 C 236.42 185.32 237.57 182.57 239.08 180.09 C 239.83 180.64 240.58 181.19 241.34 181.74 M 233.35 194.37 C 231.84 196.74 230.57 199.30 228.25 201.01 C 230.60 200.70 232.91 200.20 235.15 199.41 C 235.00 198.42 233.11 196.36 234.99 196.01 C 239.30 194.28 244.68 195.05 248.06 191.34 C 246.10 190.83 244.13 190.35 242.16 189.91 C 240.07 192.87 236.74 193.83 233.35 194.37 M 284.49 214.60 C 279.88 215.25 276.67 219.29 274.88 223.29 C 278.28 222.81 281.72 223.97 285.08 223.00 C 289.51 221.15 293.01 225.66 297.53 224.83 C 297.13 223.41 296.73 222.00 296.33 220.59 C 292.48 218.50 289.41 213.32 284.49 214.60 Z" />
<path fill="#e7efd5" opacity="1.00" d=" M 204.95 198.50 C 205.20 195.98 206.43 193.79 207.85 191.76 C 209.65 191.73 211.44 191.70 213.24 191.66 C 213.28 192.48 213.35 194.11 213.39 194.93 C 213.58 194.45 213.96 193.48 214.15 193.00 C 214.65 193.27 215.65 193.82 216.15 194.09 C 217.60 193.76 219.06 193.43 220.51 193.11 C 221.10 196.02 221.79 198.91 222.62 201.77 C 221.62 202.33 220.63 202.90 219.64 203.48 C 218.58 201.74 217.55 200.00 216.55 198.23 C 214.96 199.82 213.37 201.40 211.79 203.00 C 212.80 203.86 213.82 204.72 214.84 205.59 C 215.24 204.97 216.06 203.75 216.46 203.14 C 218.22 204.87 220.00 206.57 221.81 208.26 C 221.41 208.77 221.01 209.28 220.62 209.80 C 221.69 212.53 223.94 215.46 222.70 218.50 C 221.46 221.97 219.34 225.34 219.91 229.19 C 220.52 232.16 217.48 234.47 217.76 237.26 C 219.66 239.50 222.68 240.55 224.70 242.74 C 225.01 244.85 225.12 248.01 222.22 248.05 C 218.76 246.46 215.67 244.20 212.19 242.65 C 208.51 242.33 204.93 243.82 201.24 243.49 C 198.11 243.21 195.05 243.91 192.02 244.54 C 188.78 243.61 186.03 241.62 183.48 239.48 C 183.35 240.07 183.09 241.24 182.96 241.83 C 182.54 241.63 181.68 241.25 181.25 241.05 L 180.92 240.16 C 180.15 238.09 179.41 236.00 178.66 233.92 C 180.17 232.98 181.83 232.34 183.53 231.85 C 184.68 229.43 186.47 227.11 189.04 226.12 C 190.00 226.19 190.95 226.27 191.91 226.37 C 193.21 225.57 194.50 224.77 195.80 223.97 C 194.36 222.55 193.09 220.95 192.45 218.99 C 193.98 219.33 195.51 219.68 197.02 220.07 C 197.34 220.15 197.96 220.30 198.27 220.38 C 199.50 219.63 200.68 218.81 201.87 218.00 C 202.93 218.64 204.00 219.30 205.06 219.95 C 205.84 219.15 206.62 218.36 207.41 217.57 C 207.84 218.60 208.28 219.62 208.75 220.64 C 210.09 219.35 211.42 218.06 212.76 216.77 C 211.20 216.67 209.65 216.57 208.10 216.48 C 207.05 212.42 205.74 208.25 206.57 204.02 C 207.67 205.50 208.75 207.01 209.82 208.52 C 209.46 208.90 208.75 209.64 208.40 210.02 C 210.21 210.63 212.03 211.26 213.85 211.89 C 213.12 211.17 212.40 210.44 211.68 209.71 C 210.35 205.51 207.81 201.80 204.95 198.50 Z" />
<path fill="#e7efd5" opacity="1.00" d=" M 186.40 198.10 C 187.36 197.79 188.32 197.49 189.29 197.19 C 189.00 198.58 188.59 199.94 188.11 201.28 C 190.39 202.10 192.67 202.91 194.95 203.75 C 196.76 201.40 198.28 198.86 199.83 196.34 C 200.68 196.95 201.53 197.56 202.39 198.18 C 202.78 200.34 203.38 202.47 204.29 204.48 C 204.56 205.15 204.84 205.82 205.11 206.49 C 203.63 209.13 202.95 212.09 201.78 214.85 C 198.95 215.52 195.99 215.90 193.09 215.60 C 191.40 215.05 190.11 213.70 188.68 212.69 C 188.15 212.73 187.08 212.79 186.55 212.83 C 186.08 211.26 186.77 209.86 187.64 208.59 C 185.65 208.00 184.29 206.43 182.92 204.98 C 184.05 202.67 185.21 200.38 186.40 198.10 Z" />
</g>
<g id="#b4d5c6ff">
<path fill="#b4d5c6" opacity="1.00" d=" M 233.35 194.37 C 236.74 193.83 240.07 192.87 242.16 189.91 C 244.13 190.35 246.10 190.83 248.06 191.34 C 244.68 195.05 239.30 194.28 234.99 196.01 C 233.11 196.36 235.00 198.42 235.15 199.41 C 232.91 200.20 230.60 200.70 228.25 201.01 C 230.57 199.30 231.84 196.74 233.35 194.37 Z" />
<path fill="#b4d5c6" opacity="1.00" d=" M 211.79 203.00 C 213.37 201.40 214.96 199.82 216.55 198.23 C 217.55 200.00 218.58 201.74 219.64 203.48 C 220.63 202.90 221.62 202.33 222.62 201.77 C 223.07 201.51 223.53 201.25 223.99 200.99 C 224.05 200.18 224.17 198.56 224.23 197.76 C 224.75 200.03 224.73 202.38 224.22 204.66 C 222.63 204.44 221.03 204.21 219.44 204.01 C 221.02 206.07 222.70 208.06 224.45 209.98 C 229.53 208.71 232.12 203.54 237.05 201.93 C 237.06 204.62 236.50 207.28 235.19 209.65 C 237.08 209.26 238.98 208.66 240.93 208.80 C 244.83 209.96 248.10 212.45 251.64 214.36 C 253.25 214.68 254.92 214.59 256.55 214.87 C 258.96 217.01 261.13 219.46 264.01 221.01 C 260.87 221.19 257.44 223.16 258.36 226.80 C 260.42 229.00 263.09 230.52 265.13 232.74 C 267.59 235.32 269.25 238.89 272.78 240.23 C 272.43 240.62 272.08 241.02 271.75 241.42 C 268.00 241.28 264.23 241.36 260.55 242.09 C 257.69 239.96 254.34 238.75 250.95 237.77 C 248.25 237.18 247.37 234.21 245.94 232.22 C 243.97 232.51 242.04 233.13 240.74 234.72 C 238.87 236.91 236.14 237.84 233.65 239.08 C 233.27 241.75 234.86 244.02 236.52 245.93 L 237.04 246.59 C 235.21 246.96 233.37 247.32 231.53 247.64 C 231.57 246.77 231.66 245.02 231.70 244.14 C 231.19 245.26 230.69 246.38 230.11 247.46 C 228.35 247.71 226.58 247.77 224.81 247.63 C 225.82 245.97 227.03 244.45 228.42 243.10 C 227.83 242.25 227.25 241.40 226.68 240.55 C 226.58 241.39 225.79 243.95 224.70 242.74 C 222.68 240.55 219.66 239.50 217.76 237.26 C 217.48 234.47 220.52 232.16 219.91 229.19 C 219.34 225.34 221.46 221.97 222.70 218.50 C 223.94 215.46 221.69 212.53 220.62 209.80 C 221.01 209.28 221.41 208.77 221.81 208.26 C 220.00 206.57 218.22 204.87 216.46 203.14 C 216.06 203.75 215.24 204.97 214.84 205.59 C 213.82 204.72 212.80 203.86 211.79 203.00 Z" />
<path fill="#b4d5c6" opacity="1.00" d=" M 204.29 204.48 C 207.51 203.05 202.58 200.28 204.95 198.50 C 207.81 201.80 210.35 205.51 211.68 209.71 C 212.40 210.44 213.12 211.17 213.85 211.89 C 212.03 211.26 210.21 210.63 208.40 210.02 C 208.75 209.64 209.46 208.90 209.82 208.52 C 208.75 207.01 207.67 205.50 206.57 204.02 C 205.74 208.25 207.05 212.42 208.10 216.48 C 209.65 216.57 211.20 216.67 212.76 216.77 C 211.42 218.06 210.09 219.35 208.75 220.64 C 208.28 219.62 207.84 218.60 207.41 217.57 C 207.17 216.93 206.68 215.65 206.44 215.01 C 202.90 215.54 199.45 216.53 196.08 217.74 C 196.39 218.52 196.70 219.29 197.02 220.07 C 195.51 219.68 193.98 219.33 192.45 218.99 C 193.09 220.95 194.36 222.55 195.80 223.97 C 194.50 224.77 193.21 225.57 191.91 226.37 C 190.95 226.27 190.00 226.19 189.04 226.12 C 189.51 225.16 189.98 224.21 190.45 223.26 C 191.31 223.30 192.17 223.35 193.04 223.40 C 191.08 219.76 189.33 215.94 186.55 212.83 C 187.08 212.79 188.15 212.73 188.68 212.69 C 190.11 213.70 191.40 215.05 193.09 215.60 C 195.99 215.90 198.95 215.52 201.78 214.85 C 202.95 212.09 203.63 209.13 205.11 206.49 C 204.84 205.82 204.56 205.15 204.29 204.48 Z" />
<path fill="#b4d5c6" opacity="1.00" d=" M 172.79 206.39 C 174.53 206.36 176.27 206.33 178.02 206.32 C 177.01 207.42 176.01 208.52 175.02 209.63 C 174.27 208.55 173.53 207.47 172.79 206.39 Z" />
<path fill="#b4d5c6" opacity="1.00" d=" M 324.76 212.12 L 324.87 211.72 C 325.35 213.74 326.65 215.72 326.36 217.85 C 325.25 219.33 324.03 220.74 322.93 222.22 C 321.04 221.86 319.14 221.51 317.26 221.17 C 318.80 219.06 320.94 217.55 323.42 216.73 C 323.87 215.20 324.31 213.66 324.76 212.12 Z" />
<path fill="#b4d5c6" opacity="1.00" d=" M 174.25 213.46 C 175.22 213.82 176.19 214.19 177.16 214.56 C 178.55 213.84 180.00 212.67 181.57 213.75 C 179.81 215.38 177.80 217.11 175.22 216.33 C 175.99 217.20 176.74 218.07 177.50 218.96 C 177.02 220.04 176.56 221.12 176.09 222.20 C 175.47 222.32 174.24 222.56 173.62 222.68 C 172.79 224.46 171.83 226.24 170.15 227.36 C 170.22 225.98 170.32 224.62 170.43 223.25 C 169.02 221.56 167.59 219.89 166.18 218.20 C 168.02 217.65 169.93 217.35 171.86 217.33 C 172.67 216.04 173.46 214.75 174.25 213.46 Z" />
<path fill="#b4d5c6" opacity="1.00" d=" M 284.49 214.60 C 289.41 213.32 292.48 218.50 296.33 220.59 C 296.73 222.00 297.13 223.41 297.53 224.83 C 293.01 225.66 289.51 221.15 285.08 223.00 C 281.72 223.97 278.28 222.81 274.88 223.29 C 276.67 219.29 279.88 215.25 284.49 214.60 Z" />
<path fill="#b4d5c6" opacity="1.00" d=" M 335.17 218.74 C 335.85 217.61 336.66 216.55 337.45 215.48 C 338.94 216.64 340.51 217.74 341.83 219.12 C 341.05 221.18 339.63 222.89 338.29 224.60 L 337.86 224.69 C 337.17 222.62 336.30 220.61 335.17 218.74 Z" />
<path fill="#b4d5c6" opacity="1.00" d=" M 150.62 231.48 C 151.07 231.42 151.97 231.28 152.43 231.21 C 151.97 232.57 151.51 233.92 151.06 235.28 C 155.81 237.73 161.44 238.66 165.37 242.52 C 162.32 241.24 159.42 239.62 156.31 238.49 C 155.04 238.26 153.46 237.14 152.30 238.17 C 150.08 239.43 150.28 242.47 151.69 244.27 C 155.89 245.62 160.73 245.38 164.18 248.56 C 162.45 247.81 160.76 246.94 158.94 246.45 C 156.27 247.43 153.90 249.05 151.68 250.79 C 151.22 250.35 150.31 249.48 149.85 249.04 C 149.48 247.12 149.07 245.20 148.72 243.28 C 149.89 239.46 150.84 235.50 150.62 231.48 M 155.27 246.09 C 155.42 249.37 158.29 244.57 155.27 246.09 Z" />
<path fill="#b4d5c6" opacity="1.00" d=" M 176.77 236.84 C 177.39 235.86 178.05 234.91 178.66 233.92 C 179.41 236.00 180.15 238.09 180.92 240.16 C 179.53 241.15 178.13 242.14 176.73 243.12 C 175.09 241.14 175.77 238.91 176.77 236.84 Z" />
<path fill="#b4d5c6" opacity="1.00" d=" M 339.29 237.55 C 341.06 237.54 342.82 237.53 344.59 237.52 C 344.51 239.17 344.34 240.83 344.54 242.48 C 345.23 243.68 346.58 244.26 347.66 245.06 C 347.88 245.03 348.32 244.97 348.54 244.93 C 348.15 246.26 347.82 247.60 347.54 248.96 C 347.29 248.15 347.03 247.36 346.75 246.57 C 346.16 248.00 345.59 249.44 345.02 250.88 C 343.74 250.31 342.46 249.75 341.19 249.18 C 341.63 247.47 342.06 245.77 342.50 244.07 C 341.07 244.68 339.65 245.28 338.22 245.86 C 339.10 243.18 339.27 240.35 339.29 237.55 Z" />
<path fill="#b4d5c6" opacity="1.00" d=" M 289.38 238.23 C 293.38 238.02 297.47 237.97 301.26 239.45 C 301.31 240.47 301.36 241.50 301.42 242.52 C 308.19 242.27 314.56 238.24 321.42 240.33 C 319.01 242.15 316.03 241.70 313.22 241.83 C 311.13 242.47 309.12 243.38 306.96 243.77 C 303.88 244.42 301.62 247.06 298.47 247.53 C 294.15 248.07 289.78 247.22 285.46 247.91 C 282.26 248.45 279.02 248.67 275.77 248.58 C 275.36 249.00 274.53 249.84 274.12 250.26 C 271.68 250.52 269.30 251.04 266.89 251.42 C 264.04 251.46 265.92 248.82 267.23 248.10 C 267.37 247.38 267.53 246.68 267.70 245.97 C 268.04 244.76 268.45 243.57 268.86 242.39 C 270.01 242.98 271.17 243.58 272.33 244.18 C 272.35 245.00 272.36 245.83 272.38 246.66 C 275.58 246.63 278.79 246.93 281.98 246.67 C 284.94 246.13 287.70 244.87 290.55 243.94 C 290.15 242.04 289.76 240.13 289.38 238.23 Z" />
<path fill="#b4d5c6" opacity="1.00" d=" M 183.48 239.48 C 186.03 241.62 188.78 243.61 192.02 244.54 C 191.39 245.17 190.76 245.80 190.13 246.43 C 186.92 245.56 183.64 245.02 180.34 244.65 C 180.64 243.45 180.94 242.25 181.25 241.05 C 181.68 241.25 182.54 241.63 182.96 241.83 C 183.09 241.24 183.35 240.07 183.48 239.48 Z" />
<path fill="#b4d5c6" opacity="1.00" d=" M 212.19 242.65 C 215.67 244.20 218.76 246.46 222.22 248.05 C 217.74 249.15 213.02 248.71 209.15 246.09 C 210.16 244.93 211.17 243.79 212.19 242.65 Z" />
<path fill="#b4d5c6" opacity="1.00" d=" M 351.16 252.67 C 353.76 252.57 356.72 252.74 358.25 250.21 C 357.21 253.09 356.31 256.02 355.47 258.97 C 355.87 255.93 353.17 254.33 351.16 252.67 Z" />
<path fill="#b4d5c6" opacity="1.00" d=" M 153.88 254.50 C 157.11 253.04 160.52 253.86 163.70 254.99 C 163.62 256.05 163.55 257.11 163.47 258.17 C 163.12 258.27 162.42 258.45 162.07 258.55 L 161.66 258.84 C 161.52 258.35 161.22 257.39 161.07 256.91 L 160.94 256.00 C 160.51 255.89 159.65 255.67 159.22 255.55 C 158.67 255.54 157.57 255.51 157.02 255.49 C 157.36 256.80 157.69 258.12 158.07 259.43 C 156.64 257.81 155.25 256.17 153.88 254.50 Z" />
<path fill="#b4d5c6" opacity="1.00" d=" M 174.17 277.95 C 177.28 278.88 180.50 279.36 183.73 279.69 C 183.59 280.88 183.46 282.08 183.36 283.28 C 183.39 282.78 183.45 281.79 183.47 281.29 C 181.94 281.77 180.42 282.41 178.79 282.51 C 176.97 281.30 175.60 279.57 174.17 277.95 Z" />
<path fill="#b4d5c6" opacity="1.00" d=" M 337.13 285.10 C 346.96 304.11 341.07 326.32 346.96 346.29 C 348.71 352.18 349.83 358.25 352.02 364.00 L 346.79 364.00 C 344.87 353.64 341.74 343.51 340.83 332.98 C 338.93 324.83 339.85 316.44 339.52 308.16 C 339.81 302.67 337.60 297.47 337.49 292.01 C 337.37 289.70 337.34 287.39 337.13 285.10 Z" />
</g>
<g id="#f5e7b3ff">
<path fill="#f5e7b3" opacity="1.00" d=" M 342.41 211.48 C 344.58 211.02 347.17 210.18 349.01 211.93 C 351.59 213.89 349.66 217.50 349.47 220.12 C 351.71 226.45 355.16 232.32 359.82 237.17 C 362.34 239.54 361.30 243.16 360.08 245.91 C 359.48 247.34 358.85 248.77 358.25 250.21 C 356.72 252.74 353.76 252.57 351.16 252.67 C 353.17 254.33 355.87 255.93 355.47 258.97 C 352.70 266.65 354.90 274.72 356.44 282.40 C 358.86 296.52 363.15 310.23 365.84 324.30 C 368.77 337.38 370.32 350.71 371.97 364.00 L 352.02 364.00 C 349.83 358.25 348.71 352.18 346.96 346.29 C 341.07 326.32 346.96 304.11 337.13 285.10 C 336.83 283.43 336.58 281.77 336.37 280.10 C 337.93 277.86 339.39 275.50 340.18 272.86 C 341.01 270.89 341.68 268.86 342.74 267.00 C 345.25 265.89 348.01 264.96 349.88 262.85 C 350.17 258.14 348.49 253.53 347.54 248.96 C 347.82 247.60 348.15 246.26 348.54 244.93 C 350.95 244.42 353.43 244.21 355.90 244.35 C 354.76 244.00 353.63 243.65 352.50 243.30 C 353.58 242.38 354.67 241.47 355.77 240.57 C 355.24 240.65 354.18 240.80 353.66 240.87 C 353.36 240.54 352.76 239.88 352.46 239.54 C 350.89 241.40 349.29 243.24 347.66 245.06 C 346.58 244.26 345.23 243.68 344.54 242.48 C 344.34 240.83 344.51 239.17 344.59 237.52 C 342.82 237.53 341.06 237.54 339.29 237.55 C 339.27 240.35 339.10 243.18 338.22 245.86 C 337.27 243.15 337.73 240.27 337.79 237.47 C 337.16 237.54 335.89 237.68 335.26 237.75 C 335.23 234.90 335.16 232.06 335.16 229.22 C 335.36 228.90 335.75 228.27 335.95 227.96 C 336.69 226.81 337.47 225.69 338.29 224.60 C 339.63 222.89 341.05 221.18 341.83 219.12 C 340.51 217.74 338.94 216.64 337.45 215.48 C 338.95 213.98 340.63 212.65 342.41 211.48 Z" />
<path fill="#f5e7b3" opacity="1.00" d=" M 333.80 221.13 C 334.14 220.53 334.83 219.34 335.17 218.74 C 336.30 220.61 337.17 222.62 337.86 224.69 C 337.15 224.78 335.74 224.95 335.03 225.04 C 334.60 224.52 333.73 223.48 333.30 222.96 C 333.43 222.50 333.68 221.59 333.80 221.13 Z" />
<path fill="#f5e7b3" opacity="1.00" d=" M 150.38 227.60 C 152.46 226.89 154.65 226.72 156.82 227.04 C 159.04 227.78 161.51 228.16 163.44 229.58 C 165.52 231.77 166.97 234.47 168.63 236.99 C 166.30 241.09 167.73 245.98 165.74 250.15 C 165.90 253.84 165.86 257.58 164.95 261.19 C 164.53 261.18 163.71 261.16 163.29 261.15 C 162.89 260.57 162.07 259.42 161.66 258.84 L 162.07 258.55 C 162.42 258.45 163.12 258.27 163.47 258.17 C 163.55 257.11 163.62 256.05 163.70 254.99 C 160.52 253.86 157.11 253.04 153.88 254.50 C 155.25 256.17 156.64 257.81 158.07 259.43 C 158.33 259.72 158.85 260.29 159.11 260.57 L 159.14 261.45 C 158.90 263.86 158.56 266.26 158.25 268.67 C 155.53 269.47 154.38 266.72 152.91 265.05 C 151.82 263.57 150.02 262.92 148.50 262.01 C 148.52 261.45 148.55 260.32 148.57 259.75 C 145.54 260.28 145.55 257.09 145.32 254.99 C 145.60 254.61 146.17 253.86 146.45 253.48 C 147.10 253.40 148.39 253.25 149.04 253.17 C 149.91 252.36 150.79 251.57 151.68 250.79 C 153.90 249.05 156.27 247.43 158.94 246.45 C 160.76 246.94 162.45 247.81 164.18 248.56 C 160.73 245.38 155.89 245.62 151.69 244.27 C 150.28 242.47 150.08 239.43 152.30 238.17 C 153.46 237.14 155.04 238.26 156.31 238.49 C 159.42 239.62 162.32 241.24 165.37 242.52 C 161.44 238.66 155.81 237.73 151.06 235.28 C 151.51 233.92 151.97 232.57 152.43 231.21 C 151.97 231.28 151.07 231.42 150.62 231.48 C 150.56 230.51 150.44 228.57 150.38 227.60 Z" />
<path fill="#f5e7b3" opacity="1.00" d=" M 165.00 288.98 C 167.10 285.85 171.01 286.34 174.26 286.61 C 177.88 289.75 181.96 292.76 183.94 297.29 C 185.11 307.20 185.83 317.17 187.70 326.99 C 189.99 339.29 193.01 351.50 194.10 364.00 L 166.61 364.00 C 164.73 352.76 164.54 341.33 163.64 329.99 C 164.14 316.44 165.30 302.89 164.76 289.32 L 165.00 288.98 Z" />
</g>
<g id="#408499ff">
<path fill="#408499" opacity="1.00" d=" M 352.46 239.54 C 352.76 239.88 353.36 240.54 353.66 240.87 C 354.18 240.80 355.24 240.65 355.77 240.57 C 354.67 241.47 353.58 242.38 352.50 243.30 C 353.63 243.65 354.76 244.00 355.90 244.35 C 353.43 244.21 350.95 244.42 348.54 244.93 C 348.32 244.97 347.88 245.03 347.66 245.06 C 349.29 243.24 350.89 241.40 352.46 239.54 Z" />
<path fill="#408499" opacity="1.00" d=" M 330.99 269.89 C 335.05 269.67 338.94 268.38 342.74 267.00 C 341.68 268.86 341.01 270.89 340.18 272.86 L 340.04 272.43 C 336.83 273.27 333.78 274.98 330.30 274.14 C 329.95 272.97 329.56 271.80 329.18 270.64 C 320.37 271.90 311.46 271.90 302.66 273.31 C 299.98 274.03 297.04 274.67 294.40 273.46 C 299.58 273.00 304.73 272.01 309.96 272.23 C 316.99 271.78 323.93 270.28 330.99 269.89 Z" />
<path fill="#408499" opacity="1.00" d=" M 170.50 276.93 C 171.72 277.25 172.94 277.61 174.17 277.95 C 175.60 279.57 176.97 281.30 178.79 282.51 C 180.42 282.41 181.94 281.77 183.47 281.29 C 183.45 281.79 183.39 282.78 183.36 283.28 C 182.99 287.96 183.34 292.65 183.94 297.29 C 181.96 292.76 177.88 289.75 174.26 286.61 C 174.67 286.65 175.51 286.72 175.92 286.76 C 173.02 284.19 169.75 281.20 170.50 276.93 Z" />
<path fill="#408499" opacity="1.00" d=" M 163.71 289.78 C 163.97 289.67 164.50 289.44 164.76 289.32 C 165.30 302.89 164.14 316.44 163.64 329.99 C 164.54 341.33 164.73 352.76 166.61 364.00 L 165.46 364.00 C 164.56 357.64 164.79 351.13 163.35 344.84 C 162.99 347.63 162.76 350.45 162.79 353.27 C 162.42 350.19 162.00 347.10 161.99 343.99 C 162.05 330.56 161.58 317.09 163.22 303.73 C 163.30 308.23 163.33 312.73 163.45 317.24 C 164.57 308.14 164.00 298.92 163.71 289.78 Z" />
</g>
</svg>
