<?xml version="1.0" encoding="UTF-8" ?>
<!DOCTYPE svg PUBLIC "-//W3C//DTD SVG 1.1//EN" "http://www.w3.org/Graphics/SVG/1.1/DTD/svg11.dtd">
<svg width="505pt" height="247pt" viewBox="0 0 505 247" version="1.1" xmlns="http://www.w3.org/2000/svg">
<g id="#ffffffff">
<path fill="#ffffff" opacity="1.00" d=" M 340.47 57.29 C 341.97 57.34 343.93 56.50 344.82 58.20 C 344.95 58.98 345.21 60.55 345.34 61.34 C 343.87 61.24 342.40 61.16 340.93 61.07 C 341.19 61.59 341.70 62.62 341.96 63.14 C 342.84 62.81 344.62 62.16 345.51 61.83 C 344.85 63.85 342.22 64.72 340.67 63.32 C 339.62 61.45 340.29 59.29 340.47 57.29 M 342.17 58.13 C 340.44 58.45 341.58 60.67 342.96 60.09 C 344.72 59.84 343.52 57.52 342.17 58.13 Z" />
<path fill="#ffffff" opacity="1.00" d=" M 474.48 96.79 C 475.08 97.68 475.66 98.56 476.28 99.45 C 474.44 101.31 474.98 104.62 476.69 106.37 C 472.59 106.73 474.49 102.33 473.94 100.05 L 472.91 99.98 C 473.01 101.99 473.14 104.00 473.36 106.01 C 471.32 105.89 467.03 106.49 468.10 103.11 C 468.71 102.59 469.95 101.56 470.57 101.04 C 470.08 102.13 469.58 103.21 469.05 104.27 C 469.51 104.49 470.43 104.91 470.88 105.12 C 471.22 104.49 471.89 103.25 472.23 102.62 C 471.63 102.04 471.04 101.45 470.47 100.85 L 472.49 99.92 C 471.15 100.08 469.84 100.31 468.53 100.56 C 464.91 98.68 466.30 104.61 465.73 106.49 C 463.99 104.44 464.96 101.57 464.75 99.14 C 467.53 99.19 470.33 99.16 473.09 99.57 C 473.44 98.87 474.13 97.49 474.48 96.79 Z" />
<path fill="#ffffff" opacity="1.00" d=" M 414.76 124.13 C 415.62 124.11 417.35 124.07 418.21 124.06 C 415.55 125.49 415.91 128.42 415.88 130.99 L 414.77 131.00 C 414.77 128.71 414.77 126.42 414.76 124.13 Z" />
<path fill="#ffffff" opacity="1.00" d=" M 473.05 188.44 C 473.64 187.55 474.23 186.66 474.81 185.76 C 474.66 190.70 481.20 185.92 481.48 190.41 C 480.22 189.91 478.96 189.42 477.70 188.93 C 478.52 190.75 480.33 191.72 481.84 192.91 C 480.69 195.24 476.09 196.46 476.49 192.05 C 477.45 192.60 479.36 193.71 480.31 194.27 C 479.63 191.83 476.55 191.26 476.28 188.54 C 474.23 190.28 475.14 193.51 476.62 195.33 C 472.85 195.45 474.26 191.28 474.00 188.89 C 472.98 191.34 471.27 189.47 469.77 188.83 C 470.40 190.77 472.35 191.67 473.80 192.91 C 472.78 193.66 471.70 195.89 470.13 194.85 C 468.24 193.89 469.43 191.42 469.13 189.78 C 468.93 187.61 471.74 188.07 473.05 188.44 M 470.09 192.03 C 469.57 193.62 470.14 194.22 471.78 193.82 C 472.28 192.22 471.72 191.63 470.09 192.03 Z" />
<path fill="#ffffff" opacity="1.00" d=" M 345.26 208.32 C 350.01 205.83 350.84 215.92 346.02 215.01 C 343.42 214.07 343.34 209.97 345.26 208.32 M 346.01 208.87 C 344.85 210.46 344.79 215.16 347.67 213.79 C 347.94 212.06 348.80 208.70 346.01 208.87 Z" />
<path fill="#ffffff" opacity="1.00" d=" M 366.97 207.85 L 369.65 208.35 C 369.20 210.72 369.83 213.49 368.30 215.53 C 367.96 212.96 368.19 210.23 366.97 207.85 Z" />
<path fill="#ffffff" opacity="1.00" d=" M 372.93 215.49 C 370.72 213.50 371.97 210.02 371.39 207.43 C 373.90 209.40 372.90 212.79 372.93 215.49 Z" />
<path fill="#ffffff" opacity="1.00" d=" M 382.81 208.32 C 383.59 209.26 384.30 210.26 385.02 211.26 C 385.69 210.27 386.37 209.28 387.10 208.32 C 387.10 209.33 387.11 211.35 387.12 212.36 C 386.24 212.26 384.48 212.06 383.60 211.97 C 383.94 214.43 385.90 213.48 387.53 213.07 C 386.61 214.35 385.07 215.86 383.48 214.55 C 382.41 212.66 382.97 210.36 382.81 208.32 Z" />
</g>
<g id="#b74d1dff">
<path fill="#b74d1d" opacity="1.00" d=" M 368.53 37.22 C 367.83 20.16 381.06 3.85 397.94 1.18 C 402.33 0.91 406.75 0.89 411.14 1.19 C 421.07 2.89 430.06 9.20 435.25 17.81 C 440.97 27.04 442.03 38.94 438.20 49.08 C 433.23 63.04 418.87 72.92 404.04 72.45 C 388.43 72.57 373.81 61.20 369.81 46.16 C 369.05 43.24 368.63 40.23 368.53 37.22 M 379.22 27.50 C 377.96 28.20 379.17 30.80 380.38 29.50 C 382.24 28.79 380.78 26.07 379.22 27.50 M 392.05 27.16 C 390.38 30.12 395.34 27.48 392.05 27.16 M 411.26 27.36 C 411.14 28.02 410.91 29.35 410.79 30.01 C 408.27 30.50 404.95 29.14 403.50 31.97 C 405.12 31.56 406.75 31.16 408.40 30.85 C 407.54 33.25 403.28 32.92 403.99 36.03 C 404.21 38.99 408.05 37.53 409.98 38.03 C 409.46 36.06 407.69 31.49 410.81 31.24 C 411.15 33.44 411.03 35.68 411.14 37.91 C 412.13 37.89 413.12 37.86 414.12 37.83 C 413.68 37.51 412.82 36.87 412.39 36.54 C 412.42 34.60 411.15 31.29 413.78 30.67 C 412.77 29.71 411.96 28.56 411.26 27.36 M 381.46 34.03 C 380.75 34.02 379.33 34.00 378.62 33.99 C 378.87 33.15 379.38 31.46 379.63 30.61 C 379.17 30.71 378.27 30.90 377.81 31.00 C 377.60 33.53 376.76 35.92 376.13 38.36 C 377.62 37.87 378.01 36.39 378.52 35.08 C 379.57 35.05 380.63 35.02 381.69 34.99 C 382.25 36.31 382.52 37.96 384.13 38.43 C 383.34 35.34 382.34 32.31 381.81 29.16 C 380.79 30.66 380.82 32.37 381.46 34.03 M 384.76 30.04 C 384.73 32.69 384.74 35.35 384.79 38.00 L 385.96 38.00 C 386.32 35.47 384.72 31.08 388.52 30.70 C 389.10 33.23 387.73 36.54 389.86 38.51 C 390.02 35.88 390.01 33.25 390.08 30.62 C 388.33 30.19 386.54 30.13 384.76 30.04 M 391.66 33.95 C 391.73 35.53 391.40 37.44 392.86 38.54 C 393.06 35.52 393.06 32.49 392.86 29.47 C 391.41 30.53 391.72 32.40 391.66 33.95 M 393.97 30.10 C 393.99 32.91 393.96 35.73 394.14 38.54 C 396.90 36.75 393.16 30.21 397.82 31.19 C 398.07 33.63 397.98 36.09 398.17 38.53 C 400.83 36.41 397.28 31.54 401.50 30.65 C 402.08 33.21 400.77 36.51 402.86 38.54 C 403.03 35.87 403.00 33.19 403.03 30.51 C 400.03 30.05 396.98 30.35 393.97 30.10 M 414.66 30.77 C 415.58 30.87 417.41 31.07 418.32 31.17 C 418.93 33.57 419.41 37.53 415.70 37.15 C 415.57 36.03 415.32 33.77 415.19 32.65 L 416.75 31.69 C 415.66 31.78 414.57 31.85 413.49 31.90 C 414.09 34.00 413.77 38.29 417.05 38.03 C 422.43 37.80 420.14 26.50 414.66 30.77 M 420.75 30.05 C 420.72 32.70 420.72 35.35 420.75 38.00 L 421.99 38.00 C 421.91 35.03 421.52 31.57 424.72 30.04 C 423.73 30.04 421.74 30.04 420.75 30.05 M 425.10 31.10 C 423.63 33.83 427.79 34.30 429.13 35.83 C 427.91 38.59 425.81 35.84 424.68 34.74 C 425.07 35.98 424.99 38.18 426.88 38.00 C 429.86 38.86 431.27 34.51 428.39 33.39 C 430.79 30.93 426.32 28.35 425.10 31.10 Z" />
<path fill="#b74d1d" opacity="1.00" d=" M 426.27 31.28 C 427.89 30.85 428.44 31.44 427.92 33.06 C 426.29 33.49 425.74 32.89 426.27 31.28 Z" />
<path fill="#b74d1d" opacity="1.00" d=" M 405.81 36.56 C 404.69 35.52 406.21 33.29 407.56 34.11 C 408.56 35.13 407.14 37.38 405.81 36.56 Z" />
</g>
<g id="#28ddf2ff">
<path fill="#28ddf2" opacity="1.00" d=" M 302.05 37.08 C 315.29 23.11 339.74 23.15 352.98 37.10 C 355.62 39.80 357.85 42.88 359.60 46.23 C 364.97 56.64 364.70 69.72 358.98 79.94 C 351.81 93.24 335.75 100.88 320.90 97.85 C 305.47 95.26 292.89 81.47 291.68 65.88 C 291.51 62.81 291.60 59.73 291.94 56.68 C 292.62 53.04 293.79 49.50 295.40 46.17 C 297.17 42.84 299.41 39.77 302.05 37.08 M 302.42 63.45 C 303.89 65.03 305.62 63.20 306.91 62.40 C 308.03 63.27 309.18 64.53 310.76 63.87 C 312.83 62.36 312.78 58.74 310.84 57.14 C 306.50 55.72 306.97 63.08 303.13 62.98 C 301.50 60.72 301.54 57.39 303.05 55.08 C 304.78 54.85 305.94 56.52 307.35 57.22 C 306.81 55.39 305.25 53.13 303.02 54.13 C 299.96 55.96 299.91 61.16 302.42 63.45 M 334.88 55.96 C 335.62 55.89 337.11 55.74 337.85 55.67 C 337.77 58.52 336.33 63.29 340.00 64.46 C 338.88 62.20 338.46 59.49 339.89 57.25 C 338.81 55.68 334.97 51.82 334.88 55.96 M 312.98 56.98 C 312.93 60.14 312.95 63.31 313.12 66.47 C 313.50 65.89 314.25 64.72 314.63 64.14 C 315.24 64.07 316.48 63.93 317.09 63.86 C 317.68 61.90 318.13 59.90 318.54 57.89 C 319.01 59.93 319.53 61.97 320.09 63.98 C 319.33 64.73 318.57 65.47 317.82 66.22 C 322.01 66.41 321.58 61.26 323.06 58.57 C 323.81 60.62 323.95 63.10 325.80 64.56 C 326.94 61.94 325.22 59.60 324.29 57.26 C 323.73 57.18 322.60 57.02 322.04 56.94 C 321.55 58.44 321.06 59.95 320.57 61.46 C 319.75 60.10 319.74 54.70 317.73 58.27 C 316.48 56.95 314.62 57.13 312.98 56.98 M 326.36 57.40 C 325.27 58.32 326.07 61.50 327.71 60.26 C 328.78 59.35 327.99 56.19 326.36 57.40 M 328.84 59.65 C 327.59 61.10 327.46 62.80 328.25 64.55 C 330.58 62.60 330.35 59.23 330.91 56.51 C 329.75 57.22 329.34 58.49 328.84 59.65 M 331.72 57.07 C 331.71 59.38 331.71 61.69 331.73 64.00 L 332.94 64.01 C 333.15 61.72 332.26 58.73 334.88 57.54 C 334.98 59.85 334.99 62.17 335.13 64.48 C 337.27 62.65 335.97 59.43 336.27 56.99 C 334.75 57.02 333.23 57.04 331.72 57.07 M 340.47 57.29 C 340.29 59.29 339.62 61.45 340.67 63.32 C 342.22 64.72 344.85 63.85 345.51 61.83 C 344.62 62.16 342.84 62.81 341.96 63.14 C 341.70 62.62 341.19 61.59 340.93 61.07 C 342.40 61.16 343.87 61.24 345.34 61.34 C 345.21 60.55 344.95 58.98 344.82 58.20 C 343.93 56.50 341.97 57.34 340.47 57.29 M 345.95 57.21 C 345.94 59.66 345.98 62.11 346.20 64.55 C 348.23 62.35 346.31 58.61 349.38 56.95 C 348.53 57.01 346.81 57.14 345.95 57.21 M 350.33 57.43 C 350.06 59.39 350.27 61.38 349.95 63.34 C 351.62 64.23 354.08 64.20 354.48 61.89 C 353.54 60.23 351.16 59.87 350.78 57.83 C 351.98 58.42 353.17 59.02 354.36 59.64 C 354.31 57.44 352.17 56.26 350.33 57.43 Z" />
<path fill="#28ddf2" opacity="1.00" d=" M 308.96 57.87 C 311.64 57.74 311.11 60.95 310.66 62.68 C 307.73 64.33 307.86 59.39 308.96 57.87 Z" />
<path fill="#28ddf2" opacity="1.00" d=" M 314.81 57.89 C 317.52 57.58 316.84 61.43 316.22 62.98 C 313.50 63.63 314.15 59.46 314.81 57.89 Z" />
<path fill="#28ddf2" opacity="1.00" d=" M 342.17 58.13 C 343.52 57.52 344.72 59.84 342.96 60.09 C 341.58 60.67 340.44 58.45 342.17 58.13 Z" />
<path fill="#28ddf2" opacity="1.00" d=" M 351.13 61.00 C 352.77 60.61 353.31 61.21 352.74 62.80 C 351.08 63.19 350.55 62.59 351.13 61.00 Z" />
</g>
<g id="#f9f0eaff">
<path fill="#f9f0ea" opacity="1.00" d=" M 379.22 27.50 C 380.78 26.07 382.24 28.79 380.38 29.50 C 379.17 30.80 377.96 28.20 379.22 27.50 Z" />
</g>
<g id="#faece5ff">
<path fill="#faece5" opacity="1.00" d=" M 392.05 27.16 C 395.34 27.48 390.38 30.12 392.05 27.16 Z" />
</g>
<g id="#fefefeff">
<path fill="#fefefe" opacity="1.00" d=" M 411.26 27.36 C 411.96 28.56 412.77 29.71 413.78 30.67 C 411.15 31.29 412.42 34.60 412.39 36.54 C 412.82 36.87 413.68 37.51 414.12 37.83 C 413.12 37.86 412.13 37.89 411.14 37.91 C 411.03 35.68 411.15 33.44 410.81 31.24 C 407.69 31.49 409.46 36.06 409.98 38.03 C 408.05 37.53 404.21 38.99 403.99 36.03 C 403.28 32.92 407.54 33.25 408.40 30.85 C 406.75 31.16 405.12 31.56 403.50 31.97 C 404.95 29.14 408.27 30.50 410.79 30.01 C 410.91 29.35 411.14 28.02 411.26 27.36 M 405.81 36.56 C 407.14 37.38 408.56 35.13 407.56 34.11 C 406.21 33.29 404.69 35.52 405.81 36.56 Z" />
<path fill="#fefefe" opacity="1.00" d=" M 381.46 34.03 C 380.82 32.37 380.79 30.66 381.81 29.16 C 382.34 32.31 383.34 35.34 384.13 38.43 C 382.52 37.96 382.25 36.31 381.69 34.99 C 380.63 35.02 379.57 35.05 378.52 35.08 C 378.01 36.39 377.62 37.87 376.13 38.36 C 376.76 35.92 377.60 33.53 377.81 31.00 C 378.27 30.90 379.17 30.71 379.63 30.61 C 379.38 31.46 378.87 33.15 378.62 33.99 C 379.33 34.00 380.75 34.02 381.46 34.03 Z" />
<path fill="#fefefe" opacity="1.00" d=" M 384.76 30.04 C 386.54 30.13 388.33 30.19 390.08 30.62 C 390.01 33.25 390.02 35.88 389.86 38.51 C 387.73 36.54 389.10 33.23 388.52 30.70 C 384.72 31.08 386.32 35.47 385.96 38.00 L 384.79 38.00 C 384.74 35.35 384.73 32.69 384.76 30.04 Z" />
<path fill="#fefefe" opacity="1.00" d=" M 391.66 33.95 C 391.72 32.40 391.41 30.53 392.86 29.47 C 393.06 32.49 393.06 35.52 392.86 38.54 C 391.40 37.44 391.73 35.53 391.66 33.95 Z" />
<path fill="#fefefe" opacity="1.00" d=" M 393.97 30.10 C 396.98 30.35 400.03 30.05 403.03 30.51 C 403.00 33.19 403.03 35.87 402.86 38.54 C 400.77 36.51 402.08 33.21 401.50 30.65 C 397.28 31.54 400.83 36.41 398.17 38.53 C 397.98 36.09 398.07 33.63 397.82 31.19 C 393.16 30.21 396.90 36.75 394.14 38.54 C 393.96 35.73 393.99 32.91 393.97 30.10 Z" />
<path fill="#fefefe" opacity="1.00" d=" M 414.66 30.77 C 420.14 26.50 422.43 37.80 417.05 38.03 C 413.77 38.29 414.09 34.00 413.49 31.90 C 414.57 31.85 415.66 31.78 416.75 31.69 L 415.19 32.65 C 415.32 33.77 415.57 36.03 415.70 37.15 C 419.41 37.53 418.93 33.57 418.32 31.17 C 417.41 31.07 415.58 30.87 414.66 30.77 Z" />
<path fill="#fefefe" opacity="1.00" d=" M 425.10 31.10 C 426.32 28.35 430.79 30.93 428.39 33.39 C 431.27 34.51 429.86 38.86 426.88 38.00 C 424.99 38.18 425.07 35.98 424.68 34.74 C 425.81 35.84 427.91 38.59 429.13 35.83 C 427.79 34.30 423.63 33.83 425.10 31.10 M 426.27 31.28 C 425.74 32.89 426.29 33.49 427.92 33.06 C 428.44 31.44 427.89 30.85 426.27 31.28 Z" />
<path fill="#fefefe" opacity="1.00" d=" M 334.88 55.96 C 334.97 51.82 338.81 55.68 339.89 57.25 C 338.46 59.49 338.88 62.20 340.00 64.46 C 336.33 63.29 337.77 58.52 337.85 55.67 C 337.11 55.74 335.62 55.89 334.88 55.96 Z" />
<path fill="#fefefe" opacity="1.00" d=" M 345.95 57.21 C 346.81 57.14 348.53 57.01 349.38 56.95 C 346.31 58.61 348.23 62.35 346.20 64.55 C 345.98 62.11 345.94 59.66 345.95 57.21 Z" />
<path fill="#fefefe" opacity="1.00" d=" M 350.33 57.43 C 352.17 56.26 354.31 57.44 354.36 59.64 C 353.17 59.02 351.98 58.42 350.78 57.83 C 351.16 59.87 353.54 60.23 354.48 61.89 C 354.08 64.20 351.62 64.23 349.95 63.34 C 350.27 61.38 350.06 59.39 350.33 57.43 M 351.13 61.00 C 350.55 62.59 351.08 63.19 352.74 62.80 C 353.31 61.21 352.77 60.61 351.13 61.00 Z" />
<path fill="#fefefe" opacity="1.00" d=" M 443.65 100.98 C 443.82 99.13 443.22 96.88 444.79 95.46 C 445.10 99.15 445.10 102.85 444.80 106.54 C 443.24 105.10 443.79 102.85 443.65 100.98 Z" />
<path fill="#fefefe" opacity="1.00" d=" M 460.76 99.75 C 461.34 98.74 461.92 97.73 462.49 96.70 C 462.94 97.63 463.37 98.57 463.79 99.52 C 462.25 101.60 463.06 104.28 464.00 106.43 C 460.82 105.81 462.02 102.14 461.67 99.86 L 460.62 101.20 C 459.94 100.86 458.59 100.20 457.91 99.87 L 457.13 100.84 C 458.67 101.87 460.22 102.90 461.72 104.02 C 459.99 106.56 456.14 106.77 455.60 103.17 C 457.05 104.26 458.58 105.55 460.35 104.13 C 458.81 103.15 456.85 102.67 455.77 101.09 C 456.44 98.75 458.93 98.56 460.76 99.75 Z" />
<path fill="#fefefe" opacity="1.00" d=" M 450.90 105.02 C 450.73 102.86 450.05 100.22 451.77 98.49 C 452.41 100.54 451.05 103.72 452.93 105.05 C 454.91 103.86 453.65 100.94 454.10 99.00 L 455.23 99.03 C 455.24 101.36 455.24 103.68 455.25 106.02 C 453.81 105.73 451.95 106.32 450.90 105.02 Z" />
<path fill="#fefefe" opacity="1.00" d=" M 482.75 99.14 C 485.50 99.59 489.54 97.81 490.79 101.37 C 489.43 100.86 488.07 100.36 486.71 99.87 C 487.49 101.74 489.35 102.70 490.83 103.94 C 489.70 105.34 487.53 107.22 486.16 104.99 C 486.25 103.17 486.17 101.35 485.74 99.57 C 483.28 100.82 484.13 103.70 483.90 105.94 L 482.77 106.03 C 482.74 103.73 482.73 101.44 482.75 99.14 M 487.06 103.04 C 486.56 104.65 487.13 105.23 488.76 104.78 C 489.25 103.17 488.68 102.59 487.06 103.04 Z" />
<path fill="#fefefe" opacity="1.00" d=" M 398.76 124.01 C 399.62 124.04 401.34 124.09 402.20 124.11 C 402.18 126.92 402.71 129.90 401.60 132.57 C 400.55 133.13 399.51 133.16 398.47 132.68 C 397.88 129.81 397.37 126.73 398.76 124.01 M 400.79 130.28 C 400.92 128.69 400.99 127.09 401.00 125.49 C 397.78 124.23 398.36 129.77 400.79 130.28 M 399.21 131.04 C 399.43 134.34 402.19 129.43 399.21 131.04 Z" />
<path fill="#fefefe" opacity="1.00" d=" M 277.79 164.17 C 277.73 160.71 277.73 157.26 277.81 153.80 C 279.61 154.03 282.19 153.81 282.87 156.00 C 283.52 158.53 283.95 162.58 281.01 163.82 C 280.21 163.91 278.60 164.08 277.79 164.17 M 279.04 154.69 C 278.98 157.56 278.98 160.43 279.04 163.31 C 283.29 163.01 283.28 155.00 279.04 154.69 Z" />
<path fill="#fefefe" opacity="1.00" d=" M 299.97 153.98 L 301.23 154.01 C 301.24 157.34 301.26 160.67 301.24 164.00 L 300.31 164.00 C 300.09 162.63 299.79 161.28 299.14 160.05 C 299.64 161.90 298.28 165.09 295.97 163.82 C 295.13 162.71 294.57 161.45 294.27 160.04 C 292.97 161.31 292.57 163.20 291.24 164.45 C 290.63 162.55 290.07 160.63 289.50 158.74 C 289.09 160.16 288.75 161.60 288.48 163.05 C 284.42 166.72 281.94 158.27 286.02 157.07 C 287.82 156.14 290.14 161.49 289.73 156.48 C 290.51 157.98 290.98 159.58 291.52 161.18 C 292.13 159.56 292.53 157.74 293.95 156.60 C 291.61 157.41 294.27 161.01 295.03 158.99 C 295.92 157.23 296.43 159.80 296.48 160.47 C 297.49 159.82 298.11 158.90 298.35 157.71 C 298.82 158.30 299.75 159.49 300.21 160.08 C 300.09 158.04 300.01 156.01 299.97 153.98 M 286.09 158.11 C 284.43 158.48 285.48 160.71 286.89 160.11 C 288.57 159.85 287.42 157.52 286.09 158.11 M 285.47 161.28 C 284.53 162.56 286.93 163.48 287.67 162.41 C 288.71 161.09 286.22 160.35 285.47 161.28 M 296.30 161.06 C 295.80 162.63 296.39 163.14 298.06 162.58 C 298.59 161.01 298.00 160.50 296.30 161.06 Z" />
<path fill="#fefefe" opacity="1.00" d=" M 304.13 157.06 C 307.76 156.30 308.20 162.19 305.84 163.93 C 302.22 164.65 301.78 158.84 304.13 157.06 M 304.39 158.90 C 303.55 159.79 303.92 163.39 305.61 162.11 C 306.44 161.21 306.07 157.62 304.39 158.90 Z" />
<path fill="#fefefe" opacity="1.00" d=" M 307.99 157.01 C 309.63 157.31 311.88 156.50 312.90 158.25 C 313.78 160.77 313.05 164.85 309.50 163.99 C 309.25 164.94 308.81 165.78 308.18 166.51 C 307.91 163.35 307.97 160.18 307.99 157.01 M 309.72 157.53 C 309.32 159.49 309.31 161.48 309.64 163.45 C 312.87 163.08 312.90 158.05 309.72 157.53 Z" />
<path fill="#fefefe" opacity="1.00" d=" M 314.11 162.81 C 313.71 160.87 313.31 157.23 316.07 157.02 C 318.49 156.59 319.01 159.52 319.29 161.25 C 317.71 161.15 316.14 161.06 314.56 160.98 C 315.36 163.78 317.46 162.60 319.36 161.68 C 318.36 163.63 315.61 165.18 314.11 162.81 M 315.99 158.17 C 314.22 158.56 315.52 160.76 316.90 160.05 C 318.64 159.72 317.27 157.51 315.99 158.17 Z" />
<path fill="#fefefe" opacity="1.00" d=" M 319.76 157.12 C 322.29 157.22 324.88 156.97 327.35 157.70 C 326.74 159.16 326.63 160.64 327.01 162.16 C 327.05 164.25 323.94 164.78 323.13 162.94 C 323.26 161.12 323.26 159.31 322.67 157.57 C 320.26 158.87 321.15 161.77 320.90 164.02 L 319.77 163.95 C 319.80 161.67 319.78 159.39 319.76 157.12 M 324.29 158.21 C 323.79 159.78 324.38 160.35 326.04 159.94 C 326.53 158.36 325.95 157.79 324.29 158.21 M 324.05 161.08 C 323.61 162.70 324.19 163.27 325.81 162.80 C 326.24 161.18 325.65 160.60 324.05 161.08 Z" />
<path fill="#fefefe" opacity="1.00" d=" M 446.03 172.04 C 447.24 168.68 452.30 169.66 452.34 173.23 C 450.71 171.82 447.58 169.38 446.98 173.11 C 448.66 174.62 452.88 174.94 451.95 177.97 C 451.32 179.49 449.66 180.49 448.02 179.94 C 446.12 179.74 446.20 177.29 445.82 175.91 C 447.06 176.99 447.74 179.54 449.81 178.83 C 450.19 178.34 450.96 177.35 451.35 176.85 C 449.58 175.47 445.50 175.04 446.03 172.04 Z" />
<path fill="#fefefe" opacity="1.00" d=" M 452.77 169.89 C 454.66 169.95 456.58 170.02 458.40 170.64 C 456.93 170.84 455.46 171.00 454.00 171.13 C 453.99 172.42 453.99 173.71 454.00 175.00 C 455.54 175.00 457.10 174.99 458.66 174.98 C 458.89 172.94 459.34 169.80 462.09 169.89 C 465.95 171.00 465.67 176.86 463.65 179.42 C 461.18 181.43 459.54 178.38 458.18 176.76 C 457.22 175.39 455.36 176.00 453.98 175.94 C 453.99 176.67 454.00 178.15 454.00 178.88 C 455.48 178.98 456.97 179.13 458.45 179.31 C 456.62 179.94 454.68 180.05 452.77 180.12 C 452.76 176.71 452.77 173.30 452.77 169.89 M 460.99 170.95 C 460.40 172.20 459.91 173.55 459.96 174.95 C 460.04 176.71 460.33 180.18 462.93 178.66 C 464.13 176.36 464.76 170.86 460.99 170.95 Z" />
<path fill="#fefefe" opacity="1.00" d=" M 433.20 188.80 C 432.10 186.22 434.97 184.59 437.19 184.76 C 437.60 185.97 438.00 187.19 438.39 188.42 C 437.48 187.54 436.59 186.66 435.72 185.77 C 435.22 186.33 434.22 187.46 433.72 188.02 C 435.51 189.48 439.86 189.86 438.95 192.97 C 438.25 194.84 436.08 195.53 434.31 194.77 C 433.14 193.79 433.10 192.22 432.88 190.84 C 434.08 191.94 434.73 194.65 436.83 193.79 C 437.21 193.30 437.96 192.33 438.34 191.84 C 436.61 190.86 434.67 190.17 433.20 188.80 Z" />
<path fill="#fefefe" opacity="1.00" d=" M 464.04 185.02 L 465.23 184.99 C 465.26 188.30 465.27 191.61 465.24 194.93 C 463.03 194.68 460.55 195.35 458.50 194.41 C 456.58 192.45 459.42 190.53 461.20 190.15 C 460.65 190.87 459.56 192.29 459.01 193.01 C 459.53 193.36 460.59 194.07 461.11 194.42 C 461.52 192.63 461.61 190.80 461.59 188.98 C 461.20 188.99 460.41 189.01 460.02 189.02 L 460.24 190.38 L 458.46 189.44 C 459.64 187.94 461.43 187.87 463.05 188.71 C 463.01 190.63 462.99 192.55 462.99 194.48 L 464.00 194.34 C 463.99 191.23 464.00 188.13 464.04 185.02 Z" />
<path fill="#fefefe" opacity="1.00" d=" M 439.75 188.14 C 440.63 188.10 442.39 188.02 443.27 187.98 C 444.65 190.42 445.09 195.27 441.10 195.10 C 441.04 195.58 440.92 196.53 440.86 197.01 L 439.76 197.00 C 439.76 194.04 439.76 191.09 439.75 188.14 M 442.79 194.14 C 442.89 192.46 442.97 190.78 443.02 189.10 C 440.08 188.84 440.14 193.89 442.79 194.14 Z" />
<path fill="#fefefe" opacity="1.00" d=" M 445.39 189.40 C 446.05 187.56 448.86 187.47 449.75 189.16 C 449.93 189.94 450.29 191.50 450.46 192.28 C 448.95 192.18 447.44 192.09 445.93 192.01 C 446.20 192.55 446.73 193.65 446.99 194.20 C 448.12 193.64 449.26 193.10 450.41 192.57 C 449.69 193.81 448.79 195.52 447.04 194.99 C 444.73 194.39 444.66 191.25 445.39 189.40 M 447.12 189.16 C 445.38 189.53 446.63 191.70 448.00 191.08 C 449.77 190.79 448.44 188.51 447.12 189.16 Z" />
<path fill="#fefefe" opacity="1.00" d=" M 451.15 189.14 C 452.13 187.45 454.08 188.19 455.57 188.59 C 455.99 188.38 456.82 187.98 457.24 187.77 C 457.24 190.31 457.22 192.86 457.15 195.40 C 456.74 194.94 455.90 194.02 455.48 193.56 C 454.74 195.13 452.87 195.54 451.62 194.37 C 450.50 192.88 450.60 190.83 451.15 189.14 M 453.09 188.89 C 451.44 189.92 451.87 192.06 452.39 193.61 C 454.18 194.95 455.39 192.24 456.07 190.98 C 456.40 189.27 454.08 189.44 453.09 188.89 Z" />
<path fill="#fefefe" opacity="1.00" d=" M 351.10 208.24 C 352.43 208.13 353.76 208.08 355.10 208.07 C 354.65 210.88 356.51 215.73 353.05 216.95 C 352.26 216.77 350.68 216.39 349.89 216.20 C 350.69 216.14 352.30 216.02 353.10 215.95 C 350.07 214.77 348.43 210.60 351.10 208.24 M 351.25 209.29 C 350.86 211.35 350.55 214.17 353.35 214.52 C 353.57 212.66 354.51 207.77 351.25 209.29 Z" />
<path fill="#fefefe" opacity="1.00" d=" M 355.85 208.15 C 358.56 208.18 361.33 207.98 364.00 208.64 C 364.02 210.77 364.09 212.91 364.21 215.04 C 362.43 214.50 358.94 215.85 358.98 213.02 C 358.61 210.84 361.28 210.61 362.63 209.85 L 362.48 208.85 C 361.51 209.10 360.54 209.35 359.58 209.61 C 359.00 209.49 357.86 209.26 357.28 209.15 C 357.00 211.10 356.96 213.07 356.87 215.05 L 355.86 214.93 C 355.86 212.67 355.86 210.40 355.85 208.15 M 362.19 211.13 C 360.93 210.91 359.52 212.49 360.40 213.63 C 361.85 215.10 364.23 211.82 362.19 211.13 Z" />
<path fill="#fefefe" opacity="1.00" d=" M 365.11 207.60 C 367.12 207.80 366.30 209.82 366.44 211.06 C 366.29 212.61 366.48 214.45 365.09 215.54 C 364.95 212.89 364.98 210.24 365.11 207.60 Z" />
<path fill="#fefefe" opacity="1.00" d=" M 373.76 208.11 C 376.03 208.21 378.37 207.95 380.61 208.47 C 381.92 210.21 380.97 212.89 381.26 215.00 L 380.07 214.97 C 380.02 212.83 379.96 210.69 379.80 208.56 C 377.18 210.15 379.23 213.60 377.24 215.54 C 377.07 213.49 377.03 211.44 376.87 209.40 C 373.81 208.44 375.37 213.21 374.92 214.93 L 373.84 215.02 C 373.82 212.72 373.79 210.41 373.76 208.11 Z" />
<path fill="#fefefe" opacity="1.00" d=" M 387.98 208.11 C 390.79 208.67 395.77 206.42 396.50 210.47 C 395.31 210.14 393.32 207.96 392.86 210.30 C 394.23 211.05 395.59 211.86 396.90 212.74 C 395.69 215.37 392.32 215.76 391.38 212.73 L 392.44 212.52 C 393.12 212.96 394.47 213.84 395.15 214.28 C 394.58 212.22 392.52 211.19 391.64 209.31 C 387.81 207.82 390.42 213.99 388.20 215.55 C 387.96 213.08 387.94 210.59 387.98 208.11 Z" />
</g>
<g id="#f9f1ecff">
<path fill="#f9f1ec" opacity="1.00" d=" M 420.75 30.05 C 421.74 30.04 423.73 30.04 424.72 30.04 C 421.52 31.57 421.91 35.03 421.99 38.00 L 420.75 38.00 C 420.72 35.35 420.72 32.70 420.75 30.05 Z" />
</g>
<g id="#ccccccff">
<path fill="#cccccc" opacity="1.00" d=" M 272.05 37.60 C 282.04 36.90 292.05 37.41 302.05 37.08 C 299.41 39.77 297.17 42.84 295.40 46.17 C 291.27 46.15 287.15 46.36 283.03 46.65 C 275.36 47.13 267.67 46.49 260.00 46.88 C 256.06 46.79 252.66 50.21 252.45 54.08 C 251.90 62.04 252.34 70.03 252.05 77.99 C 251.94 81.45 250.60 84.66 249.30 87.80 C 246.62 90.17 243.65 92.17 240.65 94.10 C 240.66 95.46 240.69 96.82 240.74 98.19 C 240.40 96.90 240.08 95.60 239.76 94.31 C 234.63 94.65 229.49 94.85 224.37 95.27 C 207.81 94.62 191.23 94.97 174.66 95.01 C 174.52 89.34 174.96 83.64 174.29 77.98 C 190.86 78.25 207.45 78.03 224.02 78.13 C 228.23 78.18 232.48 78.33 236.62 77.44 C 239.74 76.58 241.93 74.09 242.92 71.08 C 243.97 61.72 240.62 50.43 248.00 42.93 C 254.19 36.24 263.88 37.73 272.05 37.60 Z" />
<path fill="#cccccc" opacity="1.00" d=" M 352.98 37.10 C 358.16 37.28 363.34 37.18 368.53 37.22 C 368.63 40.23 369.05 43.24 369.81 46.16 C 366.40 46.22 363.00 46.24 359.60 46.23 C 357.85 42.88 355.62 39.80 352.98 37.10 Z" />
<path fill="#cccccc" opacity="1.00" d=" M 273.90 58.95 C 279.35 55.80 285.91 56.66 291.94 56.68 C 291.60 59.73 291.51 62.81 291.68 65.88 C 287.81 65.87 283.89 65.42 280.06 66.12 C 276.24 67.10 274.04 71.17 274.29 74.94 C 274.42 83.95 274.14 92.97 274.11 101.98 C 277.14 101.90 280.20 101.89 283.15 102.63 C 280.19 102.60 277.23 102.71 274.27 102.82 C 274.10 105.80 273.97 108.79 273.60 111.76 C 271.04 117.78 265.70 123.00 258.93 123.57 C 251.02 124.13 243.07 123.63 235.14 123.82 C 232.09 123.82 229.05 123.83 226.01 123.81 C 221.09 123.66 216.16 123.69 211.27 124.33 C 199.08 123.61 186.87 124.01 174.67 123.98 C 174.62 118.91 174.62 113.83 174.64 108.76 C 194.81 108.49 214.97 108.72 235.14 108.64 C 239.40 108.62 243.67 108.54 247.94 108.61 C 251.71 108.57 255.56 109.09 259.28 108.23 C 261.90 107.64 263.28 105.20 264.49 103.04 C 261.59 102.77 258.68 102.60 255.81 102.11 C 258.86 102.16 261.91 102.01 264.96 101.92 C 265.15 92.58 265.13 83.25 265.22 73.92 C 265.11 67.83 268.59 61.91 273.90 58.95 Z" />
<path fill="#cccccc" opacity="1.00" d=" M 174.66 139.05 C 185.46 139.51 196.27 138.82 207.07 139.31 C 213.55 139.59 218.66 144.24 222.18 149.31 C 222.55 152.09 222.92 154.88 223.27 157.67 C 219.69 157.64 216.11 157.61 212.54 157.58 C 210.60 156.14 208.61 154.32 206.02 154.43 C 195.57 154.24 185.11 154.57 174.65 154.30 C 174.60 149.22 174.63 144.13 174.66 139.05 Z" />
<path fill="#cccccc" opacity="1.00" d=" M 215.98 174.16 C 220.73 173.92 225.48 173.48 230.24 173.47 C 237.76 175.00 245.44 173.77 253.03 174.29 C 258.59 174.69 264.17 175.10 269.73 174.48 C 271.34 177.88 273.45 181.04 275.97 183.83 C 265.30 183.66 254.62 184.08 243.96 183.46 C 236.71 183.10 228.94 184.50 222.27 180.89 C 219.85 178.97 217.86 176.58 215.98 174.16 Z" />
<path fill="#cccccc" opacity="1.00" d=" M 329.03 183.83 C 331.55 181.05 333.65 177.89 335.24 174.49 C 342.65 175.30 350.14 174.20 357.54 175.23 C 351.26 176.90 345.36 180.00 340.61 184.47 C 336.80 183.68 332.90 183.63 329.03 183.83 Z" />
<path fill="#cccccc" opacity="1.00" d=" M 373.49 175.25 C 382.63 174.25 391.85 175.05 401.02 174.79 C 407.56 174.92 414.12 174.46 420.64 175.12 C 419.78 177.68 419.14 180.31 418.75 182.99 L 418.62 183.72 C 410.73 183.89 402.84 183.75 394.96 183.77 C 393.42 183.75 391.95 184.16 390.50 184.58 C 385.78 180.01 379.78 177.00 373.49 175.25 Z" />
</g>
<g id="#fcfcfcff">
<path fill="#fcfcfc" opacity="1.00" d=" M 302.42 63.45 C 299.91 61.16 299.96 55.96 303.02 54.13 C 305.25 53.13 306.81 55.39 307.35 57.22 C 305.94 56.52 304.78 54.85 303.05 55.08 C 301.54 57.39 301.50 60.72 303.13 62.98 C 306.97 63.08 306.50 55.72 310.84 57.14 C 312.78 58.74 312.83 62.36 310.76 63.87 C 309.18 64.53 308.03 63.27 306.91 62.40 C 305.62 63.20 303.89 65.03 302.42 63.45 M 308.96 57.87 C 307.86 59.39 307.73 64.33 310.66 62.68 C 311.11 60.95 311.64 57.74 308.96 57.87 Z" />
<path fill="#fcfcfc" opacity="1.00" d=" M 312.98 56.98 C 314.62 57.13 316.48 56.95 317.73 58.27 C 319.74 54.70 319.75 60.10 320.57 61.46 C 321.06 59.95 321.55 58.44 322.04 56.94 C 322.60 57.02 323.73 57.18 324.29 57.26 C 325.22 59.60 326.94 61.94 325.80 64.56 C 323.95 63.10 323.81 60.62 323.06 58.57 C 321.58 61.26 322.01 66.41 317.82 66.22 C 318.57 65.47 319.33 64.73 320.09 63.98 C 319.53 61.97 319.01 59.93 318.54 57.89 C 318.13 59.90 317.68 61.90 317.09 63.86 C 316.48 63.93 315.24 64.07 314.63 64.14 C 314.25 64.72 313.50 65.89 313.12 66.47 C 312.95 63.31 312.93 60.14 312.98 56.98 M 314.81 57.89 C 314.15 59.46 313.50 63.63 316.22 62.98 C 316.84 61.43 317.52 57.58 314.81 57.89 Z" />
<path fill="#fcfcfc" opacity="1.00" d=" M 328.84 59.65 C 329.34 58.49 329.75 57.22 330.91 56.51 C 330.35 59.23 330.58 62.60 328.25 64.55 C 327.46 62.80 327.59 61.10 328.84 59.65 Z" />
<path fill="#fcfcfc" opacity="1.00" d=" M 478.20 99.16 C 482.33 97.59 483.48 104.71 480.07 106.02 C 476.35 106.69 475.59 100.89 478.20 99.16 M 479.06 100.13 C 477.28 100.83 477.42 105.39 480.01 105.14 C 480.93 103.77 481.27 99.53 479.06 100.13 Z" />
<path fill="#fcfcfc" opacity="1.00" d=" M 353.85 124.64 C 353.58 123.60 352.80 121.41 354.18 120.96 C 355.26 121.94 355.64 123.16 355.31 124.63 C 354.95 124.63 354.21 124.64 353.85 124.64 Z" />
<path fill="#fcfcfc" opacity="1.00" d=" M 357.24 126.76 C 356.52 124.65 356.94 122.02 358.63 120.48 C 359.29 122.93 359.80 125.41 360.39 127.88 C 361.17 125.45 360.63 122.24 362.90 120.52 C 362.51 124.25 361.69 127.91 360.68 131.51 C 358.84 130.19 359.17 127.76 358.90 125.79 C 358.48 126.03 357.65 126.52 357.24 126.76 Z" />
<path fill="#fcfcfc" opacity="1.00" d=" M 369.20 120.45 C 370.25 121.34 370.21 122.71 370.43 123.95 C 373.81 123.48 374.69 127.09 373.73 129.63 C 372.80 131.40 370.60 130.71 369.01 131.03 C 368.99 127.50 368.88 123.96 369.20 120.45 M 371.06 125.01 C 369.66 126.30 370.09 128.61 370.96 130.08 C 373.64 130.33 373.51 124.63 371.06 125.01 Z" />
<path fill="#fcfcfc" opacity="1.00" d=" M 377.92 131.02 C 377.53 127.65 377.79 124.25 377.85 120.87 C 379.42 121.09 381.14 120.84 382.61 121.56 C 384.21 123.17 383.74 125.82 384.56 127.78 L 385.06 124.36 C 385.71 125.39 386.32 126.43 386.95 127.48 C 387.65 126.38 388.35 125.28 389.14 124.23 C 388.70 126.25 390.08 131.84 386.18 130.95 C 385.76 130.16 384.93 128.59 384.52 127.80 C 383.31 130.47 380.75 131.60 377.92 131.02 M 379.03 121.72 C 378.99 124.57 378.99 127.42 379.03 130.28 C 384.23 130.72 384.23 121.27 379.03 121.72 M 386.37 128.15 C 385.93 129.51 386.44 129.95 387.90 129.47 C 388.35 128.12 387.84 127.68 386.37 128.15 Z" />
<path fill="#fcfcfc" opacity="1.00" d=" M 364.96 131.02 C 361.47 129.84 362.65 122.78 366.72 124.08 C 368.15 124.99 368.10 126.77 368.44 128.24 C 366.94 128.16 365.44 128.08 363.94 128.00 C 364.21 128.55 364.74 129.64 365.00 130.19 C 366.13 129.66 367.27 129.14 368.42 128.63 C 367.66 129.93 366.74 131.48 364.96 131.02 M 365.18 125.15 C 363.44 125.45 364.55 127.68 365.96 127.08 C 367.73 126.85 366.55 124.51 365.18 125.15 Z" />
<path fill="#fcfcfc" opacity="1.00" d=" M 390.14 125.24 C 391.31 123.03 393.81 124.17 394.76 125.91 L 393.53 126.44 C 393.07 126.07 392.16 125.33 391.70 124.95 C 390.27 126.99 394.75 127.46 395.83 128.87 C 394.17 131.52 390.05 131.90 389.56 128.12 C 390.74 128.58 393.24 131.56 393.92 128.94 C 392.68 127.72 389.36 127.58 390.14 125.24 Z" />
<path fill="#fcfcfc" opacity="1.00" d=" M 409.38 125.38 C 410.15 123.60 412.89 123.43 413.61 125.34 C 413.78 126.09 414.13 127.58 414.31 128.32 C 412.85 128.21 411.39 128.10 409.94 127.99 C 410.20 128.52 410.72 129.58 410.98 130.11 C 412.08 129.64 413.18 129.18 414.29 128.74 C 413.33 129.77 412.04 131.99 410.39 130.68 C 408.46 129.68 408.87 127.10 409.38 125.38 M 411.08 125.12 C 410.87 125.38 410.43 125.89 410.21 126.15 C 411.25 129.15 414.60 124.72 411.08 125.12 Z" />
<path fill="#fcfcfc" opacity="1.00" d=" M 418.10 126.84 C 417.34 123.07 423.15 123.10 423.48 126.61 C 422.05 125.93 420.62 125.27 419.19 124.64 C 419.08 127.40 423.88 126.98 422.86 129.72 C 421.43 132.31 417.70 130.82 417.61 128.06 C 419.05 129.24 420.53 130.64 422.38 129.14 C 420.95 128.36 419.48 127.69 418.10 126.84 Z" />
<path fill="#fcfcfc" opacity="1.00" d=" M 18.33 195.42 C 21.06 193.22 25.75 196.87 23.96 200.04 C 23.20 202.28 20.17 203.33 18.24 201.84 C 15.86 200.50 15.98 196.72 18.33 195.42 Z" />
<path fill="#fcfcfc" opacity="1.00" d=" M 335.78 215.52 C 333.65 212.58 334.99 208.44 334.91 205.04 C 336.48 205.02 338.81 204.47 339.57 206.35 C 340.70 207.83 339.61 209.46 339.16 210.96 C 338.38 210.98 336.83 211.02 336.06 211.04 C 335.99 212.53 335.89 214.02 335.78 215.52 M 336.05 205.64 C 336.02 207.18 336.01 208.72 336.01 210.26 C 339.72 210.74 339.52 205.57 336.05 205.64 Z" />
</g>
<g id="#dff8fcff">
<path fill="#dff8fc" opacity="1.00" d=" M 326.36 57.40 C 327.99 56.19 328.78 59.35 327.71 60.26 C 326.07 61.50 325.27 58.32 326.36 57.40 Z" />
</g>
<g id="#effcfdff">
<path fill="#effcfd" opacity="1.00" d=" M 331.72 57.07 C 333.23 57.04 334.75 57.02 336.27 56.99 C 335.97 59.43 337.27 62.65 335.13 64.48 C 334.99 62.17 334.98 59.85 334.88 57.54 C 332.26 58.73 333.15 61.72 332.94 64.01 L 331.73 64.00 C 331.71 61.69 331.71 59.38 331.72 57.07 Z" />
</g>
<g id="#5c5c5cff">
<path fill="#5c5c5c" opacity="1.00" d=" M 17.04 79.92 C 17.13 69.52 26.75 60.66 37.06 61.00 C 76.04 60.99 115.01 61.01 153.99 61.00 C 159.79 60.77 165.50 63.19 169.52 67.35 C 172.04 70.38 173.99 73.99 174.29 77.98 C 174.96 83.64 174.52 89.34 174.66 95.01 C 174.71 99.60 174.68 104.18 174.64 108.76 C 174.62 113.83 174.62 118.91 174.67 123.98 C 174.71 129.00 174.69 134.03 174.66 139.05 C 174.63 144.13 174.60 149.22 174.65 154.30 C 174.66 155.42 174.67 156.54 174.67 157.65 C 174.97 163.53 172.98 169.47 168.77 173.65 C 164.99 177.05 160.05 179.20 154.92 179.17 C 139.62 179.25 124.31 179.20 109.00 179.18 C 108.87 182.79 108.88 186.40 109.05 190.01 C 110.03 188.34 110.97 186.65 111.92 184.96 C 117.62 185.03 123.31 184.99 129.01 184.99 C 132.31 189.67 135.65 194.32 138.98 198.98 C 110.33 199.01 81.67 199.02 53.02 198.98 C 56.35 194.31 59.69 189.65 63.02 184.99 C 68.64 185.01 74.27 184.99 79.89 185.00 C 80.89 186.79 81.93 188.56 83.04 190.29 C 83.33 186.58 82.93 182.89 82.62 179.20 C 68.54 179.20 54.47 179.22 40.39 179.19 C 40.37 174.78 40.34 170.37 40.38 165.96 C 79.65 165.96 118.93 165.97 158.20 165.96 C 159.02 165.97 160.65 166.00 161.47 166.01 C 161.51 135.39 161.45 104.78 161.51 74.16 C 117.73 73.92 73.95 74.07 30.17 74.08 C 29.84 91.69 30.14 109.31 30.00 126.93 C 25.67 127.00 21.34 127.04 17.00 127.04 C 17.03 111.33 16.94 95.62 17.04 79.92 Z" />
<path fill="#5c5c5c" opacity="1.00" d=" M 64.33 113.96 C 65.15 114.00 66.77 114.07 67.59 114.11 C 68.35 117.51 69.09 120.92 70.26 124.22 C 71.18 120.86 71.61 117.35 72.84 114.09 C 73.56 114.06 74.99 113.99 75.70 113.96 C 76.41 117.41 77.16 120.87 78.20 124.24 C 79.15 120.85 80.00 117.42 80.89 114.00 C 81.66 114.00 83.20 114.00 83.97 113.99 C 82.46 118.66 81.02 123.36 79.71 128.09 C 79.01 128.03 77.62 127.93 76.93 127.87 C 75.35 124.82 75.29 121.10 74.17 117.83 C 73.14 121.16 72.40 124.56 71.70 127.97 C 70.60 127.94 69.49 127.91 68.38 127.88 C 67.14 123.21 65.68 118.60 64.33 113.96 Z" />
<path fill="#5c5c5c" opacity="1.00" d=" M 85.32 113.96 C 86.14 114.00 87.77 114.07 88.59 114.11 C 89.35 117.51 90.08 120.93 91.27 124.21 C 92.18 120.85 92.60 117.35 93.85 114.10 C 94.55 114.06 95.97 113.98 96.68 113.94 C 97.40 117.40 98.20 120.84 99.19 124.23 C 100.15 120.84 101.01 117.42 101.88 114.00 C 102.67 114.00 104.25 114.02 105.03 114.03 C 103.42 118.60 102.07 123.26 100.75 127.93 C 99.98 127.96 98.44 128.03 97.67 128.06 C 96.81 124.64 96.06 121.20 95.15 117.80 C 94.17 121.15 93.40 124.55 92.70 127.97 C 91.60 127.94 90.49 127.91 89.39 127.89 C 88.14 123.21 86.68 118.60 85.32 113.96 Z" />
<path fill="#5c5c5c" opacity="1.00" d=" M 105.34 113.96 C 106.16 114.00 107.78 114.07 108.59 114.11 C 109.36 117.52 110.10 120.94 111.21 124.26 C 112.09 120.82 112.87 117.36 113.72 113.91 C 114.47 113.97 115.98 114.07 116.73 114.12 C 117.42 117.52 118.21 120.90 119.20 124.22 C 120.15 120.83 121.01 117.42 121.88 114.01 C 122.65 114.00 124.20 113.99 124.97 113.99 C 123.47 118.61 122.06 123.26 120.75 127.93 C 119.97 127.96 118.43 128.02 117.66 128.05 C 116.83 124.63 116.06 121.18 115.13 117.79 C 114.18 121.16 113.40 124.58 112.67 128.01 C 111.57 127.96 110.47 127.91 109.37 127.86 C 108.14 123.19 106.68 118.59 105.34 113.96 Z" />
</g>
<g id="#b4b4b4ff">
<path fill="#b4b4b4" opacity="1.00" d=" M 169.52 67.35 C 189.67 67.00 209.84 67.30 230.00 67.19 C 234.63 66.96 239.16 68.39 242.92 71.08 C 241.93 74.09 239.74 76.58 236.62 77.44 C 234.15 76.61 231.59 76.00 228.98 76.04 C 214.66 76.12 200.35 76.07 186.04 76.08 C 182.45 76.14 178.83 75.74 175.28 76.36 C 175.03 76.76 174.54 77.58 174.29 77.98 C 173.99 73.99 172.04 70.38 169.52 67.35 Z" />
<path fill="#b4b4b4" opacity="1.00" d=" M 240.65 94.10 C 243.65 92.17 246.62 90.17 249.30 87.80 C 249.17 90.64 249.05 93.52 249.66 96.31 C 250.32 99.24 252.92 101.49 255.81 102.11 C 258.68 102.60 261.59 102.77 264.49 103.04 C 263.28 105.20 261.90 107.64 259.28 108.23 C 255.56 109.09 251.71 108.57 247.94 108.61 C 244.59 105.93 241.54 102.54 240.74 98.19 C 240.69 96.82 240.66 95.46 240.65 94.10 Z" />
<path fill="#b4b4b4" opacity="1.00" d=" M 174.66 95.01 C 191.23 94.97 207.81 94.62 224.37 95.27 C 229.79 97.91 233.64 102.84 235.14 108.64 C 214.97 108.72 194.81 108.49 174.64 108.76 C 174.68 104.18 174.71 99.60 174.66 95.01 Z" />
<path fill="#b4b4b4" opacity="1.00" d=" M 274.27 102.82 C 277.23 102.71 280.19 102.60 283.15 102.63 C 306.21 102.98 329.28 102.76 352.34 102.75 C 350.58 105.67 348.99 108.69 347.67 111.84 L 347.33 111.84 C 322.76 111.73 298.18 111.87 273.60 111.76 C 273.97 108.79 274.10 105.80 274.27 102.82 Z" />
<path fill="#b4b4b4" opacity="1.00" d=" M 422.10 102.82 C 425.57 102.77 429.04 102.79 432.52 102.86 C 432.51 105.86 432.82 108.86 433.44 111.80 C 431.27 111.80 429.12 111.81 426.96 111.81 C 426.91 111.69 426.80 111.43 426.74 111.30 C 425.44 108.34 423.82 105.55 422.10 102.82 Z" />
<path fill="#b4b4b4" opacity="1.00" d=" M 174.67 123.98 C 186.87 124.01 199.08 123.61 211.27 124.33 C 214.91 126.26 218.39 128.88 220.23 132.68 C 222.96 137.79 221.90 143.77 222.18 149.31 C 218.66 144.24 213.55 139.59 207.07 139.31 C 196.27 138.82 185.46 139.51 174.66 139.05 C 174.69 134.03 174.71 129.00 174.67 123.98 Z" />
<path fill="#b4b4b4" opacity="1.00" d=" M 226.01 123.81 C 229.05 123.83 232.09 123.82 235.14 123.82 C 235.33 130.58 235.37 137.35 235.15 144.11 C 236.58 139.46 238.95 134.81 243.32 132.30 C 249.48 128.33 257.10 129.94 264.00 129.57 C 270.39 129.19 276.79 129.27 283.18 129.07 C 279.42 131.58 276.04 134.70 273.41 138.39 C 273.16 138.72 272.92 139.06 272.69 139.41 C 265.23 138.34 257.56 138.59 250.07 139.15 C 244.35 140.55 243.88 147.22 244.15 152.05 C 251.83 152.35 259.51 152.13 267.19 152.22 C 266.62 155.40 266.48 158.65 266.58 161.87 C 258.93 161.58 251.29 161.19 243.64 161.45 C 241.33 167.29 236.54 172.17 230.24 173.47 C 225.48 173.48 220.73 173.92 215.98 174.16 C 217.86 176.58 219.85 178.97 222.27 180.89 C 222.37 185.47 221.97 190.08 222.50 194.64 C 223.01 198.25 226.35 201.16 230.01 201.13 C 239.66 201.45 249.34 200.77 258.98 201.72 C 282.80 201.97 306.63 201.62 330.45 201.89 C 329.84 204.83 329.54 207.82 329.53 210.82 C 303.00 210.75 276.47 210.86 249.94 210.77 C 243.32 210.23 236.68 210.51 230.05 210.33 C 221.76 210.26 214.07 203.45 213.35 195.13 C 212.95 188.03 213.38 180.92 213.14 173.82 C 198.35 173.67 183.55 174.01 168.77 173.65 C 172.98 169.47 174.97 163.53 174.67 157.65 C 187.29 157.53 199.91 157.65 212.54 157.58 C 216.11 157.61 219.69 157.64 223.27 157.67 C 225.93 157.73 228.59 157.39 231.16 156.65 C 228.74 153.19 226.25 149.44 226.28 145.05 C 226.07 137.98 226.24 130.89 226.01 123.81 Z" />
<path fill="#b4b4b4" opacity="1.00" d=" M 321.83 129.10 C 329.38 129.37 336.93 129.14 344.48 129.18 C 344.58 132.16 345.04 135.13 345.70 138.04 C 340.99 138.29 336.27 138.19 331.56 138.23 C 331.41 138.04 331.12 137.65 330.97 137.46 C 328.39 134.20 325.27 131.41 321.83 129.10 Z" />
</g>
<g id="#49e24aff">
<path fill="#49e24a" opacity="1.00" d=" M 432.52 102.86 C 432.42 84.09 449.15 67.27 467.97 67.57 C 484.96 66.88 501.16 80.13 503.82 96.91 C 504.10 101.28 504.09 105.69 503.82 110.06 C 501.91 121.49 493.84 131.62 483.28 136.32 C 474.46 140.31 464.01 140.51 455.04 136.88 C 444.34 132.69 436.10 122.96 433.44 111.80 C 432.82 108.86 432.51 105.86 432.52 102.86 M 443.65 100.98 C 443.79 102.85 443.24 105.10 444.80 106.54 C 445.10 102.85 445.10 99.15 444.79 95.46 C 443.22 96.88 443.82 99.13 443.65 100.98 M 446.02 95.98 C 446.41 99.43 444.95 103.48 446.99 106.53 C 447.22 103.03 447.11 99.53 447.11 96.04 L 446.02 95.98 M 447.88 96.05 C 447.82 99.35 447.83 102.64 447.90 105.94 L 449.23 105.96 C 449.29 102.66 449.29 99.36 449.24 96.06 L 447.88 96.05 M 460.76 99.75 C 458.93 98.56 456.44 98.75 455.77 101.09 C 456.85 102.67 458.81 103.15 460.35 104.13 C 458.58 105.55 457.05 104.26 455.60 103.17 C 456.14 106.77 459.99 106.56 461.72 104.02 C 460.22 102.90 458.67 101.87 457.13 100.84 L 457.91 99.87 C 458.59 100.20 459.94 100.86 460.62 101.20 L 461.67 99.86 C 462.02 102.14 460.82 105.81 464.00 106.43 C 463.06 104.28 462.25 101.60 463.79 99.52 C 463.37 98.57 462.94 97.63 462.49 96.70 C 461.92 97.73 461.34 98.74 460.76 99.75 M 474.48 96.79 C 474.13 97.49 473.44 98.87 473.09 99.57 C 470.33 99.16 467.53 99.19 464.75 99.14 C 464.96 101.57 463.99 104.44 465.73 106.49 C 466.30 104.61 464.91 98.68 468.53 100.56 C 469.84 100.31 471.15 100.08 472.49 99.92 L 470.47 100.85 C 471.04 101.45 471.63 102.04 472.23 102.62 C 471.89 103.25 471.22 104.49 470.88 105.12 C 470.43 104.91 469.51 104.49 469.05 104.27 C 469.58 103.21 470.08 102.13 470.57 101.04 C 469.95 101.56 468.71 102.59 468.10 103.11 C 467.03 106.49 471.32 105.89 473.36 106.01 C 473.14 104.00 473.01 101.99 472.91 99.98 L 473.94 100.05 C 474.49 102.33 472.59 106.73 476.69 106.37 C 474.98 104.62 474.44 101.31 476.28 99.45 C 475.66 98.56 475.08 97.68 474.48 96.79 M 450.90 105.02 C 451.95 106.32 453.81 105.73 455.25 106.02 C 455.24 103.68 455.24 101.36 455.23 99.03 L 454.10 99.00 C 453.65 100.94 454.91 103.86 452.93 105.05 C 451.05 103.72 452.41 100.54 451.77 98.49 C 450.05 100.22 450.73 102.86 450.90 105.02 M 478.20 99.16 C 475.59 100.89 476.35 106.69 480.07 106.02 C 483.48 104.71 482.33 97.59 478.20 99.16 M 482.75 99.14 C 482.73 101.44 482.74 103.73 482.77 106.03 L 483.90 105.94 C 484.13 103.70 483.28 100.82 485.74 99.57 C 486.17 101.35 486.25 103.17 486.16 104.99 C 487.53 107.22 489.70 105.34 490.83 103.94 C 489.35 102.70 487.49 101.74 486.71 99.87 C 488.07 100.36 489.43 100.86 490.79 101.37 C 489.54 97.81 485.50 99.59 482.75 99.14 Z" />
<path fill="#49e24a" opacity="1.00" d=" M 479.06 100.13 C 481.27 99.53 480.93 103.77 480.01 105.14 C 477.42 105.39 477.28 100.83 479.06 100.13 Z" />
<path fill="#49e24a" opacity="1.00" d=" M 487.06 103.04 C 488.68 102.59 489.25 103.17 488.76 104.78 C 487.13 105.23 486.56 104.65 487.06 103.04 Z" />
</g>
<g id="#dcdcdcff">
<path fill="#dcdcdc" opacity="1.00" d=" M 30.17 74.08 C 73.95 74.07 117.73 73.92 161.51 74.16 C 161.45 104.78 161.51 135.39 161.47 166.01 C 160.65 166.00 159.02 165.97 158.20 165.96 C 158.95 139.97 158.25 113.96 158.57 87.96 C 159.08 83.95 156.56 79.74 152.60 78.70 C 148.41 78.13 144.16 78.55 139.95 78.48 C 108.29 78.46 76.63 78.51 44.97 78.47 C 41.23 78.54 37.43 78.08 33.74 78.86 C 30.56 79.56 31.20 83.54 30.80 85.99 C 30.71 99.63 30.73 113.29 30.83 126.93 L 30.00 126.93 C 30.14 109.31 29.84 91.69 30.17 74.08 Z" />
</g>
<g id="#e5e5e5ff">
<path fill="#e5e5e5" opacity="1.00" d=" M 3.49 141.32 L 3.71 141.57 C 3.83 143.60 5.31 144.09 6.55 142.14 C 7.93 142.05 9.30 141.97 10.68 141.90 C 8.96 144.33 7.03 146.90 7.23 150.06 C 7.18 163.58 7.18 177.10 7.27 190.62 C 8.62 191.11 9.96 191.62 11.32 192.07 C 8.69 192.28 6.05 192.21 3.43 191.89 C 3.50 175.03 3.36 158.17 3.49 141.32 Z" />
<path fill="#e5e5e5" opacity="1.00" d=" M 30.21 141.86 C 31.80 141.88 33.38 141.85 34.96 142.01 C 36.30 142.93 36.65 144.69 37.29 146.09 C 37.41 161.46 37.22 176.83 37.33 192.20 C 34.78 192.20 32.23 192.20 29.68 192.05 C 30.69 191.60 31.68 191.13 32.68 190.65 C 32.91 177.08 32.70 163.51 32.81 149.94 C 32.97 147.00 31.51 144.39 30.21 141.86 Z" />
</g>
<g id="#f3773bff">
<path fill="#f3773b" opacity="1.00" d=" M 352.66 102.76 C 360.94 90.91 375.63 84.08 390.02 85.10 C 402.71 85.78 414.56 92.71 422.10 102.82 C 398.96 103.03 375.80 103.06 352.66 102.76 Z" />
<path fill="#f3773b" opacity="1.00" d=" M 426.74 111.30 C 426.80 111.43 426.91 111.69 426.96 111.81 C 430.64 121.07 431.01 131.62 427.85 141.09 C 423.63 154.32 412.46 165.12 399.06 168.81 C 387.44 172.19 374.38 170.35 364.22 163.75 C 355.02 157.98 348.42 148.50 345.70 138.04 C 345.04 135.13 344.58 132.16 344.48 129.18 C 344.27 123.26 345.62 117.46 347.33 111.84 L 347.67 111.84 C 371.12 112.28 394.58 111.78 418.04 112.10 C 420.96 112.14 423.86 111.77 426.74 111.30 M 353.85 124.64 C 354.21 124.64 354.95 124.63 355.31 124.63 C 355.64 123.16 355.26 121.94 354.18 120.96 C 352.80 121.41 353.58 123.60 353.85 124.64 M 357.24 126.76 C 357.65 126.52 358.48 126.03 358.90 125.79 C 359.17 127.76 358.84 130.19 360.68 131.51 C 361.69 127.91 362.51 124.25 362.90 120.52 C 360.63 122.24 361.17 125.45 360.39 127.88 C 359.80 125.41 359.29 122.93 358.63 120.48 C 356.94 122.02 356.52 124.65 357.24 126.76 M 369.20 120.45 C 368.88 123.96 368.99 127.50 369.01 131.03 C 370.60 130.71 372.80 131.40 373.73 129.63 C 374.69 127.09 373.81 123.48 370.43 123.95 C 370.21 122.71 370.25 121.34 369.20 120.45 M 377.92 131.02 C 380.75 131.60 383.31 130.47 384.52 127.80 C 384.93 128.59 385.76 130.16 386.18 130.95 C 390.08 131.84 388.70 126.25 389.14 124.23 C 388.35 125.28 387.65 126.38 386.95 127.48 C 386.32 126.43 385.71 125.39 385.06 124.36 L 384.56 127.78 C 383.74 125.82 384.21 123.17 382.61 121.56 C 381.14 120.84 379.42 121.09 377.85 120.87 C 377.79 124.25 377.53 127.65 377.92 131.02 M 396.05 121.12 C 394.38 124.06 399.35 121.41 396.05 121.12 M 364.96 131.02 C 366.74 131.48 367.66 129.93 368.42 128.63 C 367.27 129.14 366.13 129.66 365.00 130.19 C 364.74 129.64 364.21 128.55 363.94 128.00 C 365.44 128.08 366.94 128.16 368.44 128.24 C 368.10 126.77 368.15 124.99 366.72 124.08 C 362.65 122.78 361.47 129.84 364.96 131.02 M 390.14 125.24 C 389.36 127.58 392.68 127.72 393.92 128.94 C 393.24 131.56 390.74 128.58 389.56 128.12 C 390.05 131.90 394.17 131.52 395.83 128.87 C 394.75 127.46 390.27 126.99 391.70 124.95 C 392.16 125.33 393.07 126.07 393.53 126.44 L 394.76 125.91 C 393.81 124.17 391.31 123.03 390.14 125.24 M 396.23 124.22 C 395.40 126.22 395.67 128.73 396.27 130.76 C 397.52 129.56 397.56 125.41 396.23 124.22 M 398.76 124.01 C 397.37 126.73 397.88 129.81 398.47 132.68 C 399.51 133.16 400.55 133.13 401.60 132.57 C 402.71 129.90 402.18 126.92 402.20 124.11 C 401.34 124.09 399.62 124.04 398.76 124.01 M 403.74 123.89 C 403.74 126.26 403.74 128.63 403.75 131.00 L 404.97 131.00 C 405.21 128.77 404.17 125.71 406.83 124.63 C 406.94 126.75 407.00 128.88 407.03 131.01 L 408.30 131.00 C 408.27 129.01 408.34 127.01 408.04 125.05 C 407.25 123.48 405.10 124.25 403.74 123.89 M 409.38 125.38 C 408.87 127.10 408.46 129.68 410.39 130.68 C 412.04 131.99 413.33 129.77 414.29 128.74 C 413.18 129.18 412.08 129.64 410.98 130.11 C 410.72 129.58 410.20 128.52 409.94 127.99 C 411.39 128.10 412.85 128.21 414.31 128.32 C 414.13 127.58 413.78 126.09 413.61 125.34 C 412.89 123.43 410.15 123.60 409.38 125.38 M 414.76 124.13 C 414.77 126.42 414.77 128.71 414.77 131.00 L 415.88 130.99 C 415.91 128.42 415.55 125.49 418.21 124.06 C 417.35 124.07 415.62 124.11 414.76 124.13 M 418.10 126.84 C 419.48 127.69 420.95 128.36 422.38 129.14 C 420.53 130.64 419.05 129.24 417.61 128.06 C 417.70 130.82 421.43 132.31 422.86 129.72 C 423.88 126.98 419.08 127.40 419.19 124.64 C 420.62 125.27 422.05 125.93 423.48 126.61 C 423.15 123.10 417.34 123.07 418.10 126.84 M 354.32 127.30 C 354.94 128.83 355.43 130.55 356.82 131.60 C 357.73 129.55 356.65 127.71 356.01 125.81 C 355.43 126.29 354.87 126.79 354.32 127.30 Z" />
<path fill="#f3773b" opacity="1.00" d=" M 365.18 125.15 C 366.55 124.51 367.73 126.85 365.96 127.08 C 364.55 127.68 363.44 125.45 365.18 125.15 Z" />
<path fill="#f3773b" opacity="1.00" d=" M 371.06 125.01 C 373.51 124.63 373.64 130.33 370.96 130.08 C 370.09 128.61 369.66 126.30 371.06 125.01 Z" />
<path fill="#f3773b" opacity="1.00" d=" M 411.08 125.12 C 414.60 124.72 411.25 129.15 410.21 126.15 C 410.43 125.89 410.87 125.38 411.08 125.12 Z" />
<path fill="#f3773b" opacity="1.00" d=" M 400.79 130.28 C 398.36 129.77 397.78 124.23 401.00 125.49 C 400.99 127.09 400.92 128.69 400.79 130.28 Z" />
<path fill="#f3773b" opacity="1.00" d=" M 386.37 128.15 C 387.84 127.68 388.35 128.12 387.90 129.47 C 386.44 129.95 385.93 129.51 386.37 128.15 Z" />
</g>
<g id="#fdfefcff">
<path fill="#fdfefc" opacity="1.00" d=" M 446.02 95.98 L 447.11 96.04 C 447.11 99.53 447.22 103.03 446.99 106.53 C 444.95 103.48 446.41 99.43 446.02 95.98 Z" />
</g>
<g id="#fbfffbff">
<path fill="#fbfffb" opacity="1.00" d=" M 447.88 96.05 L 449.24 96.06 C 449.29 99.36 449.29 102.66 449.23 105.96 L 447.90 105.94 C 447.83 102.64 447.82 99.35 447.88 96.05 Z" />
</g>
<g id="#ec7034ff">
<path fill="#ec7034" opacity="1.00" d=" M 352.34 102.75 L 352.66 102.76 C 375.80 103.06 398.96 103.03 422.10 102.82 C 423.82 105.55 425.44 108.34 426.74 111.30 C 423.86 111.77 420.96 112.14 418.04 112.10 C 394.58 111.78 371.12 112.28 347.67 111.84 C 348.99 108.69 350.58 105.67 352.34 102.75 Z" />
</g>
<g id="#fae2d7ff">
<path fill="#fae2d7" opacity="1.00" d=" M 396.05 121.12 C 399.35 121.41 394.38 124.06 396.05 121.12 Z" />
</g>
<g id="#f3763bff">
<path fill="#f3763b" opacity="1.00" d=" M 379.03 121.72 C 384.23 121.27 384.23 130.72 379.03 130.28 C 378.99 127.42 378.99 124.57 379.03 121.72 Z" />
</g>
<g id="#2faf1eff">
<path fill="#2faf1e" opacity="1.00" d=" M 283.18 129.07 C 294.75 121.76 310.27 121.76 321.83 129.10 C 325.27 131.41 328.39 134.20 330.97 137.46 C 327.79 138.76 324.30 138.01 320.99 138.04 C 309.67 138.00 298.35 138.08 287.03 137.98 C 282.48 137.96 277.96 138.72 273.41 138.39 C 276.04 134.70 279.42 131.58 283.18 129.07 Z" />
<path fill="#2faf1e" opacity="1.00" d=" M 324.29 158.21 C 325.95 157.79 326.53 158.36 326.04 159.94 C 324.38 160.35 323.79 159.78 324.29 158.21 Z" />
</g>
<g id="#fefdfaff">
<path fill="#fefdfa" opacity="1.00" d=" M 396.23 124.22 C 397.56 125.41 397.52 129.56 396.27 130.76 C 395.67 128.73 395.40 126.22 396.23 124.22 Z" />
</g>
<g id="#fdf3edff">
<path fill="#fdf3ed" opacity="1.00" d=" M 403.74 123.89 C 405.10 124.25 407.25 123.48 408.04 125.05 C 408.34 127.01 408.27 129.01 408.30 131.00 L 407.03 131.01 C 407.00 128.88 406.94 126.75 406.83 124.63 C 404.17 125.71 405.21 128.77 404.97 131.00 L 403.75 131.00 C 403.74 128.63 403.74 126.26 403.74 123.89 Z" />
</g>
<g id="#fcece3ff">
<path fill="#fcece3" opacity="1.00" d=" M 354.32 127.30 C 354.87 126.79 355.43 126.29 356.01 125.81 C 356.65 127.71 357.73 129.55 356.82 131.60 C 355.43 130.55 354.94 128.83 354.32 127.30 Z" />
</g>
<g id="#3c3c3cff">
<path fill="#3c3c3c" opacity="1.00" d=" M 2.57 128.64 C 6.79 125.77 12.24 127.51 17.00 127.04 C 21.34 127.04 25.67 127.00 30.00 126.93 L 30.83 126.93 C 34.86 126.45 40.24 128.17 40.34 132.98 C 40.49 143.97 40.35 154.97 40.38 165.96 C 40.34 170.37 40.37 174.78 40.39 179.19 C 40.35 186.12 40.46 193.06 40.36 200.00 C 40.42 203.75 36.55 206.32 33.05 206.00 C 24.33 205.98 15.60 206.05 6.88 205.97 C 4.14 205.97 0.66 204.08 1.04 200.93 C 0.95 178.63 1.03 156.32 1.00 134.02 C 1.05 132.14 0.70 129.80 2.57 128.64 M 12.99 133.39 C 11.39 134.46 13.44 136.71 14.80 135.57 C 16.42 134.50 14.33 132.31 12.99 133.39 M 16.22 135.32 C 19.01 135.07 22.81 136.69 24.76 134.02 C 22.09 134.30 17.67 132.20 16.22 135.32 M 3.49 141.32 C 3.36 158.17 3.50 175.03 3.43 191.89 C 6.05 192.21 8.69 192.28 11.32 192.07 C 17.43 192.23 23.57 192.27 29.68 192.05 C 32.23 192.20 34.78 192.20 37.33 192.20 C 37.22 176.83 37.41 161.46 37.29 146.09 C 37.31 144.51 37.33 142.92 37.37 141.33 C 26.77 141.03 16.16 141.24 5.56 141.17 C 5.10 141.27 4.17 141.47 3.71 141.57 L 3.49 141.32 M 18.33 195.42 C 15.98 196.72 15.86 200.50 18.24 201.84 C 20.17 203.33 23.20 202.28 23.96 200.04 C 25.75 196.87 21.06 193.22 18.33 195.42 Z" />
</g>
<g id="#f68b58ff">
<path fill="#f68b58" opacity="1.00" d=" M 399.21 131.04 C 402.19 129.43 399.43 134.34 399.21 131.04 Z" />
</g>
<g id="#d0d0d0ff">
<path fill="#d0d0d0" opacity="1.00" d=" M 12.99 133.39 C 14.33 132.31 16.42 134.50 14.80 135.57 C 13.44 136.71 11.39 134.46 12.99 133.39 Z" />
<path fill="#d0d0d0" opacity="1.00" d=" M 16.22 135.32 C 17.67 132.20 22.09 134.30 24.76 134.02 C 22.81 136.69 19.01 135.07 16.22 135.32 Z" />
</g>
<g id="#37b726ff">
<path fill="#37b726" opacity="1.00" d=" M 330.97 137.46 C 331.12 137.65 331.41 138.04 331.56 138.23 C 339.16 148.53 340.62 162.88 335.24 174.49 C 333.65 177.89 331.55 181.05 329.03 183.83 C 318.41 195.73 299.64 198.99 285.65 191.31 C 282.02 189.40 278.80 186.78 275.97 183.83 C 273.45 181.04 271.34 177.88 269.73 174.48 C 268.00 170.49 266.92 166.22 266.58 161.87 C 266.48 158.65 266.62 155.40 267.19 152.22 C 268.23 147.66 270.07 143.29 272.69 139.41 C 272.92 139.06 273.16 138.72 273.41 138.39 C 277.96 138.72 282.48 137.96 287.03 137.98 C 298.35 138.08 309.67 138.00 320.99 138.04 C 324.30 138.01 327.79 138.76 330.97 137.46 M 277.79 164.17 C 278.60 164.08 280.21 163.91 281.01 163.82 C 283.95 162.58 283.52 158.53 282.87 156.00 C 282.19 153.81 279.61 154.03 277.81 153.80 C 277.73 157.26 277.73 160.71 277.79 164.17 M 299.97 153.98 C 300.01 156.01 300.09 158.04 300.21 160.08 C 299.75 159.49 298.82 158.30 298.35 157.71 C 298.11 158.90 297.49 159.82 296.48 160.47 C 296.43 159.80 295.92 157.23 295.03 158.99 C 294.27 161.01 291.61 157.41 293.95 156.60 C 292.53 157.74 292.13 159.56 291.52 161.18 C 290.98 159.58 290.51 157.98 289.73 156.48 C 290.14 161.49 287.82 156.14 286.02 157.07 C 281.94 158.27 284.42 166.72 288.48 163.05 C 288.75 161.60 289.09 160.16 289.50 158.74 C 290.07 160.63 290.63 162.55 291.24 164.45 C 292.57 163.20 292.97 161.31 294.27 160.04 C 294.57 161.45 295.13 162.71 295.97 163.82 C 298.28 165.09 299.64 161.90 299.14 160.05 C 299.79 161.28 300.09 162.63 300.31 164.00 L 301.24 164.00 C 301.26 160.67 301.24 157.34 301.23 154.01 L 299.97 153.98 M 304.13 157.06 C 301.78 158.84 302.22 164.65 305.84 163.93 C 308.20 162.19 307.76 156.30 304.13 157.06 M 307.99 157.01 C 307.97 160.18 307.91 163.35 308.18 166.51 C 308.81 165.78 309.25 164.94 309.50 163.99 C 313.05 164.85 313.78 160.77 312.90 158.25 C 311.88 156.50 309.63 157.31 307.99 157.01 M 314.11 162.81 C 315.61 165.18 318.36 163.63 319.36 161.68 C 317.46 162.60 315.36 163.78 314.56 160.98 C 316.14 161.06 317.71 161.15 319.29 161.25 C 319.01 159.52 318.49 156.59 316.07 157.02 C 313.31 157.23 313.71 160.87 314.11 162.81 M 319.76 157.12 C 319.78 159.39 319.80 161.67 319.77 163.95 L 320.90 164.02 C 321.15 161.77 320.26 158.87 322.67 157.57 C 323.26 159.31 323.26 161.12 323.13 162.94 C 323.94 164.78 327.05 164.25 327.01 162.16 C 326.63 160.64 326.74 159.16 327.35 157.70 C 324.88 156.97 322.29 157.22 319.76 157.12 Z" />
<path fill="#37b726" opacity="1.00" d=" M 279.04 154.69 C 283.28 155.00 283.29 163.01 279.04 163.31 C 278.98 160.43 278.98 157.56 279.04 154.69 Z" />
<path fill="#37b726" opacity="1.00" d=" M 286.09 158.11 C 287.42 157.52 288.57 159.85 286.89 160.11 C 285.48 160.71 284.43 158.48 286.09 158.11 Z" />
<path fill="#37b726" opacity="1.00" d=" M 309.72 157.53 C 312.90 158.05 312.87 163.08 309.64 163.45 C 309.31 161.48 309.32 159.49 309.72 157.53 Z" />
<path fill="#37b726" opacity="1.00" d=" M 315.99 158.17 C 317.27 157.51 318.64 159.72 316.90 160.05 C 315.52 160.76 314.22 158.56 315.99 158.17 Z" />
<path fill="#37b726" opacity="1.00" d=" M 304.39 158.90 C 306.07 157.62 306.44 161.21 305.61 162.11 C 303.92 163.39 303.55 159.79 304.39 158.90 Z" />
<path fill="#37b726" opacity="1.00" d=" M 285.47 161.28 C 286.22 160.35 288.71 161.09 287.67 162.41 C 286.93 163.48 284.53 162.56 285.47 161.28 Z" />
<path fill="#37b726" opacity="1.00" d=" M 296.30 161.06 C 298.00 160.50 298.59 161.01 298.06 162.58 C 296.39 163.14 295.80 162.63 296.30 161.06 Z" />
<path fill="#37b726" opacity="1.00" d=" M 324.05 161.08 C 325.65 160.60 326.24 161.18 325.81 162.80 C 324.19 163.27 323.61 162.70 324.05 161.08 Z" />
</g>
<g id="#19a6dbff">
<path fill="#19a6db" opacity="1.00" d=" M 435.81 156.76 C 446.38 150.21 460.43 149.82 471.37 155.72 C 476.78 158.68 481.55 162.90 484.82 168.17 C 492.25 179.36 492.31 194.80 485.25 206.19 C 476.84 220.73 457.52 227.34 441.92 221.20 C 426.59 215.80 416.53 199.07 418.75 182.99 C 419.14 180.31 419.78 177.68 420.64 175.12 C 423.51 167.56 428.89 160.97 435.81 156.76 M 446.03 172.04 C 445.50 175.04 449.58 175.47 451.35 176.85 C 450.96 177.35 450.19 178.34 449.81 178.83 C 447.74 179.54 447.06 176.99 445.82 175.91 C 446.20 177.29 446.12 179.74 448.02 179.94 C 449.66 180.49 451.32 179.49 451.95 177.97 C 452.88 174.94 448.66 174.62 446.98 173.11 C 447.58 169.38 450.71 171.82 452.34 173.23 C 452.30 169.66 447.24 168.68 446.03 172.04 M 452.77 169.89 C 452.77 173.30 452.76 176.71 452.77 180.12 C 454.68 180.05 456.62 179.94 458.45 179.31 C 456.97 179.13 455.48 178.98 454.00 178.88 C 454.00 178.15 453.99 176.67 453.98 175.94 C 455.36 176.00 457.22 175.39 458.18 176.76 C 459.54 178.38 461.18 181.43 463.65 179.42 C 465.67 176.86 465.95 171.00 462.09 169.89 C 459.34 169.80 458.89 172.94 458.66 174.98 C 457.10 174.99 455.54 175.00 454.00 175.00 C 453.99 173.71 453.99 172.42 454.00 171.13 C 455.46 171.00 456.93 170.84 458.40 170.64 C 456.58 170.02 454.66 169.95 452.77 169.89 M 433.20 188.80 C 434.67 190.17 436.61 190.86 438.34 191.84 C 437.96 192.33 437.21 193.30 436.83 193.79 C 434.73 194.65 434.08 191.94 432.88 190.84 C 433.10 192.22 433.14 193.79 434.31 194.77 C 436.08 195.53 438.25 194.84 438.95 192.97 C 439.86 189.86 435.51 189.48 433.72 188.02 C 434.22 187.46 435.22 186.33 435.72 185.77 C 436.59 186.66 437.48 187.54 438.39 188.42 C 438.00 187.19 437.60 185.97 437.19 184.76 C 434.97 184.59 432.10 186.22 433.20 188.80 M 456.15 185.16 C 454.76 188.24 459.47 185.14 456.15 185.16 M 464.04 185.02 C 464.00 188.13 463.99 191.23 464.00 194.34 L 462.99 194.48 C 462.99 192.55 463.01 190.63 463.05 188.71 C 461.43 187.87 459.64 187.94 458.46 189.44 L 460.24 190.38 L 460.02 189.02 C 460.41 189.01 461.20 188.99 461.59 188.98 C 461.61 190.80 461.52 192.63 461.11 194.42 C 460.59 194.07 459.53 193.36 459.01 193.01 C 459.56 192.29 460.65 190.87 461.20 190.15 C 459.42 190.53 456.58 192.45 458.50 194.41 C 460.55 195.35 463.03 194.68 465.24 194.93 C 465.27 191.61 465.26 188.30 465.23 184.99 L 464.04 185.02 M 467.03 185.12 C 465.34 188.04 470.33 185.43 467.03 185.12 M 473.05 188.44 C 471.74 188.07 468.93 187.61 469.13 189.78 C 469.43 191.42 468.24 193.89 470.13 194.85 C 471.70 195.89 472.78 193.66 473.80 192.91 C 472.35 191.67 470.40 190.77 469.77 188.83 C 471.27 189.47 472.98 191.34 474.00 188.89 C 474.26 191.28 472.85 195.45 476.62 195.33 C 475.14 193.51 474.23 190.28 476.28 188.54 C 476.55 191.26 479.63 191.83 480.31 194.27 C 479.36 193.71 477.45 192.60 476.49 192.05 C 476.09 196.46 480.69 195.24 481.84 192.91 C 480.33 191.72 478.52 190.75 477.70 188.93 C 478.96 189.42 480.22 189.91 481.48 190.41 C 481.20 185.92 474.66 190.70 474.81 185.76 C 474.23 186.66 473.64 187.55 473.05 188.44 M 439.75 188.14 C 439.76 191.09 439.76 194.04 439.76 197.00 L 440.86 197.01 C 440.92 196.53 441.04 195.58 441.10 195.10 C 445.09 195.27 444.65 190.42 443.27 187.98 C 442.39 188.02 440.63 188.10 439.75 188.14 M 445.39 189.40 C 444.66 191.25 444.73 194.39 447.04 194.99 C 448.79 195.52 449.69 193.81 450.41 192.57 C 449.26 193.10 448.12 193.64 446.99 194.20 C 446.73 193.65 446.20 192.55 445.93 192.01 C 447.44 192.09 448.95 192.18 450.46 192.28 C 450.29 191.50 449.93 189.94 449.75 189.16 C 448.86 187.47 446.05 187.56 445.39 189.40 M 451.15 189.14 C 450.60 190.83 450.50 192.88 451.62 194.37 C 452.87 195.54 454.74 195.13 455.48 193.56 C 455.90 194.02 456.74 194.94 457.15 195.40 C 457.22 192.86 457.24 190.31 457.24 187.77 C 456.82 187.98 455.99 188.38 455.57 188.59 C 454.08 188.19 452.13 187.45 451.15 189.14 M 467.26 188.24 C 466.63 190.07 466.11 193.48 467.57 194.74 C 468.12 192.87 468.65 189.57 467.26 188.24 Z" />
<path fill="#19a6db" opacity="1.00" d=" M 460.99 170.95 C 464.76 170.86 464.13 176.36 462.93 178.66 C 460.33 180.18 460.04 176.71 459.96 174.95 C 459.91 173.55 460.40 172.20 460.99 170.95 Z" />
<path fill="#19a6db" opacity="1.00" d=" M 447.12 189.16 C 448.44 188.51 449.77 190.79 448.00 191.08 C 446.63 191.70 445.38 189.53 447.12 189.16 Z" />
<path fill="#19a6db" opacity="1.00" d=" M 453.09 188.89 C 454.08 189.44 456.40 189.27 456.07 190.98 C 455.39 192.24 454.18 194.95 452.39 193.61 C 451.87 192.06 451.44 189.92 453.09 188.89 Z" />
<path fill="#19a6db" opacity="1.00" d=" M 442.79 194.14 C 440.14 193.89 440.08 188.84 443.02 189.10 C 442.97 190.78 442.89 192.46 442.79 194.14 Z" />
<path fill="#19a6db" opacity="1.00" d=" M 470.09 192.03 C 471.72 191.63 472.28 192.22 471.78 193.82 C 470.14 194.22 469.57 193.62 470.09 192.03 Z" />
</g>
<g id="#e4b83fff">
<path fill="#e4b83f" opacity="1.00" d=" M 357.54 175.23 C 362.79 174.27 368.24 174.33 373.49 175.25 C 379.78 177.00 385.78 180.01 390.50 184.58 C 402.26 195.63 404.92 214.79 396.59 228.61 C 391.23 237.78 381.63 244.70 370.97 245.91 C 364.92 245.95 358.58 246.67 352.87 244.18 C 339.18 239.30 329.47 225.34 329.53 210.82 C 329.54 207.82 329.84 204.83 330.45 201.89 C 332.28 195.34 335.69 189.20 340.61 184.47 C 345.36 180.00 351.26 176.90 357.54 175.23 M 335.78 215.52 C 335.89 214.02 335.99 212.53 336.06 211.04 C 336.83 211.02 338.38 210.98 339.16 210.96 C 339.61 209.46 340.70 207.83 339.57 206.35 C 338.81 204.47 336.48 205.02 334.91 205.04 C 334.99 208.44 333.65 212.58 335.78 215.52 M 340.72 214.99 L 341.87 215.00 C 341.96 212.55 342.24 210.11 342.77 207.72 C 339.25 208.03 341.27 212.61 340.72 214.99 M 345.26 208.32 C 343.34 209.97 343.42 214.07 346.02 215.01 C 350.84 215.92 350.01 205.83 345.26 208.32 M 351.10 208.24 C 348.43 210.60 350.07 214.77 353.10 215.95 C 352.30 216.02 350.69 216.14 349.89 216.20 C 350.68 216.39 352.26 216.77 353.05 216.95 C 356.51 215.73 354.65 210.88 355.10 208.07 C 353.76 208.08 352.43 208.13 351.10 208.24 M 355.85 208.15 C 355.86 210.40 355.86 212.67 355.86 214.93 L 356.87 215.05 C 356.96 213.07 357.00 211.10 357.28 209.15 C 357.86 209.26 359.00 209.49 359.58 209.61 C 360.54 209.35 361.51 209.10 362.48 208.85 L 362.63 209.85 C 361.28 210.61 358.61 210.84 358.98 213.02 C 358.94 215.85 362.43 214.50 364.21 215.04 C 364.09 212.91 364.02 210.77 364.00 208.64 C 361.33 207.98 358.56 208.18 355.85 208.15 M 365.11 207.60 C 364.98 210.24 364.95 212.89 365.09 215.54 C 366.48 214.45 366.29 212.61 366.44 211.06 C 366.30 209.82 367.12 207.80 365.11 207.60 M 373.76 208.11 C 373.79 210.41 373.82 212.72 373.84 215.02 L 374.92 214.93 C 375.37 213.21 373.81 208.44 376.87 209.40 C 377.03 211.44 377.07 213.49 377.24 215.54 C 379.23 213.60 377.18 210.15 379.80 208.56 C 379.96 210.69 380.02 212.83 380.07 214.97 L 381.26 215.00 C 380.97 212.89 381.92 210.21 380.61 208.47 C 378.37 207.95 376.03 208.21 373.76 208.11 M 387.98 208.11 C 387.94 210.59 387.96 213.08 388.20 215.55 C 390.42 213.99 387.81 207.82 391.64 209.31 C 392.52 211.19 394.58 212.22 395.15 214.28 C 394.47 213.84 393.12 212.96 392.44 212.52 L 391.38 212.73 C 392.32 215.76 395.69 215.37 396.90 212.74 C 395.59 211.86 394.23 211.05 392.86 210.30 C 393.32 207.96 395.31 210.14 396.50 210.47 C 395.77 206.42 390.79 208.67 387.98 208.11 M 366.97 207.85 C 368.19 210.23 367.96 212.96 368.30 215.53 C 369.83 213.49 369.20 210.72 369.65 208.35 L 366.97 207.85 M 372.93 215.49 C 372.90 212.79 373.90 209.40 371.39 207.43 C 371.97 210.02 370.72 213.50 372.93 215.49 M 382.81 208.32 C 382.97 210.36 382.41 212.66 383.48 214.55 C 385.07 215.86 386.61 214.35 387.53 213.07 C 385.90 213.48 383.94 214.43 383.60 211.97 C 384.48 212.06 386.24 212.26 387.12 212.36 C 387.11 211.35 387.10 209.33 387.10 208.32 C 386.37 209.28 385.69 210.27 385.02 211.26 C 384.30 210.26 383.59 209.26 382.81 208.32 Z" />
<path fill="#e4b83f" opacity="1.00" d=" M 336.05 205.64 C 339.52 205.57 339.72 210.74 336.01 210.26 C 336.01 208.72 336.02 207.18 336.05 205.64 Z" />
<path fill="#e4b83f" opacity="1.00" d=" M 346.01 208.87 C 348.80 208.70 347.94 212.06 347.67 213.79 C 344.79 215.16 344.85 210.46 346.01 208.87 Z" />
<path fill="#e4b83f" opacity="1.00" d=" M 351.25 209.29 C 354.51 207.77 353.57 212.66 353.35 214.52 C 350.55 214.17 350.86 211.35 351.25 209.29 Z" />
<path fill="#e4b83f" opacity="1.00" d=" M 362.19 211.13 C 364.23 211.82 361.85 215.10 360.40 213.63 C 359.52 212.49 360.93 210.91 362.19 211.13 Z" />
</g>
<g id="#cdecf7ff">
<path fill="#cdecf7" opacity="1.00" d=" M 456.15 185.16 C 459.47 185.14 454.76 188.24 456.15 185.16 Z" />
<path fill="#cdecf7" opacity="1.00" d=" M 467.03 185.12 C 470.33 185.43 465.34 188.04 467.03 185.12 Z" />
</g>
<g id="#fafdfeff">
<path fill="#fafdfe" opacity="1.00" d=" M 467.26 188.24 C 468.65 189.57 468.12 192.87 467.57 194.74 C 466.11 193.48 466.63 190.07 467.26 188.24 Z" />
</g>
<g id="#fefbf5ff">
<path fill="#fefbf5" opacity="1.00" d=" M 340.72 214.99 C 341.27 212.61 339.25 208.03 342.77 207.72 C 342.24 210.11 341.96 212.55 341.87 215.00 L 340.72 214.99 Z" />
</g>
</svg>
