<?xml version="1.0" encoding="UTF-8" ?>
<!DOCTYPE svg PUBLIC "-//W3C//DTD SVG 1.1//EN" "http://www.w3.org/Graphics/SVG/1.1/DTD/svg11.dtd">
<svg width="550pt" height="550pt" viewBox="0 0 550 550" version="1.1" xmlns="http://www.w3.org/2000/svg">
<g id="#bfcdcdff">
<path fill="#bfcdcd" opacity="1.00" d=" M 162.73 24.37 C 237.58 24.39 312.42 24.39 387.27 24.37 C 387.19 28.24 387.19 32.11 387.28 35.98 L 386.06 36.15 C 384.01 36.36 381.95 36.46 379.90 36.48 C 329.43 36.41 278.95 36.48 228.48 36.47 C 228.45 34.54 228.42 32.61 228.40 30.67 C 213.07 30.71 197.73 30.87 182.40 30.60 C 175.87 30.38 169.33 30.49 162.79 30.48 C 162.78 28.44 162.77 26.41 162.73 24.37 Z" />
<path fill="#bfcdcd" opacity="1.00" d=" M 166.49 38.58 C 168.16 38.57 169.83 38.56 171.51 38.55 C 171.51 40.49 171.52 42.43 171.53 44.37 C 169.85 44.40 168.17 44.44 166.49 44.47 C 166.49 42.51 166.49 40.54 166.49 38.58 Z" />
<path fill="#bfcdcd" opacity="1.00" d=" M 173.91 38.95 C 175.40 38.00 177.21 38.99 178.82 39.03 C 178.72 40.84 178.63 42.65 178.53 44.46 C 176.83 44.44 175.13 44.43 173.43 44.41 C 173.57 42.60 173.20 40.67 173.91 38.95 Z" />
<path fill="#bfcdcd" opacity="1.00" d=" M 371.46 38.39 C 372.39 38.48 374.25 38.66 375.18 38.74 C 377.56 39.60 376.14 42.59 376.53 44.44 C 374.83 44.45 373.13 44.45 371.44 44.46 C 371.37 42.44 371.37 40.41 371.46 38.39 Z" />
<path fill="#bfcdcd" opacity="1.00" d=" M 378.46 38.53 C 380.13 38.59 381.81 38.65 383.49 38.71 C 383.50 40.61 383.52 42.50 383.54 44.40 C 381.84 44.42 380.15 44.44 378.47 44.47 C 378.46 42.49 378.45 40.51 378.46 38.53 Z" />
<path fill="#bfcdcd" opacity="1.00" d=" M 220.81 116.74 C 224.56 116.75 228.32 116.75 232.07 116.76 C 232.05 117.32 232.00 118.44 231.98 119.00 C 228.32 119.00 224.66 119.00 221.00 119.00 C 220.95 118.44 220.86 117.31 220.81 116.74 Z" />
<path fill="#bfcdcd" opacity="1.00" d=" M 254.09 117.07 C 257.47 116.46 260.92 116.78 264.34 116.74 C 264.31 117.31 264.24 118.43 264.21 119.00 C 260.31 118.97 256.40 119.06 252.51 118.92 C 252.90 118.46 253.69 117.53 254.09 117.07 Z" />
<path fill="#bfcdcd" opacity="1.00" d=" M 285.70 116.75 C 289.13 116.78 292.59 116.49 295.99 117.02 C 296.38 117.48 297.15 118.42 297.54 118.89 C 293.61 119.07 289.69 118.97 285.77 119.00 C 285.75 118.44 285.72 117.31 285.70 116.75 Z" />
<path fill="#bfcdcd" opacity="1.00" d=" M 318.01 116.78 C 321.72 116.75 325.43 116.74 329.14 116.76 C 329.11 117.32 329.05 118.44 329.03 119.00 C 325.35 118.99 321.67 119.01 318.00 119.00 C 318.00 118.44 318.01 117.33 318.01 116.78 Z" />
<path fill="#bfcdcd" opacity="1.00" d=" M 140.04 137.44 C 147.83 137.29 155.61 137.32 163.40 137.42 C 163.15 152.41 164.03 167.45 162.91 182.41 C 162.49 182.28 161.64 182.01 161.22 181.87 C 155.84 181.42 150.44 181.70 145.05 181.63 C 143.05 166.94 141.64 152.18 140.04 137.44 Z" />
<path fill="#bfcdcd" opacity="1.00" d=" M 386.59 137.45 C 394.38 137.29 402.17 137.30 409.96 137.44 C 408.38 152.18 406.94 166.95 404.95 181.64 C 399.54 181.71 394.12 181.45 388.72 181.79 C 388.32 181.94 387.50 182.25 387.10 182.40 C 385.97 167.46 386.86 152.43 386.59 137.45 Z" />
<path fill="#bfcdcd" opacity="1.00" d=" M 43.10 188.40 L 43.55 188.40 C 43.71 191.28 43.89 194.16 44.07 197.04 C 44.51 196.43 45.39 195.22 45.83 194.62 C 52.43 195.54 59.06 196.30 65.70 196.88 C 65.68 199.26 65.67 201.64 65.66 204.02 C 63.72 203.67 61.82 203.14 59.93 202.60 C 54.38 200.87 48.82 199.16 43.24 197.51 L 43.24 197.39 C 43.17 194.39 43.12 191.39 43.10 188.40 Z" />
<path fill="#bfcdcd" opacity="1.00" d=" M 482.70 196.88 C 487.04 196.80 491.38 196.88 495.71 197.19 C 495.71 199.59 495.71 201.98 495.72 204.38 C 494.08 204.37 492.45 204.36 490.82 204.33 C 488.16 204.27 485.51 204.19 482.87 204.08 C 482.81 201.67 482.75 199.28 482.70 196.88 Z" />
<path fill="#bfcdcd" opacity="1.00" d=" M 147.29 204.33 C 152.54 204.29 157.78 204.31 163.03 204.25 C 163.71 211.47 163.34 218.72 163.41 225.96 C 163.37 233.94 163.58 241.93 163.22 249.91 C 159.63 249.90 156.03 249.90 152.44 249.90 C 150.76 234.71 149.23 219.49 147.29 204.33 Z" />
<path fill="#bfcdcd" opacity="1.00" d=" M 386.97 204.25 C 392.23 204.31 397.49 204.29 402.76 204.32 C 400.70 219.47 399.29 234.71 397.57 249.90 C 393.97 249.90 390.37 249.90 386.78 249.91 C 386.42 241.95 386.63 233.97 386.59 226.00 C 386.66 218.75 386.28 211.48 386.97 204.25 Z" />
<path fill="#bfcdcd" opacity="1.00" d=" M 183.25 268.14 C 200.70 267.61 218.19 268.00 235.65 267.94 L 235.49 269.58 C 218.67 269.37 201.82 269.77 185.02 269.39 C 184.57 269.08 183.69 268.46 183.25 268.14 Z" />
<path fill="#bfcdcd" opacity="1.00" d=" M 248.54 268.14 C 261.02 267.59 273.53 268.05 286.02 267.90 C 291.18 267.94 296.35 267.69 301.49 268.20 C 299.82 270.10 297.17 269.49 294.94 269.59 C 279.97 269.32 264.97 269.82 250.02 269.37 C 249.65 269.06 248.91 268.45 248.54 268.14 Z" />
<path fill="#bfcdcd" opacity="1.00" d=" M 314.40 267.93 C 331.81 267.98 349.24 267.67 366.65 268.09 C 365.77 269.96 363.59 269.41 361.98 269.58 C 346.14 269.49 330.30 269.51 314.46 269.58 L 314.40 267.93 Z" />
<path fill="#bfcdcd" opacity="1.00" d=" M 183.86 272.69 C 201.10 272.62 218.34 272.67 235.58 272.66 L 235.50 274.24 C 218.31 274.23 201.12 274.27 183.92 274.22 L 183.86 272.69 Z" />
<path fill="#bfcdcd" opacity="1.00" d=" M 248.49 273.98 C 250.23 272.22 252.81 272.67 255.04 272.60 C 270.51 272.87 285.99 272.35 301.44 272.87 C 300.22 274.77 297.81 274.10 295.95 274.29 C 280.14 274.01 264.30 274.61 248.49 273.98 Z" />
<path fill="#bfcdcd" opacity="1.00" d=" M 314.47 272.65 C 331.69 272.70 348.91 272.59 366.13 272.71 L 366.09 274.23 C 348.86 274.26 331.64 274.25 314.42 274.23 L 314.47 272.65 Z" />
<path fill="#bfcdcd" opacity="1.00" d=" M 197.60 278.75 C 198.66 276.69 201.16 277.46 203.01 277.29 C 208.85 277.59 214.74 276.95 220.55 277.55 C 220.88 277.86 221.53 278.49 221.85 278.81 C 213.77 278.98 205.68 279.08 197.60 278.75 Z" />
<path fill="#bfcdcd" opacity="1.00" d=" M 262.68 278.63 C 263.94 276.92 266.14 277.39 267.97 277.30 C 273.34 277.42 278.70 277.26 284.07 277.34 C 285.35 277.21 286.52 277.60 287.33 278.64 C 279.14 279.12 270.88 279.12 262.68 278.63 Z" />
<path fill="#bfcdcd" opacity="1.00" d=" M 328.19 278.81 C 329.41 276.69 332.02 277.43 334.03 277.29 C 339.77 277.58 345.55 276.99 351.28 277.51 C 351.53 277.84 352.04 278.50 352.30 278.83 C 344.26 278.99 336.22 279.02 328.19 278.81 Z" />
<path fill="#bfcdcd" opacity="1.00" d=" M 209.38 292.30 C 218.14 292.26 226.91 292.27 235.68 292.29 C 235.65 293.42 235.63 294.55 235.61 295.68 C 226.88 295.63 218.15 295.66 209.42 295.67 C 209.40 294.54 209.39 293.42 209.38 292.30 Z" />
<path fill="#bfcdcd" opacity="1.00" d=" M 249.21 292.26 C 266.40 292.30 283.60 292.30 300.79 292.26 C 300.71 302.69 300.81 313.13 300.73 323.57 C 283.58 323.56 266.43 323.57 249.28 323.57 C 249.18 313.13 249.29 302.70 249.21 292.26 M 271.38 304.11 C 271.36 306.96 271.39 309.81 271.51 312.65 C 273.93 311.31 276.29 309.86 278.57 308.31 C 276.19 306.88 273.79 305.48 271.38 304.11 Z" />
<path fill="#bfcdcd" opacity="1.00" d=" M 314.34 292.27 C 322.93 292.24 331.53 292.37 340.13 292.19 C 340.13 293.38 340.13 294.57 340.11 295.76 C 331.54 295.56 322.97 295.67 314.40 295.69 C 314.37 294.55 314.35 293.41 314.34 292.27 Z" />
<path fill="#bfcdcd" opacity="1.00" d=" M 60.13 298.08 C 59.65 297.16 59.04 294.68 60.62 294.64 C 61.28 295.73 61.30 296.88 60.69 298.08 L 60.13 298.08 Z" />
<path fill="#bfcdcd" opacity="1.00" d=" M 75.95 298.04 C 75.45 297.14 74.92 294.66 76.51 294.71 C 77.19 295.76 77.19 296.87 76.52 298.04 L 75.95 298.04 Z" />
<path fill="#bfcdcd" opacity="1.00" d=" M 90.90 298.20 C 91.28 296.63 91.67 295.06 92.08 293.50 C 92.52 295.06 92.92 296.62 93.30 298.20 C 92.70 298.20 91.50 298.20 90.90 298.20 Z" />
<path fill="#bfcdcd" opacity="1.00" d=" M 456.69 298.20 C 457.07 296.62 457.48 295.05 457.92 293.49 C 458.32 295.06 458.70 296.63 459.10 298.20 C 458.50 298.20 457.30 298.20 456.69 298.20 Z" />
<path fill="#bfcdcd" opacity="1.00" d=" M 473.48 298.04 C 472.97 297.14 472.41 294.69 474.00 294.71 C 474.70 295.76 474.71 296.87 474.05 298.04 L 473.48 298.04 Z" />
<path fill="#bfcdcd" opacity="1.00" d=" M 489.37 298.06 C 488.92 297.13 488.37 294.64 489.95 294.65 C 490.60 295.74 490.59 296.88 489.93 298.06 L 489.37 298.06 Z" />
<path fill="#bfcdcd" opacity="1.00" d=" M 158.16 299.06 C 160.19 299.41 164.19 298.61 163.40 301.94 C 163.29 313.91 163.74 325.91 163.19 337.86 C 161.31 334.58 161.47 330.70 161.04 327.07 C 160.22 317.72 158.76 308.43 158.16 299.06 Z" />
<path fill="#bfcdcd" opacity="1.00" d=" M 209.57 298.50 C 218.24 298.55 226.92 298.52 235.60 298.51 L 235.47 300.06 C 226.81 300.09 218.16 300.10 209.51 300.05 L 209.57 298.50 Z" />
<path fill="#bfcdcd" opacity="1.00" d=" M 314.47 298.50 C 330.32 298.54 346.17 298.56 362.01 298.48 C 363.67 298.47 365.42 298.49 366.69 299.77 C 349.31 300.48 331.89 299.87 314.50 300.05 L 314.47 298.50 Z" />
<path fill="#bfcdcd" opacity="1.00" d=" M 387.06 299.25 C 388.65 299.24 390.25 299.24 391.85 299.23 C 391.18 308.51 389.81 317.73 388.97 327.00 C 388.57 330.72 388.59 334.60 386.84 338.01 C 386.17 330.36 386.77 322.68 386.59 315.02 C 386.68 309.76 386.19 304.47 387.06 299.25 Z" />
<path fill="#bfcdcd" opacity="1.00" d=" M 208.81 304.34 C 209.61 303.37 210.70 302.83 211.99 302.95 C 216.60 302.78 221.24 302.85 225.85 303.16 C 224.86 304.28 223.42 304.58 222.00 304.49 C 217.60 304.48 213.21 304.50 208.81 304.34 Z" />
<path fill="#bfcdcd" opacity="1.00" d=" M 313.95 303.11 C 324.28 302.68 334.63 303.03 344.97 302.92 C 352.18 303.04 359.42 302.63 366.62 303.20 C 365.46 304.60 363.63 304.40 362.03 304.48 C 347.69 304.42 333.35 304.40 319.00 304.48 C 317.28 304.31 315.06 304.87 313.95 303.11 Z" />
<path fill="#bfcdcd" opacity="1.00" d=" M 313.74 308.72 C 314.35 307.41 315.64 307.14 316.96 307.26 C 333.28 307.27 349.61 307.34 365.93 307.23 C 365.93 307.65 365.93 308.47 365.93 308.89 C 348.54 308.84 331.13 309.18 313.74 308.72 Z" />
<path fill="#bfcdcd" opacity="1.00" d=" M 314.46 311.69 C 330.31 311.59 346.16 311.72 362.00 311.62 C 363.61 311.78 365.75 311.29 366.66 313.12 C 349.25 313.63 331.82 313.21 314.40 313.34 L 314.46 311.69 Z" />
<path fill="#bfcdcd" opacity="1.00" d=" M 183.31 315.97 C 200.73 315.49 218.18 315.87 235.61 315.77 L 235.51 317.41 C 219.66 317.45 203.81 317.37 187.95 317.46 C 186.33 317.34 184.29 317.67 183.31 315.97 Z" />
<path fill="#bfcdcd" opacity="1.00" d=" M 326.65 317.55 C 328.06 315.41 330.80 316.19 332.96 316.02 C 339.84 316.19 346.73 315.89 353.61 316.22 C 352.58 318.45 349.89 317.57 347.97 317.77 C 340.86 317.57 333.75 317.94 326.65 317.55 Z" />
<path fill="#bfcdcd" opacity="1.00" d=" M 183.49 320.26 C 199.32 320.02 215.16 320.30 231.00 320.12 C 232.81 320.28 235.27 319.60 236.28 321.62 C 220.21 322.02 204.13 321.58 188.05 321.84 C 186.38 321.77 184.20 322.27 183.49 320.26 Z" />
<path fill="#bfcdcd" opacity="1.00" d=" M 183.33 325.95 C 184.43 324.38 186.39 324.70 188.02 324.61 C 203.86 324.72 219.69 324.63 235.53 324.66 L 235.47 326.15 C 218.09 326.05 200.70 326.44 183.33 325.95 Z" />
<path fill="#bfcdcd" opacity="1.00" d=" M 183.54 329.21 C 194.63 328.89 205.74 329.14 216.84 329.08 C 216.80 329.46 216.74 330.22 216.71 330.60 C 206.46 330.48 196.20 330.57 185.95 330.58 C 184.89 330.63 184.08 330.17 183.54 329.21 Z" />
</g>
<g id="#f68360ff">
<path fill="#f68360" opacity="1.00" d=" M 162.79 30.48 C 169.33 30.49 175.87 30.38 182.40 30.60 C 182.41 32.48 182.41 34.37 182.41 36.26 C 176.24 36.17 170.06 36.44 163.89 36.10 L 162.71 36.02 C 162.74 34.17 162.77 32.32 162.79 30.48 Z" />
<path fill="#f68360" opacity="1.00" d=" M 162.77 46.76 C 237.59 46.91 312.41 46.91 387.23 46.76 C 387.23 51.64 387.24 56.53 387.22 61.41 C 343.47 61.02 299.72 61.33 255.97 61.23 C 224.91 61.31 193.84 61.05 162.78 61.41 C 162.76 56.53 162.77 51.64 162.77 46.76 M 313.27 56.58 C 320.68 56.64 328.09 56.64 335.50 56.58 C 335.45 54.94 335.41 53.30 335.36 51.66 C 328.09 51.72 320.82 51.77 313.55 51.63 C 313.45 53.28 313.36 54.93 313.27 56.58 M 338.74 51.70 C 338.71 53.31 338.69 54.92 338.66 56.53 C 346.04 56.70 353.42 56.62 360.80 56.57 C 360.81 54.95 360.81 53.33 360.82 51.71 C 353.46 51.70 346.10 51.72 338.74 51.70 M 363.85 51.75 C 363.88 53.37 363.93 54.99 363.98 56.62 C 368.09 56.64 372.20 56.63 376.30 56.49 C 376.21 54.91 376.13 53.33 376.05 51.75 C 371.98 51.75 367.91 51.75 363.85 51.75 M 173.38 55.18 C 189.82 55.30 206.27 55.24 222.71 55.21 C 222.50 54.74 222.08 53.79 221.87 53.32 C 207.26 52.97 192.62 53.33 178.01 53.15 C 176.19 53.28 173.53 52.53 173.38 55.18 M 244.55 53.38 C 244.31 53.83 243.83 54.73 243.59 55.18 C 248.16 55.29 252.73 55.21 257.30 55.29 C 257.41 54.79 257.64 53.80 257.75 53.31 C 253.35 53.26 248.93 52.88 244.55 53.38 M 261.40 53.31 C 261.49 53.81 261.68 54.79 261.77 55.28 C 266.21 55.23 270.64 55.24 275.08 55.25 C 275.10 54.74 275.13 53.74 275.15 53.23 C 270.56 53.15 265.98 53.13 261.40 53.31 Z" />
<path fill="#f68360" opacity="1.00" d=" M 219.90 96.23 C 224.17 96.23 228.45 96.23 232.72 96.22 C 232.71 100.50 232.70 104.77 232.70 109.05 C 228.42 109.15 224.15 109.14 219.88 109.11 C 219.86 104.82 219.87 100.52 219.90 96.23 Z" />
<path fill="#f68360" opacity="1.00" d=" M 252.35 96.17 C 256.64 96.26 260.94 96.26 265.23 96.16 C 265.26 100.48 265.26 104.79 265.23 109.11 C 260.95 109.15 256.68 109.16 252.40 109.01 C 252.40 104.73 252.40 100.45 252.35 96.17 Z" />
<path fill="#f68360" opacity="1.00" d=" M 284.51 108.53 C 284.90 104.42 284.72 100.29 284.80 96.17 C 289.08 96.27 293.36 96.23 297.64 96.41 C 293.41 96.75 289.17 96.87 284.93 96.88 L 285.00 98.05 C 288.69 98.03 292.39 98.02 296.09 98.02 C 296.09 101.05 296.07 104.08 296.04 107.12 C 292.24 107.47 287.81 106.06 284.51 108.53 Z" />
<path fill="#f68360" opacity="1.00" d=" M 317.28 96.23 C 321.52 96.24 325.76 96.24 330.01 96.19 C 330.15 100.44 330.15 104.70 330.14 108.95 C 325.86 109.20 321.57 109.19 317.29 109.01 C 317.30 104.75 317.29 100.49 317.28 96.23 Z" />
<path fill="#f68360" opacity="1.00" d=" M 145.05 181.63 C 150.44 181.70 155.84 181.42 161.22 181.87 C 161.64 186.98 161.67 192.11 161.38 197.23 C 156.49 197.35 151.60 197.46 146.72 197.64 C 146.49 192.27 145.92 186.93 145.05 181.63 Z" />
<path fill="#f68360" opacity="1.00" d=" M 388.72 181.79 C 394.12 181.45 399.54 181.71 404.95 181.64 C 404.08 186.94 403.48 192.28 403.29 197.66 C 398.42 197.47 393.54 197.38 388.67 197.29 C 388.35 192.13 388.34 186.95 388.72 181.79 Z" />
<path fill="#f68360" opacity="1.00" d=" M 495.73 181.52 C 501.89 181.80 508.20 180.82 514.26 182.14 C 514.34 186.03 514.34 190.45 511.36 193.39 C 507.54 197.98 500.99 196.88 495.71 197.19 C 495.69 191.97 495.69 186.74 495.73 181.52 Z" />
<path fill="#f68360" opacity="1.00" d=" M 314.41 251.42 C 314.35 240.84 314.25 230.25 314.47 219.68 C 331.69 219.84 348.92 219.71 366.15 219.74 C 366.17 230.29 366.15 240.83 366.17 251.37 C 348.91 251.42 331.66 251.34 314.41 251.42 Z" />
<path fill="#f68360" opacity="1.00" d=" M 185.95 293.98 C 191.34 293.69 196.75 293.69 202.14 293.92 C 202.57 299.26 202.55 304.63 202.11 309.97 C 196.75 310.21 191.38 310.28 186.02 309.95 C 185.60 304.64 185.56 299.30 185.95 293.98 Z" />
</g>
<g id="#fbfbfbff">
<path fill="#fbfbfb" opacity="1.00" d=" M 182.40 30.60 C 197.73 30.87 213.07 30.71 228.40 30.67 C 228.42 32.61 228.45 34.54 228.48 36.47 C 278.95 36.48 329.43 36.41 379.90 36.48 C 381.95 36.46 384.01 36.36 386.06 36.15 L 387.23 36.04 C 387.22 39.61 387.21 43.18 387.23 46.76 C 312.41 46.91 237.59 46.91 162.77 46.76 C 162.78 43.19 162.78 39.61 162.78 36.04 L 163.89 36.10 C 170.06 36.44 176.24 36.17 182.41 36.26 C 182.41 34.37 182.41 32.48 182.40 30.60 M 166.49 38.58 C 166.49 40.54 166.49 42.51 166.49 44.47 C 168.17 44.44 169.85 44.40 171.53 44.37 C 171.52 42.43 171.51 40.49 171.51 38.55 C 169.83 38.56 168.16 38.57 166.49 38.58 M 173.91 38.95 C 173.20 40.67 173.57 42.60 173.43 44.41 C 175.13 44.43 176.83 44.44 178.53 44.46 C 178.63 42.65 178.72 40.84 178.82 39.03 C 177.21 38.99 175.40 38.00 173.91 38.95 M 371.46 38.39 C 371.37 40.41 371.37 42.44 371.44 44.46 C 373.13 44.45 374.83 44.45 376.53 44.44 C 376.14 42.59 377.56 39.60 375.18 38.74 C 374.25 38.66 372.39 38.48 371.46 38.39 M 378.46 38.53 C 378.45 40.51 378.46 42.49 378.47 44.47 C 380.15 44.44 381.84 44.42 383.54 44.40 C 383.52 42.50 383.50 40.61 383.49 38.71 C 381.81 38.65 380.13 38.59 378.46 38.53 Z" />
<path fill="#fbfbfb" opacity="1.00" d=" M 313.27 56.58 C 313.36 54.93 313.45 53.28 313.55 51.63 C 320.82 51.77 328.09 51.72 335.36 51.66 C 335.41 53.30 335.45 54.94 335.50 56.58 C 328.09 56.64 320.68 56.64 313.27 56.58 Z" />
<path fill="#fbfbfb" opacity="1.00" d=" M 338.74 51.70 C 346.10 51.72 353.46 51.70 360.82 51.71 C 360.81 53.33 360.81 54.95 360.80 56.57 C 353.42 56.62 346.04 56.70 338.66 56.53 C 338.69 54.92 338.71 53.31 338.74 51.70 Z" />
<path fill="#fbfbfb" opacity="1.00" d=" M 173.38 55.18 C 173.53 52.53 176.19 53.28 178.01 53.15 C 192.62 53.33 207.26 52.97 221.87 53.32 C 222.08 53.79 222.50 54.74 222.71 55.21 C 206.27 55.24 189.82 55.30 173.38 55.18 Z" />
<path fill="#fbfbfb" opacity="1.00" d=" M 244.55 53.38 C 248.93 52.88 253.35 53.26 257.75 53.31 C 257.64 53.80 257.41 54.79 257.30 55.29 C 252.73 55.21 248.16 55.29 243.59 55.18 C 243.83 54.73 244.31 53.83 244.55 53.38 Z" />
<path fill="#fbfbfb" opacity="1.00" d=" M 261.40 53.31 C 265.98 53.13 270.56 53.15 275.15 53.23 C 275.13 53.74 275.10 54.74 275.08 55.25 C 270.64 55.24 266.21 55.23 261.77 55.28 C 261.68 54.79 261.49 53.81 261.40 53.31 Z" />
<path fill="#fbfbfb" opacity="1.00" d=" M 162.78 61.41 C 193.84 61.05 224.91 61.31 255.97 61.23 C 299.72 61.33 343.47 61.02 387.22 61.41 C 387.15 70.29 387.37 79.18 387.10 88.06 C 386.63 97.79 386.76 107.55 387.04 117.29 C 387.27 123.59 386.98 129.91 387.23 136.21 C 395.47 136.03 403.73 136.43 411.96 135.81 C 421.84 135.65 431.73 135.85 441.62 135.72 C 441.77 151.00 441.60 166.29 441.70 181.58 C 429.45 181.70 417.20 181.58 404.95 181.64 C 406.94 166.95 408.38 152.18 409.96 137.44 C 402.17 137.30 394.38 137.29 386.59 137.45 C 386.86 152.43 385.97 167.46 387.10 182.40 C 387.58 189.67 387.45 196.98 386.97 204.25 C 386.28 211.48 386.66 218.75 386.59 226.00 C 386.63 233.97 386.42 241.95 386.78 249.91 C 386.99 266.12 386.83 282.33 386.86 298.54 C 389.09 298.47 391.33 298.38 393.57 298.25 C 393.55 297.32 393.50 295.47 393.48 294.55 L 394.87 294.52 C 394.89 295.41 394.92 297.18 394.94 298.07 L 396.10 298.10 L 396.80 298.12 C 398.28 298.17 399.78 298.22 401.28 298.28 C 401.33 295.53 401.40 292.78 401.83 290.07 C 403.47 292.49 403.07 295.47 403.17 298.22 C 405.23 298.22 407.29 298.22 409.36 298.23 C 409.51 296.71 409.69 295.19 409.89 293.69 C 410.32 295.19 410.67 296.69 411.06 298.22 C 413.13 298.22 415.19 298.23 417.27 298.24 C 417.26 295.89 417.25 293.55 417.23 291.20 C 417.64 291.17 418.45 291.10 418.85 291.07 C 418.94 292.84 419.04 294.62 419.09 296.41 C 419.02 296.85 418.88 297.75 418.81 298.19 C 419.34 298.20 420.41 298.21 420.94 298.21 C 422.29 298.22 423.65 298.23 425.01 298.25 C 425.40 296.75 425.81 295.26 426.25 293.78 C 426.39 294.89 426.66 297.11 426.79 298.23 C 428.93 298.22 431.07 298.23 433.21 298.23 C 433.20 295.88 433.18 293.52 433.17 291.17 C 433.58 291.18 434.42 291.19 434.83 291.20 C 434.81 293.55 434.78 295.91 434.78 298.27 C 436.81 298.21 438.86 298.18 440.90 298.04 C 441.10 297.28 441.49 295.75 441.68 294.98 L 442.05 294.95 C 443.44 296.89 441.42 299.67 441.71 301.97 C 441.61 315.94 441.70 329.92 441.69 343.89 C 330.56 343.85 219.44 343.85 108.31 343.88 C 108.33 330.25 108.33 316.61 108.33 302.98 C 108.64 299.91 106.41 296.67 108.20 293.82 C 108.35 294.91 108.64 297.11 108.79 298.21 C 110.93 298.21 113.08 298.22 115.22 298.22 C 115.21 295.88 115.19 293.53 115.17 291.19 C 115.58 291.19 116.42 291.19 116.84 291.19 C 116.82 293.54 116.80 295.88 116.78 298.23 C 118.92 298.23 121.07 298.22 123.21 298.23 C 123.35 297.11 123.62 294.89 123.75 293.77 C 124.21 295.25 124.60 296.74 125.02 298.24 C 126.35 298.23 127.69 298.22 129.04 298.22 C 129.52 298.22 130.47 298.21 130.95 298.21 C 130.94 297.77 130.91 296.91 130.89 296.47 C 130.95 294.67 131.06 292.87 131.16 291.07 C 131.56 291.10 132.36 291.16 132.76 291.19 C 132.75 293.54 132.74 295.89 132.73 298.24 C 134.80 298.23 136.88 298.22 138.95 298.22 C 139.31 296.69 139.67 295.18 140.09 293.68 C 140.29 295.19 140.48 296.71 140.65 298.23 C 142.77 298.22 144.89 298.22 147.01 298.22 C 146.97 295.77 146.94 293.32 146.93 290.87 C 147.42 291.03 148.39 291.35 148.88 291.51 C 148.69 293.71 148.38 295.97 149.01 298.14 L 149.43 298.14 C 151.21 298.18 152.99 298.21 154.77 298.24 C 155.18 296.74 155.60 295.24 156.06 293.75 C 156.27 295.27 156.46 296.80 156.63 298.33 C 158.80 298.41 160.97 298.47 163.14 298.51 C 163.17 282.31 163.01 266.11 163.22 249.91 C 163.58 241.93 163.37 233.94 163.41 225.96 C 163.34 218.72 163.71 211.47 163.03 204.25 C 162.55 196.98 162.41 189.68 162.91 182.41 C 164.03 167.45 163.15 152.41 163.40 137.42 C 155.61 137.32 147.83 137.29 140.04 137.44 C 141.64 152.18 143.05 166.94 145.05 181.63 C 132.80 181.62 120.56 181.61 108.31 181.64 L 108.31 181.52 C 108.39 166.25 108.22 150.98 108.40 135.71 C 120.26 135.97 132.14 135.38 143.99 136.12 C 150.24 136.25 156.50 136.08 162.75 136.22 C 162.98 129.90 162.84 123.58 162.86 117.26 C 162.95 107.53 163.56 97.79 162.90 88.06 C 162.62 79.18 162.85 70.29 162.78 61.41 M 183.84 71.74 C 183.79 76.43 183.78 81.12 183.91 85.81 C 237.27 85.74 290.63 85.79 343.99 85.78 C 351.37 85.76 358.76 85.72 366.14 85.81 C 366.17 81.12 366.16 76.42 366.17 71.73 C 358.77 71.74 351.36 71.72 343.96 71.74 C 290.59 71.75 237.21 71.74 183.84 71.74 M 219.90 96.23 C 219.87 100.52 219.86 104.82 219.88 109.11 C 224.15 109.14 228.42 109.15 232.70 109.05 C 232.70 104.77 232.71 100.50 232.72 96.22 C 228.45 96.23 224.17 96.23 219.90 96.23 M 252.35 96.17 C 252.40 100.45 252.40 104.73 252.40 109.01 C 256.68 109.16 260.95 109.15 265.23 109.11 C 265.26 104.79 265.26 100.48 265.23 96.16 C 260.94 96.26 256.64 96.26 252.35 96.17 M 284.51 108.53 C 288.81 109.01 293.15 108.69 297.47 108.92 C 297.51 104.75 297.49 100.57 297.64 96.41 C 293.36 96.23 289.08 96.27 284.80 96.17 C 284.72 100.29 284.90 104.42 284.51 108.53 M 317.28 96.23 C 317.29 100.49 317.30 104.75 317.29 109.01 C 321.57 109.19 325.86 109.20 330.14 108.95 C 330.15 104.70 330.15 100.44 330.01 96.19 C 325.76 96.24 321.52 96.24 317.28 96.23 M 215.52 113.38 C 222.56 113.88 229.64 113.41 236.70 113.67 C 236.70 113.38 236.69 112.82 236.69 112.54 C 230.79 112.67 224.89 112.59 218.98 112.57 C 217.76 112.49 216.57 112.74 215.52 113.38 M 247.80 113.45 C 255.13 113.64 262.50 113.84 269.82 113.31 C 265.39 111.83 260.61 112.94 256.03 112.60 C 253.32 112.86 250.21 111.82 247.80 113.45 M 280.36 113.37 C 287.63 113.77 294.93 113.67 302.21 113.45 C 299.48 111.73 296.02 112.92 292.99 112.61 C 288.81 112.97 284.33 111.74 280.36 113.37 M 313.31 112.54 C 313.30 112.82 313.29 113.38 313.28 113.66 C 320.35 113.41 327.45 113.91 334.51 113.35 C 333.43 112.78 332.23 112.49 331.02 112.57 C 325.11 112.59 319.21 112.67 313.31 112.54 M 215.48 115.68 C 222.83 115.97 230.22 115.99 237.57 115.63 C 233.77 114.75 229.84 115.28 225.98 115.16 C 222.48 115.25 218.91 114.81 215.48 115.68 M 247.53 115.60 C 254.91 116.12 262.35 115.84 269.74 115.70 C 266.58 114.77 263.26 115.21 260.02 115.15 C 255.86 115.30 251.65 114.83 247.53 115.60 M 281.02 115.14 L 281.02 115.91 C 286.00 115.80 290.99 115.72 295.97 116.07 C 298.11 116.23 300.30 116.21 302.36 115.51 C 295.25 115.10 288.13 115.16 281.02 115.14 M 312.55 115.47 C 314.29 116.10 316.15 116.24 318.00 116.08 C 323.26 115.72 328.53 115.84 333.80 115.91 L 333.85 115.16 C 326.75 115.18 319.64 115.07 312.55 115.47 M 220.81 116.74 C 220.86 117.31 220.95 118.44 221.00 119.00 C 224.66 119.00 228.32 119.00 231.98 119.00 C 232.00 118.44 232.05 117.32 232.07 116.76 C 228.32 116.75 224.56 116.75 220.81 116.74 M 254.09 117.07 C 253.69 117.53 252.90 118.46 252.51 118.92 C 256.40 119.06 260.31 118.97 264.21 119.00 C 264.24 118.43 264.31 117.31 264.34 116.74 C 260.92 116.78 257.47 116.46 254.09 117.07 M 285.70 116.75 C 285.72 117.31 285.75 118.44 285.77 119.00 C 289.69 118.97 293.61 119.07 297.54 118.89 C 297.15 118.42 296.38 117.48 295.99 117.02 C 292.59 116.49 289.13 116.78 285.70 116.75 M 318.01 116.78 C 318.01 117.33 318.00 118.44 318.00 119.00 C 321.67 119.01 325.35 118.99 329.03 119.00 C 329.05 118.44 329.11 117.32 329.14 116.76 C 325.43 116.74 321.72 116.75 318.01 116.78 M 173.68 128.79 C 173.68 154.67 173.69 180.55 173.67 206.43 C 241.22 206.44 308.77 206.44 376.32 206.44 C 376.31 180.56 376.32 154.68 376.32 128.80 C 308.77 128.83 241.23 128.84 173.68 128.79 M 183.83 219.75 C 183.81 230.29 183.80 240.83 183.84 251.37 C 201.06 251.45 218.29 251.24 235.51 251.48 C 235.68 240.87 235.73 230.25 235.49 219.64 C 218.27 219.89 201.05 219.67 183.83 219.75 M 249.12 219.76 C 249.12 230.29 249.24 240.82 249.05 251.34 C 266.35 251.40 283.65 251.39 300.95 251.35 C 300.76 240.82 300.88 230.29 300.88 219.76 C 283.63 219.73 266.37 219.74 249.12 219.76 M 314.41 251.42 C 331.66 251.34 348.91 251.42 366.17 251.37 C 366.15 240.83 366.17 230.29 366.15 219.74 C 348.92 219.71 331.69 219.84 314.47 219.68 C 314.25 230.25 314.35 240.84 314.41 251.42 M 183.87 259.54 C 183.85 260.56 183.82 262.62 183.80 263.65 C 201.08 263.72 218.36 263.65 235.64 263.69 C 235.62 262.63 235.57 260.51 235.55 259.45 C 218.33 259.68 201.10 259.51 183.87 259.54 M 249.23 263.84 C 266.41 263.69 283.60 263.69 300.78 263.84 C 300.88 262.50 300.99 261.17 301.12 259.84 C 296.77 259.31 292.38 259.63 288.01 259.56 C 274.96 259.74 261.88 259.17 248.85 259.85 C 248.99 261.17 249.10 262.50 249.23 263.84 M 314.38 259.46 C 314.41 260.89 314.45 262.34 314.48 263.78 C 331.72 263.52 348.96 263.79 366.20 263.65 C 366.18 262.62 366.15 260.56 366.13 259.54 C 348.88 259.52 331.63 259.67 314.38 259.46 M 183.25 268.14 C 183.69 268.46 184.57 269.08 185.02 269.39 C 201.82 269.77 218.67 269.37 235.49 269.58 L 235.65 267.94 C 218.19 268.00 200.70 267.61 183.25 268.14 M 248.54 268.14 C 248.91 268.45 249.65 269.06 250.02 269.37 C 264.97 269.82 279.97 269.32 294.94 269.59 C 297.17 269.49 299.82 270.10 301.49 268.20 C 296.35 267.69 291.18 267.94 286.02 267.90 C 273.53 268.05 261.02 267.59 248.54 268.14 M 314.40 267.93 L 314.46 269.58 C 330.30 269.51 346.14 269.49 361.98 269.58 C 363.59 269.41 365.77 269.96 366.65 268.09 C 349.24 267.67 331.81 267.98 314.40 267.93 M 183.86 272.69 L 183.92 274.22 C 201.12 274.27 218.31 274.23 235.50 274.24 L 235.58 272.66 C 218.34 272.67 201.10 272.62 183.86 272.69 M 248.49 273.98 C 264.30 274.61 280.14 274.01 295.95 274.29 C 297.81 274.10 300.22 274.77 301.44 272.87 C 285.99 272.35 270.51 272.87 255.04 272.60 C 252.81 272.67 250.23 272.22 248.49 273.98 M 314.47 272.65 L 314.42 274.23 C 331.64 274.25 348.86 274.26 366.09 274.23 L 366.13 272.71 C 348.91 272.59 331.69 272.70 314.47 272.65 M 197.60 278.75 C 205.68 279.08 213.77 278.98 221.85 278.81 C 221.53 278.49 220.88 277.86 220.55 277.55 C 214.74 276.95 208.85 277.59 203.01 277.29 C 201.16 277.46 198.66 276.69 197.60 278.75 M 262.68 278.63 C 270.88 279.12 279.14 279.12 287.33 278.64 C 286.52 277.60 285.35 277.21 284.07 277.34 C 278.70 277.26 273.34 277.42 267.97 277.30 C 266.14 277.39 263.94 276.92 262.68 278.63 M 328.19 278.81 C 336.22 279.02 344.26 278.99 352.30 278.83 C 352.04 278.50 351.53 277.84 351.28 277.51 C 345.55 276.99 339.77 277.58 334.03 277.29 C 332.02 277.43 329.41 276.69 328.19 278.81 M 184.10 292.27 C 184.18 298.69 184.22 305.12 184.07 311.54 C 190.83 311.49 197.59 311.51 204.36 311.53 C 204.30 305.11 204.34 298.70 204.32 292.29 C 197.58 292.38 190.84 292.40 184.10 292.27 M 209.38 292.30 C 209.39 293.42 209.40 294.54 209.42 295.67 C 218.15 295.66 226.88 295.63 235.61 295.68 C 235.63 294.55 235.65 293.42 235.68 292.29 C 226.91 292.27 218.14 292.26 209.38 292.30 M 249.21 292.26 C 249.29 302.70 249.18 313.13 249.28 323.57 C 266.43 323.57 283.58 323.56 300.73 323.57 C 300.81 313.13 300.71 302.69 300.79 292.26 C 283.60 292.30 266.40 292.30 249.21 292.26 M 314.34 292.27 C 314.35 293.41 314.37 294.55 314.40 295.69 C 322.97 295.67 331.54 295.56 340.11 295.76 C 340.13 294.57 340.13 293.38 340.13 292.19 C 331.53 292.37 322.93 292.24 314.34 292.27 M 158.16 299.06 C 158.76 308.43 160.22 317.72 161.04 327.07 C 161.47 330.70 161.31 334.58 163.19 337.86 C 163.74 325.91 163.29 313.91 163.40 301.94 C 164.19 298.61 160.19 299.41 158.16 299.06 M 209.57 298.50 L 209.51 300.05 C 218.16 300.10 226.81 300.09 235.47 300.06 L 235.60 298.51 C 226.92 298.52 218.24 298.55 209.57 298.50 M 314.47 298.50 L 314.50 300.05 C 331.89 299.87 349.31 300.48 366.69 299.77 C 365.42 298.49 363.67 298.47 362.01 298.48 C 346.17 298.56 330.32 298.54 314.47 298.50 M 387.06 299.25 C 386.19 304.47 386.68 309.76 386.59 315.02 C 386.77 322.68 386.17 330.36 386.84 338.01 C 388.59 334.60 388.57 330.72 388.97 327.00 C 389.81 317.73 391.18 308.51 391.85 299.23 C 390.25 299.24 388.65 299.24 387.06 299.25 M 208.81 304.34 C 213.21 304.50 217.60 304.48 222.00 304.49 C 223.42 304.58 224.86 304.28 225.85 303.16 C 221.24 302.85 216.60 302.78 211.99 302.95 C 210.70 302.83 209.61 303.37 208.81 304.34 M 313.95 303.11 C 315.06 304.87 317.28 304.31 319.00 304.48 C 333.35 304.40 347.69 304.42 362.03 304.48 C 363.63 304.40 365.46 304.60 366.62 303.20 C 359.42 302.63 352.18 303.04 344.97 302.92 C 334.63 303.03 324.28 302.68 313.95 303.11 M 313.74 308.72 C 331.13 309.18 348.54 308.84 365.93 308.89 C 365.93 308.47 365.93 307.65 365.93 307.23 C 349.61 307.34 333.28 307.27 316.96 307.26 C 315.64 307.14 314.35 307.41 313.74 308.72 M 314.46 311.69 L 314.40 313.34 C 331.82 313.21 349.25 313.63 366.66 313.12 C 365.75 311.29 363.61 311.78 362.00 311.62 C 346.16 311.72 330.31 311.59 314.46 311.69 M 183.31 315.97 C 184.29 317.67 186.33 317.34 187.95 317.46 C 203.81 317.37 219.66 317.45 235.51 317.41 L 235.61 315.77 C 218.18 315.87 200.73 315.49 183.31 315.97 M 326.65 317.55 C 333.75 317.94 340.86 317.57 347.97 317.77 C 349.89 317.57 352.58 318.45 353.61 316.22 C 346.73 315.89 339.84 316.19 332.96 316.02 C 330.80 316.19 328.06 315.41 326.65 317.55 M 183.49 320.26 C 184.20 322.27 186.38 321.77 188.05 321.84 C 204.13 321.58 220.21 322.02 236.28 321.62 C 235.27 319.60 232.81 320.28 231.00 320.12 C 215.16 320.30 199.32 320.02 183.49 320.26 M 249.17 324.35 C 249.14 326.41 249.11 328.46 249.07 330.53 C 266.36 330.54 283.65 330.54 300.93 330.53 C 300.89 328.46 300.85 326.40 300.82 324.34 C 283.60 324.42 266.38 324.40 249.17 324.35 M 183.33 325.95 C 200.70 326.44 218.09 326.05 235.47 326.15 L 235.53 324.66 C 219.69 324.63 203.86 324.72 188.02 324.61 C 186.39 324.70 184.43 324.38 183.33 325.95 M 314.44 324.57 C 314.45 326.54 314.46 328.52 314.46 330.49 C 327.40 330.36 340.35 330.51 353.29 330.41 L 353.29 330.57 C 357.53 330.52 361.76 330.53 366.00 330.62 C 366.09 328.60 366.17 326.58 366.26 324.57 C 361.92 324.54 357.58 324.54 353.25 324.60 C 340.31 324.60 327.38 324.66 314.44 324.57 M 183.54 329.21 C 184.08 330.17 184.89 330.63 185.95 330.58 C 196.20 330.57 206.46 330.48 216.71 330.60 C 216.74 330.22 216.80 329.46 216.84 329.08 C 205.74 329.14 194.63 328.89 183.54 329.21 Z" />
<path fill="#fbfbfb" opacity="1.00" d=" M 288.95 75.34 C 306.12 75.49 323.30 75.20 340.47 75.49 C 340.43 77.70 340.39 79.91 340.36 82.12 C 323.18 82.04 305.99 82.03 288.81 82.13 C 288.84 79.86 288.90 77.60 288.95 75.34 Z" />
<path fill="#fbfbfb" opacity="1.00" d=" M 188.62 77.78 C 193.31 77.83 197.99 77.83 202.68 77.78 C 202.72 78.26 202.80 79.23 202.85 79.71 C 197.96 79.71 193.08 79.71 188.20 79.70 C 188.31 79.22 188.52 78.26 188.62 77.78 Z" />
<path fill="#fbfbfb" opacity="1.00" d=" M 207.33 77.76 C 211.97 77.84 216.61 77.84 221.26 77.78 C 221.40 78.25 221.67 79.17 221.81 79.64 C 216.91 79.73 212.01 79.71 207.12 79.69 C 207.17 79.21 207.27 78.24 207.33 77.76 Z" />
<path fill="#fbfbfb" opacity="1.00" d=" M 225.36 77.93 C 230.31 77.83 235.26 77.61 240.20 77.94 L 240.66 79.23 C 236.02 80.19 231.14 79.73 226.43 79.54 C 226.16 79.13 225.63 78.33 225.36 77.93 Z" />
<path fill="#fbfbfb" opacity="1.00" d=" M 244.30 77.84 C 249.43 77.80 254.56 77.74 259.69 77.94 C 259.38 78.33 258.77 79.12 258.46 79.51 C 254.07 79.91 249.62 79.83 245.22 79.55 C 244.99 79.12 244.53 78.27 244.30 77.84 Z" />
<path fill="#fbfbfb" opacity="1.00" d=" M 203.80 144.15 C 219.45 144.19 235.10 144.22 250.75 144.13 C 250.83 159.77 250.73 175.42 250.80 191.06 C 235.13 191.32 219.46 191.13 203.79 191.16 C 203.77 175.49 203.76 159.82 203.80 144.15 Z" />
<path fill="#fbfbfb" opacity="1.00" d=" M 255.74 154.28 C 257.10 152.75 259.19 152.95 261.03 152.89 C 289.52 153.05 318.02 152.76 346.51 153.04 C 346.25 153.40 345.72 154.14 345.45 154.51 C 342.34 154.95 339.19 154.64 336.06 154.70 C 311.39 154.71 286.71 154.67 262.04 154.72 C 259.93 154.72 257.82 154.56 255.74 154.28 Z" />
<path fill="#fbfbfb" opacity="1.00" d=" M 255.75 158.70 C 259.81 158.05 263.94 158.24 268.04 158.25 C 293.37 158.27 318.71 158.23 344.04 158.27 C 345.25 158.18 346.09 158.74 346.55 159.95 C 318.04 160.25 289.52 159.94 261.01 160.11 C 259.19 160.03 257.06 160.31 255.75 158.70 Z" />
<path fill="#fbfbfb" opacity="1.00" d=" M 183.92 167.79 C 185.62 165.91 187.38 164.08 189.20 162.31 C 189.25 165.86 189.24 169.42 189.21 172.98 C 187.44 171.25 185.68 169.52 183.92 167.79 Z" />
<path fill="#fbfbfb" opacity="1.00" d=" M 256.20 165.17 C 256.53 163.15 258.62 163.65 260.00 163.49 C 288.01 163.58 316.02 163.55 344.03 163.51 C 345.19 163.44 346.07 163.96 346.66 165.05 C 343.45 165.30 340.24 165.33 337.04 165.31 C 310.09 165.20 283.14 165.47 256.20 165.17 Z" />
<path fill="#fbfbfb" opacity="1.00" d=" M 360.80 162.32 C 362.61 164.09 364.37 165.91 366.10 167.76 C 364.33 169.50 362.57 171.24 360.79 172.96 C 360.75 169.41 360.75 165.86 360.80 162.32 Z" />
<path fill="#fbfbfb" opacity="1.00" d=" M 256.08 169.08 C 279.03 168.54 302.00 169.06 324.96 168.81 C 327.07 169.00 329.86 168.24 331.17 170.40 C 308.13 170.80 285.08 170.40 262.04 170.61 C 259.98 170.50 257.44 171.09 256.08 169.08 Z" />
<path fill="#fbfbfb" opacity="1.00" d=" M 51.07 185.99 C 55.96 184.48 60.91 183.16 65.75 181.46 C 65.76 186.60 65.75 191.74 65.70 196.88 C 59.06 196.30 52.43 195.54 45.83 194.62 C 45.39 195.22 44.51 196.43 44.07 197.04 C 43.89 194.16 43.71 191.28 43.55 188.40 C 46.05 187.58 48.56 186.77 51.07 185.99 Z" />
<path fill="#fbfbfb" opacity="1.00" d=" M 482.65 181.53 C 487.01 181.55 491.37 181.56 495.73 181.52 C 495.69 186.74 495.69 191.97 495.71 197.19 C 491.38 196.88 487.04 196.80 482.70 196.88 C 482.57 191.76 482.60 186.65 482.65 181.53 Z" />
<path fill="#fbfbfb" opacity="1.00" d=" M 108.33 204.30 C 121.31 204.43 134.30 204.40 147.29 204.33 C 149.23 219.49 150.76 234.71 152.44 249.90 C 137.74 249.93 123.05 249.81 108.35 249.98 C 108.29 234.75 108.34 219.53 108.33 204.30 Z" />
<path fill="#fbfbfb" opacity="1.00" d=" M 402.76 204.32 C 415.73 204.40 428.70 204.42 441.67 204.30 C 441.66 219.53 441.71 234.76 441.65 249.98 C 426.95 249.81 412.26 249.94 397.57 249.90 C 399.29 234.71 400.70 219.47 402.76 204.32 Z" />
<path fill="#fbfbfb" opacity="1.00" d=" M 35.93 293.82 C 35.70 293.23 36.27 290.08 37.09 291.84 C 37.53 293.92 37.22 296.08 36.84 298.16 L 36.53 298.14 C 36.19 296.72 35.99 295.27 35.93 293.82 Z" />
<path fill="#fbfbfb" opacity="1.00" d=" M 51.41 291.71 C 51.85 291.36 52.72 290.66 53.15 290.31 C 53.27 292.93 53.29 295.56 53.29 298.19 C 52.76 298.18 51.71 298.15 51.18 298.14 C 51.65 296.02 51.43 293.85 51.41 291.71 Z" />
<path fill="#fbfbfb" opacity="1.00" d=" M 67.38 298.27 C 67.43 295.50 67.18 292.60 68.43 290.02 C 68.89 292.75 69.05 295.51 69.17 298.27 C 68.72 298.27 67.82 298.27 67.38 298.27 Z" />
<path fill="#fbfbfb" opacity="1.00" d=" M 83.03 291.44 C 83.55 291.36 84.57 291.19 85.08 291.11 C 85.07 293.47 85.05 295.82 85.03 298.18 C 84.53 298.17 83.52 298.15 83.02 298.15 C 83.57 295.95 83.49 293.64 83.03 291.44 Z" />
<path fill="#fbfbfb" opacity="1.00" d=" M 99.16 291.29 C 99.57 291.20 100.38 291.03 100.78 290.94 C 100.87 293.40 100.98 295.86 101.13 298.33 C 100.66 298.31 99.72 298.28 99.25 298.26 C 99.22 295.94 99.20 293.61 99.16 291.29 Z" />
<path fill="#fbfbfb" opacity="1.00" d=" M 449.21 290.95 C 449.62 291.03 450.44 291.20 450.84 291.28 C 450.80 293.62 450.77 295.96 450.73 298.30 C 450.27 298.30 449.34 298.31 448.87 298.31 C 449.01 295.86 449.12 293.40 449.21 290.95 Z" />
<path fill="#fbfbfb" opacity="1.00" d=" M 464.92 291.10 C 465.43 291.19 466.46 291.37 466.97 291.45 C 466.51 293.65 466.43 295.95 466.97 298.15 C 466.47 298.16 465.47 298.18 464.97 298.19 C 464.94 295.82 464.93 293.46 464.92 291.10 Z" />
<path fill="#fbfbfb" opacity="1.00" d=" M 481.04 291.08 C 481.43 291.12 482.21 291.19 482.60 291.23 C 482.56 293.58 482.54 295.92 482.53 298.28 C 482.13 298.28 481.33 298.28 480.93 298.28 C 480.94 295.88 480.98 293.48 481.04 291.08 Z" />
<path fill="#fbfbfb" opacity="1.00" d=" M 496.85 290.32 C 497.28 290.66 498.15 291.36 498.58 291.70 C 498.56 293.85 498.35 296.02 498.81 298.14 C 498.29 298.15 497.24 298.18 496.72 298.19 C 496.70 295.56 496.72 292.94 496.85 290.32 Z" />
<path fill="#fbfbfb" opacity="1.00" d=" M 513.43 291.41 C 514.84 292.59 514.24 295.92 513.68 297.69 C 512.16 296.53 512.73 293.14 513.43 291.41 Z" />
<path fill="#fbfbfb" opacity="1.00" d=" M 44.21 294.25 C 45.86 294.60 45.68 296.94 45.13 298.14 C 44.78 298.15 44.09 298.17 43.75 298.19 C 43.30 296.99 42.83 294.99 44.21 294.25 Z" />
<path fill="#fbfbfb" opacity="1.00" d=" M 504.80 298.14 C 504.89 296.87 503.84 294.51 505.79 294.22 C 507.21 294.95 506.75 297.01 506.25 298.21 C 505.89 298.19 505.17 298.16 504.80 298.14 Z" />
<path fill="#fbfbfb" opacity="1.00" d=" M 271.38 304.11 C 273.79 305.48 276.19 306.88 278.57 308.31 C 276.29 309.86 273.93 311.31 271.51 312.65 C 271.39 309.81 271.36 306.96 271.38 304.11 Z" />
<path fill="#fbfbfb" opacity="1.00" d=" M 89.76 362.43 C 213.25 362.45 336.75 362.45 460.24 362.43 C 460.24 369.60 460.23 376.77 460.29 383.95 C 460.25 387.01 460.31 390.57 457.89 392.85 C 454.60 396.38 449.33 395.18 445.04 395.38 C 403.59 395.39 362.13 395.22 320.68 395.47 C 322.94 411.79 324.38 428.20 326.42 444.55 C 332.56 444.67 338.75 444.05 344.87 444.79 C 347.16 445.62 346.92 448.42 347.49 450.36 C 299.27 450.61 251.04 450.49 202.82 450.42 C 202.74 448.94 202.66 447.46 202.57 445.99 C 209.18 443.16 216.55 444.98 223.51 444.53 C 225.50 428.15 227.19 411.73 229.11 395.34 C 185.72 395.39 142.33 395.33 98.94 395.37 C 96.24 395.43 93.38 394.60 91.68 392.37 C 89.65 390.09 89.77 386.86 89.71 384.01 C 89.77 376.82 89.76 369.62 89.76 362.43 Z" />
</g>
<g id="#474f59ff">
<path fill="#474f59" opacity="1.00" d=" M 363.85 51.75 C 367.91 51.75 371.98 51.75 376.05 51.75 C 376.13 53.33 376.21 54.91 376.30 56.49 C 372.20 56.63 368.09 56.64 363.98 56.62 C 363.93 54.99 363.88 53.37 363.85 51.75 Z" />
<path fill="#474f59" opacity="1.00" d=" M 343.96 71.74 C 351.36 71.72 358.77 71.74 366.17 71.73 C 366.16 76.42 366.17 81.12 366.14 85.81 C 358.76 85.72 351.37 85.76 343.99 85.78 C 344.08 81.10 344.08 76.42 343.96 71.74 Z" />
<path fill="#474f59" opacity="1.00" d=" M 215.52 113.38 C 216.57 112.74 217.76 112.49 218.98 112.57 C 224.89 112.59 230.79 112.67 236.69 112.54 C 236.69 112.82 236.70 113.38 236.70 113.67 C 229.64 113.41 222.56 113.88 215.52 113.38 Z" />
<path fill="#474f59" opacity="1.00" d=" M 247.80 113.45 C 250.21 111.82 253.32 112.86 256.03 112.60 C 260.61 112.94 265.39 111.83 269.82 113.31 C 262.50 113.84 255.13 113.64 247.80 113.45 Z" />
<path fill="#474f59" opacity="1.00" d=" M 280.36 113.37 C 284.33 111.74 288.81 112.97 292.99 112.61 C 296.02 112.92 299.48 111.73 302.21 113.45 C 294.93 113.67 287.63 113.77 280.36 113.37 Z" />
<path fill="#474f59" opacity="1.00" d=" M 313.31 112.54 C 319.21 112.67 325.11 112.59 331.02 112.57 C 332.23 112.49 333.43 112.78 334.51 113.35 C 327.45 113.91 320.35 113.41 313.28 113.66 C 313.29 113.38 313.30 112.82 313.31 112.54 Z" />
<path fill="#474f59" opacity="1.00" d=" M 215.48 115.68 C 218.91 114.81 222.48 115.25 225.98 115.16 C 229.84 115.28 233.77 114.75 237.57 115.63 C 230.22 115.99 222.83 115.97 215.48 115.68 Z" />
<path fill="#474f59" opacity="1.00" d=" M 247.53 115.60 C 251.65 114.83 255.86 115.30 260.02 115.15 C 263.26 115.21 266.58 114.77 269.74 115.70 C 262.35 115.84 254.91 116.12 247.53 115.60 Z" />
<path fill="#474f59" opacity="1.00" d=" M 281.02 115.14 C 288.13 115.16 295.25 115.10 302.36 115.51 C 300.30 116.21 298.11 116.23 295.97 116.07 C 290.99 115.72 286.00 115.80 281.02 115.91 L 281.02 115.14 Z" />
<path fill="#474f59" opacity="1.00" d=" M 312.55 115.47 C 319.64 115.07 326.75 115.18 333.85 115.16 L 333.80 115.91 C 328.53 115.84 323.26 115.72 318.00 116.08 C 316.15 116.24 314.29 116.10 312.55 115.47 Z" />
<path fill="#474f59" opacity="1.00" d=" M 256.66 144.10 C 274.50 144.29 292.34 144.17 310.17 144.16 C 310.11 145.95 310.06 147.74 310.01 149.53 C 292.18 149.43 274.35 149.57 256.52 149.46 C 256.56 147.67 256.61 145.89 256.66 144.10 Z" />
<path fill="#474f59" opacity="1.00" d=" M 28.56 192.86 C 32.50 191.61 36.50 190.53 40.44 189.29 C 40.51 190.63 40.59 191.98 40.66 193.32 C 38.31 193.69 35.96 194.08 33.60 194.38 C 31.86 194.17 30.21 193.45 28.56 192.86 Z" />
<path fill="#474f59" opacity="1.00" d=" M 46.71 243.32 L 47.03 243.45 C 46.96 245.25 46.91 247.04 46.85 248.84 L 45.97 248.69 L 45.92 249.90 C 60.53 249.86 75.14 249.87 89.75 249.90 C 95.95 249.79 102.15 249.89 108.35 249.98 C 123.05 249.81 137.74 249.93 152.44 249.90 C 156.03 249.90 159.63 249.90 163.22 249.91 C 163.01 266.11 163.17 282.31 163.14 298.51 C 160.97 298.47 158.80 298.41 156.63 298.33 C 156.46 296.80 156.27 295.27 156.06 293.75 C 155.60 295.24 155.18 296.74 154.77 298.24 C 152.99 298.21 151.21 298.18 149.43 298.14 C 150.38 296.05 150.28 293.61 149.19 291.61 L 148.88 291.51 C 148.39 291.35 147.42 291.03 146.93 290.87 C 146.94 293.32 146.97 295.77 147.01 298.22 C 144.89 298.22 142.77 298.22 140.65 298.23 C 140.48 296.71 140.29 295.19 140.09 293.68 C 139.67 295.18 139.31 296.69 138.95 298.22 C 136.88 298.22 134.80 298.23 132.73 298.24 C 132.74 295.89 132.75 293.54 132.76 291.19 C 132.36 291.16 131.56 291.10 131.16 291.07 C 131.06 292.87 130.95 294.67 130.89 296.47 C 130.52 294.59 130.05 292.73 129.60 290.87 C 129.40 293.32 129.22 295.77 129.04 298.22 C 127.69 298.22 126.35 298.23 125.02 298.24 C 124.60 296.74 124.21 295.25 123.75 293.77 C 123.62 294.89 123.35 297.11 123.21 298.23 C 121.07 298.22 118.92 298.23 116.78 298.23 C 116.80 295.88 116.82 293.54 116.84 291.19 C 116.42 291.19 115.58 291.19 115.17 291.19 C 115.19 293.53 115.21 295.88 115.22 298.22 C 113.08 298.22 110.93 298.21 108.79 298.21 C 108.64 297.11 108.35 294.91 108.20 293.82 C 107.93 293.76 107.37 293.65 107.09 293.59 C 106.60 295.08 106.12 296.56 105.63 298.06 C 104.91 298.11 103.48 298.21 102.76 298.27 C 102.65 295.79 102.56 293.32 102.47 290.85 C 102.06 293.35 101.60 295.84 101.13 298.33 C 100.98 295.86 100.87 293.40 100.78 290.94 C 100.38 291.03 99.57 291.20 99.16 291.29 C 98.79 291.38 98.05 291.55 97.68 291.64 C 97.49 293.82 97.43 296.01 97.34 298.21 C 95.99 298.20 94.65 298.20 93.30 298.20 C 92.92 296.62 92.52 295.06 92.08 293.50 C 91.67 295.06 91.28 296.63 90.90 298.20 L 89.80 298.20 C 88.21 298.20 86.62 298.20 85.03 298.18 C 85.05 295.82 85.07 293.47 85.08 291.11 C 84.57 291.19 83.55 291.36 83.03 291.44 L 82.72 291.49 C 81.80 293.59 81.71 296.01 82.62 298.14 C 80.59 298.12 78.56 298.07 76.52 298.04 C 77.19 296.87 77.19 295.76 76.51 294.71 C 74.92 294.66 75.45 297.14 75.95 298.04 C 73.69 298.12 71.43 298.24 69.17 298.27 C 69.05 295.51 68.89 292.75 68.43 290.02 C 67.18 292.60 67.43 295.50 67.38 298.27 C 65.15 298.24 62.92 298.14 60.69 298.08 C 61.30 296.88 61.28 295.73 60.62 294.64 C 59.04 294.68 59.65 297.16 60.13 298.08 C 57.85 298.14 55.57 298.22 53.29 298.19 C 53.29 295.56 53.27 292.93 53.15 290.31 C 52.72 290.66 51.85 291.36 51.41 291.71 C 49.25 293.14 49.95 296.13 50.79 298.13 C 49.75 298.12 47.68 298.10 46.64 298.08 C 47.78 297.21 46.34 294.20 45.53 296.30 C 45.64 296.75 45.85 297.65 45.96 298.10 L 45.13 298.14 C 45.68 296.94 45.86 294.60 44.21 294.25 C 42.83 294.99 43.30 296.99 43.75 298.19 L 42.02 298.20 C 40.30 298.21 38.57 298.19 36.84 298.16 C 37.22 296.08 37.53 293.92 37.09 291.84 C 36.27 290.08 35.70 293.23 35.93 293.82 C 35.99 295.27 36.19 296.72 36.53 298.14 C 33.78 298.26 31.03 298.27 28.28 298.24 C 28.35 282.10 28.12 265.96 28.40 249.83 C 34.06 249.84 39.72 249.96 45.38 249.88 L 46.53 247.35 L 45.00 247.71 C 46.07 246.47 46.28 244.82 46.71 243.32 M 49.43 269.49 C 46.43 271.40 45.86 276.04 48.87 278.22 C 52.11 281.65 58.27 278.41 57.91 273.94 C 57.83 269.96 52.79 266.88 49.43 269.49 Z" />
<path fill="#474f59" opacity="1.00" d=" M 502.88 243.43 L 503.32 243.34 C 504.02 245.67 504.59 248.05 504.96 250.47 C 510.43 249.28 516.06 250.14 521.62 249.84 C 521.84 265.97 521.68 282.11 521.70 298.24 C 517.13 298.29 512.56 298.27 508.00 298.20 C 507.56 298.20 506.69 298.21 506.25 298.21 C 506.75 297.01 507.21 294.95 505.79 294.22 C 503.84 294.51 504.89 296.87 504.80 298.14 L 504.17 298.10 C 504.76 297.37 503.93 293.95 503.04 296.22 C 503.12 296.69 503.28 297.64 503.35 298.11 C 502.32 298.12 500.25 298.13 499.21 298.13 C 500.02 296.12 500.76 293.12 498.58 291.70 C 498.15 291.36 497.28 290.66 496.85 290.32 C 496.72 292.94 496.70 295.56 496.72 298.19 C 494.45 298.22 492.18 298.12 489.93 298.06 C 490.59 296.88 490.60 295.74 489.95 294.65 C 488.37 294.64 488.92 297.13 489.37 298.06 C 487.08 298.13 484.80 298.23 482.53 298.28 C 482.54 295.92 482.56 293.58 482.60 291.23 C 482.21 291.19 481.43 291.12 481.04 291.08 C 480.98 293.48 480.94 295.88 480.93 298.28 C 478.63 298.24 476.34 298.12 474.05 298.04 C 474.71 296.87 474.70 295.76 474.00 294.71 C 472.41 294.69 472.97 297.14 473.48 298.04 C 471.44 298.07 469.40 298.12 467.37 298.15 C 468.28 296.02 468.20 293.61 467.29 291.51 L 466.97 291.45 C 466.46 291.37 465.43 291.19 464.92 291.10 C 464.93 293.46 464.94 295.82 464.97 298.19 C 463.38 298.20 461.78 298.20 460.20 298.21 L 459.10 298.20 C 458.70 296.63 458.32 295.06 457.92 293.49 C 457.48 295.05 457.07 296.62 456.69 298.20 C 455.33 298.19 453.97 298.18 452.62 298.18 C 452.55 295.99 452.51 293.80 452.34 291.62 C 451.96 291.53 451.22 291.36 450.84 291.28 C 450.44 291.20 449.62 291.03 449.21 290.95 C 449.12 293.40 449.01 295.86 448.87 298.31 C 448.36 295.81 447.87 293.31 447.43 290.79 C 447.39 293.50 447.31 296.21 447.17 298.92 C 444.26 298.18 443.80 295.12 442.45 292.92 C 442.26 293.43 441.87 294.47 441.68 294.98 C 441.49 295.75 441.10 297.28 440.90 298.04 C 438.86 298.18 436.81 298.21 434.78 298.27 C 434.78 295.91 434.81 293.55 434.83 291.20 C 434.42 291.19 433.58 291.18 433.17 291.17 C 433.18 293.52 433.20 295.88 433.21 298.23 C 431.07 298.23 428.93 298.22 426.79 298.23 C 426.66 297.11 426.39 294.89 426.25 293.78 C 425.81 295.26 425.40 296.75 425.01 298.25 C 423.65 298.23 422.29 298.22 420.94 298.21 C 420.77 295.76 420.61 293.32 420.43 290.87 C 419.96 292.71 419.48 294.55 419.09 296.41 C 419.04 294.62 418.94 292.84 418.85 291.07 C 418.45 291.10 417.64 291.17 417.23 291.20 C 417.25 293.55 417.26 295.89 417.27 298.24 C 415.19 298.23 413.13 298.22 411.06 298.22 C 410.67 296.69 410.32 295.19 409.89 293.69 C 409.69 295.19 409.51 296.71 409.36 298.23 C 407.29 298.22 405.23 298.22 403.17 298.22 C 403.07 295.47 403.47 292.49 401.83 290.07 C 401.40 292.78 401.33 295.53 401.28 298.28 C 399.78 298.22 398.28 298.17 396.80 298.12 C 397.95 297.27 396.53 294.26 395.70 296.33 C 395.80 296.77 396.00 297.66 396.10 298.10 L 394.94 298.07 C 394.92 297.18 394.89 295.41 394.87 294.52 L 393.48 294.55 C 393.50 295.47 393.55 297.32 393.57 298.25 C 391.33 298.38 389.09 298.47 386.86 298.54 C 386.83 282.33 386.99 266.12 386.78 249.91 C 390.37 249.90 393.97 249.90 397.57 249.90 C 412.26 249.94 426.95 249.81 441.65 249.98 C 447.85 249.91 454.05 249.79 460.25 249.90 C 472.14 249.84 484.04 249.92 495.94 249.84 C 498.71 249.83 501.48 250.07 504.24 250.40 C 503.48 248.14 502.89 245.82 502.88 243.43 M 513.43 291.41 C 512.73 293.14 512.16 296.53 513.68 297.69 C 514.24 295.92 514.84 292.59 513.43 291.41 Z" />
<path fill="#474f59" opacity="1.00" d=" M 249.23 263.84 C 249.10 262.50 248.99 261.17 248.85 259.85 C 253.37 261.62 258.26 260.70 262.97 260.83 C 273.33 260.90 283.70 260.72 294.07 260.94 C 296.47 261.04 298.86 260.64 301.12 259.84 C 300.99 261.17 300.88 262.50 300.78 263.84 C 283.60 263.69 266.41 263.69 249.23 263.84 M 249.10 262.16 C 250.55 263.17 252.28 263.40 254.02 263.37 C 267.36 263.37 280.70 263.24 294.04 263.39 C 296.35 263.30 298.91 263.65 300.87 262.11 C 283.62 262.00 266.35 261.91 249.10 262.16 Z" />
<path fill="#474f59" opacity="1.00" d=" M 249.17 324.35 C 266.38 324.40 283.60 324.42 300.82 324.34 C 300.85 326.40 300.89 328.46 300.93 330.53 C 283.65 330.54 266.36 330.54 249.07 330.53 C 249.11 328.46 249.14 326.41 249.17 324.35 Z" />
<path fill="#474f59" opacity="1.00" d=" M 316.21 328.97 C 316.20 327.80 316.22 326.63 316.28 325.47 C 328.61 325.66 340.93 325.42 353.26 325.64 C 353.26 326.56 353.28 328.40 353.28 329.31 C 343.51 329.52 333.74 329.30 323.97 329.47 C 321.38 329.48 318.77 329.46 316.21 328.97 Z" />
</g>
<g id="#ffc96fff">
<path fill="#ffc96f" opacity="1.00" d=" M 183.84 71.74 C 237.21 71.74 290.59 71.75 343.96 71.74 C 344.08 76.42 344.08 81.10 343.99 85.78 C 290.63 85.79 237.27 85.74 183.91 85.81 C 183.78 81.12 183.79 76.43 183.84 71.74 M 288.95 75.34 C 288.90 77.60 288.84 79.86 288.81 82.13 C 305.99 82.03 323.18 82.04 340.36 82.12 C 340.39 79.91 340.43 77.70 340.47 75.49 C 323.30 75.20 306.12 75.49 288.95 75.34 M 188.62 77.78 C 188.52 78.26 188.31 79.22 188.20 79.70 C 193.08 79.71 197.96 79.71 202.85 79.71 C 202.80 79.23 202.72 78.26 202.68 77.78 C 197.99 77.83 193.31 77.83 188.62 77.78 M 207.33 77.76 C 207.27 78.24 207.17 79.21 207.12 79.69 C 212.01 79.71 216.91 79.73 221.81 79.64 C 221.67 79.17 221.40 78.25 221.26 77.78 C 216.61 77.84 211.97 77.84 207.33 77.76 M 225.36 77.93 C 225.63 78.33 226.16 79.13 226.43 79.54 C 231.14 79.73 236.02 80.19 240.66 79.23 L 240.20 77.94 C 235.26 77.61 230.31 77.83 225.36 77.93 M 244.30 77.84 C 244.53 78.27 244.99 79.12 245.22 79.55 C 249.62 79.83 254.07 79.91 258.46 79.51 C 258.77 79.12 259.38 78.33 259.69 77.94 C 254.56 77.74 249.43 77.80 244.30 77.84 Z" />
<path fill="#ffc96f" opacity="1.00" d=" M 173.68 128.79 C 241.23 128.84 308.77 128.83 376.32 128.80 C 376.32 154.68 376.31 180.56 376.32 206.44 C 308.77 206.44 241.22 206.44 173.67 206.43 C 173.69 180.55 173.68 154.67 173.68 128.79 M 203.80 144.15 C 203.76 159.82 203.77 175.49 203.79 191.16 C 219.46 191.13 235.13 191.32 250.80 191.06 C 250.73 175.42 250.83 159.77 250.75 144.13 C 235.10 144.22 219.45 144.19 203.80 144.15 M 256.66 144.10 C 256.61 145.89 256.56 147.67 256.52 149.46 C 274.35 149.57 292.18 149.43 310.01 149.53 C 310.06 147.74 310.11 145.95 310.17 144.16 C 292.34 144.17 274.50 144.29 256.66 144.10 M 255.74 154.28 C 257.82 154.56 259.93 154.72 262.04 154.72 C 286.71 154.67 311.39 154.71 336.06 154.70 C 339.19 154.64 342.34 154.95 345.45 154.51 C 345.72 154.14 346.25 153.40 346.51 153.04 C 318.02 152.76 289.52 153.05 261.03 152.89 C 259.19 152.95 257.10 152.75 255.74 154.28 M 255.75 158.70 C 257.06 160.31 259.19 160.03 261.01 160.11 C 289.52 159.94 318.04 160.25 346.55 159.95 C 346.09 158.74 345.25 158.18 344.04 158.27 C 318.71 158.23 293.37 158.27 268.04 158.25 C 263.94 158.24 259.81 158.05 255.75 158.70 M 183.92 167.79 C 185.68 169.52 187.44 171.25 189.21 172.98 C 189.24 169.42 189.25 165.86 189.20 162.31 C 187.38 164.08 185.62 165.91 183.92 167.79 M 256.20 165.17 C 283.14 165.47 310.09 165.20 337.04 165.31 C 340.24 165.33 343.45 165.30 346.66 165.05 C 346.07 163.96 345.19 163.44 344.03 163.51 C 316.02 163.55 288.01 163.58 260.00 163.49 C 258.62 163.65 256.53 163.15 256.20 165.17 M 360.80 162.32 C 360.75 165.86 360.75 169.41 360.79 172.96 C 362.57 171.24 364.33 169.50 366.10 167.76 C 364.37 165.91 362.61 164.09 360.80 162.32 M 256.08 169.08 C 257.44 171.09 259.98 170.50 262.04 170.61 C 285.08 170.40 308.13 170.80 331.17 170.40 C 329.86 168.24 327.07 169.00 324.96 168.81 C 302.00 169.06 279.03 168.54 256.08 169.08 Z" />
<path fill="#ffc96f" opacity="1.00" d=" M 479.54 180.75 C 479.77 180.97 480.23 181.40 480.46 181.62 C 481.00 181.60 482.10 181.55 482.65 181.53 C 482.60 186.65 482.57 191.76 482.70 196.88 C 482.75 199.28 482.81 201.67 482.87 204.08 C 475.33 203.64 467.77 203.61 460.24 204.18 C 454.05 204.43 447.86 204.22 441.67 204.30 C 428.70 204.42 415.73 204.40 402.76 204.32 C 402.96 202.10 403.16 199.88 403.29 197.66 C 403.48 192.28 404.08 186.94 404.95 181.64 C 417.20 181.58 429.45 181.70 441.70 181.58 C 447.88 181.44 454.05 181.54 460.23 181.48 C 466.66 181.28 473.16 181.97 479.54 180.75 Z" />
<path fill="#ffc96f" opacity="1.00" d=" M 65.75 181.46 C 67.14 181.49 68.53 181.51 69.92 181.51 C 82.73 181.07 95.51 182.59 108.31 181.64 C 120.56 181.61 132.80 181.62 145.05 181.63 C 145.92 186.93 146.49 192.27 146.72 197.64 C 146.86 199.87 147.07 202.10 147.29 204.33 C 134.30 204.40 121.31 204.43 108.33 204.30 C 102.14 204.23 95.95 204.42 89.77 204.18 C 81.73 203.83 73.69 203.97 65.66 204.02 C 65.67 201.64 65.68 199.26 65.70 196.88 C 65.75 191.74 65.76 186.60 65.75 181.46 Z" />
<path fill="#ffc96f" opacity="1.00" d=" M 183.83 219.75 C 201.05 219.67 218.27 219.89 235.49 219.64 C 235.73 230.25 235.68 240.87 235.51 251.48 C 218.29 251.24 201.06 251.45 183.84 251.37 C 183.80 240.83 183.81 230.29 183.83 219.75 Z" />
<path fill="#ffc96f" opacity="1.00" d=" M 249.12 219.76 C 266.37 219.74 283.63 219.73 300.88 219.76 C 300.88 230.29 300.76 240.82 300.95 251.35 C 283.65 251.39 266.35 251.40 249.05 251.34 C 249.24 240.82 249.12 230.29 249.12 219.76 Z" />
<path fill="#ffc96f" opacity="1.00" d=" M 353.25 324.60 C 357.58 324.54 361.92 324.54 366.26 324.57 C 366.17 326.58 366.09 328.60 366.00 330.62 C 361.76 330.53 357.53 330.52 353.29 330.57 L 353.29 330.41 L 353.28 329.31 C 353.28 328.40 353.26 326.56 353.26 325.64 L 353.25 324.60 Z" />
</g>
<g id="#ed6d47ff">
<path fill="#ed6d47" opacity="1.00" d=" M 284.93 96.88 C 289.17 96.87 293.41 96.75 297.64 96.41 C 297.49 100.57 297.51 104.75 297.47 108.92 C 293.15 108.69 288.81 109.01 284.51 108.53 C 287.81 106.06 292.24 107.47 296.04 107.12 C 296.07 104.08 296.09 101.05 296.09 98.02 C 292.39 98.02 288.69 98.03 285.00 98.05 L 284.93 96.88 Z" />
<path fill="#ed6d47" opacity="1.00" d=" M 161.22 181.87 C 161.64 182.01 162.49 182.28 162.91 182.41 C 162.41 189.68 162.55 196.98 163.03 204.25 C 157.78 204.31 152.54 204.29 147.29 204.33 C 147.07 202.10 146.86 199.87 146.72 197.64 C 151.60 197.46 156.49 197.35 161.38 197.23 C 161.67 192.11 161.64 186.98 161.22 181.87 Z" />
<path fill="#ed6d47" opacity="1.00" d=" M 387.10 182.40 C 387.50 182.25 388.32 181.94 388.72 181.79 C 388.34 186.95 388.35 192.13 388.67 197.29 C 393.54 197.38 398.42 197.47 403.29 197.66 C 403.16 199.88 402.96 202.10 402.76 204.32 C 397.49 204.29 392.23 204.31 386.97 204.25 C 387.45 196.98 387.58 189.67 387.10 182.40 Z" />
<path fill="#ed6d47" opacity="1.00" d=" M 514.26 182.14 C 517.56 183.76 520.16 186.61 521.41 190.07 C 523.48 196.98 517.13 204.60 510.05 204.38 C 505.27 204.41 500.50 204.33 495.72 204.38 C 495.71 201.98 495.71 199.59 495.71 197.19 C 500.99 196.88 507.54 197.98 511.36 193.39 C 514.34 190.45 514.34 186.03 514.26 182.14 Z" />
<path fill="#ed6d47" opacity="1.00" d=" M 184.10 292.27 C 190.84 292.40 197.58 292.38 204.32 292.29 C 204.34 298.70 204.30 305.11 204.36 311.53 C 197.59 311.51 190.83 311.49 184.07 311.54 C 184.22 305.12 184.18 298.69 184.10 292.27 M 185.95 293.98 C 185.56 299.30 185.60 304.64 186.02 309.95 C 191.38 310.28 196.75 310.21 202.11 309.97 C 202.55 304.63 202.57 299.26 202.14 293.92 C 196.75 293.69 191.34 293.69 185.95 293.98 Z" />
</g>
<g id="#222d37ff">
<path fill="#222d37" opacity="1.00" d=" M 89.76 125.95 C 89.39 121.46 93.41 117.01 97.97 117.32 C 105.77 117.27 113.56 117.37 121.36 117.29 C 135.19 117.24 149.02 117.30 162.86 117.26 C 162.84 123.58 162.98 129.90 162.75 136.22 C 156.50 136.08 150.24 136.25 143.99 136.12 C 132.14 135.38 120.26 135.97 108.40 135.71 C 108.22 150.98 108.39 166.25 108.31 181.52 C 102.29 181.08 96.15 181.46 90.21 180.79 C 89.13 170.91 90.09 160.84 89.77 150.89 C 89.78 142.57 89.75 134.26 89.76 125.95 Z" />
<path fill="#222d37" opacity="1.00" d=" M 387.04 117.29 C 400.90 117.27 414.77 117.26 428.64 117.29 C 436.44 117.37 444.25 117.27 452.06 117.32 C 456.64 117.03 460.63 121.51 460.24 126.01 C 460.25 134.30 460.22 142.60 460.23 150.89 C 460.23 161.09 460.24 171.28 460.23 181.48 C 454.05 181.54 447.88 181.44 441.70 181.58 C 441.60 166.29 441.77 151.00 441.62 135.72 C 431.73 135.85 421.84 135.65 411.96 135.81 C 403.73 136.43 395.47 136.03 387.23 136.21 C 386.98 129.91 387.27 123.59 387.04 117.29 Z" />
<path fill="#222d37" opacity="1.00" d=" M 40.43 189.10 C 41.10 188.92 42.44 188.57 43.10 188.40 C 43.12 191.39 43.17 194.39 43.24 197.39 C 39.97 196.56 36.75 195.57 33.60 194.38 C 35.96 194.08 38.31 193.69 40.66 193.32 C 40.59 191.98 40.51 190.63 40.44 189.29 L 40.43 189.10 Z" />
<path fill="#222d37" opacity="1.00" d=" M 89.77 204.18 C 95.95 204.42 102.14 204.23 108.33 204.30 C 108.34 219.53 108.29 234.75 108.35 249.98 C 102.15 249.89 95.95 249.79 89.75 249.90 C 89.79 234.66 89.76 219.42 89.77 204.18 Z" />
<path fill="#222d37" opacity="1.00" d=" M 441.67 204.30 C 447.86 204.22 454.05 204.43 460.24 204.18 C 460.24 219.42 460.21 234.66 460.25 249.90 C 454.05 249.79 447.85 249.91 441.65 249.98 C 441.71 234.76 441.66 219.53 441.67 204.30 Z" />
<path fill="#222d37" opacity="1.00" d=" M 183.87 259.54 C 201.10 259.51 218.33 259.68 235.55 259.45 C 235.57 260.51 235.62 262.63 235.64 263.69 C 218.36 263.65 201.08 263.72 183.80 263.65 C 183.82 262.62 183.85 260.56 183.87 259.54 Z" />
<path fill="#222d37" opacity="1.00" d=" M 248.85 259.85 C 261.88 259.17 274.96 259.74 288.01 259.56 C 292.38 259.63 296.77 259.31 301.12 259.84 C 298.86 260.64 296.47 261.04 294.07 260.94 C 283.70 260.72 273.33 260.90 262.97 260.83 C 258.26 260.70 253.37 261.62 248.85 259.85 Z" />
<path fill="#222d37" opacity="1.00" d=" M 314.38 259.46 C 331.63 259.67 348.88 259.52 366.13 259.54 C 366.15 260.56 366.18 262.62 366.20 263.65 C 348.96 263.79 331.72 263.52 314.48 263.78 C 314.45 262.34 314.41 260.89 314.38 259.46 Z" />
<path fill="#222d37" opacity="1.00" d=" M 249.10 262.16 C 266.35 261.91 283.62 262.00 300.87 262.11 C 298.91 263.65 296.35 263.30 294.04 263.39 C 280.70 263.24 267.36 263.37 254.02 263.37 C 252.28 263.40 250.55 263.17 249.10 262.16 Z" />
<path fill="#222d37" opacity="1.00" d=" M 50.79 298.13 C 49.95 296.13 49.25 293.14 51.41 291.71 C 51.43 293.85 51.65 296.02 51.18 298.14 L 50.79 298.13 Z" />
<path fill="#222d37" opacity="1.00" d=" M 82.72 291.49 L 83.03 291.44 C 83.49 293.64 83.57 295.95 83.02 298.15 L 82.62 298.14 C 81.71 296.01 81.80 293.59 82.72 291.49 Z" />
<path fill="#222d37" opacity="1.00" d=" M 97.68 291.64 C 98.05 291.55 98.79 291.38 99.16 291.29 C 99.20 293.61 99.22 295.94 99.25 298.26 C 99.72 298.28 100.66 298.31 101.13 298.33 C 101.60 295.84 102.06 293.35 102.47 290.85 C 102.56 293.32 102.65 295.79 102.76 298.27 C 103.48 298.21 104.91 298.11 105.63 298.06 C 106.12 296.56 106.60 295.08 107.09 293.59 C 107.37 293.65 107.93 293.76 108.20 293.82 C 106.41 296.67 108.64 299.91 108.33 302.98 C 108.33 316.61 108.33 330.25 108.31 343.88 C 219.44 343.85 330.56 343.85 441.69 343.89 C 441.70 329.92 441.61 315.94 441.71 301.97 C 441.42 299.67 443.44 296.89 442.05 294.95 L 441.68 294.98 C 441.87 294.47 442.26 293.43 442.45 292.92 C 443.80 295.12 444.26 298.18 447.17 298.92 C 447.31 296.21 447.39 293.50 447.43 290.79 C 447.87 293.31 448.36 295.81 448.87 298.31 C 449.34 298.31 450.27 298.30 450.73 298.30 C 450.77 295.96 450.80 293.62 450.84 291.28 C 451.22 291.36 451.96 291.53 452.34 291.62 C 452.51 293.80 452.55 295.99 452.62 298.18 C 453.97 298.18 455.33 298.19 456.69 298.20 C 457.30 298.20 458.50 298.20 459.10 298.20 L 460.20 298.21 C 460.27 319.61 460.20 341.02 460.24 362.43 C 336.75 362.45 213.25 362.45 89.76 362.43 C 89.80 341.02 89.72 319.61 89.80 298.20 L 90.90 298.20 C 91.50 298.20 92.70 298.20 93.30 298.20 C 94.65 298.20 95.99 298.20 97.34 298.21 C 97.43 296.01 97.49 293.82 97.68 291.64 Z" />
<path fill="#222d37" opacity="1.00" d=" M 129.04 298.22 C 129.22 295.77 129.40 293.32 129.60 290.87 C 130.05 292.73 130.52 294.59 130.89 296.47 C 130.91 296.91 130.94 297.77 130.95 298.21 C 130.47 298.21 129.52 298.22 129.04 298.22 Z" />
<path fill="#222d37" opacity="1.00" d=" M 148.88 291.51 L 149.19 291.61 C 150.28 293.61 150.38 296.05 149.43 298.14 L 149.01 298.14 C 148.38 295.97 148.69 293.71 148.88 291.51 Z" />
<path fill="#222d37" opacity="1.00" d=" M 420.43 290.87 C 420.61 293.32 420.77 295.76 420.94 298.21 C 420.41 298.21 419.34 298.20 418.81 298.19 C 418.88 297.75 419.02 296.85 419.09 296.41 C 419.48 294.55 419.96 292.71 420.43 290.87 Z" />
<path fill="#222d37" opacity="1.00" d=" M 466.97 291.45 L 467.29 291.51 C 468.20 293.61 468.28 296.02 467.37 298.15 L 466.97 298.15 C 466.43 295.95 466.51 293.65 466.97 291.45 Z" />
<path fill="#222d37" opacity="1.00" d=" M 498.58 291.70 C 500.76 293.12 500.02 296.12 499.21 298.13 L 498.81 298.14 C 498.35 296.02 498.56 293.85 498.58 291.70 Z" />
<path fill="#222d37" opacity="1.00" d=" M 45.53 296.30 C 46.34 294.20 47.78 297.21 46.64 298.08 L 45.96 298.10 C 45.85 297.65 45.64 296.75 45.53 296.30 Z" />
<path fill="#222d37" opacity="1.00" d=" M 395.70 296.33 C 396.53 294.26 397.95 297.27 396.80 298.12 L 396.10 298.10 C 396.00 297.66 395.80 296.77 395.70 296.33 Z" />
<path fill="#222d37" opacity="1.00" d=" M 503.04 296.22 C 503.93 293.95 504.76 297.37 504.17 298.10 L 503.35 298.11 C 503.28 297.64 503.12 296.69 503.04 296.22 Z" />
<path fill="#222d37" opacity="1.00" d=" M 314.44 324.57 C 327.38 324.66 340.31 324.60 353.25 324.60 L 353.26 325.64 C 340.93 325.42 328.61 325.66 316.28 325.47 C 316.22 326.63 316.20 327.80 316.21 328.97 C 318.77 329.46 321.38 329.48 323.97 329.47 C 333.74 329.30 343.51 329.52 353.28 329.31 L 353.29 330.41 C 340.35 330.51 327.40 330.36 314.46 330.49 C 314.46 328.52 314.45 326.54 314.44 324.57 Z" />
</g>
</svg>
