<?xml version="1.0" encoding="UTF-8" ?>
<!DOCTYPE svg PUBLIC "-//W3C//DTD SVG 1.1//EN" "http://www.w3.org/Graphics/SVG/1.1/DTD/svg11.dtd">
<svg width="2109pt" height="434pt" viewBox="0 0 2109 434" version="1.1" xmlns="http://www.w3.org/2000/svg">
<g id="#eae5dfff">
<path fill="#eae5df" opacity="1.00" d=" M 1674.40 119.97 C 1685.42 130.58 1693.40 143.75 1701.46 156.62 C 1706.33 164.37 1711.25 172.10 1716.10 179.87 C 1715.57 182.31 1715.07 184.75 1714.59 187.20 C 1709.77 180.05 1705.13 172.78 1700.39 165.58 C 1690.44 151.14 1683.06 135.18 1674.40 119.97 Z" />
<path fill="#eae5df" opacity="1.00" d=" M 180.52 149.43 C 183.04 147.18 186.63 147.90 189.61 148.64 C 190.05 149.66 189.68 150.16 188.50 150.16 C 185.83 150.65 183.12 150.01 180.52 149.43 Z" />
<path fill="#eae5df" opacity="1.00" d=" M 1918.08 165.31 C 1918.25 165.30 1918.59 165.29 1918.76 165.28 L 1919.60 164.52 C 1918.70 172.26 1915.92 180.85 1909.12 185.33 C 1912.83 179.01 1916.45 172.52 1918.08 165.31 Z" />
<path fill="#eae5df" opacity="1.00" d=" M 1086.07 258.90 C 1087.93 261.74 1089.60 264.71 1091.47 267.56 C 1091.21 267.88 1090.69 268.52 1090.43 268.84 C 1088.57 265.72 1087.21 262.33 1086.07 258.90 Z" />
</g>
<g id="#000000ff">
<path fill="#000000" opacity="1.00" d=" M 1149.36 27.80 C 1152.44 27.86 1153.77 30.63 1154.88 33.06 C 1151.65 56.30 1148.57 79.57 1145.43 102.82 C 1142.59 126.54 1139.67 150.25 1136.91 173.98 C 1135.65 194.31 1134.57 214.65 1133.48 234.99 C 1133.26 239.12 1136.39 242.37 1139.54 244.57 C 1144.60 248.11 1151.17 250.03 1154.52 255.59 C 1156.11 258.15 1154.91 261.15 1154.61 263.88 C 1146.72 260.84 1138.58 258.01 1131.56 253.21 C 1125.26 249.09 1125.03 240.72 1124.56 233.99 C 1123.96 227.66 1125.54 221.05 1123.64 214.91 C 1119.05 224.07 1119.96 234.84 1122.36 244.48 C 1123.39 247.54 1123.79 251.30 1126.68 253.27 C 1135.08 259.75 1144.71 264.34 1153.91 269.54 C 1152.74 270.85 1151.59 272.17 1150.43 273.49 C 1139.64 269.83 1128.61 266.22 1119.01 259.92 C 1111.31 254.76 1109.05 244.68 1110.22 235.97 C 1111.79 221.68 1112.10 207.32 1112.39 192.96 C 1106.71 207.59 1107.76 223.56 1107.75 238.94 C 1108.06 242.98 1107.31 247.25 1109.04 251.06 C 1112.30 259.30 1116.82 267.90 1125.20 271.90 C 1121.88 271.66 1118.39 271.29 1115.49 273.26 C 1121.60 280.57 1131.96 277.22 1140.14 278.75 C 1136.37 282.40 1131.07 283.43 1126.02 283.68 C 1118.40 283.03 1111.26 280.04 1104.06 277.69 C 1100.36 276.59 1098.34 273.00 1095.50 270.67 C 1094.98 271.24 1093.95 272.37 1093.43 272.93 C 1095.10 274.82 1096.80 276.71 1098.25 278.79 C 1096.28 279.63 1093.79 280.81 1091.90 279.17 C 1085.10 274.10 1081.73 265.92 1079.20 258.10 C 1075.05 242.84 1074.77 226.78 1076.70 211.14 C 1078.93 187.97 1084.60 165.22 1086.06 141.96 C 1087.99 140.44 1090.07 139.11 1092.44 138.37 C 1094.25 146.41 1089.64 154.32 1091.40 162.40 C 1094.05 156.93 1094.61 150.78 1095.60 144.87 C 1096.58 137.50 1097.66 130.15 1099.30 122.90 C 1100.31 121.20 1097.73 117.99 1096.33 120.26 C 1094.15 122.96 1094.64 126.74 1094.34 129.98 C 1094.10 131.62 1094.80 134.03 1092.82 134.79 C 1091.47 134.95 1090.12 135.03 1088.79 135.03 C 1089.36 134.45 1090.50 133.29 1091.08 132.71 C 1090.12 129.53 1087.99 126.53 1088.62 123.07 C 1090.79 93.85 1100.70 65.75 1102.20 36.46 C 1108.78 35.96 1115.38 36.84 1121.97 36.13 C 1120.07 50.16 1118.30 64.21 1116.35 78.23 C 1115.07 78.49 1113.81 78.75 1112.56 79.02 C 1113.19 81.53 1114.72 83.66 1115.57 86.08 C 1113.62 92.52 1115.72 99.32 1115.74 105.91 C 1120.74 93.22 1121.83 79.45 1123.14 66.00 C 1124.16 56.12 1125.00 46.22 1126.11 36.35 C 1127.09 35.66 1128.07 34.96 1129.08 34.27 C 1130.50 36.84 1129.42 39.71 1129.18 42.42 C 1122.89 90.65 1116.61 138.89 1110.34 187.12 C 1109.81 189.09 1111.61 190.50 1112.50 192.05 C 1113.38 190.47 1114.68 189.00 1114.81 187.12 C 1117.76 164.09 1120.84 141.07 1123.75 118.04 C 1127.60 88.31 1130.30 58.33 1137.47 29.15 C 1139.29 31.07 1141.76 32.56 1142.95 35.00 C 1139.68 68.99 1135.60 102.92 1132.36 136.91 C 1131.85 138.50 1134.14 137.02 1133.65 136.16 C 1139.09 100.07 1144.33 63.95 1149.36 27.80 M 1099.49 102.44 C 1101.07 99.49 1101.18 96.05 1101.69 92.80 C 1099.94 95.68 1098.29 99.00 1099.49 102.44 M 1098.21 175.44 C 1097.03 184.31 1096.44 193.24 1095.53 202.15 C 1094.07 215.06 1094.09 228.07 1093.43 241.03 C 1099.57 247.71 1097.38 259.09 1105.80 264.13 C 1103.91 257.00 1102.90 249.22 1097.84 243.49 C 1095.63 233.49 1095.92 223.15 1096.07 212.97 C 1097.66 202.02 1098.58 190.97 1099.83 179.98 C 1100.35 178.21 1098.97 176.85 1098.21 175.44 M 1088.78 188.21 C 1089.54 185.56 1089.55 182.78 1088.65 180.17 C 1085.91 182.07 1085.87 186.44 1088.78 188.21 M 1085.70 226.07 C 1086.33 221.06 1086.00 215.98 1085.55 210.96 C 1085.52 215.97 1083.21 221.33 1085.70 226.07 M 1086.07 258.90 C 1087.21 262.33 1088.57 265.72 1090.43 268.84 C 1090.69 268.52 1091.21 267.88 1091.47 267.56 C 1089.60 264.71 1087.93 261.74 1086.07 258.90 M 1110.10 268.60 C 1112.39 268.92 1114.71 269.22 1117.02 269.48 C 1115.68 267.90 1114.36 266.22 1112.54 265.19 C 1111.31 265.97 1110.84 267.43 1110.10 268.60 Z" />
<path fill="#000000" opacity="1.00" d=" M 1997.31 33.21 C 1997.62 33.17 1998.23 33.09 1998.54 33.06 C 2000.02 37.18 1999.73 41.62 1999.67 45.93 C 1997.73 48.56 1996.61 51.65 1995.93 54.82 C 1996.71 54.85 1998.27 54.93 1999.04 54.96 C 1999.82 53.14 2000.63 51.32 2001.58 49.56 C 2001.27 62.45 1996.22 74.51 1993.56 86.98 C 1991.95 94.22 1991.26 101.88 1993.17 109.13 C 1994.90 103.40 1997.94 98.16 1999.52 92.37 C 2002.37 80.51 2004.39 68.45 2007.49 56.66 C 2007.62 74.56 2002.88 91.98 2000.30 109.58 C 2002.21 110.06 2004.17 110.33 2006.18 110.46 C 2009.42 102.02 2010.93 93.06 2012.33 84.16 C 2014.11 71.30 2015.91 58.44 2017.64 45.57 C 2018.88 44.99 2020.15 44.42 2021.44 43.86 C 2022.21 47.29 2021.25 52.14 2024.92 54.09 C 2027.44 50.52 2026.24 45.96 2026.75 41.91 C 2026.98 40.32 2028.43 39.53 2029.72 38.85 C 2031.74 41.89 2030.66 45.57 2030.67 48.95 C 2030.32 59.01 2029.45 69.04 2029.34 79.10 C 2031.61 79.00 2031.36 76.53 2031.85 75.01 C 2033.91 63.79 2033.83 52.17 2037.24 41.20 C 2038.34 37.94 2039.36 34.37 2042.15 32.08 C 2041.56 41.45 2039.91 50.71 2038.87 60.03 C 2036.99 74.78 2035.11 89.54 2033.21 104.29 C 2038.87 108.50 2046.19 108.78 2052.96 108.22 C 2058.99 107.84 2066.69 108.83 2069.43 115.11 C 2067.47 119.13 2062.90 121.53 2061.55 125.99 C 2061.25 128.48 2064.13 129.60 2065.75 130.91 C 2065.62 131.76 2065.36 133.47 2065.23 134.32 C 2057.82 133.00 2050.42 131.63 2043.01 130.42 C 2038.92 129.71 2034.68 130.96 2032.07 134.26 C 2038.13 137.56 2045.16 138.36 2051.95 138.77 C 2055.90 139.07 2059.91 140.33 2062.78 143.21 C 2055.75 143.67 2048.78 140.75 2041.83 142.32 C 2046.31 144.51 2051.25 145.39 2056.13 146.23 C 2058.67 146.69 2061.85 147.89 2062.16 150.89 C 2061.91 153.24 2060.89 155.40 2060.09 157.59 C 2051.27 156.97 2042.65 154.88 2033.92 153.65 C 2031.14 153.27 2028.38 153.91 2025.71 154.47 C 2021.98 175.98 2016.60 197.21 2014.16 218.92 C 2011.65 237.56 2009.37 256.22 2006.73 274.84 C 2003.42 275.30 1999.45 274.56 1998.37 270.93 C 1998.19 267.27 1999.65 263.72 2000.07 260.09 C 2002.88 245.84 2002.56 231.29 2003.33 216.85 C 1998.76 226.92 1997.59 238.12 1996.37 248.99 C 1996.45 260.40 1993.83 272.33 1986.06 281.06 C 1984.26 279.07 1982.48 277.09 1980.70 275.11 C 1984.18 251.77 1986.89 228.31 1991.13 205.09 C 1993.88 188.71 1996.87 172.35 1999.49 155.95 C 1999.89 153.41 1996.62 154.31 1995.16 154.08 C 1991.18 165.71 1990.40 178.07 1988.66 190.15 C 1987.34 200.76 1985.34 211.28 1984.24 221.92 C 1983.40 226.59 1982.25 231.20 1981.53 235.89 C 1980.62 242.14 1977.47 247.74 1976.26 253.91 C 1974.64 261.53 1975.67 269.38 1974.82 277.07 C 1974.75 278.63 1973.84 279.95 1973.25 281.33 C 1969.39 277.50 1968.41 271.72 1969.25 266.53 C 1974.74 232.72 1980.20 198.90 1985.68 165.08 C 1986.08 162.18 1986.90 159.29 1986.67 156.35 C 1984.32 156.09 1982.15 158.90 1981.75 161.07 C 1974.83 203.53 1967.81 245.97 1960.99 288.44 C 1960.27 288.38 1958.83 288.24 1958.12 288.17 C 1957.11 286.76 1956.11 285.36 1955.15 283.96 C 1953.71 285.31 1951.73 290.39 1949.75 287.03 C 1949.18 283.70 1953.12 282.63 1955.21 280.98 C 1953.52 278.59 1951.78 276.25 1950.05 273.92 C 1955.07 235.32 1960.47 196.77 1965.48 158.18 C 1956.49 155.42 1947.28 162.79 1938.59 158.42 C 1939.13 155.94 1939.12 153.00 1941.16 151.15 C 1943.66 148.89 1946.66 147.29 1949.55 145.56 C 1953.84 142.60 1959.49 145.35 1964.07 143.12 C 1966.22 141.85 1967.63 139.58 1967.55 137.04 C 1961.75 136.07 1955.57 136.58 1950.06 134.45 C 1952.19 131.98 1955.11 130.37 1957.30 127.96 C 1957.16 127.15 1956.87 125.54 1956.73 124.73 C 1961.10 123.90 1964.84 121.44 1968.82 119.59 C 1965.46 119.08 1962.13 118.48 1958.84 117.75 C 1963.81 116.32 1968.79 114.12 1972.27 110.15 C 1974.67 107.38 1975.68 103.66 1975.71 100.05 C 1975.77 86.19 1978.63 72.54 1981.55 59.05 C 1982.27 57.12 1981.99 53.88 1984.80 53.87 C 1984.64 66.43 1981.49 78.69 1980.20 91.15 C 1979.43 97.87 1978.40 104.56 1977.88 111.31 C 1982.85 104.66 1983.92 96.10 1985.49 88.17 C 1987.18 75.74 1989.49 63.42 1991.51 51.05 C 1992.03 44.81 1992.48 37.82 1997.31 33.21 M 2023.63 80.05 C 2022.77 84.76 2020.61 89.08 2019.13 93.60 C 2021.62 97.42 2019.25 101.87 2019.71 106.06 C 2021.63 101.70 2022.36 96.88 2024.68 92.70 C 2026.77 97.06 2024.30 101.77 2025.48 106.28 C 2027.05 99.08 2027.87 91.73 2028.98 84.45 C 2027.63 86.52 2026.38 88.65 2024.91 90.61 C 2024.99 86.71 2025.32 82.82 2025.54 78.92 C 2025.85 72.59 2027.41 66.29 2026.56 59.93 C 2025.72 66.65 2024.89 73.39 2023.63 80.05 M 1959.05 129.16 C 1962.13 129.16 1965.80 130.45 1968.50 128.42 C 1969.65 127.80 1968.16 125.70 1967.09 126.12 C 1964.36 126.80 1960.75 126.56 1959.05 129.16 M 1998.14 133.97 C 1997.81 135.36 1997.54 136.75 1997.26 138.14 C 1998.93 137.17 2000.61 136.19 2002.29 135.17 C 2000.89 134.76 1999.50 134.37 1998.14 133.97 M 1953.69 150.62 C 1957.19 150.36 1962.81 151.95 1964.15 147.43 C 1960.52 147.99 1957.03 149.14 1953.69 150.62 M 2013.22 165.84 C 2010.87 174.74 2011.58 184.03 2010.48 193.10 C 2012.05 187.56 2013.54 181.99 2015.32 176.50 C 2017.54 169.44 2017.86 161.87 2016.48 154.62 C 2015.09 158.26 2014.08 162.04 2013.22 165.84 Z" />
<path fill="#000000" opacity="1.00" d=" M 146.86 35.85 C 166.43 31.84 187.35 33.00 205.66 41.36 C 207.90 42.29 209.90 44.05 212.41 44.19 C 212.78 42.25 210.65 40.95 209.85 39.33 C 220.20 43.45 229.84 49.43 237.86 57.18 C 243.54 62.70 247.49 70.04 248.38 77.97 C 246.55 78.67 244.73 79.49 243.73 81.28 C 234.44 79.69 230.86 69.95 225.68 63.35 C 219.16 54.08 208.87 48.63 198.72 44.23 C 190.63 40.64 181.80 38.53 172.92 38.72 C 171.64 38.70 170.36 38.89 169.23 39.50 C 177.83 39.57 186.12 42.69 193.90 46.13 C 212.50 55.06 229.61 69.92 236.00 90.12 C 234.10 89.95 231.98 89.99 230.52 88.56 C 227.14 85.39 226.06 80.50 222.66 77.34 C 210.25 65.53 195.47 55.81 178.83 51.24 C 176.47 50.92 174.97 49.07 173.49 47.42 C 172.21 48.74 170.93 50.06 169.67 51.41 C 183.53 56.69 196.77 63.61 208.95 72.09 C 216.42 77.52 221.53 85.63 224.80 94.15 C 218.13 93.08 214.90 84.73 207.67 85.80 C 208.28 87.41 208.90 89.02 209.51 90.64 C 204.46 87.03 200.08 82.62 195.73 78.23 C 192.38 75.03 188.74 71.71 184.08 70.67 C 180.52 69.86 177.34 67.41 173.56 67.83 C 184.76 77.81 199.61 85.29 205.26 100.10 C 202.87 100.12 200.27 100.35 198.19 98.93 C 191.65 94.94 187.65 87.94 181.11 83.92 C 166.93 76.12 151.49 69.30 135.02 69.16 C 123.99 68.78 112.27 71.34 103.98 79.02 C 91.01 98.04 84.59 121.14 84.49 144.09 C 85.88 139.03 86.72 133.84 88.33 128.85 C 86.19 148.96 89.26 169.75 97.85 188.12 C 106.54 207.49 122.69 222.63 141.05 232.82 C 154.76 239.58 171.12 239.98 185.57 235.40 C 188.51 217.10 190.75 198.71 192.97 180.31 C 192.21 179.57 191.45 178.82 190.70 178.08 C 174.12 178.03 157.55 178.06 140.97 178.08 C 139.23 178.11 137.51 177.80 135.84 177.37 C 144.16 174.73 152.96 176.30 161.50 175.37 C 163.58 175.07 165.31 173.77 167.02 172.65 C 156.82 169.25 145.97 173.43 135.71 170.87 C 136.46 169.17 137.26 167.50 138.05 165.82 C 154.66 163.40 171.48 167.07 188.09 164.63 C 192.44 164.10 196.50 162.35 200.31 160.25 C 194.94 159.88 189.64 158.75 184.79 156.37 C 184.33 156.92 183.43 158.03 182.97 158.59 C 181.13 157.83 179.30 157.04 177.48 156.25 C 177.15 156.87 176.49 158.13 176.16 158.75 C 165.85 157.41 155.31 159.37 145.15 156.93 C 146.03 151.83 151.62 150.65 155.98 150.69 C 159.60 150.81 163.26 151.11 166.82 150.26 C 165.30 147.68 162.62 146.33 159.94 145.29 C 175.95 144.86 192.09 143.92 207.96 146.69 C 213.83 141.85 222.56 146.01 228.09 140.58 C 203.79 139.00 179.47 137.84 155.17 136.45 C 156.20 135.40 157.22 134.34 158.26 133.29 C 172.14 132.56 186.04 132.11 199.93 131.34 C 218.39 129.13 236.84 126.83 255.30 124.56 C 255.70 125.77 256.08 127.00 256.43 128.24 C 254.87 129.65 252.92 130.77 252.17 132.86 C 255.08 135.32 256.51 139.21 255.49 142.95 C 253.61 150.34 251.12 157.55 248.75 164.79 C 240.36 192.95 239.95 222.56 237.22 251.59 C 237.00 253.58 234.46 253.79 233.09 254.71 C 232.36 250.85 231.58 247.00 230.83 243.14 C 230.04 239.10 230.27 234.89 228.92 230.97 C 228.16 228.47 226.62 226.33 225.47 224.02 C 225.17 213.99 226.18 203.94 225.61 193.91 C 223.14 205.30 221.47 216.95 222.19 228.63 C 222.78 237.50 222.84 246.54 225.31 255.15 C 221.91 257.54 219.45 260.96 217.98 264.84 C 213.33 261.62 214.81 255.17 212.13 250.82 C 211.21 249.24 209.28 249.36 207.72 249.15 C 206.53 255.04 205.83 261.01 205.26 266.98 C 202.28 266.03 199.28 263.73 196.05 264.82 C 192.80 266.06 194.80 269.90 194.77 272.35 C 190.51 270.18 192.53 263.31 188.11 261.29 C 184.30 262.73 180.75 264.76 177.02 266.37 C 178.31 267.25 179.61 268.14 180.90 269.03 C 175.48 272.97 168.64 273.49 162.58 275.89 C 166.40 276.45 170.28 276.48 174.11 277.03 C 143.34 287.27 107.94 281.12 81.70 262.32 C 73.23 256.26 65.10 249.52 58.84 241.13 C 51.22 231.07 46.11 219.32 42.74 207.21 C 37.47 188.30 35.27 168.64 35.17 149.04 C 35.13 145.59 35.97 142.21 36.71 138.86 C 39.65 125.90 44.42 113.38 50.61 101.62 C 51.84 99.29 54.02 97.71 55.68 95.71 C 60.62 89.95 64.57 83.34 70.10 78.08 C 78.01 70.55 85.96 62.90 95.48 57.40 C 111.51 47.98 128.51 39.56 146.86 35.85 M 117.88 51.05 C 125.76 49.02 134.32 46.71 139.79 40.22 C 131.79 41.89 123.37 44.65 117.88 51.05 M 90.26 68.30 C 87.86 70.80 84.62 72.63 83.03 75.81 C 92.30 69.71 101.03 62.79 109.95 56.19 C 101.98 57.30 95.81 62.93 90.26 68.30 M 83.81 85.19 C 80.46 87.65 77.39 90.54 75.09 94.02 C 66.69 106.48 65.54 121.86 61.86 136.03 C 55.11 160.34 57.68 187.26 69.58 209.57 C 75.41 220.47 82.25 231.25 92.06 239.00 C 103.67 247.45 115.73 255.50 128.96 261.21 C 140.57 265.70 154.38 265.36 165.09 258.64 C 158.05 257.98 151.00 259.13 143.96 258.96 C 125.83 257.36 108.99 248.56 95.44 236.71 C 85.07 227.54 76.13 215.96 72.47 202.43 C 70.71 198.98 68.72 195.63 67.42 191.97 C 59.54 169.55 59.67 144.62 66.83 122.03 C 70.35 108.88 76.21 96.46 83.81 85.19 M 76.38 150.00 C 79.69 134.71 82.54 119.30 85.58 103.95 C 79.07 118.40 76.79 134.28 76.38 150.00 M 180.52 149.43 C 183.12 150.01 185.83 150.65 188.50 150.16 C 189.68 150.16 190.05 149.66 189.61 148.64 C 186.63 147.90 183.04 147.18 180.52 149.43 M 213.00 177.31 C 207.39 192.27 208.35 208.50 207.84 224.19 C 209.02 223.13 209.49 221.67 209.60 220.15 C 211.48 205.70 213.51 191.27 215.40 176.82 C 214.80 176.94 213.60 177.19 213.00 177.31 M 205.47 178.08 C 203.07 188.38 199.13 198.41 198.59 209.07 C 198.31 215.48 198.03 222.05 199.89 228.27 C 200.77 226.92 201.96 225.66 202.03 223.95 C 204.41 208.65 206.79 193.34 209.18 178.03 C 207.94 178.04 206.70 178.06 205.47 178.08 M 82.39 194.10 C 82.83 198.64 86.72 201.49 88.66 205.36 C 92.02 211.27 95.54 218.31 102.80 220.00 C 92.14 208.14 85.96 193.25 80.44 178.50 C 78.17 183.68 81.41 189.00 82.39 194.10 M 44.35 185.78 C 43.80 202.42 51.61 218.27 61.82 230.99 C 53.73 216.98 45.79 202.20 44.35 185.78 M 107.79 225.03 C 109.68 227.39 111.92 229.47 114.33 231.30 C 113.18 228.38 110.27 226.71 107.79 225.03 M 208.64 236.14 C 209.35 233.91 209.70 231.58 209.52 229.24 C 205.57 228.93 203.92 236.31 208.64 236.14 M 67.83 232.89 C 74.93 245.37 86.91 254.68 100.10 260.01 C 88.48 252.03 78.75 241.74 67.83 232.89 M 198.31 240.57 C 198.89 240.59 200.04 240.62 200.62 240.63 C 200.73 238.96 200.83 237.28 200.82 235.62 C 199.69 237.11 199.00 238.85 198.31 240.57 M 126.83 275.44 C 136.85 277.07 147.28 278.66 157.31 276.28 C 147.24 274.68 136.98 275.72 126.83 275.44 Z" />
<path fill="#000000" opacity="1.00" d=" M 2011.18 33.41 C 2012.68 34.45 2014.40 35.87 2013.91 37.98 C 2013.05 42.11 2011.06 45.94 2009.07 49.63 C 2007.42 44.17 2008.88 38.44 2011.18 33.41 Z" />
<path fill="#000000" opacity="1.00" d=" M 1571.48 38.67 C 1573.80 38.68 1575.28 37.06 1576.01 34.99 C 1584.39 35.29 1588.64 43.85 1596.03 46.55 C 1597.30 46.11 1598.59 45.66 1599.89 45.20 C 1597.80 42.71 1595.06 40.84 1593.32 38.08 C 1602.67 36.26 1612.43 42.67 1615.72 51.35 C 1617.34 55.42 1621.38 57.56 1624.40 60.46 C 1643.25 77.24 1664.38 92.51 1677.36 114.69 C 1680.47 120.92 1685.34 125.95 1689.54 131.43 C 1699.06 143.31 1708.46 155.29 1718.07 167.11 C 1719.70 163.29 1720.79 159.25 1721.39 155.14 C 1722.50 147.07 1723.58 138.99 1724.60 130.91 C 1724.99 144.40 1722.11 157.81 1722.58 171.29 C 1726.28 164.15 1728.10 156.08 1728.39 148.07 C 1729.41 136.02 1729.54 123.91 1731.16 111.91 C 1731.90 102.93 1733.96 93.93 1732.49 84.91 C 1728.17 97.13 1727.33 110.20 1726.47 123.03 C 1726.01 109.35 1727.16 95.68 1727.29 82.01 C 1727.19 70.08 1729.24 58.13 1732.91 46.80 C 1733.54 44.00 1736.41 43.29 1738.81 42.59 C 1741.89 54.91 1739.18 67.87 1742.40 80.12 C 1744.18 77.73 1745.89 75.08 1746.04 72.00 C 1746.21 65.00 1745.98 58.00 1745.92 51.00 C 1745.73 47.74 1747.21 44.79 1748.96 42.14 C 1752.25 43.85 1753.18 48.15 1756.93 49.25 C 1758.05 45.41 1758.13 40.12 1762.80 38.87 C 1764.54 47.07 1761.04 54.97 1759.47 62.89 C 1758.30 67.80 1758.32 72.88 1757.46 77.84 C 1755.91 87.34 1755.82 97.41 1750.94 105.99 C 1753.93 117.26 1749.47 128.59 1750.05 139.97 C 1750.18 141.29 1749.62 144.81 1752.13 143.37 C 1754.39 133.76 1753.15 123.38 1757.25 114.20 C 1758.65 110.83 1761.37 108.26 1764.47 106.42 C 1764.85 131.74 1761.12 156.83 1758.26 181.92 C 1756.91 193.93 1755.32 205.91 1754.15 217.93 C 1753.16 233.56 1751.77 249.17 1751.07 264.81 C 1755.14 256.87 1755.89 247.76 1755.84 238.97 C 1755.94 224.26 1758.33 209.71 1759.89 195.11 C 1764.95 149.39 1771.63 103.87 1776.61 58.14 C 1776.75 54.39 1778.16 50.53 1777.36 46.84 C 1776.44 46.72 1774.59 46.48 1773.67 46.36 C 1770.41 65.57 1768.05 84.93 1764.59 104.10 C 1764.36 102.85 1764.18 101.59 1764.04 100.33 C 1761.24 100.49 1759.13 102.48 1758.14 104.96 C 1762.59 83.23 1766.31 61.33 1770.25 39.49 C 1773.49 43.36 1778.81 41.85 1783.17 41.51 C 1783.89 45.61 1786.01 49.64 1785.28 53.88 C 1782.06 75.62 1778.86 97.37 1775.71 119.11 C 1773.07 144.09 1770.59 169.08 1767.96 194.06 C 1765.12 216.33 1762.17 238.59 1759.32 260.85 C 1758.79 264.46 1759.00 268.53 1756.51 271.49 C 1753.46 275.00 1749.73 277.94 1745.67 280.20 C 1745.73 265.73 1747.85 250.45 1742.01 236.74 C 1740.32 239.55 1740.80 242.90 1740.53 246.01 C 1739.88 257.00 1739.47 268.00 1738.67 278.98 C 1737.71 282.97 1732.47 281.66 1729.48 282.48 C 1727.21 280.44 1724.99 278.34 1722.86 276.17 C 1722.41 278.67 1721.04 281.47 1718.18 281.63 C 1716.62 281.65 1713.87 282.37 1713.72 280.08 C 1708.67 258.73 1694.21 241.55 1685.26 221.89 C 1684.07 222.78 1681.94 223.15 1682.02 225.01 C 1681.73 228.50 1684.41 231.15 1685.87 234.07 C 1688.55 239.22 1692.47 244.04 1692.91 250.05 C 1676.20 216.79 1656.76 184.70 1633.01 155.96 C 1625.17 146.45 1616.97 137.25 1608.44 128.35 C 1603.89 134.68 1604.20 142.63 1603.00 149.99 C 1597.15 193.00 1591.68 236.07 1585.59 279.05 C 1583.92 278.50 1582.33 277.78 1580.81 276.95 C 1584.90 254.11 1589.18 231.31 1593.25 208.47 C 1596.78 180.25 1600.28 152.01 1603.70 123.77 C 1599.71 129.74 1598.90 136.95 1597.51 143.82 C 1592.89 168.33 1590.87 193.22 1587.96 217.97 C 1585.60 237.27 1584.89 257.25 1576.79 275.25 C 1573.84 276.36 1573.73 272.26 1572.33 270.61 C 1570.85 273.81 1571.47 278.57 1567.29 279.74 C 1567.89 272.27 1568.78 264.81 1569.73 257.37 C 1567.55 258.12 1564.72 259.03 1563.17 256.71 C 1561.62 254.01 1561.39 250.77 1560.10 247.95 C 1556.58 251.29 1558.49 257.42 1554.01 259.92 C 1552.57 260.73 1552.55 262.48 1552.65 263.92 C 1553.10 267.68 1554.81 271.19 1555.07 274.99 C 1554.12 276.95 1551.61 276.81 1550.06 277.97 C 1548.30 279.38 1546.77 281.04 1545.16 282.59 C 1544.26 281.23 1543.66 279.69 1543.98 278.04 C 1545.46 251.81 1552.34 226.18 1553.54 199.93 C 1547.51 208.81 1550.11 219.95 1548.40 229.91 C 1544.59 243.76 1542.81 258.08 1539.80 272.13 C 1535.18 270.36 1531.73 266.77 1528.42 263.27 C 1533.86 238.89 1539.27 214.51 1544.71 190.13 C 1546.84 181.19 1547.87 172.04 1549.08 162.94 C 1551.08 146.36 1552.29 129.68 1552.54 112.98 C 1552.60 109.97 1552.34 106.90 1553.14 103.96 C 1555.75 94.75 1553.72 85.17 1553.49 75.80 C 1548.49 72.68 1543.51 69.53 1538.59 66.29 C 1535.49 64.25 1533.39 61.09 1531.81 57.79 C 1539.42 61.45 1546.47 66.16 1554.10 69.77 C 1555.16 66.50 1554.61 62.47 1551.92 60.14 C 1547.78 56.44 1541.88 54.99 1538.66 50.23 C 1544.14 51.67 1549.64 53.10 1555.32 53.55 C 1556.45 49.33 1552.07 47.20 1550.42 43.92 C 1551.30 44.05 1553.04 44.32 1553.92 44.45 C 1556.03 41.97 1556.08 37.07 1560.26 37.19 C 1562.89 40.96 1567.47 42.17 1571.56 43.63 C 1571.50 41.98 1571.51 40.32 1571.48 38.67 M 1587.99 51.16 C 1586.53 45.01 1580.26 42.39 1576.05 38.41 C 1579.92 42.74 1583.53 47.39 1587.99 51.16 M 1563.59 45.81 C 1565.39 48.71 1568.54 50.17 1571.46 51.67 C 1571.53 51.45 1571.68 51.01 1571.75 50.78 C 1569.69 48.22 1566.50 47.06 1563.59 45.81 M 1615.75 58.05 C 1620.84 64.01 1626.63 69.54 1633.78 72.99 C 1630.29 68.87 1626.89 64.66 1623.19 60.73 C 1621.38 58.50 1618.33 58.44 1615.75 58.05 M 1732.35 72.04 C 1733.44 67.74 1735.36 63.23 1733.61 58.81 C 1733.00 63.20 1732.67 67.62 1732.35 72.04 M 1596.64 76.41 C 1597.32 73.24 1597.46 69.94 1596.59 66.80 C 1595.97 69.96 1595.18 73.34 1596.64 76.41 M 1620.96 77.71 C 1621.45 82.50 1625.75 85.13 1629.35 87.59 C 1628.30 83.14 1624.93 79.74 1620.96 77.71 M 1564.29 83.86 C 1562.71 94.87 1562.33 106.04 1561.21 117.11 C 1561.01 122.17 1559.80 127.23 1560.45 132.29 C 1563.77 116.42 1566.40 100.09 1564.29 83.86 M 1575.85 87.01 C 1575.64 87.97 1575.45 88.93 1575.28 89.90 C 1575.97 89.20 1576.68 88.50 1577.41 87.80 C 1578.89 89.31 1580.39 90.83 1581.96 92.29 C 1582.57 90.59 1583.62 88.85 1583.20 86.97 C 1581.26 84.35 1578.26 86.47 1575.85 87.01 M 1645.67 85.72 C 1647.86 88.53 1650.39 91.08 1653.22 93.25 C 1651.66 89.97 1649.45 86.60 1645.67 85.72 M 1742.05 98.09 C 1742.22 94.70 1742.22 91.31 1742.07 87.93 C 1739.98 90.95 1739.63 95.14 1742.05 98.09 M 1613.70 90.75 C 1613.27 93.14 1612.87 95.54 1612.51 97.94 C 1620.14 105.79 1627.81 113.60 1635.41 121.48 C 1640.95 127.72 1646.29 134.13 1651.76 140.44 C 1652.49 141.81 1654.09 141.56 1655.42 141.81 C 1655.72 141.08 1656.31 139.64 1656.60 138.92 C 1653.91 135.02 1651.74 129.89 1646.89 128.35 C 1643.68 127.11 1641.08 124.75 1639.02 122.06 C 1635.37 117.36 1631.76 112.55 1629.15 107.19 C 1631.06 108.80 1632.79 110.73 1635.16 111.73 C 1633.78 109.25 1631.48 107.54 1629.51 105.59 C 1624.19 100.69 1619.24 95.39 1613.70 90.75 M 1635.94 93.61 C 1637.66 97.15 1640.53 99.92 1642.87 103.04 C 1645.28 105.87 1647.22 109.18 1650.20 111.49 C 1648.33 107.96 1645.47 105.11 1643.09 101.95 C 1640.74 99.15 1638.76 95.98 1635.94 93.61 M 1580.34 97.56 C 1577.14 120.32 1574.15 143.11 1571.11 165.90 C 1570.99 172.55 1571.54 179.25 1570.27 185.84 C 1568.29 196.58 1566.07 207.30 1565.16 218.20 C 1569.36 205.80 1572.10 192.94 1573.45 179.93 C 1575.44 164.24 1577.72 148.59 1579.45 132.86 C 1580.57 124.57 1581.11 116.12 1583.42 108.05 C 1585.36 109.31 1587.32 110.60 1589.51 111.46 C 1589.15 132.83 1585.48 153.97 1581.97 175.00 C 1577.93 198.93 1572.71 222.75 1571.45 247.04 C 1572.33 244.04 1572.76 240.94 1573.33 237.87 C 1576.67 218.77 1581.86 200.08 1585.58 181.06 C 1588.30 167.35 1592.00 153.81 1593.35 139.87 C 1594.19 131.63 1594.89 123.33 1594.72 115.05 C 1593.19 111.69 1590.54 108.94 1588.62 105.78 C 1586.94 105.53 1584.82 105.74 1583.86 104.03 C 1582.69 101.85 1582.32 99.21 1580.34 97.56 M 1738.82 116.23 C 1742.27 116.48 1740.52 112.60 1740.78 110.55 C 1740.02 112.40 1739.37 114.30 1738.82 116.23 M 1607.98 119.58 C 1608.05 120.10 1608.17 121.15 1608.24 121.68 C 1624.45 137.77 1637.20 156.89 1652.12 174.13 C 1649.70 167.57 1646.00 161.47 1644.69 154.53 C 1643.76 155.62 1642.84 156.71 1641.95 157.81 C 1630.56 145.13 1619.75 131.89 1607.98 119.58 M 1674.40 119.97 C 1683.06 135.18 1690.44 151.14 1700.39 165.58 C 1705.13 172.78 1709.77 180.05 1714.59 187.20 C 1715.07 184.75 1715.57 182.31 1716.10 179.87 C 1711.25 172.10 1706.33 164.37 1701.46 156.62 C 1693.40 143.75 1685.42 130.58 1674.40 119.97 M 1656.24 142.63 C 1662.09 152.68 1668.42 162.45 1674.46 172.39 C 1683.68 187.08 1692.47 202.06 1701.97 216.56 C 1702.43 214.43 1703.51 212.17 1702.61 210.02 C 1701.32 206.63 1698.86 203.88 1697.24 200.68 C 1695.95 198.23 1695.78 195.34 1694.21 193.03 C 1687.76 182.70 1681.38 172.33 1674.95 161.99 C 1671.52 156.72 1668.77 151.00 1664.88 146.03 C 1663.83 144.04 1661.40 145.33 1659.73 145.29 C 1658.69 144.22 1657.71 143.05 1656.24 142.63 M 1657.24 174.19 C 1655.56 178.41 1655.86 184.52 1661.05 186.02 C 1661.81 184.50 1663.19 182.96 1662.64 181.11 C 1662.04 178.08 1659.41 176.12 1657.24 174.19 M 1664.22 182.90 C 1663.77 184.27 1664.97 186.86 1666.63 186.55 C 1667.41 185.21 1665.85 182.22 1664.22 182.90 M 1718.68 188.61 C 1718.42 192.20 1716.45 197.55 1720.73 199.51 C 1720.76 195.81 1721.16 191.69 1718.68 188.61 M 1716.41 213.68 C 1716.90 215.69 1717.22 217.90 1718.71 219.48 C 1718.77 217.27 1718.88 214.60 1716.41 213.68 M 1708.59 231.11 C 1708.37 227.48 1708.09 223.85 1707.50 220.27 C 1702.72 222.38 1705.93 228.47 1708.59 231.11 M 1728.48 231.73 C 1727.26 235.34 1726.24 239.10 1726.40 242.95 C 1727.05 254.87 1731.51 266.46 1730.73 278.45 C 1731.18 278.47 1732.09 278.50 1732.55 278.51 C 1729.73 266.86 1731.09 254.82 1730.50 242.97 C 1730.51 239.13 1730.16 235.23 1728.48 231.73 Z" />
<path fill="#000000" opacity="1.00" d=" M 853.65 128.89 C 855.82 125.63 855.00 121.54 856.02 118.00 C 857.82 117.01 859.94 118.15 861.88 118.26 C 864.03 131.41 863.09 144.85 865.69 157.93 C 867.90 169.85 870.69 181.66 874.50 193.17 C 873.97 196.36 872.86 199.47 872.83 202.75 C 871.53 202.74 870.25 202.81 868.99 202.97 C 866.64 204.47 867.25 208.84 864.05 209.18 C 861.44 209.77 860.98 206.63 859.84 205.05 C 855.87 198.23 852.42 191.18 849.36 183.93 C 848.52 187.71 847.62 191.83 849.30 195.53 C 852.14 201.28 856.13 206.38 859.01 212.10 C 859.11 214.83 856.07 215.03 854.13 215.52 C 848.69 209.52 845.30 201.96 843.38 194.15 C 841.39 185.20 839.78 176.17 837.68 167.25 C 834.48 169.93 834.75 174.23 835.67 177.91 C 836.97 184.45 836.97 191.27 839.35 197.56 C 842.55 205.96 845.34 214.53 849.43 222.55 C 847.99 223.22 845.65 223.81 846.27 225.93 C 846.68 228.58 846.24 231.18 843.83 232.74 C 836.37 224.93 832.85 214.39 830.59 204.05 C 829.07 197.08 826.34 190.29 826.36 183.07 C 826.29 179.91 825.25 176.91 824.10 174.00 C 821.08 176.38 818.73 179.45 816.50 182.54 C 817.55 182.43 819.64 182.20 820.69 182.08 C 812.04 194.00 805.09 207.14 800.03 220.96 C 793.64 238.47 789.44 256.67 785.81 274.92 C 782.95 275.94 779.99 276.55 777.01 277.01 C 779.19 266.32 782.06 255.75 783.83 244.98 C 780.47 254.92 776.95 264.80 773.59 274.73 C 771.97 275.44 770.34 276.14 768.72 276.84 C 773.83 263.40 776.75 249.07 776.64 234.67 C 768.75 247.89 769.00 264.05 763.24 278.05 C 758.39 280.72 752.44 282.13 749.40 287.23 C 745.59 285.11 743.93 280.96 742.80 276.98 C 741.99 275.35 742.70 273.62 743.00 271.98 C 748.47 247.74 752.11 223.14 755.19 198.50 C 757.62 179.03 758.26 159.40 758.44 139.80 C 761.63 139.14 765.05 138.62 767.43 136.15 C 771.73 138.17 774.75 142.35 775.42 147.04 C 776.22 153.67 776.77 160.33 777.52 166.97 C 780.08 183.38 772.09 198.87 770.87 215.02 C 770.54 229.84 764.77 243.74 761.96 258.14 C 765.91 254.67 766.06 249.18 767.60 244.50 C 772.47 226.58 778.70 208.98 781.76 190.62 C 783.86 178.20 784.25 165.37 781.95 152.95 C 780.90 146.97 777.89 141.64 775.62 136.10 C 775.69 134.43 776.72 133.55 777.97 134.91 C 782.34 139.44 782.99 146.01 785.55 151.51 C 785.86 151.79 786.48 152.36 786.80 152.65 C 788.88 145.92 785.92 139.30 783.84 133.00 C 786.30 133.00 788.76 133.00 791.23 133.00 C 791.14 130.78 791.05 128.55 791.05 126.33 C 793.75 127.37 796.51 128.96 797.44 131.91 C 799.40 137.77 797.04 144.99 801.62 149.95 C 803.44 145.42 802.21 140.63 802.17 135.95 C 801.97 133.46 803.80 131.59 805.38 129.94 C 809.53 144.56 807.72 159.93 808.01 174.91 C 814.23 170.23 820.25 164.88 824.14 158.04 C 825.81 155.33 825.90 151.57 828.90 149.83 C 834.44 145.88 839.69 141.14 842.32 134.71 C 847.13 134.44 848.28 129.61 849.85 125.99 C 851.09 126.92 851.86 128.93 853.65 128.89 M 766.59 153.16 C 767.49 158.14 767.48 163.24 768.48 168.21 C 769.12 159.03 770.01 148.74 764.22 140.88 C 764.83 145.01 765.97 149.03 766.59 153.16 M 844.14 146.86 C 843.63 149.66 844.10 152.53 845.42 155.05 C 846.86 151.68 848.16 147.20 845.66 144.04 C 844.16 144.12 844.42 145.83 844.14 146.86 M 792.90 194.72 C 794.60 193.52 794.92 191.41 795.49 189.57 C 798.50 178.36 799.45 166.57 798.23 155.03 C 796.09 168.19 794.36 181.46 792.90 194.72 M 809.62 179.37 C 808.71 182.03 806.21 184.92 807.88 187.77 C 813.63 180.99 819.85 174.22 823.13 165.81 C 818.49 170.18 813.84 174.60 809.62 179.37 M 843.65 220.03 C 840.88 212.96 839.48 205.26 835.40 198.77 C 835.44 206.45 837.58 214.87 843.65 220.03 M 786.08 229.08 C 790.39 224.80 789.95 218.34 790.77 212.78 C 789.00 218.15 787.34 223.57 786.08 229.08 M 750.28 266.26 C 751.65 264.02 752.11 261.40 752.65 258.87 C 751.26 261.10 749.86 263.50 750.28 266.26 M 761.36 260.34 C 759.91 265.88 757.20 271.24 757.27 277.08 C 759.28 272.58 760.66 267.81 761.24 262.91 C 761.26 262.18 762.21 260.70 761.36 260.34 Z" />
<path fill="#000000" opacity="1.00" d=" M 1261.95 122.05 C 1264.81 121.22 1267.61 119.79 1270.70 120.40 C 1263.97 121.63 1257.50 124.00 1251.63 127.54 C 1243.84 132.11 1236.12 136.80 1228.32 141.36 C 1226.92 142.24 1225.25 143.04 1224.71 144.75 C 1235.35 140.56 1245.52 135.22 1255.96 130.55 C 1255.98 131.42 1256.02 133.15 1256.03 134.02 C 1256.67 134.00 1257.94 133.96 1258.58 133.94 C 1259.17 129.80 1263.17 127.78 1266.90 127.14 C 1272.54 126.10 1278.10 123.78 1283.93 124.49 C 1293.46 124.93 1302.30 128.98 1310.67 133.24 C 1314.20 135.27 1318.24 136.91 1320.61 140.41 C 1334.92 159.48 1337.83 185.36 1332.05 208.08 C 1330.21 219.01 1325.07 228.99 1319.30 238.33 C 1310.87 252.51 1298.30 264.47 1283.04 270.98 C 1273.52 275.37 1263.75 280.61 1252.96 280.33 C 1231.81 280.17 1209.60 279.70 1190.39 269.72 C 1180.22 261.77 1174.23 249.56 1171.82 237.07 C 1168.75 221.33 1167.32 204.45 1173.10 189.14 C 1178.90 173.47 1190.59 160.83 1203.18 150.22 C 1210.33 144.50 1217.83 139.02 1226.08 135.02 C 1238.30 131.43 1249.67 125.47 1261.95 122.05 M 1259.97 137.36 C 1266.56 138.50 1273.23 141.39 1279.98 139.78 C 1274.15 135.91 1266.58 135.74 1259.97 137.36 M 1287.28 136.94 C 1289.77 139.63 1293.92 140.56 1295.44 144.13 C 1296.12 144.13 1297.46 144.13 1298.14 144.13 C 1311.99 156.46 1319.94 174.10 1323.16 192.12 C 1325.37 184.13 1322.54 176.10 1320.41 168.44 C 1319.56 165.79 1319.24 162.81 1317.32 160.66 C 1313.59 156.05 1309.96 151.36 1306.24 146.74 C 1301.58 141.12 1294.73 137.01 1287.28 136.94 M 1203.79 177.75 C 1200.82 185.20 1202.31 193.33 1201.25 201.10 C 1200.57 206.55 1201.56 212.30 1204.87 216.80 C 1206.05 204.70 1201.88 192.10 1206.50 180.41 C 1211.23 167.60 1222.28 158.87 1230.19 148.14 C 1219.18 155.53 1207.92 164.61 1203.79 177.75 M 1276.92 149.04 C 1284.15 157.82 1294.20 164.40 1299.10 174.95 C 1304.39 185.41 1306.05 197.73 1303.55 209.19 C 1300.92 218.31 1296.47 226.84 1294.18 236.06 C 1296.36 232.23 1298.20 228.21 1300.21 224.28 C 1303.19 217.96 1307.14 211.94 1308.37 204.95 C 1309.81 197.71 1309.06 189.95 1305.65 183.35 C 1302.68 177.26 1299.79 171.13 1296.86 165.02 C 1292.99 157.11 1285.76 150.58 1276.92 149.04 M 1188.45 180.44 C 1183.26 191.28 1179.62 203.35 1180.41 215.46 C 1181.37 209.97 1182.37 204.48 1183.70 199.07 C 1185.53 194.26 1188.26 189.85 1190.45 185.21 C 1195.93 174.93 1199.98 163.10 1209.93 156.14 C 1212.18 153.90 1216.46 153.38 1217.07 149.82 C 1204.07 155.87 1194.78 167.88 1188.45 180.44 M 1244.96 152.19 C 1249.48 155.03 1254.90 155.07 1260.04 155.67 C 1255.16 153.96 1250.13 152.53 1244.96 152.19 M 1234.49 157.64 C 1227.12 161.53 1221.44 168.33 1218.41 176.04 C 1216.09 181.71 1216.52 187.94 1215.27 193.85 C 1213.26 210.01 1216.41 227.84 1227.83 240.09 C 1231.50 244.52 1237.19 246.12 1242.14 248.62 C 1248.23 251.77 1255.32 252.53 1262.07 251.90 C 1265.06 251.43 1268.42 250.91 1270.55 248.53 C 1274.83 244.18 1277.92 238.74 1279.75 232.94 C 1283.45 221.38 1283.41 208.94 1281.40 197.07 C 1280.85 194.39 1280.33 191.51 1278.30 189.52 C 1274.82 185.97 1275.03 180.60 1272.43 176.56 C 1265.67 165.26 1253.02 158.13 1240.04 157.01 C 1238.17 156.93 1236.14 156.58 1234.49 157.64 M 1264.96 156.81 C 1264.92 158.87 1266.90 159.66 1268.31 160.72 C 1277.96 167.31 1285.65 176.57 1290.57 187.17 C 1291.13 180.56 1287.55 174.50 1282.86 170.15 C 1277.45 165.05 1271.62 160.18 1264.96 156.81 M 1326.88 177.92 C 1326.42 180.76 1327.56 183.33 1329.49 185.36 C 1329.57 182.94 1329.57 180.51 1329.61 178.09 C 1328.93 178.04 1327.56 177.96 1326.88 177.92 M 1292.62 194.36 C 1292.59 197.51 1292.59 200.66 1292.62 203.81 C 1293.01 203.78 1293.80 203.71 1294.19 203.67 C 1294.16 200.59 1294.17 197.50 1294.18 194.42 C 1293.79 194.40 1293.01 194.37 1292.62 194.36 M 1196.58 199.02 C 1194.58 208.35 1195.17 217.96 1195.86 227.41 C 1198.08 240.09 1207.40 250.36 1218.18 256.80 C 1222.90 259.47 1227.88 262.09 1233.32 262.88 C 1227.05 259.73 1220.92 256.13 1215.89 251.16 C 1201.93 237.90 1195.33 218.04 1196.58 199.02 M 1188.30 217.73 C 1188.45 223.94 1189.27 230.16 1191.16 236.09 C 1193.15 242.96 1197.11 249.75 1203.76 252.98 C 1202.35 251.14 1200.89 249.35 1199.60 247.44 C 1193.27 238.66 1192.34 227.53 1188.30 217.73 M 1276.24 262.94 L 1276.99 264.31 C 1286.18 259.43 1295.00 253.77 1302.69 246.73 C 1309.19 241.37 1313.73 233.90 1316.06 225.85 C 1304.33 239.70 1291.60 253.08 1276.24 262.94 M 1188.30 239.02 C 1191.29 252.11 1200.40 263.78 1212.57 269.54 C 1222.22 273.58 1232.87 271.46 1243.00 271.56 C 1229.73 270.87 1216.42 267.17 1205.52 259.39 C 1198.04 254.30 1192.50 246.94 1188.30 239.02 M 1282.00 250.76 C 1284.49 248.34 1287.18 246.11 1289.59 243.59 C 1290.10 242.16 1289.75 240.56 1289.88 239.06 C 1287.19 242.92 1284.21 246.60 1282.00 250.76 Z" />
<path fill="#000000" opacity="1.00" d=" M 349.34 125.74 C 354.58 121.46 361.54 121.18 367.98 120.65 C 375.82 120.87 384.35 121.09 390.82 126.16 C 395.37 129.14 399.87 132.45 403.06 136.92 C 406.42 150.17 404.13 164.62 397.55 176.59 C 390.95 188.58 381.31 199.07 369.49 206.06 C 369.56 205.29 369.69 203.75 369.76 202.98 C 356.85 206.87 346.73 217.99 332.86 218.86 C 344.15 215.23 354.45 208.95 363.50 201.34 C 370.61 195.25 376.70 187.70 380.07 178.89 C 374.88 183.08 371.71 189.21 366.44 193.29 C 364.05 195.29 360.66 195.27 358.23 197.21 C 345.26 206.61 330.52 213.78 314.64 216.54 C 313.27 225.13 316.47 234.45 324.21 238.97 C 324.78 237.49 325.33 236.01 325.85 234.52 C 331.54 238.00 337.42 241.15 343.10 244.65 C 342.10 244.46 341.10 244.26 340.11 244.06 C 339.66 244.52 338.74 245.43 338.29 245.89 C 339.26 250.47 344.55 249.25 348.00 249.57 C 355.04 249.17 361.96 246.69 367.80 242.76 C 376.05 237.42 383.95 231.59 392.07 226.08 C 389.74 233.80 382.48 240.11 384.12 248.81 C 376.88 255.28 368.93 261.11 359.95 264.91 C 348.18 269.75 335.82 273.73 323.00 274.10 C 308.58 274.47 293.05 271.99 281.91 262.11 C 275.08 255.25 271.60 245.76 269.83 236.41 C 266.14 214.83 269.76 191.89 280.93 172.96 C 285.93 164.32 292.28 156.43 299.79 149.83 C 302.98 147.25 304.19 143.00 307.48 140.50 C 311.71 137.23 316.64 134.51 322.07 134.10 C 324.29 131.51 326.59 128.74 329.90 127.54 C 335.78 125.29 342.03 124.21 348.24 123.34 C 348.52 123.94 349.06 125.14 349.34 125.74 M 358.15 130.37 C 362.27 130.84 366.41 131.10 370.54 131.42 C 370.54 130.74 370.53 129.37 370.53 128.69 C 367.32 128.51 364.14 127.97 360.94 127.81 C 359.55 128.00 359.03 129.47 358.15 130.37 M 375.74 131.88 C 378.99 135.03 382.68 137.70 385.82 140.95 C 390.79 147.49 390.91 156.23 390.03 164.04 C 388.64 171.74 384.69 178.61 380.82 185.29 C 385.02 182.99 387.26 178.41 389.10 174.20 C 392.95 163.33 392.16 151.65 391.91 140.33 C 387.14 136.63 382.66 129.87 375.74 131.88 M 344.18 136.77 C 341.87 144.32 330.87 143.18 329.02 151.07 C 335.18 148.90 338.93 142.98 344.91 140.51 C 348.26 139.10 352.25 139.93 355.30 137.75 C 351.60 137.29 347.89 137.06 344.18 136.77 M 366.48 138.11 C 365.79 140.11 364.00 140.87 361.99 141.07 C 362.11 141.56 362.36 142.54 362.48 143.02 C 365.92 145.48 369.54 147.79 372.41 150.92 C 375.79 156.91 374.90 164.12 374.16 170.65 C 381.00 165.32 379.40 155.41 375.46 148.81 C 376.05 147.82 376.65 146.84 377.26 145.87 C 374.66 142.06 370.07 140.71 366.48 138.11 M 344.80 146.74 C 337.10 149.79 332.05 156.70 326.05 162.06 C 321.70 165.64 319.28 170.84 317.08 175.89 C 313.54 184.46 311.46 193.87 312.59 203.16 C 312.90 204.25 312.60 205.77 313.62 206.53 C 320.56 206.19 327.23 204.02 333.97 202.49 C 330.07 205.32 325.04 206.58 321.81 210.28 C 326.49 210.08 331.26 208.85 335.02 205.95 C 342.43 199.45 350.97 193.71 355.82 184.86 C 361.52 175.08 362.71 162.51 357.86 152.15 C 358.36 151.84 359.37 151.23 359.87 150.93 C 366.59 160.09 367.42 172.80 362.57 182.99 C 364.98 180.86 367.11 178.25 367.54 174.96 C 368.34 169.73 371.20 164.28 368.92 159.07 C 367.14 154.48 362.72 151.87 359.29 148.63 C 355.65 144.68 349.45 144.90 344.80 146.74 M 287.24 199.24 C 286.16 202.40 286.54 205.78 286.49 209.06 C 286.47 220.69 286.64 232.58 290.15 243.78 C 292.84 252.45 300.23 258.79 308.20 262.57 C 313.82 263.47 319.32 265.08 325.00 265.65 C 327.66 265.97 330.01 264.46 332.32 263.40 C 328.41 263.02 324.46 262.55 320.85 260.89 C 316.15 258.79 310.90 257.59 306.92 254.15 C 297.35 246.74 292.50 234.74 291.10 223.01 C 290.83 220.17 288.57 217.91 288.40 215.07 C 289.23 214.00 290.20 213.06 291.14 212.10 C 293.83 192.59 301.39 173.94 312.69 157.85 C 299.86 168.29 291.76 183.54 287.24 199.24 M 317.33 162.47 C 318.77 162.92 320.72 160.65 319.96 159.29 C 318.46 159.00 316.99 161.10 317.33 162.47 M 302.02 191.08 C 301.21 194.74 299.75 198.24 298.99 201.92 C 298.86 204.38 300.52 206.30 301.89 208.14 C 304.99 196.09 307.95 184.01 310.89 171.92 C 307.56 178.12 303.70 184.16 302.02 191.08 M 297.39 220.57 C 297.35 227.06 298.02 234.53 303.52 238.87 C 301.51 232.79 301.67 225.68 297.39 220.57 M 289.82 262.78 C 286.02 257.38 282.68 251.60 280.81 245.23 C 278.65 237.49 276.93 229.62 274.69 221.90 C 274.83 236.55 276.98 253.53 289.82 262.78 M 345.84 262.91 C 357.72 261.71 370.73 257.45 377.07 246.52 C 366.14 250.90 355.43 256.02 345.84 262.91 Z" />
<path fill="#000000" opacity="1.00" d=" M 675.44 125.75 C 680.93 121.30 688.25 121.13 694.96 120.68 C 701.54 121.11 708.64 120.97 714.43 124.62 C 719.47 127.76 724.48 131.16 728.27 135.81 C 730.19 137.68 729.68 140.56 730.13 142.98 C 732.15 156.24 728.14 169.86 720.99 181.02 C 714.53 191.09 705.90 199.87 695.63 206.04 C 695.68 205.26 695.78 203.72 695.82 202.94 C 683.15 206.86 673.19 217.35 659.71 218.91 C 672.44 213.98 684.44 206.84 694.12 197.13 C 699.20 191.87 703.64 185.80 706.12 178.87 C 700.92 183.07 697.75 189.22 692.45 193.29 C 690.03 195.28 686.63 195.27 684.21 197.24 C 671.39 206.53 656.83 213.59 641.18 216.44 C 638.70 224.73 642.68 234.52 650.25 238.98 C 650.84 237.55 651.42 236.12 651.99 234.67 C 657.67 237.88 663.25 241.27 668.97 244.42 C 667.69 244.52 665.98 243.48 665.19 244.98 C 663.78 246.05 665.12 248.14 666.21 248.92 C 674.79 250.80 683.85 248.65 691.38 244.34 C 700.55 238.66 709.20 232.20 718.11 226.12 C 715.87 233.78 708.46 240.00 710.21 248.61 C 704.05 254.45 697.07 259.47 689.49 263.29 C 672.85 270.95 654.34 276.08 635.90 273.46 C 625.32 272.42 614.69 268.54 606.98 261.05 C 596.98 249.64 594.50 233.72 594.58 219.04 C 594.47 192.89 606.30 167.09 625.90 149.84 C 628.91 147.45 630.09 143.53 632.99 141.02 C 637.26 137.39 642.47 134.82 648.05 134.00 C 650.35 131.93 652.16 129.18 655.12 127.94 C 661.23 125.41 667.80 124.25 674.33 123.41 C 674.61 123.99 675.17 125.17 675.44 125.75 M 687.54 127.81 C 685.77 127.49 685.17 129.34 684.25 130.43 C 688.37 130.89 692.51 131.11 696.64 131.45 C 696.63 130.52 696.63 129.59 696.64 128.67 C 693.59 128.50 690.58 127.97 687.54 127.81 M 701.79 131.90 C 705.04 135.04 708.71 137.72 711.86 140.96 C 716.82 147.47 716.95 156.20 716.07 163.99 C 714.72 171.72 710.70 178.60 706.86 185.32 C 711.15 183.03 713.41 178.35 715.26 174.07 C 719.07 163.23 718.21 151.59 718.01 140.31 C 713.23 136.61 708.72 129.78 701.79 131.90 M 670.27 136.75 C 667.89 144.29 656.97 143.17 655.04 151.04 C 661.47 148.99 665.21 142.59 671.53 140.35 C 674.74 139.18 678.51 139.90 681.35 137.73 C 677.67 137.22 673.96 137.02 670.27 136.75 M 692.57 138.09 C 691.81 140.08 690.00 140.86 687.99 141.09 C 688.13 141.59 688.42 142.58 688.57 143.08 C 691.94 145.46 695.43 147.74 698.31 150.73 C 701.87 156.71 701.02 164.06 700.18 170.65 C 707.15 165.45 705.53 155.45 701.57 148.87 C 702.15 147.86 702.74 146.86 703.34 145.86 C 700.78 142.01 696.15 140.69 692.57 138.09 M 671.37 146.52 C 664.48 148.96 659.74 154.78 654.59 159.64 C 651.93 162.36 648.77 164.72 646.96 168.15 C 640.40 179.66 636.59 193.34 639.14 206.57 C 646.03 206.44 652.55 204.02 659.29 202.91 C 655.45 205.46 650.95 207.00 647.56 210.22 C 653.06 210.33 658.57 208.42 662.67 204.73 C 669.35 198.76 677.03 193.53 681.52 185.56 C 687.53 175.69 688.97 162.80 683.97 152.21 C 684.45 151.89 685.41 151.26 685.89 150.94 C 692.69 160.08 693.44 172.83 688.60 183.02 C 694.31 178.90 694.11 171.34 695.81 165.17 C 697.08 157.69 690.39 152.81 685.38 148.61 C 681.88 144.78 675.92 144.88 671.37 146.52 M 613.35 199.02 C 612.21 202.23 612.57 205.67 612.53 209.01 C 612.53 220.41 612.67 232.02 615.95 243.03 C 618.55 252.22 626.33 259.13 634.87 262.79 C 640.31 263.51 645.58 265.17 651.06 265.69 C 653.74 266.01 656.12 264.49 658.42 263.32 C 654.58 263.01 650.71 262.57 647.18 260.96 C 642.38 258.80 637.01 257.59 632.95 254.08 C 623.43 246.66 618.61 234.72 617.21 223.02 C 617.00 220.20 614.63 217.96 614.59 215.15 C 616.06 213.37 617.79 211.64 617.78 209.16 C 620.55 190.65 628.19 173.16 638.78 157.82 C 625.97 168.20 617.88 183.39 613.35 199.02 M 643.33 162.54 C 644.84 163.05 646.96 160.76 646.09 159.30 C 644.49 158.73 642.84 161.10 643.33 162.54 M 636.86 172.06 C 633.56 178.17 629.75 184.15 628.09 190.98 C 627.25 194.72 625.80 198.28 624.98 202.02 C 624.97 204.43 626.50 206.36 628.00 208.08 C 631.04 196.10 634.15 184.12 636.86 172.06 M 623.43 220.54 C 623.43 227.03 624.01 234.57 629.59 238.87 C 627.61 232.77 627.80 225.59 623.43 220.54 M 600.70 221.93 C 600.87 228.68 601.32 235.47 602.91 242.06 C 604.58 250.28 609.19 257.84 615.96 262.83 C 612.32 257.65 609.07 252.13 607.18 246.05 C 604.79 238.07 603.24 229.86 600.70 221.93 M 702.99 246.49 C 692.15 251.00 681.39 255.94 671.91 262.94 C 683.69 261.68 696.98 257.62 702.99 246.49 Z" />
<path fill="#000000" opacity="1.00" d=" M 1877.86 125.60 C 1883.25 121.21 1890.45 121.14 1897.04 120.62 C 1903.63 121.04 1910.74 120.91 1916.56 124.51 C 1921.62 127.65 1926.64 131.05 1930.47 135.69 C 1932.58 137.84 1931.99 141.14 1932.51 143.88 C 1934.52 158.92 1928.89 174.06 1919.88 185.94 C 1913.84 193.91 1906.48 201.06 1897.78 206.06 C 1897.80 205.31 1897.86 203.79 1897.88 203.03 C 1885.14 207.00 1875.10 217.80 1861.43 218.90 C 1875.27 213.93 1888.15 205.90 1898.19 195.09 C 1902.51 190.33 1906.02 184.83 1908.44 178.87 C 1902.54 183.45 1899.36 190.96 1892.66 194.54 C 1886.58 196.15 1882.14 200.84 1876.66 203.66 C 1866.38 210.00 1854.96 214.39 1843.05 216.44 C 1841.45 225.02 1844.77 234.46 1852.52 238.95 C 1853.11 237.50 1853.59 236.01 1854.13 234.53 C 1859.81 237.88 1865.54 241.16 1871.25 244.47 C 1869.52 244.28 1867.31 243.72 1866.84 246.01 C 1867.05 247.30 1867.61 248.78 1869.09 249.08 C 1878.42 250.73 1888.14 248.05 1895.95 242.83 C 1904.21 237.49 1912.14 231.66 1920.26 226.10 C 1918.16 233.92 1910.68 240.14 1912.42 248.88 C 1906.02 254.49 1899.17 259.71 1891.49 263.45 C 1874.24 271.37 1854.94 276.46 1835.91 273.18 C 1826.85 272.18 1818.19 268.53 1811.06 262.89 C 1804.23 256.69 1800.67 247.72 1798.63 238.91 C 1794.88 220.06 1796.68 199.98 1804.48 182.35 C 1809.97 169.82 1818.17 158.47 1828.49 149.47 C 1831.24 147.14 1832.34 143.45 1835.09 141.09 C 1839.31 137.46 1844.48 134.86 1850.02 134.01 C 1852.65 132.08 1854.43 128.90 1857.68 127.75 C 1863.59 125.44 1869.87 124.15 1876.17 123.44 C 1876.59 123.98 1877.44 125.06 1877.86 125.60 M 1886.72 130.46 C 1890.77 130.78 1894.82 131.10 1898.89 131.41 C 1898.84 130.72 1898.75 129.34 1898.71 128.64 C 1895.46 128.54 1892.26 127.96 1889.04 127.82 C 1887.75 128.17 1887.30 129.46 1886.72 130.46 M 1904.04 131.86 C 1907.30 134.97 1910.93 137.69 1914.10 140.91 C 1917.81 145.72 1918.95 152.04 1918.70 158.00 C 1918.74 159.59 1918.02 161.48 1919.21 162.85 C 1921.08 163.06 1919.78 160.04 1920.30 158.95 C 1920.77 153.30 1920.16 147.65 1920.22 142.00 C 1920.49 140.01 1918.46 138.96 1917.32 137.72 C 1913.55 134.60 1909.51 130.04 1904.04 131.86 M 1872.53 136.76 C 1870.20 144.32 1859.30 143.15 1857.31 150.98 C 1863.83 148.90 1867.57 142.27 1874.09 140.20 C 1877.11 139.11 1880.75 139.90 1883.36 137.73 C 1879.75 137.29 1876.13 137.09 1872.53 136.76 M 1894.84 138.19 C 1894.06 140.66 1890.18 140.25 1890.35 143.03 C 1894.10 144.97 1897.42 147.67 1900.48 150.58 C 1904.13 156.46 1903.30 163.81 1902.45 170.36 C 1909.47 165.36 1907.59 155.26 1903.71 148.83 C 1904.29 147.85 1904.90 146.87 1905.53 145.89 C 1903.00 142.06 1898.39 140.76 1894.84 138.19 M 1860.80 155.81 C 1856.49 160.45 1850.91 164.15 1848.17 170.05 C 1842.33 181.13 1838.88 194.11 1841.47 206.61 C 1848.55 206.19 1855.34 204.06 1862.23 202.53 C 1858.14 205.23 1853.43 206.93 1849.77 210.24 C 1856.32 210.39 1862.47 207.41 1867.03 202.84 C 1873.25 197.48 1880.02 192.39 1884.02 185.02 C 1889.86 175.17 1890.87 162.60 1886.22 152.07 C 1886.68 151.80 1887.61 151.26 1888.07 150.99 C 1895.15 159.96 1895.37 172.64 1891.15 182.91 C 1896.20 178.77 1896.26 171.92 1897.80 166.09 C 1899.22 160.74 1895.94 155.47 1891.81 152.31 C 1888.40 149.76 1885.63 145.58 1880.94 145.59 C 1872.85 144.78 1866.07 150.35 1860.80 155.81 M 1814.92 201.99 C 1814.60 212.01 1814.63 222.10 1815.89 232.06 C 1817.00 240.21 1818.99 248.91 1825.24 254.76 C 1829.70 258.81 1834.81 263.06 1841.10 263.43 C 1847.49 264.51 1854.66 267.63 1860.58 263.38 C 1852.95 263.23 1846.12 259.63 1839.23 256.83 C 1827.19 250.07 1820.92 236.32 1819.42 223.06 C 1819.16 220.18 1816.78 217.89 1816.72 214.99 C 1817.51 213.99 1818.45 213.11 1819.39 212.21 C 1822.08 192.65 1829.75 174.05 1840.90 157.81 C 1827.58 169.06 1818.94 185.18 1814.92 201.99 M 1918.08 165.31 C 1916.45 172.52 1912.83 179.01 1909.12 185.33 C 1915.92 180.85 1918.70 172.26 1919.60 164.52 L 1918.76 165.28 C 1918.59 165.29 1918.25 165.30 1918.08 165.31 M 1832.88 183.90 C 1830.42 189.17 1829.50 194.96 1827.59 200.43 C 1826.45 203.33 1828.50 206.00 1830.19 208.15 C 1833.19 196.33 1836.18 184.51 1838.97 172.64 C 1836.77 176.29 1834.56 179.97 1832.88 183.90 M 1825.68 220.75 C 1825.67 227.19 1826.38 234.48 1831.74 238.86 C 1829.81 232.85 1830.07 225.64 1825.68 220.75 M 1803.32 221.93 C 1802.77 229.97 1803.95 238.08 1806.19 245.79 C 1808.16 252.56 1812.52 258.43 1818.05 262.74 C 1808.95 250.98 1806.75 235.97 1803.32 221.93 M 1874.10 262.81 C 1885.94 261.80 1898.91 257.45 1905.25 246.64 C 1894.29 250.83 1883.80 256.21 1874.10 262.81 Z" />
<path fill="#000000" opacity="1.00" d=" M 940.45 143.50 C 956.04 133.35 973.07 123.82 992.00 122.38 C 1003.86 121.35 1016.16 123.83 1026.29 130.20 C 1028.29 129.25 1030.25 128.23 1032.23 127.22 C 1032.32 128.79 1032.43 130.37 1032.55 131.95 C 1033.87 130.81 1034.93 128.83 1036.94 129.01 C 1039.40 129.04 1041.82 129.56 1044.28 129.77 C 1044.34 130.26 1044.45 131.23 1044.51 131.72 C 1047.08 128.79 1049.03 124.65 1053.34 124.09 C 1052.79 128.08 1051.28 132.09 1052.33 136.15 C 1054.63 131.69 1054.66 125.95 1059.05 122.74 C 1055.94 141.75 1051.04 160.46 1048.82 179.63 C 1046.60 197.08 1046.14 215.07 1050.68 232.21 C 1052.81 240.17 1056.66 247.55 1061.37 254.28 C 1060.67 254.88 1059.99 255.49 1059.32 256.10 C 1053.37 248.23 1045.16 241.59 1042.27 231.81 C 1041.61 229.77 1041.05 227.69 1040.32 225.67 C 1039.69 227.41 1038.63 229.24 1039.32 231.14 C 1041.63 240.61 1048.07 248.56 1049.93 258.18 C 1047.15 258.71 1044.63 257.39 1041.99 256.85 C 1040.04 257.61 1040.18 260.11 1041.62 261.29 C 1043.30 262.97 1045.81 265.26 1044.13 267.82 C 1041.57 268.97 1038.36 268.64 1036.28 266.71 C 1034.58 264.99 1033.21 262.99 1031.68 261.13 C 1031.44 262.80 1031.21 264.47 1030.98 266.14 C 1027.74 263.15 1025.32 259.43 1024.30 255.13 C 1025.79 256.83 1027.25 258.57 1028.82 260.21 C 1025.04 248.70 1021.61 237.05 1017.42 225.68 C 1017.32 231.67 1015.50 238.91 1020.54 243.52 C 1020.84 246.34 1021.08 249.16 1021.36 251.98 C 1020.28 249.37 1019.21 246.75 1018.17 244.13 C 1016.00 238.86 1015.42 233.12 1013.36 227.82 C 1012.24 229.36 1010.58 231.01 1011.35 233.11 C 1012.68 238.53 1013.30 244.16 1015.26 249.41 C 1018.40 256.81 1023.51 263.13 1028.05 269.71 C 1027.63 269.98 1026.79 270.53 1026.37 270.81 C 1021.61 267.61 1017.74 263.20 1014.56 258.46 C 1010.56 252.45 1008.72 245.40 1006.31 238.69 C 1005.72 240.74 1005.36 242.94 1006.40 244.93 C 1008.82 250.44 1010.25 256.37 1013.32 261.60 C 1015.78 265.90 1018.69 269.92 1021.26 274.17 C 1019.93 274.44 1018.46 275.86 1017.20 274.78 C 1009.51 270.00 1006.14 261.24 1002.57 253.37 C 1000.67 249.21 998.56 245.15 996.69 240.98 C 996.01 240.99 994.66 241.00 993.98 241.01 C 995.42 239.18 997.21 236.95 995.12 234.85 C 984.12 242.62 971.82 248.35 960.93 256.26 C 961.99 258.81 964.58 259.68 967.05 260.30 C 972.33 254.53 978.91 250.08 986.09 246.99 C 981.50 251.81 976.93 257.20 970.27 259.07 C 964.71 267.75 953.99 270.05 945.07 273.69 C 933.06 273.49 920.41 277.12 908.96 272.08 C 902.23 267.95 895.32 262.84 892.58 255.11 C 888.44 243.55 888.95 231.06 889.05 218.98 C 889.21 215.31 888.88 211.49 890.38 208.03 C 898.33 186.10 911.94 165.67 931.29 152.24 C 932.59 151.17 934.35 151.27 935.90 150.79 C 937.57 148.45 937.59 144.93 940.45 143.50 M 981.88 127.60 C 984.33 128.37 987.35 129.00 989.15 126.65 C 986.71 126.84 984.27 127.13 981.88 127.60 M 956.91 138.91 C 951.32 141.72 945.97 145.33 941.95 150.17 C 943.51 149.58 944.73 148.42 946.13 147.52 C 948.46 147.09 951.32 148.29 953.10 146.18 C 959.61 140.65 967.88 137.60 976.27 136.43 C 976.53 136.77 977.06 137.46 977.33 137.80 C 979.47 135.45 982.46 134.36 985.32 133.16 C 983.30 131.19 980.51 131.80 978.03 132.01 C 970.59 132.84 963.67 135.90 956.91 138.91 M 1011.15 141.60 C 1010.05 142.57 1011.61 144.77 1012.88 144.01 C 1014.01 142.96 1012.48 140.78 1011.15 141.60 M 1021.62 149.74 C 1021.68 149.32 1021.79 148.50 1021.85 148.09 C 1020.60 146.70 1019.39 145.27 1018.25 143.79 C 1016.12 146.48 1020.14 147.98 1021.62 149.74 M 968.05 147.56 C 976.33 148.08 984.63 148.27 992.92 148.75 C 1000.22 148.22 1002.74 158.00 1010.11 157.49 C 1009.13 156.23 1008.39 154.70 1006.97 153.87 C 1002.32 151.01 997.25 148.91 992.23 146.81 C 984.55 143.78 975.37 143.31 968.05 147.56 M 1038.43 157.39 C 1039.29 153.26 1039.82 149.08 1040.60 144.94 C 1039.25 148.91 1036.94 153.14 1038.43 157.39 M 942.64 156.10 C 946.05 154.24 951.17 153.96 952.56 149.73 C 949.06 151.49 945.18 152.96 942.64 156.10 M 1041.74 174.59 C 1041.46 176.92 1042.09 179.23 1042.53 181.51 C 1044.36 174.88 1043.46 167.78 1045.72 161.25 C 1046.97 158.89 1048.08 156.47 1049.14 154.02 C 1048.93 153.27 1048.51 151.77 1048.30 151.02 C 1045.63 158.76 1043.72 166.65 1041.74 174.59 M 933.20 155.52 C 934.52 156.24 936.67 153.37 935.06 152.66 C 933.88 152.88 932.70 154.33 933.20 155.52 M 963.61 154.72 C 969.39 155.52 975.28 155.62 980.97 157.06 C 989.39 158.75 997.25 162.54 1004.09 167.69 C 1003.96 163.14 999.72 160.78 996.26 158.75 C 986.39 153.49 974.46 151.43 963.61 154.72 M 1015.52 169.26 C 1010.84 186.33 1008.79 204.56 1012.21 222.05 C 1013.09 200.73 1018.78 179.93 1019.64 158.62 C 1017.17 161.65 1016.66 165.64 1015.52 169.26 M 956.54 160.67 C 950.10 161.72 945.65 167.03 941.77 171.81 C 935.01 180.49 932.42 191.45 930.71 202.09 C 929.26 209.97 929.85 218.41 933.18 225.75 C 935.72 231.42 941.51 234.34 946.46 237.56 C 951.92 240.44 957.98 237.50 963.02 235.10 C 968.92 232.08 975.58 230.15 980.41 225.39 C 985.62 220.44 989.80 214.52 993.60 208.45 C 1000.43 197.39 1003.53 184.12 1002.27 171.18 C 1000.39 171.33 998.37 172.51 996.62 171.38 C 991.04 168.67 985.61 165.64 980.00 163.01 C 972.58 160.21 964.36 159.10 956.54 160.67 M 921.61 175.40 C 923.67 174.16 925.81 172.44 926.16 169.90 C 924.38 171.49 922.73 173.27 921.61 175.40 M 916.15 201.17 C 917.45 199.01 917.75 193.72 921.44 195.95 C 921.63 198.62 921.45 201.31 921.45 203.99 C 922.30 195.40 924.42 187.01 926.94 178.77 C 922.97 186.02 917.79 192.94 916.15 201.17 M 1035.95 207.99 C 1035.80 210.63 1037.09 212.99 1038.34 215.23 C 1036.33 206.21 1037.49 196.94 1036.48 187.83 C 1035.12 194.46 1035.84 201.27 1035.95 207.99 M 893.37 215.18 C 894.41 209.01 896.93 203.17 897.50 196.90 C 894.35 202.34 892.76 208.91 893.37 215.18 M 1024.23 196.46 C 1023.19 205.92 1022.87 215.51 1023.85 224.99 C 1024.61 231.52 1026.15 238.41 1030.93 243.25 C 1030.07 239.12 1026.62 235.09 1028.74 230.84 C 1025.22 221.57 1028.65 211.61 1027.34 202.07 C 1027.16 199.81 1025.57 198.12 1024.23 196.46 M 994.43 214.20 C 991.87 217.49 989.85 221.14 987.45 224.53 C 982.63 229.98 975.76 233.00 970.58 238.04 C 983.20 237.11 990.72 225.11 994.77 214.39 L 994.43 214.20 M 913.74 228.48 C 915.98 235.93 921.76 241.57 927.38 246.65 C 930.62 249.88 935.44 250.24 939.69 251.20 C 947.65 252.74 956.57 251.79 962.91 246.31 C 954.75 248.30 946.22 248.96 937.90 247.68 C 933.83 246.89 930.23 244.55 927.17 241.84 C 920.06 235.22 916.42 225.88 913.45 216.85 C 912.86 220.70 912.52 224.71 913.74 228.48 M 941.94 240.02 C 937.83 234.92 933.54 229.96 929.19 225.06 C 927.94 232.84 935.61 237.78 941.94 240.02 M 902.34 233.81 C 902.12 235.78 901.23 238.38 903.75 239.11 C 903.66 237.26 903.15 235.47 902.34 233.81 M 899.26 243.81 C 901.01 250.49 903.37 259.02 911.19 260.65 C 907.53 254.83 903.52 249.21 899.26 243.81 M 929.39 261.49 C 932.00 262.90 934.79 261.52 937.23 260.45 C 935.19 259.35 933.04 258.45 930.86 257.68 C 930.43 258.88 928.56 260.17 929.39 261.49 Z" />
<path fill="#000000" opacity="1.00" d=" M 552.11 127.88 C 558.91 125.37 566.68 124.03 573.71 126.36 C 574.97 129.19 576.23 132.02 577.48 134.86 C 575.87 142.20 574.17 149.52 572.64 156.88 C 572.06 157.00 570.92 157.23 570.35 157.35 C 569.89 182.29 560.30 206.01 559.81 230.94 C 558.55 239.30 564.06 246.95 570.46 251.66 C 573.51 253.68 577.46 251.91 580.64 253.40 C 580.95 254.57 581.13 255.77 581.17 257.00 C 578.27 258.23 575.40 259.52 572.54 260.80 C 573.91 264.06 575.10 267.44 575.17 271.02 C 567.63 276.32 558.11 278.42 549.01 277.19 C 540.72 276.90 532.61 274.48 525.25 270.75 C 519.21 267.52 515.70 261.08 514.72 254.48 C 512.72 242.98 514.82 231.34 516.29 219.91 C 518.71 204.45 521.37 189.02 523.78 173.56 C 519.21 174.91 514.80 177.08 511.51 180.61 C 504.90 187.33 497.75 193.54 491.77 200.85 C 475.47 220.23 461.56 241.43 446.80 261.97 C 444.48 264.85 444.35 268.82 441.96 271.67 C 440.71 270.78 439.70 269.25 438.03 269.18 C 436.51 269.37 435.18 270.22 433.79 270.80 C 433.69 269.23 433.62 267.68 433.52 266.12 C 431.92 269.07 430.37 272.05 428.76 274.99 C 425.25 272.42 427.61 268.32 428.15 264.93 C 427.93 263.89 428.10 261.33 426.40 262.38 C 423.82 266.16 423.23 270.92 420.80 274.76 C 419.58 276.61 417.23 276.63 415.28 276.92 C 414.63 277.55 413.99 278.19 413.36 278.83 C 413.85 267.90 413.30 256.90 414.90 246.05 C 416.53 232.75 418.08 219.43 419.74 206.14 C 424.56 180.96 428.58 155.47 428.89 129.79 C 432.77 128.99 434.89 132.77 437.89 134.40 C 437.67 143.65 436.22 152.79 435.08 161.95 C 434.22 170.67 433.42 179.40 432.64 188.14 C 434.07 186.83 435.50 185.51 436.91 184.18 C 435.25 172.56 441.54 161.44 439.55 149.85 C 442.62 145.62 442.34 140.27 442.48 135.31 C 443.18 135.50 444.60 135.90 445.31 136.09 C 446.63 133.40 446.80 130.39 447.22 127.47 C 448.72 127.56 450.48 127.26 451.65 128.48 C 454.00 130.66 453.76 134.15 453.61 137.07 C 452.27 154.53 447.43 171.53 446.33 189.02 C 446.52 193.39 446.27 198.03 447.94 202.15 C 448.99 198.86 449.33 195.41 449.92 192.02 C 453.19 172.06 456.39 152.09 459.69 132.14 C 459.97 130.88 460.74 128.42 462.46 129.21 C 464.34 133.57 464.67 138.48 463.58 143.09 C 462.34 149.05 462.47 155.18 461.59 161.18 C 459.38 172.13 457.18 183.08 454.95 194.03 C 455.42 195.15 455.90 196.27 456.38 197.39 C 457.57 195.56 458.98 193.74 459.23 191.49 C 462.31 171.68 465.33 151.85 468.45 132.05 C 468.62 130.25 470.26 129.19 471.40 127.99 C 473.98 135.97 474.04 144.62 472.80 152.86 C 470.58 164.06 467.93 175.18 465.49 186.34 C 466.36 186.97 467.23 187.60 468.12 188.23 C 482.23 178.50 492.22 163.87 506.87 154.85 C 511.03 151.97 516.45 151.66 520.28 148.22 C 530.68 141.15 540.28 132.55 552.11 127.88 M 565.03 131.05 C 566.83 132.59 568.89 133.79 570.92 135.01 C 570.13 132.82 569.34 130.60 568.13 128.59 C 567.24 129.48 565.23 129.64 565.03 131.05 M 554.60 135.86 C 555.59 136.51 556.60 136.52 557.63 135.89 C 558.65 133.83 553.97 133.96 554.60 135.86 M 554.56 148.88 C 549.90 160.89 546.38 173.34 543.98 186.00 C 541.89 201.30 540.05 216.64 538.01 231.96 C 537.12 237.67 537.38 243.59 538.83 249.18 C 539.77 252.81 542.83 255.24 545.80 257.23 C 544.83 253.16 543.32 249.23 542.41 245.15 C 540.38 232.77 542.14 220.20 544.17 207.94 C 545.80 198.60 547.32 189.24 548.87 179.88 C 549.25 176.79 551.36 174.36 552.67 171.63 C 557.54 162.14 560.93 151.88 562.84 141.39 C 559.29 142.70 555.81 145.14 554.56 148.88 M 532.53 146.41 C 530.23 148.86 531.85 152.94 529.24 155.21 C 525.88 158.30 521.09 159.76 518.74 163.93 C 523.33 161.21 527.70 158.12 532.19 155.22 C 536.34 152.76 538.69 148.00 538.27 143.20 C 536.33 144.19 534.12 144.87 532.53 146.41 M 504.17 170.89 C 508.61 168.63 513.33 166.42 516.20 162.13 C 516.03 161.43 515.70 160.03 515.53 159.34 C 511.67 163.12 507.77 166.87 504.17 170.89 M 490.15 172.16 C 487.63 174.77 484.57 176.96 482.67 180.12 C 490.27 174.33 498.51 168.51 503.12 159.89 C 498.51 163.66 494.50 168.10 490.15 172.16 M 534.19 184.07 C 535.78 178.28 537.43 172.47 537.89 166.45 C 534.68 171.67 532.96 177.97 534.19 184.07 M 487.02 188.03 C 473.60 200.52 459.24 212.87 451.05 229.65 C 467.57 211.34 484.26 193.20 501.00 175.10 C 496.22 179.28 491.68 183.73 487.02 188.03 M 560.52 176.16 C 561.38 187.19 552.35 196.98 555.46 208.04 C 557.64 197.36 559.86 186.69 561.96 176.00 C 561.60 176.04 560.88 176.12 560.52 176.16 M 421.66 248.50 C 421.50 249.45 422.00 250.32 422.27 251.21 C 425.17 239.38 427.76 227.45 429.66 215.42 C 430.44 207.61 431.30 199.81 431.66 191.97 C 428.49 210.84 424.94 229.65 421.66 248.50 M 525.50 225.07 C 525.02 229.69 523.98 234.32 524.79 238.97 C 525.88 249.15 531.20 259.38 540.51 264.27 C 548.68 267.29 557.81 268.95 566.34 266.35 C 556.44 265.52 545.34 265.66 537.38 258.73 C 530.16 253.50 527.64 244.36 526.66 235.94 C 526.23 221.34 531.71 207.29 531.82 192.76 C 527.37 202.96 526.81 214.18 525.50 225.07 M 549.06 256.00 C 548.36 257.36 550.53 258.86 551.69 258.03 C 552.29 256.74 550.16 255.24 549.06 256.00 Z" />
<path fill="#000000" opacity="1.00" d=" M 1403.78 124.83 C 1404.33 135.22 1403.67 145.64 1404.29 156.04 C 1404.89 173.38 1405.45 190.72 1406.03 208.06 C 1406.51 218.64 1409.31 228.91 1412.41 238.98 C 1413.39 242.00 1414.01 245.24 1416.02 247.81 C 1428.71 232.13 1439.77 215.08 1448.57 196.91 C 1456.39 180.80 1460.32 162.94 1460.51 145.06 C 1460.95 150.70 1460.39 156.42 1461.62 161.99 C 1465.98 155.38 1464.78 146.99 1466.20 139.53 C 1468.74 140.54 1468.51 143.65 1468.95 145.89 C 1470.48 161.14 1464.79 175.64 1461.29 190.20 C 1468.01 181.22 1470.49 170.00 1473.55 159.43 C 1475.85 151.78 1477.49 143.91 1480.60 136.54 C 1481.37 145.35 1482.57 154.24 1481.03 163.04 C 1478.51 180.41 1471.21 196.87 1461.22 211.22 C 1450.28 227.06 1437.08 241.15 1423.83 255.06 C 1427.77 255.69 1430.37 252.42 1433.17 250.27 C 1445.11 240.14 1455.41 228.14 1464.19 215.21 C 1474.95 198.77 1483.12 180.82 1490.74 162.77 C 1491.28 161.28 1492.21 159.76 1491.80 158.11 C 1490.09 149.12 1493.71 140.19 1492.83 131.16 C 1495.82 130.51 1495.86 133.92 1496.88 135.83 C 1500.66 134.75 1499.67 130.73 1499.73 127.78 C 1499.68 126.36 1501.60 126.50 1502.48 125.83 C 1503.09 127.97 1503.70 130.11 1504.32 132.25 C 1506.20 131.20 1508.04 130.04 1509.90 128.91 C 1510.77 129.63 1511.66 130.35 1512.56 131.08 C 1512.70 149.95 1508.67 168.96 1499.83 185.71 C 1491.63 201.82 1480.99 216.59 1469.28 230.32 C 1458.77 242.78 1448.25 255.24 1437.76 267.73 C 1435.76 270.23 1433.05 272.10 1429.97 272.97 C 1430.76 265.74 1437.40 261.64 1441.80 256.62 C 1441.79 256.20 1441.77 255.36 1441.76 254.94 C 1436.62 260.69 1428.62 262.64 1423.50 268.34 C 1420.83 270.97 1422.50 274.71 1423.70 277.61 C 1419.63 277.94 1415.55 277.49 1412.34 274.78 C 1412.36 277.55 1412.36 280.32 1412.33 283.09 C 1404.33 275.97 1399.63 265.77 1397.67 255.37 C 1394.94 242.59 1391.38 229.96 1389.87 216.95 C 1388.72 209.34 1389.01 201.63 1388.64 193.97 C 1387.76 175.13 1388.69 156.28 1388.83 137.44 C 1394.24 136.05 1393.24 128.81 1398.21 126.91 C 1398.33 128.99 1398.54 131.08 1399.33 133.03 C 1400.88 130.34 1402.33 127.58 1403.78 124.83 M 1399.37 135.62 C 1397.04 142.87 1396.61 151.04 1399.34 158.24 C 1399.14 150.71 1401.32 143.02 1399.37 135.62 M 1390.30 205.00 C 1390.41 206.54 1389.78 208.68 1391.77 209.27 C 1391.64 204.16 1390.87 199.10 1390.46 194.01 C 1390.30 197.67 1390.31 201.34 1390.30 205.00 M 1455.31 204.34 C 1456.83 203.35 1456.66 201.45 1456.98 199.88 C 1454.34 199.94 1455.38 202.65 1455.31 204.34 M 1417.11 251.03 C 1421.23 248.58 1424.88 244.92 1426.24 240.21 C 1422.83 243.43 1417.56 245.80 1417.11 251.03 M 1420.52 264.68 C 1421.28 265.38 1422.06 266.08 1422.86 266.78 C 1430.54 259.50 1438.43 252.43 1445.96 244.99 C 1437.42 251.48 1429.08 258.23 1420.52 264.68 M 1419.94 255.78 C 1422.28 253.52 1424.92 251.23 1425.66 247.90 C 1422.78 249.63 1421.61 253.04 1419.94 255.78 Z" />
<path fill="#000000" opacity="1.00" d=" M 1362.21 135.11 C 1362.44 133.04 1364.39 131.97 1365.86 130.78 C 1364.37 137.85 1366.52 144.89 1366.93 151.95 C 1367.12 154.34 1365.78 156.82 1366.71 159.11 C 1368.47 159.93 1368.76 157.54 1369.30 156.47 C 1370.71 150.61 1370.27 144.45 1371.72 138.58 C 1372.63 142.64 1371.72 147.17 1374.45 150.67 C 1377.89 144.03 1374.77 134.21 1382.20 129.73 C 1382.52 146.16 1382.56 162.60 1382.78 179.03 C 1382.94 188.06 1382.72 197.11 1383.56 206.11 C 1385.65 230.58 1390.21 255.15 1400.48 277.61 C 1395.03 278.69 1391.80 283.69 1386.90 285.81 C 1381.04 286.51 1379.90 279.57 1377.61 275.69 C 1376.42 276.18 1375.30 276.92 1374.02 276.98 C 1368.79 267.62 1365.73 257.23 1362.88 246.94 C 1360.70 238.99 1358.22 231.11 1356.22 223.12 C 1354.51 212.80 1352.90 202.46 1351.35 192.12 C 1350.17 172.41 1347.48 151.86 1354.39 132.86 C 1357.09 136.36 1357.91 140.77 1359.53 144.80 C 1361.51 141.95 1361.65 138.42 1362.21 135.11 M 1360.61 147.69 C 1360.43 153.15 1360.80 158.61 1360.35 164.06 C 1361.43 193.79 1361.09 224.15 1369.61 252.96 C 1367.43 237.03 1364.62 221.14 1363.70 205.07 C 1362.70 192.74 1361.99 180.37 1360.61 168.08 C 1359.87 161.31 1363.80 154.09 1360.61 147.69 M 1374.53 186.95 C 1375.51 199.72 1376.99 212.44 1378.30 225.18 C 1378.25 226.41 1379.03 227.35 1379.81 228.22 C 1379.66 220.28 1377.98 212.46 1377.18 204.57 C 1375.73 195.11 1375.24 185.51 1373.25 176.14 C 1373.81 179.73 1374.34 183.32 1374.53 186.95 M 1384.46 251.68 C 1384.56 259.75 1386.88 268.07 1392.38 274.16 C 1389.77 266.66 1387.57 258.99 1384.46 251.68 Z" />
<path fill="#000000" opacity="1.00" d=" M 1485.71 144.12 C 1486.20 141.71 1486.14 139.02 1487.87 137.06 C 1489.03 146.82 1486.14 156.32 1485.39 165.97 C 1483.39 158.82 1484.59 151.31 1485.71 144.12 Z" />
<path fill="#000000" opacity="1.00" d=" M 1562.20 266.26 C 1562.86 265.10 1563.90 264.41 1565.29 264.19 C 1564.81 269.37 1564.05 274.52 1563.49 279.70 C 1562.28 279.72 1561.09 279.75 1559.92 279.79 C 1558.27 275.24 1559.60 270.18 1562.20 266.26 Z" />
<path fill="#000000" opacity="1.00" d=" M 1524.59 275.35 C 1525.71 275.58 1526.82 275.85 1527.97 276.10 C 1527.38 278.72 1526.77 281.55 1524.60 283.35 C 1523.74 280.73 1523.51 277.93 1524.59 275.35 Z" />
<path fill="#000000" opacity="1.00" d=" M 1531.69 275.72 C 1533.47 275.91 1535.29 276.07 1537.12 276.24 C 1537.42 278.54 1538.09 282.30 1534.87 282.68 C 1530.99 283.48 1530.96 278.23 1531.69 275.72 Z" />
<path fill="#000000" opacity="1.00" d=" M 687.59 373.28 C 690.00 373.26 692.41 373.26 694.83 373.26 C 694.81 375.28 694.80 377.29 694.78 379.31 C 692.38 379.29 690.00 379.28 687.62 379.28 C 687.60 377.28 687.59 375.28 687.59 373.28 Z" />
<path fill="#000000" opacity="1.00" d=" M 1171.80 376.64 C 1178.38 373.56 1186.20 373.58 1193.10 375.58 C 1199.67 377.48 1204.83 385.57 1200.86 391.96 C 1193.53 402.22 1177.44 400.56 1170.81 411.61 C 1181.19 412.06 1191.60 411.69 1202.00 411.81 C 1201.98 413.47 1201.98 415.13 1201.99 416.80 C 1189.02 416.76 1176.04 416.83 1163.07 416.76 C 1163.74 412.33 1165.01 407.61 1168.57 404.61 C 1175.47 398.78 1185.05 397.63 1192.09 392.05 C 1195.67 389.23 1194.90 383.13 1191.00 380.97 C 1186.52 378.38 1180.58 378.39 1176.02 380.78 C 1172.88 382.44 1171.99 386.13 1171.62 389.37 C 1169.23 389.37 1166.84 389.37 1164.47 389.36 C 1164.67 384.25 1166.95 378.91 1171.80 376.64 Z" />
<path fill="#000000" opacity="1.00" d=" M 1281.42 375.57 C 1287.47 373.71 1294.42 373.89 1300.09 376.91 C 1305.22 379.71 1307.85 385.52 1308.39 391.14 C 1309.18 398.65 1308.30 407.19 1302.81 412.87 C 1296.70 418.82 1286.66 419.28 1279.18 415.83 C 1271.30 411.88 1269.06 402.13 1269.75 394.03 C 1269.98 386.46 1273.72 378.06 1281.42 375.57 M 1285.45 379.68 C 1279.73 381.28 1277.79 387.78 1277.45 393.05 C 1277.13 398.36 1277.19 404.20 1280.18 408.83 C 1284.63 415.52 1296.58 414.18 1299.42 406.63 C 1301.77 399.22 1301.82 390.66 1298.48 383.55 C 1296.02 379.03 1289.93 378.44 1285.45 379.68 Z" />
<path fill="#000000" opacity="1.00" d=" M 1389.12 375.18 C 1395.59 373.68 1403.13 374.06 1408.56 378.26 C 1413.83 382.45 1415.24 389.63 1415.11 396.02 C 1415.12 402.98 1412.99 410.76 1406.92 414.85 C 1400.18 419.03 1390.89 419.06 1384.11 414.95 C 1376.72 409.98 1375.36 400.01 1376.41 391.82 C 1377.10 384.52 1381.57 376.95 1389.12 375.18 M 1392.47 379.54 C 1387.28 380.63 1384.76 386.03 1384.19 390.83 C 1383.54 396.71 1383.34 403.17 1386.40 408.45 C 1389.68 413.95 1397.91 414.45 1402.74 410.80 C 1406.11 408.28 1406.95 403.83 1407.31 399.90 C 1407.69 394.29 1407.54 388.28 1404.76 383.24 C 1402.29 379.13 1396.72 378.58 1392.47 379.54 Z" />
<path fill="#000000" opacity="1.00" d=" M 1489.03 375.07 C 1498.81 375.06 1508.60 375.07 1518.40 375.06 C 1518.38 376.78 1518.38 378.49 1518.40 380.21 C 1510.37 380.21 1502.35 380.21 1494.33 380.22 C 1493.53 384.11 1492.76 388.02 1491.92 391.91 C 1500.18 387.82 1511.23 388.41 1518.20 394.78 C 1523.14 399.22 1522.32 407.40 1517.94 411.95 C 1513.04 417.53 1504.90 418.19 1497.97 417.70 C 1491.18 417.21 1483.35 413.61 1482.50 406.03 C 1484.91 405.99 1487.34 405.99 1489.78 406.01 C 1491.57 412.92 1499.90 414.07 1505.86 412.76 C 1511.05 411.85 1515.15 406.27 1513.64 401.04 C 1512.83 397.90 1509.90 395.91 1506.98 394.98 C 1502.02 393.44 1496.25 393.92 1492.05 397.14 C 1489.95 398.84 1487.13 397.80 1484.71 397.95 C 1486.13 390.32 1487.56 382.69 1489.03 375.07 Z" />
<path fill="#000000" opacity="1.00" d=" M 587.13 388.11 C 592.31 383.92 599.54 383.80 605.84 384.68 C 610.92 385.34 616.14 388.67 616.76 394.16 C 614.55 394.17 612.34 394.17 610.14 394.14 C 607.93 387.82 599.73 388.21 594.44 389.54 C 591.46 390.13 590.26 394.44 593.33 395.84 C 600.15 399.08 608.39 398.04 615.02 401.88 C 619.23 404.52 618.66 411.00 615.00 413.88 C 609.33 418.70 601.16 418.35 594.21 417.53 C 588.48 417.05 583.56 412.63 582.84 406.87 C 585.10 406.85 587.37 406.85 589.64 406.86 C 590.34 409.29 591.67 411.79 594.30 412.53 C 598.95 413.94 604.34 414.04 608.75 411.79 C 611.06 410.76 611.87 407.12 609.54 405.68 C 602.39 402.34 593.70 403.49 586.91 399.16 C 582.98 396.69 583.75 390.71 587.13 388.11 Z" />
<path fill="#000000" opacity="1.00" d=" M 873.19 392.11 C 879.30 383.05 892.86 382.12 901.87 387.06 C 904.96 388.85 906.10 392.42 906.98 395.67 C 904.72 395.70 902.48 395.72 900.25 395.73 C 897.71 386.43 882.57 386.61 879.39 395.30 C 877.43 400.21 877.60 406.55 881.46 410.52 C 884.66 413.57 889.64 413.61 893.68 412.54 C 897.03 411.61 898.84 408.47 900.26 405.56 C 902.47 405.59 904.70 405.60 906.94 405.63 C 905.89 409.98 903.30 414.20 898.91 415.78 C 891.31 418.76 881.42 418.73 875.22 412.80 C 869.62 407.59 869.37 398.40 873.19 392.11 Z" />
<path fill="#000000" opacity="1.00" d=" M 687.56 385.30 C 689.97 385.22 692.39 385.20 694.81 385.19 C 694.83 395.72 694.81 406.26 694.82 416.79 C 692.42 416.79 690.02 416.79 687.63 416.81 C 687.54 406.31 687.68 395.80 687.56 385.30 Z" />
<path fill="#000000" opacity="1.00" d=" M 767.03 385.05 C 769.28 385.05 771.53 385.05 773.79 385.06 C 773.78 386.51 773.76 387.96 773.76 389.42 C 779.90 384.04 789.25 382.81 796.61 386.24 C 799.89 387.88 801.38 391.58 801.44 395.09 C 801.62 402.31 801.45 409.55 801.52 416.78 C 799.10 416.79 796.70 416.79 794.30 416.79 C 794.19 409.51 794.54 402.21 794.14 394.95 C 793.94 391.39 790.40 389.12 787.08 389.16 C 781.90 388.60 775.18 391.14 774.33 396.90 C 773.81 403.51 774.25 410.16 774.10 416.79 C 771.74 416.79 769.39 416.79 767.04 416.80 C 767.01 406.22 767.02 395.64 767.03 385.05 Z" />
<path fill="#000000" opacity="1.00" d=" M 978.94 388.87 C 986.68 382.82 998.48 382.96 1006.47 388.48 C 1010.95 391.65 1011.71 397.51 1011.75 402.60 C 1001.34 402.64 990.93 402.57 980.53 402.64 C 980.96 406.32 982.40 410.39 986.04 412.03 C 992.28 414.72 1001.02 413.44 1004.37 406.92 C 1006.66 406.89 1008.97 406.89 1011.28 406.93 C 1009.49 411.54 1005.64 415.25 1000.87 416.64 C 993.47 418.83 984.69 418.49 978.46 413.50 C 970.90 407.58 971.43 394.64 978.94 388.87 M 980.66 398.39 C 988.62 398.44 996.59 398.44 1004.57 398.39 C 1003.88 396.01 1003.34 393.37 1001.35 391.69 C 994.73 386.21 981.79 388.93 980.66 398.39 Z" />
</g>
</svg>
