<?xml version="1.0" encoding="utf-8"?>
<!-- Generator: Adobe Illustrator 19.0.0, SVG Export Plug-In . SVG Version: 6.00 Build 0)  -->
<svg version="1.1" id="Слой_1" xmlns="http://www.w3.org/2000/svg" xmlns:xlink="http://www.w3.org/1999/xlink" x="0px" y="0px"
	 viewBox="930 -92 2109 434" style="enable-background:new 930 -92 2109 434;" xml:space="preserve">
<style type="text/css">
	.st0{fill:#EAE5DF;}
</style>
<g id="_x23_eae5dfff">
	<path class="st0" d="M2604.4,28c11,10.6,19,23.8,27.1,36.6c4.9,7.8,9.8,15.5,14.6,23.2c-0.5,2.4-1,4.9-1.5,7.3
		c-4.8-7.1-9.5-14.4-14.2-21.6C2620.4,59.1,2613.1,43.2,2604.4,28z"/>
	<path class="st0" d="M1110.5,57.4c2.5-2.2,6.1-1.5,9.1-0.8c0.4,1,0.1,1.5-1.1,1.5C1115.8,58.6,1113.1,58,1110.5,57.4z"/>
	<path class="st0" d="M2848.1,73.3c0.2,0,0.5,0,0.7,0l0.8-0.8c-0.9,7.7-3.7,16.3-10.5,20.8C2842.8,87,2846.4,80.5,2848.1,73.3z"/>
	<path class="st0" d="M2016.1,166.9c1.9,2.8,3.5,5.8,5.4,8.7c-0.3,0.3-0.8,1-1,1.3C2018.6,173.7,2017.2,170.3,2016.1,166.9z"/>
</g>
<g id="_x23_000000ff">
	<path d="M2079.4-64.2c3.1,0.1,4.4,2.8,5.5,5.3c-3.2,23.2-6.3,46.5-9.4,69.8c-2.8,23.7-5.8,47.4-8.5,71.2c-1.3,20.3-2.3,40.7-3.4,61
		c-0.2,4.1,2.9,7.4,6.1,9.6c5.1,3.5,11.6,5.5,15,11c1.6,2.6,0.4,5.6,0.1,8.3c-7.9-3-16-5.9-23-10.7c-6.3-4.1-6.5-12.5-7-19.2
		c-0.6-6.3,1-12.9-0.9-19.1c-4.6,9.2-3.7,19.9-1.3,29.6c1,3.1,1.4,6.8,4.3,8.8c8.4,6.5,18,11.1,27.2,16.3c-1.2,1.3-2.3,2.6-3.5,3.9
		c-10.8-3.7-21.8-7.3-31.4-13.6c-7.7-5.2-10-15.2-8.8-24c1.6-14.3,1.9-28.6,2.2-43c-5.7,14.6-4.6,30.6-4.6,46
		c0.3,4-0.4,8.3,1.3,12.1c3.3,8.2,7.8,16.8,16.2,20.8c-3.3-0.2-6.8-0.6-9.7,1.4c6.1,7.3,16.5,4,24.7,5.5c-3.8,3.6-9.1,4.7-14.1,4.9
		c-7.6-0.6-14.8-3.6-22-6c-3.7-1.1-5.7-4.7-8.6-7c-0.5,0.6-1.6,1.7-2.1,2.3c1.7,1.9,3.4,3.8,4.8,5.9c-2,0.8-4.5,2-6.3,0.4
		c-6.8-5.1-10.2-13.2-12.7-21.1c-4.1-15.3-4.4-31.3-2.5-47c2.2-23.2,7.9-45.9,9.4-69.2c1.9-1.5,4-2.9,6.4-3.6c1.8,8-2.8,16-1,24
		c2.7-5.5,3.2-11.6,4.2-17.5c1-7.4,2.1-14.7,3.7-22c1-1.7-1.6-4.9-3-2.6c-2.2,2.7-1.7,6.5-2,9.7c-0.2,1.6,0.5,4.1-1.5,4.8
		c-1.3,0.2-2.7,0.2-4,0.2c0.6-0.6,1.7-1.7,2.3-2.3c-1-3.2-3.1-6.2-2.5-9.6c2.2-29.2,12.1-57.3,13.6-86.6c6.6-0.5,13.2,0.4,19.8-0.3
		c-1.9,14-3.7,28.1-5.6,42.1c-1.3,0.3-2.5,0.5-3.8,0.8c0.6,2.5,2.2,4.6,3,7.1c-1.9,6.4,0.2,13.2,0.2,19.8c5-12.7,6.1-26.5,7.4-39.9
		c1-9.9,1.9-19.8,3-29.7c1-0.7,2-1.4,3-2.1c1.4,2.6,0.3,5.4,0.1,8.1c-6.3,48.2-12.6,96.5-18.8,144.7c-0.5,2,1.3,3.4,2.2,4.9
		c0.9-1.6,2.2-3.1,2.3-4.9c2.9-23,6-46,8.9-69.1c3.9-29.7,6.6-59.7,13.7-88.9c1.8,1.9,4.3,3.4,5.5,5.8c-3.3,34-7.3,67.9-10.6,101.9
		c-0.5,1.6,1.8,0.1,1.3-0.8C2069.1,8.1,2074.3-28,2079.4-64.2 M2029.5,10.4c1.6-3,1.7-6.4,2.2-9.6C2029.9,3.7,2028.3,7,2029.5,10.4
		 M2028.2,83.4c-1.2,8.9-1.8,17.8-2.7,26.7c-1.5,12.9-1.4,25.9-2.1,38.9c6.1,6.7,3.9,18.1,12.4,23.1c-1.9-7.1-2.9-14.9-8-20.6
		c-2.2-10-1.9-20.3-1.8-30.5c1.6-10.9,2.5-22,3.8-33C2030.3,86.2,2029,84.9,2028.2,83.4 M2018.8,96.2c0.8-2.7,0.8-5.4-0.1-8
		C2015.9,90.1,2015.9,94.4,2018.8,96.2 M2015.7,134.1c0.6-5,0.3-10.1-0.1-15.1C2015.5,124,2013.2,129.3,2015.7,134.1 M2016.1,166.9
		c1.1,3.4,2.5,6.8,4.4,9.9c0.3-0.3,0.8-1,1-1.3C2019.6,172.7,2017.9,169.7,2016.1,166.9 M2040.1,176.6c2.3,0.3,4.6,0.6,6.9,0.9
		c-1.3-1.6-2.7-3.3-4.5-4.3C2041.3,174,2040.8,175.4,2040.1,176.6z"/>
	<path d="M2927.3-58.8c0.3,0,0.9-0.1,1.2-0.1c1.5,4.1,1.2,8.6,1.1,12.9c-1.9,2.6-3.1,5.7-3.7,8.9c0.8,0,2.3,0.1,3.1,0.1
		c0.8-1.8,1.6-3.6,2.5-5.4c-0.3,12.9-5.4,25-8,37.4c-1.6,7.2-2.3,14.9-0.4,22.1c1.7-5.7,4.8-11,6.4-16.8c2.9-11.9,4.9-23.9,8-35.7
		c0.1,17.9-4.6,35.3-7.2,52.9c1.9,0.5,3.9,0.8,5.9,0.9c3.2-8.4,4.8-17.4,6.1-26.3c1.8-12.9,3.6-25.7,5.3-38.6
		c1.2-0.6,2.5-1.2,3.8-1.7c0.8,3.4-0.2,8.3,3.5,10.2c2.5-3.6,1.3-8.1,1.8-12.2c0.2-1.6,1.7-2.4,3-3.1c2,3,0.9,6.7,0.9,10.1
		c-0.4,10.1-1.2,20.1-1.3,30.1c2.3-0.1,2-2.6,2.5-4.1c2.1-11.2,2-22.8,5.4-33.8c1.1-3.3,2.1-6.8,4.9-9.1c-0.6,9.4-2.2,18.6-3.3,27.9
		c-1.9,14.8-3.8,29.5-5.7,44.3c5.7,4.2,13,4.5,19.8,3.9c6-0.4,13.7,0.6,16.5,6.9c-2,4-6.5,6.4-7.9,10.9c-0.3,2.5,2.6,3.6,4.2,4.9
		c-0.1,0.8-0.4,2.6-0.5,3.4c-7.4-1.3-14.8-2.7-22.2-3.9c-4.1-0.7-8.3,0.5-10.9,3.8c6.1,3.3,13.1,4.1,19.9,4.5
		c3.9,0.3,8,1.6,10.8,4.4c-7,0.5-14-2.5-20.9-0.9c4.5,2.2,9.4,3.1,14.3,3.9c2.5,0.5,5.7,1.7,6,4.7c-0.2,2.4-1.3,4.5-2.1,6.7
		c-8.8-0.6-17.4-2.7-26.2-3.9c-2.8-0.4-5.5,0.3-8.2,0.8c-3.7,21.5-9.1,42.7-11.5,64.4c-2.5,18.6-4.8,37.3-7.4,55.9
		c-3.3,0.5-7.3-0.3-8.4-3.9c-0.2-3.7,1.3-7.2,1.7-10.8c2.8-14.2,2.5-28.8,3.3-43.2c-4.6,10.1-5.7,21.3-7,32.1
		c0.1,11.4-2.5,23.3-10.3,32.1c-1.8-2-3.6-4-5.4-6c3.5-23.3,6.2-46.8,10.4-70c2.8-16.4,5.7-32.7,8.4-49.1c0.4-2.5-2.9-1.6-4.3-1.9
		c-4,11.6-4.8,24-6.5,36.1c-1.3,10.6-3.3,21.1-4.4,31.8c-0.8,4.7-2,9.3-2.7,14c-0.9,6.2-4.1,11.9-5.3,18c-1.6,7.6-0.6,15.5-1.4,23.2
		c-0.1,1.6-1,2.9-1.6,4.3c-3.9-3.8-4.8-9.6-4-14.8c5.5-33.8,10.9-67.6,16.4-101.4c0.4-2.9,1.2-5.8,1-8.7c-2.4-0.3-4.5,2.5-4.9,4.7
		c-6.9,42.5-13.9,84.9-20.8,127.4c-0.7-0.1-2.2-0.2-2.9-0.3c-1-1.4-2-2.8-3-4.2c-1.4,1.4-3.4,6.4-5.4,3.1c-0.6-3.3,3.4-4.4,5.5-6
		c-1.7-2.4-3.4-4.7-5.2-7.1c5-38.6,10.4-77.2,15.4-115.7c-9-2.8-18.2,4.6-26.9,0.2c0.5-2.5,0.5-5.4,2.6-7.3c2.5-2.3,5.5-3.9,8.4-5.6
		c4.3-3,9.9-0.2,14.5-2.4c2.2-1.3,3.6-3.5,3.5-6.1c-5.8-1-12-0.5-17.5-2.6c2.1-2.5,5-4.1,7.2-6.5c-0.1-0.8-0.4-2.4-0.6-3.2
		c4.4-0.8,8.1-3.3,12.1-5.1c-3.4-0.5-6.7-1.1-10-1.8c5-1.4,10-3.6,13.4-7.6c2.4-2.8,3.4-6.5,3.4-10.1c0.1-13.9,2.9-27.5,5.8-41
		c0.7-1.9,0.4-5.2,3.2-5.2c-0.2,12.6-3.3,24.8-4.6,37.3c-0.8,6.7-1.8,13.4-2.3,20.2c5-6.6,6-15.2,7.6-23.1c1.7-12.4,4-24.8,6-37.1
		C2922-47.2,2922.5-54.2,2927.3-58.8 M2953.6-11.9c-0.9,4.7-3,9-4.5,13.5c2.5,3.8,0.1,8.3,0.6,12.5c1.9-4.4,2.6-9.2,5-13.4
		c2.1,4.4-0.4,9.1,0.8,13.6c1.6-7.2,2.4-14.5,3.5-21.8c-1.4,2.1-2.6,4.2-4.1,6.2c0.1-3.9,0.4-7.8,0.6-11.7c0.3-6.3,1.9-12.6,1-19
		C2955.7-25.3,2954.9-18.6,2953.6-11.9 M2889.1,37.2c3.1,0,6.8,1.3,9.4-0.7c1.1-0.6-0.3-2.7-1.4-2.3
		C2894.4,34.8,2890.8,34.6,2889.1,37.2 M2928.1,42c-0.3,1.4-0.6,2.8-0.9,4.2c1.7-1,3.3-1.9,5-3C2930.9,42.8,2929.5,42.4,2928.1,42
		 M2883.7,58.6c3.5-0.3,9.1,1.3,10.5-3.2C2890.5,56,2887,57.1,2883.7,58.6 M2943.2,73.8c-2.3,8.9-1.6,18.2-2.7,27.3
		c1.6-5.5,3.1-11.1,4.8-16.6c2.2-7.1,2.5-14.6,1.2-21.9C2945.1,66.3,2944.1,70,2943.2,73.8z"/>
	<path d="M1076.9-56.2c19.6-4,40.5-2.8,58.8,5.5c2.2,0.9,4.2,2.7,6.8,2.8c0.4-1.9-1.8-3.2-2.6-4.9c10.3,4.1,20,10.1,28,17.8
		c5.7,5.5,9.6,12.9,10.5,20.8c-1.8,0.7-3.7,1.5-4.7,3.3c-9.3-1.6-12.9-11.3-18.1-17.9c-6.5-9.3-16.8-14.7-27-19.1
		c-8.1-3.6-16.9-5.7-25.8-5.5c-1.3,0-2.6,0.2-3.7,0.8c8.6,0.1,16.9,3.2,24.7,6.6c18.6,8.9,35.7,23.8,42.1,44c-1.9-0.2-4-0.1-5.5-1.6
		c-3.4-3.2-4.5-8.1-7.9-11.2c-12.4-11.8-27.2-21.5-43.8-26.1c-2.4-0.3-3.9-2.2-5.3-3.8c-1.3,1.3-2.6,2.6-3.8,4
		c13.9,5.3,27.1,12.2,39.3,20.7c7.5,5.4,12.6,13.5,15.9,22.1c-6.7-1.1-9.9-9.4-17.1-8.3c0.6,1.6,1.2,3.2,1.8,4.8
		c-5.1-3.6-9.4-8-13.8-12.4c-3.3-3.2-7-6.5-11.7-7.6c-3.6-0.8-6.7-3.3-10.5-2.8c11.2,10,26,17.5,31.7,32.3c-2.4,0-5,0.2-7.1-1.2
		c-6.5-4-10.5-11-17.1-15c-14.2-7.8-29.6-14.6-46.1-14.8c-11-0.4-22.8,2.2-31,9.9c-13,19-19.4,42.1-19.5,65.1
		c1.4-5.1,2.2-10.2,3.8-15.2c-2.1,20.1,0.9,40.9,9.5,59.3c8.7,19.4,24.8,34.5,43.2,44.7c13.7,6.8,30.1,7.2,44.5,2.6
		c2.9-18.3,5.2-36.7,7.4-55.1c-0.8-0.7-1.5-1.5-2.3-2.2c-16.6-0.1-33.1,0-49.7,0c-1.7,0-3.5-0.3-5.1-0.7c8.3-2.6,17.1-1.1,25.7-2
		c2.1-0.3,3.8-1.6,5.5-2.7c-10.2-3.4-21.1,0.8-31.3-1.8c0.8-1.7,1.6-3.4,2.3-5c16.6-2.4,33.4,1.2,50-1.2c4.3-0.5,8.4-2.3,12.2-4.4
		c-5.4-0.4-10.7-1.5-15.5-3.9c-0.5,0.6-1.4,1.7-1.8,2.2c-1.8-0.8-3.7-1.6-5.5-2.3c-0.3,0.6-1,1.9-1.3,2.5c-10.3-1.3-20.8,0.6-31-1.8
		c0.9-5.1,6.5-6.3,10.8-6.2c3.6,0.1,7.3,0.4,10.8-0.4c-1.5-2.6-4.2-3.9-6.9-5c16-0.4,32.2-1.4,48,1.4c5.9-4.8,14.6-0.7,20.1-6.1
		c-24.3-1.6-48.6-2.7-72.9-4.1c1-1.1,2-2.1,3.1-3.2c13.9-0.7,27.8-1.2,41.7-1.9c18.5-2.2,36.9-4.5,55.4-6.8c0.4,1.2,0.8,2.4,1.1,3.7
		c-1.6,1.4-3.5,2.5-4.3,4.6c2.9,2.5,4.3,6.4,3.3,10.1c-1.9,7.4-4.4,14.6-6.7,21.8c-8.4,28.2-8.8,57.8-11.5,86.8
		c-0.2,2-2.8,2.2-4.1,3.1c-0.7-3.9-1.5-7.7-2.3-11.6c-0.8-4-0.6-8.2-1.9-12.2c-0.8-2.5-2.3-4.6-3.5-6.9c-0.3-10,0.7-20.1,0.1-30.1
		c-2.5,11.4-4.1,23-3.4,34.7c0.6,8.9,0.7,17.9,3.1,26.5c-3.4,2.4-5.9,5.8-7.3,9.7c-4.7-3.2-3.2-9.7-5.8-14c-0.9-1.6-2.8-1.5-4.4-1.7
		c-1.2,5.9-1.9,11.9-2.5,17.8c-3-1-6-3.2-9.2-2.2c-3.2,1.2-1.2,5.1-1.3,7.5c-4.3-2.2-2.2-9-6.7-11.1c-3.8,1.4-7.4,3.5-11.1,5.1
		c1.3,0.9,2.6,1.8,3.9,2.7c-5.4,3.9-12.3,4.5-18.3,6.9c3.8,0.6,7.7,0.6,11.5,1.1c-30.8,10.2-66.2,4.1-92.4-14.7
		c-8.5-6.1-16.6-12.8-22.9-21.2c-7.6-10.1-12.7-21.8-16.1-33.9c-5.3-18.9-7.5-38.6-7.6-58.2c0-3.4,0.8-6.8,1.5-10.2
		c2.9-13,7.7-25.5,13.9-37.2c1.2-2.3,3.4-3.9,5.1-5.9c4.9-5.8,8.9-12.4,14.4-17.6c7.9-7.5,15.9-15.2,25.4-20.7
		C1041.5-44,1058.5-52.4,1076.9-56.2 M1047.9-41c7.9-2,16.4-4.3,21.9-10.8C1061.8-50.1,1053.4-47.3,1047.9-41 M1020.3-23.7
		c-2.4,2.5-5.6,4.3-7.2,7.5c9.3-6.1,18-13,26.9-19.6C1032-34.7,1025.8-29.1,1020.3-23.7 M1013.8-6.8c-3.3,2.5-6.4,5.3-8.7,8.8
		c-8.4,12.5-9.5,27.8-13.2,42c-6.8,24.3-4.2,51.2,7.7,73.5c5.8,10.9,12.7,21.7,22.5,29.4c11.6,8.4,23.7,16.5,36.9,22.2
		c11.6,4.5,25.4,4.1,36.1-2.6c-7-0.7-14.1,0.5-21.1,0.3c-18.1-1.6-35-10.4-48.5-22.2c-10.4-9.2-19.3-20.8-23-34.3
		c-1.8-3.4-3.8-6.8-5-10.5c-7.9-22.4-7.8-47.4-0.6-69.9C1000.3,16.9,1006.2,4.5,1013.8-6.8 M1006.4,58c3.3-15.3,6.2-30.7,9.2-46.1
		C1009.1,26.4,1006.8,42.3,1006.4,58 M1110.5,57.4c2.6,0.6,5.3,1.2,8,0.7c1.2,0,1.6-0.5,1.1-1.5C1116.6,55.9,1113,55.2,1110.5,57.4
		 M1143,85.3c-5.6,15-4.7,31.2-5.2,46.9c1.2-1.1,1.7-2.5,1.8-4c1.9-14.4,3.9-28.9,5.8-43.3C1144.8,84.9,1143.6,85.2,1143,85.3
		 M1135.5,86.1c-2.4,10.3-6.3,20.3-6.9,31c-0.3,6.4-0.6,13,1.3,19.2c0.9-1.4,2.1-2.6,2.1-4.3c2.4-15.3,4.8-30.6,7.1-45.9
		C1137.9,86,1136.7,86.1,1135.5,86.1 M1012.4,102.1c0.4,4.5,4.3,7.4,6.3,11.3c3.4,5.9,6.9,12.9,14.1,14.6
		c-10.7-11.9-16.8-26.8-22.4-41.5C1008.2,91.7,1011.4,97,1012.4,102.1 M974.3,93.8c-0.5,16.6,7.3,32.5,17.5,45.2
		C983.7,125,975.8,110.2,974.3,93.8 M1037.8,133c1.9,2.4,4.1,4.4,6.5,6.3C1043.2,136.4,1040.3,134.7,1037.8,133 M1138.6,144.1
		c0.7-2.2,1.1-4.6,0.9-6.9C1135.6,136.9,1133.9,144.3,1138.6,144.1 M997.8,140.9c7.1,12.5,19.1,21.8,32.3,27.1
		C1018.5,160,1008.8,149.7,997.8,140.9 M1128.3,148.6c0.6,0,1.7,0,2.3,0.1c0.1-1.7,0.2-3.4,0.2-5
		C1129.7,145.1,1129,146.9,1128.3,148.6 M1056.8,183.4c10,1.6,20.5,3.2,30.5,0.8C1077.2,182.7,1067,183.7,1056.8,183.4z"/>
	<path d="M2941.2-58.6c1.5,1,3.2,2.5,2.7,4.6c-0.9,4.1-2.9,8-4.8,11.7C2937.4-47.8,2938.9-53.6,2941.2-58.6z"/>
	<path d="M2501.5-53.3c2.3,0,3.8-1.6,4.5-3.7c8.4,0.3,12.6,8.9,20,11.6c1.3-0.4,2.6-0.9,3.9-1.3c-2.1-2.5-4.8-4.4-6.6-7.1
		c9.4-1.8,19.1,4.6,22.4,13.3c1.6,4.1,5.7,6.2,8.7,9.1c18.9,16.8,40,32.1,53,54.2c3.1,6.2,8,11.3,12.2,16.7
		c9.5,11.9,18.9,23.9,28.5,35.7c1.6-3.8,2.7-7.9,3.3-12c1.1-8.1,2.2-16.1,3.2-24.2c0.4,13.5-2.5,26.9-2,40.4
		c3.7-7.1,5.5-15.2,5.8-23.2c1-12.1,1.1-24.2,2.8-36.2c0.7-9,2.8-18,1.3-27c-4.3,12.2-5.2,25.3-6,38.1c-0.5-13.7,0.7-27.3,0.8-41
		c-0.1-11.9,1.9-23.9,5.6-35.2c0.6-2.8,3.5-3.5,5.9-4.2c3.1,12.3,0.4,25.3,3.6,37.5c1.8-2.4,3.5-5,3.6-8.1c0.2-7-0.1-14-0.1-21
		c-0.2-3.3,1.3-6.2,3-8.9c3.3,1.7,4.2,6,8,7.1c1.1-3.8,1.2-9.1,5.9-10.4c1.7,8.2-1.8,16.1-3.3,24c-1.2,4.9-1.2,10-2,14.9
		c-1.5,9.5-1.6,19.6-6.5,28.2c3,11.3-1.5,22.6-0.9,34c0.1,1.3-0.4,4.8,2.1,3.4c2.3-9.6,1-20,5.1-29.2c1.4-3.4,4.1-5.9,7.2-7.8
		c0.4,25.3-3.3,50.4-6.2,75.5c-1.3,12-2.9,24-4.1,36c-1,15.6-2.4,31.2-3.1,46.9c4.1-7.9,4.8-17.1,4.8-25.8
		c0.1-14.7,2.5-29.3,4.1-43.9c5.1-45.7,11.7-91.2,16.7-137c0.1-3.8,1.6-7.6,0.8-11.3c-0.9-0.1-2.8-0.4-3.7-0.5
		c-3.3,19.2-5.6,38.6-9.1,57.7c-0.2-1.2-0.4-2.5-0.5-3.8c-2.8,0.2-4.9,2.2-5.9,4.6c4.4-21.7,8.2-43.6,12.1-65.5
		c3.2,3.9,8.6,2.4,12.9,2c0.7,4.1,2.8,8.1,2.1,12.4c-3.2,21.7-6.4,43.5-9.6,65.2c-2.6,25-5.1,50-7.8,74.9
		c-2.8,22.3-5.8,44.5-8.6,66.8c-0.5,3.6-0.3,7.7-2.8,10.6c-3.1,3.5-6.8,6.5-10.8,8.7c0.1-14.5,2.2-29.8-3.7-43.5
		c-1.7,2.8-1.2,6.2-1.5,9.3c-0.7,11-1.1,22-1.9,33c-1,4-6.2,2.7-9.2,3.5c-2.3-2-4.5-4.1-6.6-6.3c-0.4,2.5-1.8,5.3-4.7,5.5
		c-1.6,0-4.3,0.7-4.5-1.6c-5.1-21.3-19.5-38.5-28.5-58.2c-1.2,0.9-3.3,1.3-3.2,3.1c-0.3,3.5,2.4,6.1,3.9,9.1c2.7,5.1,6.6,10,7,16
		c-16.7-33.3-36.2-65.4-59.9-94.1c-7.8-9.5-16-18.7-24.6-27.6c-4.5,6.3-4.2,14.3-5.4,21.6c-5.9,43-11.3,86.1-17.4,129.1
		c-1.7-0.5-3.3-1.3-4.8-2.1c4.1-22.8,8.4-45.6,12.4-68.5c3.5-28.2,7-56.5,10.4-84.7c-4,6-4.8,13.2-6.2,20.1
		c-4.6,24.5-6.6,49.4-9.6,74.1c-2.4,19.3-3.1,39.3-11.2,57.3c-3,1.1-3.1-3-4.5-4.6c-1.5,3.2-0.9,8-5,9.1c0.6-7.5,1.5-14.9,2.4-22.4
		c-2.2,0.8-5,1.7-6.6-0.7c-1.5-2.7-1.8-5.9-3.1-8.8c-3.5,3.3-1.6,9.5-6.1,12c-1.4,0.8-1.5,2.6-1.4,4c0.5,3.8,2.2,7.3,2.4,11.1
		c-0.9,2-3.5,1.8-5,3c-1.8,1.4-3.3,3.1-4.9,4.6c-0.9-1.4-1.5-2.9-1.2-4.5c1.5-26.2,8.4-51.9,9.6-78.1c-6,8.9-3.4,20-5.1,30
		c-3.8,13.8-5.6,28.2-8.6,42.2c-4.6-1.8-8.1-5.4-11.4-8.9c5.4-24.4,10.9-48.8,16.3-73.1c2.1-8.9,3.2-18.1,4.4-27.2
		c2-16.6,3.2-33.3,3.5-50c0.1-3-0.2-6.1,0.6-9c2.6-9.2,0.6-18.8,0.3-28.2c-5-3.1-10-6.3-14.9-9.5c-3.1-2-5.2-5.2-6.8-8.5
		c7.6,3.7,14.7,8.4,22.3,12c1.1-3.3,0.5-7.3-2.2-9.6c-4.1-3.7-10-5.1-13.3-9.9c5.5,1.4,11,2.9,16.7,3.3c1.1-4.2-3.2-6.3-4.9-9.6
		c0.9,0.1,2.6,0.4,3.5,0.5c2.1-2.5,2.2-7.4,6.3-7.3c2.6,3.8,7.2,5,11.3,6.4C2501.5-50,2501.5-51.7,2501.5-53.3 M2518-40.8
		c-1.5-6.2-7.7-8.8-11.9-12.8C2509.9-49.3,2513.5-44.6,2518-40.8 M2493.6-46.2c1.8,2.9,5,4.4,7.9,5.9c0.1-0.2,0.2-0.7,0.3-0.9
		C2499.7-43.8,2496.5-44.9,2493.6-46.2 M2545.8-34c5.1,6,10.9,11.5,18,14.9c-3.5-4.1-6.9-8.3-10.6-12.3
		C2551.4-33.5,2548.3-33.6,2545.8-34 M2662.4-20c1.1-4.3,3-8.8,1.3-13.2C2663-28.8,2662.7-24.4,2662.4-20 M2526.6-15.6
		c0.7-3.2,0.8-6.5-0.1-9.6C2526-22,2525.2-18.7,2526.6-15.6 M2551-14.3c0.5,4.8,4.8,7.4,8.4,9.9C2558.3-8.9,2554.9-12.3,2551-14.3
		 M2494.3-8.1c-1.6,11-2,22.2-3.1,33.2c-0.2,5.1-1.4,10.1-0.8,15.2C2493.8,24.4,2496.4,8.1,2494.3-8.1 M2505.9-5
		c-0.2,1-0.4,1.9-0.6,2.9c0.7-0.7,1.4-1.4,2.1-2.1c1.5,1.5,3,3,4.5,4.5c0.6-1.7,1.7-3.4,1.2-5.3C2511.3-7.7,2508.3-5.5,2505.9-5
		 M2575.7-6.3c2.2,2.8,4.7,5.4,7.6,7.5C2581.7-2,2579.4-5.4,2575.7-6.3 M2672.1,6.1c0.2-3.4,0.2-6.8,0-10.2
		C2670-1.1,2669.6,3.1,2672.1,6.1 M2543.7-1.2c-0.4,2.4-0.8,4.8-1.2,7.2c7.6,7.8,15.3,15.7,22.9,23.5c5.5,6.2,10.9,12.7,16.3,19
		c0.7,1.4,2.3,1.1,3.7,1.4c0.3-0.7,0.9-2.2,1.2-2.9c-2.7-3.9-4.9-9-9.7-10.6c-3.2-1.2-5.8-3.6-7.9-6.3c-3.6-4.7-7.3-9.5-9.9-14.9
		c1.9,1.6,3.6,3.5,6,4.5c-1.4-2.5-3.7-4.2-5.7-6.1C2554.2,8.7,2549.2,3.4,2543.7-1.2 M2565.9,1.6c1.7,3.5,4.6,6.3,6.9,9.4
		c2.4,2.8,4.3,6.1,7.3,8.4c-1.9-3.5-4.7-6.4-7.1-9.5C2570.7,7.2,2568.8,4,2565.9,1.6 M2510.3,5.6c-3.2,22.8-6.2,45.6-9.2,68.3
		c-0.1,6.7,0.4,13.4-0.8,19.9c-2,10.7-4.2,21.5-5.1,32.4c4.2-12.4,6.9-25.3,8.3-38.3c2-15.7,4.3-31.3,6-47.1
		c1.1-8.3,1.7-16.7,4-24.8c1.9,1.3,3.9,2.5,6.1,3.4c-0.4,21.4-4,42.5-7.5,63.5c-4,23.9-9.3,47.8-10.5,72c0.9-3,1.3-6.1,1.9-9.2
		c3.3-19.1,8.5-37.8,12.2-56.8c2.7-13.7,6.4-27.2,7.8-41.2c0.8-8.2,1.5-16.5,1.4-24.8c-1.5-3.4-4.2-6.1-6.1-9.3
		c-1.7-0.2-3.8,0-4.8-1.8C2512.7,9.8,2512.3,7.2,2510.3,5.6 M2668.8,24.2c3.5,0.2,1.7-3.6,2-5.7C2670,20.4,2669.4,22.3,2668.8,24.2
		 M2538,27.6c0.1,0.5,0.2,1.6,0.3,2.1c16.2,16.1,29,35.2,43.9,52.5c-2.4-6.6-6.1-12.7-7.4-19.6c-0.9,1.1-1.9,2.2-2.7,3.3
		C2560.6,53.1,2549.8,39.9,2538,27.6 M2604.4,28c8.7,15.2,16,31.2,26,45.6c4.7,7.2,9.4,14.5,14.2,21.6c0.5-2.4,1-4.9,1.5-7.3
		c-4.9-7.8-9.8-15.5-14.6-23.2C2623.4,51.8,2615.4,38.6,2604.4,28 M2586.2,50.6c5.8,10,12.2,19.8,18.2,29.8
		c9.2,14.7,18,29.7,27.5,44.2c0.5-2.1,1.5-4.4,0.6-6.5c-1.3-3.4-3.8-6.1-5.4-9.3c-1.3-2.4-1.5-5.3-3-7.6
		c-6.4-10.3-12.8-20.7-19.3-31c-3.4-5.3-6.2-11-10.1-16c-1-2-3.5-0.7-5.1-0.7C2588.7,52.2,2587.7,51.1,2586.2,50.6 M2587.2,82.2
		c-1.7,4.2-1.4,10.3,3.8,11.8c0.8-1.5,2.1-3.1,1.6-4.9C2592,86.1,2589.4,84.1,2587.2,82.2 M2594.2,90.9c-0.4,1.4,0.8,4,2.4,3.7
		C2597.4,93.2,2595.9,90.2,2594.2,90.9 M2648.7,96.6c-0.3,3.6-2.2,8.9,2,10.9C2650.8,103.8,2651.2,99.7,2648.7,96.6 M2646.4,121.7
		c0.5,2,0.8,4.2,2.3,5.8C2648.8,125.3,2648.9,122.6,2646.4,121.7 M2638.6,139.1c-0.2-3.6-0.5-7.3-1.1-10.8
		C2632.7,130.4,2635.9,136.5,2638.6,139.1 M2658.5,139.7c-1.2,3.6-2.2,7.4-2.1,11.2c0.7,11.9,5.1,23.5,4.3,35.5c0.5,0,1.4,0,1.8,0.1
		c-2.8-11.7-1.5-23.7-2.1-35.5C2660.5,147.1,2660.2,143.2,2658.5,139.7z"/>
	<path d="M1783.7,36.9c2.2-3.3,1.3-7.3,2.4-10.9c1.8-1,3.9,0.2,5.9,0.3c2.2,13.2,1.2,26.6,3.8,39.7c2.2,11.9,5,23.7,8.8,35.2
		c-0.5,3.2-1.6,6.3-1.7,9.6c-1.3,0-2.6,0.1-3.8,0.2c-2.3,1.5-1.7,5.9-4.9,6.2c-2.6,0.6-3.1-2.5-4.2-4.1c-4-6.8-7.4-13.9-10.5-21.1
		c-0.8,3.8-1.7,7.9-0.1,11.6c2.8,5.8,6.8,10.9,9.7,16.6c0.1,2.7-2.9,2.9-4.9,3.4c-5.4-6-8.8-13.6-10.8-21.4c-2-8.9-3.6-18-5.7-26.9
		c-3.2,2.7-2.9,7-2,10.7c1.3,6.5,1.3,13.4,3.7,19.6c3.2,8.4,6,17,10.1,25c-1.4,0.7-3.8,1.3-3.2,3.4c0.4,2.7,0,5.2-2.4,6.8
		c-7.5-7.8-11-18.4-13.2-28.7c-1.5-7-4.2-13.8-4.2-21c-0.1-3.2-1.1-6.2-2.3-9.1c-3,2.4-5.4,5.4-7.6,8.5c1.1-0.1,3.1-0.3,4.2-0.5
		c-8.6,11.9-15.6,25.1-20.7,38.9c-6.4,17.5-10.6,35.7-14.2,54c-2.9,1-5.8,1.6-8.8,2.1c2.2-10.7,5.1-21.3,6.8-32
		c-3.4,9.9-6.9,19.8-10.2,29.8c-1.6,0.7-3.2,1.4-4.9,2.1c5.1-13.4,8-27.8,7.9-42.2c-7.9,13.2-7.6,29.4-13.4,43.4
		c-4.8,2.7-10.8,4.1-13.8,9.2c-3.8-2.1-5.5-6.3-6.6-10.2c-0.8-1.6-0.1-3.4,0.2-5c5.5-24.2,9.1-48.8,12.2-73.5
		c2.4-19.5,3.1-39.1,3.2-58.7c3.2-0.7,6.6-1.2,9-3.7c4.3,2,7.3,6.2,8,10.9c0.8,6.6,1.4,13.3,2.1,19.9c2.6,16.4-5.4,31.9-6.7,48.1
		c-0.3,14.8-6.1,28.7-8.9,43.1c3.9-3.5,4.1-9,5.6-13.6c4.9-17.9,11.1-35.5,14.2-53.9c2.1-12.4,2.5-25.2,0.2-37.7
		c-1-6-4.1-11.3-6.3-16.8c0.1-1.7,1.1-2.6,2.3-1.2c4.4,4.5,5,11.1,7.6,16.6c0.3,0.3,0.9,0.9,1.2,1.1c2.1-6.7-0.9-13.3-3-19.6
		c2.5,0,4.9,0,7.4,0c-0.1-2.2-0.2-4.4-0.2-6.7c2.7,1,5.5,2.6,6.4,5.6c2,5.9-0.4,13.1,4.2,18c1.8-4.5,0.6-9.3,0.5-14
		c-0.2-2.5,1.6-4.4,3.2-6c4.2,14.6,2.3,30,2.6,45c6.2-4.7,12.2-10,16.1-16.9c1.7-2.7,1.8-6.5,4.8-8.2c5.5-3.9,10.8-8.7,13.4-15.1
		c4.8-0.3,6-5.1,7.5-8.7C1781.1,34.9,1781.9,36.9,1783.7,36.9 M1696.6,61.2c0.9,5,0.9,10.1,1.9,15.1c0.6-9.2,1.5-19.5-4.3-27.3
		C1694.8,53,1696,57,1696.6,61.2 M1774.1,54.9c-0.5,2.8,0,5.7,1.3,8.2c1.4-3.4,2.7-7.9,0.2-11C1774.2,52.1,1774.4,53.8,1774.1,54.9
		 M1722.9,102.7c1.7-1.2,2-3.3,2.6-5.1c3-11.2,4-23,2.7-34.5C1726.1,76.2,1724.4,89.5,1722.9,102.7 M1739.6,87.4
		c-0.9,2.7-3.4,5.6-1.7,8.4c5.8-6.8,12-13.6,15.2-22C1748.5,78.2,1743.8,82.6,1739.6,87.4 M1773.7,128c-2.8-7.1-4.2-14.8-8.2-21.3
		C1765.4,114.4,1767.6,122.9,1773.7,128 M1716.1,137.1c4.3-4.3,3.9-10.7,4.7-16.3C1719,126.1,1717.3,131.6,1716.1,137.1
		 M1680.3,174.3c1.4-2.2,1.8-4.9,2.4-7.4C1681.3,169.1,1679.9,171.5,1680.3,174.3 M1691.4,168.3c-1.5,5.5-4.2,10.9-4.1,16.7
		c2-4.5,3.4-9.3,4-14.2C1691.3,170.2,1692.2,168.7,1691.4,168.3z"/>
	<path d="M2191.9,30.1c2.9-0.8,5.7-2.3,8.8-1.7c-6.7,1.2-13.2,3.6-19.1,7.1c-7.8,4.6-15.5,9.3-23.3,13.8c-1.4,0.9-3.1,1.7-3.6,3.4
		c10.6-4.2,20.8-9.5,31.2-14.2c0,0.9,0.1,2.6,0.1,3.5c0.6,0,1.9-0.1,2.6-0.1c0.6-4.1,4.6-6.2,8.3-6.8c5.6-1,11.2-3.4,17-2.7
		c9.5,0.4,18.4,4.5,26.7,8.8c3.5,2,7.6,3.7,9.9,7.2c14.3,19.1,17.2,44.9,11.4,67.7c-1.8,10.9-7,20.9-12.8,30.2
		c-8.4,14.2-21,26.1-36.3,32.7c-9.5,4.4-19.3,9.6-30.1,9.3c-21.1-0.2-43.4-0.6-62.6-10.6c-10.2-8-16.2-20.2-18.6-32.6
		c-3.1-15.7-4.5-32.6,1.3-47.9c5.8-15.7,17.5-28.3,30.1-38.9c7.1-5.7,14.6-11.2,22.9-15.2C2168.3,39.4,2179.7,33.5,2191.9,30.1
		 M2190,45.4c6.6,1.1,13.3,4,20,2.4C2204.1,43.9,2196.6,43.7,2190,45.4 M2217.3,44.9c2.5,2.7,6.6,3.6,8.2,7.2c0.7,0,2,0,2.7,0
		c13.8,12.3,21.8,30,25,48c2.2-8-0.6-16-2.8-23.7c-0.9-2.7-1.2-5.6-3.1-7.8c-3.7-4.6-7.4-9.3-11.1-13.9
		C2231.6,49.1,2224.7,45,2217.3,44.9 M2133.8,85.8c-3,7.4-1.5,15.6-2.5,23.4c-0.7,5.4,0.3,11.2,3.6,15.7c1.2-12.1-3-24.7,1.6-36.4
		c4.7-12.8,15.8-21.5,23.7-32.3C2149.2,63.5,2137.9,72.6,2133.8,85.8 M2206.9,57c7.2,8.8,17.3,15.4,22.2,25.9
		c5.3,10.5,6.9,22.8,4.4,34.2c-2.6,9.1-7.1,17.6-9.4,26.9c2.2-3.8,4-7.8,6-11.8c3-6.3,6.9-12.3,8.2-19.3c1.4-7.2,0.7-15-2.7-21.6
		c-3-6.1-5.9-12.2-8.8-18.3C2223,65.1,2215.8,58.6,2206.9,57 M2118.4,88.4c-5.2,10.8-8.8,22.9-8,35c1-5.5,2-11,3.3-16.4
		c1.8-4.8,4.6-9.2,6.8-13.9c5.5-10.3,9.5-22.1,19.5-29.1c2.2-2.2,6.5-2.8,7.1-6.3C2134.1,63.9,2124.8,75.9,2118.4,88.4 M2175,60.2
		c4.5,2.8,9.9,2.9,15.1,3.5C2185.2,62,2180.1,60.5,2175,60.2 M2164.5,65.6c-7.4,3.9-13.1,10.7-16.1,18.4c-2.3,5.7-1.9,11.9-3.1,17.8
		c-2,16.2,1.1,34,12.6,46.2c3.7,4.4,9.4,6,14.3,8.5c6.1,3.2,13.2,3.9,19.9,3.3c3-0.5,6.4-1,8.5-3.4c4.3-4.4,7.4-9.8,9.2-15.6
		c3.7-11.6,3.7-24,1.6-35.9c-0.5-2.7-1.1-5.6-3.1-7.6c-3.5-3.6-3.3-8.9-5.9-13c-6.8-11.3-19.4-18.4-32.4-19.6
		C2168.2,64.9,2166.1,64.6,2164.5,65.6 M2195,64.8c0,2.1,1.9,2.9,3.4,3.9c9.6,6.6,17.3,15.9,22.3,26.4c0.6-6.6-3-12.7-7.7-17
		C2207.4,73.1,2201.6,68.2,2195,64.8 M2256.9,85.9c-0.5,2.8,0.7,5.4,2.6,7.4c0.1-2.4,0.1-4.9,0.1-7.3
		C2258.9,86,2257.6,86,2256.9,85.9 M2222.6,102.4c0,3.1,0,6.3,0,9.4c0.4,0,1.2-0.1,1.6-0.1c0-3.1,0-6.2,0-9.2
		C2223.8,102.4,2223,102.4,2222.6,102.4 M2126.6,107c-2,9.3-1.4,18.9-0.7,28.4c2.2,12.7,11.5,22.9,22.3,29.4
		c4.7,2.7,9.7,5.3,15.1,6.1c-6.3-3.1-12.4-6.8-17.4-11.7C2131.9,145.9,2125.3,126,2126.6,107 M2118.3,125.7c0.1,6.2,1,12.4,2.9,18.4
		c2,6.9,5.9,13.7,12.6,16.9c-1.4-1.8-2.9-3.6-4.2-5.5C2123.3,146.7,2122.3,135.5,2118.3,125.7 M2206.2,170.9l0.8,1.4
		c9.2-4.9,18-10.5,25.7-17.6c6.5-5.4,11-12.8,13.4-20.9C2234.3,147.7,2221.6,161.1,2206.2,170.9 M2118.3,147
		c3,13.1,12.1,24.8,24.3,30.5c9.7,4,20.3,1.9,30.4,2c-13.3-0.7-26.6-4.4-37.5-12.2C2128,162.3,2122.5,154.9,2118.3,147 M2212,158.8
		c2.5-2.4,5.2-4.6,7.6-7.2c0.5-1.4,0.2-3,0.3-4.5C2217.2,150.9,2214.2,154.6,2212,158.8z"/>
	<path d="M1279.3,33.7c5.2-4.3,12.2-4.6,18.6-5.1c7.8,0.2,16.4,0.4,22.8,5.5c4.5,3,9,6.3,12.2,10.8c3.4,13.2,1.1,27.7-5.5,39.7
		c-6.6,12-16.2,22.5-28.1,29.5c0.1-0.8,0.2-2.3,0.3-3.1c-12.9,3.9-23,15-36.9,15.9c11.3-3.6,21.6-9.9,30.6-17.5
		c7.1-6.1,13.2-13.6,16.6-22.4c-5.2,4.2-8.4,10.3-13.6,14.4c-2.4,2-5.8,2-8.2,3.9c-13,9.4-27.7,16.6-43.6,19.3
		c-1.4,8.6,1.8,17.9,9.6,22.4c0.6-1.5,1.1-3,1.6-4.4c5.7,3.5,11.6,6.6,17.2,10.1c-1-0.2-2-0.4-3-0.6c-0.4,0.5-1.4,1.4-1.8,1.8
		c1,4.6,6.3,3.4,9.7,3.7c7-0.4,14-2.9,19.8-6.8c8.2-5.3,16.1-11.2,24.3-16.7c-2.3,7.7-9.6,14-8,22.7c-7.2,6.5-15.2,12.3-24.2,16.1
		c-11.8,4.8-24.1,8.8-36.9,9.2c-14.4,0.4-29.9-2.1-41.1-12c-6.8-6.9-10.3-16.3-12.1-25.7c-3.7-21.6-0.1-44.5,11.1-63.4
		c5-8.6,11.4-16.5,18.9-23.1c3.2-2.6,4.4-6.8,7.7-9.3c4.2-3.3,9.2-6,14.6-6.4c2.2-2.6,4.5-5.4,7.8-6.6c5.9-2.2,12.1-3.3,18.3-4.2
		C1278.5,31.9,1279.1,33.1,1279.3,33.7 M1288.2,38.4c4.1,0.5,8.3,0.7,12.4,1.1c0-0.7,0-2.1,0-2.7c-3.2-0.2-6.4-0.7-9.6-0.9
		C1289.6,36,1289,37.5,1288.2,38.4 M1305.7,39.9c3.2,3.1,6.9,5.8,10.1,9.1c5,6.5,5.1,15.3,4.2,23.1c-1.4,7.7-5.3,14.6-9.2,21.2
		c4.2-2.3,6.4-6.9,8.3-11.1c3.8-10.9,3.1-22.6,2.8-33.9C1317.1,44.6,1312.7,37.9,1305.7,39.9 M1274.2,44.8
		c-2.3,7.6-13.3,6.4-15.2,14.3c6.2-2.2,9.9-8.1,15.9-10.6c3.3-1.4,7.3-0.6,10.4-2.8C1281.6,45.3,1277.9,45.1,1274.2,44.8
		 M1296.5,46.1c-0.7,2-2.5,2.8-4.5,3c0.1,0.5,0.4,1.5,0.5,1.9c3.4,2.5,7.1,4.8,9.9,7.9c3.4,6,2.5,13.2,1.8,19.7
		c6.8-5.3,5.2-15.2,1.3-21.8c0.6-1,1.2-2,1.8-2.9C1304.7,50.1,1300.1,48.7,1296.5,46.1 M1274.8,54.7c-7.7,3-12.8,10-18.8,15.3
		c-4.4,3.6-6.8,8.8-9,13.8c-3.5,8.6-5.6,18-4.5,27.3c0.3,1.1,0,2.6,1,3.4c6.9-0.3,13.6-2.5,20.3-4c-3.9,2.8-8.9,4.1-12.2,7.8
		c4.7-0.2,9.4-1.4,13.2-4.3c7.4-6.5,15.9-12.2,20.8-21.1c5.7-9.8,6.9-22.4,2-32.7c0.5-0.3,1.5-0.9,2-1.2c6.7,9.2,7.6,21.9,2.7,32.1
		c2.4-2.1,4.5-4.7,5-8c0.8-5.2,3.7-10.7,1.4-15.9c-1.8-4.6-6.2-7.2-9.6-10.4C1285.7,52.7,1279.4,52.9,1274.8,54.7 M1217.2,107.2
		c-1.1,3.2-0.7,6.5-0.8,9.8c0,11.6,0.2,23.5,3.7,34.7c2.7,8.7,10.1,15,18,18.8c5.6,0.9,11.1,2.5,16.8,3.1c2.7,0.3,5-1.2,7.3-2.2
		c-3.9-0.4-7.9-0.9-11.5-2.5c-4.7-2.1-9.9-3.3-13.9-6.7c-9.6-7.4-14.4-19.4-15.8-31.1c-0.3-2.8-2.5-5.1-2.7-7.9c0.8-1.1,1.8-2,2.7-3
		c2.7-19.5,10.2-38.2,21.5-54.2C1229.9,76.3,1221.8,91.5,1217.2,107.2 M1247.3,70.5c1.4,0.4,3.4-1.8,2.6-3.2
		C1248.5,67,1247,69.1,1247.3,70.5 M1232,99.1c-0.8,3.7-2.3,7.2-3,10.8c-0.1,2.5,1.5,4.4,2.9,6.2c3.1-12.1,6.1-24.1,9-36.2
		C1237.6,86.1,1233.7,92.2,1232,99.1 M1227.4,128.6c0,6.5,0.6,14,6.1,18.3C1231.5,140.8,1231.7,133.7,1227.4,128.6 M1219.8,170.8
		c-3.8-5.4-7.1-11.2-9-17.6c-2.2-7.7-3.9-15.6-6.1-23.3C1204.8,144.6,1207,161.5,1219.8,170.8 M1275.8,170.9
		c11.9-1.2,24.9-5.5,31.2-16.4C1296.1,158.9,1285.4,164,1275.8,170.9z"/>
	<path d="M1605.4,33.8c5.5-4.4,12.8-4.6,19.5-5.1c6.6,0.4,13.7,0.3,19.5,3.9c5,3.1,10.1,6.5,13.8,11.2c1.9,1.9,1.4,4.8,1.9,7.2
		c2,13.3-2,26.9-9.1,38c-6.5,10.1-15.1,18.8-25.4,25c0-0.8,0.2-2.3,0.2-3.1c-12.7,3.9-22.6,14.4-36.1,16
		c12.7-4.9,24.7-12.1,34.4-21.8c5.1-5.3,9.5-11.3,12-18.3c-5.2,4.2-8.4,10.4-13.7,14.4c-2.4,2-5.8,2-8.2,4
		c-12.8,9.3-27.4,16.3-43,19.2c-2.5,8.3,1.5,18.1,9.1,22.5c0.6-1.4,1.2-2.9,1.7-4.3c5.7,3.2,11.3,6.6,17,9.8c-1.3,0.1-3-0.9-3.8,0.6
		c-1.4,1.1-0.1,3.2,1,3.9c8.6,1.9,17.6-0.3,25.2-4.6c9.2-5.7,17.8-12.1,26.7-18.2c-2.2,7.7-9.7,13.9-7.9,22.5
		c-6.2,5.8-13.1,10.9-20.7,14.7c-16.6,7.7-35.1,12.8-53.6,10.2c-10.6-1-21.2-4.9-28.9-12.4c-10-11.4-12.5-27.3-12.4-42
		c-0.1-26.1,11.7-51.9,31.3-69.2c3-2.4,4.2-6.3,7.1-8.8c4.3-3.6,9.5-6.2,15.1-7c2.3-2.1,4.1-4.8,7.1-6.1c6.1-2.5,12.7-3.7,19.2-4.5
		C1604.6,32,1605.2,33.2,1605.4,33.8 M1617.5,35.8c-1.8-0.3-2.4,1.5-3.3,2.6c4.1,0.5,8.3,0.7,12.4,1c0-0.9,0-1.9,0-2.8
		C1623.6,36.5,1620.6,36,1617.5,35.8 M1631.8,39.9c3.2,3.1,6.9,5.8,10.1,9.1c5,6.5,5.1,15.2,4.2,23c-1.4,7.7-5.4,14.6-9.2,21.3
		c4.3-2.3,6.5-7,8.4-11.2c3.8-10.8,2.9-22.5,2.8-33.8C1643.2,44.6,1638.7,37.8,1631.8,39.9 M1600.3,44.8
		c-2.4,7.5-13.3,6.4-15.2,14.3c6.4-2,10.2-8.4,16.5-10.7c3.2-1.2,7-0.5,9.8-2.6C1607.7,45.2,1604,45,1600.3,44.8 M1622.6,46.1
		c-0.8,2-2.6,2.8-4.6,3c0.1,0.5,0.4,1.5,0.6,2c3.4,2.4,6.9,4.7,9.7,7.6c3.6,6,2.7,13.3,1.9,19.9c7-5.2,5.4-15.2,1.4-21.8
		c0.6-1,1.2-2,1.8-3C1630.8,50,1626.2,48.7,1622.6,46.1 M1601.4,54.5c-6.9,2.4-11.6,8.3-16.8,13.1c-2.7,2.7-5.8,5.1-7.6,8.5
		c-6.6,11.5-10.4,25.2-7.8,38.4c6.9-0.1,13.4-2.6,20.2-3.7c-3.8,2.6-8.3,4.1-11.7,7.3c5.5,0.1,11-1.8,15.1-5.5
		c6.7-6,14.4-11.2,18.9-19.2c6-9.9,7.4-22.8,2.4-33.3c0.5-0.3,1.4-1,1.9-1.3c6.8,9.1,7.5,21.9,2.7,32.1c5.7-4.1,5.5-11.7,7.2-17.9
		c1.3-7.5-5.4-12.4-10.4-16.6C1611.9,52.8,1605.9,52.9,1601.4,54.5 M1543.3,107c-1.1,3.2-0.8,6.6-0.8,10c0,11.4,0.1,23,3.4,34
		c2.6,9.2,10.4,16.1,18.9,19.8c5.4,0.7,10.7,2.4,16.2,2.9c2.7,0.3,5.1-1.2,7.4-2.4c-3.8-0.3-7.7-0.8-11.2-2.4
		c-4.8-2.2-10.2-3.4-14.2-6.9c-9.5-7.4-14.3-19.4-15.7-31.1c-0.2-2.8-2.6-5.1-2.6-7.9c1.5-1.8,3.2-3.5,3.2-6
		c2.8-18.5,10.4-36,21-51.3C1556,76.2,1547.9,91.4,1543.3,107 M1573.3,70.5c1.5,0.5,3.6-1.8,2.8-3.2
		C1574.5,66.7,1572.8,69.1,1573.3,70.5 M1566.9,80.1c-3.3,6.1-7.1,12.1-8.8,18.9c-0.8,3.7-2.3,7.3-3.1,11c0,2.4,1.5,4.3,3,6.1
		C1561,104.1,1564.2,92.1,1566.9,80.1 M1553.4,128.5c0,6.5,0.6,14,6.2,18.3C1557.6,140.8,1557.8,133.6,1553.4,128.5 M1530.7,129.9
		c0.2,6.8,0.6,13.5,2.2,20.1c1.7,8.2,6.3,15.8,13.1,20.8c-3.6-5.2-6.9-10.7-8.8-16.8C1534.8,146.1,1533.2,137.9,1530.7,129.9
		 M1633,154.5c-10.8,4.5-21.6,9.4-31.1,16.4C1613.7,169.7,1627,165.6,1633,154.5z"/>
	<path d="M2807.9,33.6c5.4-4.4,12.6-4.5,19.2-5c6.6,0.4,13.7,0.3,19.5,3.9c5.1,3.1,10.1,6.5,13.9,11.2c2.1,2.1,1.5,5.4,2,8.2
		c2,15-3.6,30.2-12.6,42.1c-6,8-13.4,15.1-22.1,20.1c0-0.8,0.1-2.3,0.1-3c-12.7,4-22.8,14.8-36.4,15.9c13.8-5,26.7-13,36.8-23.8
		c4.3-4.8,7.8-10.3,10.2-16.2c-5.9,4.6-9.1,12.1-15.8,15.7c-6.1,1.6-10.5,6.3-16,9.1c-10.3,6.3-21.7,10.7-33.6,12.8
		c-1.6,8.6,1.7,18,9.5,22.5c0.6-1.4,1.1-2.9,1.6-4.4c5.7,3.4,11.4,6.6,17.1,9.9c-1.7-0.2-3.9-0.8-4.4,1.5c0.2,1.3,0.8,2.8,2.2,3.1
		c9.3,1.6,19.1-1,26.9-6.2c8.3-5.3,16.2-11.2,24.3-16.7c-2.1,7.8-9.6,14-7.8,22.8c-6.4,5.6-13.2,10.8-20.9,14.6
		c-17.2,7.9-36.6,13-55.6,9.7c-9.1-1-17.7-4.6-24.9-10.3c-6.8-6.2-10.4-15.2-12.4-24c-3.8-18.9-1.9-38.9,5.9-56.6
		c5.5-12.5,13.7-23.9,24-32.9c2.8-2.3,3.8-6,6.6-8.4c4.2-3.6,9.4-6.2,14.9-7.1c2.6-1.9,4.4-5.1,7.7-6.3c5.9-2.3,12.2-3.6,18.5-4.3
		C2806.6,32,2807.4,33.1,2807.9,33.6 M2816.7,38.5c4.1,0.3,8.1,0.6,12.2,0.9c-0.1-0.7-0.1-2.1-0.2-2.8c-3.2-0.1-6.4-0.7-9.7-0.8
		C2817.8,36.2,2817.3,37.5,2816.7,38.5 M2834,39.9c3.3,3.1,6.9,5.8,10.1,9.1c3.7,4.8,4.8,11.1,4.6,17.1c0,1.6-0.7,3.5,0.5,4.9
		c1.9,0.2,0.6-2.8,1.1-3.9c0.5-5.6-0.1-11.3-0.1-16.9c0.3-2-1.8-3-2.9-4.3C2843.6,42.6,2839.5,38,2834,39.9 M2802.5,44.8
		c-2.3,7.6-13.2,6.4-15.2,14.2c6.5-2.1,10.3-8.7,16.8-10.8c3-1.1,6.7-0.3,9.3-2.5C2809.8,45.3,2806.1,45.1,2802.5,44.8 M2824.8,46.2
		c-0.8,2.5-4.7,2.1-4.5,4.8c3.8,1.9,7.1,4.6,10.1,7.6c3.6,5.9,2.8,13.2,2,19.8c7-5,5.1-15.1,1.3-21.5c0.6-1,1.2-2,1.8-2.9
		C2833,50.1,2828.4,48.8,2824.8,46.2 M2790.8,63.8c-4.3,4.6-9.9,8.3-12.6,14.2c-5.8,11.1-9.3,24.1-6.7,36.6
		c7.1-0.4,13.9-2.6,20.8-4.1c-4.1,2.7-8.8,4.4-12.5,7.7c6.5,0.1,12.7-2.8,17.3-7.4c6.2-5.4,13-10.4,17-17.8
		c5.8-9.9,6.9-22.4,2.2-32.9c0.5-0.3,1.4-0.8,1.8-1.1c7.1,9,7.3,21.6,3.1,31.9c5.1-4.1,5.1-11,6.7-16.8c1.4-5.3-1.9-10.6-6-13.8
		c-3.4-2.6-6.2-6.7-10.9-6.7C2802.9,52.8,2796.1,58.4,2790.8,63.8 M2744.9,110c-0.3,10-0.3,20.1,1,30.1c1.1,8.2,3.1,16.9,9.3,22.7
		c4.5,4.1,9.6,8.3,15.9,8.7c6.4,1.1,13.6,4.2,19.5,0c-7.6-0.1-14.5-3.8-21.4-6.6c-12-6.8-18.3-20.5-19.8-33.8
		c-0.3-2.9-2.6-5.2-2.7-8.1c0.8-1,1.7-1.9,2.7-2.8c2.7-19.6,10.4-38.2,21.5-54.4C2757.6,77.1,2748.9,93.2,2744.9,110 M2848.1,73.3
		c-1.6,7.2-5.2,13.7-9,20c6.8-4.5,9.6-13.1,10.5-20.8l-0.8,0.8C2848.6,73.3,2848.2,73.3,2848.1,73.3 M2762.9,91.9
		c-2.5,5.3-3.4,11.1-5.3,16.5c-1.1,2.9,0.9,5.6,2.6,7.7c3-11.8,6-23.6,8.8-35.5C2766.8,84.3,2764.6,88,2762.9,91.9 M2755.7,128.8
		c0,6.4,0.7,13.7,6.1,18.1C2759.8,140.9,2760.1,133.6,2755.7,128.8 M2733.3,129.9c-0.5,8,0.6,16.2,2.9,23.9
		c2,6.8,6.3,12.6,11.9,16.9C2738.9,159,2736.8,144,2733.3,129.9 M2804.1,170.8c11.8-1,24.8-5.4,31.1-16.2
		C2824.3,158.8,2813.8,164.2,2804.1,170.8z"/>
	<path d="M1870.4,51.5c15.6-10.1,32.6-19.7,51.6-21.1c11.9-1,24.2,1.5,34.3,7.8c2-0.9,4-2,5.9-3c0.1,1.6,0.2,3.1,0.3,4.7
		c1.3-1.1,2.4-3.1,4.4-2.9c2.5,0,4.9,0.6,7.3,0.8c0.1,0.5,0.2,1.5,0.2,1.9c2.6-2.9,4.5-7.1,8.8-7.6c-0.5,4-2.1,8-1,12.1
		c2.3-4.5,2.3-10.2,6.7-13.4c-3.1,19-8,37.7-10.2,56.9c-2.2,17.4-2.7,35.4,1.9,52.6c2.1,8,6,15.3,10.7,22.1
		c-0.7,0.6-1.4,1.2-2.1,1.8c-5.9-7.9-14.2-14.5-17-24.3c-0.7-2-1.2-4.1-2-6.1c-0.6,1.7-1.7,3.6-1,5.5c2.3,9.5,8.8,17.4,10.6,27
		c-2.8,0.5-5.3-0.8-7.9-1.3c-1.9,0.8-1.8,3.3-0.4,4.4c1.7,1.7,4.2,4,2.5,6.5c-2.6,1.1-5.8,0.8-7.8-1.1c-1.7-1.7-3.1-3.7-4.6-5.6
		c-0.2,1.7-0.5,3.3-0.7,5c-3.2-3-5.7-6.7-6.7-11c1.5,1.7,2.9,3.4,4.5,5.1c-3.8-11.5-7.2-23.2-11.4-34.5c-0.1,6-1.9,13.2,3.1,17.8
		c0.3,2.8,0.5,5.6,0.8,8.5c-1.1-2.6-2.2-5.2-3.2-7.8c-2.2-5.3-2.8-11-4.8-16.3c-1.1,1.5-2.8,3.2-2,5.3c1.3,5.4,2,11.1,3.9,16.3
		c3.1,7.4,8.2,13.7,12.8,20.3c-0.4,0.3-1.3,0.8-1.7,1.1c-4.8-3.2-8.6-7.6-11.8-12.4c-4-6-5.8-13.1-8.2-19.8c-0.6,2.1-1,4.2,0.1,6.2
		c2.4,5.5,3.8,11.4,6.9,16.7c2.5,4.3,5.4,8.3,7.9,12.6c-1.3,0.3-2.8,1.7-4.1,0.6c-7.7-4.8-11.1-13.5-14.6-21.4
		c-1.9-4.2-4-8.2-5.9-12.4c-0.7,0-2,0-2.7,0c1.4-1.8,3.2-4.1,1.1-6.2c-11,7.8-23.3,13.5-34.2,21.4c1.1,2.5,3.7,3.4,6.1,4
		c5.3-5.8,11.9-10.2,19-13.3c-4.6,4.8-9.2,10.2-15.8,12.1c-5.6,8.7-16.3,11-25.2,14.6c-12-0.2-24.7,3.4-36.1-1.6
		c-6.7-4.1-13.6-9.2-16.4-17c-4.1-11.6-3.6-24.1-3.5-36.1c0.2-3.7-0.2-7.5,1.3-10.9c8-21.9,21.6-42.4,40.9-55.8
		c1.3-1.1,3.1-1,4.6-1.5C1867.6,56.4,1867.6,52.9,1870.4,51.5 M1911.9,35.6c2.5,0.8,5.5,1.4,7.3-0.9
		C1916.7,34.8,1914.3,35.1,1911.9,35.6 M1886.9,46.9c-5.6,2.8-10.9,6.4-15,11.3c1.6-0.6,2.8-1.8,4.2-2.6c2.3-0.4,5.2,0.8,7-1.3
		c6.5-5.5,14.8-8.6,23.2-9.8c0.3,0.3,0.8,1,1.1,1.4c2.1-2.4,5.1-3.4,8-4.6c-2-2-4.8-1.4-7.3-1.2
		C1900.6,40.8,1893.7,43.9,1886.9,46.9 M1941.2,49.6c-1.1,1,0.5,3.2,1.7,2.4C1944,51,1942.5,48.8,1941.2,49.6 M1951.6,57.7
		c0.1-0.4,0.2-1.2,0.2-1.7c-1.2-1.4-2.5-2.8-3.6-4.3C1946.1,54.5,1950.1,56,1951.6,57.7 M1898.1,55.6c8.3,0.5,16.6,0.7,24.9,1.2
		c7.3-0.5,9.8,9.2,17.2,8.7c-1-1.3-1.7-2.8-3.1-3.6c-4.6-2.9-9.7-5-14.7-7.1C1914.6,51.8,1905.4,51.3,1898.1,55.6 M1968.4,65.4
		c0.9-4.1,1.4-8.3,2.2-12.4C1969.2,56.9,1966.9,61.1,1968.4,65.4 M1872.6,64.1c3.4-1.9,8.5-2.1,9.9-6.4
		C1879.1,59.5,1875.2,61,1872.6,64.1 M1971.7,82.6c-0.3,2.3,0.3,4.6,0.8,6.9c1.8-6.6,0.9-13.7,3.2-20.3c1.2-2.4,2.4-4.8,3.4-7.2
		c-0.2-0.8-0.6-2.2-0.8-3C1975.6,66.8,1973.7,74.6,1971.7,82.6 M1863.2,63.5c1.3,0.7,3.5-2.2,1.9-2.9
		C1863.9,60.9,1862.7,62.3,1863.2,63.5 M1893.6,62.7c5.8,0.8,11.7,0.9,17.4,2.3c8.4,1.7,16.3,5.5,23.1,10.6
		c-0.1-4.6-4.4-6.9-7.8-8.9C1916.4,61.5,1904.5,59.4,1893.6,62.7 M1945.5,77.3c-4.7,17.1-6.7,35.3-3.3,52.8
		c0.9-21.3,6.6-42.1,7.4-63.4C1947.2,69.6,1946.7,73.6,1945.5,77.3 M1886.5,68.7c-6.4,1.1-10.9,6.4-14.8,11.1
		c-6.8,8.7-9.4,19.6-11.1,30.3c-1.4,7.9-0.9,16.3,2.5,23.7c2.5,5.7,8.3,8.6,13.3,11.8c5.5,2.9,11.5-0.1,16.6-2.5
		c5.9-3,12.6-5,17.4-9.7c5.2-4.9,9.4-10.9,13.2-16.9c6.8-11.1,9.9-24.3,8.7-37.3c-1.9,0.2-3.9,1.3-5.7,0.2c-5.6-2.7-11-5.7-16.6-8.4
		C1902.6,68.2,1894.4,67.1,1886.5,68.7 M1851.6,83.4c2.1-1.2,4.2-3,4.5-5.5C1854.4,79.5,1852.7,81.3,1851.6,83.4 M1846.2,109.2
		c1.3-2.2,1.6-7.4,5.3-5.2c0.2,2.7,0,5.4,0,8c0.9-8.6,3-17,5.5-25.2C1853,94,1847.8,100.9,1846.2,109.2 M1965.9,116
		c-0.1,2.6,1.1,5,2.4,7.2c-2-9-0.8-18.3-1.9-27.4C1965.1,102.5,1965.8,109.3,1965.9,116 M1823.4,123.2c1-6.2,3.6-12,4.1-18.3
		C1824.3,110.3,1822.8,116.9,1823.4,123.2 M1954.2,104.5c-1,9.5-1.4,19-0.4,28.5c0.8,6.5,2.3,13.4,7.1,18.3
		c-0.9-4.1-4.3-8.2-2.2-12.4c-3.5-9.3-0.1-19.2-1.4-28.8C1957.2,107.8,1955.6,106.1,1954.2,104.5 M1924.4,122.2
		c-2.6,3.3-4.6,6.9-7,10.3c-4.8,5.4-11.7,8.5-16.9,13.5c12.6-0.9,20.1-12.9,24.2-23.6L1924.4,122.2 M1843.7,136.5
		c2.2,7.4,8,13.1,13.6,18.2c3.2,3.2,8.1,3.6,12.3,4.6c8,1.5,16.9,0.6,23.2-4.9c-8.2,2-16.7,2.7-25,1.4c-4.1-0.8-7.7-3.1-10.7-5.8
		c-7.1-6.6-10.8-16-13.7-25C1842.9,128.7,1842.5,132.7,1843.7,136.5 M1871.9,148c-4.1-5.1-8.4-10.1-12.8-15
		C1857.9,140.8,1865.6,145.8,1871.9,148 M1832.3,141.8c-0.2,2-1.1,4.6,1.4,5.3C1833.7,145.3,1833.2,143.5,1832.3,141.8
		 M1829.3,151.8c1.8,6.7,4.1,15.2,11.9,16.8C1837.5,162.8,1833.5,157.2,1829.3,151.8 M1859.4,169.5c2.6,1.4,5.4,0,7.8-1
		c-2-1.1-4.2-2-6.4-2.8C1860.4,166.9,1858.6,168.2,1859.4,169.5z"/>
	<path d="M1482.1,35.9c6.8-2.5,14.6-3.8,21.6-1.5c1.3,2.8,2.5,5.7,3.8,8.5c-1.6,7.3-3.3,14.7-4.8,22c-0.6,0.1-1.7,0.3-2.3,0.5
		c-0.5,24.9-10,48.7-10.5,73.6c-1.3,8.4,4.2,16,10.6,20.7c3.1,2,7,0.2,10.2,1.7c0.3,1.2,0.5,2.4,0.5,3.6c-2.9,1.2-5.8,2.5-8.6,3.8
		c1.4,3.3,2.6,6.6,2.6,10.2c-7.5,5.3-17.1,7.4-26.2,6.2c-8.3-0.3-16.4-2.7-23.8-6.4c-6-3.2-9.6-9.7-10.5-16.3
		c-2-11.5,0.1-23.1,1.6-34.6c2.4-15.5,5.1-30.9,7.5-46.4c-4.6,1.4-9,3.5-12.3,7.1c-6.6,6.7-13.8,12.9-19.7,20.2
		c-16.3,19.4-30.2,40.6-45,61.1c-2.3,2.9-2.5,6.9-4.8,9.7c-1.2-0.9-2.3-2.4-3.9-2.5c-1.5,0.2-2.9,1-4.2,1.6
		c-0.1-1.6-0.2-3.1-0.3-4.7c-1.6,3-3.2,5.9-4.8,8.9c-3.5-2.6-1.2-6.7-0.6-10.1c-0.2-1-0.1-3.6-1.8-2.5c-2.6,3.8-3.2,8.5-5.6,12.4
		c-1.2,1.8-3.6,1.9-5.5,2.2c-0.7,0.6-1.3,1.3-1.9,1.9c0.5-10.9-0.1-21.9,1.5-32.8c1.6-13.3,3.2-26.6,4.8-39.9
		c4.8-25.2,8.8-50.7,9.2-76.4c3.9-0.8,6,3,9,4.6c-0.2,9.2-1.7,18.4-2.8,27.6c-0.9,8.7-1.7,17.4-2.4,26.2c1.4-1.3,2.9-2.6,4.3-4
		c-1.7-11.6,4.6-22.7,2.6-34.3c3.1-4.2,2.8-9.6,2.9-14.5c0.7,0.2,2.1,0.6,2.8,0.8c1.3-2.7,1.5-5.7,1.9-8.6c1.5,0.1,3.3-0.2,4.4,1
		c2.3,2.2,2.1,5.7,2,8.6c-1.3,17.5-6.2,34.5-7.3,51.9c0.2,4.4-0.1,9,1.6,13.1c1.1-3.3,1.4-6.7,2-10.1c3.3-20,6.5-39.9,9.8-59.9
		c0.3-1.3,1.1-3.7,2.8-2.9c1.9,4.4,2.2,9.3,1.1,13.9c-1.2,6-1.1,12.1-2,18.1c-2.2,11-4.4,21.9-6.6,32.9c0.5,1.1,1,2.2,1.4,3.4
		c1.2-1.8,2.6-3.6,2.8-5.9c3.1-19.8,6.1-39.6,9.2-59.4c0.2-1.8,1.8-2.9,3-4.1c2.6,8,2.6,16.6,1.4,24.9c-2.2,11.2-4.9,22.3-7.3,33.5
		c0.9,0.6,1.7,1.3,2.6,1.9c14.1-9.7,24.1-24.4,38.8-33.4c4.2-2.9,9.6-3.2,13.4-6.6C1460.7,49.1,1470.3,40.6,1482.1,35.9 M1495,39.1
		c1.8,1.5,3.9,2.7,5.9,4c-0.8-2.2-1.6-4.4-2.8-6.4C1497.2,37.5,1495.2,37.6,1495,39.1 M1484.6,43.9c1,0.6,2,0.7,3,0
		C1488.7,41.8,1484,42,1484.6,43.9 M1484.6,56.9c-4.7,12-8.2,24.5-10.6,37.1c-2.1,15.3-3.9,30.6-6,46c-0.9,5.7-0.6,11.6,0.8,17.2
		c0.9,3.6,4,6.1,7,8.1c-1-4.1-2.5-8-3.4-12.1c-2-12.4-0.3-24.9,1.8-37.2c1.6-9.3,3.2-18.7,4.7-28.1c0.4-3.1,2.5-5.5,3.8-8.2
		c4.9-9.5,8.3-19.8,10.2-30.2C1489.3,50.7,1485.8,53.1,1484.6,56.9 M1462.5,54.4c-2.3,2.4-0.7,6.5-3.3,8.8
		c-3.4,3.1-8.1,4.5-10.5,8.7c4.6-2.7,9-5.8,13.4-8.7c4.2-2.5,6.5-7.2,6.1-12C1466.3,52.2,1464.1,52.9,1462.5,54.4 M1434.2,78.9
		c4.4-2.3,9.2-4.5,12-8.8c-0.2-0.7-0.5-2.1-0.7-2.8C1441.7,71.1,1437.8,74.9,1434.2,78.9 M1420.2,80.2c-2.5,2.6-5.6,4.8-7.5,8
		c7.6-5.8,15.8-11.6,20.4-20.2C1428.5,71.7,1424.5,76.1,1420.2,80.2 M1464.2,92.1c1.6-5.8,3.2-11.6,3.7-17.6
		C1464.7,79.7,1463,86,1464.2,92.1 M1417,96c-13.4,12.5-27.8,24.8-36,41.6c16.5-18.3,33.2-36.4,49.9-54.5
		C1426.2,87.3,1421.7,91.7,1417,96 M1490.5,84.2c0.9,11-8.2,20.8-5.1,31.9c2.2-10.7,4.4-21.3,6.5-32
		C1491.6,84,1490.9,84.1,1490.5,84.2 M1351.7,156.5c-0.2,0.9,0.3,1.8,0.6,2.7c2.9-11.8,5.5-23.8,7.4-35.8c0.8-7.8,1.6-15.6,2-23.4
		C1358.5,118.8,1354.9,137.6,1351.7,156.5 M1455.5,133.1c-0.5,4.6-1.5,9.2-0.7,13.9c1.1,10.2,6.4,20.4,15.7,25.3
		c8.2,3,17.3,4.7,25.8,2.1c-9.9-0.8-21-0.7-29-7.6c-7.2-5.2-9.7-14.4-10.7-22.8c-0.4-14.6,5.1-28.7,5.2-43.2
		C1457.4,111,1456.8,122.2,1455.5,133.1 M1479.1,164c-0.7,1.4,1.5,2.9,2.6,2C1482.3,164.7,1480.2,163.2,1479.1,164z"/>
	<path d="M2333.8,32.8c0.6,10.4-0.1,20.8,0.5,31.2c0.6,17.3,1.2,34.7,1.7,52c0.5,10.6,3.3,20.9,6.4,30.9c1,3,1.6,6.3,3.6,8.8
		c12.7-15.7,23.8-32.7,32.5-50.9c7.8-16.1,11.8-34,11.9-51.9c0.4,5.6-0.1,11.4,1.1,16.9c4.4-6.6,3.2-15,4.6-22.5
		c2.5,1,2.3,4.1,2.8,6.4c1.5,15.2-4.2,29.8-7.7,44.3c6.7-9,9.2-20.2,12.3-30.8c2.3-7.6,3.9-15.5,7.1-22.9c0.8,8.8,2,17.7,0.4,26.5
		c-2.5,17.4-9.8,33.8-19.8,48.2c-10.9,15.8-24.1,29.9-37.4,43.8c3.9,0.6,6.5-2.6,9.3-4.8c11.9-10.1,22.2-22.1,31-35.1
		c10.8-16.4,18.9-34.4,26.6-52.4c0.5-1.5,1.5-3,1.1-4.7c-1.7-9,1.9-17.9,1-26.9c3-0.7,3,2.8,4,4.7c3.8-1.1,2.8-5.1,2.9-8.1
		c0-1.4,1.9-1.3,2.8-1.9c0.6,2.1,1.2,4.3,1.8,6.4c1.9-1.1,3.7-2.2,5.6-3.3c0.9,0.7,1.8,1.4,2.7,2.2c0.1,18.9-3.9,37.9-12.7,54.6
		c-8.2,16.1-18.8,30.9-30.6,44.6c-10.5,12.5-21,24.9-31.5,37.4c-2,2.5-4.7,4.4-7.8,5.2c0.8-7.2,7.4-11.3,11.8-16.4
		c0-0.4,0-1.3,0-1.7c-5.1,5.8-13.1,7.7-18.3,13.4c-2.7,2.6-1,6.4,0.2,9.3c-4.1,0.3-8.1-0.1-11.4-2.8c0,2.8,0,5.5,0,8.3
		c-8-7.1-12.7-17.3-14.7-27.7c-2.7-12.8-6.3-25.4-7.8-38.4c-1.2-7.6-0.9-15.3-1.2-23c-0.9-18.8,0-37.7,0.2-56.5
		c5.4-1.4,4.4-8.6,9.4-10.5c0.1,2.1,0.3,4.2,1.1,6.1C2330.9,38.3,2332.3,35.6,2333.8,32.8 M2329.4,43.6c-2.3,7.2-2.8,15.4,0,22.6
		C2329.1,58.7,2331.3,51,2329.4,43.6 M2320.3,113c0.1,1.5-0.5,3.7,1.5,4.3c-0.1-5.1-0.9-10.2-1.3-15.3
		C2320.3,105.7,2320.3,109.3,2320.3,113 M2385.3,112.3c1.5-1,1.4-2.9,1.7-4.5C2384.3,107.9,2385.4,110.6,2385.3,112.3 M2347.1,159
		c4.1-2.4,7.8-6.1,9.1-10.8C2352.8,151.4,2347.6,153.8,2347.1,159 M2350.5,172.7c0.8,0.7,1.5,1.4,2.3,2.1
		c7.7-7.3,15.6-14.4,23.1-21.8C2367.4,159.5,2359.1,166.2,2350.5,172.7 M2349.9,163.8c2.3-2.3,5-4.6,5.7-7.9
		C2352.8,157.6,2351.6,161,2349.9,163.8z"/>
	<path d="M2292.2,43.1c0.2-2.1,2.2-3.1,3.6-4.3c-1.5,7.1,0.7,14.1,1.1,21.2c0.2,2.4-1.2,4.9-0.2,7.2c1.8,0.8,2.1-1.6,2.6-2.6
		c1.4-5.9,1-12,2.4-17.9c0.9,4.1,0,8.6,2.7,12.1c3.4-6.6,0.3-16.5,7.8-20.9c0.3,16.4,0.4,32.9,0.6,49.3c0.2,9-0.1,18.1,0.8,27.1
		c2.1,24.5,6.6,49,16.9,71.5c-5.4,1.1-8.7,6.1-13.6,8.2c-5.9,0.7-7-6.2-9.3-10.1c-1.2,0.5-2.3,1.2-3.6,1.3
		c-5.2-9.4-8.3-19.8-11.1-30c-2.2-7.9-4.7-15.8-6.7-23.8c-1.7-10.3-3.3-20.7-4.9-31c-1.2-19.7-3.9-40.3,3-59.3
		c2.7,3.5,3.5,7.9,5.1,11.9C2291.5,49.9,2291.6,46.4,2292.2,43.1 M2290.6,55.7c-0.2,5.5,0.2,10.9-0.3,16.4
		c1.1,29.7,0.7,60.1,9.3,88.9c-2.2-15.9-5-31.8-5.9-47.9c-1-12.3-1.7-24.7-3.1-37C2289.9,69.3,2293.8,62.1,2290.6,55.7 M2304.5,94.9
		c1,12.8,2.5,25.5,3.8,38.2c-0.1,1.2,0.7,2.2,1.5,3c-0.1-7.9-1.8-15.8-2.6-23.6c-1.5-9.5-1.9-19.1-3.9-28.4
		C2303.8,87.7,2304.3,91.3,2304.5,94.9 M2314.5,159.7c0.1,8.1,2.4,16.4,7.9,22.5C2319.8,174.7,2317.6,167,2314.5,159.7z"/>
	<path d="M2415.7,52.1c0.5-2.4,0.4-5.1,2.2-7.1c1.2,9.8-1.7,19.3-2.5,28.9C2413.4,66.8,2414.6,59.3,2415.7,52.1z"/>
	<path d="M2492.2,174.3c0.7-1.2,1.7-1.9,3.1-2.1c-0.5,5.2-1.2,10.3-1.8,15.5c-1.2,0-2.4,0-3.6,0.1
		C2488.3,183.2,2489.6,178.2,2492.2,174.3z"/>
	<path d="M2454.6,183.4c1.1,0.2,2.2,0.5,3.4,0.8c-0.6,2.6-1.2,5.4-3.4,7.2C2453.7,188.7,2453.5,185.9,2454.6,183.4z"/>
	<path d="M2461.7,183.7c1.8,0.2,3.6,0.4,5.4,0.5c0.3,2.3,1,6.1-2.2,6.4C2461,191.5,2461,186.2,2461.7,183.7z"/>
	<path d="M1617.6,281.3c2.4,0,4.8,0,7.2,0c0,2,0,4-0.1,6c-2.4,0-4.8,0-7.2,0C1617.6,285.3,1617.6,283.3,1617.6,281.3z"/>
	<path d="M2101.8,284.6c6.6-3.1,14.4-3.1,21.3-1.1c6.6,1.9,11.7,10,7.8,16.4c-7.3,10.3-23.4,8.6-30,19.6c10.4,0.5,20.8,0.1,31.2,0.2
		c0,1.7,0,3.3,0,5c-13,0-25.9,0-38.9,0c0.7-4.4,1.9-9.2,5.5-12.2c6.9-5.8,16.5-7,23.5-12.6c3.6-2.8,2.8-8.9-1.1-11.1
		c-4.5-2.6-10.4-2.6-15-0.2c-3.1,1.7-4,5.4-4.4,8.6c-2.4,0-4.8,0-7.2,0C2094.7,292.2,2096.9,286.9,2101.8,284.6z"/>
	<path d="M2211.4,283.6c6.1-1.9,13-1.7,18.7,1.3c5.1,2.8,7.8,8.6,8.3,14.2c0.8,7.5-0.1,16-5.6,21.7c-6.1,6-16.1,6.4-23.6,3
		c-7.9-3.9-10.1-13.7-9.4-21.8C2200,294.5,2203.7,286.1,2211.4,283.6 M2215.4,287.7c-5.7,1.6-7.7,8.1-8,13.4
		c-0.3,5.3-0.3,11.2,2.7,15.8c4.4,6.7,16.4,5.4,19.2-2.2c2.4-7.4,2.4-16-0.9-23.1C2226,287,2219.9,286.4,2215.4,287.7z"/>
	<path d="M2319.1,283.2c6.5-1.5,14-1.1,19.4,3.1c5.3,4.2,6.7,11.4,6.5,17.8c0,7-2.1,14.7-8.2,18.8c-6.7,4.2-16,4.2-22.8,0.1
		c-7.4-5-8.8-14.9-7.7-23.1C2307.1,292.5,2311.6,285,2319.1,283.2 M2322.5,287.5c-5.2,1.1-7.7,6.5-8.3,11.3
		c-0.6,5.9-0.9,12.3,2.2,17.6c3.3,5.5,11.5,6,16.3,2.3c3.4-2.5,4.2-7,4.6-10.9c0.4-5.6,0.2-11.6-2.6-16.7
		C2332.3,287.1,2326.7,286.6,2322.5,287.5z"/>
	<path d="M2419,283.1c9.8,0,19.6,0,29.4,0c0,1.7,0,3.4,0,5.1c-8,0-16,0-24.1,0c-0.8,3.9-1.6,7.8-2.4,11.7c8.3-4.1,19.3-3.5,26.3,2.9
		c4.9,4.4,4.1,12.6-0.3,17.2c-4.9,5.6-13,6.2-20,5.8c-6.8-0.5-14.6-4.1-15.5-11.7c2.4,0,4.8,0,7.3,0c1.8,6.9,10.1,8.1,16.1,6.8
		c5.2-0.9,9.3-6.5,7.8-11.7c-0.8-3.1-3.7-5.1-6.7-6.1c-5-1.5-10.7-1.1-14.9,2.2c-2.1,1.7-4.9,0.7-7.3,0.8
		C2416.1,298.3,2417.6,290.7,2419,283.1z"/>
	<path d="M1517.1,296.1c5.2-4.2,12.4-4.3,18.7-3.4c5.1,0.7,10.3,4,10.9,9.5c-2.2,0-4.4,0-6.6,0c-2.2-6.3-10.4-5.9-15.7-4.6
		c-3,0.6-4.2,4.9-1.1,6.3c6.8,3.2,15.1,2.2,21.7,6c4.2,2.6,3.6,9.1,0,12c-5.7,4.8-13.8,4.5-20.8,3.6c-5.7-0.5-10.6-4.9-11.4-10.7
		c2.3,0,4.5,0,6.8,0c0.7,2.4,2,4.9,4.7,5.7c4.6,1.4,10,1.5,14.4-0.7c2.3-1,3.1-4.7,0.8-6.1c-7.2-3.3-15.8-2.2-22.6-6.5
		C1513,304.7,1513.8,298.7,1517.1,296.1z"/>
	<path d="M1803.2,300.1c6.1-9.1,19.7-10,28.7-5c3.1,1.8,4.2,5.4,5.1,8.6c-2.3,0-4.5,0-6.7,0.1c-2.5-9.3-17.7-9.1-20.9-0.4
		c-2,4.9-1.8,11.2,2.1,15.2c3.2,3.1,8.2,3.1,12.2,2c3.4-0.9,5.2-4.1,6.6-7c2.2,0,4.4,0,6.7,0.1c-1,4.4-3.6,8.6-8,10.1
		c-7.6,3-17.5,3-23.7-3C1799.6,315.6,1799.4,306.4,1803.2,300.1z"/>
	<path d="M1617.6,293.3c2.4-0.1,4.8-0.1,7.2-0.1c0,10.5,0,21.1,0,31.6c-2.4,0-4.8,0-7.2,0C1617.5,314.3,1617.7,303.8,1617.6,293.3z"
		/>
	<path d="M1697,293c2.2,0,4.5,0,6.8,0c0,1.5,0,2.9,0,4.4c6.1-5.4,15.5-6.6,22.8-3.2c3.3,1.6,4.8,5.3,4.8,8.9
		c0.2,7.2,0,14.5,0.1,21.7c-2.4,0-4.8,0-7.2,0c-0.1-7.3,0.2-14.6-0.2-21.8c-0.2-3.6-3.7-5.8-7.1-5.8c-5.2-0.6-11.9,2-12.8,7.7
		c-0.5,6.6-0.1,13.3-0.2,19.9c-2.4,0-4.7,0-7.1,0C1697,314.2,1697,303.6,1697,293z"/>
	<path d="M1908.9,296.9c7.7-6,19.5-5.9,27.5-0.4c4.5,3.2,5.2,9,5.3,14.1c-10.4,0-20.8,0-31.2,0c0.4,3.7,1.9,7.8,5.5,9.4
		c6.2,2.7,15,1.4,18.3-5.1c2.3,0,4.6,0,6.9,0c-1.8,4.6-5.6,8.3-10.4,9.7c-7.4,2.2-16.2,1.8-22.4-3.1
		C1900.9,315.6,1901.4,302.6,1908.9,296.9 M1910.7,306.4c8,0,15.9,0,23.9,0c-0.7-2.4-1.2-5-3.2-6.7
		C1924.7,294.2,1911.8,296.9,1910.7,306.4z"/>
</g>
</svg>
