<?xml version="1.0" encoding="utf-8"?>
<!-- Generator: Adobe Illustrator 19.0.0, SVG Export Plug-In . SVG Version: 6.00 Build 0)  -->
<svg version="1.0" id="Слой_1" xmlns="http://www.w3.org/2000/svg" xmlns:xlink="http://www.w3.org/1999/xlink" x="0px" y="0px"
	 viewBox="0 0 250 250" enable-background="new 0 0 250 250" xml:space="preserve">
<g id="XMLID_53_">
	<g id="XMLID_75_">
		<path id="XMLID_76_" fill="#A9A9A9" d="M62.9,139.2c20.6-35.5,41-71,61.6-106.5c19.1,32.9,38,65.9,57.1,98.8
			c1.9,3.8,4.5,7.2,6.1,11.2c20.6,35.8,41.4,71.6,62,107.4c-83.5,0-167,0-250.4,0c20.5-35.5,41-71.1,61.6-106.6
			C61.6,142,62.1,140.5,62.9,139.2z M120.2,57.1c-9.8,16.9-19.5,33.8-29.3,50.6c-0.4,0.7-0.7,1.5-1.1,2.3c-10.1,5.6-17.2,16.4-18,28
			c-0.1,0.8,0.1,1.7-0.5,2.4c-0.1,0.1-0.4,0.3-0.6,0.4c-2.9,0-5.8,0-8.7,0c1.9,3.9,4.3,7.5,6.4,11.4c18.4,31.9,36.8,63.7,55.2,95.6
			c0.2,0.4,0.9,1.4,1.2,0.5c20.1-34.9,40.3-69.7,60.4-104.6c0.4-0.8,1.2-1.5,1.2-2.5c-2.9-0.8-6.1-0.1-9.2-0.4
			c-0.1,0.7-0.1,1.3-0.2,2c0-0.5,0-1.4,0-1.9c-1.5,0-3.1,0-4.6,0c-0.1,1-0.2,1.9-0.4,2.9c0.1-1,0.1-2,0.1-3c-10,0-20.1,0-30.1,0
			c-0.1,1-0.2,2-0.3,3c0-1,0-1.9,0-2.9c-1.5,0-3,0-4.4,0c-0.2,1.1-0.3,2.3-0.5,3.4c0.1-1.2,0.1-2.4,0.1-3.5c-0.4,0-1.2,0-1.6,0
			c-0.2,0.8-0.3,1.6-0.5,2.5c0.1-0.9,0.2-1.8,0.2-2.7c-7.1-0.1-14.2-0.1-21.3,0c0,0.9,0.1,1.8,0.2,2.7c-0.2-0.8-0.4-1.7-0.6-2.5
			c-0.3,0-1,0-1.3,0c0.3,0,1-0.1,1.4-0.1c0.1-0.7,0.3-1.5,0.4-2.2c0,0.5-0.1,1.4-0.1,1.8c7.1,0.1,14.3,0.1,21.4,0
			c0-0.3-0.1-1-0.1-1.4c0.1,0.6,0.2,1.1,0.3,1.7c0.4,0,1.1,0,1.5,0c0-1.1,0.1-2.1,0.1-3.2c0.1,1.1,0.2,2.1,0.4,3.2
			c1.6,0,3.1,0,4.7,0c-0.1-1.8-0.2-3.6-0.4-5.3c0.4,1.7,0.5,3.5,0.5,5.3c10.1,0,20.1,0,30.2,0c1.6,0,3.2,0,4.9,0
			c0.1-12.8-7.5-25.2-18.9-31c-0.3-1.5-1.1-2.8-1.9-4.1c-10.7-18.4-21.3-37-32.1-55.3C122.8,52.4,121.5,54.8,120.2,57.1z"/>
	</g>
	<path id="XMLID_49_" fill="#FFFFFF" d="M120.2,57.1c1.4-2.3,2.6-4.8,4.2-7c10.8,18.4,21.3,36.9,32.1,55.3c0.8,1.3,1.6,2.6,1.9,4.1
		c-10.4-5.6-23.7-5.3-33.9,0.7c-10.5-6.1-24.1-6.3-34.6-0.3c0.3-0.8,0.7-1.5,1.1-2.3C100.7,90.9,110.4,74,120.2,57.1z"/>
	<g id="XMLID_67_">
		<path id="XMLID_69_" fill="#FFFFFF" d="M98.7,111.6c7-2,14.6-1.3,21.1,1.8c-8,6.6-13.2,16.8-12.9,27.3c1.6,0.2,3.2,0,4.7,0.1
			c0-9.6,4.9-19,12.7-24.6c6.9,4.9,11.6,12.9,12.5,21.3c0.1,1,0,2.1-0.1,3.2c-0.4,0-1.1,0-1.5,0c-0.1-0.6-0.2-1.1-0.3-1.7
			c-0.6-5-5.1-9.1-10.2-9.2c-5.2-0.4-10.2,3.6-11,8.7c-0.2,0.7-0.3,1.5-0.4,2.2c-0.3,0-1,0.1-1.4,0.1l-0.4,0
			c0.1,9.6,4.9,19,12.8,24.6c6.8-4.9,11.5-12.7,12.5-21c0.2-1.1,0.3-2.3,0.5-3.4c1.5,0,3,0,4.4,0c0,1,0.1,1.9,0,2.9
			c-0.7,9.4-5.6,18.2-12.9,24.3c7.5,3.5,16.5,3.9,24.2,0.8c10.3-4,17.9-14,18.9-25c0.1-1,0.2-1.9,0.4-2.9c1.5,0,3.1,0,4.6,0
			c0,0.5,0,1.4,0,1.9c-0.4,8.7-4.4,17.2-10.7,23.3c-6.7,6.5-16.1,10.2-25.4,9.9c-5.8-0.1-11.5-1.8-16.6-4.7
			c-9.2,5.3-20.9,6.2-30.8,2.1c-12.9-5.1-22.3-18.5-21.8-32.5c1.6-0.2,3.2,0,4.7,0c0.1-4.4,0.9-8.8,2.8-12.7
			C83,120.1,90.3,113.9,98.7,111.6z M76.6,140.8c0.1,5.5,1.5,10.9,4.4,15.6c3.9,6.6,10.5,11.5,17.9,13.5c7,2,14.6,1.2,21.1-1.8
			c-3.7-3-6.8-6.7-9-10.9c-2.8-5-3.9-10.7-4.2-16.4C96.7,140.8,86.6,140.8,76.6,140.8z"/>
	</g>
	<path id="XMLID_46_" fill="#FFFFFF" d="M129,113.4c9.9-4.7,22.3-3.6,31,3c7.6,5.6,12.2,14.8,12.3,24.2c-10.1,0-20.1,0-30.2,0
		c0-1.8-0.2-3.6-0.5-5.3C140.3,126.8,135.7,118.9,129,113.4z"/>
	<path id="XMLID_45_" fill="#FFFFFF" d="M113.8,140.7c7.1-0.1,14.2-0.1,21.3,0c-0.1,0.9-0.1,1.8-0.2,2.7c-1.1,4.7-5.7,8.3-10.5,8.2
		c-4.8,0.1-9.3-3.5-10.4-8.2C113.9,142.4,113.9,141.5,113.8,140.7z"/>
	<path id="XMLID_42_" fill="#1D1918" d="M89.8,110c10.5-6,24.2-5.8,34.6,0.3c10.2-5.9,23.5-6.3,33.9-0.7c11.4,5.8,18.9,18.2,18.9,31
		c-1.6,0-3.3,0-4.9,0c0-9.4-4.7-18.6-12.3-24.2c-8.7-6.7-21.2-7.8-31-3c6.7,5.5,11.3,13.4,12.6,21.9c0.2,1.8,0.2,3.5,0.4,5.3
		c-1.6,0-3.1,0-4.7,0c-0.1-1.1-0.2-2.1-0.4-3.2c-0.9-8.5-5.6-16.4-12.5-21.3c-7.9,5.6-12.7,15-12.7,24.6c-1.6-0.1-3.2,0.2-4.7-0.1
		c-0.3-10.4,4.9-20.6,12.9-27.3c-6.5-3.1-14.2-3.8-21.1-1.8c-8.4,2.3-15.7,8.5-19.3,16.4c-1.9,4-2.7,8.3-2.8,12.7
		c-1.6,0-3.2-0.1-4.7,0c-0.4,14,8.9,27.4,21.8,32.5c9.9,4.1,21.5,3.3,30.8-2.1c5.1,2.8,10.8,4.5,16.6,4.7c9.3,0.3,18.7-3.3,25.4-9.9
		c6.3-6,10.2-14.5,10.7-23.3c0-0.7,0.1-1.3,0.2-2c3,0.2,6.3-0.5,9.2,0.4c0,1-0.8,1.7-1.2,2.5c-20.1,34.9-40.3,69.7-60.4,104.6
		c-0.3,1-1-0.1-1.2-0.5c-18.4-31.9-36.8-63.7-55.2-95.6c-2.1-3.8-4.5-7.4-6.4-11.4c2.9,0,5.8,0,8.7,0c0.1-0.1,0.4-0.3,0.6-0.4
		c0.6-0.6,0.4-1.6,0.5-2.4C72.6,126.4,79.7,115.6,89.8,110z"/>
	<path id="XMLID_41_" fill="#1D1918" d="M113.9,138.5c0.8-5.1,5.8-9.1,11-8.7c5,0.1,9.6,4.2,10.2,9.2c0,0.3,0.1,1,0.1,1.4
		c-7.1,0.1-14.3,0.1-21.4,0C113.8,139.8,113.9,138.9,113.9,138.5z"/>
	<path id="XMLID_40_" fill="#1D1918" d="M76.6,140.8c10.1,0,20.1,0,30.2,0c0.3,5.7,1.4,11.4,4.2,16.4c2.2,4.2,5.3,7.9,9,10.9
		c-6.5,3-14.1,3.8-21.1,1.8c-7.4-2-13.9-7-17.9-13.5C78.1,151.7,76.6,146.2,76.6,140.8z"/>
	<path id="XMLID_39_" fill="#1D1918" d="M111.7,140.8l0.4,0c0.3,0,1,0,1.3,0c0.2,0.8,0.3,1.7,0.6,2.5c1.1,4.7,5.6,8.2,10.4,8.2
		c4.8,0.1,9.5-3.4,10.5-8.2c0.2-0.8,0.3-1.6,0.5-2.5c0.4,0,1.2,0,1.6,0c0,1.2,0,2.4-0.1,3.5c-1,8.4-5.7,16.1-12.5,21
		C116.6,159.8,111.8,150.4,111.7,140.8z"/>
	<path id="XMLID_38_" fill="#1D1918" d="M142.2,140.8c10,0,20.1,0,30.1,0c0,1,0,2-0.1,3c-1,11-8.6,21-18.9,25
		c-7.7,3.1-16.7,2.7-24.2-0.8c7.2-6,12.1-14.8,12.9-24.3C142,142.9,142.1,141.8,142.2,140.8z"/>
</g>
</svg>
